<?xml version="1.0" encoding="UTF-8" standalone="no"?>
<svg
   width="43.999958"
   height="44.000061"
   viewBox="0 0 43.999957 44.00006"
   id="svg2"
   version="1.1"
   inkscape:version="1.1.1 (3bf5ae0d25, 2021-09-20)"
   sodipodi:docname="arrows.svg"
   xmlns:inkscape="http://www.inkscape.org/namespaces/inkscape"
   xmlns:sodipodi="http://sodipodi.sourceforge.net/DTD/sodipodi-0.dtd"
   xmlns="http://www.w3.org/2000/svg"
   xmlns:svg="http://www.w3.org/2000/svg"
   xmlns:rdf="http://www.w3.org/1999/02/22-rdf-syntax-ns#"
   xmlns:cc="http://creativecommons.org/ns#">
  <defs
     id="defs4">
    <style
       type="text/css"
       id="style2" />
  </defs>
  <sodipodi:namedview
     id="base"
     pagecolor="#ffffff"
     bordercolor="#000000"
     borderopacity="1"
     inkscape:pageopacity="0"
     inkscape:pageshadow="2"
     inkscape:zoom="8"
     inkscape:cx="25.5625"
     inkscape:cy="28.75"
     inkscape:document-units="px"
     inkscape:current-layer="layer1"
     showgrid="false"
     units="px"
     inkscape:showpageshadow="false"
     borderlayer="true"
     inkscape:window-width="1920"
     inkscape:window-height="1007"
     inkscape:window-x="0"
     inkscape:window-y="0"
     inkscape:window-maximized="1"
     fit-margin-top="0"
     fit-margin-left="0"
     fit-margin-right="0"
     fit-margin-bottom="0"
     objecttolerance="10.0"
     gridtolerance="10.0"
     guidetolerance="10.0"
     inkscape:pagecheckerboard="0"
     scale-x="1"
     inkscape:lockguides="true"
     showguides="false">
    <inkscape:grid
       type="xygrid"
       id="grid4160"
       empspacing="2"
       originx="-11.641632"
       originy="-23.812449" />
  </sodipodi:namedview>
  <metadata
     id="metadata7">
    <rdf:RDF>
      <cc:Work
         rdf:about="" />
    </rdf:RDF>
  </metadata>
  <g
     inkscape:label="Capa 1"
     inkscape:groupmode="layer"
     id="layer1"
     transform="translate(-11.641637,-261.54584)">
    <g
       id="up-arrow">
      <rect
         transform="matrix(0,1,1,0,0,0)"
         y="26.641642"
         x="261.54584"
         height="13.999993"
         width="13.999995"
         id="rect4241"
         style="fill:none;fill-opacity:1;stroke:none;stroke-width:0.0374177;stroke-linecap:square;stroke-linejoin:miter;stroke-miterlimit:4;stroke-dasharray:none;stroke-dashoffset:0;stroke-opacity:1" />
      <path
         d="m 33.428343,265.85007 -4.20026,4.9333 a 0.30001805,0.35237601 0 0 0 -0.063,0.38402 0.30001805,0.35237601 0 0 0 0.276026,0.21857 h 2.70016 a 0.30001805,0.35237601 0 0 0 0.300021,-0.3524 1.2000727,1.4095053 0 0 1 2.400141,0 0.30001805,0.35237601 0 0 0 0.300016,0.3524 h 2.700165 a 0.30001805,0.35237601 0 0 0 0.276014,-0.21857 0.2520151,0.29599584 0 0 0 0.02393,-0.13383 0.30001805,0.35237601 0 0 0 -0.08696,-0.25019 l -4.200253,-4.9333 a 0.30001805,0.35237601 0 0 0 -0.426024,0 z"
         id="path4"
         style="fill:#eceff4;fill-opacity:1;stroke-width:0.325142" />
    </g>
    <g
       id="right-arrow"
       transform="matrix(0,3.779526,-3.779526,0,1019.1608,217.54588)"
       style="stroke-width:0.264583">
      <rect
         style="opacity:1;fill:none;fill-opacity:1;stroke:none;stroke-width:0.0099001;stroke-linecap:square;stroke-linejoin:miter;stroke-miterlimit:4;stroke-dasharray:none;stroke-dashoffset:0;stroke-opacity:1"
         id="rect4168"
         width="3.7041669"
         height="3.7041664"
         x="254.93123"
         y="15.610413"
         transform="matrix(0,1,1,0,0,0)" />
      <path
         style="fill:#eceff4;fill-opacity:1;fill-rule:evenodd;stroke:none;stroke-width:0.0700043px;stroke-linecap:butt;stroke-linejoin:miter;stroke-opacity:1"
         d="m 17.462495,256.25414 -1.058333,1.05833 h 2.116667 z"
         id="path4170"
         inkscape:connector-curvature="0"
         class="ColorScheme-Text" />
    </g>
    <g
       transform="matrix(0,3.779526,3.779526,0,-951.87757,217.54588)"
       id="left-arrow"
       style="stroke-width:0.264583">
      <rect
         transform="matrix(0,1,1,0,0,0)"
         y="15.610413"
         x="254.93123"
         height="3.7041664"
         width="3.7041669"
         id="rect4174"
         style="opacity:1;fill:none;fill-opacity:1;stroke:none;stroke-width:0.0099001;stroke-linecap:square;stroke-linejoin:miter;stroke-miterlimit:4;stroke-dasharray:none;stroke-dashoffset:0;stroke-opacity:1" />
      <path
         inkscape:connector-curvature="0"
         id="path4176"
         d="m 17.462495,256.25414 -1.058333,1.05833 h 2.116667 z"
         style="fill:#eceff4;fill-opacity:1;fill-rule:evenodd;stroke:none;stroke-width:0.0700043px;stroke-linecap:butt;stroke-linejoin:miter;stroke-opacity:1"
         class="ColorScheme-Text" />
    </g>
    <g
       id="down-arrow">
      <rect
         style="fill:none;fill-opacity:1;stroke:none;stroke-width:0.0374177;stroke-linecap:square;stroke-linejoin:miter;stroke-miterlimit:4;stroke-dasharray:none;stroke-dashoffset:0;stroke-opacity:1"
         id="rect4162"
         width="13.999996"
         height="13.999995"
         x="-305.5459"
         y="26.641642"
         transform="rotate(-90)" />
      <path
         d="m 33.854882,301.28164 4.200262,-4.93317 a 0.30001878,0.35237641 0 0 0 0.06301,-0.38422 0.30001878,0.35237641 0 0 0 -0.276014,-0.21835 h -2.700179 a 0.30001878,0.35237641 0 0 0 -0.300013,0.35236 1.2000767,1.4095081 0 0 1 -2.400153,0 0.30001878,0.35237641 0 0 0 -0.300012,-0.35236 h -2.700171 a 0.30001878,0.35237641 0 0 0 -0.276017,0.21835 0.2520158,0.29599614 0 0 0 -0.02386,0.13401 0.30001878,0.35237641 0 0 0 0.08695,0.25021 l 4.200273,4.93317 a 0.30001878,0.35237641 0 0 0 0.426026,0 z"
         id="path4-3"
         style="fill:#eceff4;fill-opacity:1;stroke-width:0.325141" />
      <circle
         cx="296.44589"
         cy="-33.641644"
         r="1"
         id="circle6-6"
         style="fill:#00ccff;stroke-width:0.333328"
         transform="rotate(90)" />
    </g>
  </g>
</svg>
