<?xml version="1.0" encoding="UTF-8" standalone="no"?>
<svg
   xmlns:dc="http://purl.org/dc/elements/1.1/"
   xmlns:cc="http://creativecommons.org/ns#"
   xmlns:rdf="http://www.w3.org/1999/02/22-rdf-syntax-ns#"
   xmlns:svg="http://www.w3.org/2000/svg"
   xmlns="http://www.w3.org/2000/svg"
   xmlns:xlink="http://www.w3.org/1999/xlink"
   xmlns:sodipodi="http://sodipodi.sourceforge.net/DTD/sodipodi-0.dtd"
   xmlns:inkscape="http://www.inkscape.org/namespaces/inkscape"
   inkscape:version="1.0.2 (e86c870879, 2021-01-15)"
   sodipodi:docname="bar_meter_vertical.svg"
   id="svg2318"
   height="156"
   width="65"
   version="1.0">
  <sodipodi:namedview
     inkscape:document-rotation="0"
     inkscape:current-layer="svg2318"
     inkscape:window-maximized="1"
     inkscape:window-y="0"
     inkscape:window-x="0"
     inkscape:cy="83.68181"
     inkscape:cx="-16.970101"
     inkscape:zoom="2.8933822"
     showgrid="false"
     id="namedview76"
     inkscape:window-height="1007"
     inkscape:window-width="1920"
     inkscape:pageshadow="2"
     inkscape:pageopacity="0"
     guidetolerance="10"
     gridtolerance="10"
     objecttolerance="10"
     borderopacity="1"
     bordercolor="#000000"
     pagecolor="#ffffff"
     inkscape:showpageshadow="false"
     inkscape:lockguides="false" />
  <metadata
     id="metadata4420">
    <rdf:RDF>
      <cc:Work
         rdf:about="">
        <dc:format>image/svg+xml</dc:format>
        <dc:type
           rdf:resource="http://purl.org/dc/dcmitype/StillImage" />
        <dc:title />
      </cc:Work>
    </rdf:RDF>
  </metadata>
  <defs
     id="defs2320">
    <linearGradient
       id="linearGradient4548-1">
      <stop
         offset="0"
         style="stop-color:#f0f0f0;stop-opacity:1"
         id="stop4550-1" />
      <stop
         offset="1"
         style="stop-color:#f0f0f0;stop-opacity:0"
         id="stop4552-7" />
    </linearGradient>
    <linearGradient
       gradientTransform="matrix(2,0,0,1,-48.007582,0)"
       gradientUnits="userSpaceOnUse"
       xlink:href="#linearGradient4548-1"
       id="linearGradient11303"
       y2="71.451363"
       x2="105.50379"
       y1="26.5"
       x1="105.50379" />
    <linearGradient
       gradientTransform="matrix(2,0,0,1,-48.007582,0)"
       gradientUnits="userSpaceOnUse"
       xlink:href="#linearGradient4548-1"
       id="linearGradient11305"
       y2="71.451363"
       x2="105.50379"
       y1="26.5"
       x1="105.50379" />
    <linearGradient
       gradientTransform="matrix(2,0,0,1,-48.007582,0)"
       gradientUnits="userSpaceOnUse"
       xlink:href="#linearGradient4548-1"
       id="linearGradient11307"
       y2="71.451363"
       x2="105.50379"
       y1="26.5"
       x1="105.50379" />
  </defs>
  <rect
     style="opacity:0.01;fill:#cecece;fill-opacity:1;stroke:none"
     id="background"
     transform="matrix(0,1,-1,0,0,0)"
     y="-41"
     x="12"
     ry="1.4393399"
     rx="1.4393399"
     height="16"
     width="132" />
  <rect
     style="fill:#2e75bc;fill-opacity:1;fill-rule:evenodd;stroke:none;opacity:0.01"
     id="label0"
     y="0"
     x="0"
     height="12"
     width="65" />
  <rect
     style="fill:#2e75bc;fill-opacity:1;fill-rule:evenodd;stroke:none;opacity:0.01"
     id="label1"
     y="144"
     x="0"
     height="12"
     width="65" />
  <rect
     style="fill:#2e75bc;fill-opacity:1;fill-rule:evenodd;stroke:none;opacity:0.01"
     id="label2"
     transform="matrix(0,1,-1,0,0,0)"
     y="-19.605326"
     x="45.460312"
     height="12"
     width="65" />
  <rect
     style="opacity:0.01;fill:#2e75bc;fill-opacity:1;fill-rule:nonzero;stroke:none"
     id="hint-stretch-borders"
     y="56.220737"
     x="81.302437"
     height="3.5355339"
     width="3.4471455" />
  <path
     style="fill:#c8c8c8;fill-opacity:1;stroke:none"
     id="background-top"
     d="m 79.27732,90.253135 h 1 v -5 h -1 z" />
  <path
     style="fill:#c8c8c8;fill-opacity:1;stroke:none"
     id="background-topright"
     d="m 79.27732,85.253135 h 1 v -1 c -0.537066,0.04959 -0.96811,0.458337 -1,1 z" />
  <path
     style="fill:#c8c8c8;fill-opacity:1;stroke:none"
     id="background-topleft"
     d="m 79.27732,90.253135 c 0.03171,0.538668 0.467126,0.946442 1,1 v -1 z" />
  <path
     style="fill:#c8c8c8;fill-opacity:1;stroke:none"
     id="background-center"
     d="m 80.27732,90.253135 h 10 v -5 h -10 z" />
  <path
     style="fill:#c8c8c8;fill-opacity:1;stroke:none"
     id="background-left"
     d="m 80.27732,91.253135 h 10 v -1 h -10 z" />
  <path
     style="fill:#c8c8c8;fill-opacity:1;stroke:none"
     id="background-right"
     d="m 80.27732,85.253135 h 10 v -1 h -10 z" />
  <path
     style="fill:#c9c9c9;fill-opacity:1;stroke:none"
     id="background-bottom"
     d="m 91.27732,90.253135 h -1 v -5 h 1 z" />
  <path
     style="fill:#c8c8c8;fill-opacity:1;stroke:none"
     id="background-bottomright"
     d="m 91.27732,85.253135 h -1 v -1 c 0.537066,0.04959 0.96811,0.458337 1,1 z" />
  <path
     style="fill:#c8c8c8;fill-opacity:1;stroke:none"
     id="background-bottomleft"
     d="m 91.27732,90.253135 c -0.03171,0.538668 -0.467126,0.946442 -1,1 v -1 z" />
  <g
     id="bar-active-top"
     transform="rotate(-90,76.797735,51.394745)">
    <path
       style="fill:none;stroke:none"
       id="path3371"
       d="m 48,54 v 2 h 2.99587 v -2 z" />
    <path
       style="fill:#ffffff;fill-opacity:1;stroke:none"
       id="path3459"
       d="m 48,55 v 1 h 2.99587 v -1 z" />
  </g>
  <g
     id="bar-active-topleft"
     transform="rotate(-90,76.797735,51.394745)">
    <path
       style="fill:none;stroke:none"
       id="path3355"
       d="m 46,54 v 2 h 2 v -2 z" />
    <path
       style="fill:#ffffff;fill-opacity:1;stroke:none"
       id="path3457"
       d="m 48,55 c -0.538668,0.03171 -0.946442,0.467126 -1,1 h 1 z" />
  </g>
  <path
     style="fill:#ffffff;fill-opacity:1;stroke:none"
     id="bar-active-center"
     d="m 81.40299,80.188345 h 8 v -2.99587 h -8 z" />
  <g
     id="bar-active-left"
     transform="rotate(-90,76.797735,51.394745)">
    <path
       style="opacity:0;fill:url(#linearGradient11303);fill-opacity:1;stroke:none"
       id="path3347"
       d="m 46,56 v 8 h 2 v -8 z" />
    <path
       style="fill:#ffffff;fill-opacity:1;stroke:none"
       id="path3455"
       d="m 47.003791,56 v 8 h 1 v -8 z" />
  </g>
  <g
     id="bar-active-topright"
     transform="matrix(0,1,1,0,25.40299,29.19249)">
    <path
       style="fill:none;stroke:none"
       id="path3381"
       d="m 46,54 v 2 h 2 v -2 z" />
    <path
       style="fill:#ffffff;fill-opacity:1;stroke:none"
       id="path3383"
       d="m 48,55 c -0.538668,0.03171 -0.946442,0.467126 -1,1 h 1 z" />
  </g>
  <g
     style="fill:#a9cfeb;fill-opacity:0.509804"
     id="bar-active-right"
     transform="matrix(0,1,1,0,25.40299,29.18869)">
    <path
       style="opacity:0;fill:#a9cfeb;fill-opacity:0.509804;stroke:none"
       id="path3389"
       d="m 46,56 v 8 h 2 v -8 z" />
    <path
       style="fill:#ffffff;fill-opacity:1;stroke:none"
       id="path3391"
       d="m 47.003791,56 v 8 h 1 v -8 z" />
  </g>
  <g
     id="bar-active-bottom"
     transform="rotate(-90,76.797735,51.394745)">
    <path
       style="fill:#ffffff;fill-opacity:1;stroke:none"
       id="path3463"
       d="M 48.00413,65 V 64 H 51 v 1 z" />
    <path
       style="fill:none;stroke:none"
       id="path3399"
       d="m 48,66 v -2 h 2.99587 v 2 z" />
  </g>
  <g
     id="bar-active-bottomleft"
     transform="rotate(-90,76.797735,51.394745)">
    <path
       style="fill:#ffffff;fill-opacity:1;stroke:none"
       id="mar-active-bottomleft"
       d="m 48.003791,65 c -0.538668,-0.03171 -0.946442,-0.467126 -1,-1 h 1 z" />
    <path
       style="fill:none;stroke:none"
       id="path3405"
       d="m 46,66 v -2 h 2 v 2 z" />
  </g>
  <g
     id="bar-active-bottomright"
     transform="rotate(-90,76.797735,51.394745)">
    <path
       style="fill:#ffffff;fill-opacity:1;stroke:none"
       id="path3461"
       d="m 51.003791,65 v -1 h 1 c -0.04959,0.537066 -0.458337,0.96811 -1,1 z" />
    <path
       style="fill:none;stroke:none"
       id="path3411"
       d="m 52.999995,66 v -2 h -2 v 2 z" />
  </g>
  <g
     id="bar-inactive-top"
     transform="rotate(-90,72.577189,47.306782)">
    <path
       style="fill:none;stroke:none"
       id="path3467"
       d="m 48,54 v 2 h 2.99587 v -2 z" />
    <path
       style="fill:#5d8aa8;fill-opacity:1;stroke:none"
       id="path3469"
       d="m 48,55 v 1 h 2.99587 v -1 z" />
  </g>
  <g
     id="bar-inactive-topleft"
     transform="rotate(-90,72.577189,47.306782)">
    <path
       style="fill:none;stroke:none"
       id="path3473"
       d="m 46,54 v 2 h 2 v -2 z" />
    <path
       style="fill:#5d8aa8;fill-opacity:1;stroke:none"
       id="path3475"
       d="m 48,55 c -0.538668,0.03171 -0.946442,0.467126 -1,1 h 1 z" />
  </g>
  <path
     style="fill:#5d8aa8;fill-opacity:1;stroke:none"
     id="bar-inactive-center"
     d="m 81.270407,71.87984 h 8 v -2.99587 h -8 z" />
  <g
     id="bar-inactive-left"
     transform="rotate(-90,72.577189,47.306782)">
    <path
       style="opacity:0;fill:url(#linearGradient11305);fill-opacity:1;stroke:none"
       id="path3481"
       d="m 46,56 v 8 h 2 v -8 z" />
    <path
       style="fill:#5d8aa8;fill-opacity:1;stroke:none"
       id="path3483"
       d="m 47.003791,56 v 8 h 1 v -8 z" />
  </g>
  <g
     id="bar-inactive-topright"
     transform="matrix(0,1,1,0,25.270407,20.88398)">
    <path
       style="fill:none;stroke:none"
       id="path3487"
       d="m 46,54 v 2 h 2 v -2 z" />
    <path
       style="fill:#5d8aa8;fill-opacity:1;stroke:none"
       id="path3489"
       d="m 48,55 c -0.538668,0.03171 -0.946442,0.467126 -1,1 h 1 z" />
  </g>
  <g
     id="bar-inactive-right"
     transform="matrix(0,1,1,0,25.270407,20.88018)">
    <path
       style="opacity:0;fill:url(#linearGradient11307);fill-opacity:1;stroke:none"
       id="path3493"
       d="m 46,56 v 8 h 2 v -8 z" />
    <path
       style="fill:#5d8aa8;fill-opacity:1;stroke:none"
       id="path3495"
       d="m 47.003791,56 v 8 h 1 v -8 z" />
  </g>
  <g
     id="bar-inactive-bottom"
     transform="rotate(-90,72.577189,47.306782)">
    <path
       style="fill:#5d8aa8;fill-opacity:1;stroke:none"
       id="path3499"
       d="M 48.00413,65 V 64 H 51 v 1 z" />
    <path
       style="fill:none;stroke:none"
       id="path3501"
       d="m 48,66 v -2 h 2.99587 v 2 z" />
  </g>
  <g
     id="bar-inactive-bottomleft"
     transform="rotate(-90,72.577189,47.306782)">
    <path
       style="fill:#5d8aa8;fill-opacity:1;stroke:none"
       id="path3505"
       d="m 48.003791,65 c -0.538668,-0.03171 -0.946442,-0.467126 -1,-1 h 1 z" />
    <path
       style="fill:none;stroke:none"
       id="path3507"
       d="m 46,66 v -2 h 2 v 2 z" />
  </g>
  <g
     id="bar-inactive-bottomright"
     transform="rotate(-90,72.577189,47.306782)">
    <path
       style="fill:#5d8aa8;fill-opacity:1;stroke:none"
       id="path3511"
       d="m 51.003791,65 v -1 h 1 c -0.04959,0.537066 -0.458337,0.96811 -1,1 z" />
    <path
       style="fill:none;stroke:none"
       id="path3513"
       d="m 52.999995,66 v -2 h -2 v 2 z" />
  </g>
</svg>
