<?xml version="1.0" encoding="UTF-8" standalone="no"?>
<svg
   inkscape:version="1.1 (c68e22c387, 2021-05-23)"
   sodipodi:docname="system-log-out.svg"
   id="svg6"
   version="1.1"
   viewBox="0 0 32 32"
   xmlns:inkscape="http://www.inkscape.org/namespaces/inkscape"
   xmlns:sodipodi="http://sodipodi.sourceforge.net/DTD/sodipodi-0.dtd"
   xmlns:xlink="http://www.w3.org/1999/xlink"
   xmlns="http://www.w3.org/2000/svg"
   xmlns:svg="http://www.w3.org/2000/svg"
   xmlns:rdf="http://www.w3.org/1999/02/22-rdf-syntax-ns#"
   xmlns:cc="http://creativecommons.org/ns#"
   xmlns:dc="http://purl.org/dc/elements/1.1/">
  <metadata
     id="metadata10">
    <rdf:RDF>
      <cc:Work
         rdf:about="">
        <dc:format>image/svg+xml</dc:format>
        <dc:type
           rdf:resource="http://purl.org/dc/dcmitype/StillImage" />
      </cc:Work>
    </rdf:RDF>
  </metadata>
  <sodipodi:namedview
     inkscape:document-rotation="0"
     inkscape:lockguides="true"
     inkscape:current-layer="svg6"
     inkscape:window-maximized="1"
     inkscape:window-y="0"
     inkscape:window-x="0"
     inkscape:cy="22.535681"
     inkscape:cx="15.804891"
     inkscape:zoom="10.028541"
     showgrid="true"
     id="namedview8"
     inkscape:window-height="1007"
     inkscape:window-width="1920"
     inkscape:pageshadow="2"
     inkscape:pageopacity="0"
     guidetolerance="10"
     gridtolerance="10"
     objecttolerance="10"
     borderopacity="1"
     bordercolor="#666666"
     pagecolor="#ffffff"
     inkscape:pagecheckerboard="0">
    <inkscape:grid
       type="xygrid"
       id="grid883" />
  </sodipodi:namedview>
  <defs
     id="defs3051">
    <style
       id="current-color-scheme"
       type="text/css">
      .ColorScheme-Text {
        color:#eff0f1;
      }
      </style>
    <linearGradient
       inkscape:collect="always"
       xlink:href="#linearGradient898"
       id="linearGradient900"
       x1="3.0000169"
       y1="28.899982"
       x2="22.000017"
       y2="8.8999825"
       gradientUnits="userSpaceOnUse"
       gradientTransform="matrix(0.92213588,0,0,0.92213588,1.2458294,1.2998252)" />
    <linearGradient
       inkscape:collect="always"
       id="linearGradient898">
      <stop
         style="stop-color:#00d4aa;stop-opacity:1"
         offset="0"
         id="stop894" />
      <stop
         style="stop-color:#afe9dd;stop-opacity:1"
         offset="1"
         id="stop896" />
    </linearGradient>
    <linearGradient
       inkscape:collect="always"
       xlink:href="#linearGradient907"
       id="linearGradient909"
       x1="17.000017"
       y1="21.899982"
       x2="17.000017"
       y2="22.899982"
       gradientUnits="userSpaceOnUse"
       gradientTransform="matrix(0.92213588,0,0,0.92213588,1.2458294,1.2998252)" />
    <linearGradient
       inkscape:collect="always"
       id="linearGradient907">
      <stop
         style="stop-color:#eff0f1;stop-opacity:1;"
         offset="0"
         id="stop902" />
      <stop
         style="stop-color:#eff0f1;stop-opacity:0;"
         offset="1"
         id="stop904" />
    </linearGradient>
  </defs>
  <path
     d="m 22.669109,5.1891685 c 2.321718,0 4.195721,1.8740068 4.195721,4.1957185 v 13.335785 c 0,2.321711 -1.874003,4.195719 -4.195721,4.195719 H 9.3308884 c -2.321715,0 -4.195722,-1.874008 -4.195722,-4.195719 V 9.384887 c 0,-2.3217117 1.874007,-4.1957185 4.195722,-4.1957185 H 22.669109 m 0,-1.1229361 H 9.3308884 c -2.921102,0 -5.318656,2.3975539 -5.318656,5.3186546 v 13.335785 c 0,2.923541 2.397554,5.321095 5.318656,5.321095 H 22.666667 c 2.923547,0 5.321101,-2.397554 5.321101,-5.31866 V 9.384887 c 0,-2.9211007 -2.397554,-5.3186546 -5.318659,-5.3186546 z"
     id="path4"
     style="clip-rule:evenodd;fill:url(#linearGradient900);fill-opacity:1;fill-rule:evenodd;stroke:url(#linearGradient909);stroke-width:0.0244649;stroke-linejoin:round;stroke-miterlimit:1.41421" />
  <path
     d="m 19.621086,15.043337 c -0.0072,-0.0093 -0.02325,-0.0119 -0.03092,-0.02084 l -4.573128,-4.438594 c -0.599574,-0.583477 -1.570385,-0.583477 -2.168459,0 -0.598095,0.5805 -0.598095,1.521208 0,2.103196 l 3.514937,3.41304 -3.514937,3.413036 c -0.598095,0.581994 -0.598095,1.522702 0,2.103201 0.598074,0.583477 1.56887,0.583477 2.168459,0 l 4.571584,-4.438585 c 0.0082,-0.0097 0.02325,-0.0119 0.03214,-0.02081 0.300576,-0.290243 0.449311,-0.674267 0.447804,-1.056801 9.02e-4,-0.382534 -0.147223,-0.766557 -0.447799,-1.056807 z"
     id="path2-12"
     style="fill:#33ffd7;fill-opacity:1;stroke-width:1.51074" />
</svg>
