<?xml version="1.0" encoding="UTF-8" standalone="no"?>
<svg
   inkscape:version="1.1 (c68e22c387, 2021-05-23)"
   sodipodi:docname="system-suspend.svg"
   id="svg5"
   version="1.1"
   viewBox="0 0 32 32"
   xmlns:inkscape="http://www.inkscape.org/namespaces/inkscape"
   xmlns:sodipodi="http://sodipodi.sourceforge.net/DTD/sodipodi-0.dtd"
   xmlns:xlink="http://www.w3.org/1999/xlink"
   xmlns="http://www.w3.org/2000/svg"
   xmlns:svg="http://www.w3.org/2000/svg"
   xmlns:rdf="http://www.w3.org/1999/02/22-rdf-syntax-ns#"
   xmlns:cc="http://creativecommons.org/ns#"
   xmlns:dc="http://purl.org/dc/elements/1.1/">
  <metadata
     id="metadata9">
    <rdf:RDF>
      <cc:Work
         rdf:about="">
        <dc:format>image/svg+xml</dc:format>
        <dc:type
           rdf:resource="http://purl.org/dc/dcmitype/StillImage" />
      </cc:Work>
    </rdf:RDF>
  </metadata>
  <sodipodi:namedview
     inkscape:document-rotation="0"
     inkscape:current-layer="svg5"
     inkscape:window-maximized="1"
     inkscape:window-y="0"
     inkscape:window-x="0"
     inkscape:cy="15.230038"
     inkscape:cx="-3.8427642"
     inkscape:zoom="14.182499"
     showgrid="true"
     id="namedview7"
     inkscape:window-height="1007"
     inkscape:window-width="1920"
     inkscape:pageshadow="2"
     inkscape:pageopacity="0"
     guidetolerance="10"
     gridtolerance="10"
     objecttolerance="10"
     borderopacity="1"
     bordercolor="#666666"
     pagecolor="#ffffff"
     inkscape:pagecheckerboard="0">
    <inkscape:grid
       type="xygrid"
       id="grid885" />
  </sodipodi:namedview>
  <defs
     id="defs3051">
    <style
       id="current-color-scheme"
       type="text/css">
      .ColorScheme-Text {
        color:#eff0f1;
      }
      </style>
    <linearGradient
       inkscape:collect="always"
       xlink:href="#linearGradient933"
       id="linearGradient941"
       x1="7.9980001"
       y1="12.95"
       x2="16.6304"
       y2="12.95"
       gradientUnits="userSpaceOnUse"
       gradientTransform="matrix(0.92307687,0,0,0.92307687,1.2307537,1.230763)" />
    <linearGradient
       inkscape:collect="always"
       id="linearGradient933">
      <stop
         style="stop-color:#ff66ff;stop-opacity:1"
         offset="0"
         id="stop929" />
      <stop
         style="stop-color:#ffb280;stop-opacity:1"
         offset="1"
         id="stop931" />
    </linearGradient>
    <linearGradient
       inkscape:collect="always"
       xlink:href="#linearGradient933"
       id="linearGradient995"
       gradientUnits="userSpaceOnUse"
       gradientTransform="matrix(0.92213588,0,0,0.92213589,1.2458327,1.245832)"
       x1="3.0000169"
       y1="28.899982"
       x2="22.000017"
       y2="8.8999825" />
    <linearGradient
       inkscape:collect="always"
       xlink:href="#linearGradient907"
       id="linearGradient997"
       gradientUnits="userSpaceOnUse"
       gradientTransform="matrix(0.92213588,0,0,0.92213589,1.2458327,1.245832)"
       x1="17.000017"
       y1="21.899982"
       x2="17.000017"
       y2="22.899982" />
    <linearGradient
       inkscape:collect="always"
       id="linearGradient907">
      <stop
         style="stop-color:#eff0f1;stop-opacity:1;"
         offset="0"
         id="stop902" />
      <stop
         style="stop-color:#eff0f1;stop-opacity:0;"
         offset="1"
         id="stop904" />
    </linearGradient>
    <linearGradient
       inkscape:collect="always"
       xlink:href="#linearGradient933"
       id="linearGradient949"
       x1="19.014999"
       y1="20.35"
       x2="23.985168"
       y2="20.35"
       gradientUnits="userSpaceOnUse"
       gradientTransform="matrix(0.92307687,0,0,0.92307687,1.2307537,1.230763)" />
  </defs>
  <path
     d="m 15.294152,15.178335 h -2.67356 l 3.66715,-4.458103 C 16.6015,10.334559 16.666865,9.8050764 16.457692,9.3540424 16.24199,8.9030123 15.790932,8.6153849 15.294152,8.6153849 H 9.901273 c -0.7124803,0 -1.2877503,0.5752396 -1.2877503,1.2877467 0,0.7125194 0.57527,1.2877644 1.2877503,1.2877644 h 2.673554 l -3.6671913,4.458106 c -0.313753,0.38567 -0.379063,0.915146 -0.169944,1.36618 0.21575,0.451037 0.666763,0.738664 1.1635813,0.738664 h 5.392879 c 0.7125,0 1.287736,-0.575242 1.287736,-1.287747 0,-0.712522 -0.581772,-1.287764 -1.287736,-1.287764 z"
     id="path4-3"
     style="fill:url(#linearGradient941);fill-opacity:1;stroke-width:0.0653687" />
  <path
     d="m 22.669112,5.1351696 c 2.321712,0 4.195716,1.8740074 4.195716,4.1957193 V 22.666674 c 0,2.321709 -1.874004,4.195719 -4.195716,4.195719 H 9.3308927 c -2.32171,0 -4.19572,-1.87401 -4.19572,-4.195719 V 9.3308889 c 0,-2.3217119 1.87401,-4.1957193 4.19572,-4.1957193 H 22.669112 m 0,-1.1229369 H 9.3308927 c -2.92111,0 -5.31866,2.397556 -5.31866,5.3186562 V 22.666674 c 0,2.923541 2.39755,5.321093 5.31866,5.321093 H 22.666664 c 2.923553,0 5.321105,-2.397552 5.321105,-5.318658 V 9.3308889 c 0,-2.9211002 -2.397552,-5.3186562 -5.318657,-5.3186562 z"
     id="path4-6-5"
     style="clip-rule:evenodd;fill:url(#linearGradient995);fill-opacity:1;fill-rule:evenodd;stroke:url(#linearGradient997);stroke-width:0.0244654;stroke-linejoin:round;stroke-miterlimit:1.41421" />
  <path
     d="m 22.629482,21.163274 h -1.53932 l 2.111393,-2.566788 c 0.180644,-0.222056 0.218277,-0.526917 0.09783,-0.786585 -0.124194,-0.259679 -0.383893,-0.425286 -0.669916,-0.425286 h -3.104978 c -0.410223,0 -0.741443,0.331199 -0.741443,0.741446 0,0.410222 0.33122,0.741431 0.741443,0.741431 h 1.539305 l -2.111413,2.566789 c -0.180643,0.222058 -0.218246,0.526904 -0.09784,0.786584 0.124225,0.259671 0.383905,0.42529 0.669963,0.42529 h 3.104977 c 0.410228,0 0.741428,-0.331219 0.741428,-0.741435 0,-0.410237 -0.334955,-0.741446 -0.741429,-0.741446 z"
     id="path4-3-6"
     style="fill:url(#linearGradient949);fill-opacity:1;stroke-width:0.0376373" />
</svg>
