<?xml version="1.0" encoding="UTF-8" standalone="no"?>
<svg
   inkscape:version="1.1 (c68e22c387, 2021-05-23)"
   sodipodi:docname="system-reboot.svg"
   id="svg6"
   version="1.1"
   viewBox="0 0 32 32"
   xmlns:inkscape="http://www.inkscape.org/namespaces/inkscape"
   xmlns:sodipodi="http://sodipodi.sourceforge.net/DTD/sodipodi-0.dtd"
   xmlns:xlink="http://www.w3.org/1999/xlink"
   xmlns="http://www.w3.org/2000/svg"
   xmlns:svg="http://www.w3.org/2000/svg"
   xmlns:rdf="http://www.w3.org/1999/02/22-rdf-syntax-ns#"
   xmlns:cc="http://creativecommons.org/ns#"
   xmlns:dc="http://purl.org/dc/elements/1.1/">
  <metadata
     id="metadata10">
    <rdf:RDF>
      <cc:Work
         rdf:about="">
        <dc:format>image/svg+xml</dc:format>
        <dc:type
           rdf:resource="http://purl.org/dc/dcmitype/StillImage" />
      </cc:Work>
    </rdf:RDF>
  </metadata>
  <sodipodi:namedview
     inkscape:document-rotation="0"
     inkscape:current-layer="svg6"
     inkscape:window-maximized="1"
     inkscape:window-y="0"
     inkscape:window-x="0"
     inkscape:cy="15.455887"
     inkscape:cx="25.975862"
     inkscape:zoom="10.028541"
     showgrid="false"
     id="namedview8"
     inkscape:window-height="1007"
     inkscape:window-width="1920"
     inkscape:pageshadow="2"
     inkscape:pageopacity="0"
     guidetolerance="10"
     gridtolerance="10"
     objecttolerance="10"
     borderopacity="1"
     bordercolor="#666666"
     pagecolor="#ffffff"
     inkscape:pagecheckerboard="0">
    <inkscape:grid
       type="xygrid"
       id="grid871" />
  </sodipodi:namedview>
  <defs
     id="defs3051">
    <style
       id="current-color-scheme"
       type="text/css">
      .ColorScheme-Text {
        color:#eff0f1;
      }
      </style>
    <linearGradient
       inkscape:collect="always"
       xlink:href="#linearGradient970"
       id="linearGradient969"
       gradientUnits="userSpaceOnUse"
       gradientTransform="matrix(0.9221359,0,0,0.92213591,1.2458285,1.2458274)"
       x1="3.0000169"
       y1="28.899982"
       x2="22.000017"
       y2="8.8999825" />
    <linearGradient
       inkscape:collect="always"
       id="linearGradient970">
      <stop
         style="stop-color:#9955ff;stop-opacity:1"
         offset="0"
         id="stop965" />
      <stop
         style="stop-color:#c6afe9;stop-opacity:1"
         offset="1"
         id="stop967" />
    </linearGradient>
    <linearGradient
       inkscape:collect="always"
       xlink:href="#linearGradient907"
       id="linearGradient971"
       gradientUnits="userSpaceOnUse"
       gradientTransform="matrix(0.9221359,0,0,0.92213591,1.2458285,1.2458274)"
       x1="17.000017"
       y1="21.899982"
       x2="17.000017"
       y2="22.899982" />
    <linearGradient
       inkscape:collect="always"
       id="linearGradient907">
      <stop
         style="stop-color:#eff0f1;stop-opacity:1;"
         offset="0"
         id="stop902" />
      <stop
         style="stop-color:#eff0f1;stop-opacity:0;"
         offset="1"
         id="stop904" />
    </linearGradient>
    <linearGradient
       inkscape:collect="always"
       xlink:href="#linearGradient970"
       id="linearGradient978"
       x1="-102.294"
       y1="15.966"
       x2="-89.418213"
       y2="15.966"
       gradientUnits="userSpaceOnUse"
       gradientTransform="matrix(0.92307688,0,0,0.92307688,104.61537,1.2307844)" />
  </defs>
  <g
     id="g887" />
  <path
     style="color:#000000;overflow:visible;opacity:0;fill:#0000ff;fill-opacity:1;stroke-width:1.06667"
     id="path940"
     overflow="visible"
     d="m 60.626965,-17.595446 c -8.82859,0 -16,7.171413 -16,15.9999996 0,8.828587 7.17141,16.0000004 16,16.0000004 8.82752,0 16,-7.1714134 16,-16.0000004 0,-8.8275196 -7.17141,-15.9999996 -16,-15.9999996 z"
     inkscape:connector-curvature="0" />
  <path
     d="m 22.66911,5.1351694 c 2.321714,0 4.19572,1.8740067 4.19572,4.1957189 V 22.666674 c 0,2.321711 -1.874006,4.195718 -4.19572,4.195718 H 9.3308925 c -2.321711,0 -4.19572,-1.874007 -4.19572,-4.195718 V 9.3308883 c 0,-2.3217122 1.874009,-4.1957189 4.19572,-4.1957189 H 22.66911 m 0,-1.1229369 H 9.3308925 c -2.92111,0 -5.31866,2.3975555 -5.31866,5.3186558 V 22.666674 c 0,2.923543 2.39755,5.321093 5.31866,5.321093 H 22.666667 c 2.923551,0 5.321101,-2.39755 5.321101,-5.318658 V 9.3308883 c 0,-2.9211003 -2.39755,-5.3186558 -5.318658,-5.3186558 z"
     id="path4-6-3"
     style="clip-rule:evenodd;fill:url(#linearGradient969);fill-opacity:1;fill-rule:evenodd;stroke:url(#linearGradient971);stroke-width:0.024465;stroke-linejoin:round;stroke-miterlimit:1.41421" />
  <path
     d="m 14.253625,22.430171 h 3.757405 c 2.12742,0 4.064452,-2.020029 4.064452,-4.160748 v -1.608868 c 0,-0.545149 -0.730945,-0.997224 -1.289396,-0.997224 -0.545152,0 -1.288416,0.438679 -1.288416,0.997126 v 1.608966 c 0,1.037117 -0.656484,1.596538 -1.693609,1.596538 h -3.35611 c -1.037123,0 -1.6936,-0.559421 -1.6936,-1.596538 v -2.566208 c 0,-1.037117 0.658492,-1.434657 1.6936,-1.499116 h 2.829472 l -0.347037,0.249257 c -0.442913,0.318112 -0.385597,1.010524 0,1.409418 0.385595,0.385597 1.010526,0.385597 1.409422,0 l 2.326865,-2.326873 c 0.385597,-0.38559 0.385597,-1.010522 0,-1.409416 L 18.339808,9.7996154 c -0.199445,-0.199446 -0.452083,-0.2925208 -0.704715,-0.2925208 -0.25263,0 -0.505264,0.093071 -0.704707,0.2925208 -0.385597,0.3855956 -0.385597,1.0105256 0,1.4094196 l 0.347037,0.346321 h -3.120969 c -2.127416,0 -3.966312,2.020437 -3.966312,4.161157 v 2.566207 c 0,2.127422 1.93605,4.147451 4.063483,4.147451 z"
     id="path2"
     sodipodi:nodetypes="sssssssssssscsccscsssccssss"
     style="fill:url(#linearGradient978);fill-opacity:1;stroke-width:0.132965" />
</svg>
