<?xml version="1.0" encoding="UTF-8" standalone="no"?>
<svg
   xmlns:dc="http://purl.org/dc/elements/1.1/"
   xmlns:cc="http://creativecommons.org/ns#"
   xmlns:rdf="http://www.w3.org/1999/02/22-rdf-syntax-ns#"
   xmlns:svg="http://www.w3.org/2000/svg"
   xmlns="http://www.w3.org/2000/svg"
   xmlns:xlink="http://www.w3.org/1999/xlink"
   xmlns:sodipodi="http://sodipodi.sourceforge.net/DTD/sodipodi-0.dtd"
   xmlns:inkscape="http://www.inkscape.org/namespaces/inkscape"
   width="22"
   height="21.999849"
   viewBox="0 0 22 21.999849"
   id="svg8694"
   version="1.1"
   inkscape:version="1.0.2 (e86c870879, 2021-01-15)"
   sodipodi:docname="system-file-manager.svg">
  <defs
     id="defs8696">
    <linearGradient
       inkscape:collect="always"
       xlink:href="#linearGradient860"
       id="linearGradient862"
       x1="113.94677"
       y1="255.36646"
       x2="406.08289"
       y2="255.36646"
       gradientUnits="userSpaceOnUse"
       gradientTransform="matrix(0.07386688,0,0,0.06665516,-37.327154,1013.5672)" />
    <linearGradient
       inkscape:collect="always"
       id="linearGradient860">
      <stop
         style="stop-color:#80e5ff;stop-opacity:1"
         offset="0"
         id="stop856" />
      <stop
         style="stop-color:#3daee9;stop-opacity:1"
         offset="1"
         id="stop858" />
    </linearGradient>
    <linearGradient
       inkscape:collect="always"
       xlink:href="#linearGradient842"
       id="linearGradient844"
       x1="386.30627"
       y1="522.45404"
       x2="446.83023"
       y2="522.45404"
       gradientUnits="userSpaceOnUse"
       gradientTransform="matrix(0.36125513,0,0,0.36125513,-168.60924,844.69118)" />
    <linearGradient
       inkscape:collect="always"
       id="linearGradient842">
      <stop
         style="stop-color:#3daee9;stop-opacity:1"
         offset="0"
         id="stop838" />
      <stop
         style="stop-color:#a3d9f5;stop-opacity:1"
         offset="1"
         id="stop840" />
    </linearGradient>
  </defs>
  <sodipodi:namedview
     id="base"
     pagecolor="#ffffff"
     bordercolor="#666666"
     borderopacity="1.0"
     inkscape:pageopacity="0.0"
     inkscape:pageshadow="2"
     inkscape:zoom="11.313709"
     inkscape:cx="-1.0079961"
     inkscape:cy="10.186019"
     inkscape:document-units="px"
     inkscape:current-layer="layer1"
     showgrid="true"
     units="px"
     inkscape:snap-bbox="true"
     inkscape:bbox-nodes="true"
     inkscape:object-nodes="true"
     inkscape:snap-global="true"
     inkscape:showpageshadow="false"
     showborder="true"
     inkscape:document-rotation="0"
     inkscape:window-width="1920"
     inkscape:window-height="1013"
     inkscape:window-x="0"
     inkscape:window-y="0"
     inkscape:window-maximized="1">
    <inkscape:grid
       type="xygrid"
       id="grid9302"
       originx="29.154111"
       originy="16.316394" />
  </sodipodi:namedview>
  <metadata
     id="metadata8699">
    <rdf:RDF>
      <cc:Work
         rdf:about="">
        <dc:format>image/svg+xml</dc:format>
        <dc:type
           rdf:resource="http://purl.org/dc/dcmitype/StillImage" />
        <dc:title />
      </cc:Work>
    </rdf:RDF>
  </metadata>
  <g
     inkscape:label="Livello 1"
     inkscape:groupmode="layer"
     id="layer1"
     transform="translate(29.154111,-1020.0458)">
    <path
       style="fill:url(#linearGradient862);fill-opacity:1;stroke-width:0.0650144"
       d="m -18.120663,1024.2111 c -0.320798,0 -0.700532,-0.1867 -0.844308,-0.4149 l -0.645042,-1.0255 c -0.143119,-0.2282 -0.522852,-0.4145 -0.843535,-0.4149 l -7.43437,-0.01 c -0.709144,0 -1.008032,0.338 -1.018107,1.0859 l -0.0043,0.3153 v 0.9276 13.2191 c 0,0.2551 0.845687,0.9276 1.16637,0.9276 h 19.246362 c 0.320689,0 1.166373,-0.6725 1.166373,-0.9276 v -12.7553 c 0,-0.6957 -0.291543,-0.9276 -1.166373,-0.9276 z"
       id="path4-3"
       sodipodi:nodetypes="sccsssccsssssss" />
    <path
       style="fill:#434c5e;fill-opacity:1;stroke-width:0.0640809"
       d="m -8.72803,1029.163 c 0,0.4791 -0.289987,0.8711 -0.953713,0.8711 h -16.834128 c -0.663734,0 -0.917776,-0.392 -0.917776,-0.8711 v -2.6133 c 0,-0.4791 0.254042,-0.8711 0.917776,-0.8711 h 16.798002 c 0.663727,0 0.989839,0.392 0.989839,0.8711 z"
       id="path8-6"
       sodipodi:nodetypes="sssssssss" />
    <path
       style="fill:url(#linearGradient844);fill-opacity:1;stroke-width:0.0701687"
       d="m -8.371442,1027.1648 h -19.500743 c -0.591007,0 -1.181926,0.5333 -1.181926,1.0665 v 10.3982 c 0,0.7052 0.457049,1.0665 1.181926,1.0665 h 19.500743 c 0.727178,0 1.181925,-0.3613 1.181925,-1.0665 v -10.3982 c 0,-0.5332 -0.590923,-1.0665 -1.181925,-1.0665 z"
       id="path10"
       sodipodi:nodetypes="sssssssss" />
  </g>
</svg>
