<?xml version="1.0" encoding="UTF-8" standalone="no"?>
<svg
   xmlns:dc="http://purl.org/dc/elements/1.1/"
   xmlns:cc="http://creativecommons.org/ns#"
   xmlns:rdf="http://www.w3.org/1999/02/22-rdf-syntax-ns#"
   xmlns:svg="http://www.w3.org/2000/svg"
   xmlns="http://www.w3.org/2000/svg"
   xmlns:xlink="http://www.w3.org/1999/xlink"
   xmlns:sodipodi="http://sodipodi.sourceforge.net/DTD/sodipodi-0.dtd"
   xmlns:inkscape="http://www.inkscape.org/namespaces/inkscape"
   width="64"
   version="1.1"
   height="64"
   id="svg17"
   sodipodi:docname="folder-image.svg"
   inkscape:version="1.0.2 (e86c870879, 2021-01-15)">
  <sodipodi:namedview
     pagecolor="#ffffff"
     bordercolor="#666666"
     borderopacity="1"
     objecttolerance="10"
     gridtolerance="10"
     guidetolerance="10"
     inkscape:pageopacity="0"
     inkscape:pageshadow="2"
     inkscape:window-width="1920"
     inkscape:window-height="1007"
     id="namedview19"
     showgrid="true"
     inkscape:zoom="6.9384853"
     inkscape:cx="11.027668"
     inkscape:cy="26.264165"
     inkscape:window-x="0"
     inkscape:window-y="0"
     inkscape:window-maximized="1"
     inkscape:current-layer="layer1"
     inkscape:document-rotation="0">
    <inkscape:grid
       type="xygrid"
       id="grid874" />
  </sodipodi:namedview>
  <defs
     id="defs5455">
    <linearGradient
       inkscape:collect="always"
       xlink:href="#linearGradient860"
       id="linearGradient862"
       x1="113.94677"
       y1="255.36646"
       x2="406.08289"
       y2="255.36646"
       gradientUnits="userSpaceOnUse"
       gradientTransform="matrix(0.2044729,0,0,0.18450994,363.4056,467.49691)" />
    <linearGradient
       inkscape:collect="always"
       id="linearGradient860">
      <stop
         style="stop-color:#aaccff;stop-opacity:1"
         offset="0"
         id="stop856" />
      <stop
         style="stop-color:#66ffff;stop-opacity:1"
         offset="1"
         id="stop858" />
    </linearGradient>
    <linearGradient
       inkscape:collect="always"
       xlink:href="#linearGradient842"
       id="linearGradient844"
       x1="386.30627"
       y1="522.45404"
       x2="446.83023"
       y2="522.45404"
       gradientUnits="userSpaceOnUse"
       gradientTransform="translate(1.7734e-4,0.02677493)" />
    <linearGradient
       inkscape:collect="always"
       id="linearGradient842">
      <stop
         style="stop-color:#66ffff;stop-opacity:1"
         offset="0"
         id="stop838" />
      <stop
         style="stop-color:#ffeeaa;stop-opacity:1"
         offset="1"
         id="stop840" />
    </linearGradient>
  </defs>
  <metadata
     id="metadata5458">
    <rdf:RDF>
      <cc:Work
         rdf:about="">
        <dc:format>image/svg+xml</dc:format>
        <dc:type
           rdf:resource="http://purl.org/dc/dcmitype/StillImage" />
      </cc:Work>
    </rdf:RDF>
  </metadata>
  <g
     inkscape:label="Capa 1"
     inkscape:groupmode="layer"
     id="layer1"
     transform="translate(-384.57143,-483.798)">
    <path
       style="fill:url(#linearGradient862);fill-opacity:1;stroke-width:0.179968"
       d="m 416.5716,496.96053 c -0.88801,0 -1.93916,-0.51678 -2.33715,-1.14848 l -1.78556,-2.83877 c -0.39617,-0.63169 -1.44732,-1.14731 -2.33501,-1.14847 l -20.57928,-0.0268 c -1.963,-0.003 -2.79036,0.93548 -2.81825,3.00583 l -0.0118,0.87276 v 2.56786 36.592 c 0,0.70616 2.34097,2.56786 3.22866,2.56786 h 53.27637 c 0.88771,0 3.22867,-1.8617 3.22867,-2.56786 v -35.30807 c 0,-1.92589 -0.80703,-2.56786 -3.22867,-2.56786 z"
       id="path4-3"
       sodipodi:nodetypes="sccsssccsssssss" />
    <path
       style="fill:#434c5e;fill-opacity:1;stroke-width:0.177384"
       d="m 442.5716,510.668 c 0,1.32622 -0.80272,2.4113 -2.64,2.4113 h -46.599 c -1.8373,0 -2.54052,-1.08508 -2.54052,-2.4113 v -7.23389 c 0,-1.32622 0.70322,-2.4113 2.54052,-2.4113 h 46.499 c 1.83728,0 2.74,1.08508 2.74,2.4113 z"
       id="path8-6"
       sodipodi:nodetypes="sssssssss" />
    <path
       style="fill:url(#linearGradient844);fill-opacity:1;stroke-width:0.194236"
       d="m 443.55868,505.13694 h -53.98053 c -1.63598,0 -3.27172,1.47608 -3.27172,2.95216 v 28.78355 c 0,1.95216 1.26517,2.95216 3.27172,2.95216 h 53.98053 c 2.01292,0 3.27172,-1 3.27172,-2.95216 V 508.0891 c 0,-1.47608 -1.63575,-2.95216 -3.27172,-2.95216 z"
       id="path10"
       sodipodi:nodetypes="sssssssss" />
    <path
       d="m 424.60267,517.06484 h -5.95933 l -1.02477,-2.2237 a 1.798581,1.798581 0 0 0 -1.62905,-1.04314 h -3.99043 a 1.7986855,1.7986855 0 0 0 -1.62906,1.04301 l -1.02477,2.22383 h -0.48917 a 3.3194474,3.3194474 0 0 0 -3.31566,3.31565 v 10.10174 a 3.3195519,3.3195519 0 0 0 3.31566,3.31577 h 15.74658 a 3.3195519,3.3195519 0 0 0 3.31566,-3.31577 v -10.10174 a 3.3194474,3.3194474 0 0 0 -3.31566,-3.31565 z m -13.10355,-1.70359 a 0.5520751,0.5520751 0 0 1 0.49996,-0.32003 h 3.99044 a 0.55198808,0.55198808 0 0 1 0.49996,0.32015 l 0.78499,1.70347 h -6.56035 z m 15.17599,15.12098 a 2.0748735,2.0748735 0 0 1 -2.07244,2.07255 h -15.74658 a 2.0748735,2.0748735 0 0 1 -2.07244,-2.07255 v -10.10174 a 2.0748461,2.0748461 0 0 1 2.07244,-2.07244 h 15.74658 a 2.0748461,2.0748461 0 0 1 2.07244,2.07244 z m -12.68081,-10.1163 a 5.0654404,5.0654404 0 1 0 5.06538,5.06549 5.0711542,5.0711542 0 0 0 -5.06538,-5.0655 z m 0,8.88766 a 3.822224,3.822224 0 1 1 3.82216,-3.82217 3.826451,3.826451 0 0 1 -3.82216,3.82216 z m 10.69166,-8.55962 a 0.62156095,0.62156095 0 0 1 -0.62161,0.62161 h -3.23236 a 0.62161,0.62161 0 0 1 0,-1.24322 h 3.23236 a 0.62156095,0.62156095 0 0 1 0.62161,0.62161 z"
       id="path4"
       style="stroke-width:0.248643;fill:#434c5e;fill-opacity:1" />
    <path
       d="m 413.9164,527.9588 c 1.31781,0 2.41184,-1.06917 2.41184,-2.41184 0,-1.34268 -1.06917,-2.41184 -2.41184,-2.41184 -1.34268,0 -2.41184,1.06916 -2.41184,2.41184 0,1.34267 1.09403,2.41184 2.41184,2.41184 z m 0,-3.5556 c 0.6216,0 1.14376,0.52215 1.14376,1.14376 0,0.62161 -0.52216,1.14376 -1.14376,1.14376 -0.62161,0 -1.14376,-0.52215 -1.14376,-1.14376 0,-0.62161 0.52215,-1.14376 1.14376,-1.14376 z"
       id="path4-3-3"
       style="stroke-width:0.248643;fill:#434c5e;fill-opacity:1" />
  </g>
</svg>
