<?xml version="1.0" encoding="UTF-8" standalone="no"?>
<svg
   xmlns:dc="http://purl.org/dc/elements/1.1/"
   xmlns:cc="http://creativecommons.org/ns#"
   xmlns:rdf="http://www.w3.org/1999/02/22-rdf-syntax-ns#"
   xmlns:svg="http://www.w3.org/2000/svg"
   xmlns="http://www.w3.org/2000/svg"
   xmlns:xlink="http://www.w3.org/1999/xlink"
   xmlns:sodipodi="http://sodipodi.sourceforge.net/DTD/sodipodi-0.dtd"
   xmlns:inkscape="http://www.inkscape.org/namespaces/inkscape"
   width="64"
   version="1.1"
   height="64"
   id="svg19"
   sodipodi:docname="folder-development.svg"
   inkscape:version="1.0.2 (e86c870879, 2021-01-15)">
  <sodipodi:namedview
     pagecolor="#ffffff"
     bordercolor="#666666"
     borderopacity="1"
     objecttolerance="10"
     gridtolerance="10"
     guidetolerance="10"
     inkscape:pageopacity="0"
     inkscape:pageshadow="2"
     inkscape:window-width="1920"
     inkscape:window-height="1007"
     id="namedview21"
     showgrid="true"
     inkscape:zoom="4.90625"
     inkscape:cx="21.256891"
     inkscape:cy="31.001912"
     inkscape:window-x="0"
     inkscape:window-y="0"
     inkscape:window-maximized="1"
     inkscape:current-layer="layer1"
     inkscape:document-rotation="0">
    <inkscape:grid
       type="xygrid"
       id="grid941" />
  </sodipodi:namedview>
  <defs
     id="defs5455">
    <linearGradient
       inkscape:collect="always"
       xlink:href="#linearGradient860"
       id="linearGradient862-3"
       x1="113.94677"
       y1="255.36646"
       x2="406.08289"
       y2="255.36646"
       gradientUnits="userSpaceOnUse"
       gradientTransform="matrix(0.2044729,0,0,0.18450994,363.4056,467.49691)" />
    <linearGradient
       inkscape:collect="always"
       id="linearGradient860">
      <stop
         style="stop-color:#aaccff;stop-opacity:1"
         offset="0"
         id="stop856" />
      <stop
         style="stop-color:#66ffff;stop-opacity:1"
         offset="1"
         id="stop858" />
    </linearGradient>
    <linearGradient
       inkscape:collect="always"
       xlink:href="#linearGradient842"
       id="linearGradient844"
       x1="386.30627"
       y1="522.45404"
       x2="446.83023"
       y2="522.45404"
       gradientUnits="userSpaceOnUse"
       gradientTransform="translate(1.7039e-4,0.02677255)" />
    <linearGradient
       inkscape:collect="always"
       id="linearGradient842">
      <stop
         style="stop-color:#66ffff;stop-opacity:1"
         offset="0"
         id="stop838" />
      <stop
         style="stop-color:#ffeeaa;stop-opacity:1"
         offset="1"
         id="stop840" />
    </linearGradient>
  </defs>
  <metadata
     id="metadata5458">
    <rdf:RDF>
      <cc:Work
         rdf:about="">
        <dc:format>image/svg+xml</dc:format>
        <dc:type
           rdf:resource="http://purl.org/dc/dcmitype/StillImage" />
      </cc:Work>
    </rdf:RDF>
  </metadata>
  <g
     inkscape:label="Capa 1"
     inkscape:groupmode="layer"
     id="layer1"
     transform="translate(-384.57143,-483.798)">
    <path
       style="fill:url(#linearGradient862-3);fill-opacity:1;stroke-width:0.179968"
       d="m 416.5716,496.96053 c -0.88801,0 -1.93916,-0.51677 -2.33715,-1.14848 l -1.78556,-2.83877 c -0.39617,-0.63169 -1.44732,-1.14731 -2.33501,-1.14847 l -20.57928,-0.0268 c -1.963,-0.003 -2.79036,0.93547 -2.81825,3.00583 l -0.0118,0.87276 v 2.56786 36.592 c 0,0.70616 2.34097,2.56786 3.22866,2.56786 h 53.27637 c 0.88771,0 3.22867,-1.8617 3.22867,-2.56786 v -35.30807 c 0,-1.92589 -0.80703,-2.56786 -3.22867,-2.56786 z"
       id="path4-3"
       sodipodi:nodetypes="sccsssccsssssss" />
    <path
       style="fill:#434c5e;fill-opacity:1;stroke-width:0.177384"
       d="m 442.5716,510.668 c 0,1.32622 -0.80272,2.4113 -2.64,2.4113 h -46.599 c -1.8373,0 -2.54052,-1.08508 -2.54052,-2.4113 v -7.23388 c 0,-1.32622 0.70322,-2.4113 2.54052,-2.4113 h 46.499 c 1.83728,0 2.74,1.08508 2.74,2.4113 z"
       id="path8-6"
       sodipodi:nodetypes="sssssssss" />
    <path
       style="fill:url(#linearGradient844);fill-opacity:1;stroke-width:0.194236"
       d="m 443.55868,505.13694 h -53.98053 c -1.63598,0 -3.27172,1.47608 -3.27172,2.95216 v 28.78356 c 0,1.95216 1.26517,2.95216 3.27172,2.95216 h 53.98053 c 2.01292,0 3.27172,-1 3.27172,-2.95216 V 508.0891 c 0,-1.47608 -1.63575,-2.95216 -3.27172,-2.95216 z"
       id="path10"
       sodipodi:nodetypes="sssssssss" />
    <path
       d="m 426.31214,533.79804 h -19.2592 a 1.481481,1.481481 0 0 1 -1.48151,-1.4815 v -17.03699 a 1.481481,1.481481 0 0 1 1.48151,-1.48151 h 19.2592 a 1.481481,1.481481 0 0 1 1.48151,1.48151 v 17.03699 a 1.481481,1.481481 0 0 1 -1.48151,1.4815 z m -19.2592,-19.2593 a 0.74074053,0.74074053 0 0 0 -0.74081,0.74081 v 17.03699 a 0.74074053,0.74074053 0 0 0 0.74081,0.74078 h 19.2592 a 0.74074053,0.74074053 0 0 0 0.74078,-0.74078 v -17.03699 a 0.74074053,0.74074053 0 0 0 -0.74078,-0.74081 z"
       id="path4"
       style="stroke-width:0.370371;fill:#434c5e;fill-opacity:1" />
    <path
       d="m 408.53436,517.50175 a 1.1111111,1.1111111 0 1 1 1.11114,-1.11113 1.1111111,1.1111111 0 0 1 -1.11114,1.11113 z m 0,-1.4815 a 0.37037027,0.37037027 0 1 0 0.37043,0.37037 0.37037027,0.37037027 0 0 0 -0.37043,-0.37037 z"
       id="path6"
       style="stroke-width:0.370371;fill:#434c5e;fill-opacity:1" />
    <path
       d="m 411.49737,517.50175 a 1.1111111,1.1111111 0 1 1 1.1111,-1.11113 1.1111111,1.1111111 0 0 1 -1.1111,1.11113 z m 0,-1.4815 a 0.37037027,0.37037027 0 1 0 0.37035,0.37037 0.37037027,0.37037027 0 0 0 -0.37035,-0.37037 z"
       id="path8"
       style="stroke-width:0.370371;fill:#434c5e;fill-opacity:1" />
    <path
       d="m 427.42327,518.98322 h -21.48149 a 0.37038144,0.37038144 0 0 1 0,-0.74074 h 21.48149 a 0.37038144,0.37038144 0 0 1 0,0.74074 z"
       id="path10-3"
       style="stroke-width:0.370371;fill:#434c5e;fill-opacity:1" />
    <path
       d="m 424.4603,518.98322 a 0.37037027,0.37037027 0 0 1 -0.37037,-0.37039 v -4.44444 a 0.37039,0.37039 0 0 1 0.74078,0 v 4.44444 a 0.37037027,0.37037027 0 0 1 -0.37041,0.37039 z"
       id="path12"
       style="stroke-width:0.370371;fill:#434c5e;fill-opacity:1" />
    <path
       d="m 416.53438,520.83508 a 0.37037027,0.37037027 0 0 0 -0.37037,0.37039 v 3.01551 a 1.481481,1.481481 0 1 0 0.74075,0 v -3.01551 a 0.37037027,0.37037027 0 0 0 -0.37038,-0.37039 z m 0.74077,4.81482 a 0.74074053,0.74074053 0 1 1 -0.74077,-0.74074 0.74074053,0.74074053 0 0 1 0.74077,0.74074 z"
       id="path12-3"
       style="stroke-width:0.370371;fill:#434c5e;fill-opacity:1" />
    <path
       d="m 419.49736,526.76098 a 1.481481,1.481481 0 0 0 1.11112,1.42892 v 2.64518 a 0.37037027,0.37037027 0 0 0 0.74071,0 v -2.64518 a 1.4788884,1.4788884 0 1 0 -1.85183,-1.42892 z m 1.48147,-0.74072 a 0.74074053,0.74074053 0 1 1 -0.74073,0.74072 0.74074053,0.74074053 0 0 1 0.74073,-0.74072 z"
       id="path14-6"
       style="stroke-width:0.370371;fill:#434c5e;fill-opacity:1" />
    <path
       d="m 410.60847,527.50176 a 1.481481,1.481481 0 0 0 1.11111,1.42887 v 1.90445 a 0.3703736,0.3703736 0 0 0 0.74071,0 v -1.90445 a 1.4788884,1.4788884 0 1 0 -1.85182,-1.42887 z m 1.48146,-0.74078 a 0.74074053,0.74074053 0 1 1 -0.74071,0.74078 0.74074053,0.74074053 0 0 1 0.74071,-0.74078 z"
       id="path16-7"
       style="stroke-width:0.370371;fill:#434c5e;fill-opacity:1" />
    <path
       d="m 416.16401,528.24248 v 2.5926 a 0.37038144,0.37038144 0 0 0 0.74075,0 v -2.5926 a 0.37038144,0.37038144 0 0 0 -0.74075,0 z"
       id="path18"
       style="stroke-width:0.370371;fill:#434c5e;fill-opacity:1" />
    <path
       d="m 412.46029,524.90916 v -3.70369 a 0.3703736,0.3703736 0 0 0 -0.74071,0 v 3.70369 a 0.3703736,0.3703736 0 0 0 0.74071,0 z"
       id="path20"
       style="stroke-width:0.370371;fill:#434c5e;fill-opacity:1" />
    <path
       d="m 421.34919,524.16841 v -2.96294 a 0.37037027,0.37037027 0 0 0 -0.74071,0 v 2.96294 a 0.37037027,0.37037027 0 0 0 0.74071,0 z"
       id="path22"
       style="stroke-width:0.370371;fill:#434c5e;fill-opacity:1" />
  </g>
</svg>
