<?xml version="1.0" encoding="UTF-8" standalone="no"?>
<svg
   xmlns:dc="http://purl.org/dc/elements/1.1/"
   xmlns:cc="http://creativecommons.org/ns#"
   xmlns:rdf="http://www.w3.org/1999/02/22-rdf-syntax-ns#"
   xmlns:svg="http://www.w3.org/2000/svg"
   xmlns="http://www.w3.org/2000/svg"
   xmlns:xlink="http://www.w3.org/1999/xlink"
   xmlns:sodipodi="http://sodipodi.sourceforge.net/DTD/sodipodi-0.dtd"
   xmlns:inkscape="http://www.inkscape.org/namespaces/inkscape"
   height="64"
   width="64"
   version="1.1"
   id="svg27"
   sodipodi:docname="folder-games.svg"
   inkscape:version="1.0.2 (e86c870879, 2021-01-15)">
  <metadata
     id="metadata33">
    <rdf:RDF>
      <cc:Work
         rdf:about="">
        <dc:format>image/svg+xml</dc:format>
        <dc:type
           rdf:resource="http://purl.org/dc/dcmitype/StillImage" />
      </cc:Work>
    </rdf:RDF>
  </metadata>
  <defs
     id="defs31">
    <linearGradient
       inkscape:collect="always"
       xlink:href="#linearGradient860-6"
       id="linearGradient862-3"
       x1="113.94677"
       y1="255.36646"
       x2="406.08289"
       y2="255.36646"
       gradientUnits="userSpaceOnUse"
       gradientTransform="matrix(0.2044729,0,0,0.18450994,-21.16583,-16.301093)" />
    <linearGradient
       inkscape:collect="always"
       id="linearGradient860-6">
      <stop
         style="stop-color:#8bdfad;stop-opacity:1"
         offset="0"
         id="stop856" />
      <stop
         style="stop-color:#00a1a1;stop-opacity:1"
         offset="1"
         id="stop858" />
    </linearGradient>
    <linearGradient
       inkscape:collect="always"
       xlink:href="#linearGradient842"
       id="linearGradient844"
       x1="386.30627"
       y1="522.45404"
       x2="446.83023"
       y2="522.45404"
       gradientUnits="userSpaceOnUse"
       gradientTransform="translate(-384.57126,-483.77121)" />
    <linearGradient
       inkscape:collect="always"
       id="linearGradient842">
      <stop
         style="stop-color:#00a1a1;stop-opacity:1"
         offset="0"
         id="stop838" />
      <stop
         style="stop-color:#8bdfad;stop-opacity:1"
         offset="1"
         id="stop840" />
    </linearGradient>
  </defs>
  <sodipodi:namedview
     pagecolor="#ffffff"
     bordercolor="#666666"
     borderopacity="1"
     objecttolerance="10"
     gridtolerance="10"
     guidetolerance="10"
     inkscape:pageopacity="0"
     inkscape:pageshadow="2"
     inkscape:window-width="1920"
     inkscape:window-height="1013"
     id="namedview29"
     showgrid="true"
     inkscape:zoom="3.4692426"
     inkscape:cx="-32.76235"
     inkscape:cy="55.666193"
     inkscape:window-x="0"
     inkscape:window-y="0"
     inkscape:window-maximized="1"
     inkscape:current-layer="svg27"
     inkscape:document-rotation="0">
    <inkscape:grid
       type="xygrid"
       id="grid953" />
  </sodipodi:namedview>
  <linearGradient
     id="a"
     gradientTransform="matrix(1 0 0 .99967 0 .176)"
     gradientUnits="userSpaceOnUse"
     x2="0"
     y1="541.798"
     y2="499.784">
    <stop
       offset="0"
       stop-color="#3daee9"
       id="stop2" />
    <stop
       offset="1"
       stop-color="#6cc1ef"
       id="stop4" />
  </linearGradient>
  <path
     style="fill:url(#linearGradient862-3);fill-opacity:1;stroke-width:0.179968"
     d="m 32.00017,13.162527 c -0.88801,0 -1.93916,-0.51678 -2.33715,-1.14848 L 27.87746,9.1752772 c -0.39617,-0.63169 -1.44732,-1.14731 -2.33501,-1.14847 l -20.57928,-0.0268 c -1.963,-0.003 -2.79036,0.93548 -2.81825,3.0058298 l -0.0118,0.87276 v 2.56786 36.592 c 0,0.70616 2.34097,2.56786 3.22866,2.56786 h 53.27637 c 0.88771,0 3.22867,-1.8617 3.22867,-2.56786 v -35.30807 c 0,-1.92589 -0.80703,-2.56786 -3.22867,-2.56786 z"
     id="path4-3"
     sodipodi:nodetypes="sccsssccsssssss" />
  <path
     style="fill:#434c5e;fill-opacity:1;stroke-width:0.177384"
     d="m 58.00017,26.869997 c 0,1.32622 -0.80272,2.4113 -2.64,2.4113 h -46.599 c -1.8373,0 -2.54052,-1.08508 -2.54052,-2.4113 v -7.23389 c 0,-1.32622 0.70322,-2.4113 2.54052,-2.4113 h 46.499 c 1.83728,0 2.74,1.08508 2.74,2.4113 z"
     id="path8-6"
     sodipodi:nodetypes="sssssssss" />
  <path
     style="fill:url(#linearGradient844);fill-opacity:1;stroke-width:0.194236"
     d="M 58.98725,21.338937 H 5.00672 c -1.63598,0 -3.27172,1.47608 -3.27172,2.95216 v 28.78355 c 0,1.95216 1.26517,2.95216 3.27172,2.95216 h 53.98053 c 2.01292,0 3.27172,-1 3.27172,-2.95216 v -28.78355 c 0,-1.47608 -1.63575,-2.95216 -3.27172,-2.95216 z"
     id="path10"
     sodipodi:nodetypes="sssssssss" />
  <g
     fill="#1272a5"
     id="g25-3-5-6-7"
     transform="translate(0.2,5.304)"
     style="fill:#434c5e;fill-opacity:1">
    <path
       d="m 25,30 c -2.21,0 -4,2.685 -4,5.999 v 6.998 c 0,1.78 2.154,2.673 3.414,1.413 l 2.414,-2.413 h 0.676 a 2.5,2.5 0 0 0 1.996,1 2.5,2.5 0 0 0 1.992,-1 h 0.906 a 2.5,2.5 0 0 0 1.997,1 2.5,2.5 0 0 0 1.992,-1 h 0.785 l 2.414,2.413 C 40.846,45.67 43,44.777 43,42.997 V 35.999 C 43,32.685 41.21,30 39,30 Z m 0,1 h 14 c 1.657,0 3,2.238 3,4.999 v 6.998 c 0,0.89 -1.077,1.336 -1.707,0.707 l -2.707,-2.707 h -1.779 a 1.5,1.5 0 0 1 -1.412,1 A 1.5,1.5 0 0 1 33,41.042 v -0.045 h -2.088 a 1.5,1.5 0 0 1 -1.412,1 1.5,1.5 0 0 1 -1.412,-1 h -1.674 l -2.707,2.707 C 23.077,44.334 22,43.888 22,42.997 v -6.998 c 0,-2.76 1.343,-5 3,-5 z"
       id="path21-6-3-2-5"
       style="fill:#434c5e;fill-opacity:1" />
    <path
       d="m 25,31.996 v 2 h -2 v 2 h 2 v 2 h 2 v -2 h 2 v -2 h -2 v -2 z m 11,7.5 a 1.5,1.5 0 0 1 -1.5,1.5 1.5,1.5 0 0 1 -1.5,-1.5 1.5,1.5 0 0 1 1.5,-1.5 1.5,1.5 0 0 1 1.5,1.5 z m -5,0 a 1.5,1.5 0 0 1 -1.5,1.5 1.5,1.5 0 0 1 -1.5,-1.5 1.5,1.5 0 0 1 1.5,-1.5 1.5,1.5 0 0 1 1.5,1.5 z m 8,-2.5 a 1,1 0 0 1 -1,1 1,1 0 0 1 -1,-1 1,1 0 0 1 1,-1 1,1 0 0 1 1,1 z m 2,-2 a 1,1 0 0 1 -1,1 1,1 0 0 1 -1,-1 1,1 0 0 1 1,-1 1,1 0 0 1 1,1 z m -2,-2 a 1,1 0 0 1 -1,1 1,1 0 0 1 -1,-1 1,1 0 0 1 1,-1 1,1 0 0 1 1,1 z m -2,2 a 1,1 0 0 1 -1,1 1,1 0 0 1 -1,-1 1,1 0 0 1 1,-1 1,1 0 0 1 1,1 z"
       id="path23-7-5-9-3"
       style="fill:#434c5e;fill-opacity:1" />
  </g>
</svg>
