<?xml version="1.0" encoding="UTF-8" standalone="no"?>
<svg
   xmlns:dc="http://purl.org/dc/elements/1.1/"
   xmlns:cc="http://creativecommons.org/ns#"
   xmlns:rdf="http://www.w3.org/1999/02/22-rdf-syntax-ns#"
   xmlns:svg="http://www.w3.org/2000/svg"
   xmlns="http://www.w3.org/2000/svg"
   xmlns:xlink="http://www.w3.org/1999/xlink"
   xmlns:sodipodi="http://sodipodi.sourceforge.net/DTD/sodipodi-0.dtd"
   xmlns:inkscape="http://www.inkscape.org/namespaces/inkscape"
   width="64"
   version="1.1"
   height="64"
   id="svg15"
   sodipodi:docname="folder-Reddit.svg"
   inkscape:version="1.0.2 (e86c870879, 2021-01-15)">
  <sodipodi:namedview
     pagecolor="#ffffff"
     bordercolor="#666666"
     borderopacity="1"
     objecttolerance="10"
     gridtolerance="10"
     guidetolerance="10"
     inkscape:pageopacity="0"
     inkscape:pageshadow="2"
     inkscape:window-width="1920"
     inkscape:window-height="1011"
     id="namedview17"
     showgrid="true"
     inkscape:zoom="4.90625"
     inkscape:cx="-5.2136341"
     inkscape:cy="28.786643"
     inkscape:window-x="0"
     inkscape:window-y="0"
     inkscape:window-maximized="1"
     inkscape:current-layer="layer1"
     inkscape:document-rotation="0">
    <inkscape:grid
       type="xygrid"
       id="grid919" />
  </sodipodi:namedview>
  <defs
     id="defs5455">
    <linearGradient
       inkscape:collect="always"
       xlink:href="#linearGradient860"
       id="linearGradient862-3"
       x1="113.94677"
       y1="255.36646"
       x2="406.08289"
       y2="255.36646"
       gradientUnits="userSpaceOnUse"
       gradientTransform="matrix(0.2044729,0,0,0.18450994,363.4056,467.49691)" />
    <linearGradient
       inkscape:collect="always"
       id="linearGradient860">
      <stop
         style="stop-color:#66ffe8;stop-opacity:1"
         offset="0"
         id="stop856" />
      <stop
         style="stop-color:#7eb2ff;stop-opacity:1"
         offset="1"
         id="stop858" />
    </linearGradient>
    <linearGradient
       inkscape:collect="always"
       xlink:href="#linearGradient842"
       id="linearGradient844"
       x1="386.30627"
       y1="522.45404"
       x2="446.83023"
       y2="522.45404"
       gradientUnits="userSpaceOnUse"
       gradientTransform="translate(1.7e-4,0.02668747)" />
    <linearGradient
       inkscape:collect="always"
       id="linearGradient842">
      <stop
         style="stop-color:#92beff;stop-opacity:1"
         offset="0"
         id="stop838" />
      <stop
         style="stop-color:#00ffff;stop-opacity:1"
         offset="1"
         id="stop840" />
    </linearGradient>
  </defs>
  <metadata
     id="metadata5458">
    <rdf:RDF>
      <cc:Work
         rdf:about="">
        <dc:format>image/svg+xml</dc:format>
        <dc:type
           rdf:resource="http://purl.org/dc/dcmitype/StillImage" />
      </cc:Work>
    </rdf:RDF>
  </metadata>
  <g
     inkscape:label="Capa 1"
     inkscape:groupmode="layer"
     id="layer1"
     transform="translate(-384.57143,-483.798)">
    <path
       style="fill:url(#linearGradient862-3);fill-opacity:1;stroke-width:0.179968"
       d="m 416.5716,496.96053 c -0.88801,0 -1.93916,-0.51678 -2.33715,-1.14848 l -1.78556,-2.83877 c -0.39617,-0.63169 -1.44732,-1.14731 -2.33501,-1.14847 l -20.57928,-0.0268 c -1.963,-0.003 -2.79036,0.93548 -2.81825,3.00583 l -0.0118,0.87276 v 2.56786 36.592 c 0,0.70616 2.34097,2.56786 3.22866,2.56786 h 53.27637 c 0.88771,0 3.22867,-1.8617 3.22867,-2.56786 v -35.30807 c 0,-1.92589 -0.80703,-2.56786 -3.22867,-2.56786 z"
       id="path4-3"
       sodipodi:nodetypes="sccsssccsssssss" />
    <path
       style="fill:#434c5e;fill-opacity:1;stroke-width:0.177384"
       d="m 442.5716,510.668 c 0,1.32622 -0.80272,2.4113 -2.64,2.4113 h -46.599 c -1.8373,0 -2.54052,-1.08508 -2.54052,-2.4113 v -7.23389 c 0,-1.32622 0.70322,-2.4113 2.54052,-2.4113 h 46.499 c 1.83728,0 2.74,1.08508 2.74,2.4113 z"
       id="path8-6"
       sodipodi:nodetypes="sssssssss" />
    <path
       style="fill:url(#linearGradient844);fill-opacity:1;stroke-width:0.194236"
       d="m 443.55868,505.13694 h -53.98053 c -1.63598,0 -3.27172,1.47608 -3.27172,2.95216 v 28.78355 c 0,1.95216 1.26517,2.95216 3.27172,2.95216 h 53.98053 c 2.01292,0 3.27172,-1 3.27172,-2.95216 V 508.0891 c 0,-1.47608 -1.63575,-2.95216 -3.27172,-2.95216 z"
       id="path10"
       sodipodi:nodetypes="sssssssss" />
    <path
       d="m 427.26298,524.4653 c 0,-1.64516 -1.33843,-2.97938 -2.97924,-2.97938 -0.64647,0 -1.26381,0.20718 -1.77351,0.58431 -1.44623,-0.72934 -3.16586,-1.16847 -4.98486,-1.27207 l 1.1892,-3.28595 2.8758,0.71688 c 0.0621,1.18095 1.04416,2.11731 2.23757,2.11731 1.23469,0 2.24163,-1.00693 2.24163,-2.24161 0,-1.23485 -1.00694,-2.24179 -2.24163,-2.24179 -0.84119,0 -1.57459,0.46406 -1.95998,1.15197 l -3.94068,-0.98623 -1.71542,4.7445 c -1.9765,0.058 -3.84956,0.5055 -5.41168,1.28874 -0.5097,-0.37714 -1.12284,-0.58011 -1.76932,-0.58011 -1.645,0.005 -2.98343,1.34248 -2.98343,2.98343 0,0.80381 0.33149,1.57864 0.89914,2.13399 -0.0372,0.23616 -0.058,0.47652 -0.058,0.71672 0,1.8025 1.05243,3.47664 2.95851,4.71148 1.82321,1.18499 4.239,1.83551 6.79981,1.83551 2.56082,0 4.9724,-0.65052 6.79965,-1.83551 1.90609,-1.23905 2.95867,-2.91303 2.95867,-4.71148 0,-0.23615 -0.0207,-0.47231 -0.0539,-0.70847 0.57591,-0.55113 0.91162,-1.33017 0.91162,-2.14224 z m -15.27361,1.74034 c 0,-0.95725 0.77904,-1.73629 1.73629,-1.73629 0.9571,0 1.73614,0.77904 1.73614,1.73629 0,0.95709 -0.77904,1.73613 -1.73614,1.73613 -0.95725,0 -1.73629,-0.77904 -1.73629,-1.73613 z m 4.77768,5.4944 c -1.34669,0 -2.6602,-0.38119 -3.7955,-1.10212 l 0.66704,-1.04837 c 0.93653,0.59662 2.02214,0.9116 3.13266,0.9116 1.11055,0 2.19194,-0.31498 3.13252,-0.9116 l 0.66719,1.04837 c -1.14371,0.72093 -2.45722,1.10212 -3.80391,1.10212 z m 3.07877,-3.75827 c -0.95725,0 -1.73613,-0.77904 -1.73613,-1.73613 0,-0.95725 0.77888,-1.73629 1.73613,-1.73629 0.95725,0 1.73613,0.77904 1.73613,1.73629 0,0.95709 -0.77888,1.73613 -1.73613,1.73613 z m 0,0"
       id="path2-3-3"
       style="fill:#434c5e;fill-opacity:1;stroke-width:0.0414367" />
  </g>
</svg>
