<?xml version="1.0" encoding="UTF-8" standalone="no"?>
<svg
   xmlns:dc="http://purl.org/dc/elements/1.1/"
   xmlns:cc="http://creativecommons.org/ns#"
   xmlns:rdf="http://www.w3.org/1999/02/22-rdf-syntax-ns#"
   xmlns:svg="http://www.w3.org/2000/svg"
   xmlns="http://www.w3.org/2000/svg"
   xmlns:xlink="http://www.w3.org/1999/xlink"
   xmlns:sodipodi="http://sodipodi.sourceforge.net/DTD/sodipodi-0.dtd"
   xmlns:inkscape="http://www.inkscape.org/namespaces/inkscape"
   width="64"
   version="1.1"
   height="64"
   id="svg17"
   sodipodi:docname="folder-publicshare.svg"
   inkscape:version="1.0.2 (e86c870879, 2021-01-15)">
  <sodipodi:namedview
     pagecolor="#ffffff"
     bordercolor="#666666"
     borderopacity="1"
     objecttolerance="10"
     gridtolerance="10"
     guidetolerance="10"
     inkscape:pageopacity="0"
     inkscape:pageshadow="2"
     inkscape:window-width="1920"
     inkscape:window-height="1011"
     id="namedview19"
     showgrid="true"
     inkscape:zoom="4.90625"
     inkscape:cx="-19.240162"
     inkscape:cy="11.184999"
     inkscape:window-x="0"
     inkscape:window-y="0"
     inkscape:window-maximized="1"
     inkscape:current-layer="layer1"
     inkscape:document-rotation="0">
    <inkscape:grid
       type="xygrid"
       id="grid931" />
  </sodipodi:namedview>
  <defs
     id="defs5455">
    <linearGradient
       inkscape:collect="always"
       xlink:href="#linearGradient860"
       id="linearGradient862-3"
       x1="113.94677"
       y1="255.36646"
       x2="406.08289"
       y2="255.36646"
       gradientUnits="userSpaceOnUse"
       gradientTransform="matrix(0.2044729,0,0,0.18450994,363.4056,467.49691)" />
    <linearGradient
       inkscape:collect="always"
       id="linearGradient860">
      <stop
         style="stop-color:#66e0ff;stop-opacity:1"
         offset="0"
         id="stop856" />
      <stop
         style="stop-color:#ffeeaa;stop-opacity:1"
         offset="1"
         id="stop858" />
    </linearGradient>
    <linearGradient
       inkscape:collect="always"
       xlink:href="#linearGradient842"
       id="linearGradient844"
       x1="386.30627"
       y1="522.45404"
       x2="446.83023"
       y2="522.45404"
       gradientUnits="userSpaceOnUse"
       gradientTransform="translate(1.6796e-4,0.02676146)" />
    <linearGradient
       inkscape:collect="always"
       id="linearGradient842">
      <stop
         style="stop-color:#67ffff;stop-opacity:1"
         offset="0"
         id="stop838" />
      <stop
         style="stop-color:#77c5ee;stop-opacity:1"
         offset="1"
         id="stop840" />
    </linearGradient>
  </defs>
  <metadata
     id="metadata5458">
    <rdf:RDF>
      <cc:Work
         rdf:about="">
        <dc:format>image/svg+xml</dc:format>
        <dc:type
           rdf:resource="http://purl.org/dc/dcmitype/StillImage" />
      </cc:Work>
    </rdf:RDF>
  </metadata>
  <g
     inkscape:label="Capa 1"
     inkscape:groupmode="layer"
     id="layer1"
     transform="translate(-384.57143,-483.798)">
    <path
       style="fill:url(#linearGradient862-3);fill-opacity:1;stroke-width:0.179968"
       d="m 416.5716,496.96053 c -0.88801,-2e-5 -1.93916,-0.51678 -2.33715,-1.14848 l -1.78556,-2.83877 c -0.39617,-0.63169 -1.44732,-1.14731 -2.33501,-1.14847 l -20.57928,-0.0268 c -1.963,-0.003 -2.83045,0.93529 -2.83017,3.00583 l 1.2e-4,0.87276 v 2.56786 36.592 c 0,0.70616 2.34097,2.56786 3.22866,2.56786 h 53.27637 c 0.88771,0 3.23785,-1.8617 3.23785,-2.56786 l -1.8e-4,-35.03279 c -10e-6,-1.92589 -0.87582,-2.84264 -2.87414,-2.84267 z"
       id="path4-3"
       sodipodi:nodetypes="sccsssccsssssss" />
    <path
       style="fill:#434c5e;fill-opacity:1;stroke-width:0.177384"
       d="m 442.5716,510.668 c 0,1.32622 -0.80272,2.4113 -2.64,2.4113 h -46.599 c -1.8373,0 -2.54052,-1.08508 -2.54052,-2.4113 v -7.23389 c 0,-1.32622 0.70322,-2.4113 2.54052,-2.4113 h 46.499 c 1.83728,0 2.74,1.08508 2.74,2.4113 z"
       id="path8-6"
       sodipodi:nodetypes="sssssssss" />
    <path
       style="fill:url(#linearGradient844);fill-opacity:1;stroke-width:0.194236"
       d="m 443.55868,505.13694 h -53.98053 c -1.63598,0 -3.27172,1.47608 -3.27172,2.95216 v 28.78355 c 0,1.95216 1.26517,2.95216 3.27172,2.95216 h 53.98053 c 2.01292,0 3.27172,-1 3.27172,-2.95216 V 508.0891 c 0,-1.47608 -1.63575,-2.95216 -3.27172,-2.95216 z"
       id="path10"
       sodipodi:nodetypes="sssssssss" />
    <path
       style="fill:#434c5e;fill-opacity:1;stroke-width:0.9"
       id="rect4129-3-6"
       d="m 413.97143,515.698 c -1.99439,0 -3.6,1.60561 -3.6,3.6 0,1.99439 1.60561,3.6 3.6,3.6 1.99439,0 3.6,-1.60561 3.6,-3.6 0,-1.99439 -1.60561,-3.6 -3.6,-3.6 z m 0,0.9 c 1.49579,0 2.7,1.20421 2.7,2.7 0,1.49579 -1.20421,2.7 -2.7,2.7 -1.49579,0 -2.7,-1.20421 -2.7,-2.7 0,-1.49579 1.20421,-2.7 2.7,-2.7 z m 8.1,0 c -1.4958,0 -2.7,1.2042 -2.7,2.7 0,1.4958 1.2042,2.7 2.7,2.7 1.4958,0 2.7,-1.2042 2.7,-2.7 0,-1.4958 -1.2042,-2.7 -2.7,-2.7 z m 0,0.9 c 0.9972,0 1.8,0.8028 1.8,1.8 0,0.9972 -0.8028,1.8 -1.8,1.8 -0.9972,0 -1.8,-0.8028 -1.8,-1.8 0,-0.9972 0.8028,-1.8 1.8,-1.8 z m 0,5.4 c -0.9972,0 -1.89623,0.40237 -2.54708,1.05292 l 0.63631,0.63645 c 0.48805,-0.48815 1.1628,-0.78937 1.91077,-0.78937 1.4958,0 2.7,1.2042 2.7,2.7 v 2.7 h -2.7 v 0.9 h 3.6 v -3.6 c 0,-1.9944 -1.6056,-3.6 -3.6,-3.6 z m -8.1,0.9 c -3.4902,0 -6.3,2.8098 -6.3,6.3 v 3.6 h 12.6 v -3.6 c 0,-3.4902 -2.8098,-6.3 -6.3,-6.3 z m 0,0.9 c 2.9916,0 5.4,2.4084 5.4,5.4 v 2.7 h -10.8 v -2.7 c 0,-2.9916 2.4084,-5.4 5.4,-5.4 z" />
  </g>
</svg>
