<?xml version="1.0" encoding="UTF-8" standalone="no"?>
<svg
   xmlns:dc="http://purl.org/dc/elements/1.1/"
   xmlns:cc="http://creativecommons.org/ns#"
   xmlns:rdf="http://www.w3.org/1999/02/22-rdf-syntax-ns#"
   xmlns:svg="http://www.w3.org/2000/svg"
   xmlns="http://www.w3.org/2000/svg"
   xmlns:xlink="http://www.w3.org/1999/xlink"
   xmlns:sodipodi="http://sodipodi.sourceforge.net/DTD/sodipodi-0.dtd"
   xmlns:inkscape="http://www.inkscape.org/namespaces/inkscape"
   width="64"
   version="1.1"
   height="64"
   id="svg15"
   sodipodi:docname="folder-Github.svg"
   inkscape:version="1.0.2 (e86c870879, 2021-01-15)">
  <sodipodi:namedview
     pagecolor="#ffffff"
     bordercolor="#666666"
     borderopacity="1"
     objecttolerance="10"
     gridtolerance="10"
     guidetolerance="10"
     inkscape:pageopacity="0"
     inkscape:pageshadow="2"
     inkscape:window-width="1920"
     inkscape:window-height="1002"
     id="namedview17"
     showgrid="true"
     inkscape:zoom="6.9384853"
     inkscape:cx="15.060832"
     inkscape:cy="49.367162"
     inkscape:window-x="0"
     inkscape:window-y="0"
     inkscape:window-maximized="1"
     inkscape:current-layer="layer1"
     inkscape:document-rotation="0">
    <inkscape:grid
       type="xygrid"
       id="grid919" />
  </sodipodi:namedview>
  <defs
     id="defs5455">
    <linearGradient
       inkscape:collect="always"
       xlink:href="#linearGradient842"
       id="linearGradient844"
       x1="381.31079"
       y1="543.77124"
       x2="446.83023"
       y2="522.45404"
       gradientUnits="userSpaceOnUse"
       gradientTransform="translate(0,0.02679015)" />
    <linearGradient
       inkscape:collect="always"
       id="linearGradient842">
      <stop
         style="stop-color:#ffb3ff;stop-opacity:1"
         offset="0"
         id="stop838" />
      <stop
         style="stop-color:#80e5ff;stop-opacity:1"
         offset="1"
         id="stop840" />
    </linearGradient>
    <linearGradient
       inkscape:collect="always"
       xlink:href="#linearGradient842"
       id="linearGradient950"
       x1="446.01447"
       y1="518.79797"
       x2="387.06195"
       y2="518.79797"
       gradientUnits="userSpaceOnUse" />
  </defs>
  <metadata
     id="metadata5458">
    <rdf:RDF>
      <cc:Work
         rdf:about="">
        <dc:format>image/svg+xml</dc:format>
        <dc:type
           rdf:resource="http://purl.org/dc/dcmitype/StillImage" />
      </cc:Work>
    </rdf:RDF>
  </metadata>
  <g
     inkscape:label="Capa 1"
     inkscape:groupmode="layer"
     id="layer1"
     transform="translate(-384.57143,-483.798)">
    <path
       style="fill:url(#linearGradient950);fill-opacity:1;stroke-width:0.179968"
       d="m 416.57143,496.96053 c -0.88801,0 -1.93916,-0.51678 -2.33715,-1.14848 l -1.78556,-2.83877 c -0.39617,-0.63169 -1.44732,-1.14731 -2.33501,-1.14847 l -20.57928,-0.0268 c -1.963,-0.003 -2.79036,0.93548 -2.81825,3.00583 l -0.0118,0.87276 v 2.56786 36.592 c 0,0.70616 2.34097,2.56786 3.22866,2.56786 h 53.27637 c 0.88771,0 3.22867,-1.8617 3.22867,-2.56786 v -35.30807 c 0,-1.92589 -0.80703,-2.56786 -3.22867,-2.56786 z"
       id="path4-3"
       sodipodi:nodetypes="sccsssccsssssss" />
    <path
       style="fill:#434c5e;fill-opacity:1;stroke-width:0.177384"
       d="m 442.57143,510.668 c 0,1.32622 -0.80272,2.4113 -2.64,2.4113 h -46.599 c -1.8373,0 -2.54052,-1.08508 -2.54052,-2.4113 v -7.23389 c 0,-1.32622 0.70322,-2.4113 2.54052,-2.4113 h 46.499 c 1.83728,0 2.74,1.08508 2.74,2.4113 z"
       id="path8-6"
       sodipodi:nodetypes="sssssssss" />
    <path
       style="fill:url(#linearGradient844);fill-opacity:1;stroke-width:0.194236"
       d="m 443.55851,505.13694 h -53.98053 c -1.63598,0 -3.27172,1.47608 -3.27172,2.95216 v 28.78355 c 0,1.95216 1.26517,2.95216 3.27172,2.95216 h 53.98053 c 2.01292,0 3.27172,-1 3.27172,-2.95216 V 508.0891 c 0,-1.47608 -1.63575,-2.95216 -3.27172,-2.95216 z"
       id="path10"
       sodipodi:nodetypes="sssssssss" />
    <path
       d="m 416.99406,513.598 c -5.76513,0 -10.43463,4.59124 -10.43463,10.25376 0,4.53124 2.98952,8.37379 7.13468,9.72855 0.52173,0.0964 0.71303,-0.22086 0.71303,-0.49303 0,-0.24348 -0.009,-0.88869 -0.0131,-1.74345 -2.90256,0.61826 -3.51473,-1.37564 -3.51473,-1.37564 -0.47477,-1.18346 -1.16085,-1.49999 -1.16085,-1.49999 -0.9452,-0.63564 0.0731,-0.62259 0.0731,-0.62259 1.04781,0.0712 1.59824,1.05651 1.59824,1.05651 0.93042,1.56781 2.44257,1.11478 3.03908,0.85304 0.0939,-0.66347 0.3626,-1.11477 0.66086,-1.37129 -2.31736,-0.25651 -4.75297,-1.13824 -4.75297,-5.06688 0,-1.11911 0.40434,-2.03388 1.0739,-2.75126 -0.1174,-0.25913 -0.46956,-1.30172 0.0913,-2.71387 0,0 0.8739,-0.27478 2.86952,1.05129 0.83478,-0.22783 1.72172,-0.34087 2.60866,-0.34609 0.88694,0.005 1.77389,0.11825 2.60866,0.34609 1.98258,-1.32607 2.85648,-1.05129 2.85648,-1.05129 0.56086,1.41215 0.20868,2.45474 0.10434,2.71387 0.66521,0.71738 1.06955,1.63215 1.06955,2.75126 0,3.93907 -2.4391,4.80602 -4.7608,5.05819 0.36521,0.30782 0.70434,0.93651 0.70434,1.89736 0,1.37216 -0.013,2.47475 -0.013,2.80779 0,0.26869 0.18261,0.58954 0.71738,0.48695 4.17471,-1.34608 7.16163,-5.19124 7.16163,-9.71552 -10e-6,-5.66252 -4.67211,-10.25376 -10.43463,-10.25376 z"
       id="path2-3-3-3"
       style="fill:#434c5e;fill-opacity:1;stroke-width:0.869553" />
  </g>
</svg>
