<?xml version="1.0" encoding="UTF-8" standalone="no"?>
<svg
   xmlns:dc="http://purl.org/dc/elements/1.1/"
   xmlns:cc="http://creativecommons.org/ns#"
   xmlns:rdf="http://www.w3.org/1999/02/22-rdf-syntax-ns#"
   xmlns:svg="http://www.w3.org/2000/svg"
   xmlns="http://www.w3.org/2000/svg"
   xmlns:xlink="http://www.w3.org/1999/xlink"
   xmlns:sodipodi="http://sodipodi.sourceforge.net/DTD/sodipodi-0.dtd"
   xmlns:inkscape="http://www.inkscape.org/namespaces/inkscape"
   width="64"
   version="1.1"
   height="64"
   id="svg2"
   inkscape:version="1.0.2 (e86c870879, 2021-01-15)"
   sodipodi:docname="folder-gdrive.svg">
  <sodipodi:namedview
     pagecolor="#ffffff"
     bordercolor="#666666"
     borderopacity="1"
     objecttolerance="10"
     gridtolerance="10"
     guidetolerance="10"
     inkscape:pageopacity="0"
     inkscape:pageshadow="2"
     inkscape:window-width="1920"
     inkscape:window-height="1013"
     id="namedview45"
     showgrid="true"
     inkscape:zoom="5.2149125"
     inkscape:cx="23.784142"
     inkscape:cy="13.150107"
     inkscape:window-x="0"
     inkscape:window-y="0"
     inkscape:window-maximized="1"
     inkscape:current-layer="layer1"
     inkscape:document-rotation="0">
    <inkscape:grid
       type="xygrid"
       id="grid921" />
  </sodipodi:namedview>
  <defs
     id="defs5455">
    <linearGradient
       inkscape:collect="always"
       xlink:href="#linearGradient860"
       id="linearGradient862-3"
       x1="113.94677"
       y1="255.36646"
       x2="406.08289"
       y2="255.36646"
       gradientUnits="userSpaceOnUse"
       gradientTransform="matrix(0.2044729,0,0,0.18450994,363.4056,467.49691)" />
    <linearGradient
       inkscape:collect="always"
       id="linearGradient860">
      <stop
         style="stop-color:#80e5ff;stop-opacity:1"
         offset="0"
         id="stop856" />
      <stop
         style="stop-color:#ffd1b3;stop-opacity:1"
         offset="1"
         id="stop858" />
    </linearGradient>
    <linearGradient
       inkscape:collect="always"
       xlink:href="#linearGradient842"
       id="linearGradient844"
       x1="386.30627"
       y1="522.45404"
       x2="446.83023"
       y2="522.45404"
       gradientUnits="userSpaceOnUse"
       gradientTransform="translate(1.661e-4,0.02676857)" />
    <linearGradient
       inkscape:collect="always"
       id="linearGradient842">
      <stop
         style="stop-color:#ffeeaa;stop-opacity:1"
         offset="0"
         id="stop838" />
      <stop
         style="stop-color:#55ffdd;stop-opacity:1"
         offset="1"
         id="stop840" />
    </linearGradient>
  </defs>
  <metadata
     id="metadata5458">
    <rdf:RDF>
      <cc:Work
         rdf:about="">
        <dc:format>image/svg+xml</dc:format>
        <dc:type
           rdf:resource="http://purl.org/dc/dcmitype/StillImage" />
      </cc:Work>
    </rdf:RDF>
  </metadata>
  <g
     inkscape:label="Capa 1"
     inkscape:groupmode="layer"
     id="layer1"
     transform="translate(-384.57143,-483.798)">
    <path
       style="fill:url(#linearGradient862-3);fill-opacity:1;stroke-width:0.179968"
       d="m 416.5716,496.96053 c -0.88801,0 -1.93916,-0.51678 -2.33715,-1.14848 l -1.78556,-2.83877 c -0.39617,-0.63169 -1.44732,-1.14731 -2.33501,-1.14847 l -20.57928,-0.0268 c -1.963,-0.003 -2.79036,0.93548 -2.81825,3.00583 l -0.0118,0.87276 v 2.56786 36.592 c 0,0.70616 2.34097,2.56786 3.22866,2.56786 h 53.27637 c 0.88771,0 3.22867,-1.8617 3.22867,-2.56786 v -35.30807 c 0,-1.92589 -0.80703,-2.56786 -3.22867,-2.56786 z"
       id="path4-3"
       sodipodi:nodetypes="sccsssccsssssss" />
    <path
       style="fill:#434c5e;fill-opacity:1;stroke-width:0.177384"
       d="m 442.5716,510.668 c 0,1.32622 -0.80272,2.4113 -2.64,2.4113 h -46.599 c -1.8373,0 -2.54052,-1.08508 -2.54052,-2.4113 v -7.23389 c 0,-1.32622 0.70322,-2.4113 2.54052,-2.4113 h 46.499 c 1.83728,0 2.74,1.08508 2.74,2.4113 z"
       id="path8-6"
       sodipodi:nodetypes="sssssssss" />
    <path
       style="fill:url(#linearGradient844);fill-opacity:1;stroke-width:0.194236"
       d="m 443.55868,505.13694 h -53.98053 c -1.63598,0 -3.27172,1.47608 -3.27172,2.95216 v 28.78355 c 0,1.95216 1.26517,2.95216 3.27172,2.95216 h 53.98053 c 2.01292,0 3.27172,-1 3.27172,-2.95216 V 508.0891 c 0,-1.47608 -1.63575,-2.95216 -3.27172,-2.95216 z"
       id="path10"
       sodipodi:nodetypes="sssssssss" />
    <path
       inkscape:connector-curvature="0"
       style="fill:#434c5e;fill-opacity:1;stroke:none;stroke-width:0.9"
       d="m 413.95643,515.798 6.27338,11.57086 h 6.27562 L 420.22981,515.798 Z m -1.0055,1.02613 -6.2455,10.32497 2.92407,5.99635 6.08222,-10.91605 z m 0.85723,11.83009 -3.17322,5.14378 h 12.69507 l 3.17542,-5.14378 z"
       class="ColorScheme-Text"
       id="path6-6-6" />
  </g>
</svg>
