<?xml version="1.0" encoding="UTF-8" standalone="no"?>
<svg
   width="21.999996"
   height="21.999996"
   viewBox="0 0 5.8208322 5.8208325"
   version="1.1"
   id="svg847"
   inkscape:version="1.1 (c68e22c387, 2021-05-23)"
   sodipodi:docname="activities.svg"
   xmlns:inkscape="http://www.inkscape.org/namespaces/inkscape"
   xmlns:sodipodi="http://sodipodi.sourceforge.net/DTD/sodipodi-0.dtd"
   xmlns:xlink="http://www.w3.org/1999/xlink"
   xmlns="http://www.w3.org/2000/svg"
   xmlns:svg="http://www.w3.org/2000/svg"
   xmlns:rdf="http://www.w3.org/1999/02/22-rdf-syntax-ns#"
   xmlns:cc="http://creativecommons.org/ns#"
   xmlns:dc="http://purl.org/dc/elements/1.1/">
  <defs
     id="defs841">
    <linearGradient
       inkscape:collect="always"
       id="linearGradient849">
      <stop
         style="stop-color:#00ccff;stop-opacity:1"
         offset="0"
         id="stop845" />
      <stop
         style="stop-color:#a4a4c1;stop-opacity:1"
         offset="1"
         id="stop847" />
    </linearGradient>
    <linearGradient
       inkscape:collect="always"
       id="linearGradient844">
      <stop
         style="stop-color:#00ccff;stop-opacity:1"
         offset="0"
         id="stop840" />
      <stop
         style="stop-color:#a4a4c1;stop-opacity:1"
         offset="1"
         id="stop842" />
    </linearGradient>
    <linearGradient
       inkscape:collect="always"
       xlink:href="#linearGradient849"
       id="linearGradient846"
       x1="1.0583335"
       y1="7.4083333"
       x2="4.7625003"
       y2="3.7041667"
       gradientUnits="userSpaceOnUse" />
    <linearGradient
       inkscape:collect="always"
       xlink:href="#linearGradient844"
       id="linearGradient856"
       gradientUnits="userSpaceOnUse"
       x1="2.3812501"
       y1="6.0854168"
       x2="6.0854168"
       y2="2.1166668" />
    <linearGradient
       inkscape:collect="always"
       xlink:href="#linearGradient849"
       id="linearGradient912"
       gradientUnits="userSpaceOnUse"
       x1="1.0583335"
       y1="7.4083333"
       x2="4.7625003"
       y2="3.7041667"
       gradientTransform="matrix(0.66666622,0,0,0.66666627,8.5548699,2.734028)" />
    <linearGradient
       inkscape:collect="always"
       xlink:href="#linearGradient844"
       id="linearGradient960"
       x1="10.138816"
       y1="5.1195817"
       x2="13.493749"
       y2="5.1195817"
       gradientUnits="userSpaceOnUse" />
  </defs>
  <sodipodi:namedview
     id="base"
     pagecolor="#ffffff"
     bordercolor="#000000"
     borderopacity="1"
     inkscape:pageopacity="0.0"
     inkscape:pageshadow="2"
     inkscape:zoom="5.6"
     inkscape:cx="-8.4821429"
     inkscape:cy="6.25"
     inkscape:document-units="px"
     inkscape:current-layer="layer1"
     inkscape:document-rotation="0"
     showgrid="false"
     units="px"
     inkscape:window-width="1920"
     inkscape:window-height="1007"
     inkscape:window-x="0"
     inkscape:window-y="0"
     inkscape:window-maximized="1"
     inkscape:snap-bbox="true"
     inkscape:bbox-nodes="true"
     inkscape:showpageshadow="false"
     inkscape:lockguides="false"
     inkscape:pagecheckerboard="0">
    <inkscape:grid
       type="xygrid"
       id="grid1410"
       originx="-8.4666677"
       originy="-2.6458333" />
  </sodipodi:namedview>
  <metadata
     id="metadata844">
    <rdf:RDF>
      <cc:Work
         rdf:about="">
        <dc:format>image/svg+xml</dc:format>
        <dc:type
           rdf:resource="http://purl.org/dc/dcmitype/StillImage" />
      </cc:Work>
    </rdf:RDF>
    <style
       id="current-color-scheme" />
  </metadata>
  <g
     inkscape:label="Layer 1"
     inkscape:groupmode="layer"
     id="layer1"
     transform="translate(-8.4666681,-2.6458333)">
    <g
       id="22-22-activities">
      <rect
         style="opacity:0.003;fill:#000000;stroke-width:0.363802"
         id="rect1430-3-7-5"
         width="5.8208323"
         height="5.8208323"
         x="8.4666681"
         y="2.6458333" />
      <path
         d="m 12.749494,3.5969545 c 0.324889,0 0.587117,0.2626284 0.587117,0.5879996 v 1.8689205 c 0,0.325353 -0.262228,0.587995 -0.587117,0.587995 h -1.866432 c -0.324877,0 -0.587115,-0.262642 -0.587115,-0.587995 V 4.1849541 c 0,-0.3253712 0.262238,-0.5879996 0.587115,-0.5879996 h 1.866432 m 0,-0.1573712 h -1.866432 c -0.408751,0 -0.744246,0.3359997 -0.744246,0.7453708 v 1.8689205 c 0,0.409706 0.335495,0.745705 0.744246,0.745705 h 1.866095 c 0.409096,0 0.744592,-0.335999 0.744592,-0.745359 V 4.1849541 c 0,-0.4093711 -0.335496,-0.7453708 -0.744255,-0.7453708 z"
         id="path4-36-3"
         style="clip-rule:evenodd;fill:url(#linearGradient960);fill-opacity:1.0;fill-rule:evenodd;stroke-width:0.00342606;stroke-linejoin:round;stroke-miterlimit:1.41421" />
      <path
         d="m 11.871095,4.470287 c 0.324889,0 0.587119,0.262629 0.587119,0.5879993 v 1.8689043 c 0,0.325392 -0.26223,0.588001 -0.587119,0.588001 h -1.866423 c -0.3248857,0 -0.5871136,-0.262609 -0.5871136,-0.588001 V 5.0582863 c 0,-0.3253703 0.2622279,-0.5879993 0.5871136,-0.5879993 h 1.866423 m 0,-0.157371 h -1.866423 c -0.4087585,0 -0.7442539,0.3359998 -0.7442539,0.7453703 v 1.8689043 c 0,0.409725 0.3354954,0.745726 0.7442539,0.745726 h 1.866087 c 0.409095,0 0.744592,-0.336001 0.744592,-0.745374 V 5.0582863 c 0,-0.4093705 -0.335497,-0.7453703 -0.744256,-0.7453703 z"
         id="path4-36-7-5"
         style="clip-rule:evenodd;fill:url(#linearGradient912);fill-opacity:1;fill-rule:evenodd;stroke-width:0.00342606;stroke-linejoin:round;stroke-miterlimit:1.41421" />
    </g>
    <g
       id="activities">
      <rect
         y="0"
         x="0"
         height="8.4666662"
         width="8.4666662"
         id="rect1430"
         style="opacity:0.003;fill:#000000;stroke-width:0.529167" />
      <path
         d="m 6.2919493,1.2943911 c 0.487335,0 0.880677,0.3939423 0.880677,0.8819996 v 2.8033717 c 0,0.488057 -0.393342,0.8820002 -0.880677,0.8820002 h -2.799649 c -0.487317,0 -0.880672,-0.3939432 -0.880672,-0.8820002 V 2.1763907 c 0,-0.4880573 0.393355,-0.8819996 0.880672,-0.8819996 h 2.799649 m 0,-0.2360578 h -2.799649 c -0.613127,0 -1.116369,0.5040001 -1.116369,1.1180574 v 2.8033717 c 0,0.6145711 0.503242,1.1185714 1.116369,1.1185714 h 2.799144 c 0.613645,0 1.116889,-0.5040003 1.116889,-1.1180573 V 2.1763907 c 0,-0.6140573 -0.503244,-1.1180574 -1.116384,-1.1180574 z"
         id="path4-36"
         style="clip-rule:evenodd;fill:url(#linearGradient856);fill-opacity:1;fill-rule:evenodd;stroke-width:0.005139;stroke-linejoin:round;stroke-miterlimit:1.41421" />
      <path
         d="m 4.9743513,2.6043902 c 0.487335,0 0.880677,0.3939428 0.880677,0.882 v 2.8033717 c 0,0.488057 -0.393342,0.8820001 -0.880677,0.8820001 h -2.799636 c -0.48733,0 -0.880672,-0.3939431 -0.880672,-0.8820001 V 3.4863902 c 0,-0.4880572 0.393342,-0.882 0.880672,-0.882 h 2.799636 m 0,-0.2360574 h -2.799636 c -0.61314,0 -1.116382,0.504 -1.116382,1.1180574 v 2.8033717 c 0,0.614571 0.503242,1.1185714 1.116382,1.1185714 h 2.799131 c 0.613645,0 1.116889,-0.5040004 1.116889,-1.1180574 V 3.4863902 c 0,-0.6140574 -0.503244,-1.1180574 -1.116384,-1.1180574 z"
         id="path4-36-7"
         style="clip-rule:evenodd;fill:url(#linearGradient846);fill-opacity:1;fill-rule:evenodd;stroke-width:0.005139;stroke-linejoin:round;stroke-miterlimit:1.41421" />
    </g>
  </g>
</svg>
