<?xml version="1.0" encoding="UTF-8" standalone="no"?>
<svg
   width="32"
   height="32"
   version="1.1"
   id="svg12"
   sodipodi:docname="akonadi.svg"
   inkscape:version="1.1 (c68e22c387, 2021-05-23)"
   xmlns:inkscape="http://www.inkscape.org/namespaces/inkscape"
   xmlns:sodipodi="http://sodipodi.sourceforge.net/DTD/sodipodi-0.dtd"
   xmlns="http://www.w3.org/2000/svg"
   xmlns:svg="http://www.w3.org/2000/svg"
   xmlns:rdf="http://www.w3.org/1999/02/22-rdf-syntax-ns#"
   xmlns:cc="http://creativecommons.org/ns#"
   xmlns:dc="http://purl.org/dc/elements/1.1/">
  <g
     id="22-22-akonadi"
     transform="translate(32.000001,10.000001)">
    <path
       style="opacity:0.00100002"
       d="M 0,0 H 22 V 22 H 0 Z"
       id="path2" />
    <path
       d="m 8.7140513,3 a 1.1431376,1.111236 0 1 0 0,2.222472 h 4.5718967 a 1.1431376,1.111236 0 1 0 0,-2.222472 z m -2.286273,3.556959 a 1.1430942,1.1111937 0 1 0 0,2.221841 h 9.1444397 a 1.1430942,1.1111937 0 1 0 0,-2.221841 z M 4.1415172,10.11076 a 1.1430942,1.1111937 0 0 0 -1.141516,1.112815 v 6.66677 A 1.1430942,1.1111937 0 0 0 4.1415172,19 H 17.857839 a 1.1430942,1.1111937 0 0 0 1.142158,-1.109655 v -6.66677 A 1.1430942,1.1111937 0 0 0 17.857839,10.11076 Z"
       style="color:#000000;font-style:normal;font-variant:normal;font-weight:normal;font-stretch:normal;font-size:medium;line-height:normal;font-family:sans-serif;font-variant-ligatures:normal;font-variant-position:normal;font-variant-caps:normal;font-variant-numeric:normal;font-variant-alternates:normal;font-feature-settings:normal;text-indent:0;text-align:start;text-decoration:none;text-decoration-line:none;text-decoration-style:solid;text-decoration-color:#000000;letter-spacing:normal;word-spacing:normal;text-transform:none;writing-mode:lr-tb;direction:ltr;text-orientation:mixed;dominant-baseline:auto;baseline-shift:baseline;text-anchor:start;white-space:normal;shape-padding:0;clip-rule:nonzero;display:inline;overflow:visible;visibility:visible;isolation:auto;mix-blend-mode:normal;color-interpolation:sRGB;color-interpolation-filters:linearRGB;solid-color:#000000;solid-opacity:1;vector-effect:none;fill:#eff0f1;fill-opacity:1;fill-rule:evenodd;stroke:none;stroke-width:2.25378;stroke-linecap:round;stroke-linejoin:round;stroke-miterlimit:4;stroke-dasharray:none;stroke-dashoffset:0;stroke-opacity:1;paint-order:fill markers stroke;color-rendering:auto;image-rendering:auto;shape-rendering:auto;text-rendering:auto;enable-background:accumulate"
       id="path2-3-3" />
    <path
       class="fil0"
       d="m 11.930919,11.9082 c 0.130481,0.04207 0.257578,0.09308 0.380524,0.152837 L 13.04652,11.34648 c 0.121503,0.08314 0.230115,0.161098 0.329744,0.23763 -0.331929,0.322672 -0.663627,0.645106 -0.995325,0.96778 -0.298885,-0.173854 -0.518068,-0.26173 -0.855839,-0.34417 v -0.976518 c -0.341653,-0.04844 -0.690347,-0.04913 -1.032009,-0.0023 v 0.978172 c -0.337769,0.08244 -0.5569537,0.170075 -0.8558397,0.344169 l -0.710772,-0.690921 c -0.275554,0.202204 -0.519279,0.444563 -0.72316,0.715739 l 0.70348,0.684083 c -0.179329,0.290549 -0.27021,0.504085 -0.355254,0.832665 h -1.001164 c -0.05495,0.332123 -0.05981,0.670382 -0.01117,1.002975 h 1.011356 c 0.08453,0.329286 0.175204,0.543066 0.354526,0.834318 l -0.306173,0.297633 c -0.109839,-0.148909 -0.290866,-0.543153 -0.35696,-0.73709 h -1.046105 c -0.125156,-0.698257 -0.120536,-1.096751 0.01722,-1.792648 h 1.030071 c 0.04378,-0.127086 0.09647,-0.251096 0.158429,-0.370859 l -0.725345,-0.705084 c 0.410914,-0.5818 0.700805,-0.869749 1.294211,-1.276988 l 0.735802,0.715504 c 0.122948,-0.0598 0.250284,-0.110787 0.3807687,-0.152837 v -1.012184 c 0.720981,-0.122124 1.131646,-0.119056 1.844113,0.0027 v 1.010061 z m 1.843133,1.79028 h 1.029097 c 0.136811,0.695425 0.141674,1.094873 0.01679,1.792656 H 13.77554 c -0.04354,0.127556 -0.09624,0.252042 -0.157955,0.372041 l 0.734345,0.713847 c -0.417717,0.574007 -0.712958,0.862426 -1.307085,1.264468 l -0.730461,-0.710065 c -0.123926,0.06043 -0.252228,0.111969 -0.38345,0.154484 v 1.003686 c -0.71538,0.124957 -1.128724,0.124486 -1.844112,0 V 17.285911 C 9.9553593,17.243421 9.8270633,17.191891 9.7031313,17.131427 l -0.730443,0.710065 c -0.116639,-0.0789 -0.221865,-0.15354 -0.318572,-0.226532 0.302525,-0.336608 0.655602,-0.659042 0.980013,-0.974394 0.299854,0.175035 0.5197637,0.263149 0.8587497,0.345821 v 0.971564 c 0.341899,0.04933 0.690112,0.04933 1.031767,0 v -0.971564 l 0.09744,-0.02362 c 0.288685,-0.07065 0.509081,-0.175509 0.76132,-0.322202 l 0.70712,0.687156 c 0.277022,-0.200078 0.523422,-0.440075 0.730943,-0.707942 l -0.708831,-0.68904 c 0.179336,-0.29126 0.269977,-0.505038 0.354539,-0.834078 h 1.009661 c 0.04837,-0.33284 0.04378,-0.671337 -0.01091,-1.00322 h -0.999686 c -0.08508,-0.327637 -0.177866,-0.544952 -0.355256,-0.832429 l 0.272158,-0.264566 c 0.193175,0.229128 0.295238,0.422594 0.390981,0.702274 z m -2.858626,-0.359748 c 1.182677,-0.08266 1.865735,1.3195 1.010875,2.150513 -0.506901,0.492752 -1.328472,0.492752 -1.835366,0 C 9.2975413,14.718 9.8250913,13.41455 10.915426,13.338732 Z m -0.537267,1.871308 c 0.348211,0.338498 0.912942,0.338498 1.26116,0 0.578573,-0.562439 0.13267,-1.512029 -0.668731,-1.479196 -0.762527,0.03167 -1.1467077,0.940618 -0.592677,1.479196 z"
       id="path6-6"
       style="fill:#009eff;fill-opacity:1;stroke-width:0.023959;image-rendering:optimizeQuality;shape-rendering:geometricPrecision;text-rendering:geometricPrecision" />
  </g>
  <metadata
     id="metadata18">
    <rdf:RDF>
      <cc:Work
         rdf:about="">
        <dc:format>image/svg+xml</dc:format>
        <dc:type
           rdf:resource="http://purl.org/dc/dcmitype/StillImage" />
      </cc:Work>
    </rdf:RDF>
  </metadata>
  <defs
     id="defs16" />
  <sodipodi:namedview
     pagecolor="#ffffff"
     bordercolor="#000000"
     borderopacity="1"
     objecttolerance="10"
     gridtolerance="10"
     guidetolerance="10"
     inkscape:pageopacity="0"
     inkscape:pageshadow="2"
     inkscape:window-width="1920"
     inkscape:window-height="1007"
     id="namedview14"
     showgrid="false"
     inkscape:zoom="9.8125"
     inkscape:cx="24.815287"
     inkscape:cy="17.426752"
     inkscape:window-x="0"
     inkscape:window-y="0"
     inkscape:window-maximized="1"
     inkscape:current-layer="svg12"
     inkscape:document-rotation="0"
     inkscape:lockguides="false"
     inkscape:showpageshadow="false"
     inkscape:pagecheckerboard="0">
    <inkscape:grid
       type="xygrid"
       id="grid907"
       originx="32.000001"
       originy="10.000001" />
  </sodipodi:namedview>
  <g
     id="akonadi">
    <path
       style="opacity:0.00100002"
       d="M 0,0 H 32.000001 V 32.000001 H 0 Z"
       id="path7" />
    <path
       d="m 12.571081,4.0000003 a 1.7147031,1.6668509 0 1 0 0,3.3337017 h 6.857838 a 1.7147031,1.6668509 0 1 0 0,-3.3337017 z M 9.1416745,9.3354388 a 1.7146413,1.6667908 0 1 0 0,3.3327542 H 22.858325 a 1.7146413,1.6667908 0 1 0 0,-3.3327542 z M 5.7122683,14.666141 A 1.7146413,1.6667908 0 0 0 4.0000018,16.33536 v 10.000159 a 1.7146413,1.6667908 0 0 0 1.7122665,1.664482 H 26.286757 a 1.7146413,1.6667908 0 0 0 1.713241,-1.664482 V 16.33536 a 1.7146413,1.6667908 0 0 0 -1.713241,-1.669219 z"
       style="color:#000000;font-style:normal;font-variant:normal;font-weight:normal;font-stretch:normal;font-size:medium;line-height:normal;font-family:sans-serif;font-variant-ligatures:normal;font-variant-position:normal;font-variant-caps:normal;font-variant-numeric:normal;font-variant-alternates:normal;font-feature-settings:normal;text-indent:0;text-align:start;text-decoration:none;text-decoration-line:none;text-decoration-style:solid;text-decoration-color:#000000;letter-spacing:normal;word-spacing:normal;text-transform:none;writing-mode:lr-tb;direction:ltr;text-orientation:mixed;dominant-baseline:auto;baseline-shift:baseline;text-anchor:start;white-space:normal;shape-padding:0;clip-rule:nonzero;display:inline;overflow:visible;visibility:visible;isolation:auto;mix-blend-mode:normal;color-interpolation:sRGB;color-interpolation-filters:linearRGB;solid-color:#000000;solid-opacity:1;vector-effect:none;fill:#eff0f1;fill-opacity:1;fill-rule:evenodd;stroke:none;stroke-width:3.38075;stroke-linecap:round;stroke-linejoin:round;stroke-miterlimit:4;stroke-dasharray:none;stroke-dashoffset:0;stroke-opacity:1;paint-order:fill markers stroke;color-rendering:auto;image-rendering:auto;shape-rendering:auto;text-rendering:auto;enable-background:accumulate"
       id="path2-3" />
    <path
       class="fil0"
       d="m 17.396372,17.362299 c 0.195735,0.06307 0.386367,0.139604 0.570803,0.229249 l 1.102603,-1.071834 c 0.182248,0.124722 0.345179,0.241649 0.494623,0.356452 -0.497904,0.484007 -0.995442,0.967661 -1.492981,1.451669 -0.44833,-0.260783 -0.777107,-0.392592 -1.283759,-0.51625 v -1.464782 c -0.512482,-0.07264 -1.035535,-0.0737 -1.548019,-0.0025 v 1.467261 c -0.50665,0.123659 -0.835426,0.255114 -1.283758,0.516252 L 12.88973,17.291424 c -0.41334,0.303303 -0.778929,0.666841 -1.084743,1.073605 l 1.05522,1.026126 c -0.269,0.43582 -0.405321,0.756131 -0.532896,1.248998 h -1.501729 c -0.08238,0.49818 -0.08967,1.005573 -0.01677,1.504464 h 1.517036 c 0.126846,0.493929 0.262804,0.814594 0.531801,1.251476 l -0.459267,0.44645 C 12.233631,23.618964 11.962079,23.027595 11.862937,22.736694 H 10.293776 C 10.10606,21.68931 10.112987,21.091562 10.319656,20.04772 h 1.545102 c 0.06561,-0.190626 0.144705,-0.376647 0.237653,-0.556291 l -1.088023,-1.05766 c 0.616363,-0.872703 1.051208,-1.304626 1.941311,-1.915482 l 1.103696,1.073252 c 0.184436,-0.08964 0.375433,-0.166179 0.571168,-0.229249 v -1.51828 c 1.081462,-0.183186 1.697462,-0.178581 2.766169,0.0032 v 1.515095 z m 2.76471,2.68543 h 1.543644 c 0.205213,1.043136 0.212503,1.642298 0.02515,2.688977 H 20.16327 c -0.06525,0.191335 -0.144342,0.378063 -0.236923,0.558062 l 1.101509,1.07077 c -0.626569,0.86101 -1.069434,1.293641 -1.960629,1.896702 l -1.095679,-1.0651 c -0.185892,0.09071 -0.378348,0.16795 -0.575176,0.231728 v 1.505528 c -1.073079,0.187437 -1.693088,0.186729 -2.766167,0 V 25.428868 C 14.433012,25.36509 14.240556,25.287846 14.054664,25.19714 l -1.09568,1.0651 c -0.174958,-0.118343 -0.332786,-0.230311 -0.477855,-0.339797 0.4538,-0.504914 0.983413,-0.988568 1.470017,-1.461591 0.44979,0.262555 0.779658,0.394717 1.288132,0.518732 v 1.457339 c 0.512848,0.07405 1.035172,0.07405 1.547656,0 v -1.457339 l 0.146162,-0.03543 c 0.433024,-0.105943 0.763622,-0.263264 1.141969,-0.483299 l 1.060688,1.030732 c 0.415526,-0.300114 0.785126,-0.660109 1.096407,-1.061914 l -1.063238,-1.033567 c 0.268998,-0.436883 0.404956,-0.757547 0.531801,-1.251121 h 1.514485 c 0.07253,-0.499245 0.06561,-1.006993 -0.0164,-1.50482 H 19.699265 C 19.57169,20.148712 19.432454,19.822733 19.16637,19.39152 l 0.408237,-0.396843 c 0.289774,0.343695 0.442863,0.633887 0.586475,1.053407 z m -4.287944,-0.539636 c 1.774009,-0.124014 2.798609,1.97926 1.516309,3.225777 -0.760341,0.739123 -1.992706,0.739123 -2.753046,0 -1.190083,-1.156872 -0.39876,-3.112039 1.236737,-3.225777 z m -0.805902,2.806964 c 0.522324,0.507748 1.369416,0.507748 1.89174,0 0.867867,-0.843648 0.199015,-2.268035 -1.003096,-2.218785 -1.143792,0.04748 -1.720061,1.410925 -0.889008,2.218785 z"
       id="path6"
       style="fill:#009eff;fill-opacity:1;stroke-width:0.0359378;image-rendering:optimizeQuality;shape-rendering:geometricPrecision;text-rendering:geometricPrecision" />
  </g>
</svg>
