<?xml version="1.0" encoding="UTF-8" standalone="no"?>
<svg
   width="32"
   height="32"
   version="1.1"
   id="svg12"
   sodipodi:docname="amarok.svg"
   inkscape:version="1.1.1 (3bf5ae0d25, 2021-09-20)"
   xmlns:inkscape="http://www.inkscape.org/namespaces/inkscape"
   xmlns:sodipodi="http://sodipodi.sourceforge.net/DTD/sodipodi-0.dtd"
   xmlns="http://www.w3.org/2000/svg"
   xmlns:svg="http://www.w3.org/2000/svg"
   xmlns:rdf="http://www.w3.org/1999/02/22-rdf-syntax-ns#"
   xmlns:cc="http://creativecommons.org/ns#"
   xmlns:dc="http://purl.org/dc/elements/1.1/">
  <g
     id="22-22-amarok"
     transform="translate(32,10.000001)">
    <path
       style="opacity:0.00100002"
       d="M 0,0 V 22 H 22 V 0 Z"
       id="path4" />
    <path
       d="m 15.45064,3.749384 c 1.549359,0 2.8,1.250616 2.8,2.800003 v 8.899598 c 0,1.549366 -1.250641,2.800008 -2.8,2.800008 H 6.54936 c -1.54936,0 -2.8,-1.250642 -2.8,-2.800008 V 6.549387 C 3.74936,5 5,3.749384 6.54936,3.749384 h 8.90128 M 15.45064,3 H 6.54936 C 4.6,3 3,4.6 3,6.549387 v 8.899598 C 3,17.399999 4.6,19 6.54936,19 h 8.899633 c 1.951006,0 3.551006,-1.600001 3.551006,-3.549369 V 6.549387 C 18.999999,4.6 17.399999,3 15.45064,3 Z"
       id="path4-3-3"
       style="clip-rule:evenodd;fill:#eff0f1;fill-opacity:1;fill-rule:evenodd;stroke-width:0.0163279;stroke-linejoin:round;stroke-miterlimit:1.41421" />
    <path
       style="color:#d5c289;fill:#eff0f1;fill-opacity:1;stroke-width:0.722867"
       class="ColorScheme-Text"
       d="m 14.901636,5.666667 c -0.27093,0 -0.796438,0.62166 -0.993413,0.719762 -0.19733,0.09809 -1.756978,1.209686 -1.904532,1.405914 -0.14791,0.196194 -0.345008,0.278104 -0.55834,0.261761 C 11.231669,8.037794 10.557329,8.030824 10.327289,8.161631 10.097601,8.292483 9.048117,9.3622 8.785257,9.492949 8.522571,9.62372 8.179998,9.690631 8.015809,9.706995 c -0.164164,0.01634 -0.708146,0.619733 -0.855912,0.73421 -0.147768,0.114479 -1.315335,0.617698 -1.479529,0.715727 -0.1642,0.09811 1.197795,1.472019 1.394805,1.504707 0.197028,0.03274 -0.510705,0.466376 -0.514935,0.777219 -0.0042,0.310089 0.33904,1.233761 2.328494,2.320567 1.719901,0.939539 3.536549,0.487054 4.222261,0.295698 0.272055,-0.07593 0.172226,-0.948086 0.222572,-1.411627 0.03287,-0.294304 0.147731,-2.763321 0.574658,-3.417346 0.426874,-0.653953 1.647069,-1.439117 2.073978,-1.520833 0.42691,-0.08175 0.344794,-0.245353 0.344794,-0.392474 0,-0.147134 -0.06597,-0.474157 -0.180904,-0.523188 -0.114922,-0.04904 -0.563351,0.245536 -0.711118,0.278226 -0.147766,0.03269 -0.853534,0.08184 -0.95209,-0.08165 -0.09849,-0.163404 0.796275,-1.831363 0.911119,-2.027555 0.114841,-0.19623 0.164379,-0.457647 -0.04933,-0.735554 C 15.131352,5.945113 14.983753,5.667001 14.90162,5.667001 Z m -3.742049,3.440864 c 0.111362,-0.0015 0.187156,0.0094 0.187156,0.0094 0.06233,0.135741 -0.228188,0.562425 -0.49827,0.620636 -0.270006,0.05813 -0.8935,0.911706 -0.914248,0.717741 -0.02084,-0.193959 0.2495,-0.834067 0.56112,-1.124999 0.19475,-0.181846 0.478637,-0.219943 0.664242,-0.222787 z"
       id="path58-5-1-67" />
  </g>
  <g
     id="amarok"
     transform="translate(32,10.000001)">
    <path
       style="opacity:0.00100002"
       d="M -32,-10.000001 V 22 H 0 v -32.000001 z"
       id="path7" />
    <path
       d="m -9.32404,-4.875925 c 2.324039,0 4.2,1.875924 4.2,4.200004 v 13.349397 c 0,2.324049 -1.875962,4.200012 -4.2,4.200012 h -13.35192 c -2.32404,0 -4.2,-1.875963 -4.2,-4.200012 V -0.675921 c 0,-2.32408 1.87596,-4.200004 4.2,-4.200004 h 13.35192 m 0,-1.124076 h -13.35192 c -2.92404,0 -5.32404,2.4 -5.32404,5.324081 v 13.349397 c 0,2.926521 2.4,5.326522 5.32404,5.326522 h 13.34945 c 2.926509,0 5.326509,-2.400001 5.326509,-5.324053 V -0.67592 c 0,-2.924081 -2.4,-5.324081 -5.324039,-5.324081 z"
       id="path4-3"
       style="clip-rule:evenodd;fill:#eff0f1;fill-opacity:1;fill-rule:evenodd;stroke-width:0.0244919;stroke-linejoin:round;stroke-miterlimit:1.41421" />
    <path
       style="color:#d5c289;fill:#eff0f1;fill-opacity:1;stroke-width:1.0843"
       class="ColorScheme-Text"
       d="m -10.147546,-2.000001 c -0.406395,0 -1.194657,0.9324913 -1.490119,1.0796429 -0.295995,0.1471383 -2.635468,1.8145301 -2.856799,2.1088721 -0.221864,0.294291 -0.517511,0.417155 -0.837509,0.392641 -0.320524,-0.02447 -1.332034,-0.03492 -1.677094,0.161291 -0.344532,0.196278 -1.918757,1.800853 -2.313048,1.996977 -0.394028,0.196156 -0.907888,0.296522 -1.154172,0.321068 -0.246246,0.02451 -1.062219,0.9296 -1.283868,1.101316 -0.221652,0.171718 -1.973002,0.926547 -2.219293,1.07359 -0.2463,0.147169 1.796692,2.208028 2.092208,2.257061 0.295541,0.04911 -0.766058,0.699563 -0.772403,1.165828 -0.0063,0.465133 0.50856,1.850642 3.492741,3.480851 2.579852,1.409308 5.304823,0.73058 6.333391,0.443547 0.408083,-0.113891 0.25834,-1.422129 0.333859,-2.117441 0.04931,-0.441456 0.221596,-4.144981 0.861987,-5.126019 0.64031,-0.98093 2.470603,-2.158676 3.110966,-2.28125 0.640365,-0.122624 0.517192,-0.368029 0.517192,-0.58871 0,-0.220702 -0.09896,-0.711236 -0.271356,-0.784782 -0.172383,-0.07356 -0.845027,0.368304 -1.066677,0.417339 -0.22165,0.04904 -1.280301,0.122764 -1.428135,-0.122477 -0.147735,-0.245107 1.194412,-2.747045 1.366678,-3.0413328 0.172262,-0.2943442 0.246569,-0.6864704 -0.07399,-1.1033304 -0.319985,-0.4170139 -0.541383,-0.8341818 -0.664583,-0.8341818 z m -5.613073,5.161296 c 0.167043,-0.0023 0.280733,0.01414 0.280733,0.01414 0.09349,0.203612 -0.342281,0.843638 -0.747405,0.930955 -0.405009,0.0872 -1.34025,1.367558 -1.371371,1.076611 -0.03126,-0.290939 0.374249,-1.2511 0.841679,-1.687498 0.292125,-0.27277 0.717956,-0.329915 0.996364,-0.334181 z"
       id="path58-5-1" />
  </g>
  <metadata
     id="metadata18">
    <rdf:RDF>
      <cc:Work
         rdf:about="">
        <dc:format>image/svg+xml</dc:format>
        <dc:type
           rdf:resource="http://purl.org/dc/dcmitype/StillImage" />
      </cc:Work>
    </rdf:RDF>
  </metadata>
  <defs
     id="defs16">
    <linearGradient
       x1="0"
       x2="0"
       y1="0"
       y2="16"
       gradientUnits="userSpaceOnUse"
       gradientTransform="matrix(1.5000001,0,0,1.5000001,3.999995,3.9999999)"
       id="linearGradient9">
      <stop
         offset="0%"
         style="stop-color:#303b3d; stop-opacity:1"
         id="stop18" />
      <stop
         offset="100%"
         style="stop-color:#bc985d; stop-opacity:1"
         id="stop20" />
    </linearGradient>
    <linearGradient
       x1="0.81322718"
       x2="0.81322718"
       y1="0.49186769"
       y2="15.247891"
       gradientTransform="matrix(0.98373494,0,0,1.016534,5.9966823,11.726037)"
       gradientUnits="userSpaceOnUse"
       id="linearGradient13">
      <stop
         offset="0%"
         style="stop-color:#303b3d; stop-opacity:1"
         id="stop18-6" />
      <stop
         offset="100%"
         style="stop-color:#bc985d; stop-opacity:1"
         id="stop20-7" />
    </linearGradient>
  </defs>
  <sodipodi:namedview
     pagecolor="#ffffff"
     bordercolor="#000000"
     borderopacity="1"
     objecttolerance="10"
     gridtolerance="10"
     guidetolerance="10"
     inkscape:pageopacity="0"
     inkscape:pageshadow="2"
     inkscape:window-width="1920"
     inkscape:window-height="1007"
     id="namedview14"
     showgrid="false"
     inkscape:zoom="9.8125"
     inkscape:cx="28.789809"
     inkscape:cy="11.719745"
     inkscape:window-x="0"
     inkscape:window-y="0"
     inkscape:window-maximized="1"
     inkscape:current-layer="svg12"
     inkscape:document-rotation="0"
     inkscape:lockguides="true"
     inkscape:showpageshadow="false"
     inkscape:pagecheckerboard="0">
    <inkscape:grid
       type="xygrid"
       id="grid889"
       originx="32"
       originy="10.000001" />
  </sodipodi:namedview>
</svg>
