<?xml version="1.0" encoding="UTF-8" standalone="no"?>
<svg
   width="32"
   height="32"
   version="1.1"
   id="svg12"
   sodipodi:docname="applications.svg"
   inkscape:version="1.1 (c68e22c387, 2021-05-23)"
   xmlns:inkscape="http://www.inkscape.org/namespaces/inkscape"
   xmlns:sodipodi="http://sodipodi.sourceforge.net/DTD/sodipodi-0.dtd"
   xmlns:xlink="http://www.w3.org/1999/xlink"
   xmlns="http://www.w3.org/2000/svg"
   xmlns:svg="http://www.w3.org/2000/svg"
   xmlns:rdf="http://www.w3.org/1999/02/22-rdf-syntax-ns#"
   xmlns:cc="http://creativecommons.org/ns#"
   xmlns:dc="http://purl.org/dc/elements/1.1/">
  <g
     id="22-22-applications-other"
     transform="translate(32,9.9999997)">
    <path
       style="clip-rule:evenodd;fill:#ffffc1;fill-opacity:0;fill-rule:evenodd;stroke-width:0.688964;stroke-linejoin:round;stroke-miterlimit:1.41421"
       d="M 0,0 V 22 H 22 V 0 Z"
       id="rect817-5"
       inkscape:connector-curvature="0" />
    <path
       d="m 16.563265,1.936735 c 1.936734,0 3.5,1.563265 3.5,3.4999999 V 16.561226 c 0,1.936733 -1.563266,3.5 -3.5,3.5 H 5.436733 c -1.936734,0 -3.5,-1.563267 -3.5,-3.5 V 5.4367349 c 0,-1.9367349 1.563266,-3.4999999 3.5,-3.4999999 H 16.563265 M 16.563265,1 H 5.436733 C 2.999999,1 1,3 1,5.4367349 V 16.561226 C 1,19 2.999999,21 5.436733,21 h 11.124492 c 2.438774,0 4.438773,-2 4.438773,-4.436734 V 5.4367349 C 20.999998,3 18.999999,1 16.563265,1 Z"
       id="path4-3"
       style="clip-rule:evenodd;fill:url(#linearGradient856);fill-opacity:1;fill-rule:evenodd;stroke-width:0.0204082;stroke-linejoin:round;stroke-miterlimit:1.41421" />
    <path
       d="M 8.415613,13.782694 H 7.703883 L 7.194476,12.283206 H 5.115302 L 4.634801,13.782694 H 3.923076 L 5.825225,8.3076929 H 6.51527 Z M 6.993969,11.665189 6.238888,9.3892227 C 6.215438,9.3159287 6.190098,9.1891597 6.161208,9.0069245 h -0.0163 C 6.121418,9.1713312 6.094318,9.3000859 6.063618,9.3892227 L 5.315765,11.665189 Z"
       id="path6-7-6"
       style="clip-rule:evenodd;fill:#70e0f5;fill-opacity:1;fill-rule:evenodd;stroke-width:0.0189157;stroke-linejoin:round;stroke-miterlimit:1.41421" />
    <path
       d="m 10.721807,11.736498 v 2.046197 H 10.076925 V 8.3076929 h 1.418028 c 0.540113,0 0.957399,0.14262 1.255452,0.4278572 0.298055,0.28524 0.44618,0.6932896 0.44618,1.2221679 0,0.536805 -0.173416,0.972585 -0.522048,1.305364 -0.348635,0.33278 -0.783979,0.491245 -1.306035,0.471435 h -0.646695 z m 0,-2.8068251 v 2.1848481 h 0.596119 c 0.393796,0 0.691849,-0.09706 0.895976,-0.291183 0.204124,-0.194119 0.307089,-0.473415 0.307089,-0.835907 0,-0.7051737 -0.381154,-1.0577581 -1.141646,-1.0577581 z"
       id="path8-7"
       style="clip-rule:evenodd;fill:#70e0f5;fill-opacity:1;fill-rule:evenodd;stroke-width:0.0189157;stroke-linejoin:round;stroke-miterlimit:1.41421" />
    <path
       d="m 15.491038,11.736499 v 2.046196 H 14.846153 V 8.3076929 h 1.418023 c 0.540126,0 0.957399,0.14262 1.255457,0.4278572 0.298061,0.28524 0.446189,0.6932906 0.446189,1.2221679 0,0.536806 -0.17342,0.972585 -0.522055,1.305365 -0.348641,0.33278 -0.783986,0.491244 -1.306036,0.471435 h -0.646693 z m 0,-2.8068261 v 2.1848481 h 0.596114 c 0.3938,0 0.691858,-0.09706 0.895977,-0.291182 0.204126,-0.194119 0.307096,-0.473415 0.307096,-0.835908 0,-0.7051732 -0.381154,-1.0577581 -1.141655,-1.0577581 z"
       id="path8-5-5"
       style="clip-rule:evenodd;fill:#70e0f5;fill-opacity:1;fill-rule:evenodd;stroke-width:0.0189157;stroke-linejoin:round;stroke-miterlimit:1.41421" />
  </g>
  <metadata
     id="metadata18">
    <rdf:RDF>
      <cc:Work
         rdf:about="">
        <dc:format>image/svg+xml</dc:format>
        <dc:type
           rdf:resource="http://purl.org/dc/dcmitype/StillImage" />
      </cc:Work>
    </rdf:RDF>
  </metadata>
  <defs
     id="defs16">
    <linearGradient
       inkscape:collect="always"
       id="linearGradient846">
      <stop
         style="stop-color:#0d768c;stop-opacity:1"
         offset="0"
         id="stop842" />
      <stop
         style="stop-color:#70e0f5;stop-opacity:1"
         offset="1"
         id="stop844" />
    </linearGradient>
    <linearGradient
       inkscape:collect="always"
       xlink:href="#linearGradient846"
       id="linearGradient848"
       x1="3"
       y1="29"
       x2="29"
       y2="3"
       gradientUnits="userSpaceOnUse" />
    <linearGradient
       inkscape:collect="always"
       xlink:href="#linearGradient846"
       id="linearGradient856"
       x1="1"
       y1="21"
       x2="21"
       y2="1.0000004"
       gradientUnits="userSpaceOnUse" />
  </defs>
  <sodipodi:namedview
     pagecolor="#ffffff"
     bordercolor="#000000"
     borderopacity="1"
     objecttolerance="10"
     gridtolerance="10"
     guidetolerance="10"
     inkscape:pageopacity="0"
     inkscape:pageshadow="2"
     inkscape:window-width="1920"
     inkscape:window-height="1007"
     id="namedview14"
     showgrid="false"
     inkscape:zoom="11.313709"
     inkscape:cx="24.527765"
     inkscape:cy="19.357047"
     inkscape:window-x="0"
     inkscape:window-y="0"
     inkscape:window-maximized="1"
     inkscape:current-layer="svg12"
     inkscape:document-rotation="0"
     inkscape:showpageshadow="false"
     inkscape:pagecheckerboard="0"
     inkscape:lockguides="false">
    <inkscape:grid
       type="xygrid"
       id="grid851"
       originx="0"
       originy="0" />
  </sodipodi:namedview>
  <g
     id="applications-other">
    <path
       style="clip-rule:evenodd;fill:#ffffc1;fill-opacity:0;fill-rule:evenodd;stroke-width:1.00213;stroke-linejoin:round;stroke-miterlimit:1.41421"
       d="M 0,0 V 32 H 32 V 0 Z"
       id="rect817"
       inkscape:connector-curvature="0" />
    <path
       d="m 23.232243,4.217755 c 2.517755,0 4.549999,2.0322447 4.549999,4.5499996 V 23.229591 c 0,2.517755 -2.032244,4.55 -4.549999,4.55 H 8.7677542 c -2.5177549,0 -4.5499996,-2.032245 -4.5499996,-4.55 V 8.7677546 c 0,-2.5177549 2.0322447,-4.5499996 4.5499996,-4.5499996 H 23.232243 M 23.232243,3 H 8.7677542 C 5.5999993,3 2.9999996,5.5999998 2.9999996,8.7677546 V 23.229591 c 0,3.170408 2.5999997,5.770408 5.7677546,5.770408 H 23.22959 c 3.170408,0 5.770407,-2.6 5.770407,-5.767755 V 8.7677546 C 28.999997,5.5999998 26.399998,3 23.232243,3 Z"
       id="path4"
       style="clip-rule:evenodd;fill:url(#linearGradient848);fill-opacity:1;fill-rule:evenodd;stroke-width:0.0265306;stroke-linejoin:round;stroke-miterlimit:1.41421" />
    <path
       d="M 12.640293,19.617496 H 11.715047 L 11.05282,17.668167 H 8.349894 L 7.725241,19.617496 H 6.8 L 9.272787,12.5 h 0.897061 z M 10.79216,16.864745 9.810552,13.905988 c -0.03049,-0.09528 -0.06343,-0.260081 -0.100973,-0.496987 h -0.02116 c -0.03051,0.213729 -0.06576,0.38111 -0.105677,0.496987 l -0.972206,2.958757 z"
       id="path6-7"
       style="clip-rule:evenodd;fill:#70e0f5;fill-opacity:1;fill-rule:evenodd;stroke-width:0.0245905;stroke-linejoin:round;stroke-miterlimit:1.41421" />
    <path
       d="m 15.638347,16.957447 v 2.66005 H 14.8 V 12.5 h 1.84344 c 0.702144,0 1.244615,0.185406 1.632084,0.556215 0.387474,0.370812 0.58004,0.901276 0.58004,1.588818 0,0.697846 -0.225442,1.264361 -0.678666,1.696972 -0.453232,0.432614 -1.019173,0.638619 -1.697846,0.612867 h -0.840705 z m 0,-3.648873 v 2.840302 h 0.774954 c 0.511936,0 0.89941,-0.126179 1.164769,-0.378537 0.265362,-0.252355 0.39922,-0.615439 0.39922,-1.086679 0,-0.916726 -0.495501,-1.375086 -1.484144,-1.375086 z"
       id="path8"
       style="clip-rule:evenodd;fill:#70e0f5;fill-opacity:1;fill-rule:evenodd;stroke-width:0.0245905;stroke-linejoin:round;stroke-miterlimit:1.41421" />
    <path
       d="m 21.838349,16.957448 v 2.660049 H 21 V 12.5 h 1.843435 c 0.702151,0 1.244615,0.185406 1.632089,0.556215 0.387474,0.370812 0.580037,0.901277 0.580037,1.588818 0,0.697848 -0.22544,1.264361 -0.678667,1.696974 -0.453227,0.432613 -1.019174,0.638617 -1.697842,0.612866 h -0.840703 z m 0,-3.648874 v 2.840302 h 0.77495 c 0.511936,0 0.89941,-0.126179 1.164771,-0.378536 0.265362,-0.252355 0.399217,-0.615439 0.399217,-1.08668 0,-0.916725 -0.495498,-1.375086 -1.484144,-1.375086 z"
       id="path8-5"
       style="clip-rule:evenodd;fill:#70e0f5;fill-opacity:1;fill-rule:evenodd;stroke-width:0.0245905;stroke-linejoin:round;stroke-miterlimit:1.41421" />
  </g>
</svg>
