<?xml version="1.0" encoding="UTF-8" standalone="no"?>
<svg
   width="32"
   height="32"
   version="1.1"
   id="svg11"
   sodipodi:docname="bookmarks.svg"
   inkscape:version="1.1 (c68e22c387, 2021-05-23)"
   xmlns:inkscape="http://www.inkscape.org/namespaces/inkscape"
   xmlns:sodipodi="http://sodipodi.sourceforge.net/DTD/sodipodi-0.dtd"
   xmlns:xlink="http://www.w3.org/1999/xlink"
   xmlns="http://www.w3.org/2000/svg"
   xmlns:svg="http://www.w3.org/2000/svg"
   xmlns:rdf="http://www.w3.org/1999/02/22-rdf-syntax-ns#"
   xmlns:cc="http://creativecommons.org/ns#"
   xmlns:dc="http://purl.org/dc/elements/1.1/">
  <g
     id="22-22-bookmarks"
     transform="translate(32,10)">
    <rect
       y="0"
       x="0"
       height="22"
       width="22"
       id="rect820-6"
       style="clip-rule:evenodd;fill:#2020ff;fill-opacity:0;fill-rule:evenodd;stroke-width:0.6875;stroke-linejoin:round;stroke-miterlimit:1.41421" />
    <path
       d="m 16.563268,1.9367347 c 1.93673,0 3.5,1.5632658 3.5,3.5000001 V 16.561227 c 0,1.936725 -1.56327,3.500005 -3.5,3.500005 H 5.43673 c -1.93673,0 -3.5,-1.56328 -3.5,-3.500005 V 5.4367348 c 0,-1.9367343 1.56327,-3.5000001 3.5,-3.5000001 H 16.563268 M 16.563268,1 H 5.43673 C 3,1 1,3.0000002 1,5.4367348 V 16.561227 C 1,19 3,21 5.43673,21 h 11.1245 c 2.438768,0 4.438768,-2 4.438768,-4.436735 V 5.4367348 C 20.999998,3.0000002 18.999998,1 16.563268,1 Z"
       id="path4-3"
       style="clip-rule:evenodd;fill:url(#linearGradient871);fill-rule:evenodd;stroke-width:0.0204091;stroke-linejoin:round;stroke-miterlimit:1.41421;fill-opacity:1.0" />
    <path
       d="m 14.310348,12.64217 c -0.03973,-0.12453 0.0052,-0.260202 0.109659,-0.33749 l 2.357124,-1.729326 C 17.152416,10.300031 17.302011,9.83613 17.158147,9.3935144 17.014347,8.9508355 16.620679,8.663423 16.155257,8.661283 L 13.23181,8.6477753 C 13.101052,8.6471363 12.985652,8.5633641 12.944701,8.4392162 L 12.028436,5.6629433 C 11.882548,5.220957 11.487619,4.9354338 11.022198,4.9353702 v 0 c -0.465414,0 -0.860409,0.2855868 -1.006298,0.7275093 L 9.6029,6.913754 c -0.06538,0.1981583 0.04219,0.4119392 0.240362,0.4773193 0.198228,0.065536 0.411874,-0.042146 0.47739,-0.2403602 l 0.413001,-1.250875 c 0.06382,-0.1935617 0.236962,-0.2086137 0.288545,-0.2086137 0.05145,0 0.224619,0.015064 0.288497,0.2086137 l 0.916267,2.7763132 c 0.142986,0.4330392 0.545342,0.7253635 1.001328,0.7275035 l 2.923435,0.013507 c 0.203826,0.00101 0.271666,0.1609319 0.287548,0.2099372 0.01591,0.049019 0.05503,0.218253 -0.109221,0.338811 l -2.357192,1.729325 c -0.367662,0.269778 -0.52136,0.742815 -0.382464,1.177179 l 0.890842,2.785442 c 0.06215,0.194194 -0.06905,0.308134 -0.110795,0.338373 -0.04161,0.03034 -0.190543,0.119925 -0.356005,9.57e-4 l -2.373186,-1.707844 c -0.370252,-0.266376 -0.867732,-0.266376 -1.237959,0 l -2.373637,1.708156 c -0.165469,0.119049 -0.314361,0.02943 -0.356004,-9.57e-4 -0.0416,-0.03034 -0.172904,-0.144176 -0.110863,-0.338303 l 0.89058,-2.785852 c 0.138895,-0.434294 -0.0149,-0.907333 -0.382467,-1.17711 L 5.713852,9.965986 C 5.549502,9.84543 5.5887,9.6761206 5.604636,9.6271779 5.620556,9.5781687 5.688366,9.4181824 5.89216,9.4172388 L 8.815803,9.4037316 C 9.024493,9.4027266 9.192902,9.232784 9.191962,9.0240383 9.190562,8.8159309 9.021958,8.6478768 8.814048,8.6478768 c -5.67e-4,0 -0.0017,0 -0.0025,0 l -2.923639,0.013516 c -0.465418,0.00232 -0.859087,0.2895565 -1.002888,0.7322322 -0.1438,0.4426809 0.0059,0.906581 0.38095,1.181906 l 2.357069,1.729324 c 0.105381,0.07735 0.14947,0.21296 0.109661,0.33749 l -0.890497,2.785884 c -0.141728,0.443307 0.01002,0.906516 0.386555,1.180011 0.188962,0.137249 0.405765,0.205905 0.622696,0.205905 0.215354,0 0.430834,-0.06768 0.619106,-0.203135 l 2.373597,-1.708163 c 0.10613,-0.07641 0.248801,-0.07641 0.354931,0 l 2.373188,1.707845 c 0.3778,0.271857 0.8652,0.27085 1.241801,-0.0032 0.376606,-0.273556 0.528285,-0.736766 0.386499,-1.180137 z"
       id="path2-6"
       style="clip-rule:evenodd;fill:url(#linearGradient879);fill-opacity:1.0;fill-rule:evenodd;stroke-width:0.0629889;stroke-linejoin:round;stroke-miterlimit:1.41421" />
  </g>
  <metadata
     id="metadata17">
    <rdf:RDF>
      <cc:Work
         rdf:about="">
        <dc:format>image/svg+xml</dc:format>
        <dc:type
           rdf:resource="http://purl.org/dc/dcmitype/StillImage" />
      </cc:Work>
    </rdf:RDF>
  </metadata>
  <defs
     id="defs15">
    <linearGradient
       inkscape:collect="always"
       id="linearGradient965">
      <stop
         style="stop-color:#ff66ff;stop-opacity:1"
         offset="0"
         id="stop961" />
      <stop
         style="stop-color:#ff9955;stop-opacity:1"
         offset="1"
         id="stop963" />
    </linearGradient>
    <linearGradient
       id="_lgradient_1"
       x1="0"
       y1="0.5"
       x2="1"
       y2="0.5"
       gradientTransform="matrix(19.206691,0,0,28.000107,6.0550056,2.2700061)"
       gradientUnits="userSpaceOnUse">
      <stop
         offset="0%"
         stop-opacity="1"
         style="stop-color:rgb(242,55,239)"
         id="stop9" />
      <stop
         offset="98.69565217391305%"
         stop-opacity="1"
         style="stop-color:rgb(252,82,82)"
         id="stop11" />
    </linearGradient>
    <linearGradient
       id="_lgradient_1-3"
       x1="0"
       y1="0.5"
       x2="1"
       y2="0.5"
       gradientTransform="matrix(19.206691,0,0,28.000107,6.2711919,2.3832384)"
       gradientUnits="userSpaceOnUse">
      <stop
         offset="0%"
         stop-opacity="1"
         style="stop-color:rgb(242,55,239)"
         id="stop9-6" />
      <stop
         offset="98.69565217391305%"
         stop-opacity="1"
         style="stop-color:rgb(252,82,82)"
         id="stop11-7" />
    </linearGradient>
    <linearGradient
       gradientUnits="userSpaceOnUse"
       gradientTransform="matrix(19.206691,0,0,28.000107,6.2711923,2.3832385)"
       y2="0.5"
       x2="1"
       y1="0.5"
       x1="0"
       id="_lgradient_1-36">
      <stop
         id="stop9-7"
         style="stop-color:#ff005d;stop-opacity:1"
         stop-opacity="1"
         offset="0%" />
      <stop
         id="stop11-5"
         style="stop-color:#ff8b26;stop-opacity:0.98823529"
         stop-opacity="1"
         offset="98.69565217391305%" />
    </linearGradient>
    <linearGradient
       inkscape:collect="always"
       xlink:href="#linearGradient965"
       id="linearGradient855"
       x1="2.9746563"
       y1="28.729996"
       x2="21.974657"
       y2="9.7299948"
       gradientUnits="userSpaceOnUse" />
    <linearGradient
       inkscape:collect="always"
       xlink:href="#linearGradient965"
       id="linearGradient863"
       x1="7.9269714"
       y1="15.451211"
       x2="24.021507"
       y2="15.451211"
       gradientUnits="userSpaceOnUse" />
    <linearGradient
       inkscape:collect="always"
       xlink:href="#linearGradient965"
       id="linearGradient871"
       x1="1.028859"
       y1="21.11598"
       x2="15.028859"
       y2="6.1159806"
       gradientUnits="userSpaceOnUse" />
    <linearGradient
       inkscape:collect="always"
       xlink:href="#linearGradient965"
       id="linearGradient879"
       x1="4.8311329"
       y1="10.874758"
       x2="17.212086"
       y2="10.874758"
       gradientUnits="userSpaceOnUse" />
  </defs>
  <sodipodi:namedview
     pagecolor="#ffffff"
     bordercolor="#000000"
     inkscape:document-rotation="0"
     borderopacity="1"
     objecttolerance="10"
     gridtolerance="10"
     guidetolerance="10"
     inkscape:pageopacity="0"
     inkscape:pageshadow="2"
     inkscape:window-width="1920"
     inkscape:window-height="1007"
     id="namedview13"
     showgrid="false"
     inkscape:zoom="10.408989"
     inkscape:cx="10.711895"
     inkscape:cy="22.864853"
     inkscape:window-x="0"
     inkscape:window-y="0"
     inkscape:window-maximized="1"
     inkscape:current-layer="svg11"
     inkscape:showpageshadow="false"
     inkscape:pagecheckerboard="0">
    <inkscape:grid
       type="xygrid"
       id="grid844"
       originx="0.028859001"
       originy="0.11598059" />
  </sodipodi:namedview>
  <g
     id="g20"
     transform="translate(0.028859,0.11598059)">
    <g
       transform="translate(0.02534369,0.2700052)"
       style="clip-rule:evenodd;fill-rule:evenodd;stroke-linejoin:round;stroke-miterlimit:1.41421"
       id="g850">
      <g
         id="bookmarks">
        <rect
           y="-0.38598579"
           x="-0.054202691"
           height="32"
           width="32"
           id="rect820"
           style="fill:#2020ff;fill-opacity:0" />
        <path
           d="m 23.178041,3.8317692 c 2.517755,0 4.55,2.032245 4.55,4.5499999 V 22.843602 c 0,2.517755 -2.032245,4.55 -4.55,4.55 H 8.7135529 c -2.5177549,0 -4.5499996,-2.032245 -4.5499996,-4.55 V 8.3817691 c 0,-2.5177549 2.0322447,-4.5499999 4.5499996,-4.5499999 H 23.178041 m 0,-1.217755 H 8.7135529 c -3.1677549,0 -5.7677546,2.5999998 -5.7677546,5.7677549 V 22.843602 c 0,3.170408 2.5999997,5.770408 5.7677546,5.770408 H 23.175388 c 3.170408,0 5.770408,-2.6 5.770408,-5.767755 V 8.3817691 c 0,-3.1677551 -2.6,-5.7677549 -5.767755,-5.7677549 z"
           id="path4"
           style="fill:url(#linearGradient855);stroke-width:0.0265306;fill-opacity:1" />
        <path
           d="m 20.249251,17.748833 c -0.05173,-0.161889 0.0059,-0.338263 0.142554,-0.438737 l 3.064269,-2.248122 c 0.48786,-0.35792 0.682335,-0.960992 0.495316,-1.536393 -0.18694,-0.575482 -0.698718,-0.949119 -1.30376,-0.951901 l -3.800482,-0.01756 c -0.169992,-8.31e-4 -0.320003,-0.109736 -0.373224,-0.271127 L 17.282754,8.6758373 C 17.093114,8.101257 16.579697,7.7300764 15.974656,7.7299948 v 0 c -0.605034,0 -1.118529,0.3712622 -1.308175,0.9457607 l -0.536914,1.6261365 c -0.08503,0.257606 0.05479,0.535521 0.312468,0.620515 0.257688,0.0852 0.535444,-0.05479 0.620599,-0.312468 l 0.536912,-1.6261366 c 0.08302,-0.2516298 0.308047,-0.2711992 0.37511,-0.2711992 0.06694,0 0.291999,0.019579 0.375032,0.2711992 l 1.191168,3.6092066 c 0.185875,0.562951 0.708951,0.942972 1.301707,0.945754 l 3.800485,0.01756 c 0.264977,0.0013 0.353161,0.209212 0.373798,0.272919 0.02071,0.06372 0.07163,0.283729 -0.141987,0.440455 l -3.064346,2.248124 c -0.477957,0.35071 -0.677751,0.965658 -0.497199,1.530332 l 1.158084,3.621073 c 0.08075,0.252449 -0.08976,0.400576 -0.144033,0.439881 -0.05418,0.03942 -0.247697,0.155912 -0.462808,0.0011 l -3.085142,-2.220159 c -0.481317,-0.346289 -1.128032,-0.346289 -1.609349,0 l -3.085717,2.220611 c -0.215104,0.154761 -0.408681,0.03827 -0.462807,-0.0011 -0.05418,-0.03942 -0.224771,-0.187432 -0.144115,-0.439798 l 1.15776,-3.621606 c 0.18055,-0.564582 -0.01936,-1.179532 -0.497202,-1.530242 L 9.073801,14.26982 C 8.8601657,14.113098 8.9110968,13.892995 8.9318139,13.82937 8.9525289,13.76566 9.04072,13.557675 9.3056141,13.556449 l 3.8007269,-0.01756 c 0.271285,-0.0014 0.490244,-0.222232 0.489017,-0.493601 -0.0014,-0.27054 -0.221006,-0.48901 -0.491308,-0.48901 -7.36e-4,0 -0.0017,0 -0.0025,0 l -3.8007277,0.01757 c -0.605041,0.003 -1.1168154,0.376424 -1.3037573,0.951902 -0.1869406,0.575485 0.0074,1.178555 0.4952347,1.536478 l 3.0641933,2.248121 c 0.136991,0.100552 0.19431,0.276848 0.142561,0.438736 l -1.157678,3.621647 c -0.184241,0.576302 0.01302,1.178477 0.50252,1.534014 0.245655,0.178428 0.5275,0.267682 0.809508,0.267682 0.27996,0 0.560089,-0.088 0.804835,-0.26408 l 3.085637,-2.220611 c 0.137974,-0.09933 0.323441,-0.09933 0.461416,0 l 3.085144,2.220204 c 0.491139,0.353413 1.124757,0.352103 1.614342,-0.0039 0.489586,-0.355622 0.686763,-0.957796 0.502439,-1.534176 z"
           id="path2"
           style="clip-rule:evenodd;fill:url(#linearGradient863);fill-opacity:1.0;fill-rule:evenodd;stroke-width:0.0818844;stroke-linejoin:round;stroke-miterlimit:1.41421" />
      </g>
    </g>
  </g>
</svg>
