<?xml version="1.0" encoding="UTF-8" standalone="no"?>
<svg
   width="32"
   height="32"
   version="1"
   id="svg1154"
   sodipodi:docname="cadence.svg"
   inkscape:version="1.2.1 (9c6d41e410, 2022-07-14)"
   xmlns:inkscape="http://www.inkscape.org/namespaces/inkscape"
   xmlns:sodipodi="http://sodipodi.sourceforge.net/DTD/sodipodi-0.dtd"
   xmlns="http://www.w3.org/2000/svg"
   xmlns:svg="http://www.w3.org/2000/svg">
  <sodipodi:namedview
     id="namedview1156"
     pagecolor="#ffffff"
     bordercolor="#666666"
     borderopacity="1.0"
     inkscape:showpageshadow="2"
     inkscape:pageopacity="0.0"
     inkscape:pagecheckerboard="0"
     inkscape:deskcolor="#d1d1d1"
     showgrid="false"
     inkscape:zoom="7.375"
     inkscape:cx="15.525424"
     inkscape:cy="16.338983"
     inkscape:window-width="1920"
     inkscape:window-height="1004"
     inkscape:window-x="0"
     inkscape:window-y="0"
     inkscape:window-maximized="1"
     inkscape:current-layer="svg1154" />
  <defs
     id="l4k1">
    <style
       type="text/css"
       id="current-color-scheme" />
  </defs>
  <g
     id="cadence">
    <rect
       style="opacity:0.00100002;fill:#d1d5e9;fill-opacity:1"
       width="32"
       height="32"
       x="0"
       y="0"
       id="rect1149" />
    <path
       style="fill:#eff0f1;fill-opacity:1;stroke-width:0.749994"
       d="m 15.999792,7.0000046 c -1.018071,0.01693 -2.570579,0.253708 -2.972883,0.69215 -0.429032,0.467558 -0.521962,1.124911 -0.402098,1.852319 0.228521,1.3867714 2.143523,3.0869604 3.278303,4.6165284 -0.0084,0.0098 -0.01623,0.02083 -0.02418,0.0308 -0.571585,0.71132 -1.763691,1.363835 -2.320306,1.916044 0.08971,-0.404146 0.154322,-1.293148 0.169192,-1.573272 0.01279,-0.239953 0.0069,-0.426142 -0.06808,-0.577881 -0.03718,-0.0759 -0.103991,-0.148618 -0.195562,-0.177982 -0.09156,-0.02942 -0.186066,-0.0097 -0.268067,0.02852 -0.221378,0.56805 -0.58754,1.332215 -0.885485,2.045684 -0.273987,0.455046 -0.467681,1.269836 -0.59326,1.560084 -0.06466,0.149462 -0.112827,0.2798 -0.142822,0.393321 -0.02826,0.106942 -0.04212,0.200905 -0.03735,0.287842 0.156507,0.211047 0.409572,0.180174 0.61523,0.193366 0.08927,-0.0012 0.182553,-0.01677 0.285646,-0.07907 0.241927,-0.146358 0.5382,-0.37764 0.85473,-0.648207 -0.225757,0.747241 -0.263935,0.985498 -0.624021,1.821561 -0.0048,0.01166 -0.01252,0.02355 -0.01757,0.03514 -1.899998,-0.258641 -3.8814111,-0.09469 -5.2228727,0.366944 -0.703643,0.242165 -1.2455105,0.781837 -1.456779,1.377705 -0.2112669,0.595882 -0.082594,1.352957 0.4482401,2.291785 0.5308342,0.938832 1.1163925,1.369173 1.7402242,1.502959 0.6238331,0.133767 1.246857,-0.04114 1.823721,-0.507588 1.0997604,-0.889163 2.0913914,-2.95204 2.8630214,-4.689024 0.01269,0.0024 0.02688,0.0031 0.03954,0.0046 0.908703,0.134057 1.780385,1.357071 2.542226,1.557884 -0.398923,0.125257 -0.865618,0.254941 -1.118402,0.382328 -0.216432,0.109071 -0.376783,0.207539 -0.472403,0.347175 -0.04778,0.06979 -0.07944,0.163939 -0.0593,0.257082 0.02012,0.09311 0.08575,0.164288 0.160404,0.215334 0.149226,0.102095 0.36102,0.158296 0.67676,0.204349 0.315727,0.04601 0.844519,0.07414 1.379874,0.0813 0.0021,2.1e-5 0.0031,-2e-5 0.0046,0 0.0021,-2e-5 0.0031,2.1e-5 0.0045,0 0.535358,-0.0078 1.064138,-0.03519 1.379873,-0.0813 0.31574,-0.04602 0.527531,-0.102252 0.676755,-0.204349 0.07464,-0.0511 0.14032,-0.122195 0.1604,-0.215334 0.02009,-0.09311 -0.01156,-0.187265 -0.0593,-0.257082 -0.09563,-0.139636 -0.255977,-0.238104 -0.472411,-0.347175 -0.252785,-0.127386 -0.719479,-0.257071 -1.118403,-0.382328 0.761844,-0.200813 1.633519,-1.423827 2.542219,-1.557884 0.01267,-0.0024 0.02685,-0.003 0.03954,-0.0046 0.771625,1.736984 1.763259,3.799861 2.863019,4.689024 0.576865,0.466404 1.199887,0.641355 1.823725,0.507588 0.623831,-0.133786 1.209387,-0.564127 1.740221,-1.502959 0.530837,-0.938828 0.659507,-1.695903 0.44824,-2.291785 -0.21127,-0.595868 -0.753135,-1.13554 -1.456778,-1.377705 -1.341464,-0.461675 -3.322877,-0.625585 -5.222873,-0.366944 -0.0052,-0.01167 -0.01263,-0.02354 -0.01755,-0.03514 -0.360085,-0.836063 -0.398265,-1.07432 -0.624019,-1.821561 0.316534,0.270567 0.612807,0.501849 0.854733,0.648207 0.103092,0.06231 0.196376,0.0782 0.285643,0.07907 0.205656,-0.01323 0.458719,0.01765 0.615228,-0.193366 0.0048,-0.08698 -0.0089,-0.1809 -0.03732,-0.287842 -0.02994,-0.113521 -0.07817,-0.243859 -0.142819,-0.393321 -0.125585,-0.290248 -0.319274,-1.105038 -0.593261,-1.560084 -0.297945,-0.713469 -0.66411,-1.477634 -0.885494,-2.045684 -0.08195,-0.03837 -0.176488,-0.05796 -0.268065,-0.02852 -0.09156,0.0294 -0.158339,0.102099 -0.195553,0.177982 -0.07448,0.15174 -0.08082,0.337928 -0.06809,0.577881 0.01491,0.280124 0.07948,1.169126 0.169188,1.573272 -0.556612,-0.552203 -1.748716,-1.20472 -2.3203,-1.916038 -0.0085,-0.0099 -0.01634,-0.02085 -0.0242,-0.03081 1.134772,-1.529566 3.049777,-3.229761 3.278292,-4.6165264 0.119875,-0.727408 0.02692,-1.384762 -0.402089,-1.852319 -0.402306,-0.438443 -1.954808,-0.675281 -2.972882,-0.69215 z"
       id="path1151" />
    <path
       d="m 22.67596,5 c 2.324039,0 4.324041,2 4.324041,4.32408 V 22.673476 C 27.000001,24.997525 24.999998,27 22.67596,27 H 9.324041 c -2.32404,0 -4.32404,-2.002474 -4.32404,-4.326524 V 9.32408 C 5.000001,7 7.000001,5 9.324041,5 H 22.67596 m 0,-1 H 9.324041 c -2.92404,0 -5.32404,2.4 -5.32404,5.324081 v 13.349397 c 0,2.926521 2.4,5.326522 5.32404,5.326522 H 22.67349 c 2.926509,0 5.326509,-2.400001 5.326509,-5.324053 V 9.324081 C 27.999999,6.4 25.6,4 22.67596,4 Z"
       id="path4-3-36"
       style="clip-rule:evenodd;fill:#eff0f1;fill-opacity:1;fill-rule:evenodd;stroke-width:0.0244919;stroke-linejoin:round;stroke-miterlimit:1.41421"
       sodipodi:nodetypes="cssssssscsssssssss" />
  </g>
  <g
     id="22-22-cadence"
     transform="translate(-22,10)">
    <rect
       style="opacity:0.00100002;fill:#d1d5e9;fill-opacity:1"
       width="22"
       height="22"
       x="0"
       y="0"
       id="rect1144" />
    <path
       style="fill:#eff0f1;fill-opacity:1;stroke-width:0.750015"
       d="m 10.999948,4.9999972 c -0.678731,0.0113 -1.7137582,0.169142 -1.9819687,0.461434 -0.2860271,0.311705 -0.3479834,0.749943 -0.2680712,1.234882 0.1523481,0.924514 1.4290449,2.057982 2.1855839,3.077694 -0.0055,0.0061 -0.01082,0.01388 -0.01614,0.02054 -0.381061,0.4742138 -1.1758156,0.9092268 -1.5468998,1.2773648 0.059818,-0.269435 0.1028833,-0.862097 0.1127954,-1.048847 0.0085,-0.1599718 0.0042,-0.2840988 -0.045416,-0.3852578 -0.024808,-0.05062 -0.069322,-0.09907 -0.1303729,-0.118656 -0.061048,-0.01961 -0.1240511,-0.0061 -0.1787151,0.01899 -0.1475918,0.378701 -0.3917068,0.8881448 -0.5903414,1.3637918 -0.1826614,0.303367 -0.3117928,0.846559 -0.3955151,1.040059 -0.043115,0.09964 -0.075215,0.186533 -0.095218,0.262216 -0.01884,0.07133 -0.028081,0.133935 -0.024901,0.191893 0.1043421,0.1407 0.2730559,0.120117 0.4101639,0.128908 0.059511,-6.23e-4 0.1217038,-0.01118 0.1904322,-0.05271 0.1612896,-0.09758 0.3588087,-0.251762 0.5698345,-0.432141 -0.1505066,0.498156 -0.1759627,0.657001 -0.4160229,1.214379 -0.00329,0.0076 -0.00834,0.0157 -0.011721,0.02341 -1.2666929,-0.172426 -2.587665,-0.06311 -3.481993,0.244632 -0.4691058,0.161442 -0.8303593,0.521226 -0.9712079,0.91847 -0.140848,0.397259 -0.055061,0.901975 0.2988338,1.527862 0.3538967,0.62589 0.744278,0.912786 1.1601757,1.001975 0.4158978,0.08921 0.8312563,-0.02741 1.2158415,-0.338391 0.7331898,-0.592778 1.3942932,-1.968037 1.9087231,-3.126028 0.00846,0.0017 0.017938,0.0022 0.026369,0.0032 0.6058159,0.08939 1.186946,0.904716 1.694854,1.038592 -0.265956,0.08347 -0.577092,0.169962 -0.7456191,0.254887 -0.1442923,0.07269 -0.2511966,0.13836 -0.3149465,0.231447 -0.031871,0.04653 -0.05294,0.109298 -0.039543,0.171393 0.013383,0.06205 0.057192,0.109523 0.1069356,0.143556 0.099485,0.06805 0.2406828,0.10553 0.451179,0.136231 0.210496,0.03067 0.563029,0.04944 0.919937,0.05424 0.0012,1.6e-5 0.0021,-1.6e-5 0.003,0 0.0012,-1.6e-5 0.0021,1.6e-5 0.003,0 0.35691,-0.0054 0.70944,-0.02347 0.919938,-0.05424 0.210493,-0.03066 0.351693,-0.06814 0.451179,-0.136231 0.04979,-0.03407 0.09355,-0.08143 0.106937,-0.143556 0.01343,-0.06208 -0.0074,-0.124846 -0.03953,-0.171393 -0.06379,-0.09306 -0.170655,-0.158732 -0.31495,-0.231447 -0.168527,-0.08492 -0.479662,-0.171383 -0.745615,-0.254887 0.507906,-0.133876 1.089037,-0.949219 1.694849,-1.038592 0.0083,-0.0016 0.0179,-0.0021 0.02636,-0.0032 0.514427,1.157991 1.175537,2.53325 1.908723,3.126028 0.384582,0.310938 0.799944,0.427572 1.215841,0.338391 0.415898,-0.08921 0.806279,-0.376085 1.160178,-1.001975 0.353895,-0.625887 0.439679,-1.130603 0.298832,-1.527862 -0.14085,-0.397244 -0.502105,-0.757028 -0.971209,-0.91847 -0.894327,-0.307781 -2.2153,-0.417058 -3.481991,-0.244632 -0.0035,-0.0075 -0.0083,-0.01569 -0.01169,-0.02341 -0.24006,-0.557378 -0.265518,-0.716223 -0.416021,-1.214379 0.211027,0.180379 0.408545,0.334566 0.569833,0.432141 0.06876,0.04153 0.130919,0.05213 0.190434,0.05271 0.137109,-0.0086 0.305824,0.01175 0.410162,-0.128908 0.0032,-0.05798 -0.006,-0.120602 -0.02488,-0.191893 -0.01996,-0.07571 -0.05215,-0.162574 -0.09524,-0.262216 -0.08371,-0.1935 -0.212853,-0.736692 -0.395512,-1.040059 -0.198635,-0.475647 -0.442752,-0.9850908 -0.590347,-1.3637918 -0.05463,-0.02558 -0.11766,-0.03866 -0.178709,-0.01899 -0.061,0.0196 -0.105567,0.06806 -0.130373,0.118656 -0.04965,0.10116 -0.05387,0.225286 -0.04538,0.3852578 0.0099,0.18675 0.05303,0.779412 0.112795,1.048847 -0.371081,-0.368137 -1.165837,-0.803147 -1.5469,-1.2773618 -0.0055,-0.006 -0.01087,-0.01389 -0.01612,-0.02054 0.756533,-1.019712 2.033229,-2.153182 2.185573,-3.077694 0.07989,-0.484941 0.01794,-0.923178 -0.268069,-1.234882 -0.268214,-0.292296 -1.303233,-0.450189 -1.981965,-0.461434 z"
       id="path1146" />
    <path
       d="m 15.451001,3.999999 c 1.54936,0 2.549,1.199613 2.549,2.749 v 8.6 c 0,1.549366 -1.199641,2.651 -2.749,2.651 H 6.6500005 c -1.54936,0 -2.649622,-1.101633 -2.64968,-2.651 L 4.0000005,6.749 c -5.8e-5,-1.549386 1,-2.749001 2.54936,-2.749001 H 15.45064 M 15.45064,3 H 6.5493605 c -1.94936,0 -3.54936,1.6 -3.54936,3.549387 v 8.899598 c 0,1.951014 1.6,3.551015 3.54936,3.551015 H 15.448994 C 17.399999,19 19,17.399999 19,15.450631 V 6.549387 C 19,4.6 17.399999,3 15.45064,3 Z"
       id="path4-3-3-7"
       style="clip-rule:evenodd;fill:#eff0f1;fill-opacity:1;fill-rule:evenodd;stroke-width:0.0163279;stroke-linejoin:round;stroke-miterlimit:1.41421"
       sodipodi:nodetypes="cssssssscsssssssss" />
  </g>
</svg>
