<?xml version="1.0" encoding="UTF-8" standalone="no"?>
<svg
   xmlns:dc="http://purl.org/dc/elements/1.1/"
   xmlns:cc="http://creativecommons.org/ns#"
   xmlns:rdf="http://www.w3.org/1999/02/22-rdf-syntax-ns#"
   xmlns:svg="http://www.w3.org/2000/svg"
   xmlns="http://www.w3.org/2000/svg"
   xmlns:xlink="http://www.w3.org/1999/xlink"
   xmlns:sodipodi="http://sodipodi.sourceforge.net/DTD/sodipodi-0.dtd"
   xmlns:inkscape="http://www.inkscape.org/namespaces/inkscape"
   width="32"
   height="32"
   version="1.1"
   id="svg12"
   sodipodi:docname="compass.svg"
   inkscape:version="1.0.2 (e86c870879, 2021-01-15)">
  <metadata
     id="metadata18">
    <rdf:RDF>
      <cc:Work
         rdf:about="">
        <dc:format>image/svg+xml</dc:format>
        <dc:type
           rdf:resource="http://purl.org/dc/dcmitype/StillImage" />
        <dc:title />
      </cc:Work>
    </rdf:RDF>
  </metadata>
  <defs
     id="defs16">
    <linearGradient
       inkscape:collect="always"
       id="linearGradient852">
      <stop
         style="stop-color:#0066ff;stop-opacity:1"
         offset="0"
         id="stop848" />
      <stop
         style="stop-color:#b3d1ff;stop-opacity:1"
         offset="1"
         id="stop850" />
    </linearGradient>
    <linearGradient
       inkscape:collect="always"
       xlink:href="#linearGradient852"
       id="linearGradient900-3"
       x1="3.0000169"
       y1="28.899982"
       x2="22.000017"
       y2="8.8999825"
       gradientUnits="userSpaceOnUse"
       gradientTransform="matrix(0.9989806,0,0,0.99898062,-31.983687,-9.983689)" />
    <linearGradient
       inkscape:collect="always"
       xlink:href="#linearGradient907"
       id="linearGradient909-5"
       x1="17.000017"
       y1="21.899982"
       x2="17.000017"
       y2="22.899982"
       gradientUnits="userSpaceOnUse"
       gradientTransform="matrix(0.9989806,0,0,0.99898062,-31.983687,-9.983689)" />
    <linearGradient
       inkscape:collect="always"
       id="linearGradient907">
      <stop
         style="stop-color:#eff0f1;stop-opacity:1;"
         offset="0"
         id="stop902" />
      <stop
         style="stop-color:#eff0f1;stop-opacity:0;"
         offset="1"
         id="stop904" />
    </linearGradient>
    <linearGradient
       inkscape:collect="always"
       xlink:href="#linearGradient852"
       id="linearGradient1105"
       gradientUnits="userSpaceOnUse"
       gradientTransform="matrix(0.76844652,0,0,0.76844652,-1.2951405,-1.2951434)"
       x1="3.0000169"
       y1="28.899982"
       x2="22.000017"
       y2="8.8999825" />
    <linearGradient
       inkscape:collect="always"
       xlink:href="#linearGradient907"
       id="linearGradient1107"
       gradientUnits="userSpaceOnUse"
       gradientTransform="matrix(0.76844652,0,0,0.76844652,-1.2951405,-1.2951434)"
       x1="17.000017"
       y1="21.899982"
       x2="17.000017"
       y2="22.899982" />
    <linearGradient
       inkscape:collect="always"
       xlink:href="#linearGradient852"
       id="linearGradient860"
       x1="-27"
       y1="6"
       x2="-5"
       y2="6"
       gradientUnits="userSpaceOnUse" />
    <linearGradient
       inkscape:collect="always"
       xlink:href="#linearGradient852"
       id="linearGradient876"
       x1="2.5384691"
       y1="10.999999"
       x2="19.461535"
       y2="10.999999"
       gradientUnits="userSpaceOnUse" />
  </defs>
  <sodipodi:namedview
     pagecolor="#ffffff"
     bordercolor="#000000"
     borderopacity="1"
     objecttolerance="10"
     gridtolerance="10"
     guidetolerance="10"
     inkscape:pageopacity="0"
     inkscape:pageshadow="2"
     inkscape:window-width="1920"
     inkscape:window-height="1007"
     id="namedview14"
     showgrid="false"
     inkscape:zoom="5.6568543"
     inkscape:cx="31.934508"
     inkscape:cy="20.686612"
     inkscape:window-x="0"
     inkscape:window-y="0"
     inkscape:window-maximized="1"
     inkscape:current-layer="svg12"
     inkscape:document-rotation="0"
     inkscape:lockguides="false"
     inkscape:showpageshadow="false">
    <inkscape:grid
       type="xygrid"
       id="grid880"
       originx="32"
       originy="9.9999997" />
  </sodipodi:namedview>
  <g
     id="compass"
     transform="translate(32,9.9999997)">
    <path
       style="clip-rule:evenodd;fill:#ffffc1;fill-opacity:0;fill-rule:evenodd;stroke-width:1.00213;stroke-linejoin:round;stroke-miterlimit:1.41421"
       d="M -32,-9.9999997 V 22 H 0 V -9.9999997 Z"
       id="rect817"
       inkscape:connector-curvature="0" />
    <path
       d="m -8.775131,-5.770233 c 2.515193,0 4.545362,2.030174 4.545362,4.5453623 V 13.222232 c 0,2.515187 -2.030169,4.545362 -4.545362,4.545362 h -14.44974 c -2.515189,0 -4.545362,-2.030175 -4.545362,-4.545362 V -1.2248707 c 0,-2.5151883 2.030173,-4.5453623 4.545362,-4.5453623 h 14.44974 m 0,-1.216515 h -14.44974 c -3.164526,0 -5.761877,2.597352 -5.761877,5.7618773 V 13.222232 c 0,3.167168 2.597351,5.764518 5.761877,5.764518 h 14.447096 c 3.167174,0 5.764524,-2.59735 5.764524,-5.761881 V -1.2248707 c 0,-3.1645253 -2.59735,-5.7618773 -5.76188,-5.7618773 z"
       id="path4-6"
       style="clip-rule:evenodd;fill:url(#linearGradient900-3);fill-opacity:1;fill-rule:evenodd;stroke:url(#linearGradient909-5);stroke-width:0.0265034;stroke-linejoin:round;stroke-miterlimit:1.41421" />
    <path
       d="M -5,6.0000003 -12.333327,2.3333323 -16,-5 -19.666667,2.3333323 -27,6.0000003 -19.666667,9.6666733 -16,17 -12.333327,9.6666733 Z m -7.188873,-2.7742 5.549146,2.7742 h -8.323346 z M -16,-3.3602673 v 8.3233406 l -2.7742,-2.774206 z m -3.811133,12.1344676 -5.549134,-2.7742 h 8.32334 z M -16,15.360273 V 7.0369273 l 2.7742,2.7742 z"
       id="path10-5-7"
       style="fill:url(#linearGradient860);fill-opacity:1.0;stroke-width:0.733327" />
  </g>
  <g
     id="22-22-compass"
     transform="translate(32,9.9999997)">
    <path
       style="clip-rule:evenodd;fill:#ffffc1;fill-opacity:0;fill-rule:evenodd;stroke-width:0.688964;stroke-linejoin:round;stroke-miterlimit:1.41421"
       d="M 0,0 V 22 H 22 V 0 Z"
       id="rect817-5"
       inkscape:connector-curvature="0" />
    <path
       d="m 16.557588,1.9459756 c 1.934762,0 3.496439,1.561673 3.496439,3.4964333 V 16.55556 c 0,1.934755 -1.561677,3.496432 -3.496439,3.496432 H 5.4424111 c -1.934756,0 -3.496441,-1.561677 -3.496441,-3.496432 V 5.4424089 c 0,-1.9347603 1.561685,-3.4964333 3.496441,-3.4964333 H 16.557588 m 0,-0.93578 H 5.4424111 c -2.434259,0 -4.432217,1.997963 -4.432217,4.4322133 V 16.55556 c 0,2.43629 1.997958,4.434247 4.432217,4.434247 H 16.555553 c 2.436296,0 4.434253,-1.997957 4.434253,-4.432219 V 5.4424089 c 0,-2.4342503 -1.997957,-4.4322133 -4.432218,-4.4322133 z"
       id="path4-6-1"
       style="clip-rule:evenodd;fill:url(#linearGradient1105);fill-opacity:1.0;fill-rule:evenodd;stroke:url(#linearGradient1107);stroke-width:0.0203881;stroke-linejoin:round;stroke-miterlimit:1.41421" />
    <path
       d="M 19.461534,11 13.82051,8.1794874 11,2.5384636 8.1794971,8.1794874 2.5384691,11 8.1794971,13.820509 11,19.461534 13.82051,13.820509 Z M 13.931638,8.8660007 18.200211,11 H 11.797639 Z M 11,3.7997956 V 10.202365 L 8.8660001,8.0683597 Z M 8.0683561,13.134 3.7997951,11 H 10.202361 Z M 11,18.200211 v -6.402573 l 2.134,2.134 z"
       id="path10-5-7-2"
       style="fill:url(#linearGradient876);fill-opacity:1.0;stroke-width:0.564101" />
  </g>
</svg>
