<?xml version="1.0" encoding="UTF-8" standalone="no"?>
<svg
   width="32"
   height="32"
   version="1"
   id="svg12"
   sodipodi:docname="corectrl.svg"
   inkscape:version="1.2.2 (b0a8486541, 2022-12-01)"
   xmlns:inkscape="http://www.inkscape.org/namespaces/inkscape"
   xmlns:sodipodi="http://sodipodi.sourceforge.net/DTD/sodipodi-0.dtd"
   xmlns="http://www.w3.org/2000/svg"
   xmlns:svg="http://www.w3.org/2000/svg"
   xmlns:rdf="http://www.w3.org/1999/02/22-rdf-syntax-ns#"
   xmlns:cc="http://creativecommons.org/ns#"
   xmlns:dc="http://purl.org/dc/elements/1.1/">
  <metadata
     id="metadata18">
    <rdf:RDF>
      <cc:Work
         rdf:about="">
        <dc:format>image/svg+xml</dc:format>
        <dc:type
           rdf:resource="http://purl.org/dc/dcmitype/StillImage" />
      </cc:Work>
    </rdf:RDF>
  </metadata>
  <defs
     id="defs16">
    <linearGradient
       id="linearGradient2403"
       x1="37.452"
       x2="37.452"
       y1="9.4727001"
       y2="14.003"
       gradientTransform="matrix(0.74046,0,0,1.4809,4.9143898,5.9478024)"
       gradientUnits="userSpaceOnUse">
      <stop
         stop-color="#2e3440"
         offset="0"
         id="stop29845" />
      <stop
         stop-color="#4c566a"
         offset="1"
         id="stop29847" />
    </linearGradient>
    <linearGradient
       id="linearGradient4426"
       x1="39.580002"
       x2="39.580002"
       y1="17.903"
       y2="20.146999"
       gradientUnits="userSpaceOnUse">
      <stop
         stop-color="#2e3440"
         stop-opacity=".25"
         offset="0"
         id="stop29850" />
      <stop
         stop-color="#2e3440"
         stop-opacity="0"
         offset="1"
         id="stop29852" />
    </linearGradient>
    <linearGradient
       id="linearGradient35715"
       y1="1003.36"
       y2="1027.36"
       x1="-93"
       x2="-70"
       gradientUnits="userSpaceOnUse"
       gradientTransform="translate(188.253,-1036.7346)">
      <stop
         stop-color="#292c2f"
         id="stop35711" />
      <stop
         offset="1"
         stop-opacity="0"
         id="stop35713"
         style="stop-color:#000000;stop-opacity:0.05963883;" />
    </linearGradient>
  </defs>
  <sodipodi:namedview
     pagecolor="#d5d5d5"
     bordercolor="#000000"
     borderopacity="1"
     objecttolerance="10"
     gridtolerance="10"
     guidetolerance="10"
     inkscape:pageopacity="1"
     inkscape:pageshadow="2"
     inkscape:window-width="1920"
     inkscape:window-height="998"
     id="namedview14"
     showgrid="false"
     inkscape:zoom="9.8125003"
     inkscape:cx="23.694267"
     inkscape:cy="21.146496"
     inkscape:window-x="0"
     inkscape:window-y="0"
     inkscape:window-maximized="1"
     inkscape:current-layer="svg12"
     inkscape:document-rotation="0"
     inkscape:showpageshadow="true"
     inkscape:lockguides="false"
     inkscape:pagecheckerboard="0"
     inkscape:deskcolor="#7f7f7f">
    <inkscape:grid
       type="xygrid"
       id="grid2747"
       originx="31.923091"
       originy="10.041957" />
  </sodipodi:namedview>
  <g
     id="corectrl">
    <rect
       style="opacity:0.00100002;fill:#d1d5e9;fill-opacity:1"
       width="32"
       height="32"
       x="3.3105851e-09"
       y="1.5921593e-09"
       id="rect7" />
    <rect
       width="0.92307693"
       height="24"
       x="19.692308"
       y="-28"
       transform="rotate(90)"
       id="rect227"
       style="fill:#8e8e8e;stroke-width:0.923077" />
    <rect
       width="0.92307693"
       height="24"
       x="22.461538"
       y="-28"
       transform="rotate(90)"
       id="rect229"
       style="fill:#8e8e8e;stroke-width:0.923077" />
    <rect
       width="0.92307693"
       height="24"
       x="25.23077"
       y="-28"
       transform="rotate(90)"
       id="rect231"
       style="fill:#8e8e8e;stroke-width:0.923077" />
    <rect
       width="0.92307693"
       height="24"
       x="11.384615"
       y="-28"
       transform="rotate(90)"
       id="rect233"
       style="fill:#8e8e8e;stroke-width:0.923077" />
    <rect
       width="0.92307693"
       height="24"
       x="14.153846"
       y="-28"
       transform="rotate(90)"
       id="rect235"
       style="fill:#8e8e8e;stroke-width:0.923077" />
    <rect
       width="0.92307693"
       height="24"
       x="16.923077"
       y="-28"
       transform="rotate(90)"
       id="rect237"
       style="fill:#8e8e8e;stroke-width:0.923077" />
    <rect
       width="0.92307693"
       height="24"
       x="8.6153851"
       y="-28"
       transform="rotate(90)"
       id="rect239"
       style="fill:#8e8e8e;stroke-width:0.923077" />
    <rect
       width="0.92307693"
       height="24"
       x="5.8461537"
       y="-28"
       transform="rotate(90)"
       id="rect241"
       style="fill:#8e8e8e;stroke-width:0.923077" />
    <rect
       width="0.92307693"
       height="24"
       x="-12.307693"
       y="-28"
       transform="scale(-1)"
       id="rect245"
       style="fill:#8e8e8e;stroke-width:0.923077" />
    <rect
       width="0.92307693"
       height="24"
       x="-9.5384617"
       y="-28"
       transform="scale(-1)"
       id="rect247"
       style="fill:#8e8e8e;stroke-width:0.923077" />
    <rect
       width="0.92307693"
       height="24"
       x="-6.7692308"
       y="-28"
       transform="scale(-1)"
       id="rect249"
       style="fill:#8e8e8e;stroke-width:0.923077" />
    <rect
       width="0.92307693"
       height="24"
       x="-20.615385"
       y="-28"
       transform="scale(-1)"
       id="rect251"
       style="fill:#8e8e8e;stroke-width:0.923077" />
    <rect
       width="0.92307693"
       height="24"
       x="-17.846153"
       y="-28"
       transform="scale(-1)"
       id="rect253"
       style="fill:#8e8e8e;stroke-width:0.923077" />
    <rect
       width="0.92307693"
       height="24"
       x="-15.076923"
       y="-28"
       transform="scale(-1)"
       id="rect255"
       style="fill:#8e8e8e;stroke-width:0.923077" />
    <rect
       width="0.92307693"
       height="24"
       x="-23.384615"
       y="-28"
       transform="scale(-1)"
       id="rect257"
       style="fill:#8e8e8e;stroke-width:0.923077" />
    <rect
       width="0.92307693"
       height="24"
       x="-26.153847"
       y="-28"
       transform="scale(-1)"
       id="rect259"
       style="fill:#8e8e8e;stroke-width:0.923077" />
    <rect
       style="fill:#4e5a7e;fill-opacity:0.501961;stroke-width:0.452144"
       width="21.554001"
       height="21.777"
       x="-27.077002"
       y="-26.877001"
       rx="4.6777458"
       ry="5.6096325"
       transform="matrix(0,-1,-1,0,0,0)"
       id="rect265" />
    <path
       style="opacity:0.2;stroke-width:0.461538"
       d="m 16.923077,17.384615 v 7.384616 h 6 v -2.307692 h -1.384615 v 0.923077 H 19.230769 V 22 l -0.923077,-0.923077 v -2.307692 h 3.23077 v 0.923077 h 1.384615 v -2.307693 z m 0,-9.2307687 v 7.3846157 h 6 v -2.307693 h -1.384615 v 0.923077 H 19.230769 V 12.769231 L 18.307692,11.846154 V 9.5384623 h 3.23077 v 0.9230757 h 1.384615 V 8.1538463 Z"
       id="path269" />
    <path
       style="fill:#ffa726;stroke-width:0.461538"
       d="m 16.923077,7.6923083 v 7.3846147 h 6 v -2.307692 h -1.384615 v 0.923077 H 19.230769 V 12.307692 L 18.307692,11.384615 V 9.0769233 h 3.23077 V 10 h 1.384615 V 7.6923083 Z"
       id="path271" />
    <rect
       style="fill:#ff9955;fill-opacity:1;stroke-width:0.461538"
       width="1.3846154"
       height="8.3076925"
       x="10.461538"
       y="7.6923075"
       id="rect273" />
    <rect
       style="fill:#dc3545;fill-opacity:1;stroke-width:0.461538"
       width="1.3846154"
       height="8.3076925"
       x="10.461538"
       y="16"
       id="rect275" />
    <rect
       style="fill:#dc3545;fill-opacity:1;stroke-width:0.461538"
       width="4.1538463"
       height="1.8461539"
       x="9.0769215"
       y="15.076923"
       id="rect277" />
    <path
       style="opacity:0.2;stroke-width:0.461538"
       d="m 10.461538,24.307693 h 1.384616 v 0.461538 H 10.461538 Z M 9.0769227,16.923077 h 4.1538463 v 0.461538 H 9.0769227 Z"
       id="path279" />
    <rect
       style="opacity:0.2;fill:#ffffff;stroke-width:0.461538"
       width="4.1538463"
       height="0.46153846"
       x="9.0769215"
       y="15.076923"
       id="rect281" />
    <path
       style="fill:#f75f5f;stroke-width:0.461538"
       d="m 16.923077,16.923077 v 7.384616 h 6 V 22 h -1.384615 v 0.923077 h -2.307693 v -1.384615 l -0.923077,-0.923077 v -2.307692 h 3.23077 v 0.923076 h 1.384615 v -2.307692 z"
       id="path283" />
    <path
       style="fill:#ff9955;fill-opacity:1;stroke-width:0.461538"
       d="m 16.923077,7.6923083 v 7.3846147 h 6 v -2.307692 h -1.384615 v 0.923077 H 19.230769 V 12.307692 L 18.307692,11.384615 V 9.0769233 h 3.23077 V 10 h 1.384615 V 7.6923083 Z"
       id="path285" />
    <path
       style="fill:#dc3545;fill-opacity:1;stroke-width:0.461538"
       d="m 16.923077,16.923077 v 7.384616 h 6 V 22 h -1.384615 v 0.923077 h -2.307693 v -1.384615 l -0.923077,-0.923077 v -2.307692 h 3.23077 v 0.923076 h 1.384615 v -2.307692 z"
       id="path287" />
    <path
       style="opacity:0.2;fill:#ffffff;stroke-width:0.461538"
       d="m 16.923077,7.6923083 v 0.461538 h 6 v -0.461538 z m 1.384615,3.6923067 v 0.461539 l 0.923077,0.923077 v -0.461539 z m 3.23077,1.384616 v 0.461538 h 1.384615 v -0.461538 z m -2.307693,0.923077 v 0.461538 h 2.307693 v -0.461538 z m -2.307692,3.230769 v 0.461538 h 6 v -0.461538 z m 1.384615,3.692308 v 0.461538 L 19.230769,22 V 21.538462 Z M 21.538462,22 v 0.461539 h 1.384615 V 22 Z m -2.307693,0.923077 v 0.461539 h 2.307693 v -0.461539 z"
       id="path289" />
    <path
       d="m 22.119629,5.9166666 c 2.130371,0 3.963702,1.8333333 3.963702,3.9637399 V 22.117357 c 0,2.130375 -1.833332,3.965976 -3.963702,3.965976 H 9.880369 C 7.75,26.083333 5.916665,24.247295 5.916665,22.11692 V 9.8804065 c 0,-2.1304066 1.833335,-3.9637399 3.963704,-3.9637399 h 12.23926 M 22.119629,5 H 9.880369 C 7.2,5 5,7.1999999 5,9.8804075 V 22.117358 C 5,24.8 7.2,27.000001 9.880369,27.000001 H 22.117368 C 24.8,27.000001 26.999999,24.8 26.999999,22.11962 V 9.8804075 C 26.999999,7.1999999 24.8,5 22.119629,5 Z"
       id="path4-3"
       style="clip-rule:evenodd;fill:#eff0f1;fill-opacity:1;fill-rule:evenodd;stroke-width:0.0224509;stroke-linejoin:round;stroke-miterlimit:1.41421"
       sodipodi:nodetypes="cssssssscsssssssss" />
  </g>
  <g
     id="22-22-corectrl"
     transform="translate(31.923092,10.041957)">
    <rect
       style="opacity:0.00100002;fill:#d1d5e9;fill-opacity:1"
       width="22"
       height="22"
       x="-1.1157226e-07"
       y="-9.8449704e-08"
       id="rect2" />
    <rect
       width="0.61538464"
       height="16"
       x="13.461538"
       y="-19"
       transform="rotate(90)"
       id="rect227-3"
       style="fill:#8e8e8e;stroke-width:0.615385" />
    <rect
       width="0.61538464"
       height="16"
       x="15.307692"
       y="-19"
       transform="rotate(90)"
       id="rect229-6"
       style="fill:#8e8e8e;stroke-width:0.615385" />
    <rect
       width="0.61538464"
       height="16"
       x="17.153849"
       y="-19"
       transform="rotate(90)"
       id="rect231-75"
       style="fill:#8e8e8e;stroke-width:0.615385" />
    <rect
       width="0.61538464"
       height="16"
       x="7.9230747"
       y="-19"
       transform="rotate(90)"
       id="rect233-35"
       style="fill:#8e8e8e;stroke-width:0.615385" />
    <rect
       width="0.61538464"
       height="16"
       x="9.7692318"
       y="-19"
       transform="rotate(90)"
       id="rect235-62"
       style="fill:#8e8e8e;stroke-width:0.615385" />
    <rect
       width="0.61538464"
       height="16"
       x="11.615385"
       y="-19"
       transform="rotate(90)"
       id="rect237-9"
       style="fill:#8e8e8e;stroke-width:0.615385" />
    <rect
       width="0.61538464"
       height="16"
       x="6.0769215"
       y="-19"
       transform="rotate(90)"
       id="rect239-1"
       style="fill:#8e8e8e;stroke-width:0.615385" />
    <rect
       width="0.61538464"
       height="16"
       x="4.2307673"
       y="-19"
       transform="rotate(90)"
       id="rect241-2"
       style="fill:#8e8e8e;stroke-width:0.615385" />
    <rect
       width="0.61538464"
       height="16"
       x="-8.5384636"
       y="-19"
       transform="scale(-1)"
       id="rect245-7"
       style="fill:#8e8e8e;stroke-width:0.615385" />
    <rect
       width="0.61538464"
       height="16"
       x="-6.6923103"
       y="-19"
       transform="scale(-1)"
       id="rect247-0"
       style="fill:#8e8e8e;stroke-width:0.615385" />
    <rect
       width="0.61538464"
       height="16"
       x="-4.8461533"
       y="-19"
       transform="scale(-1)"
       id="rect249-9"
       style="fill:#8e8e8e;stroke-width:0.615385" />
    <rect
       width="0.61538464"
       height="16"
       x="-14.076923"
       y="-19"
       transform="scale(-1)"
       id="rect251-3"
       style="fill:#8e8e8e;stroke-width:0.615385" />
    <rect
       width="0.61538464"
       height="16"
       x="-12.23077"
       y="-19"
       transform="scale(-1)"
       id="rect253-6"
       style="fill:#8e8e8e;stroke-width:0.615385" />
    <rect
       width="0.61538464"
       height="16"
       x="-10.384617"
       y="-19"
       transform="scale(-1)"
       id="rect255-0"
       style="fill:#8e8e8e;stroke-width:0.615385" />
    <rect
       width="0.61538464"
       height="16"
       x="-15.923077"
       y="-19"
       transform="scale(-1)"
       id="rect257-6"
       style="fill:#8e8e8e;stroke-width:0.615385" />
    <rect
       width="0.61538464"
       height="16"
       x="-17.76923"
       y="-19"
       transform="scale(-1)"
       id="rect259-2"
       style="fill:#8e8e8e;stroke-width:0.615385" />
    <rect
       style="fill:#4e5a7e;fill-opacity:0.501961;stroke-width:0.301429"
       width="14.369334"
       height="14.518001"
       x="-18.384666"
       y="-18.251331"
       rx="3.4649525"
       ry="4.0586691"
       transform="matrix(0,-1,-1,0,0,0)"
       id="rect265-61" />
    <path
       style="opacity:0.2;stroke-width:0.307692"
       d="m 11.615384,11.923077 v 4.923077 h 4.000001 v -1.538461 h -0.923078 v 0.615385 H 13.153845 V 15 L 12.53846,14.384616 v -1.538462 h 2.153847 v 0.615385 h 0.923078 v -1.538462 z m 0,-6.153846 v 4.923077 h 4.000001 V 9.153846 H 14.692307 V 9.769231 H 13.153845 V 8.846154 L 12.53846,8.23077 V 6.692308 h 2.153847 v 0.615384 h 0.923078 V 5.769231 Z"
       id="path269-8" />
    <path
       style="fill:#ffa726;stroke-width:0.307692"
       d="m 11.615384,5.461539 v 4.923077 h 4.000001 V 8.846154 H 14.692307 V 9.461539 H 13.153845 V 8.538462 L 12.53846,7.923077 V 6.384616 h 2.153847 V 7 h 0.923078 V 5.461539 Z"
       id="path271-7" />
    <rect
       style="fill:#ff9955;fill-opacity:1;stroke-width:0.307692"
       width="0.92307693"
       height="5.5384617"
       x="7.3076935"
       y="5.4615364"
       id="rect273-9" />
    <rect
       style="fill:#dc3545;fill-opacity:1;stroke-width:0.307692"
       width="0.92307693"
       height="5.5384617"
       x="7.3076935"
       y="11.000001"
       id="rect275-20" />
    <rect
       style="fill:#dc3545;fill-opacity:1;stroke-width:0.307692"
       width="2.7692308"
       height="1.2307693"
       x="6.3846169"
       y="10.384614"
       id="rect277-2" />
    <path
       style="opacity:0.2;stroke-width:0.307692"
       d="m 7.307692,16.538462 h 0.923077 v 0.307692 H 7.307692 Z M 6.384615,11.615385 h 2.769231 v 0.307692 H 6.384615 Z"
       id="path279-3" />
    <rect
       style="opacity:0.2;fill:#ffffff;stroke-width:0.307692"
       width="2.7692308"
       height="0.30769232"
       x="6.3846169"
       y="10.384614"
       id="rect281-7" />
    <path
       style="fill:#f75f5f;stroke-width:0.307692"
       d="m 11.615384,11.615385 v 4.923077 h 4.000001 V 15 h -0.923078 v 0.615385 H 13.153845 V 14.692308 L 12.53846,14.076924 v -1.538462 h 2.153847 v 0.615384 h 0.923078 v -1.538461 z"
       id="path283-59" />
    <path
       style="fill:#ff9955;fill-opacity:1;stroke-width:0.307692"
       d="m 11.615384,5.461539 v 4.923077 h 4.000001 V 8.846154 H 14.692307 V 9.461539 H 13.153845 V 8.538462 L 12.53846,7.923077 V 6.384616 h 2.153847 V 7 h 0.923078 V 5.461539 Z"
       id="path285-2" />
    <path
       style="fill:#dc3545;fill-opacity:1;stroke-width:0.307692"
       d="m 11.615384,11.615385 v 4.923077 h 4.000001 V 15 h -0.923078 v 0.615385 H 13.153845 V 14.692308 L 12.53846,14.076924 v -1.538462 h 2.153847 v 0.615384 h 0.923078 v -1.538461 z"
       id="path287-2" />
    <path
       style="opacity:0.2;fill:#ffffff;stroke-width:0.307692"
       d="m 11.615384,5.461539 v 0.307692 h 4.000001 V 5.461539 Z M 12.53846,7.923077 V 8.23077 l 0.615385,0.615384 V 8.538462 Z m 2.153847,0.923077 v 0.307692 h 0.923078 V 8.846154 Z m -1.538462,0.615385 v 0.307692 h 1.538462 V 9.461539 Z m -1.538461,2.153846 v 0.307692 h 4.000001 v -0.307692 z m 0.923076,2.461539 v 0.307692 L 13.153845,15 V 14.692308 Z M 14.692307,15 v 0.307693 h 0.923078 V 15 Z m -1.538462,0.615385 v 0.307693 h 1.538462 v -0.307693 z"
       id="path289-8" />
    <path
       d="m 14.855603,4.61875 c 1.423477,0 2.525647,1.1021402 2.525647,2.5256458 V 14.95377 c 0,1.423476 -1.10217,2.52748 -2.525647,2.52748 H 7.0443958 C 5.6209166,17.48125 4.51875,16.377246 4.51875,14.95377 V 7.1443958 C 4.51875,5.7208902 5.6209166,4.61875 7.0443958,4.61875 H 14.855603 M 15.039024,3.7 H 6.8609742 C 5.07,3.7 3.6,5.17 3.6,6.9609959 V 15.137508 C 3.6,16.929999 5.07,18.4 6.8609742,18.4 h 8.1765378 c 1.792487,0 3.262487,-1.470001 3.262487,-3.260981 V 6.9609959 C 18.299999,5.17 16.829999,3.7 15.039024,3.7 Z"
       id="path4-3-3"
       style="clip-rule:evenodd;fill:#eff0f1;fill-opacity:1;fill-rule:evenodd;stroke-width:0.0150013;stroke-linejoin:round;stroke-miterlimit:1.41421"
       sodipodi:nodetypes="cssssssscsssssssss" />
  </g>
</svg>
