<?xml version="1.0" encoding="UTF-8" standalone="no"?>
<svg
   width="32"
   height="32"
   version="1.1"
   id="svg12"
   sodipodi:docname="desktop.svg"
   inkscape:version="1.2.2 (b0a8486541, 2022-12-01)"
   xmlns:inkscape="http://www.inkscape.org/namespaces/inkscape"
   xmlns:sodipodi="http://sodipodi.sourceforge.net/DTD/sodipodi-0.dtd"
   xmlns="http://www.w3.org/2000/svg"
   xmlns:svg="http://www.w3.org/2000/svg"
   xmlns:rdf="http://www.w3.org/1999/02/22-rdf-syntax-ns#"
   xmlns:cc="http://creativecommons.org/ns#"
   xmlns:dc="http://purl.org/dc/elements/1.1/">
  <style
     id="current-color-scheme"
     type="text/css">.ColorScheme-Text { color:#d6dbf1; }
</style>
  <metadata
     id="metadata18">
    <rdf:RDF>
      <cc:Work
         rdf:about="">
        <dc:format>image/svg+xml</dc:format>
        <dc:type
           rdf:resource="http://purl.org/dc/dcmitype/StillImage" />
      </cc:Work>
    </rdf:RDF>
  </metadata>
  <defs
     id="defs16">
    <linearGradient
       id="oomox"
       x1="0"
       x2="0"
       y1="0"
       y2="1">
      <stop
         offset="0%"
         style="stop-color:#303b3d; stop-opacity:1"
         id="stop18" />
      <stop
         offset="100%"
         style="stop-color:#bc985d; stop-opacity:1"
         id="stop20" />
    </linearGradient>
  </defs>
  <sodipodi:namedview
     pagecolor="#cccccc"
     bordercolor="#000000"
     borderopacity="1"
     objecttolerance="10"
     gridtolerance="10"
     guidetolerance="10"
     inkscape:pageopacity="0"
     inkscape:pageshadow="2"
     inkscape:window-width="1920"
     inkscape:window-height="1000"
     id="namedview14"
     showgrid="false"
     inkscape:zoom="13.876971"
     inkscape:cx="16.322006"
     inkscape:cy="14.196182"
     inkscape:window-x="0"
     inkscape:window-y="0"
     inkscape:window-maximized="1"
     inkscape:current-layer="svg12"
     inkscape:lockguides="false"
     inkscape:document-rotation="0"
     inkscape:showpageshadow="true"
     inkscape:pagecheckerboard="false"
     inkscape:deskcolor="#808080">
    <inkscape:grid
       type="xygrid"
       id="grid863"
       originx="0"
       originy="0" />
  </sodipodi:namedview>
  <g
     id="desktop">
    <rect
       style="opacity:0.00100002;fill:#d1d5e9;fill-opacity:1"
       width="32"
       height="32"
       x="0"
       y="0"
       id="rect7" />
    <path
       d="m 4.821,24 h 22.358 v 0 -1 H 4.821 v 0 z"
       id="path2653-4"
       style="fill:#eff0f1;fill-opacity:1;stroke-width:0.324495"
       sodipodi:nodetypes="ccccccc" />
    <path
       d="m 12.499994,10 c 0,1.105112 -0.894898,2.000009 -1.999997,2.000009 C 9.395829,12.00001 8.500001,11.105112 8.500001,10 c 0,-1.1041691 0.895828,-1.9999909 1.999996,-1.9999909 1.105099,0 1.999997,0.8958218 1.999997,1.9999909 z"
       id="path72-3"
       style="color:#e5e9ef;fill:#eff0f1;fill-opacity:1;stroke-width:0.0238098"
       class="ColorScheme-Text" />
    <path
       d="m 12.499994,18 c 0,1.105111 -0.8949,2.000007 -1.999997,2.000007 C 9.395828,20.000007 8.5,19.105111 8.5,18 c 0,-1.10417 0.895828,-1.999993 1.999997,-1.999993 1.105097,0 1.999997,0.895823 1.999997,1.999993 z"
       id="path72-3-6"
       style="color:#e5e9ef;fill:#eff0f1;fill-opacity:1;stroke-width:0.0238098"
       class="ColorScheme-Text" />
    <path
       d="M 22.675959,5 C 24.999998,5 27,7 27,9.32408 V 22.673476 C 27,24.997525 24.999997,27 22.675959,27 H 9.32404 C 7,27 5,24.997526 5,22.673476 V 9.32408 C 5,7 7,5 9.32404,5 h 13.351919 m 0,-1 H 9.32404 C 6.4,4 4,6.4 4,9.324081 V 22.673478 C 4,25.599999 6.4,28 9.32404,28 h 13.349449 c 2.926509,0 5.326509,-2.400001 5.326509,-5.324053 V 9.324081 C 27.999998,6.4 25.599999,4 22.675959,4 Z"
       id="path4-3-36"
       style="clip-rule:evenodd;fill:#eff0f1;fill-opacity:1;fill-rule:evenodd;stroke-width:0.0244919;stroke-linejoin:round;stroke-miterlimit:1.41421"
       sodipodi:nodetypes="cssssssscsssssssss" />
  </g>
</svg>
