<?xml version="1.0" encoding="UTF-8" standalone="no"?>
<svg
   width="32"
   height="32"
   version="1.1"
   id="svg58"
   sodipodi:docname="disk.svg"
   inkscape:version="1.1.1 (3bf5ae0d25, 2021-09-20)"
   xmlns:inkscape="http://www.inkscape.org/namespaces/inkscape"
   xmlns:sodipodi="http://sodipodi.sourceforge.net/DTD/sodipodi-0.dtd"
   xmlns="http://www.w3.org/2000/svg"
   xmlns:svg="http://www.w3.org/2000/svg"
   xmlns:rdf="http://www.w3.org/1999/02/22-rdf-syntax-ns#"
   xmlns:cc="http://creativecommons.org/ns#"
   xmlns:dc="http://purl.org/dc/elements/1.1/">
  <metadata
     id="metadata64">
    <rdf:RDF>
      <cc:Work
         rdf:about="">
        <dc:format>image/svg+xml</dc:format>
        <dc:type
           rdf:resource="http://purl.org/dc/dcmitype/StillImage" />
      </cc:Work>
    </rdf:RDF>
  </metadata>
  <defs
     id="defs62" />
  <sodipodi:namedview
     pagecolor="#ffffff"
     bordercolor="#000000"
     borderopacity="1"
     objecttolerance="10"
     gridtolerance="10"
     guidetolerance="10"
     inkscape:pageopacity="0"
     inkscape:pageshadow="2"
     inkscape:window-width="1920"
     inkscape:window-height="1007"
     id="namedview60"
     showgrid="false"
     inkscape:zoom="4.9062501"
     inkscape:cx="54.726114"
     inkscape:cy="4.8917196"
     inkscape:window-x="0"
     inkscape:window-y="0"
     inkscape:window-maximized="1"
     inkscape:current-layer="svg58"
     inkscape:document-rotation="0"
     inkscape:lockguides="true"
     inkscape:showpageshadow="false"
     inkscape:pagecheckerboard="0">
    <inkscape:grid
       type="xygrid"
       id="grid879"
       originx="0"
       originy="0" />
  </sodipodi:namedview>
  <g
     id="disk-quota">
    <rect
       style="opacity:0.00100002"
       width="32"
       height="32"
       x="0"
       y="0"
       id="rect35" />
    <path
       d="m 10.174998,25.4 h 11.549984 c 1.518596,0 1.57499,-0.01042 1.57499,-1.575001 v -1.57499 H 8.6 v 1.57499 C 8.6,25.373607 8.5971356,25.4 10.174998,25.4 Z m 1.155008,-2.100002 h 9.071988 v 1.050009 h -9.071988 z"
       id="path2-3"
       sodipodi:nodetypes="sssccssccccc"
       style="fill:#eff0f1;fill-opacity:1;stroke-width:0.210004" />
    <path
       d="m 23.299972,8.0750243 c 0,-1.5705167 -0.04119,-1.5749961 -1.57499,-1.5749961 H 10.174998 C 8.5997381,6.5000282 8.6,6.4731937 8.6,8.0750243 V 21.200004 H 23.299972 Z M 10.7,8.6000243 H 9.6500043 V 7.5500259 H 10.7 Z m 8.924989,2.6249977 h -1.050006 v 0.524995 h 1.050006 v 1.050006 h -1.050006 v 0.524996 h 1.050006 v 1.049996 h -1.050006 v 0.524996 h 1.050006 v 1.050005 h -1.050006 v 0.524994 h 1.050006 v 1.050005 h -1.050006 v 1.04999 h -5.249994 v -1.04999 H 12.275002 V 16.47501 h 1.049987 v -0.524994 h -1.049987 v -1.050005 h 1.049987 v -0.524996 h -1.049987 v -1.049996 h 1.049987 v -0.524996 h -1.049987 v -1.050006 h 1.049987 v -0.524995 h -1.049987 v -1.05 h 1.049987 V 9.1250238 h 5.249994 v 1.0499982 h 1.050006 z M 22.249985,8.6000243 H 21.199983 V 7.5500259 h 1.050002 z"
       id="path4-6"
       sodipodi:nodetypes="ssssccsccccccccccccccccccccccccccccccccccccccccccccccccccccccc"
       style="fill:#eff0f1;fill-opacity:1;stroke-width:0.210004" />
    <path
       d="m 14.374991,17.525015 h 1.050003 1.049997 v 0 h 1.05 v -7.349993 h -3.15 z"
       id="path6-75"
       sodipodi:nodetypes="cccccccc"
       style="fill:#eff0f1;fill-opacity:1;stroke-width:0.210004" />
    <path
       d="m 22.676,5.124082 c 2.32398,0 4.19992,1.875919 4.19992,4.2 V 22.67348 c 0,2.324074 -1.87594,4.2 -4.19992,4.2 H 9.32408 c -2.32409,0 -4.20001,-1.875926 -4.20001,-4.2 V 9.324082 c 0,-2.324081 1.87592,-4.2 4.20001,-4.2 H 22.676 M 22.676,4 H 9.32408 C 6.4,4 4,6.400001 4,9.324082 V 22.67348 C 4,25.6 6.4,28 9.32408,28 H 22.67353 C 25.59998,28 28,25.6 28,22.675911 V 9.324082 C 28,6.400001 25.59998,4 22.676,4 Z"
       id="path4-3"
       style="clip-rule:evenodd;fill:#eff0f1;fill-opacity:1;fill-rule:evenodd;stroke-width:0.0244895;stroke-linejoin:round;stroke-miterlimit:1.41421" />
  </g>
  <g
     id="disk-quota-low">
    <rect
       style="opacity:0.00100002"
       width="32"
       height="32"
       x="32"
       y="0"
       id="rect35-6" />
    <path
       d="m 42.174998,25.4 h 11.549984 c 1.518596,0 1.57499,-0.01042 1.57499,-1.575001 v -1.57499 H 40.6 v 1.57499 C 40.6,25.373607 40.5971,25.4 42.174998,25.4 Z m 1.155008,-2.100002 h 9.071988 v 1.050009 h -9.071988 z"
       id="path2-3-36"
       sodipodi:nodetypes="sssccssccccc"
       style="fill:#eff0f1;fill-opacity:1;stroke-width:0.210004" />
    <path
       d="m 55.299972,8.075024 c 0,-1.570516 -0.04119,-1.574996 -1.57499,-1.574996 H 42.174998 C 40.599738,6.500028 40.6,6.473198 40.6,8.075024 v 13.12498 H 55.299972 Z M 42.7,8.600024 H 41.650004 V 7.550026 H 42.7 Z m 8.924989,2.624998 h -1.050006 v 0.524995 h 1.050006 v 1.050006 h -1.050006 v 0.524996 h 1.050006 v 1.049996 h -1.050006 v 0.524996 h 1.050006 v 1.050005 h -1.050006 v 0.524994 h 1.050006 v 1.050005 h -1.050006 v 1.04999 h -5.249994 v -1.04999 H 44.275002 V 16.47501 h 1.049987 v -0.524994 h -1.049987 v -1.050005 h 1.049987 v -0.524996 h -1.049987 v -1.049996 h 1.049987 v -0.524996 h -1.049987 v -1.050006 h 1.049987 v -0.524995 h -1.049987 v -1.05 h 1.049987 V 9.125024 h 5.249994 v 1.049998 h 1.050006 z M 54.249985,8.600024 H 53.199983 V 7.550026 h 1.050002 z"
       id="path4-6-7"
       sodipodi:nodetypes="ssssccsccccccccccccccccccccccccccccccccccccccccccccccccccccccc"
       style="fill:#eff0f1;fill-opacity:1;stroke-width:0.210004" />
    <path
       d="m 46.374991,17.525015 h 1.050003 1.049997 v 0 h 1.05 v -7.349993 h -3.15 z"
       id="path6-75-53"
       sodipodi:nodetypes="cccccccc"
       style="fill:#2a7fff;fill-opacity:1;stroke-width:0.210004" />
    <path
       d="m 54.676,5.124082 c 2.32398,0 4.19992,1.875919 4.19992,4.2 V 22.67348 c 0,2.324074 -1.87594,4.2 -4.19992,4.2 H 41.32408 c -2.32409,0 -4.20001,-1.875926 -4.20001,-4.2 V 9.324082 c 0,-2.324081 1.87592,-4.2 4.20001,-4.2 H 54.676 M 54.676,4 H 41.32408 C 38.4,4 36,6.400001 36,9.324082 V 22.67348 C 36,25.6 38.4,28 41.32408,28 H 54.67353 C 57.59998,28 60,25.6 60,22.675911 V 9.324082 C 60,6.400001 57.59998,4 54.676,4 Z"
       id="path4-3-5"
       style="clip-rule:evenodd;fill:#eff0f1;fill-opacity:1;fill-rule:evenodd;stroke-width:0.0244895;stroke-linejoin:round;stroke-miterlimit:1.41421" />
  </g>
  <g
     id="disk-quota-high">
    <rect
       style="opacity:0.00100002"
       width="32"
       height="32"
       x="64"
       y="0"
       id="rect49" />
    <path
       d="m 74.174998,25.4 h 11.549984 c 1.518596,0 1.57499,-0.01042 1.57499,-1.575001 v -1.57499 H 72.6 v 1.57499 C 72.6,25.373607 72.5971,25.4 74.174998,25.4 Z m 1.155008,-2.100002 h 9.071988 v 1.050009 h -9.071988 z"
       id="path2-3-36-6"
       sodipodi:nodetypes="sssccssccccc"
       style="fill:#eff0f1;fill-opacity:1;stroke-width:0.210004" />
    <path
       d="m 87.299972,8.075024 c 0,-1.570516 -0.04119,-1.574996 -1.57499,-1.574996 H 74.174998 C 72.599738,6.500028 72.6,6.473198 72.6,8.075024 v 13.12498 H 87.299972 Z M 74.7,8.600024 H 73.650004 V 7.550026 H 74.7 Z m 8.924989,2.624998 h -1.050006 v 0.524995 h 1.050006 v 1.050006 h -1.050006 v 0.524996 h 1.050006 v 1.049996 h -1.050006 v 0.524996 h 1.050006 v 1.050005 h -1.050006 v 0.524994 h 1.050006 v 1.050005 h -1.050006 v 1.04999 h -5.249994 v -1.04999 H 76.275002 V 16.47501 h 1.049987 v -0.524994 h -1.049987 v -1.050005 h 1.049987 v -0.524996 h -1.049987 v -1.049996 h 1.049987 v -0.524996 h -1.049987 v -1.050006 h 1.049987 v -0.524995 h -1.049987 v -1.05 h 1.049987 V 9.125024 h 5.249994 v 1.049998 h 1.050006 z M 86.249985,8.600024 H 85.199983 V 7.550026 h 1.050002 z"
       id="path4-6-7-2"
       sodipodi:nodetypes="ssssccsccccccccccccccccccccccccccccccccccccccccccccccccccccccc"
       style="fill:#eff0f1;fill-opacity:1;stroke-width:0.210004" />
    <path
       d="m 78.374991,17.525015 h 1.050003 1.049997 v 0 h 1.05 v -7.349993 h -3.15 z"
       id="path6-75-53-9"
       sodipodi:nodetypes="cccccccc"
       style="fill:#ff7f2a;fill-opacity:1;stroke-width:0.210004" />
    <path
       d="m 86.676,5.124082 c 2.32398,0 4.19992,1.875919 4.19992,4.2 V 22.67348 c 0,2.324074 -1.87594,4.2 -4.19992,4.2 H 73.32408 c -2.32409,0 -4.20001,-1.875926 -4.20001,-4.2 V 9.324082 c 0,-2.324081 1.87592,-4.2 4.20001,-4.2 H 86.676 M 86.676,4 H 73.32408 C 70.4,4 68,6.400001 68,9.324082 V 22.67348 C 68,25.6 70.4,28 73.32408,28 H 86.67353 C 89.59998,28 92,25.6 92,22.675911 V 9.324082 C 92,6.400001 89.59998,4 86.676,4 Z"
       id="path4-3-5-1"
       style="clip-rule:evenodd;fill:#eff0f1;fill-opacity:1;fill-rule:evenodd;stroke-width:0.0244895;stroke-linejoin:round;stroke-miterlimit:1.41421" />
  </g>
  <g
     id="22-22-disk-quota-high">
    <rect
       style="opacity:0.00100002"
       width="22"
       height="22"
       x="64"
       y="-22"
       id="rect26" />
    <path
       d="m 71.116664,-4.733367 h 7.69999 c 1.012379,0 1.049979,-0.0076 1.049979,-1.049956 v -1.050005 h -9.799966 v 1.050005 c 0,1.032377 -0.0024,1.049956 1.049997,1.049956 z m 0.770009,-1.4 h 6.047985 v 0.700062 h -6.047985 z"
       id="path2-3-36-6-7"
       sodipodi:nodetypes="sssccssccccc"
       style="fill:#eff0f1;fill-opacity:1;stroke-width:0.140004" />
    <path
       d="m 79.866633,-16.283325 c 0,-1.047002 -0.02748,-1.04999 -1.049979,-1.04999 h -7.69999 c -1.050191,0 -1.049997,-0.01788 -1.049997,1.04999 v 8.749992 h 9.799966 z m -8.399966,0.35001 h -0.699996 v -0.7 h 0.699996 z m 5.949997,1.74999 h -0.700005 v 0.350009 h 0.700005 v 0.700001 h -0.700005 v 0.34999 h 0.700005 v 0.7 h -0.700005 v 0.349999 h 0.700005 v 0.700005 h -0.700005 v 0.349994 h 0.700005 v 0.700003 h -0.700005 v 0.699992 h -3.499995 v -0.699992 h -0.699999 v -0.700003 h 0.699999 v -0.349994 h -0.699999 v -0.700005 h 0.699999 v -0.349999 h -0.699999 v -0.7 h 0.699999 v -0.34999 h -0.699999 v -0.700001 h 0.699999 v -0.350009 h -0.699999 v -0.7 h 0.699999 v -0.7 h 3.499995 v 0.7 h 0.700005 z m 1.749985,-1.74999 h -0.700002 v -0.7 h 0.700002 z"
       id="path4-6-7-2-9"
       sodipodi:nodetypes="ssssccsccccccccccccccccccccccccccccccccccccccccccccccccccccccc"
       style="fill:#eff0f1;fill-opacity:1;stroke-width:0.140004" />
    <path
       d="m 73.916664,-9.983324 h 0.7 0.7 v 0 h 0.7 v -4.900001 h -2.1 z"
       id="path6-75-53-9-2"
       sodipodi:nodetypes="cccccccc"
       style="fill:#ff7f2a;fill-opacity:1;stroke-width:0.140004" />
    <path
       d="m 79.450664,-18.250611 c 1.549311,0 2.799941,1.250612 2.799941,2.8 v 8.899595 c 0,1.54938 -1.25063,2.799958 -2.799941,2.799958 h -8.901277 c -1.549397,0 -2.800009,-1.250578 -2.800009,-2.799958 v -8.899595 c 0,-1.549388 1.250612,-2.8 2.800009,-2.8 h 8.901277 m 0,-0.749389 H 70.549387 C 68.6,-19 67,-17.399999 67,-15.450611 v 8.899595 C 67,-4.600002 68.6,-3 70.549387,-3 h 8.899628 c 1.95096,0 3.550977,-1.600002 3.550977,-3.549405 v -8.901206 C 82.999992,-17.399999 81.399975,-19 79.450664,-19 Z"
       id="path4-3-5-1-0"
       style="clip-rule:evenodd;fill:#eff0f1;fill-opacity:1;fill-rule:evenodd;stroke-width:0.0163267;stroke-linejoin:round;stroke-miterlimit:1.41421" />
  </g>
  <g
     id="disk-quota-critical">
    <rect
       style="opacity:0.00100002"
       width="32"
       height="32"
       x="96"
       y="0"
       id="rect35-2" />
    <path
       d="m 106.175,25.4 h 11.54998 c 1.5186,0 1.57499,-0.01042 1.57499,-1.575001 v -1.57499 H 104.6 v 1.57499 c 0,1.548608 -0.003,1.575001 1.575,1.575001 z m 1.15501,-2.100002 h 9.07199 v 1.050009 h -9.07199 z"
       id="path2-3-36-6-2"
       sodipodi:nodetypes="sssccssccccc"
       style="fill:#eff0f1;fill-opacity:1;stroke-width:0.210004" />
    <path
       d="m 119.29997,8.075024 c 0,-1.570516 -0.0412,-1.574996 -1.57499,-1.574996 H 106.175 c -1.57526,0 -1.575,-0.02683 -1.575,1.574996 v 13.12498 h 14.69997 z M 106.7,8.600024 h -1.05 V 7.550026 h 1.05 z m 8.92499,2.624998 h -1.05001 v 0.524995 h 1.05001 v 1.050006 h -1.05001 v 0.524996 h 1.05001 v 1.049996 h -1.05001 v 0.524996 h 1.05001 v 1.050005 h -1.05001 v 0.524994 h 1.05001 v 1.050005 h -1.05001 v 1.04999 h -5.24999 v -1.04999 H 108.275 V 16.47501 h 1.04999 V 15.950016 H 108.275 v -1.050005 h 1.04999 V 14.375015 H 108.275 v -1.049996 h 1.04999 V 12.800023 H 108.275 v -1.050006 h 1.04999 V 11.225022 H 108.275 v -1.05 h 1.04999 V 9.125024 h 5.24999 v 1.049998 h 1.05001 z m 2.625,-2.624998 h -1.05001 V 7.550026 h 1.05001 z"
       id="path4-6-7-2-7"
       sodipodi:nodetypes="ssssccsccccccccccccccccccccccccccccccccccccccccccccccccccccccc"
       style="fill:#eff0f1;fill-opacity:1;stroke-width:0.210004" />
    <path
       d="m 110.37499,17.525015 h 1.05001 1.04999 v 0 h 1.05 v -7.349993 h -3.15 z"
       id="path6-75-53-9-0"
       sodipodi:nodetypes="cccccccc"
       style="fill:#ff2929;fill-opacity:1;stroke-width:0.210004" />
    <path
       d="m 118.676,5.124082 c 2.32398,0 4.19992,1.875919 4.19992,4.2 V 22.67348 c 0,2.324074 -1.87594,4.2 -4.19992,4.2 h -13.35192 c -2.32409,0 -4.20001,-1.875926 -4.20001,-4.2 V 9.324082 c 0,-2.324081 1.87592,-4.2 4.20001,-4.2 H 118.676 M 118.676,4 H 105.32408 C 102.4,4 100,6.400001 100,9.324082 V 22.67348 C 100,25.6 102.4,28 105.32408,28 h 13.34945 C 121.59998,28 124,25.6 124,22.675911 V 9.324082 C 124,6.400001 121.59998,4 118.676,4 Z"
       id="path4-3-5-1-9"
       style="clip-rule:evenodd;fill:#eff0f1;fill-opacity:1;fill-rule:evenodd;stroke-width:0.0244895;stroke-linejoin:round;stroke-miterlimit:1.41421" />
  </g>
  <g
     id="22-22-disk-quota-critical">
    <rect
       style="opacity:0.00100002"
       width="22"
       height="22"
       x="96"
       y="-22"
       id="rect7" />
    <path
       d="m 103.11667,-4.733345 h 7.69999 c 1.01238,0 1.04998,-0.01 1.04998,-1.04992 v -1.05003 h -9.79998 v 1.05003 c 0,1.03232 -0.003,1.04992 1.05001,1.04992 z m 0.77001,-1.40001 h 6.04799 v 0.70006 h -6.04799 z"
       id="path2-3-36-6-2-2"
       sodipodi:nodetypes="sssccssccccc"
       style="fill:#eff0f1;fill-opacity:1;stroke-width:0.140004" />
    <path
       d="m 111.86664,-16.283319 c 0,-1.047001 -0.0275,-1.049999 -1.04998,-1.049999 h -7.69999 c -1.05019,0 -1.05001,-0.01792 -1.05001,1.049999 v 8.749974 h 9.79998 z m -8.39997,0.35 h -0.7 v -0.699999 h 0.7 z m 5.95,1.749997 h -0.70001 v 0.350004 h 0.70001 v 0.699987 h -0.70001 v 0.350026 h 0.70001 v 0.699953 h -0.70001 v 0.350018 h 0.70001 v 0.700074 h -0.70001 v 0.349879 h 0.70001 v 0.700136 h -0.70001 v 0.69985 h -3.49999 v -0.69985 h -0.7 v -0.700136 h 0.7 v -0.349879 h -0.7 v -0.700074 h 0.7 v -0.350018 h -0.7 v -0.699953 h 0.7 v -0.350026 h -0.7 v -0.699987 h 0.7 v -0.350004 h -0.7 v -0.7 h 0.7 v -0.699997 h 3.49999 v 0.699997 h 0.70001 z m 1.74999,-1.749997 h -0.70001 v -0.699999 h 0.70001 z"
       id="path4-6-7-2-7-3"
       sodipodi:nodetypes="ssssccsccccccccccccccccccccccccccccccccccccccccccccccccccccccc"
       style="fill:#eff0f1;fill-opacity:1;stroke-width:0.140004" />
    <path
       d="m 105.91667,-9.983245 h 0.7 0.7 v 0 h 0.7 v -4.900077 h -2.1 z"
       id="path6-75-53-9-0-7"
       sodipodi:nodetypes="cccccccc"
       style="fill:#ff2929;fill-opacity:1;stroke-width:0.140004" />
    <path
       d="m 111.45066,-18.250613 c 1.54932,0 2.79996,1.250614 2.79996,2.799998 v 8.89955 c 0,1.54942 -1.25064,2.80001 -2.79996,2.80001 h -8.90128 c -1.54939,0 -2.8,-1.25059 -2.8,-2.80001 v -8.89955 c 0,-1.549384 1.25061,-2.799998 2.8,-2.799998 h 8.90128 m 0,-0.749387 h -8.90128 C 100.6,-19 99,-17.4 99,-15.450615 v 8.89955 c 0,1.95107 1.6,3.55107 3.54938,3.55107 h 8.89965 c 1.95095,0 3.55097,-1.6 3.55097,-3.54943 v -8.90119 C 115,-17.4 113.39998,-19 111.45066,-19 Z"
       id="path4-3-5-1-9-5"
       style="clip-rule:evenodd;fill:#eff0f1;fill-opacity:1;fill-rule:evenodd;stroke-width:0.0163271;stroke-linejoin:round;stroke-miterlimit:1.41421" />
  </g>
  <g
     id="22-22-disk-quota">
    <rect
       style="opacity:0.00100002"
       width="22"
       height="22"
       x="0"
       y="-22"
       id="rect12" />
    <path
       d="m 7.1166,-4.73334 h 7.70018 c 1.01238,0 1.04979,-0.0079 1.04979,-1.049982 V -6.833331 H 6.06659 v 1.050009 c 0,1.032389 -0.003,1.049982 1.05001,1.049982 z m 0.7702,-1.400003 h 6.04798 v 0.70001 H 7.8868 Z"
       id="path2-3-36-6-2-3"
       sodipodi:nodetypes="sssccssccccc"
       style="fill:#eff0f1;fill-opacity:1;stroke-width:0.140004" />
    <path
       d="m 15.86657,-16.283315 c 0,-1.047005 -0.0271,-1.050006 -1.04979,-1.050006 H 7.1166 c -1.0502,0 -1.05001,-0.01799 -1.05001,1.050006 v 8.749979 h 9.79998 z m -8.39998,0.349994 h -0.6998 v -0.7 h 0.6998 z m 5.9502,1.750003 h -0.70021 v 0.349995 h 0.70021 v 0.700002 h -0.70021 v 0.350003 h 0.70021 v 0.699999 h -0.70021 v 0.34999 h 0.70021 v 0.700005 h -0.70021 v 0.350005 h 0.70021 v 0.7 h -0.70021 v 0.7 H 9.21679 v -0.7 H 8.5166 v -0.7 h 0.70019 v -0.350005 H 8.5166 v -0.700005 h 0.70019 v -0.34999 H 8.5166 v -0.699999 h 0.70019 v -0.350003 H 8.5166 v -0.700002 h 0.70019 v -0.349995 H 8.5166 v -0.7 h 0.70019 v -0.699997 h 3.49979 v 0.699997 h 0.70021 z m 1.74998,-1.750003 h -0.70019 v -0.7 h 0.70019 z"
       id="path4-6-7-2-7-6"
       sodipodi:nodetypes="ssssccsccccccccccccccccccccccccccccccccccccccccccccccccccccccc"
       style="fill:#eff0f1;fill-opacity:1;stroke-width:0.140004" />
    <path
       d="m 9.91659,-9.983319 h 0.70021 0.69979 v 0 h 0.7002 v -4.899999 h -2.1002 z"
       id="path6-75-53-9-0-0"
       sodipodi:nodetypes="cccccccc"
       style="fill:#eff0f1;fill-opacity:1;stroke-width:0.140004" />
    <path
       d="m 15.4506,-18.250618 c 1.54938,0 2.79992,1.250619 2.79992,2.799999 v 8.899618 c 0,1.54936 -1.25054,2.8 -2.79992,2.8 H 6.54949 c -1.5495,0 -2.80001,-1.25064 -2.80001,-2.8 v -8.899618 c 0,-1.54938 1.25051,-2.799999 2.80001,-2.799999 H 15.4506 M 15.4506,-19 H 6.54949 C 4.6,-19 3,-17.4 3,-15.450619 v 8.899618 C 3,-4.6 4.6,-3 6.54949,-3 h 8.89944 C 17.39998,-3 19,-4.6 19,-6.549388 v -8.901231 C 19,-17.4 17.39998,-19 15.4506,-19 Z"
       id="path4-3-5-1-9-6"
       style="clip-rule:evenodd;fill:#eff0f1;fill-opacity:1;fill-rule:evenodd;stroke-width:0.0163276;stroke-linejoin:round;stroke-miterlimit:1.41421" />
  </g>
  <g
     id="22-22-disk-quota-low">
    <rect
       style="opacity:0.00100002"
       width="22"
       height="22"
       x="32"
       y="-22"
       id="rect17" />
    <path
       d="m 39.1166,-4.73334 h 7.70018 c 1.01238,0 1.04979,-0.008 1.04979,-1.04998 v -1.05001 h -9.79998 v 1.05001 c 0,1.03239 -0.003,1.04998 1.05001,1.04998 z m 0.7702,-1.4 h 6.04798 v 0.7 H 39.8868 Z"
       id="path2-3-36-6-2-3-2"
       sodipodi:nodetypes="sssccssccccc"
       style="fill:#eff0f1;fill-opacity:1;stroke-width:0.140004" />
    <path
       d="m 47.86657,-16.28332 c 0,-1.047 -0.0271,-1.05 -1.04979,-1.05 H 39.1166 c -1.0502,0 -1.05001,-0.018 -1.05001,1.05 v 8.74998 h 9.79998 z m -8.39998,0.35 h -0.6998 v -0.7 h 0.6998 z m 5.9502,1.75 h -0.70021 v 0.34999 h 0.70021 v 0.70001 h -0.70021 v 0.35 h 0.70021 v 0.7 h -0.70021 v 0.34999 h 0.70021 v 0.7 h -0.70021 v 0.35001 h 0.70021 v 0.7 h -0.70021 v 0.7 h -3.49979 v -0.7 H 40.5166 v -0.7 h 0.70019 v -0.35001 H 40.5166 v -0.7 h 0.70019 v -0.34999 H 40.5166 v -0.7 h 0.70019 v -0.35 H 40.5166 v -0.70001 h 0.70019 v -0.34999 H 40.5166 v -0.7 h 0.70019 v -0.7 h 3.49979 v 0.7 h 0.70021 z m 1.74998,-1.75 h -0.70019 v -0.7 h 0.70019 z"
       id="path4-6-7-2-7-6-6"
       sodipodi:nodetypes="ssssccsccccccccccccccccccccccccccccccccccccccccccccccccccccccc"
       style="fill:#eff0f1;fill-opacity:1;stroke-width:0.140004" />
    <path
       d="m 41.91659,-9.98332 h 0.70021 0.69979 v 0 h 0.7002 v -4.9 h -2.1002 z"
       id="path6-75-53-9-0-0-1"
       sodipodi:nodetypes="cccccccc"
       style="fill:#2a7fff;fill-opacity:1;stroke-width:0.140004" />
    <path
       d="m 47.4506,-18.25062 c 1.54938,0 2.79992,1.25062 2.79992,2.8 V -6.551 c 0,1.54936 -1.25054,2.8 -2.79992,2.8 h -8.90111 c -1.5495,0 -2.80001,-1.25064 -2.80001,-2.8 v -8.89962 c 0,-1.54938 1.25051,-2.8 2.80001,-2.8 h 8.90111 m 0,-0.74938 H 38.54949 C 36.6,-19 35,-17.4 35,-15.45062 V -6.551 C 35,-4.6 36.6,-3 38.54949,-3 h 8.89944 C 49.39998,-3 51,-4.6 51,-6.54939 v -8.90123 C 51,-17.4 49.39998,-19 47.4506,-19 Z"
       id="path4-3-5-1-9-6-8"
       style="clip-rule:evenodd;fill:#eff0f1;fill-opacity:1;fill-rule:evenodd;stroke-width:0.0163276;stroke-linejoin:round;stroke-miterlimit:1.41421" />
  </g>
</svg>
