<?xml version="1.0" encoding="UTF-8" standalone="no"?>
<svg
   width="32"
   height="32"
   version="1.1"
   id="svg12"
   sodipodi:docname="drive.svg"
   inkscape:version="1.1.1 (3bf5ae0d25, 2021-09-20)"
   xmlns:inkscape="http://www.inkscape.org/namespaces/inkscape"
   xmlns:sodipodi="http://sodipodi.sourceforge.net/DTD/sodipodi-0.dtd"
   xmlns="http://www.w3.org/2000/svg"
   xmlns:svg="http://www.w3.org/2000/svg"
   xmlns:rdf="http://www.w3.org/1999/02/22-rdf-syntax-ns#"
   xmlns:cc="http://creativecommons.org/ns#"
   xmlns:dc="http://purl.org/dc/elements/1.1/">
  <g
     id="22-22-drive-harddisk"
     transform="translate(32,10.000001)">
    <rect
       style="opacity:0.00100002"
       width="22"
       height="22"
       x="0"
       y="-4.6325681e-08"
       id="rect2" />
    <path
       d="M 16.720655,5.748471 C 16.720655,5.335755 16.384563,5 15.971703,5 H 6.082908 C 5.669246,5 5.333333,5.335755 5.333333,5.748471 v 2.170192 c 0,0.412562 0.335913,0.748478 0.749575,0.748478 h 9.888795 c 0.41286,0 0.748952,-0.335916 0.748952,-0.748478 z m -0.808726,0.05977 v 2.05065 H 6.142049 V 5.80824 Z"
       id="path2-36"
       style="fill:#eff0f1;fill-opacity:1;stroke-width:0.157715" />
    <path
       d="m 13.491135,6.988514 h 1.541738 c 0.131855,0 0.2375,-0.106452 0.2375,-0.237821 v -0.29428 c 0,-0.132 -0.105645,-0.237819 -0.2375,-0.237819 h -1.541568 c -0.131832,0 -0.237672,0.105819 -0.237672,0.237819 v 0.29428 c -1.42e-4,0.131526 0.105672,0.237821 0.237502,0.237821 z"
       id="path4-7"
       style="fill:#eff0f1;fill-opacity:1;stroke-width:0.157715" />
    <path
       d="M 15.971703,9.166743 H 6.082908 c -0.413662,0 -0.749575,0.336077 -0.749575,0.748784 v 2.169093 c 0,0.412411 0.335913,0.748466 0.749575,0.748466 h 9.888795 c 0.41286,0 0.748952,-0.336055 0.748952,-0.748466 V 9.915527 c 0,-0.412707 -0.336092,-0.748784 -0.748952,-0.748784 z m -0.05975,0.808558 v 2.049228 H 6.142046 V 9.975301 Z"
       id="path6-5"
       style="fill:#eff0f1;fill-opacity:1;stroke-width:0.157715" />
    <path
       d="m 13.491135,11.154145 h 1.541738 c 0.131855,0 0.2375,-0.105816 0.2375,-0.237646 v -0.294122 c 0,-0.130756 -0.105645,-0.237677 -0.2375,-0.237677 h -1.541568 c -0.131832,0 -0.237672,0.106921 -0.237672,0.237677 v 0.294122 c -1.42e-4,0.13183 0.105672,0.237646 0.237502,0.237646 z"
       id="path8-3"
       style="fill:#eff0f1;fill-opacity:1;stroke-width:0.157715" />
    <path
       d="m 6.082908,17 h 9.888795 c 0.41286,0 0.748952,-0.336225 0.748952,-0.748313 v -2.170358 c 0,-0.412858 -0.336092,-0.748784 -0.748952,-0.748784 H 6.082908 c -0.413662,0 -0.749575,0.335926 -0.749575,0.748784 v 2.170358 C 5.333333,16.663775 5.669246,17 6.082908,17 Z m 0.05914,-0.808256 v -2.051112 h 9.769883 v 2.051112 z"
       id="path10-5"
       style="fill:#eff0f1;fill-opacity:1;stroke-width:0.157715" />
    <path
       d="m 15.032873,14.551307 h -1.541568 c -0.131832,0 -0.237672,0.106285 -0.237672,0.237983 v 0.294593 c 0,0.131662 0.10584,0.237344 0.237672,0.237344 h 1.541568 c 0.131855,0 0.2375,-0.105682 0.2375,-0.237344 V 14.78929 c -1.4e-4,-0.131867 -0.105645,-0.237983 -0.2375,-0.237983 z"
       id="path12-6"
       style="fill:#eff0f1;fill-opacity:1;stroke-width:0.157715" />
    <path
       d="m 15.450667,3.749388 c 1.54932,0 2.799946,1.250613 2.799946,2.8 v 8.899599 c 0,1.549382 -1.250626,2.8 -2.799946,2.8 h -8.90128 c -1.549394,0 -2.800007,-1.250618 -2.800007,-2.8 V 6.549388 c 0,-1.549387 1.250613,-2.8 2.800007,-2.8 h 8.90128 M 15.450667,3 H 6.549387 C 4.6,3 3,4.600001 3,6.549388 v 8.899599 C 3,17.4 4.6,19 6.549387,19 H 15.44902 C 17.399987,19 19,17.4 19,15.450607 V 6.549388 C 19,4.600001 17.399987,3 15.450667,3 Z"
       id="path4-3-2"
       style="clip-rule:evenodd;fill:#eff0f1;fill-opacity:1;fill-rule:evenodd;stroke-width:0.0163263;stroke-linejoin:round;stroke-miterlimit:1.41421" />
  </g>
  <metadata
     id="metadata18">
    <rdf:RDF>
      <cc:Work
         rdf:about="">
        <dc:format>image/svg+xml</dc:format>
        <dc:type
           rdf:resource="http://purl.org/dc/dcmitype/StillImage" />
      </cc:Work>
    </rdf:RDF>
  </metadata>
  <defs
     id="defs16" />
  <sodipodi:namedview
     pagecolor="#ffffff"
     bordercolor="#000000"
     borderopacity="1"
     objecttolerance="10"
     gridtolerance="10"
     guidetolerance="10"
     inkscape:pageopacity="0"
     inkscape:pageshadow="2"
     inkscape:window-width="1920"
     inkscape:window-height="1007"
     id="namedview14"
     showgrid="false"
     inkscape:zoom="5.6568545"
     inkscape:cx="25.013901"
     inkscape:cy="12.727921"
     inkscape:window-x="0"
     inkscape:window-y="0"
     inkscape:window-maximized="1"
     inkscape:current-layer="svg12"
     inkscape:document-rotation="0"
     inkscape:lockguides="true"
     inkscape:showpageshadow="false"
     inkscape:pagecheckerboard="0">
    <inkscape:grid
       type="xygrid"
       id="grid875"
       originx="0"
       originy="-4.6325681e-08" />
  </sodipodi:namedview>
  <g
     id="drive-harddisk">
    <rect
       style="opacity:0.00100002"
       width="32"
       height="32"
       x="0"
       y="4.6325681e-08"
       id="rect7" />
    <path
       d="M 24.580983,8.1227062 C 24.580983,7.5036322 24.076845,7 23.457554,7 H 8.6243622 C 8.003869,7 7.5,7.5036322 7.5,8.1227062 v 3.2552878 c 0,0.618843 0.503869,1.122717 1.1243622,1.122717 H 23.457554 c 0.619291,0 1.123429,-0.503874 1.123429,-1.122717 z m -1.21309,0.089658 V 11.288339 H 8.713074 V 8.212363 Z"
       id="path2"
       style="fill:#eff0f1;fill-opacity:1;stroke-width:0.236572" />
    <path
       d="m 19.736703,9.982771 h 2.312607 c 0.197782,0 0.35625,-0.159678 0.35625,-0.356731 V 9.18462 c 0,-0.198 -0.158468,-0.356729 -0.35625,-0.356729 h -2.312353 c -0.197747,0 -0.356507,0.158729 -0.356507,0.356729 v 0.44142 c -2.14e-4,0.1972882 0.158508,0.356731 0.356253,0.356731 z"
       id="path4"
       style="fill:#eff0f1;fill-opacity:1;stroke-width:0.236572" />
    <path
       d="M 23.457554,13.250115 H 8.6243622 C 8.003869,13.250115 7.5,13.75423 7.5,14.373291 v 3.253639 c 0,0.618617 0.503869,1.122699 1.1243622,1.122699 H 23.457554 c 0.619291,0 1.123429,-0.504082 1.123429,-1.122699 v -3.253639 c 0,-0.619061 -0.504138,-1.123176 -1.123429,-1.123176 z m -0.08962,1.212837 v 3.073841 H 8.713074 v -3.073841 z"
       id="path6"
       style="fill:#eff0f1;fill-opacity:1;stroke-width:0.236572" />
    <path
       d="m 19.736703,16.231217 h 2.312607 c 0.197782,0 0.35625,-0.158723 0.35625,-0.356468 v -0.441183 c 0,-0.196134 -0.158468,-0.356516 -0.35625,-0.356516 h -2.312353 c -0.197747,0 -0.356507,0.160382 -0.356507,0.356516 v 0.441183 c -2.14e-4,0.197745 0.158508,0.356468 0.356253,0.356468 z"
       id="path8"
       style="fill:#eff0f1;fill-opacity:1;stroke-width:0.236572" />
    <path
       d="M 8.6243622,25 H 23.457554 c 0.619291,0 1.123429,-0.504338 1.123429,-1.122469 v -3.255537 c 0,-0.619288 -0.504138,-1.123176 -1.123429,-1.123176 H 8.6243622 C 8.003869,19.498818 7.5,20.002706 7.5,20.621994 v 3.255537 C 7.5,24.495662 8.003869,25 8.6243622,25 Z m 0.088707,-1.212384 V 20.710948 H 23.367893 v 3.076668 z"
       id="path10"
       style="fill:#eff0f1;fill-opacity:1;stroke-width:0.236572" />
    <path
       d="m 22.04931,21.326961 h -2.312353 c -0.197747,0 -0.356507,0.159427 -0.356507,0.356974 v 0.44189 c 0,0.197492 0.15876,0.356016 0.356507,0.356016 h 2.312353 c 0.197782,0 0.35625,-0.158524 0.35625,-0.356016 v -0.44189 c -2.1e-4,-0.1978 -0.158468,-0.356974 -0.35625,-0.356974 z"
       id="path12"
       style="fill:#eff0f1;fill-opacity:1;stroke-width:0.236572" />
    <path
       d="m 22.676,5.124082 c 2.32398,0 4.19992,1.875919 4.19992,4.2 V 22.67348 c 0,2.324074 -1.87594,4.2 -4.19992,4.2 H 9.32408 c -2.32409,0 -4.20001,-1.875926 -4.20001,-4.2 V 9.324082 c 0,-2.324081 1.87592,-4.2 4.20001,-4.2 H 22.676 M 22.676,4 H 9.32408 C 6.4,4 4,6.400001 4,9.324082 V 22.67348 C 4,25.6 6.4,28 9.32408,28 H 22.67353 C 25.59998,28 28,25.6 28,22.675911 V 9.324082 C 28,6.400001 25.59998,4 22.676,4 Z"
       id="path4-3"
       style="clip-rule:evenodd;fill:#eff0f1;fill-opacity:1;fill-rule:evenodd;stroke-width:0.0244895;stroke-linejoin:round;stroke-miterlimit:1.41421" />
  </g>
</svg>
