<?xml version="1.0" encoding="UTF-8" standalone="no"?>
<svg
   width="32"
   height="32"
   version="1.1"
   id="svg12"
   sodipodi:docname="drive.svg"
   inkscape:version="1.2 (dc2aedaf03, 2022-05-15)"
   xmlns:inkscape="http://www.inkscape.org/namespaces/inkscape"
   xmlns:sodipodi="http://sodipodi.sourceforge.net/DTD/sodipodi-0.dtd"
   xmlns="http://www.w3.org/2000/svg"
   xmlns:svg="http://www.w3.org/2000/svg"
   xmlns:rdf="http://www.w3.org/1999/02/22-rdf-syntax-ns#"
   xmlns:cc="http://creativecommons.org/ns#"
   xmlns:dc="http://purl.org/dc/elements/1.1/">
  <rect
     style="opacity:0.00100002"
     width="22"
     height="22"
     x="32"
     y="10.000001"
     id="rect2" />
  <path
     d="m 49,17 c 0,-0.412716 0,-0.999999 -1.028297,-0.999999 H 38.082908 C 37,16.000001 37,16.587284 37,17 v 2 c 0,0.412562 0,1 1,1 h 10 c 1,0 1,-0.587438 1,-1 z m -1,0 v 2 H 38 v -2 z"
     id="path2-36"
     style="fill:#eff0f1;fill-opacity:1;stroke-width:0.157715"
     sodipodi:nodetypes="sssssssssccccc" />
  <path
     d="M 48,22 H 38 c -1,0 -1,0.587293 -1,1 v 2 c 0,0.412411 0,1 1,1 h 10 c 1,0 1,-0.587589 1,-1 v -2 c 0,-0.412707 0,-1 -1,-1 z m 0,1 v 2 H 38 v -2 z"
     id="path6-5"
     style="fill:#eff0f1;fill-opacity:1;stroke-width:0.157715"
     sodipodi:nodetypes="sssssssssccccc" />
  <metadata
     id="metadata18">
    <rdf:RDF>
      <cc:Work
         rdf:about="">
        <dc:format>image/svg+xml</dc:format>
        <dc:type
           rdf:resource="http://purl.org/dc/dcmitype/StillImage" />
      </cc:Work>
    </rdf:RDF>
  </metadata>
  <defs
     id="defs16" />
  <sodipodi:namedview
     pagecolor="#ffffff"
     bordercolor="#000000"
     borderopacity="1"
     objecttolerance="10"
     gridtolerance="10"
     guidetolerance="10"
     inkscape:pageopacity="0"
     inkscape:pageshadow="2"
     inkscape:window-width="1920"
     inkscape:window-height="1002"
     id="namedview14"
     showgrid="false"
     inkscape:zoom="14.764824"
     inkscape:cx="30.44398"
     inkscape:cy="21.706998"
     inkscape:window-x="0"
     inkscape:window-y="0"
     inkscape:window-maximized="1"
     inkscape:current-layer="svg12"
     inkscape:document-rotation="0"
     inkscape:lockguides="false"
     inkscape:showpageshadow="false"
     inkscape:pagecheckerboard="0"
     inkscape:deskcolor="#d1d1d1">
    <inkscape:grid
       type="xygrid"
       id="grid875"
       originx="0"
       originy="-4.6325681e-08" />
  </sodipodi:namedview>
  <g
     id="drive-harddisk">
    <rect
       style="opacity:0.00100002"
       width="32"
       height="32"
       x="0"
       y="4.6325681e-08"
       id="rect7" />
    <path
       d="M 25,8.0205101 C 25,7.4577881 24.468738,7 23.816127,7 H 8.1848569 C 7.5309789,7 7,7.4577881 7,8.0205101 V 10.979478 C 7,11.541992 7.5309789,12 8.1848569,12 H 23.816127 C 24.468738,12 25,11.541992 25,10.979478 Z M 24,8 v 3 H 8 V 8 Z"
       id="path2"
       style="fill:#eff0f1;fill-opacity:1;stroke-width:0.231536"
       sodipodi:nodetypes="sssssssssccccc" />
    <path
       d="m 19.353296,10 h 2.293411 C 21.842847,10 22,9.8617363 22,9.6911099 V 9.3088883 C 22,9.137442 21.842847,9 21.646707,9 H 19.353548 C 19.157442,9 19,9.137442 19,9.3088883 V 9.6911099 C 18.999788,9.8619399 19.157192,10 19.353296,10 Z"
       id="path4"
       style="fill:#eff0f1;fill-opacity:1;stroke-width:0.219222" />
    <path
       d="M 23.816127,13 H 8.1848565 C 7.5309791,13 7,13.458325 7,14.02116 v 2.958115 C 7,17.541703 7.5309791,18 8.1848565,18 H 23.816127 C 24.468742,18 25,17.541703 25,16.979275 V 14.02116 C 25,13.458325 24.468742,13 23.816127,13 Z M 24,14 v 3 H 8 v -3 z"
       id="path6"
       style="fill:#eff0f1;fill-opacity:1;stroke-width:0.231561"
       sodipodi:nodetypes="sssssssssccccc" />
    <path
       d="m 19.353296,16 h 2.293411 C 21.842847,16 22,15.862478 22,15.691147 V 15.308895 C 22,15.138959 21.842847,15 21.646707,15 H 19.353548 C 19.157442,15 19,15.138959 19,15.308895 v 0.382252 C 18.999788,15.862478 19.157192,16 19.353296,16 Z"
       id="path8"
       style="fill:#eff0f1;fill-opacity:1;stroke-width:0.21929" />
    <path
       d="M 8.1848565,25 H 23.816127 C 24.468742,25 25,24.54161 25,23.979792 V 21.02085 C 25,20.45798 24.468742,20 23.816127,20 H 8.1848565 C 7.5309791,20 7,20.45798 7,21.02085 v 2.958942 C 7,24.54161 7.5309791,25 8.1848565,25 Z M 8,24 v -3 h 16 v 3 z"
       id="path10"
       style="fill:#eff0f1;fill-opacity:1;stroke-width:0.231526"
       sodipodi:nodetypes="sssssssssccccc" />
    <path
       d="M 21.646707,22 H 19.353548 C 19.157442,22 19,22.138046 19,22.3091 v 0.382629 C 19,22.862736 19.157442,23 19.353548,23 h 2.293159 C 21.842847,23 22,22.862736 22,22.691729 V 22.3091 C 21.999792,22.137827 21.842847,22 21.646707,22 Z"
       id="path12"
       style="fill:#eff0f1;fill-opacity:1;stroke-width:0.219222" />
    <path
       d="M 22.67596,5 C 24.999999,5 27,7 27,9.32408 V 22.673477 C 27,24.997526 24.999998,27 22.67596,27 H 9.32404 C 7,27 5,24.997049 5,22.673 V 9.32408 C 5,7 7,5 9.32404,5 h 13.35192 m 0,-1 H 9.32404 C 6.4,4 4,6.4 4,9.324081 V 22.673478 C 4,25.599999 6.4,28 9.32404,28 h 13.34945 c 2.926509,0 5.326509,-2.400001 5.326509,-5.324053 V 9.324081 C 27.999999,6.4 25.599999,4 22.67596,4 Z"
       id="path4-3"
       style="clip-rule:evenodd;fill:#eff0f1;fill-opacity:1;fill-rule:evenodd;stroke-width:0.0244919;stroke-linejoin:round;stroke-miterlimit:1.41421"
       sodipodi:nodetypes="cssssssscsssssssss" />
  </g>
  <path
     d="M 47.251,14 C 48.800359,14 50,15.199613 50,16.749 v 8.5 C 50,26.798366 48.800359,28 47.251,28 H 38.749 C 37.19964,28 36,26.798366 36,25.249 v -8.5 C 36,15.199613 37.19964,14 38.749,14 h 8.502 m 0.19964,-1 H 38.54936 C 36.6,13 35,14.6 35,16.549387 v 8.899598 C 35,27.399999 36.6,29 38.54936,29 h 8.899633 c 1.951006,0 3.551006,-1.600001 3.551006,-3.549369 V 16.549387 C 50.999999,14.6 49.399999,13 47.45064,13 Z"
     id="path4-3-3"
     style="clip-rule:evenodd;fill:#eff0f1;fill-opacity:1;fill-rule:evenodd;stroke-width:0.0163279;stroke-linejoin:round;stroke-miterlimit:1.41421"
     sodipodi:nodetypes="cssssssscsssssssss" />
</svg>
