<?xml version="1.0" encoding="UTF-8" standalone="no"?>
<svg
   width="32"
   height="32"
   version="1.1"
   id="svg16"
   sodipodi:docname="dropbox.svg"
   inkscape:version="1.1.1 (3bf5ae0d25, 2021-09-20)"
   xmlns:inkscape="http://www.inkscape.org/namespaces/inkscape"
   xmlns:sodipodi="http://sodipodi.sourceforge.net/DTD/sodipodi-0.dtd"
   xmlns:xlink="http://www.w3.org/1999/xlink"
   xmlns="http://www.w3.org/2000/svg"
   xmlns:svg="http://www.w3.org/2000/svg"
   xmlns:rdf="http://www.w3.org/1999/02/22-rdf-syntax-ns#"
   xmlns:cc="http://creativecommons.org/ns#"
   xmlns:dc="http://purl.org/dc/elements/1.1/">
  <metadata
     id="metadata22">
    <rdf:RDF>
      <cc:Work
         rdf:about="">
        <dc:format>image/svg+xml</dc:format>
        <dc:type
           rdf:resource="http://purl.org/dc/dcmitype/StillImage" />
      </cc:Work>
    </rdf:RDF>
  </metadata>
  <defs
     id="defs20">
    <linearGradient
       id="oomox"
       x1="131.53468"
       x2="131.53468"
       y1="146.39674"
       y2="160.8511"
       gradientTransform="scale(1.0377491,0.96362406)"
       gradientUnits="userSpaceOnUse">
      <stop
         offset="0%"
         style="stop-color:#303b3d; stop-opacity:1"
         id="stop18" />
      <stop
         offset="100%"
         style="stop-color:#bc985d; stop-opacity:1"
         id="stop20" />
    </linearGradient>
    <linearGradient
       inkscape:collect="always"
       xlink:href="#linearGradient907"
       id="linearGradient909-5"
       x1="17.000017"
       y1="21.899982"
       x2="17.000017"
       y2="22.899982"
       gradientUnits="userSpaceOnUse"
       gradientTransform="matrix(0.92213591,0,0,0.92213592,1.2458294,1.2458254)" />
    <linearGradient
       inkscape:collect="always"
       id="linearGradient907">
      <stop
         style="stop-color:#eff0f1;stop-opacity:1;"
         offset="0"
         id="stop902" />
      <stop
         style="stop-color:#eff0f1;stop-opacity:0;"
         offset="1"
         id="stop904" />
    </linearGradient>
    <linearGradient
       inkscape:collect="always"
       xlink:href="#linearGradient907"
       id="linearGradient902"
       gradientUnits="userSpaceOnUse"
       gradientTransform="matrix(0.61475727,0,0,0.61475727,1.163886,1.1638833)"
       x1="17.000017"
       y1="21.899982"
       x2="17.000017"
       y2="22.899982" />
  </defs>
  <sodipodi:namedview
     pagecolor="#ffffff"
     bordercolor="#666666"
     borderopacity="1"
     objecttolerance="10"
     gridtolerance="10"
     guidetolerance="10"
     inkscape:pageopacity="0"
     inkscape:pageshadow="2"
     inkscape:window-width="1920"
     inkscape:window-height="1007"
     id="namedview18"
     showgrid="false"
     inkscape:zoom="9.8125003"
     inkscape:cx="23.898088"
     inkscape:cy="19.261146"
     inkscape:window-x="0"
     inkscape:window-y="0"
     inkscape:window-maximized="1"
     inkscape:current-layer="svg16"
     inkscape:document-rotation="0"
     inkscape:pagecheckerboard="0">
    <inkscape:grid
       type="xygrid"
       id="grid876"
       originx="0"
       originy="0" />
  </sodipodi:namedview>
  <g
     id="dropbox">
    <rect
       style="opacity:0.00100002"
       width="32"
       height="32"
       x="0"
       y="0"
       id="rect9" />
    <path
       d="M 11.71429,6 6,9.8461544 10.285723,12.923094 16,9.076929 Z M 16,9.076929 21.714291,12.923094 26,9.8461544 20.285725,6 Z M 21.714291,12.923094 16,16.769238 20.285725,19.84617 26,15.999991 Z M 16,16.769238 10.285723,12.923094 6,15.999991 11.71429,19.84617 Z m 0,1.847949 -4.260594,3.058909 -1.453683,-0.979563 v 0.222356 1.385212 L 16.011161,26 l 5.70313,-3.683876 v -1.382212 -0.237379 l -1.453693,0.979563 z"
       style="fill:#eff0f1;fill-opacity:1;stroke-width:1.38366"
       class="ColorScheme-Text"
       id="path58" />
    <path
       d="m 22.669109,5.1351694 c 2.321713,0 4.195722,1.8740064 4.195722,4.1957188 V 22.66667 c 0,2.321713 -1.874009,4.195722 -4.195722,4.195722 H 9.3308894 c -2.321709,0 -4.195722,-1.874009 -4.195722,-4.195722 V 9.3308882 c 0,-2.3217124 1.874013,-4.1957188 4.195722,-4.1957188 H 22.669109 m 0,-1.122937 H 9.3308894 c -2.921106,0 -5.318657,2.3975553 -5.318657,5.3186558 V 22.66667 c 0,2.923548 2.397551,5.321098 5.318657,5.321098 H 22.666665 c 2.923554,0 5.321104,-2.39755 5.321104,-5.318661 V 9.3308882 c 0,-2.9211005 -2.39755,-5.3186558 -5.31866,-5.3186558 z"
       id="path4-6"
       style="clip-rule:evenodd;fill:#eff0f1;fill-opacity:1;fill-rule:evenodd;stroke:url(#linearGradient909-5);stroke-width:0.0244648;stroke-linejoin:round;stroke-miterlimit:1.41421" />
  </g>
  <g
     id="22-22-dropbox"
     transform="translate(32,10)">
    <rect
       style="opacity:0.00100002"
       width="22"
       height="22"
       x="0"
       y="0"
       id="rect2" />
    <path
       d="M 8.14286,4.3333334 4.333333,6.8974361 7.190482,8.9487291 11,6.3846194 Z M 11,6.3846194 14.809527,8.9487291 17.666666,6.8974361 13.85715,4.3333334 Z M 14.809527,8.9487291 11,11.512825 l 2.85715,2.051288 3.809516,-2.564119 z M 11,11.512825 7.190482,8.9487291 4.333333,10.999994 8.14286,13.564113 Z m 0,1.231966 -2.840396,2.039273 -0.969122,-0.653042 v 0.148237 0.923475 l 3.816958,2.463932 3.802087,-2.455917 v -0.921475 -0.158252 l -0.969129,0.653042 z"
       style="fill:#eff0f1;fill-opacity:1;stroke-width:0.92244"
       class="ColorScheme-Text"
       id="path58-75" />
    <path
       d="m 15.446072,3.7567797 c 1.547809,0 2.797148,1.2493376 2.797148,2.7971457 v 8.8905206 c 0,1.547809 -1.249339,2.797148 -2.797148,2.797148 H 6.553926 c -1.547806,0 -2.797148,-1.249339 -2.797148,-2.797148 V 6.5539254 c 0,-1.5478081 1.249342,-2.7971457 2.797148,-2.7971457 h 8.892146 m 0,-0.7486247 H 6.553926 c -1.947404,0 -3.545771,1.5983702 -3.545771,3.5457704 v 8.8905206 c 0,1.949032 1.598367,3.547399 3.545771,3.547399 h 8.890517 c 1.949036,0 3.547403,-1.598367 3.547403,-3.545774 V 6.5539254 c 0,-1.9474002 -1.598367,-3.5457704 -3.545774,-3.5457704 z"
       id="path4-6-3"
       style="clip-rule:evenodd;fill:#eff0f1;fill-opacity:1;fill-rule:evenodd;stroke:url(#linearGradient902);stroke-width:0.0163099;stroke-linejoin:round;stroke-miterlimit:1.41421" />
  </g>
</svg>
