<?xml version="1.0" encoding="UTF-8" standalone="no"?>
<svg
   width="32"
   height="32"
   version="1.1"
   id="svg3071"
   sodipodi:docname="emblem.svg"
   inkscape:version="1.2.1 (9c6d41e410, 2022-07-14)"
   xmlns:inkscape="http://www.inkscape.org/namespaces/inkscape"
   xmlns:sodipodi="http://sodipodi.sourceforge.net/DTD/sodipodi-0.dtd"
   xmlns="http://www.w3.org/2000/svg"
   xmlns:svg="http://www.w3.org/2000/svg">
  <defs
     id="defs3075" />
  <sodipodi:namedview
     id="namedview3073"
     pagecolor="#ffffff"
     bordercolor="#666666"
     borderopacity="1.0"
     inkscape:showpageshadow="2"
     inkscape:pageopacity="0.0"
     inkscape:pagecheckerboard="0"
     inkscape:deskcolor="#d1d1d1"
     showgrid="false"
     inkscape:zoom="10.429825"
     inkscape:cx="13.231286"
     inkscape:cy="24.880571"
     inkscape:window-width="1920"
     inkscape:window-height="1000"
     inkscape:window-x="0"
     inkscape:window-y="0"
     inkscape:window-maximized="1"
     inkscape:current-layer="svg3071">
    <inkscape:grid
       type="xygrid"
       id="grid3232"
       originx="0"
       originy="0" />
  </sodipodi:namedview>
  <g
     id="emblem-shared-symbolic">
    <rect
       style="opacity:0.00100002"
       width="32"
       height="32"
       x="0"
       y="0"
       id="rect3066" />
    <path
       style="fill:#eff0f1;stroke-width:0.77218;fill-opacity:1"
       d="m 20.571431,7 a 3.4285704,3.5217398 0 0 0 -3.428583,3.52174 3.4285704,3.5217398 0 0 0 0.297628,1.423064 l -3.263403,1.955 A 3.4285704,3.5217398 0 0 0 11.428572,12.478256 3.4285704,3.5217398 0 0 0 8,16 a 3.4285704,3.5217398 0 0 0 3.428572,3.521746 3.4285704,3.5217398 0 0 0 2.748501,-1.423065 l 3.261901,1.954997 A 3.4285704,3.5217398 0 0 0 17.142848,21.478254 3.4285704,3.5217398 0 0 0 20.571431,25 3.4285704,3.5217398 0 0 0 24,21.478254 3.4285704,3.5217398 0 0 0 20.571431,17.95651 3.4285704,3.5217398 0 0 0 17.822907,19.37959 L 14.561,17.424602 A 3.4285704,3.5217398 0 0 0 14.857152,16 3.4285704,3.5217398 0 0 0 14.559524,14.576941 l 3.263383,-1.954997 A 3.4285704,3.5217398 0 0 0 20.571431,14.04349 3.4285704,3.5217398 0 0 0 24,10.52174 3.4285704,3.5217398 0 0 0 20.571431,7 Z"
       id="path3068" />
    <path
       d="M 22.675959,5 C 24.999998,5 27,7 27,9.32408 V 22.673476 C 27,24.997525 24.999997,27 22.675959,27 H 9.32404 C 7,27 5,24.997526 5,22.673476 V 9.32408 C 5,7 7,5 9.32404,5 h 13.351919 m 0,-1 H 9.32404 C 6.4,4 4,6.4 4,9.324081 V 22.673478 C 4,25.599999 6.4,28 9.32404,28 h 13.349449 c 2.926509,0 5.326509,-2.400001 5.326509,-5.324053 V 9.324081 C 27.999998,6.4 25.599999,4 22.675959,4 Z"
       id="path4-3-36"
       style="clip-rule:evenodd;fill:#eff0f1;fill-opacity:1;fill-rule:evenodd;stroke-width:0.0244919;stroke-linejoin:round;stroke-miterlimit:1.41421"
       sodipodi:nodetypes="cssssssscsssssssss" />
  </g>
  <g
     id="22-22-emblem-shared-symbolic"
     transform="translate(32.000001,10.000001)">
    <rect
       style="opacity:0.00100002"
       width="22"
       height="22"
       x="0"
       y="0"
       id="rect3061" />
    <path
       style="fill:#eff0f1;stroke-width:0.731924;fill-opacity:1"
       d="m 13.857145,5 a 2.142857,2.25 0 0 0 -2.14286,2.25 2.142857,2.25 0 0 0 0.163229,0.856934 L 9.7430246,9.5073244 A 2.142857,2.25 0 0 0 8.142857,8.75 2.142857,2.25 0 0 0 6,11 2.142857,2.25 0 0 0 8.142857,13.25 2.142857,2.25 0 0 0 9.7444197,12.492674 l 2.1316973,1.400388 A 2.142857,2.25 0 0 0 11.714285,14.75 2.142857,2.25 0 0 0 13.857145,17 2.142857,2.25 0 0 0 16,14.75 2.142857,2.25 0 0 0 13.857145,12.5 2.142857,2.25 0 0 0 12.25558,13.257326 L 10.123883,11.856937 A 2.142857,2.25 0 0 0 10.285715,11 2.142857,2.25 0 0 0 10.122488,10.143066 L 12.25697,8.7426756 A 2.142857,2.25 0 0 0 13.857145,9.5 2.142857,2.25 0 0 0 16,7.25 2.142857,2.25 0 0 0 13.857145,5 Z"
       id="path3063" />
    <path
       d="m 15.451,3.999999 c 1.54936,0 2.549,1.199613 2.549,2.749 v 8.6 c 0,1.549366 -1.199641,2.651 -2.749,2.651 H 6.6499995 c -1.54936,0 -2.649622,-1.101633 -2.64968,-2.651 L 3.9999995,6.749 c -5.8e-5,-1.549386 1,-2.749001 2.54936,-2.749001 H 15.450639 M 15.450639,3 H 6.5493595 c -1.94936,0 -3.54936,1.6 -3.54936,3.549387 v 8.899598 c 0,1.951014 1.6,3.551015 3.54936,3.551015 h 8.8996335 c 1.951006,0 3.551006,-1.600001 3.551006,-3.549369 V 6.549387 C 18.999999,4.6 17.399999,3 15.450639,3 Z"
       id="path4-3-3-7"
       style="clip-rule:evenodd;fill:#eff0f1;fill-opacity:1;fill-rule:evenodd;stroke-width:0.0163279;stroke-linejoin:round;stroke-miterlimit:1.41421"
       sodipodi:nodetypes="cssssssscsssssssss" />
  </g>
</svg>
