<?xml version="1.0" encoding="UTF-8" standalone="no"?>
<svg
   inkscape:version="1.3.2 (091e20ef0f, 2023-11-25)"
   sodipodi:docname="image.svg"
   id="svg44"
   version="1.1"
   height="32"
   width="32"
   style="enable-background:new"
   xmlns:inkscape="http://www.inkscape.org/namespaces/inkscape"
   xmlns:sodipodi="http://sodipodi.sourceforge.net/DTD/sodipodi-0.dtd"
   xmlns:xlink="http://www.w3.org/1999/xlink"
   xmlns="http://www.w3.org/2000/svg"
   xmlns:svg="http://www.w3.org/2000/svg"
   xmlns:rdf="http://www.w3.org/1999/02/22-rdf-syntax-ns#"
   xmlns:cc="http://creativecommons.org/ns#"
   xmlns:dc="http://purl.org/dc/elements/1.1/">
  <metadata
     id="metadata48">
    <rdf:RDF>
      <cc:Work
         rdf:about="">
        <dc:format>image/svg+xml</dc:format>
        <dc:type
           rdf:resource="http://purl.org/dc/dcmitype/StillImage" />
      </cc:Work>
    </rdf:RDF>
  </metadata>
  <sodipodi:namedview
     showguides="true"
     inkscape:current-layer="svg44"
     inkscape:window-maximized="1"
     inkscape:window-y="0"
     inkscape:window-x="0"
     inkscape:cy="21.08035"
     inkscape:cx="22.848094"
     inkscape:zoom="11.313854"
     showgrid="false"
     id="namedview46"
     inkscape:window-height="994"
     inkscape:window-width="1920"
     inkscape:pageshadow="2"
     inkscape:pageopacity="0"
     guidetolerance="10"
     gridtolerance="10"
     objecttolerance="10"
     borderopacity="1"
     bordercolor="#000000"
     pagecolor="#ffffff"
     inkscape:document-rotation="0"
     inkscape:lockguides="false"
     inkscape:showpageshadow="true"
     inkscape:pagecheckerboard="false"
     inkscape:deskcolor="#cccccc">
    <inkscape:grid
       type="xygrid"
       id="grid905"
       originx="0"
       originy="0"
       spacingy="1"
       spacingx="1"
       units="px"
       visible="false" />
  </sodipodi:namedview>
  <defs
     id="defs4">
    <linearGradient
       id="linearGradient5606"
       inkscape:swatch="solid">
      <stop
         style="stop-color:#000000"
         offset="0"
         id="stop5608" />
    </linearGradient>
    <linearGradient
       xlink:href="#1"
       id="9"
       gradientUnits="userSpaceOnUse"
       x1="252.72501"
       y1="388.505"
       x2="255.41499"
       y2="-76.616997"
       gradientTransform="matrix(0.02890894,0,0,0.02711282,8.3449777,8.8451403)" />
    <linearGradient
       id="1">
      <stop
         stop-color="#f9f9f9"
         id="stop2" />
      <stop
         offset="1"
         stop-color="#afafaf"
         id="stop4" />
    </linearGradient>
    <linearGradient
       id="oomox"
       x1="1.4797103"
       x2="1.4797103"
       y1="0.4730846"
       y2="14.665033"
       gradientTransform="matrix(0.94613118,0,0,1.0569359,7.8239662,8.0979799)"
       gradientUnits="userSpaceOnUse">
      <stop
         offset="0%"
         style="stop-color:#303b3d; stop-opacity:1"
         id="stop18" />
      <stop
         offset="100%"
         style="stop-color:#bc985d; stop-opacity:1"
         id="stop20" />
    </linearGradient>
  </defs>
  <g
     id="g34"
     transform="matrix(0,0.23269337,-0.3257329,0,32.286645,4.6684124)">
    <g
       id="g32">
      <g
         id="g30">
        <g
           id="g28">
          <g
             id="g26">
            <g
               id="g24">
              <g
                 id="g22" />
            </g>
          </g>
        </g>
      </g>
    </g>
  </g>
  <g
     id="g52"
     transform="matrix(0,0.23269337,-0.3257329,0,32.286645,4.6684124)">
    <g
       id="g50">
      <g
         id="g48">
        <g
           id="g46">
          <g
             id="g44">
            <g
               id="g42">
              <g
                 id="g40" />
            </g>
          </g>
        </g>
      </g>
    </g>
  </g>
  <g
     id="g70"
     transform="matrix(0,0.23269337,-0.3257329,0,32.286645,4.6684124)">
    <g
       id="g68">
      <g
         id="g66">
        <g
           id="g64">
          <g
             id="g62">
            <g
               id="g60">
              <g
                 id="g58" />
            </g>
          </g>
        </g>
      </g>
    </g>
  </g>
  <g
     id="g88"
     transform="matrix(0,0.23269337,-0.3257329,0,32.286645,4.6684124)">
    <g
       id="g86">
      <g
         id="g84">
        <g
           id="g82">
          <g
             id="g80">
            <g
               id="g78">
              <g
                 id="g76" />
            </g>
          </g>
        </g>
      </g>
    </g>
  </g>
  <g
     id="g106"
     transform="matrix(0,0.23269337,-0.3257329,0,32.286645,4.6684124)">
    <g
       id="g104">
      <g
         id="g102">
        <g
           id="g100">
          <g
             id="g98">
            <g
               id="g96">
              <g
                 id="g94" />
            </g>
          </g>
        </g>
      </g>
    </g>
  </g>
  <g
     id="g128"
     transform="matrix(0,0.23269337,-0.3257329,0,32.286645,4.6684123)">
    <g
       id="g126">
      <g
         id="g124">
        <g
           id="g122">
          <g
             id="g120">
            <g
               id="g118">
              <g
                 id="g116">
                <g
                   id="g114" />
              </g>
            </g>
          </g>
        </g>
      </g>
    </g>
  </g>
  <g
     id="g146"
     transform="matrix(0,0.23269337,-0.3257329,0,32.286645,4.6684123)">
    <g
       id="g144">
      <g
         id="g142">
        <g
           id="g140">
          <g
             id="g138">
            <g
               id="g136">
              <g
                 id="g134">
                <g
                   id="g132" />
              </g>
            </g>
          </g>
        </g>
      </g>
    </g>
  </g>
  <g
     id="image-x-generic">
    <rect
       id="rect11"
       style="opacity:0.00100002;fill:#d1d5e9;fill-opacity:1"
       y="0"
       x="0"
       height="32"
       width="32" />
    <path
       style="fill:#eff0f1;fill-opacity:1;stroke:none;stroke-width:1.33405;stroke-linecap:round;stroke-miterlimit:4;stroke-dasharray:none;stroke-opacity:1"
       d="m 13.617978,17.451036 c -0.416064,-0.02834 -0.83606,0.09178 -1.134873,0.384738 L 5.0216202,24.953371 8.0780248,27.374138 23.188406,27.040979 14.729061,17.96125 c -0.283935,-0.304802 -0.695048,-0.481781 -1.111083,-0.510214 z"
       id="rect2428"
       inkscape:connector-curvature="0"
       sodipodi:nodetypes="ccccccc" />
    <path
       style="fill:#eff0f1;fill-opacity:0.6;stroke:none;stroke-width:1.25921;stroke-linecap:round;stroke-miterlimit:4;stroke-dasharray:none;stroke-opacity:1"
       d="m 20.501918,18.973418 c -0.370692,-0.02836 -0.744887,0.09168 -1.01111,0.384723 L 12.509192,27.040979 25.438742,27 26.932075,25.861388 21.491836,19.483635 c -0.252972,-0.304832 -0.619241,-0.48179 -0.989918,-0.510217 z"
       id="path2433"
       inkscape:connector-curvature="0"
       sodipodi:nodetypes="ccccccc" />
    <circle
       style="fill:#eff0f1;fill-opacity:1;stroke:none;stroke-width:2.01871;stroke-linecap:round;stroke-miterlimit:4;stroke-dasharray:none;stroke-opacity:1"
       id="path2451"
       cx="22.289515"
       cy="13.379154"
       r="1.5" />
    <path
       d="M 22.675959,5 C 24.999998,5 27,7 27,9.32408 V 22.673476 C 27,24.997525 24.999997,27 22.675959,27 H 9.3240405 C 7.000001,27 5.000001,24.997526 5.000001,22.673476 V 9.32408 C 5.000001,7 7.000001,5 9.3240405,5 H 22.675959 m 0,-1 H 9.3240405 C 6.400001,4 4.000001,6.4 4.000001,9.324081 v 13.349397 c 0,2.926521 2.4,5.326522 5.3240395,5.326522 H 22.673489 c 2.926509,0 5.326509,-2.400001 5.326509,-5.324053 V 9.324081 C 27.999998,6.4 25.599999,4 22.675959,4 Z"
       id="path4-3-36"
       style="clip-rule:evenodd;fill:#eff0f1;fill-opacity:1;fill-rule:evenodd;stroke-width:0.0244919;stroke-linejoin:round;stroke-miterlimit:1.41421"
       sodipodi:nodetypes="cssssssscsssssssss" />
  </g>
  <g
     id="22-22-image-x-generic"
     transform="translate(32,10)">
    <path
       id="path6"
       d="m 0,0 h 22 c 0,0 0,0 0,0 v 22 c 0,0 0,0 0,0 H 0 c 0,0 0,0 0,0 z"
       style="opacity:0;fill:#d1d5e9;fill-opacity:1" />
    <path
       style="fill:#eff0f1;fill-opacity:1;stroke:none;stroke-width:0.953185;stroke-linecap:round;stroke-miterlimit:4;stroke-dasharray:none;stroke-opacity:1;enable-background:new"
       d="m 9.486694,10.840061 c -0.280609,-0.02148 -0.563868,0.0695 -0.765395,0.291233 L 4,16.610438 5.0415478,18 15.94132,18.099493 10.236046,11.226278 C 10.044549,10.995553 9.76728,10.861576 9.486694,10.840061 Z"
       id="rect2428-3"
       inkscape:connector-curvature="0"
       sodipodi:nodetypes="ccccccc" />
    <path
       style="fill:#eff0f1;fill-opacity:0.6;stroke:none;stroke-width:0.953185;stroke-linecap:round;stroke-miterlimit:4;stroke-dasharray:none;stroke-opacity:1;enable-background:new"
       d="m 13.907692,11.992475 c -0.280607,-0.02151 -0.563867,0.06948 -0.765392,0.291229 l -5.284989,5.815789 h 9.446634 L 18,16.397678 14.657047,12.378699 c -0.191502,-0.230744 -0.468763,-0.364707 -0.749355,-0.386224 z"
       id="path2433-6"
       inkscape:connector-curvature="0"
       sodipodi:nodetypes="ccccccc" />
    <circle
       style="fill:#eff0f1;fill-opacity:1;stroke:none;stroke-width:1.34566;stroke-linecap:round;stroke-miterlimit:4;stroke-dasharray:none;stroke-opacity:1;enable-background:new"
       id="path2451-7"
       cx="14"
       cy="9"
       r="1" />
    <path
       d="m 15.451,3.999999 c 1.54936,0 2.549,1.199613 2.549,2.749 v 8.6 c 0,1.549366 -1.199641,2.651 -2.748999,2.651 H 6.65 c -1.54936,0 -2.649622,-1.101633 -2.64968,-2.651 L 4,6.749 C 3.999942,5.199614 5,3.999999 6.54936,3.999999 h 8.901279 M 15.450639,3 H 6.54936 C 4.6,3 3,4.6 3,6.549387 v 8.899598 C 3,17.399999 4.6,19 6.54936,19 h 8.899633 C 17.399999,19 19,17.399999 19,15.450631 V 6.549387 C 19,4.6 17.399999,3 15.450639,3 Z"
       id="path4-3-3-7"
       style="clip-rule:evenodd;fill:#eff0f1;fill-opacity:1;fill-rule:evenodd;stroke-width:0.0163279;stroke-linejoin:round;stroke-miterlimit:1.41421"
       sodipodi:nodetypes="cssssssscsssssssss" />
  </g>
</svg>
