<?xml version="1.0" encoding="UTF-8" standalone="no"?>
<svg
   width="32"
   height="32"
   version="1"
   id="svg12"
   sodipodi:docname="kate.svg"
   inkscape:version="1.1 (c68e22c387, 2021-05-23)"
   xmlns:inkscape="http://www.inkscape.org/namespaces/inkscape"
   xmlns:sodipodi="http://sodipodi.sourceforge.net/DTD/sodipodi-0.dtd"
   xmlns:xlink="http://www.w3.org/1999/xlink"
   xmlns="http://www.w3.org/2000/svg"
   xmlns:svg="http://www.w3.org/2000/svg"
   xmlns:rdf="http://www.w3.org/1999/02/22-rdf-syntax-ns#"
   xmlns:cc="http://creativecommons.org/ns#"
   xmlns:dc="http://purl.org/dc/elements/1.1/">
  <g
     id="22-22-kate"
     transform="translate(32,10)">
    <rect
       style="opacity:0.00100002"
       width="22"
       height="22"
       x="0"
       y="0"
       id="rect2" />
    <path
       style="fill:#eff0f1;fill-opacity:1;stroke:none;stroke-width:0.0377149;stroke-linecap:butt;stroke-linejoin:miter;stroke-miterlimit:4;stroke-dasharray:none;stroke-opacity:1"
       d="m 9.1308517,8.3386227 c -0.456059,-1.514074 -3.033367,-1.146675 -3.464194,-1.179545 0.483537,-0.240025 0.920505,-0.437874 1.917342,-1.159982 1.920325,-1.391091 3.9534143,-1.087712 4.9715623,-0.535277 -2.7834263,0.105809 -2.253152,1.622208 -1.843188,2.42121 -0.521376,0.151439 -1.3443603,0.380047 -1.5815223,0.453594 z"
       id="path905-75"
       inkscape:connector-curvature="0" />
    <path
       sodipodi:nodetypes="cssscccccsssc"
       inkscape:connector-curvature="0"
       id="path907-3"
       d="M 16.00142,6.2551877 C 14.999192,7.5791107 13.332712,9.367821 11.508878,9.603445 9.6850507,9.839062 7.9463367,9.578005 7.5435957,10.936341 c -0.370901,1.250868 0.933602,2.418734 2.286573,2.137266 1.4454293,-0.300701 1.1332693,-1.938984 0.3426853,-3.054607 0.60051,-0.03442 0.488824,-0.02553 1.507188,-0.07686 1.517915,1.293864 2.021038,1.662759 4.672829,3.550499 -2.04348,-0.214027 -2.787266,-0.410552 -4.253013,-1.287293 0.379707,0.953096 1.19127,3.116237 1.367077,4.794652 C 12.62155,15.785237 12.301047,15.338811 10.990922,14.462451 9.3127177,13.339891 7.9535577,13.301891 7.1669207,11.648004 6.3819647,9.997701 7.4209417,8.808909 9.2801597,8.2940869 11.937084,7.5583609 14.226397,6.8608269 16.00142,6.2551877 Z"
       style="fill:#e6e6e6;fill-opacity:1;stroke:none;stroke-width:0.0377149;stroke-linecap:butt;stroke-linejoin:miter;stroke-miterlimit:4;stroke-dasharray:none;stroke-opacity:1" />
    <path
       sodipodi:nodetypes="cccc"
       inkscape:connector-curvature="0"
       id="path909-5"
       d="m 10.172854,10.019 c 0.60051,-0.03442 0.488824,-0.02553 1.507188,-0.07686 1.517915,1.293864 2.021038,1.662759 4.672829,3.550499 C 13.687453,13.30196 11.670659,12.51582 10.172854,10.019 Z"
       style="fill:#e6e6e6;fill-opacity:1;stroke:none;stroke-width:0.0377149;stroke-linecap:butt;stroke-linejoin:miter;stroke-miterlimit:4;stroke-dasharray:none;stroke-opacity:1" />
    <path
       style="fill:#eff0f1;fill-opacity:1;stroke:none;stroke-width:0.0377149;stroke-linecap:butt;stroke-linejoin:miter;stroke-miterlimit:4;stroke-dasharray:none;stroke-opacity:1"
       d="M 16.00142,6.2551877 C 14.999192,7.5791107 13.332712,9.367821 11.508878,9.603445 9.6850507,9.839062 7.9463367,9.578005 7.5435957,10.936341 c -0.370901,1.250868 0.933602,2.418734 2.286573,2.137266 1.4454293,-0.300701 1.1332693,-1.938984 0.3426853,-3.054607 0.60051,-0.03442 0.488824,-0.02553 1.507188,-0.07686 1.517915,1.293864 2.021038,1.662759 4.672829,3.550499 -2.04348,-0.214027 -2.787266,-0.410552 -4.253013,-1.287293 0.379707,0.953096 1.19127,3.116237 1.367077,4.794652 C 12.62155,15.785237 12.301047,15.338811 10.990922,14.462451 9.3127177,13.339891 7.9535577,13.301891 7.1669207,11.648004 6.3819647,9.997701 7.4209417,8.808909 9.2801597,8.2940869 11.937084,7.5583609 14.226397,6.8608269 16.00142,6.2551877 Z"
       id="path911-6"
       inkscape:connector-curvature="0"
       sodipodi:nodetypes="cssscccccsssc" />
    <path
       style="fill:#eff0f1;fill-opacity:1;stroke:none;stroke-width:0.0377149;stroke-linecap:butt;stroke-linejoin:miter;stroke-miterlimit:4;stroke-dasharray:none;stroke-opacity:1"
       d="m 10.172854,10.019 c 0.60051,-0.03442 0.488824,-0.02553 1.507188,-0.07686 1.517915,1.293864 2.021038,1.662759 4.672829,3.550499 C 13.687453,13.30196 11.670659,12.51582 10.172854,10.019 Z"
       id="path913-2"
       inkscape:connector-curvature="0"
       sodipodi:nodetypes="cccc" />
    <path
       sodipodi:nodetypes="ccccc"
       inkscape:connector-curvature="0"
       id="path915-9"
       d="m 5.6666577,7.1590777 c 0.483537,-0.240025 0.920505,-0.437874 1.917342,-1.159982 1.920325,-1.391091 3.9534143,-1.087712 4.9715623,-0.535277 -2.7834263,0.105809 -2.424784,0.660397 -2.435045,1.095163 -1.8493103,-0.389809 -2.3892623,0.140562 -4.4538593,0.600096 z"
       style="fill:#009eff;fill-opacity:1;stroke:none;stroke-width:0.0377149;stroke-linecap:butt;stroke-linejoin:miter;stroke-miterlimit:4;stroke-dasharray:none;stroke-opacity:1" />
    <path
       inkscape:connector-curvature="0"
       id="path917-1"
       d="m 12.555562,5.4638187 c -2.7834263,0.105809 -2.253152,1.622208 -1.843188,2.42121 -0.324808,0.09435 -0.676848,0.201827 -1.1110503,0.316742 -1.751966,-3.121689 1.5243293,-3.527802 2.9542383,-2.737952 z"
       style="fill:#009eff;fill-opacity:1;stroke:none;stroke-width:0.0377149;stroke-linecap:butt;stroke-linejoin:miter;stroke-miterlimit:4;stroke-dasharray:none;stroke-opacity:1"
       sodipodi:nodetypes="cccc" />
    <path
       sodipodi:nodetypes="cscc"
       style="fill:#009eff;fill-opacity:1;stroke:none;stroke-width:0.0377149;stroke-linecap:butt;stroke-linejoin:miter;stroke-miterlimit:4;stroke-dasharray:none;stroke-opacity:1"
       d="M 7.6681027,12.425685 C 6.3060597,10.671881 6.5575427,9.06437 9.2246327,8.2291597 11.856599,7.4049447 14.226397,6.8608277 16.00142,6.2551877 11.211258,8.0803547 5.2130047,9.299924 7.6681027,12.425685 Z"
       id="path919-2"
       inkscape:connector-curvature="0" />
    <path
       d="m 15.446022,3.7567797 c 1.547946,0 2.79721,1.249339 2.79721,2.797147 v 8.8905143 c 0,1.547804 -1.249264,2.79715 -2.79721,2.79715 H 6.5539327 c -1.547803,0 -2.797161,-1.249346 -2.797161,-2.79715 V 6.5539267 c 0,-1.547808 1.249358,-2.797146 2.797161,-2.797146 h 8.8920893 m 0,-0.748625 H 6.5539327 c -1.947415,0 -3.545777,1.59837 -3.545777,3.545771 v 8.8905143 c 0,1.949038 1.598362,3.547403 3.545777,3.547403 h 8.8904513 c 1.949057,0 3.547391,-1.598365 3.547391,-3.545775 V 6.5539267 c 0,-1.947401 -1.598334,-3.545771 -3.545753,-3.545771 z"
       id="path4-6-7"
       style="clip-rule:evenodd;fill:#eff0f1;fill-opacity:1;fill-rule:evenodd;stroke:url(#linearGradient928);stroke-width:0.0163114;stroke-linejoin:round;stroke-miterlimit:1.41421" />
  </g>
  <metadata
     id="metadata18">
    <rdf:RDF>
      <cc:Work
         rdf:about="">
        <dc:format>image/svg+xml</dc:format>
        <dc:type
           rdf:resource="http://purl.org/dc/dcmitype/StillImage" />
      </cc:Work>
    </rdf:RDF>
  </metadata>
  <defs
     id="defs16">
    <linearGradient
       inkscape:collect="always"
       xlink:href="#linearGradient907"
       id="linearGradient909-5"
       x1="17.000017"
       y1="21.899982"
       x2="17.000017"
       y2="22.899982"
       gradientUnits="userSpaceOnUse"
       gradientTransform="matrix(0.92213591,0,0,0.92213592,1.2458294,1.2458254)" />
    <linearGradient
       inkscape:collect="always"
       id="linearGradient907">
      <stop
         style="stop-color:#eff0f1;stop-opacity:1;"
         offset="0"
         id="stop902" />
      <stop
         style="stop-color:#eff0f1;stop-opacity:0;"
         offset="1"
         id="stop904" />
    </linearGradient>
    <linearGradient
       inkscape:collect="always"
       xlink:href="#linearGradient907"
       id="linearGradient928"
       gradientUnits="userSpaceOnUse"
       gradientTransform="matrix(0.61475711,0,0,0.61475712,1.1638917,1.1638857)"
       x1="17.000017"
       y1="21.899982"
       x2="17.000017"
       y2="22.899982" />
  </defs>
  <sodipodi:namedview
     pagecolor="#ffffff"
     bordercolor="#000000"
     borderopacity="1"
     objecttolerance="10"
     gridtolerance="10"
     guidetolerance="10"
     inkscape:pageopacity="0"
     inkscape:pageshadow="2"
     inkscape:window-width="1920"
     inkscape:window-height="1007"
     id="namedview14"
     showgrid="false"
     inkscape:zoom="6.9384853"
     inkscape:cx="46.335761"
     inkscape:cy="15.565357"
     inkscape:window-x="0"
     inkscape:window-y="0"
     inkscape:window-maximized="1"
     inkscape:current-layer="svg12"
     inkscape:document-rotation="0"
     inkscape:showpageshadow="false"
     inkscape:lockguides="false"
     inkscape:pagecheckerboard="0">
    <inkscape:grid
       type="xygrid"
       id="grid1003"
       originx="0"
       originy="0" />
  </sodipodi:namedview>
  <g
     id="kate">
    <rect
       style="opacity:0.00100002"
       width="32"
       height="32"
       x="0"
       y="0"
       id="rect7" />
    <path
       style="fill:#eff0f1;fill-opacity:1;stroke:none;stroke-width:0.056571;stroke-linecap:butt;stroke-linejoin:miter;stroke-miterlimit:4;stroke-dasharray:none;stroke-opacity:1"
       d="M 13.196287,12.007934 C 12.512177,9.736823 8.6462098,10.287921 8,10.238616 8.7252972,9.878579 9.3807573,9.5818041 10.875996,8.4986408 13.756481,6.412006 16.80613,6.867073 18.333324,7.6957272 c -4.175112,0.1587129 -3.379716,2.4333118 -2.764772,3.6318158 -0.782045,0.227159 -2.01654,0.57007 -2.372265,0.680391 z"
       id="path905"
       inkscape:connector-curvature="0" />
    <path
       sodipodi:nodetypes="cssscccccsssc"
       inkscape:connector-curvature="0"
       id="path907"
       d="m 23.502184,8.8827803 c -1.503468,1.9858857 -4.003127,4.6689517 -6.738851,5.0223867 -2.735743,0.353425 -5.343814,-0.03816 -5.947952,1.999345 -0.556354,1.876303 1.400403,3.628102 3.429885,3.2059 2.168136,-0.451051 1.699887,-2.908477 0.514006,-4.58191 0.900788,-0.05162 0.733235,-0.03831 2.260777,-0.115285 2.27687,1.940797 3.03158,2.494139 7.00941,5.325748 C 20.964051,19.41792 19.848403,19.123134 17.649776,17.808019 18.219343,19.237665 19.436704,22.48238 19.700397,25 18.43233,23.177862 17.951583,22.508226 15.986373,21.193677 13.46907,19.509838 11.430343,19.452837 10.25036,16.972006 9.0729235,14.496552 10.631418,12.713365 13.420236,11.94113 17.405638,10.837542 20.839613,9.79124 23.502184,8.8827803 Z"
       style="fill:#e6e6e6;fill-opacity:1;stroke:none;stroke-width:0.056571;stroke-linecap:butt;stroke-linejoin:miter;stroke-miterlimit:4;stroke-dasharray:none;stroke-opacity:1" />
    <path
       sodipodi:nodetypes="cccc"
       inkscape:connector-curvature="0"
       id="path909"
       d="m 14.759272,14.528502 c 0.900788,-0.05162 0.733235,-0.03831 2.260777,-0.115285 2.27687,1.940797 3.03158,2.494139 7.00941,5.325748 -3.998268,-0.286021 -7.023462,-1.465232 -9.270187,-5.210463 z"
       style="fill:#e6e6e6;fill-opacity:1;stroke:none;stroke-width:0.056571;stroke-linecap:butt;stroke-linejoin:miter;stroke-miterlimit:4;stroke-dasharray:none;stroke-opacity:1" />
    <path
       style="fill:#eff0f1;fill-opacity:1;stroke:none;stroke-width:0.056571;stroke-linecap:butt;stroke-linejoin:miter;stroke-miterlimit:4;stroke-dasharray:none;stroke-opacity:1"
       d="m 23.502184,8.8827803 c -1.503468,1.9858857 -4.003127,4.6689517 -6.738851,5.0223867 -2.735743,0.353425 -5.343814,-0.03816 -5.947952,1.999345 -0.556354,1.876303 1.400403,3.628102 3.429885,3.2059 2.168136,-0.451051 1.699887,-2.908477 0.514006,-4.58191 0.900788,-0.05162 0.733235,-0.03831 2.260777,-0.115285 2.27687,1.940797 3.03158,2.494139 7.00941,5.325748 C 20.964051,19.41792 19.848403,19.123134 17.649776,17.808019 18.219343,19.237665 19.436704,22.48238 19.700397,25 18.43233,23.177862 17.951583,22.508226 15.986373,21.193677 13.46907,19.509838 11.430343,19.452837 10.25036,16.972006 9.0729235,14.496552 10.631418,12.713365 13.420236,11.94113 17.405638,10.837542 20.839613,9.79124 23.502184,8.8827803 Z"
       id="path911"
       inkscape:connector-curvature="0"
       sodipodi:nodetypes="cssscccccsssc" />
    <path
       style="fill:#eff0f1;fill-opacity:1;stroke:none;stroke-width:0.056571;stroke-linecap:butt;stroke-linejoin:miter;stroke-miterlimit:4;stroke-dasharray:none;stroke-opacity:1"
       d="m 14.759272,14.528502 c 0.900788,-0.05162 0.733235,-0.03831 2.260777,-0.115285 2.27687,1.940797 3.03158,2.494139 7.00941,5.325748 -3.998268,-0.286021 -7.023462,-1.465232 -9.270187,-5.210463 z"
       id="path913"
       inkscape:connector-curvature="0"
       sodipodi:nodetypes="cccc" />
    <path
       sodipodi:nodetypes="ccccc"
       inkscape:connector-curvature="0"
       id="path915"
       d="M 8,10.238616 C 8.7252972,9.878579 9.3807573,9.5818041 10.875996,8.4986408 13.756481,6.412006 16.80613,6.867073 18.333324,7.6957272 14.158212,7.8544401 14.696157,8.6863242 14.680757,9.338472 11.906803,8.7537573 11.096867,9.5493153 8,10.238616 Z"
       style="fill:#009eff;fill-opacity:1;stroke:none;stroke-width:0.056571;stroke-linecap:butt;stroke-linejoin:miter;stroke-miterlimit:4;stroke-dasharray:none;stroke-opacity:1" />
    <path
       inkscape:connector-curvature="0"
       id="path917"
       d="m 18.333324,7.6957272 c -4.175112,0.1587129 -3.379716,2.4333118 -2.764772,3.6318158 -0.487212,0.141519 -1.015268,0.30274 -1.666578,0.475114 -2.627932,-4.6825359 2.286497,-5.2917058 4.43135,-4.1069298 z"
       style="fill:#009eff;fill-opacity:1;stroke:none;stroke-width:0.056571;stroke-linecap:butt;stroke-linejoin:miter;stroke-miterlimit:4;stroke-dasharray:none;stroke-opacity:1"
       sodipodi:nodetypes="cccc" />
    <path
       sodipodi:nodetypes="cscc"
       style="fill:#009eff;fill-opacity:1;stroke:none;stroke-width:0.056571;stroke-linecap:butt;stroke-linejoin:miter;stroke-miterlimit:4;stroke-dasharray:none;stroke-opacity:1"
       d="M 11.002165,18.138528 C 8.9590964,15.507824 9.3363246,13.096554 13.336949,11.843741 17.284901,10.607417 20.839613,9.79124 23.502184,8.8827803 16.31688,11.620532 7.3194902,13.449886 11.002165,18.138528 Z"
       id="path919"
       inkscape:connector-curvature="0" />
    <path
       d="m 22.669108,5.1351694 c 2.321713,0 4.195722,1.8740064 4.195722,4.1957188 V 22.66667 c 0,2.321713 -1.874009,4.195722 -4.195722,4.195722 H 9.3308894 c -2.321709,0 -4.195722,-1.874009 -4.195722,-4.195722 V 9.3308882 c 0,-2.3217124 1.874013,-4.1957188 4.195722,-4.1957188 H 22.669108 m 0,-1.122937 H 9.3308894 c -2.921106,0 -5.318657,2.3975553 -5.318657,5.3186558 V 22.66667 c 0,2.923548 2.397551,5.321098 5.318657,5.321098 H 22.666664 c 2.923554,0 5.321104,-2.39755 5.321104,-5.318661 V 9.3308882 c 0,-2.9211005 -2.39755,-5.3186558 -5.31866,-5.3186558 z"
       id="path4-6"
       style="clip-rule:evenodd;fill:#eff0f1;fill-opacity:1;fill-rule:evenodd;stroke:url(#linearGradient909-5);stroke-width:0.0244648;stroke-linejoin:round;stroke-miterlimit:1.41421" />
  </g>
</svg>
