<?xml version="1.0" encoding="UTF-8" standalone="no"?>
<svg
   sodipodi:docname="kdeconnect.svg"
   height="31.999973"
   width="32.000015"
   inkscape:version="1.1 (c68e22c387, 2021-05-23)"
   version="1.1"
   id="svg"
   viewBox="0 0 32.000013 31.999973"
   xmlns:inkscape="http://www.inkscape.org/namespaces/inkscape"
   xmlns:sodipodi="http://sodipodi.sourceforge.net/DTD/sodipodi-0.dtd"
   xmlns="http://www.w3.org/2000/svg"
   xmlns:svg="http://www.w3.org/2000/svg"
   xmlns:rdf="http://www.w3.org/1999/02/22-rdf-syntax-ns#"
   xmlns:cc="http://creativecommons.org/ns#"
   xmlns:dc="http://purl.org/dc/elements/1.1/">
  <g
     id="16-16-kdeconnect">
    <rect
       style="fill:#566060;fill-opacity:0;stroke:none"
       id="rect3889"
       width="16"
       height="16"
       x="7.5624752"
       y="73.081215"
       ry="2.9278411e-07" />
    <path
       class="fil0"
       d="m 12.575478,75.081212 h 5.943097 c 0.691066,0 1.243913,0.451873 1.243913,0.953964 v 10.092073 c 0,0.552283 -0.552847,0.953963 -1.243913,0.953963 h -5.943097 c -0.691059,0 -1.313003,-0.40168 -1.313003,-0.953963 V 76.035176 c 0,-0.502091 0.621944,-0.953964 1.313003,-0.953964 z m 1.934977,10.794995 h 2.004052 c 0.345546,0 0.621938,0.200809 0.621938,0.451852 0,0.200853 -0.276392,0.401704 -0.62194,0.401704 h -2.00405 c -0.345543,0 -0.62196,-0.200851 -0.62196,-0.401704 0,-0.251043 0.276417,-0.451852 0.62196,-0.451852 z m 0.207308,-10.292891 h 1.589434 c 0.20731,0 0.345517,0.100397 0.345517,0.20082 0,0.150629 -0.138207,0.25104 -0.345517,0.25104 h -1.589434 c -0.138209,0 -0.276428,-0.100411 -0.276428,-0.25104 0,-0.100423 0.138219,-0.20082 0.276428,-0.20082 z m -2.212432,0.853553 h 6.083467 c 0.276443,0 0.552601,0.200821 0.552601,0.451867 v 8.184096 c 0,0.251043 -0.276146,0.451902 -0.552601,0.451902 h -6.083467 c -0.34555,0 -0.622132,-0.200859 -0.622132,-0.451902 v -8.184096 c 0,-0.251046 0.276587,-0.451867 0.622132,-0.451867 z"
       id="path6-3-7"
       style="fill:#eff0f1;fill-opacity:1;fill-rule:evenodd;stroke-width:0.058902;image-rendering:optimizeQuality;shape-rendering:geometricPrecision;text-rendering:geometricPrecision"
       sodipodi:nodetypes="ssssssssssssssssssssssssssssssss" />
    <path
       style="color:#d3dae3;fill:#eff0f1;fill-opacity:1;fill-rule:evenodd;stroke-width:0.327606;image-rendering:optimizeQuality;shape-rendering:geometricPrecision;text-rendering:geometricPrecision"
       d="m 15.865998,78.303726 -0.987927,0.172106 v 3.40272 l 0.982829,-0.126697 -0.006,-1.53372 1.159406,1.697521 1.138941,-0.163801 -1.310419,-1.757034 1.314894,-1.474206 -1.153014,-0.212423 -1.149808,1.4742 z m -2.077583,0.868913 c -0.0093,4.93e-4 -0.0185,0.006 -0.02568,0.01225 l -0.339127,0.342962 c -0.01482,0.0149 -0.01732,0.03782 -0.0061,0.05571 l 0.40951,0.628973 c -0.07731,0.137099 -0.135618,0.287417 -0.173402,0.444693 l -0.707031,0.1734 c -0.01971,0.0061 -0.03445,0.02243 -0.03445,0.04281 v 0.223309 0.223303 c 0,0.02028 0.01498,0.03796 0.03445,0.04279 l 0.707031,0.173396 c 0.03779,0.15728 0.09616,0.307609 0.173402,0.444698 l -0.409595,0.628968 c -0.01141,0.01762 -0.0087,0.04093 0.006,0.05575 l 0.339123,0.342962 c 0.01415,0.01456 0.03657,0.01568 0.05359,0.0061 l 0.641772,-0.393502 c 0.125908,0.0734 0.32286,0.132363 0.466453,0.171479 l 0.150371,0.726226 c 0.006,0.02097 0.02094,0.03565 0.04146,0.03565 h 0.252734 0.252743 c 0.0209,0 0.03751,-0.01492 0.04147,-0.03565 l 0.150377,-0.726295 c 0.143597,-0.039 0.340548,-0.09812 0.466451,-0.17148 l 0.641786,0.393466 c 0.01737,0.01039 0.03925,0.0091 0.05361,-0.0061 l 0.339139,-0.342954 c 0.01482,-0.01493 0.01736,-0.03784 0.006,-0.05577 l -0.341034,-0.52403 -0.04235,0.0061 -0.239307,-0.350641 c -0.244409,0.512359 -0.761289,0.838871 -1.328963,0.839486 -0.814185,0 -1.474218,-0.660026 -1.474218,-1.474213 0.0012,-0.55959 0.317733,-1.07067 0.819006,-1.319367 V 79.46538 c -0.09343,0.03106 -0.185256,0.0664 -0.255934,0.107501 l -0.641358,-0.393404 c -0.0082,-0.0061 -0.01864,-0.0071 -0.02817,-0.0061 z"
       class="ColorScheme-Text"
       id="path10-6-5" />
  </g>
  <defs
     id="defs81">
    <style
       type="text/css"
       id="current-color-scheme" />
    <style
       id="current-color-scheme-9"
       type="text/css" />
  </defs>
  <metadata
     id="metadata34">
    <rdf:RDF>
      <cc:Work
         rdf:about="">
        <dc:format>image/svg+xml</dc:format>
        <dc:type
           rdf:resource="http://purl.org/dc/dcmitype/StillImage" />
      </cc:Work>
    </rdf:RDF>
  </metadata>
  <sodipodi:namedview
     inkscape:document-rotation="0"
     fit-margin-bottom="0"
     fit-margin-right="0"
     fit-margin-left="0"
     fit-margin-top="0"
     inkscape:snap-bbox-midpoints="true"
     inkscape:snap-bbox="true"
     inkscape:guide-bbox="true"
     showguides="false"
     borderlayer="false"
     inkscape:current-layer="svg"
     inkscape:window-maximized="1"
     inkscape:window-y="0"
     inkscape:window-x="0"
     inkscape:cy="37.299884"
     inkscape:cx="13.346641"
     inkscape:zoom="5.656854"
     showgrid="false"
     id="namedview32"
     inkscape:window-height="1007"
     inkscape:window-width="1920"
     inkscape:pageshadow="2"
     inkscape:pageopacity="0.11372549"
     guidetolerance="10"
     gridtolerance="10"
     objecttolerance="10"
     borderopacity="1"
     bordercolor="#000000"
     pagecolor="#ffffff"
     inkscape:lockguides="false"
     inkscape:pagecheckerboard="0"
     inkscape:showpageshadow="false">
    <inkscape:grid
       spacingy="1.0666667"
       spacingx="1.0666666"
       originy="-31.966648"
       originx="-51.666663"
       snapvisiblegridlinesonly="true"
       enabled="true"
       visible="true"
       empspacing="5"
       id="grid3046"
       type="xygrid" />
  </sodipodi:namedview>
  <g
     id="kdeconnect"
     transform="translate(7.5624752,73.281212)">
    <rect
       width="32.000015"
       height="31.999973"
       rx="0"
       ry="0"
       x="-7.5624752"
       y="-73.281212"
       id="rect3860"
       style="opacity:0.01;fill:#eff0f1;fill-opacity:0;stroke:none" />
    <path
       class="fil0"
       d="M 2.6635412,-69.281209 H 14.549727 c 1.382111,0 2.487798,0.903766 2.487798,1.90795 v 20.1841 c 0,1.104603 -1.105687,1.90795 -2.487798,1.90795 H 2.6635412 c -1.3821128,0 -2.6260164,-0.803347 -2.6260164,-1.90795 v -20.1841 c 0,-1.004184 1.2439036,-1.90795 2.6260164,-1.90795 z m 3.8699187,21.589958 h 4.0081371 c 0.691053,0 1.243898,0.401674 1.243898,0.903766 0,0.401673 -0.552845,0.803347 -1.2439,0.803347 H 6.5334599 c -0.6910577,0 -1.2439038,-0.401674 -1.2439038,-0.803347 0,-0.502092 0.5528461,-0.903766 1.2439038,-0.903766 z m 0.414633,-20.585774 h 3.1788611 c 0.414643,0 0.691063,0.200837 0.691063,0.401674 0,0.301255 -0.27642,0.502092 -0.691063,0.502092 H 6.9480929 c -0.2764219,0 -0.5528441,-0.200837 -0.5528441,-0.502092 0,-0.200837 0.2764222,-0.401674 0.5528441,-0.401674 z m -4.4248724,1.707113 H 14.690193 c 0.552845,0 1.105211,0.401674 1.105211,0.903766 v 16.368201 c 0,0.502092 -0.552354,0.903765 -1.105211,0.903765 H 2.5232205 c -0.6910562,0 -1.244223,-0.401673 -1.244223,-0.903765 v -16.368201 c 0,-0.502092 0.5531717,-0.903766 1.244223,-0.903766 z"
       id="path6"
       style="fill:#eff0f1;fill-opacity:1;fill-rule:evenodd;stroke-width:0.117809;image-rendering:optimizeQuality;shape-rendering:geometricPrecision;text-rendering:geometricPrecision"
       sodipodi:nodetypes="ssssssssssssssssssssssssssssssss" />
    <path
       style="color:#d3dae3;fill:#eff0f1;fill-opacity:1;fill-rule:evenodd;stroke-width:0.655206;image-rendering:optimizeQuality;shape-rendering:geometricPrecision;text-rendering:geometricPrecision"
       d="m 9.144587,-62.836212 -1.9758658,0.344239 v 6.805453 l 1.9656288,-0.25338 -0.0103,-3.067447 2.318821,3.395045 2.277868,-0.327598 -2.620821,-3.51406 2.629781,-2.948428 -2.306021,-0.424877 -2.299628,2.948446 z m -4.1551879,1.73783 c -0.01901,10e-4 -0.03686,0.01 -0.05122,0.02425 l -0.6782402,0.68592 c -0.02949,0.0296 -0.034391,0.07587 -0.011379,0.111345 l 0.8190093,1.25794 c -0.1545059,0.274195 -0.2712394,0.57483 -0.3468047,0.889398 l -1.4140597,0.346801 c -0.03918,0.0098 -0.06918,0.0451 -0.06918,0.08579 v 0.446612 0.446619 c 0,0.04068 0.02991,0.07609 0.06918,0.08582 l 1.4140584,0.346792 c 0.075535,0.314564 0.1922963,0.61521 0.3468049,0.889393 l -0.8190082,1.25794 c -0.02289,0.03543 -0.01795,0.08173 0.011379,0.111331 l 0.6782451,0.685918 c 0.02855,0.02896 0.073003,0.03128 0.1074313,0.0103 l 1.2835388,-0.787005 c 0.2518107,0.146698 0.6457136,0.264724 0.9329034,0.342954 l 0.3007364,1.452452 c 0.00885,0.04193 0.0417,0.0716 0.083139,0.0716 h 0.5054789 0.5054836 c 0.04158,0 0.074795,-0.02963 0.08315,-0.0716 l 0.3007336,-1.452452 c 0.287191,-0.07823 0.681087,-0.196264 0.932907,-0.34296 l 1.283543,0.787009 c 0.03457,0.02095 0.07883,0.01869 0.107404,-0.0103 l 0.678248,-0.685919 c 0.02947,-0.02961 0.03445,-0.07588 0.01144,-0.111331 l -0.682083,-1.048066 -0.08443,0.01251 -0.47861,-0.701281 c -0.488824,1.024713 -1.522598,1.677733 -2.6579367,1.678965 -1.6283733,0 -2.9484323,-1.320056 -2.9484323,-2.948424 0.00117,-1.119182 0.6354548,-2.141341 1.6380134,-2.638748 v -0.643639 c -0.1868878,0.06226 -0.3705223,0.132614 -0.5118761,0.215002 l -1.2834588,-0.786983 c -0.01731,-0.0105 -0.03727,-0.01567 -0.056356,-0.01392 z"
       class="ColorScheme-Text"
       id="path10" />
  </g>
  <g
     id="22-22-kdeconnect"
     transform="translate(7.5624752,73.081212)">
    <rect
       style="fill:#000000;fill-opacity:0;stroke:none"
       id="rect3841"
       width="22"
       height="22"
       x="-3.000001"
       y="-34.5" />
    <path
       class="fil0"
       d="m 4.0506791,-31.5 h 7.9241149 c 0.921414,0 1.658541,0.60251 1.658541,1.271962 v 13.456076 c 0,0.736399 -0.737127,1.271962 -1.658541,1.271962 H 4.0506791 c -0.921416,0 -1.75068,-0.535563 -1.75068,-1.271962 v -13.456076 c 0,-0.669452 0.829264,-1.271962 1.75068,-1.271962 z m 2.579951,14.393315 h 2.672081 c 0.460709,0 0.8292579,0.267767 0.8292579,0.602492 0,0.267788 -0.3685489,0.535584 -0.8292599,0.535584 h -2.672079 c -0.460714,0 -0.829276,-0.267796 -0.829276,-0.535584 0,-0.334724 0.368562,-0.602492 0.829276,-0.602492 z m 0.276417,-13.723851 h 2.119237 c 0.276427,0 0.460711,0.133877 0.460711,0.267778 0,0.200831 -0.184284,0.33472 -0.460711,0.33472 h -2.119237 c -0.184286,0 -0.368563,-0.133889 -0.368563,-0.33472 0,-0.133901 0.184277,-0.267778 0.368563,-0.267778 z m -2.949912,1.138073 h 8.1113059 c 0.368567,0 0.7368,0.267778 0.7368,0.602505 v 10.912126 c 0,0.334732 -0.368221,0.602517 -0.7368,0.602517 H 3.9571351 c -0.460713,0 -0.829494,-0.267785 -0.829494,-0.602517 v -10.912126 c 0,-0.334727 0.368786,-0.602505 0.829494,-0.602505 z"
       id="path6-3"
       style="fill:#eff0f1;fill-opacity:1;fill-rule:evenodd;stroke-width:0.0785352;image-rendering:optimizeQuality;shape-rendering:geometricPrecision;text-rendering:geometricPrecision"
       sodipodi:nodetypes="ssssssssssssssssssssssssssssssss" />
    <path
       style="color:#d3dae3;fill:#eff0f1;fill-opacity:1;fill-rule:evenodd;stroke-width:0.436806;image-rendering:optimizeQuality;shape-rendering:geometricPrecision;text-rendering:geometricPrecision"
       d="m 8.4380411,-27.203326 -1.317246,0.229491 v 4.536961 l 1.310429,-0.168923 -0.0078,-2.044961 1.545884,2.263361 1.5185809,-0.2184 -1.7472189,-2.342714 1.7531889,-1.965607 -1.5373489,-0.283237 -1.533086,1.965609 z m -2.770127,1.158553 c -0.01261,6.56e-4 -0.0246,0.0085 -0.03418,0.01625 l -0.452166,0.457284 c -0.01965,0.01976 -0.02295,0.05057 -0.0085,0.07426 l 0.546014,0.838625 c -0.102978,0.182798 -0.180825,0.383221 -0.231203,0.59293 l -0.94271,0.231201 c -0.02614,0.0074 -0.04603,0.03002 -0.04603,0.05718 v 0.297741 0.297738 c 0,0.02708 0.01992,0.05073 0.04603,0.05716 l 0.94271,0.231193 c 0.05041,0.209703 0.128203,0.410146 0.231202,0.592925 l -0.546013,0.838648 c -0.01523,0.0236 -0.01196,0.05453 0.0085,0.0742 l 0.452165,0.457281 c 0.01895,0.01936 0.04878,0.02088 0.07156,0.0078 l 0.855692,-0.524671 c 0.167874,0.0978 0.430482,0.176483 0.621936,0.228639 l 0.200493,0.968299 c 0.0064,0.02795 0.02785,0.04764 0.05538,0.04764 h 0.336984 0.336992 c 0.02774,0 0.04992,-0.01979 0.05539,-0.04764 l 0.200507,-0.96839 c 0.191461,-0.05208 0.454061,-0.130841 0.621939,-0.22864 l 0.855696,0.524674 c 0.02313,0.01396 0.05245,0.01242 0.0716,-0.0085 l 0.4521819,-0.457272 c 0.01965,-0.01977 0.02301,-0.05049 0.0086,-0.07425 l -0.4547139,-0.698706 -0.05636,0.0084 -0.319074,-0.467521 c -0.325881,0.683146 -1.015059,1.118497 -1.771955,1.119313 -1.08558,0 -1.965623,-0.88003 -1.965623,-1.965614 0.0012,-0.746124 0.42364,-1.427563 1.092009,-1.759163 v -0.429062 c -0.124589,0.04146 -0.247011,0.08842 -0.341247,0.143338 l -0.855679,-0.524546 c -0.01157,-0.0084 -0.02484,-0.01054 -0.03754,-0.0093 z"
       class="ColorScheme-Text"
       id="path10-6" />
  </g>
</svg>
