<?xml version="1.0" encoding="UTF-8" standalone="no"?>
<svg
   width="32"
   height="32"
   version="1.1"
   id="svg12"
   sodipodi:docname="keyboard.svg"
   inkscape:version="1.1.2 (0a00cf5339, 2022-02-04)"
   xmlns:inkscape="http://www.inkscape.org/namespaces/inkscape"
   xmlns:sodipodi="http://sodipodi.sourceforge.net/DTD/sodipodi-0.dtd"
   xmlns="http://www.w3.org/2000/svg"
   xmlns:svg="http://www.w3.org/2000/svg"
   xmlns:rdf="http://www.w3.org/1999/02/22-rdf-syntax-ns#"
   xmlns:cc="http://creativecommons.org/ns#"
   xmlns:dc="http://purl.org/dc/elements/1.1/">
  <g
     id="22-22-keyboard-layout"
     transform="translate(32,10)">
    <rect
       style="opacity:0.00100002"
       width="22"
       height="22"
       x="0"
       y="0"
       id="rect2" />
    <path
       d="M 17.79,8 H 11.478 V 7.8 C 11.478,6.885523 10.907004,6 10.082,6 H 7.502491 C 7.519151,6 6.906209,6.07121 6.862,5.5 6.81774,4.928083 7.502491,5 7.502491,5 h 9.052504 V 4 H 7.502491 C 6.677509,4 6.007497,4.642503 6.007497,5.557 6.007497,6.471473 6.677509,7 7.502491,7 H 9.782492 C 10.300001,7 10.422,7.182351 10.422,7.756 V 8 H 4.21 C 3.542491,8.0027 3,8.3791 3,9.119 v 7.673667 C 3,17.532567 3.542491,18 4.21,18 H 17.79 C 18.457511,18 19,17.5319 19,16.792 V 9.119 C 19,8.3791 18.454266,7.934261 17.79,8 Z M 18,16.658759 V 17 H 4 V 16.658499 9.98576 9 h 14 v 0.98576 z"
       id="path2-1"
       style="fill:#eff0f1;fill-opacity:1;stroke-width:0.263214"
       sodipodi:nodetypes="scsssscccsssssccssssssssccssccss" />
    <rect
       x="5.0000029"
       y="9.9999475"
       width="1"
       height="1"
       id="rect4-2"
       style="fill:#eff0f1;fill-opacity:1;stroke-width:0.248145" />
    <rect
       x="8.0000029"
       y="14.999948"
       width="6"
       height="1"
       id="rect48-7"
       style="fill:#009eff;fill-opacity:1;stroke-width:0.225885" />
    <rect
       x="11.000005"
       y="9.9999475"
       width="1"
       height="1"
       id="rect4-2-2"
       style="fill:#eff0f1;fill-opacity:1;stroke-width:0.248145" />
    <rect
       x="13.000005"
       y="9.9999475"
       width="1"
       height="1"
       id="rect4-2-8"
       style="fill:#eff0f1;fill-opacity:1;stroke-width:0.248145" />
    <rect
       x="9.0000048"
       y="9.9999475"
       width="1"
       height="1"
       id="rect4-2-9"
       style="fill:#eff0f1;fill-opacity:1;stroke-width:0.248145" />
    <rect
       x="7.0000029"
       y="9.9999475"
       width="1"
       height="1"
       id="rect4-2-7"
       style="fill:#eff0f1;fill-opacity:1;stroke-width:0.248145" />
    <rect
       x="15.000005"
       y="9.9999475"
       width="2"
       height="1"
       id="rect4-2-8-3"
       style="fill:#eff0f1;fill-opacity:1;stroke-width:0.35093" />
    <rect
       x="4.9999952"
       y="11.999948"
       width="1"
       height="1"
       id="rect4-2-6"
       style="fill:#eff0f1;fill-opacity:1;stroke-width:0.248145" />
    <rect
       x="11.000005"
       y="11.999948"
       width="1"
       height="1"
       id="rect4-2-2-1"
       style="fill:#eff0f1;fill-opacity:1;stroke-width:0.248145" />
    <rect
       x="12.999997"
       y="11.999948"
       width="1"
       height="1"
       id="rect4-2-8-2"
       style="fill:#eff0f1;fill-opacity:1;stroke-width:0.248145" />
    <rect
       x="9.0000048"
       y="11.999948"
       width="1"
       height="1"
       id="rect4-2-9-9"
       style="fill:#eff0f1;fill-opacity:1;stroke-width:0.248145" />
    <rect
       x="6.9999952"
       y="11.999948"
       width="1"
       height="1"
       id="rect4-2-7-3"
       style="fill:#eff0f1;fill-opacity:1;stroke-width:0.248145" />
    <rect
       x="14.999997"
       y="11.999948"
       width="2"
       height="1"
       id="rect4-2-8-3-1"
       style="fill:#eff0f1;fill-opacity:1;stroke-width:0.35093" />
    <rect
       x="15.000005"
       y="14.999948"
       width="2"
       height="1"
       id="rect4-2-8-9"
       style="fill:#eff0f1;fill-opacity:1;stroke-width:0.35093" />
    <rect
       x="5.0000029"
       y="14.999948"
       width="2"
       height="1"
       id="rect4-2-8-9-4"
       style="fill:#eff0f1;fill-opacity:1;stroke-width:0.35093" />
  </g>
  <g
     id="keyboard-layout">
    <rect
       style="opacity:0.00100002"
       width="32"
       height="32"
       x="0"
       y="0"
       id="rect7" />
    <path
       d="m 26.185,11.966767 h -9.768733 v -0.428161 c 0,-1.371715 -1.005024,-2.5386059 -2.24253,-2.5386059 h -3.42 c -0.776229,0 -1.209737,-0.649624 -1.209737,-1.510092 0,-0.86044 0.433508,-1.489908 1.209737,-1.489908 h 13.578755 v -1 H 10.753737 c -1.237473,0 -2.242492,1.114026 -2.242492,2.485771 0,1.37171 1.005019,2.485742 2.242492,2.485742 h 3.42 c 0.776264,0 1.409999,0.7024829 1.409999,1.5629569 v 0.428139 H 5.815 C 4.813737,11.966609 4,12.769149 4,13.879 v 10.31 C 4,25.29885 4.813737,26 5.815,26 h 20.37 C 27.186267,26 28,25.29785 28,24.188 V 13.879 c 0,-1.109851 -0.813733,-1.912233 -1.815,-1.912233 z M 27,23.988138 C 27,24.640761 26.773736,25 26.185,25 H 6 C 5.411267,25 5,24.6362 5,23.987748 V 13.97864 C 5,13.330167 5.226267,13 5.815,13 h 20.37 C 26.773736,13 27,13.326012 27,13.97864 Z"
       id="path2-36"
       style="fill:#eff0f1;fill-opacity:1;stroke-width:0.394821"
       sodipodi:nodetypes="scsssssccsssssccssssssssssssssss" />
    <rect
       x="6"
       y="15"
       width="2"
       height="2"
       id="rect4-7"
       style="fill:#eff0f1;fill-opacity:1;stroke-width:0.496289" />
    <rect
       x="9.0000038"
       y="14.999959"
       width="2"
       height="2"
       id="rect6-5"
       style="fill:#eff0f1;fill-opacity:1;stroke-width:0.496289" />
    <rect
       x="12.000004"
       y="14.999959"
       width="2"
       height="2"
       id="rect8-3"
       style="fill:#eff0f1;fill-opacity:1;stroke-width:0.496289" />
    <rect
       x="15.000004"
       y="14.999959"
       width="2"
       height="2"
       id="rect10-35"
       style="fill:#eff0f1;fill-opacity:1;stroke-width:0.496289" />
    <rect
       x="18.000004"
       y="14.999959"
       width="2"
       height="2"
       id="rect12-6"
       style="fill:#eff0f1;fill-opacity:1;stroke-width:0.496289" />
    <rect
       x="21.000004"
       y="15"
       width="2"
       height="2"
       id="rect14-2"
       style="fill:#eff0f1;fill-opacity:1;stroke-width:0.496289" />
    <rect
       x="24.000004"
       y="14.999959"
       width="2"
       height="2.0000415"
       id="rect16-9"
       style="fill:#eff0f1;fill-opacity:1;stroke-width:0.489422" />
    <rect
       x="6"
       y="18"
       width="4"
       height="2"
       id="rect20-6"
       style="fill:#eff0f1;fill-opacity:1;stroke-width:0.438592" />
    <rect
       x="6"
       y="21.99996"
       width="2"
       height="2"
       id="rect46-1"
       style="fill:#eff0f1;fill-opacity:1;stroke-width:0.496284" />
    <rect
       x="12.000004"
       y="22"
       width="8"
       height="2"
       id="rect48-2"
       style="fill:#009eff;fill-opacity:1;stroke-width:0.368867" />
    <rect
       x="9.0000038"
       y="21.99996"
       width="2"
       height="2"
       id="rect60-7"
       style="fill:#eff0f1;fill-opacity:1;stroke-width:0.496284" />
    <rect
       x="11.000004"
       y="17.999958"
       width="2"
       height="2"
       id="rect4-3"
       style="fill:#eff0f1;fill-opacity:1;stroke-width:0.496289" />
    <rect
       x="14.000004"
       y="17.999916"
       width="2"
       height="2"
       id="rect6-6"
       style="fill:#eff0f1;fill-opacity:1;stroke-width:0.496289" />
    <rect
       x="17.000004"
       y="17.999916"
       width="2"
       height="2"
       id="rect8-3-7"
       style="fill:#eff0f1;fill-opacity:1;stroke-width:0.496289" />
    <rect
       x="20.000004"
       y="17.999916"
       width="2"
       height="2"
       id="rect10-5"
       style="fill:#eff0f1;fill-opacity:1;stroke-width:0.496289" />
    <rect
       x="23.000004"
       y="17.999916"
       width="2"
       height="2"
       id="rect12-3"
       style="fill:#eff0f1;fill-opacity:1;stroke-width:0.496289" />
    <rect
       x="21.000004"
       y="21.99996"
       width="2"
       height="2"
       id="rect46-2"
       style="fill:#eff0f1;fill-opacity:1;stroke-width:0.496284" />
    <rect
       x="24.000004"
       y="21.99996"
       width="2"
       height="2"
       id="rect60-9"
       style="fill:#eff0f1;fill-opacity:1;stroke-width:0.496284" />
  </g>
  <metadata
     id="metadata18">
    <rdf:RDF>
      <cc:Work
         rdf:about="">
        <dc:format>image/svg+xml</dc:format>
        <dc:type
           rdf:resource="http://purl.org/dc/dcmitype/StillImage" />
      </cc:Work>
    </rdf:RDF>
  </metadata>
  <defs
     id="defs16" />
  <sodipodi:namedview
     pagecolor="#ffffff"
     bordercolor="#000000"
     borderopacity="1"
     objecttolerance="10"
     gridtolerance="10"
     guidetolerance="10"
     inkscape:pageopacity="0"
     inkscape:pageshadow="2"
     inkscape:window-width="1920"
     inkscape:window-height="1009"
     id="namedview14"
     showgrid="false"
     inkscape:zoom="9.8125"
     inkscape:cx="38.471338"
     inkscape:cy="24.356688"
     inkscape:window-x="0"
     inkscape:window-y="0"
     inkscape:window-maximized="1"
     inkscape:current-layer="svg12"
     inkscape:document-rotation="0"
     inkscape:lockguides="false"
     inkscape:showpageshadow="false"
     showguides="false"
     inkscape:pagecheckerboard="0">
    <inkscape:grid
       type="xygrid"
       id="grid950"
       originx="0"
       originy="0" />
  </sodipodi:namedview>
</svg>
