<?xml version="1.0" encoding="UTF-8" standalone="no"?>
<svg
   width="32"
   height="32"
   version="1.1"
   id="svg12"
   sodipodi:docname="kget.svg"
   inkscape:version="1.1.1 (3bf5ae0d25, 2021-09-20)"
   xmlns:inkscape="http://www.inkscape.org/namespaces/inkscape"
   xmlns:sodipodi="http://sodipodi.sourceforge.net/DTD/sodipodi-0.dtd"
   xmlns:xlink="http://www.w3.org/1999/xlink"
   xmlns="http://www.w3.org/2000/svg"
   xmlns:svg="http://www.w3.org/2000/svg"
   xmlns:rdf="http://www.w3.org/1999/02/22-rdf-syntax-ns#"
   xmlns:cc="http://creativecommons.org/ns#"
   xmlns:dc="http://purl.org/dc/elements/1.1/">
  <g
     id="22-22-kget"
     transform="translate(32,9.9978008)">
    <g
       id="g913">
      <g
         id="g1987">
        <g
           id="g876">
          <g
             id="g868">
            <g
               id="g861">
              <g
                 id="g1306"
                 transform="translate(-32,-9.9978008)">
                <rect
                   style="opacity:0.00100002"
                   width="22"
                   height="22"
                   x="32"
                   y="9.9978008"
                   id="rect2" />
              </g>
            </g>
          </g>
        </g>
      </g>
      <path
         d="m 15.446071,3.756779 c 1.547809,0 2.797148,1.249339 2.797148,2.797146 v 8.890521 c 0,1.547809 -1.249339,2.797148 -2.797148,2.797148 H 6.553926 c -1.547806,0 -2.797148,-1.249339 -2.797148,-2.797148 V 6.553925 c 0,-1.547807 1.249342,-2.797146 2.797148,-2.797146 h 8.892145 m 0,-0.748624 H 6.553926 c -1.947404,0 -3.545771,1.598371 -3.545771,3.54577 v 8.890521 c 0,1.949032 1.598367,3.547399 3.545771,3.547399 h 8.890516 c 1.949036,0 3.547403,-1.598367 3.547403,-3.545774 V 6.553925 c 0,-1.947399 -1.598367,-3.54577 -3.545774,-3.54577 z"
         id="path4-6-7"
         style="clip-rule:evenodd;fill:#eff0f1;fill-opacity:1;fill-rule:evenodd;stroke:url(#linearGradient878);stroke-width:0.0163099;stroke-linejoin:round;stroke-miterlimit:1.41421" />
      <path
         d="M 8.811492,5.344827 V 9.7586218 H 7.404596 c -0.137929,0 -0.262067,0.08276 -0.31724,0.1931072 -0.05517,0.124131 -0.04138,0.262067 0.05517,0.372406 l 3.47587,4.137941 c 0.06896,0.08275 0.165509,0.124131 0.262067,0.124131 0.09655,0 0.193106,-0.04137 0.262068,-0.124131 l 3.475862,-4.137941 c 0.08276,-0.09655 0.110342,-0.248275 0.05517,-0.372406 C 14.604593,9.8275838 14.49425,9.7586218 14.356315,9.7586218 H 12.949431 V 5.344827 C 12.949431,5.151724 12.797707,5 12.604601,5 H 9.15633 C 8.963224,5 8.811495,5.151724 8.811495,5.344827 Z m 3.448285,0.344828 z M 6.011494,16.310343 h 9.724138 c 0.193106,0 0.344835,0.151729 0.344835,0.344835 C 16.080467,16.848284 15.928738,17 15.735632,17 H 6.011494 C 5.81839,17 5.666666,16.848284 5.666666,16.655178 c 0,-0.193106 0.151724,-0.344835 0.344828,-0.344835 z"
         id="path4-5"
         style="fill:#eff0f1;fill-opacity:1;stroke-width:0.137937"
         sodipodi:nodetypes="ccscccscccscssscccccccccccsssssss" />
    </g>
  </g>
  <metadata
     id="metadata18">
    <rdf:RDF>
      <cc:Work
         rdf:about="">
        <dc:format>image/svg+xml</dc:format>
        <dc:type
           rdf:resource="http://purl.org/dc/dcmitype/StillImage" />
      </cc:Work>
    </rdf:RDF>
  </metadata>
  <defs
     id="defs16">
    <linearGradient
       id="c"
       y1="13"
       y2="33"
       x2="0"
       gradientUnits="userSpaceOnUse"
       gradientTransform="matrix(1,0,0,-1,384.57,547.8)">
      <stop
         stop-color="#197cf1"
         id="stop12" />
      <stop
         offset="1"
         stop-color="#20bcfa"
         id="stop14" />
    </linearGradient>
    <linearGradient
       xlink:href="#c"
       id="d"
       y1="14"
       y2="33"
       x2="0"
       gradientUnits="userSpaceOnUse"
       gradientTransform="matrix(1,0,0,-1,-8,37)" />
    <linearGradient
       id="linearGradient917"
       y1="13"
       y2="33"
       x2="0"
       gradientUnits="userSpaceOnUse"
       gradientTransform="matrix(1,0,0,-1,384.57,547.8)">
      <stop
         stop-color="#197cf1"
         id="stop913" />
      <stop
         offset="1"
         stop-color="#20bcfa"
         id="stop915" />
    </linearGradient>
    <linearGradient
       inkscape:collect="always"
       xlink:href="#linearGradient907"
       id="linearGradient909-5"
       x1="17.000017"
       y1="21.899982"
       x2="17.000017"
       y2="22.899982"
       gradientUnits="userSpaceOnUse"
       gradientTransform="matrix(0.92213591,0,0,0.92213592,1.2458294,1.2458254)" />
    <linearGradient
       inkscape:collect="always"
       id="linearGradient907">
      <stop
         style="stop-color:#eff0f1;stop-opacity:1;"
         offset="0"
         id="stop902" />
      <stop
         style="stop-color:#eff0f1;stop-opacity:0;"
         offset="1"
         id="stop904" />
    </linearGradient>
    <linearGradient
       inkscape:collect="always"
       xlink:href="#linearGradient907"
       id="linearGradient878"
       gradientUnits="userSpaceOnUse"
       gradientTransform="matrix(0.61475725,0,0,0.61475726,1.1638847,1.163883)"
       x1="17.000017"
       y1="21.899982"
       x2="17.000017"
       y2="22.899982" />
  </defs>
  <sodipodi:namedview
     pagecolor="#ffffff"
     bordercolor="#666666"
     borderopacity="1"
     objecttolerance="10"
     gridtolerance="10"
     guidetolerance="10"
     inkscape:pageopacity="0"
     inkscape:pageshadow="2"
     inkscape:window-width="1920"
     inkscape:window-height="1007"
     id="namedview14"
     showgrid="false"
     inkscape:zoom="9.8125003"
     inkscape:cx="29.910827"
     inkscape:cy="16.10191"
     inkscape:window-x="0"
     inkscape:window-y="0"
     inkscape:window-maximized="1"
     inkscape:current-layer="svg12"
     inkscape:document-rotation="0"
     inkscape:pagecheckerboard="0"
     inkscape:lockguides="true">
    <inkscape:grid
       type="xygrid"
       id="grid849"
       originx="0"
       originy="0" />
  </sodipodi:namedview>
  <g
     id="kget">
    <rect
       style="opacity:0.00100002"
       width="32"
       height="32"
       x="0"
       y="0"
       id="rect7" />
    <path
       d="m 22.669108,5.1351694 c 2.321713,0 4.195722,1.874007 4.195722,4.195719 V 22.66667 c 0,2.321713 -1.874009,4.195722 -4.195722,4.195722 H 9.3308894 c -2.321709,0 -4.195722,-1.874009 -4.195722,-4.195722 V 9.3308884 c 0,-2.321712 1.874013,-4.195719 4.195722,-4.195719 H 22.669108 m 0,-1.122937 H 9.3308894 c -2.921106,0 -5.318657,2.397556 -5.318657,5.318656 V 22.66667 c 0,2.923548 2.397551,5.321098 5.318657,5.321098 H 22.666664 c 2.923554,0 5.321104,-2.39755 5.321104,-5.318661 V 9.3308884 c 0,-2.9211 -2.39755,-5.318656 -5.31866,-5.318656 z"
       id="path4-6"
       style="clip-rule:evenodd;fill:#eff0f1;fill-opacity:1;fill-rule:evenodd;stroke:url(#linearGradient909-5);stroke-width:0.0244648;stroke-linejoin:round;stroke-miterlimit:1.41421" />
    <path
       d="m 12.717239,7.517241 v 6.620693 h -2.110345 c -0.206893,0 -0.3931,0.124132 -0.475859,0.28966 -0.08275,0.186196 -0.06207,0.393101 0.08275,0.558609 l 5.213805,6.206912 c 0.103442,0.124131 0.248263,0.186196 0.393101,0.186196 0.14482,0 0.289659,-0.06205 0.393102,-0.186196 l 5.213798,-6.206912 c 0.124136,-0.144819 0.165513,-0.372413 0.08275,-0.558609 -0.103451,-0.186217 -0.26897,-0.28966 -0.475872,-0.28966 H 18.924143 V 7.517241 C 18.924143,7.227586 18.696556,7 18.406897,7 h -5.172406 c -0.289659,0 -0.517253,0.227586 -0.517252,0.517241 z m 5.172427,0.517242 v 0 0 0 z M 8.517241,23.965515 h 14.586208 c 0.289659,0 0.517253,0.227593 0.517253,0.517252 C 23.620702,24.772426 23.393108,25 23.103449,25 H 8.517241 C 8.227586,25 8,24.772426 8,24.482767 8,24.193108 8.227586,23.965515 8.517241,23.965515 Z"
       id="path4"
       style="fill:#eff0f1;fill-opacity:1;stroke-width:0.206905"
       sodipodi:nodetypes="ccscccscccscssscccccccccccsssssss" />
  </g>
</svg>
