<?xml version="1.0" encoding="UTF-8" standalone="no"?>
<svg
   width="32"
   height="32"
   version="1.1"
   id="svg12"
   sodipodi:docname="kgpg.svg"
   inkscape:version="1.1.1 (3bf5ae0d25, 2021-09-20)"
   xmlns:inkscape="http://www.inkscape.org/namespaces/inkscape"
   xmlns:sodipodi="http://sodipodi.sourceforge.net/DTD/sodipodi-0.dtd"
   xmlns="http://www.w3.org/2000/svg"
   xmlns:svg="http://www.w3.org/2000/svg"
   xmlns:rdf="http://www.w3.org/1999/02/22-rdf-syntax-ns#"
   xmlns:cc="http://creativecommons.org/ns#"
   xmlns:dc="http://purl.org/dc/elements/1.1/">
  <g
     id="kgpg"
     transform="translate(32,10.000001)">
    <rect
       style="opacity:0.00100002"
       width="22"
       height="22"
       x="0"
       y="0"
       id="rect2" />
    <path
       d="M 16.77988,15.302999 H 5.229099 c -0.978282,0 -1.773327,0.679054 -1.773327,1.513161 0,0.885786 0.795813,1.564839 1.773327,1.564839 h 11.55002 c 0.978274,0 1.773319,-0.679053 1.773319,-1.51316 7.9e-4,-0.885786 -0.795045,-1.56484 -1.772558,-1.56484 z M 7.996806,17.27017 c 0.120372,0.08113 0.140306,0.230281 0.04523,0.332989 -0.05521,0.05889 -0.1357,0.08897 -0.217741,0.08897 -0.06058,0 -0.121901,-0.01637 -0.1725,-0.05101 l -0.27446,-0.185814 h -0.0053 -0.0069 -0.0069 -0.0069 -0.0069 -0.0069 -0.0069 -7.34e-4 l -0.0015,0.210657 c -0.0015,0.130183 -0.125735,0.234851 -0.278305,0.234851 h -0.0023 c -0.153365,-6.66e-4 -0.2768,-0.107941 -0.276034,-0.23878 l 0.0015,-0.206728 h -0.0046 -0.0069 -0.0069 -0.0069 -0.0069 -0.0069 -0.0069 -0.0061 v 0 l -0.271409,0.177943 c -0.05061,0.03339 -0.109635,0.04909 -0.16867,0.04909 -0.08357,0 -0.165601,-0.03141 -0.220036,-0.09159 -0.09434,-0.104027 -0.07134,-0.252531 0.04979,-0.332343 l 0.169429,-0.111213 c -0.23669,-0.12329 -0.229028,-0.34497 0,-0.433736 L 6.116177,16.602238 c -0.120368,-0.08112 -0.140303,-0.230279 -0.04523,-0.332987 0.0966,-0.102708 0.271404,-0.119066 0.39024,-0.03859 l 0.274471,0.185789 h 0.0061 0.0069 0.0069 0.0069 0.0069 0.0069 0.0069 7.33e-4 l 0.0015,-0.210654 c 8e-4,-0.130838 0.09507,-0.236162 0.279837,-0.234854 0.153336,8e-4 0.276771,0.107944 0.276005,0.238784 l -0.0031,0.206724 h 0.0061 0.0069 0.0069 0.0069 0.0069 0.0069 0.0069 0.0061 l 0.271405,-0.1786 c 0.121909,-0.07916 0.296709,-0.05889 0.389472,0.04319 0.09354,0.104018 0.07054,0.252521 -0.05058,0.332333 l -0.169429,0.111214 c 0.09585,0.04345 0.151742,0.110592 0.161556,0.183679 0.01138,0.08481 -0.03927,0.17763 -0.161556,0.250707 z m 3.959897,0 c 0.120372,0.08113 0.140308,0.230937 0.04523,0.332989 -0.05515,0.05889 -0.135701,0.08897 -0.217729,0.08897 -0.06058,0 -0.121907,-0.01637 -0.17251,-0.05101 l -0.274468,-0.185804 h -0.0059 -0.0069 -0.0066 -0.0069 -0.0069 -0.0069 -0.0069 -8e-4 l -0.0017,0.210652 c -0.0017,0.130188 -0.124968,0.234857 -0.277539,0.234857 h -0.0025 c -0.153336,-8e-4 -0.27677,-0.107942 -0.276004,-0.23878 l 0.0017,-0.206729 h -0.0066 -0.0069 -0.0069 -0.0069 -0.0069 -0.0069 -0.0069 -0.0069 v 0 l -0.271405,0.177944 c -0.05059,0.03338 -0.109635,0.04908 -0.168668,0.04908 -0.08357,0 -0.165604,-0.03141 -0.220039,-0.09159 -0.09353,-0.104018 -0.07053,-0.252521 0.05063,-0.332333 l 0.169359,-0.111214 c -0.16229,-0.14949 -0.192982,-0.288765 0,-0.433731 l -0.163035,-0.110568 c -0.120368,-0.08112 -0.140301,-0.23093 -0.04523,-0.332987 0.09584,-0.102709 0.271408,-0.119063 0.390241,-0.03861 l 0.27447,0.185791 h 0.0057 0.0069 0.0069 0.0069 0.0069 0.0069 0.0069 8e-4 l 0.0017,-0.210653 c 0.0017,-0.130838 0.121902,-0.236163 0.279838,-0.234856 0.153335,8e-4 0.276771,0.107944 0.276006,0.238786 l -0.0017,0.206723 h 0.0066 0.0069 0.0069 0.0069 0.0069 0.0069 0.0069 0.0069 l 0.271404,-0.178593 c 0.121904,-0.07916 0.295939,-0.05955 0.389473,0.04319 0.09354,0.104017 0.07053,0.25252 -0.05059,0.332333 l -0.169398,0.111213 c 0.17354,0.150343 0.186404,0.294745 0,0.434389 z m 3.960666,0 c 0.120362,0.08113 0.140294,0.230937 0.04523,0.332989 -0.05515,0.05889 -0.135699,0.08897 -0.217739,0.08897 -0.06058,0 -0.121896,-0.01637 -0.172499,-0.05101 L 15.29789,17.455322 h -0.0057 -0.0069 -0.0069 -0.0069 -0.0069 -0.0069 -0.0066 -8e-4 l -0.0017,0.210651 c -0.0017,0.13019 -0.124969,0.234858 -0.277538,0.234858 h -0.0025 c -0.153336,-8e-4 -0.276772,-0.107942 -0.276005,-0.23878 l 0.0017,-0.206729 h -0.0066 -0.0069 -0.0069 -0.0066 -0.0069 -0.0069 -0.0069 -0.0069 v 0 l -0.270483,0.177943 c -0.05058,0.03338 -0.109633,0.04909 -0.168668,0.04909 -0.08357,0 -0.165601,-0.0314 -0.220034,-0.09159 -0.09354,-0.104018 -0.07054,-0.252521 0.05059,-0.332333 l 0.169436,-0.111214 c -0.197086,-0.166483 -0.199046,-0.311279 0,-0.433733 l -0.163189,-0.110583 c -0.120366,-0.08112 -0.140301,-0.230928 -0.04523,-0.332983 0.09584,-0.102713 0.27064,-0.119064 0.390244,-0.03862 l 0.274467,0.185792 h 0.0059 0.0069 0.0069 0.0069 0.0069 0.0069 0.0069 8e-4 l 0.0017,-0.21065 c 0.0017,-0.130189 0.12497,-0.234856 0.277538,-0.234856 h 0.0025 c 0.153334,8e-4 0.276772,0.10794 0.276005,0.238778 l -0.0033,0.206072 h 0.0066 0.0069 0.0069 0.0069 0.0069 0.0069 0.0069 0.0069 l 0.271456,-0.178598 c 0.121904,-0.07916 0.296706,-0.05955 0.389474,0.04319 0.09353,0.104013 0.07053,0.252521 -0.05058,0.332333 l -0.169437,0.111211 c 0.173207,0.130367 0.198811,0.273029 0,0.434388 z"
       id="path2-36"
       sodipodi:nodetypes="ssssscsccscccccccccccscccccccccccccsccccccccccccccccccccccccccccccccsccccscccccccccccscccccccccccccsccccccccccccccccccccccccccccccccccccscccccccccccscccccccccccccscccccccccccccccccsccccccccccccccccc"
       style="fill:#eff0f1;fill-opacity:1;stroke-width:0.708213" />
    <path
       d="m 11.092749,10.547994 c -0.23245,0 -0.503644,0.189587 -0.503644,0.422039 v 0.636353 c 0,0.232451 0.271193,0.422038 0.503644,0.422038 0.23245,0 0.503644,-0.189587 0.503644,-0.422038 v -0.637178 c 0,-0.23245 -0.271194,-0.421214 -0.503644,-0.421214 z"
       id="path6-7"
       sodipodi:nodetypes="sssssss"
       style="fill:#eff0f1;fill-opacity:1;stroke-width:0.824293" />
    <path
       d="M 13.305407,8.180021 V 5.826217 c 0,-1.145496 -1.008388,-2.078223 -2.250027,-2.078223 -1.240849,0 -2.250027,0.932727 -2.250027,2.078223 v 2.354588 c -1.005246,0.727808 -1.616248,1.852105 -1.616248,3.102024 0,2.131612 1.734836,3.865165 3.86706,3.865165 2.132225,0 3.866274,-1.733553 3.866274,-3.865165 -8.07e-4,-1.250704 -0.612571,-2.375001 -1.617032,-3.102808 z M 9.823953,5.826217 c 0,-0.583346 0.5521,-1.058347 1.231427,-1.058347 0.678543,0 1.230642,0.475001 1.230642,1.058347 v 1.796361 c -0.05027,-0.01649 -0.100523,-0.03374 -0.151573,-0.04947 -0.07068,-0.01964 -0.144505,-0.04005 -0.21911,-0.05574 -0.05811,-0.01333 -0.113092,-0.02353 -0.168854,-0.03456 -0.07618,-0.01333 -0.156283,-0.02589 -0.237175,-0.0361 l -0.112305,-0.01098 c -0.112304,-0.0102 -0.226178,-0.01728 -0.34241,-0.01728 -0.115448,0 -0.230107,0.0078 -0.343195,0.01728 l -0.105241,0.01097 c -0.08796,0.0102 -0.168064,0.02277 -0.247384,0.03769 -0.05103,0.0102 -0.10602,0.01964 -0.16021,0.0322 -0.07854,0.01728 -0.152358,0.03769 -0.225398,0.0581 -0.04867,0.01492 -0.09974,0.03137 -0.15,0.04867 V 5.826219 Z m 2.60343,5.682727 c 0,0.712892 -0.658904,1.292312 -1.371218,1.292312 -0.713096,0 -1.372004,-0.57942 -1.372004,-1.292312 v -0.606901 c 0,-0.712892 0.658908,-1.292316 1.372004,-1.292316 0.713098,0 1.371218,0.579424 1.371218,1.292316 z"
       id="path8-5"
       sodipodi:nodetypes="cssscsscccssccccccsccccccccsssssss"
       style="fill:#eff0f1;fill-opacity:1;stroke-width:0.785227" />
    <path
       d="m 15.450667,3.749388 c 1.54932,0 2.799946,1.250613 2.799946,2.8 v 8.899599 c 0,1.549382 -1.250626,2.8 -2.799946,2.8 h -8.90128 c -1.549394,0 -2.800007,-1.250618 -2.800007,-2.8 V 6.549388 c 0,-1.549387 1.250613,-2.8 2.800007,-2.8 h 8.90128 M 15.450667,3 H 6.549387 C 4.6,3 3,4.600001 3,6.549388 v 8.899599 C 3,17.4 4.6,19 6.549387,19 H 15.44902 C 17.399987,19 19,17.4 19,15.450607 V 6.549388 C 19,4.600001 17.399987,3 15.450667,3 Z"
       id="path4-3-3"
       style="clip-rule:evenodd;fill:#eff0f1;fill-opacity:1;fill-rule:evenodd;stroke-width:0.0163263;stroke-linejoin:round;stroke-miterlimit:1.41421" />
  </g>
  <metadata
     id="metadata18">
    <rdf:RDF>
      <cc:Work
         rdf:about="">
        <dc:format>image/svg+xml</dc:format>
        <dc:type
           rdf:resource="http://purl.org/dc/dcmitype/StillImage" />
      </cc:Work>
    </rdf:RDF>
  </metadata>
  <defs
     id="defs16" />
  <sodipodi:namedview
     pagecolor="#ffffff"
     bordercolor="#000000"
     borderopacity="1"
     objecttolerance="10"
     gridtolerance="10"
     guidetolerance="10"
     inkscape:pageopacity="0"
     inkscape:pageshadow="2"
     inkscape:window-width="1920"
     inkscape:window-height="1007"
     id="namedview14"
     showgrid="false"
     inkscape:zoom="9.8125003"
     inkscape:cx="33.579617"
     inkscape:cy="16.815286"
     inkscape:window-x="0"
     inkscape:window-y="0"
     inkscape:window-maximized="1"
     inkscape:current-layer="svg12"
     inkscape:document-rotation="0"
     inkscape:lockguides="false"
     inkscape:showpageshadow="false"
     inkscape:pagecheckerboard="0">
    <inkscape:grid
       type="xygrid"
       id="grid871"
       originx="-1e-06"
       originy="-4.6325683e-08" />
  </sodipodi:namedview>
  <g
     id="kgpg">
    <rect
       style="opacity:0.00100002"
       width="32"
       height="32"
       x="0"
       y="0"
       id="rect7" />
    <path
       d="M 24.086162,22.983 H 6.759991 C 5.292568,22.983 4.1,24.001581 4.1,25.252741 4.1,26.58142 5.293719,27.6 6.759991,27.6 h 17.32503 c 1.467411,0 2.659978,-1.01858 2.659978,-2.269741 C 26.746189,24.001581 25.552432,22.983 24.086162,22.983 Z m -13.174611,2.950756 c 0.180558,0.121687 0.210459,0.345421 0.06784,0.499483 -0.08282,0.08833 -0.203549,0.133454 -0.326611,0.133454 -0.09087,0 -0.182852,-0.02455 -0.25875,-0.07651 L 9.98234,26.211461 H 9.97434 9.96399 9.95364 9.94329 9.93294 9.92259 9.91224 9.91114 l -0.0023,0.315986 c -0.0023,0.195274 -0.188603,0.352277 -0.417457,0.352277 h -0.0034 c -0.230047,-9.99e-4 -0.4152,-0.161912 -0.41405,-0.35817 l 0.0023,-0.310093 h -0.0069 -0.01035 -0.01035 -0.01035 -0.01035 -0.01035 -0.01035 -0.0092 v 0 l -0.407114,0.266915 c -0.07591,0.05009 -0.164453,0.07363 -0.253005,0.07363 -0.12535,0 -0.248402,-0.04711 -0.330054,-0.137383 -0.14151,-0.15604 -0.10701,-0.378797 0.07469,-0.498514 l 0.254143,-0.16682 c -0.355035,-0.184935 -0.343542,-0.517455 0,-0.650604 L 8.090582,24.931858 c -0.180553,-0.121685 -0.210454,-0.345419 -0.06785,-0.499481 0.144902,-0.154062 0.407106,-0.178599 0.58536,-0.05788 l 0.411707,0.278683 h 0.0092 0.01035 0.01035 0.01035 0.01035 0.01035 0.01035 0.0011 l 0.0023,-0.31598 c 0.0012,-0.196257 0.142602,-0.354243 0.419756,-0.352281 0.230004,0.0012 0.415157,0.161916 0.414007,0.358175 l -0.0046,0.310086 h 0.0092 0.01035 0.01035 0.01035 0.01035 0.01035 0.01035 0.0092 l 0.407108,-0.2679 c 0.182863,-0.118733 0.445064,-0.08833 0.584208,0.06479 0.140312,0.156027 0.105807,0.378782 -0.07587,0.4985 l -0.254144,0.16682 c 0.143779,0.06518 0.227614,0.165888 0.242334,0.275519 0.01707,0.127222 -0.0589,0.266445 -0.242334,0.376061 z m 5.939846,0 c 0.180558,0.121687 0.210461,0.346406 0.06784,0.499483 -0.08273,0.08833 -0.203551,0.133454 -0.326593,0.133454 -0.09087,0 -0.182861,-0.02455 -0.258765,-0.07651 l -0.411703,-0.278706 h -0.0088 -0.01032 -0.0099 -0.01032 -0.01032 -0.01032 -0.01032 -0.0012 l -0.0025,0.315978 c -0.0025,0.195282 -0.187453,0.352285 -0.416309,0.352285 h -0.0037 c -0.230004,-0.0012 -0.415155,-0.161913 -0.414006,-0.35817 l 0.0025,-0.310093 h -0.0099 -0.01032 -0.01031 -0.01032 -0.01028 -0.01032 -0.0103 -0.01032 v 0 l -0.407107,0.266915 c -0.07588,0.05007 -0.164452,0.07362 -0.253002,0.07362 -0.125354,0 -0.248406,-0.04711 -0.330058,-0.137382 -0.1403,-0.156027 -0.105801,-0.378781 0.07594,-0.498499 l 0.254039,-0.166821 c -0.243435,-0.224235 -0.289473,-0.433147 0,-0.650597 L 14.02985,24.932861 c -0.180552,-0.12168 -0.210452,-0.346395 -0.06784,-0.49948 0.143757,-0.154063 0.407111,-0.178595 0.585361,-0.05791 l 0.411705,0.278686 h 0.0086 0.01032 0.01032 0.01032 0.01032 0.01031 0.01032 0.0012 l 0.0025,-0.315979 c 0.0025,-0.196257 0.182853,-0.354245 0.419756,-0.352284 0.230003,0.0012 0.415157,0.161916 0.414009,0.358178 l -0.0025,0.310085 h 0.0099 0.01031 0.01028 0.01032 0.0103 0.01032 0.01032 0.01032 l 0.407106,-0.26789 c 0.182855,-0.118738 0.443908,-0.08932 0.584209,0.06479 0.140304,0.156025 0.105801,0.37878 -0.07589,0.498499 l -0.254096,0.16682 c 0.260309,0.225515 0.279606,0.442118 0,0.651583 z m 5.940998,0 c 0.180543,0.121687 0.210441,0.346406 0.06784,0.499483 -0.08273,0.08833 -0.203549,0.133454 -0.326609,0.133454 -0.09087,0 -0.182844,-0.02455 -0.258748,-0.07651 l -0.411707,-0.278696 h -0.0086 -0.01032 -0.01031 -0.01032 -0.01029 -0.01031 -0.0099 -0.0012 l -0.0025,0.315976 c -0.0025,0.195285 -0.187454,0.352287 -0.416308,0.352287 h -0.0037 c -0.230004,-0.0012 -0.415158,-0.161913 -0.414008,-0.35817 l 0.0025,-0.310093 h -0.0099 -0.01034 -0.0103 -0.0099 -0.0103 -0.01031 -0.01032 -0.01032 v 0 l -0.405725,0.266915 c -0.07587,0.05007 -0.16445,0.07363 -0.253002,0.07363 -0.125347,0 -0.248402,-0.0471 -0.330051,-0.137381 -0.140308,-0.156027 -0.105809,-0.378781 0.07588,-0.498499 l 0.254155,-0.166821 c -0.295629,-0.249724 -0.29857,-0.466918 0,-0.650599 l -0.244784,-0.165875 c -0.180549,-0.121675 -0.210451,-0.346392 -0.06784,-0.499475 0.143758,-0.154069 0.405959,-0.178595 0.585366,-0.05793 l 0.4117,0.278689 h 0.0088 0.0103 0.01032 0.01031 0.01031 0.01032 0.0103 0.0012 l 0.0025,-0.315975 c 0.0025,-0.195284 0.187454,-0.352285 0.416307,-0.352285 h 0.0037 c 0.230001,0.0012 0.415158,0.161911 0.414008,0.358167 l -0.0049,0.309109 h 0.0099 0.01032 0.01032 0.01032 0.01032 0.01033 0.01031 0.01031 l 0.407184,-0.267898 c 0.182856,-0.118741 0.445059,-0.08933 0.584211,0.06479 0.140301,0.15602 0.105799,0.378781 -0.07587,0.498499 l -0.254155,0.166817 c 0.25981,0.19555 0.298216,0.409543 0,0.651582 z"
       id="path2"
       sodipodi:nodetypes="ssssscsccscccccccccccscccccccccccccsccccccccccccccccccccccccccccccccsccccscccccccccccscccccccccccccsccccccccccccccccccccccccccccccccccccscccccccccccscccccccccccccscccccccccccccccccsccccccccccccccccc"
       style="fill:#eff0f1;fill-opacity:1;stroke-width:1.06232" />
    <path
       d="M 15.555466,15.9 C 15.20679,15.9 14.8,16.184381 14.8,16.533058 v 0.95453 c 0,0.348676 0.406789,0.633057 0.755466,0.633057 0.348675,0 0.755465,-0.284381 0.755465,-0.633057 V 16.531821 C 16.310931,16.183146 15.904141,15.9 15.555466,15.9 Z"
       id="path6"
       sodipodi:nodetypes="sssssss"
       style="fill:#eff0f1;fill-opacity:1;stroke-width:1.23644" />
    <path
       d="M 18.874453,12.34804 V 8.8173353 C 18.874453,7.0990908 17.36187,5.7 15.499412,5.7 13.638138,5.7 12.124371,7.0990908 12.124371,8.8173353 V 12.349217 C 10.616503,13.440928 9.7,15.127374 9.7,17.002252 9.7,20.199671 12.302253,22.8 15.500589,22.8 18.698927,22.8 21.3,20.199671 21.3,17.002252 21.2988,15.126197 20.381144,13.439751 18.874453,12.34804 Z M 13.652271,8.8173353 c 0,-0.8750207 0.82815,-1.5875213 1.847141,-1.5875213 1.017814,0 1.845963,0.7125006 1.845963,1.5875213 v 2.6945407 c -0.0754,-0.02474 -0.150784,-0.05061 -0.22736,-0.07421 -0.106019,-0.02946 -0.216757,-0.06007 -0.328665,-0.08361 -0.08717,-0.02 -0.169638,-0.03529 -0.25328,-0.05184 -0.114266,-0.02 -0.234425,-0.03883 -0.355763,-0.05415 l -0.168458,-0.01647 c -0.168456,-0.0153 -0.339266,-0.02592 -0.513614,-0.02592 -0.173172,0 -0.345161,0.01176 -0.514793,0.02592 l -0.157861,0.01646 c -0.131935,0.0153 -0.252096,0.03415 -0.371076,0.05654 -0.07655,0.0153 -0.15903,0.02946 -0.240316,0.0483 -0.117802,0.02592 -0.228537,0.05654 -0.338096,0.08715 -0.07301,0.02238 -0.149608,0.04706 -0.225,0.073 V 8.8173373 Z m 3.905146,8.5240897 c 0,1.069338 -0.988357,1.938468 -2.056828,1.938468 -1.069643,0 -2.058005,-0.86913 -2.058005,-1.938468 v -0.910352 c 0,-1.069338 0.988362,-1.938473 2.058005,-1.938473 1.069648,0 2.056828,0.869135 2.056828,1.938473 z"
       id="path8"
       sodipodi:nodetypes="cssscsscccssccccccsccccccccsssssss"
       style="fill:#eff0f1;fill-opacity:1;stroke-width:1.17784" />
    <path
       d="m 22.092342,5.7020911 c 2.32398,0 4.19992,1.875919 4.19992,4.2 V 23.251489 c 0,2.324074 -1.87594,4.2 -4.19992,4.2 H 8.740422 c -2.32409,0 -4.20001,-1.875926 -4.20001,-4.2 V 9.9020911 c 0,-2.324081 1.87592,-4.2 4.20001,-4.2 h 13.35192 m 0,-1.124082 H 8.740422 c -2.92408,0 -5.32408,2.400001 -5.32408,5.324082 V 23.251489 c 0,2.92652 2.4,5.32652 5.32408,5.32652 h 13.34945 c 2.92645,0 5.32647,-2.4 5.32647,-5.324089 V 9.9020911 c 0,-2.924081 -2.40002,-5.324082 -5.324,-5.324082 z"
       id="path4-3"
       style="clip-rule:evenodd;fill:#eff0f1;fill-opacity:1;fill-rule:evenodd;stroke-width:0.0244895;stroke-linejoin:round;stroke-miterlimit:1.41421" />
  </g>
</svg>
