<?xml version="1.0" encoding="UTF-8" standalone="no"?>
<svg
   width="32"
   height="32"
   version="1"
   id="svg12"
   sodipodi:docname="klipper.svg"
   inkscape:version="1.1.2 (0a00cf5339, 2022-02-04)"
   xmlns:inkscape="http://www.inkscape.org/namespaces/inkscape"
   xmlns:sodipodi="http://sodipodi.sourceforge.net/DTD/sodipodi-0.dtd"
   xmlns="http://www.w3.org/2000/svg"
   xmlns:svg="http://www.w3.org/2000/svg"
   xmlns:rdf="http://www.w3.org/1999/02/22-rdf-syntax-ns#"
   xmlns:cc="http://creativecommons.org/ns#"
   xmlns:dc="http://purl.org/dc/elements/1.1/">
  <g
     id="22-22-klipper"
     transform="translate(32,10)">
    <rect
       style="opacity:0.00100002"
       width="22"
       height="22"
       x="0"
       y="0"
       id="rect2" />
    <path
       d="M 15.258945,8.973091 15.557431,8.455609 C 15.77094,8.086142 16.243425,7.960631 16.6124,8.173134 v 0 c 0.369477,0.212991 0.495497,0.684979 0.282499,1.054466 l -0.298994,0.517479 z"
       id="path6-36"
       style="fill:#eff0f1;fill-opacity:1;stroke-width:0.49997" />
    <path
       d="m 15.116938,9.218099 -3.369877,5.837821 -0.08,1.28096 c -0.0055,0.09398 0.03487,0.17549 0.107482,0.216996 0.072,0.04147 0.161513,0.03644 0.241998,-0.016 L 13.084518,15.8284 16.454909,9.991585 Z m -2.761395,6.722297 -0.342023,-0.197007 0.02649,-0.518982 0.751959,0.433983 z"
       id="path8-7"
       style="fill:#eff0f1;fill-opacity:1;stroke-width:0.49997" />
    <path
       d="M 15.450654,4 C 16.999977,4 18,5.000001 18,6.549379 v 8.89961 C 18,16.99837 16.999977,18 15.450654,18 H 6.549381 C 4.999989,18 4,16.99837 4,15.448989 V 6.549379 C 4,5.000001 4.999989,4 6.549381,4 h 8.901273 m 0,-1 H 6.549381 C 4.6,3 3,4.600001 3,6.549379 v 8.89961 C 3,17.4 4.6,19 6.549381,19 h 8.899649 c 1.950947,0 3.550967,-1.6 3.550967,-3.54939 V 6.549379 C 18.999997,4.600001 17.399977,3 15.450654,3 Z"
       id="path4-3-5"
       style="clip-rule:evenodd;fill:#eff0f1;fill-opacity:1;fill-rule:evenodd;stroke-width:0.0163278;stroke-linejoin:round;stroke-miterlimit:1.41421"
       sodipodi:nodetypes="cssssssscsssssssss" />
    <path
       d="m 12.898982,8 h -6.68647 a 0.54585192,0.5 0 0 0 0,1 h 6.68647 a 0.54585192,0.5 0 0 0 0,-1 z"
       id="path6-3-3"
       style="fill:#eff0f1;fill-opacity:1;stroke-width:0.2612" />
    <path
       d="M 11.56552,10 H 6.11176 a 0.44521984,0.5 0 0 0 0,1 h 5.45376 a 0.44521984,0.5 0 0 0 0,-1 z"
       id="path8-6-56"
       style="fill:#eff0f1;fill-opacity:1;stroke-width:0.235891" />
    <path
       d="M 15,6 H 5.91048 a 0.3246351,0.5 0 0 0 0,1 H 15 a 0.3246351,0.5 0 0 0 0,-1 z"
       id="path12-2"
       style="fill:#eff0f1;fill-opacity:1;stroke-width:0.201433" />
    <path
       d="M 10.399656,15 H 6.1785811 a 0.3445811,0.5 0 0 0 0,1 h 4.2210749 a 0.3445811,0.5 0 0 0 0,-1 z"
       id="path8-6-5-9"
       style="fill:#eff0f1;fill-opacity:1;stroke-width:0.20753" />
    <path
       d="M 11.565668,12 H 6.111883 a 0.44521644,0.5 0 0 0 0,1 h 5.453785 a 0.44521644,0.5 0 0 0 0,-1 z"
       id="path8-6-7-1"
       style="fill:#eff0f1;fill-opacity:1;stroke-width:0.235895" />
  </g>
  <metadata
     id="metadata18">
    <rdf:RDF>
      <cc:Work
         rdf:about="">
        <dc:format>image/svg+xml</dc:format>
        <dc:type
           rdf:resource="http://purl.org/dc/dcmitype/StillImage" />
      </cc:Work>
    </rdf:RDF>
  </metadata>
  <defs
     id="defs16" />
  <sodipodi:namedview
     pagecolor="#ffffff"
     bordercolor="#000000"
     borderopacity="1"
     objecttolerance="10"
     gridtolerance="10"
     guidetolerance="10"
     inkscape:pageopacity="0"
     inkscape:pageshadow="2"
     inkscape:window-width="1920"
     inkscape:window-height="1009"
     id="namedview14"
     showgrid="false"
     inkscape:zoom="10.633376"
     inkscape:cx="30.234989"
     inkscape:cy="17.68018"
     inkscape:window-x="0"
     inkscape:window-y="0"
     inkscape:window-maximized="1"
     inkscape:current-layer="svg12"
     inkscape:document-rotation="0"
     inkscape:lockguides="true"
     showguides="true"
     inkscape:showpageshadow="false"
     inkscape:pagecheckerboard="0">
    <inkscape:grid
       type="xygrid"
       id="grid855"
       originx="0"
       originy="0" />
  </sodipodi:namedview>
  <g
     id="klipper">
    <rect
       style="opacity:0.00100002"
       width="32"
       height="32"
       x="0"
       y="0"
       id="rect7" />
    <path
       d="m 22.388402,12.866216 0.447749,-0.776218 c 0.320246,-0.554233 1.028971,-0.742481 1.582433,-0.423738 v 0 c 0.554238,0.319488 0.74325,1.027464 0.423755,1.581705 L 24.393842,14.0242 Z"
       id="path6"
       style="fill:#eff0f1;fill-opacity:1;stroke-width:0.749969" />
    <path
       d="m 22.175418,13.233705 -5.054837,8.75674 -0.119996,1.92144 c -0.0072,0.140977 0.05243,0.263234 0.161242,0.325494 0.107996,0.0622 0.24225,0.05468 0.362975,-0.024 l 1.601965,-1.064218 5.05559,-8.755233 z m -4.142115,10.083449 -0.513003,-0.295507 0.03976,-0.778463 1.127958,0.650967 z"
       id="path8"
       style="fill:#eff0f1;fill-opacity:1;stroke-width:0.749969" />
    <path
       d="M 22.675997,5 C 24.999977,5 27,7.000001 27,9.3240819 V 22.67348 C 27,24.997554 24.999977,27 22.675997,27 H 9.324084 C 6.999989,27 4.9958217,24.99755 5,22.67348 L 5.024,9.3240819 C 5.0281783,7.0000048 6.9999928,4.9958225 9.324084,5 l 13.351913,0.024 m 0,-1.024 H 9.324084 C 6.4,4 4,6.400001 4,9.3240819 V 22.67348 C 4,25.6 6.4,28 9.324084,28 h 13.349443 c 2.92645,0 5.32647,-2.4 5.32647,-5.324089 V 9.3240819 C 27.999997,6.400001 25.599977,4 22.675997,4 Z"
       id="path4-3"
       style="clip-rule:evenodd;fill:#eff0f1;fill-opacity:1;fill-rule:evenodd;stroke-width:0.0244895;stroke-linejoin:round;stroke-miterlimit:1.41421"
       sodipodi:nodetypes="cssssssscsssssssss" />
    <path
       d="M 18.548,12 H 9.019 c -0.6533024,0 -0.6590421,1 0,1 h 9.529 c 0.810086,0 0.793982,-1 0,-1 z"
       id="path6-3"
       style="fill:#eff0f1;fill-opacity:1;stroke-width:0.319909"
       sodipodi:nodetypes="sssss" />
    <path
       d="M 16.848296,15 H 8.6676216 a 0.66781046,0.50000002 0 0 0 0,1 h 8.1806744 a 0.66781046,0.50000002 0 0 0 0,-1 z"
       id="path8-6"
       style="fill:#eff0f1;fill-opacity:1;stroke-width:0.288922" />
    <path
       d="M 22,9 H 8.3657264 a 0.48693851,0.5 0 0 0 0,1 H 22 a 0.48693851,0.5 0 0 0 0,-1 z"
       id="path12"
       style="fill:#eff0f1;fill-opacity:1;stroke-width:0.246712" />
    <path
       d="M 14.848485,21 H 8.516867 a 0.51686701,0.5 0 0 0 0,1 h 6.331618 a 0.51686701,0.5 0 0 0 0,-1 z"
       id="path8-6-5"
       style="fill:#eff0f1;fill-opacity:1;stroke-width:0.254181" />
    <path
       d="M 16.848485,18 H 8.6678105 C 8,18 8,19 8.6678105,19 h 8.1806745 c 0.638287,0 0.651481,-1 0,-1 z"
       id="path8-6-7"
       style="fill:#eff0f1;fill-opacity:1;stroke-width:0.288922"
       sodipodi:nodetypes="sssss" />
  </g>
</svg>
