<?xml version="1.0" encoding="UTF-8" standalone="no"?>
<svg
   xmlns:dc="http://purl.org/dc/elements/1.1/"
   xmlns:cc="http://creativecommons.org/ns#"
   xmlns:rdf="http://www.w3.org/1999/02/22-rdf-syntax-ns#"
   xmlns:svg="http://www.w3.org/2000/svg"
   xmlns="http://www.w3.org/2000/svg"
   xmlns:sodipodi="http://sodipodi.sourceforge.net/DTD/sodipodi-0.dtd"
   xmlns:inkscape="http://www.inkscape.org/namespaces/inkscape"
   width="32"
   height="32"
   version="1.1"
   id="svg12"
   sodipodi:docname="kmail.svg"
   inkscape:version="1.0.2 (e86c870879, 2021-01-15)">
  <g
     id="22-22-kmail"
     transform="translate(32,10)">
    <rect
       style="opacity:0.00100002"
       width="22"
       height="22"
       x="0"
       y="0"
       id="rect2" />
    <path
       d="m 18.84302,5.142019 c 0.630575,0 1.142019,0.5114438 1.142019,1.142019 v 9.427819 c 0,0.630575 -0.511444,1.142019 -1.142019,1.142019 H 3.286092 c -0.6305753,0 -1.142019,-0.511444 -1.142019,-1.142019 V 6.284038 c 0,-0.6305752 0.5114437,-1.142019 1.142019,-1.142019 H 18.84302 M 18.84302,4 H 3.286092 C 2.0228875,4 1,5.0228875 1,6.286092 v 9.427819 c 0,1.263204 1.0228875,2.286092 2.286092,2.286092 H 18.84302 c 1.263204,0 2.286092,-1.022888 2.286092,-2.286092 V 6.286092 C 21.129112,5.0228875 20.106224,4 18.84302,4 Z"
       id="path4-6"
       style="fill:#eff0f1;fill-opacity:1;stroke-width:0.0205399" />
    <path
       d="m 9.5371187,12.22635 c -0.094592,0.236934 -0.1423484,0.426117 -0.1423484,0.568466 0,0.189184 0.094592,0.379281 0.2837762,0.379281 0.8054065,0 1.7054055,-1.468463 1.7054055,-2.652237 0,-1.752253 -1.563059,-2.9369418 -3.3162221,-2.9369418 -2.1306118,-0.095506 -3.7882654,1.7044898 -3.7882654,3.6468398 0,2.036931 1.6576536,3.647747 3.83694,3.647747 1.1837743,0 2.4162215,-0.616221 3.0315295,-1.326113 h 0.947759 C 11.289361,14.878591 9.7263014,15.684 8.0208933,15.684 c -2.605407,0 -4.6891836,-1.942351 -4.6891836,-4.547759 0,-2.463058 2.1315306,-4.452241 4.6891836,-4.452241 2.3684677,0 4.3108157,1.563059 4.3108157,3.694592 0,2.083773 -1.8,3.457649 -2.8423454,3.457649 -0.5684703,0 -0.9,-0.283774 -0.9477549,-0.805409 h -0.047759 c -0.3792866,0.379292 -0.7576535,0.805409 -1.5162244,0.805409 -1.0891845,0 -1.7999999,-0.852241 -1.7999999,-1.894591 0.047758,-1.610817 1.1837749,-3.363059 2.9369377,-3.363059 0.5684703,0 1.1837764,0.283775 1.4207171,0.947758 h 0.047753 L 9.8199736,8.768689 H 10.625383 Z M 8.1154862,9.478591 c -1.0891847,0 -1.8945928,1.373876 -1.8945928,2.416226 0,0.710817 0.4261226,1.089183 1.0423477,1.089183 0.9477552,0 1.7999999,-1.468468 1.7999999,-2.463059 C 9.015483,9.904716 8.7317106,9.478591 8.1154862,9.478591 Z"
       id="path4-3-5"
       style="fill:#eff0f1;fill-opacity:1;stroke-width:0.00918364" />
  </g>
  <metadata
     id="metadata18">
    <rdf:RDF>
      <cc:Work
         rdf:about="">
        <dc:format>image/svg+xml</dc:format>
        <dc:type
           rdf:resource="http://purl.org/dc/dcmitype/StillImage" />
        <dc:title></dc:title>
      </cc:Work>
    </rdf:RDF>
  </metadata>
  <defs
     id="defs16" />
  <sodipodi:namedview
     pagecolor="#ffffff"
     bordercolor="#000000"
     borderopacity="1"
     objecttolerance="10"
     gridtolerance="10"
     guidetolerance="10"
     inkscape:pageopacity="0"
     inkscape:pageshadow="2"
     inkscape:window-width="1920"
     inkscape:window-height="1007"
     id="namedview14"
     showgrid="false"
     inkscape:zoom="6.9384855"
     inkscape:cx="48.113862"
     inkscape:cy="6.329487"
     inkscape:window-x="0"
     inkscape:window-y="0"
     inkscape:window-maximized="1"
     inkscape:current-layer="svg12"
     inkscape:document-rotation="0"
     showguides="false"
     inkscape:lockguides="false"
     inkscape:showpageshadow="false">
    <inkscape:grid
       type="xygrid"
       id="grid859"
       originx="-32"
       originy="-10" />
  </sodipodi:namedview>
  <g
     id="kmail">
    <rect
       style="opacity:0.00100002"
       width="32"
       height="32"
       x="0"
       y="0"
       id="rect7" />
    <path
       d="m 27.090021,7.6314553 c 0.900822,0 1.631455,0.7306337 1.631455,1.6314552 V 22.731219 c 0,0.900821 -0.730633,1.631455 -1.631455,1.631455 H 4.865845 c -0.900822,0 -1.631455,-0.730634 -1.631455,-1.631455 V 9.2629105 c 0,-0.9008215 0.730633,-1.6314552 1.631455,-1.6314552 H 27.090021 M 27.090021,6 H 4.865845 C 3.061268,6 1.6,7.4612675 1.6,9.2658448 V 22.734153 c 0,1.804578 1.461268,3.265845 3.265845,3.265845 h 22.224176 c 1.804577,0 3.265845,-1.461267 3.265845,-3.265845 V 9.2658448 C 30.355866,7.4612675 28.894598,6 27.090021,6 Z"
       id="path4"
       style="fill:#eff0f1;fill-opacity:1;stroke-width:0.0293427" />
    <path
       d="m 13.894388,17.539619 c -0.136632,0.342234 -0.205619,0.615498 -0.205619,0.821117 0,0.273264 0.136632,0.547848 0.409897,0.547848 1.163367,0 2.463367,-2.121112 2.463367,-3.831009 0,-2.531034 -2.257749,-4.242255 -4.790104,-4.242255 -3.0775412,-0.137952 -5.4719299,2.462048 -5.4719299,5.267667 0,2.94223 2.3943887,5.268966 5.5422379,5.268966 1.7099,0 3.490104,-0.8901 4.378887,-1.915494 h 1.368987 C 16.425401,21.370632 14.167652,22.534 11.704284,22.534 7.9409184,22.534 4.93102,19.728381 4.93102,15.965013 4.93102,12.407264 8.0098987,9.534 11.704284,9.534 c 3.421117,0 6.226736,2.257749 6.226736,5.336632 0,3.009897 -2.6,4.994381 -4.105619,4.994381 -0.821117,0 -1.3,-0.409896 -1.368966,-1.163367 h -0.06896 c -0.547851,0.547869 -1.09438,1.163367 -2.190097,1.163367 -1.5732645,0 -2.5999988,-1.231013 -2.5999988,-2.736632 0.068986,-2.326736 1.7098985,-4.857749 4.2422448,-4.857749 0.821116,0 1.709897,0.409897 2.052148,1.368987 h 0.06896 l 0.342254,-1.094402 h 1.163366 z m -2.053472,-3.968987 c -1.573264,0 -2.7366313,1.984485 -2.7366313,3.490104 0,1.026736 0.6155101,1.573264 1.5056173,1.573264 1.368971,0 2.600001,-2.121117 2.600001,-3.557749 -0.06896,-0.890104 -0.478883,-1.505619 -1.368987,-1.505619 z"
       id="path4-3"
       style="fill:#eff0f1;fill-opacity:1;stroke-width:0.0132645" />
  </g>
</svg>
