<?xml version="1.0" encoding="UTF-8" standalone="no"?>
<svg
   id="svg3287"
   version="1.1"
   inkscape:version="1.2.1 (9c6d41e410, 2022-07-14)"
   width="32.000004"
   height="32"
   sodipodi:docname="knotes.svg"
   viewBox="0 0 32.000004 32"
   xmlns:inkscape="http://www.inkscape.org/namespaces/inkscape"
   xmlns:sodipodi="http://sodipodi.sourceforge.net/DTD/sodipodi-0.dtd"
   xmlns="http://www.w3.org/2000/svg"
   xmlns:svg="http://www.w3.org/2000/svg"
   xmlns:rdf="http://www.w3.org/1999/02/22-rdf-syntax-ns#"
   xmlns:cc="http://creativecommons.org/ns#"
   xmlns:dc="http://purl.org/dc/elements/1.1/">
  <metadata
     id="metadata4159">
    <rdf:RDF>
      <cc:Work
         rdf:about="">
        <dc:format>image/svg+xml</dc:format>
        <dc:type
           rdf:resource="http://purl.org/dc/dcmitype/StillImage" />
      </cc:Work>
    </rdf:RDF>
  </metadata>
  <defs
     id="defs3287">
    <style
       type="text/css"
       id="current-color-scheme" />
    <linearGradient
       id="oomox"
       x1="33"
       x2="33"
       y1="81"
       y2="95"
       gradientUnits="userSpaceOnUse">
      <stop
         offset="0%"
         style="stop-color:#303b3d; stop-opacity:1"
         id="stop18" />
      <stop
         offset="100%"
         style="stop-color:#bc985d; stop-opacity:1"
         id="stop20" />
    </linearGradient>
  </defs>
  <sodipodi:namedview
     pagecolor="#ffffff"
     bordercolor="#000000"
     borderopacity="1"
     objecttolerance="10"
     gridtolerance="10000"
     guidetolerance="10"
     inkscape:pageopacity="0"
     inkscape:pageshadow="2"
     inkscape:window-width="1920"
     inkscape:window-height="1010"
     id="namedview4155"
     inkscape:document-units="px"
     showgrid="false"
     inkscape:showpageshadow="true"
     borderlayer="true"
     inkscape:zoom="8.0000004"
     inkscape:cx="20.999999"
     inkscape:cy="12.687499"
     inkscape:window-x="0"
     inkscape:window-y="0"
     inkscape:window-maximized="1"
     inkscape:current-layer="svg3287"
     fit-margin-top="0"
     fit-margin-left="0"
     fit-margin-right="0"
     fit-margin-bottom="0"
     inkscape:snap-bbox="true"
     inkscape:bbox-nodes="true"
     inkscape:document-rotation="0"
     showguides="false"
     inkscape:lockguides="false"
     inkscape:pagecheckerboard="0"
     inkscape:deskcolor="#cccccc">
    <inkscape:grid
       type="xygrid"
       id="grid4140"
       originx="1.3415527e-07"
       originy="0" />
    <sodipodi:guide
       position="2.0000001,29.999999"
       orientation="28,0"
       id="guide4186"
       inkscape:locked="false" />
    <sodipodi:guide
       position="2.0000001,1.999999"
       orientation="0,28.000004"
       id="guide4188"
       inkscape:locked="false" />
    <sodipodi:guide
       position="30.000004,1.999999"
       orientation="-28,0"
       id="guide4190"
       inkscape:locked="false" />
    <sodipodi:guide
       position="30.000004,29.999999"
       orientation="0,-28.000004"
       id="guide4192"
       inkscape:locked="false" />
    <sodipodi:guide
       position="1.3415527e-07,31.999999"
       orientation="32,0"
       id="guide4194"
       inkscape:locked="false" />
    <sodipodi:guide
       position="1.3415527e-07,-1e-06"
       orientation="0,32.000004"
       id="guide4196"
       inkscape:locked="false" />
    <sodipodi:guide
       position="32.000004,-1e-06"
       orientation="-32,0"
       id="guide4198"
       inkscape:locked="false" />
    <sodipodi:guide
       position="32.000004,31.999999"
       orientation="0,-32.000004"
       id="guide4200"
       inkscape:locked="false" />
  </sodipodi:namedview>
  <inkscape:clipboard
     style="opacity:0.01000001;fill:#00000f;fill-opacity:0;stroke-width:1;stroke-linecap:butt;stroke-linejoin:miter;stroke-miterlimit:4;stroke-dasharray:none;stroke-dashoffset:0;stroke-opacity:1;stroke:none"
     min="0,0"
     max="22,22" />
  <g
     id="knotes">
    <rect
       y="0"
       x="-1.3415527e-07"
       height="32"
       width="32.000004"
       id="rect4230"
       style="fill:none;fill-opacity:1;stroke:none" />
    <path
       d="m 9.239183,14 h 6.52161 C 15.892886,14 16,13.776123 16,13.499999 16,13.223877 15.892897,13 15.760793,13 H 9.239183 C 9.107093,13 9,13.223877 9,13.499999 9,13.776123 9.107086,14 9.239183,14 Z"
       id="path4-3"
       style="fill:#eff0f1;fill-opacity:1;stroke-width:0.34583" />
    <path
       d="m 9.192955,10 h 4.61409 C 13.913557,10 14,9.7761232 14,9.5000006 14,9.2238768 13.913677,9 13.807045,9 H 9.192955 C 9.086275,9 9,9.2238768 9,9.5000006 9,9.7761232 9.08632,10 9.192955,10 Z"
       id="path6-6"
       style="fill:#eff0f1;fill-opacity:1;stroke-width:0.310613" />
    <path
       d="m 9.379054,18 h 8.24189 C 17.830284,18 18,17.776123 18,17.500001 18,17.223877 17.830285,17 17.620944,17 H 9.379054 C 9.169716,17 9,17.223877 9,17.500001 9,17.776123 9.169713,18 9.379054,18 Z"
       id="path8"
       style="fill:#eff0f1;fill-opacity:1;stroke-width:0.435349" />
    <path
       d="M 19.649671,22 H 9.350303 C 9.156849,22 9,22.223878 9,22.500001 9,22.776123 9.156849,23 9.350303,23 H 19.649671 C 19.843126,23 20,22.776123 20,22.500001 20,22.223878 19.843126,22 19.649671,22 Z"
       id="path10-7"
       style="fill:#eff0f1;fill-opacity:1;stroke-width:0.418517" />
    <path
       d="M 22.000213,8 C 20.897272,8 20,8.8237446 20,9.8361751 v 1.5063929 1.178386 7.788712 c 0,0.0351 0.008,0.06801 0.02351,0.09809 5.21e-4,0.0011 2.83e-4,0.0024 8.7e-4,0.0036 l 1.736147,3.44792 C 21.803687,23.945075 21.897334,24 22.000226,24 c 0.102895,0 0.196505,-0.05492 0.239688,-0.140743 l 0.892588,-1.772756 c 7.18e-4,-0.0013 0.0018,-0.0023 0.0023,-0.0036 5.8e-4,-0.0011 3.7e-4,-0.0023 9.18e-4,-0.0034 l 0.839896,-1.668088 c 5.79e-4,-0.0011 3.08e-4,-0.0024 8.72e-4,-0.0036 C 23.991153,20.377723 24,20.344823 24,20.309723 V 12.521018 11.342632 9.8362392 C 24,8.8238087 23.102723,8.000064 21.999918,8.000064 Z M 22,20 v 0 -7 0 z m 0.760775,1.66925 c -0.488778,-0.149178 -1.037278,-0.14829 -1.521138,1.18e-4 L 20.677028,20.55209 h 2.646267 z M 22,20 v -7 0 z m 1.472159,-7.715 h -2.94403 v 0 z m -1.471946,10.894815 -0.536481,-1.065401 c 0.343392,-0.09422 0.72531,-0.09475 1.072886,6e-5 z M 23.472159,11 h -2.94403 V 9.8361751 c 0,-0.7451472 0.660415,-1.3513267 1.472084,-1.3513267 0.811668,0 1.471946,0.6061795 1.471946,1.3513267 z"
       id="path12-5"
       style="fill:#eff0f1;fill-opacity:1;stroke-width:0.253015"
       sodipodi:nodetypes="csccscccsccccccsccsccccccccccccccccccccccccssccss" />
    <path
       d="m 22.675962,5 c 2.324039,0 4.32404,2 4.32404,4.32408 V 22.673477 C 27.000002,24.997526 25,27 22.675962,27 H 9.3240424 c -2.32404,0 -4.32404,-2.002951 -4.32404,-4.327 V 9.32408 C 5.0000024,7 7.0000024,5 9.3240424,5 H 22.675962 m 0,-1 H 9.3240424 c -2.92404,0 -5.32404,2.4 -5.32404,5.324081 v 13.349397 c 0,2.926521 2.4,5.326522 5.32404,5.326522 H 22.673492 c 2.926509,0 5.326509,-2.400001 5.326509,-5.324053 V 9.324081 C 28.000001,6.4 25.600001,4 22.675962,4 Z"
       id="path4-3-3"
       style="clip-rule:evenodd;fill:#eff0f1;fill-opacity:1;fill-rule:evenodd;stroke-width:0.0244919;stroke-linejoin:round;stroke-miterlimit:1.41421"
       sodipodi:nodetypes="cssssssscsssssssss" />
  </g>
  <g
     id="22-22-knotes"
     transform="translate(31.999853,10)">
    <rect
       style="fill:none;fill-opacity:1;stroke:none;stroke-width:0.1;stroke-linecap:square;stroke-linejoin:miter;stroke-miterlimit:4;stroke-dasharray:none;stroke-dashoffset:0;stroke-opacity:1"
       id="rect4148"
       width="22"
       height="22"
       x="1.3415527e-07"
       y="0" />
    <path
       d="m 7.170845,10 h 4.658294 C 11.923489,10 12,9.776123 12,9.499998 12,9.223877 11.9235,9 11.829139,9 H 7.170845 C 7.076495,9 7,9.223877 7,9.499998 7,9.776123 7.07649,10 7.170845,10 Z"
       id="path4-3-36"
       style="fill:#eff0f1;fill-opacity:1;stroke-width:0.292278" />
    <path
       d="m 7.154364,7 h 3.691272 C 10.930846,7 11,6.776122 11,6.500001 11,6.223876 10.930944,6 10.845636,6 H 7.154364 C 7.069024,6 7,6.223876 7,6.500001 7,6.776122 7.06906,7 7.154364,7 Z"
       id="path6-6-7"
       style="fill:#eff0f1;fill-opacity:1;stroke-width:0.277819" />
    <path
       d="m 7.252703,13 h 5.494593 C 12.886856,13 13,12.776123 13,12.500001 13,12.223878 12.886856,12 12.747296,12 H 7.252703 C 7.113144,12 7,12.223878 7,12.500001 7,12.776123 7.113142,13 7.252703,13 Z"
       id="path8-5"
       style="fill:#eff0f1;fill-opacity:1;stroke-width:0.355461" />
    <path
       d="M 13.777063,15 H 7.22292 C 7.099813,15 7,15.223879 7,15.500001 7,15.776123 7.09981,16 7.22292,16 h 6.554143 C 13.900171,16 14,15.776123 14,15.500001 14,15.223879 13.900171,15 13.777063,15 Z"
       id="path10-7-3"
       style="fill:#eff0f1;fill-opacity:1;stroke-width:0.333861" />
    <path
       d="M 15.000205,6 C 14.44868,6 14,6.549164 14,7.224117 v 1.004262 0.785591 5.192474 c 0,0.0234 0.004,0.04534 0.01174,0.06539 2.61e-4,7.33e-4 1.42e-4,0.0016 4.34e-4,0.0024 l 0.868159,2.298613 c 0.02157,0.0572 0.0684,0.09382 0.119862,0.09382 0.05147,0 0.09826,-0.03661 0.119855,-0.09383 L 15.566401,15.391 c 3.59e-4,-8.67e-4 9.68e-4,-0.0015 9.68e-4,-0.0024 2.91e-4,-7.33e-4 1.87e-4,-0.0015 4.6e-4,-0.0023 l 0.419988,-1.112058 c 2.91e-4,-7.34e-4 1.55e-4,-0.0016 4.36e-4,-0.0024 0.0072,-0.02006 0.01175,-0.04199 0.01175,-0.06539 V 9.013982 8.228392 7.22413 c 0,-0.674954 -0.448683,-1.224117 -1.000138,-1.224117 z m -1.09e-4,8 v 0 -4.666666 0 z m 0.380427,1.112834 c -0.244414,-0.09945 -0.51869,-0.09886 -0.760644,7.8e-5 L 14.338546,14.36806 H 15.66181 Z M 15.000096,14 v -4.666666 0 z m 0.736153,-5.143333 h -1.472158 v 0 z m -0.736044,7.26321 -0.268268,-0.710267 c 0.171713,-0.06281 0.362691,-0.06317 0.536496,4e-5 z M 15.736249,8 H 14.264091 V 7.224117 c 0,-0.496765 0.330239,-0.900885 0.736114,-0.900885 0.405873,0 0.736044,0.40412 0.736044,0.900885 z"
       id="path12-5-5"
       style="fill:#eff0f1;fill-opacity:1;stroke-width:0.146085"
       sodipodi:nodetypes="csccscccsccccccsccsccccccccccccccccccccccccssccss" />
    <path
       d="M 15.251,4 C 16.800359,4 18,5.199613 18,6.749 v 8.5 C 18,16.798366 16.800359,18 15.251,18 H 6.749 C 5.19964,18 4,16.798366 4,15.249 v -8.5 C 4,5.199613 5.19964,4 6.749,4 h 8.502 M 15.45064,3 H 6.54936 C 4.6,3 3,4.6 3,6.549387 v 8.899598 C 3,17.399999 4.6,19 6.54936,19 h 8.899633 c 1.951006,0 3.551006,-1.600001 3.551006,-3.549369 V 6.549387 C 18.999999,4.6 17.399999,3 15.45064,3 Z"
       id="path4-3-3-6"
       style="clip-rule:evenodd;fill:#eff0f1;fill-opacity:1;fill-rule:evenodd;stroke-width:0.0163279;stroke-linejoin:round;stroke-miterlimit:1.41421"
       sodipodi:nodetypes="cssssssscsssssssss" />
  </g>
</svg>
