<?xml version="1.0" encoding="UTF-8" standalone="no"?>
<svg
   width="32"
   height="32"
   version="1.1"
   id="svg12"
   sodipodi:docname="kteatime.svg"
   inkscape:version="1.1 (c68e22c387, 2021-05-23)"
   xmlns:inkscape="http://www.inkscape.org/namespaces/inkscape"
   xmlns:sodipodi="http://sodipodi.sourceforge.net/DTD/sodipodi-0.dtd"
   xmlns:xlink="http://www.w3.org/1999/xlink"
   xmlns="http://www.w3.org/2000/svg"
   xmlns:svg="http://www.w3.org/2000/svg"
   xmlns:rdf="http://www.w3.org/1999/02/22-rdf-syntax-ns#"
   xmlns:cc="http://creativecommons.org/ns#"
   xmlns:dc="http://purl.org/dc/elements/1.1/">
  <metadata
     id="metadata18">
    <rdf:RDF>
      <cc:Work
         rdf:about="">
        <dc:format>image/svg+xml</dc:format>
        <dc:type
           rdf:resource="http://purl.org/dc/dcmitype/StillImage" />
      </cc:Work>
    </rdf:RDF>
  </metadata>
  <defs
     id="defs16">
    <linearGradient
       id="g"
       gradientUnits="userSpaceOnUse"
       x1="21.666"
       x2="21.666"
       xlink:href="#a"
       y1="16"
       y2="6.6669998"
       gradientTransform="matrix(0.92307692,0,0,0.92307692,-0.63461497,2.1538462)" />
    <linearGradient
       id="a">
      <stop
         offset="0"
         stop-color="#f67400"
         id="stop19" />
      <stop
         offset="1"
         stop-color="#f39c1f"
         id="stop21" />
    </linearGradient>
    <linearGradient
       id="h"
       gradientUnits="userSpaceOnUse"
       x1="11"
       x2="11"
       xlink:href="#a"
       y1="14"
       y2="2"
       gradientTransform="matrix(0.92307692,0,0,0.92307692,-0.63461497,2.1538462)" />
    <linearGradient
       id="i"
       gradientUnits="userSpaceOnUse"
       x1="15"
       x2="15"
       y1="28"
       y2="15"
       gradientTransform="matrix(0.92307692,0,0,0.92307692,-0.63461497,2.1538462)">
      <stop
         offset="0"
         stop-color="#375a7d"
         id="stop4" />
      <stop
         offset=".154"
         stop-color="#3b85b5"
         id="stop6" />
      <stop
         offset="1"
         stop-color="#7cbcec"
         id="stop8" />
    </linearGradient>
  </defs>
  <sodipodi:namedview
     pagecolor="#ffffff"
     bordercolor="#000000"
     borderopacity="1"
     objecttolerance="10"
     gridtolerance="10"
     guidetolerance="10"
     inkscape:pageopacity="0"
     inkscape:pageshadow="2"
     inkscape:window-width="1920"
     inkscape:window-height="1007"
     id="namedview14"
     showgrid="false"
     inkscape:zoom="9.8125"
     inkscape:cx="16.050955"
     inkscape:cy="10.191083"
     inkscape:window-x="0"
     inkscape:window-y="0"
     inkscape:window-maximized="1"
     inkscape:current-layer="svg12"
     inkscape:document-rotation="0"
     inkscape:showpageshadow="false"
     inkscape:pagecheckerboard="0">
    <inkscape:grid
       type="xygrid"
       id="grid884"
       originx="0"
       originy="0" />
  </sodipodi:namedview>
  <g
     id="kteatime">
    <rect
       style="opacity:0.00100002"
       width="32"
       height="32"
       x="0"
       y="0"
       id="rect7" />
    <path
       d="M 13.21154,16.92308 14.442,15.69262 c 0.241845,-0.241855 0.478155,-0.494775 0.622155,-0.804 0.144,-0.30924 0.188305,-0.661855 0.132925,-0.996925 -0.05445,-0.33693 -0.201235,-0.650775 -0.35816,-0.95354 -0.15784,-0.30185 -0.327685,-0.604615 -0.39692,-0.93785 -0.09785,-0.47446 0.02028,-0.976613 0.25846,-1.397535 0.23908,-0.420924 0.590775,-0.7680005 0.97292,-1.064308 A 6.368308,6.368308 0 0 1 20.596155,8.308 6.6027695,6.6027695 0 0 0 16.903845,9.538462 c -0.396925,0.2861535 -0.768925,0.624 -1.015385,1.047692 a 2.058462,2.058462 0 0 0 -0.254765,0.68677 1.6153845,1.6153845 0 0 0 0.03965,0.727381 c 0.134775,0.45046 0.47446,0.803075 0.76246,1.174155 0.14585,0.18554 0.280615,0.381235 0.37108,0.59816 0.08955,0.216 0.136615,0.45784 0.09692,0.688615 -0.0508,0.297225 -0.236305,0.55753 -0.465225,0.75507 -0.228,0.196615 -0.49754,0.33785 -0.76616,0.476315 -0.814152,0.42092 -1.636615,0.83076 -2.46092,1.23046 z"
       id="path39"
       style="fill:#eff0f1;fill-opacity:1;stroke-width:0.92308" />
    <path
       d="M 13.21154,15.07692 A 12.627695,12.627695 0 0 0 11.98108,13.84646 C 11.395845,13.337845 10.760765,12.87908 10.262305,12.28462 A 3.486462,3.486462 0 0 1 9.663235,11.295077 2.3150765,2.3150765 0 0 1 9.5192349,10.154154 C 9.5930849,9.624308 9.884765,9.144308 10.26508,8.770462 10.646305,8.397538 11.114305,8.1233845 11.59708,7.896308 12.56446,7.445846 13.63246,7.1569235 14.442,6.461846 A 3.5889235,3.5889235 0 0 0 15.67338,4 c 0.444,0.5049235 0.696,1.174154 0.696,1.846154 0,0.672 -0.252,1.3412305 -0.696,1.846154 -0.603685,0.685846 -1.49446,1.030154 -2.26892,1.5147685 -0.38584,0.2427695 -0.753225,0.529847 -1.023695,0.8990775 -0.27046,0.366462 -0.439385,0.824308 -0.399685,1.278462 0.0406,0.461539 0.285225,0.876924 0.544615,1.260004 0.25846,0.383075 0.54554,0.760615 0.685845,1.20184 0.12646,0.39692 0.12646,0.83262 0,1.23046 z"
       id="path41"
       style="fill:#009eff;fill-opacity:1;stroke-width:0.92308" />
    <path
       d="m 6.75,16.92308 v 5.53846 a 6.461538,6.461538 0 0 0 2.7692349,5.29292 V 28 H 18.75 v -0.238155 a 6.461538,6.461538 0 0 0 2.69908,-4.377225 h 1.9163 a 1.846154,1.846154 0 0 0 1.84616,-1.84616 v -1.846155 a 1.846154,1.846154 0 0 0 -1.84616,-1.84615 H 21.519235 V 16.92308 Z m 14.769235,1.846155 h 1.846145 a 0.92307695,0.92307695 0 0 1 0.92308,0.92307 v 1.846155 a 0.92307695,0.92307695 0 0 1 -0.92308,0.92308 h -1.846145 z"
       fill-rule="evenodd"
       id="path43"
       style="fill:#eff0f1;fill-opacity:1;stroke-width:0.92308" />
  </g>
  <g
     id="22-22-kteatime"
     transform="translate(32,10)">
    <rect
       style="opacity:0.00100002"
       width="22"
       height="22"
       x="0"
       y="0"
       id="rect2" />
    <path
       d="m 9.2077,11.615387 0.8203,-0.820302 c 0.161223,-0.161245 0.318777,-0.329862 0.414777,-0.536 0.096,-0.206169 0.125523,-0.441245 0.08866,-0.66461 C 10.495207,9.36984 10.39727,9.160606 10.292653,8.958777 10.187437,8.757523 10.074199,8.5557 10.028048,8.333523 c -0.06515,-0.3163 0.01349,-0.651049 0.1723,-0.931683 0.1594,-0.280616 0.393851,-0.512 0.648614,-0.709538 A 4.2455395,4.2455395 0 0 1 14.130814,5.872 4.4018477,4.4018477 0 0 0 11.66927,6.692302 c -0.264617,0.190783 -0.512617,0.416 -0.676922,0.698474 a 1.3723084,1.3723085 0 0 0 -0.169838,0.457831 1.0769223,1.0769223 0 0 0 0.02642,0.484916 c 0.08988,0.300317 0.316308,0.535393 0.508308,0.782777 0.09723,0.1237 0.187069,0.254174 0.247381,0.398785 0.05977,0.144 0.09106,0.305218 0.06472,0.459075 -0.03396,0.198144 -0.157539,0.37168 -0.310144,0.503368 -0.152,0.131081 -0.331697,0.225249 -0.51078,0.317557 -0.542758,0.280609 -1.091076,0.553832 -1.640615,0.820302 z"
       id="path39-3"
       style="fill:#eff0f1;fill-opacity:1;stroke-width:0.615395" />
    <path
       d="M 9.2077,10.384609 A 8.4184674,8.4184674 0 0 0 8.387395,9.564302 C 7.997223,9.225225 7.57384,8.919395 7.241523,8.523085 A 2.3243084,2.3243085 0 0 1 6.84216,7.863393 1.543384,1.543384 0 0 1 6.74616,7.102776 C 6.79531,6.749526 6.98984,6.429526 7.243396,6.180302 7.497524,5.931698 7.809524,5.748916 8.131396,5.597526 8.776301,5.297224 9.488301,5.104607 10.028001,4.641224 A 2.392616,2.392616 0 0 0 10.848915,3 c 0.296,0.336607 0.464,0.782776 0.464,1.230776 0,0.448 -0.168,0.89414 -0.464,1.23075 C 10.446477,5.918776 9.852605,6.148302 9.3363,6.471393 9.079084,6.633224 8.83416,6.824607 8.65384,7.070776 8.473523,7.315085 8.360915,7.620302 8.387395,7.923085 c 0.027,0.307692 0.190128,0.584615 0.363082,0.84 0.1723,0.255392 0.363683,0.507075 0.457223,0.801217 0.08424,0.264614 0.08424,0.555089 0,0.820307 z"
       id="path41-6"
       style="fill:#009eff;fill-opacity:1;stroke-width:0.615395" />
    <path
       d="m 4.9,11.615387 v 3.692306 a 4.3076915,4.3076915 0 0 0 1.84616,3.528614 V 19 H 12.9 v -0.158771 a 4.3076915,4.3076915 0 0 0 1.799395,-2.918149 h 1.27752 A 1.23077,1.23077 0 0 0 17.2077,14.692307 v -1.23077 A 1.23077,1.23077 0 0 0 15.976915,12.230771 H 14.74616 v -0.615384 z m 9.84616,1.230769 h 1.230755 a 0.61538477,0.61538477 0 0 1 0.615385,0.615381 v 1.23077 a 0.61538477,0.61538477 0 0 1 -0.615385,0.615386 H 14.74616 Z"
       fill-rule="evenodd"
       id="path43-7"
       style="fill:#eff0f1;fill-opacity:1;stroke-width:0.615395" />
  </g>
</svg>
