<?xml version="1.0" encoding="UTF-8" standalone="no"?>
<svg
   width="32"
   height="32"
   version="1.1"
   id="svg12"
   sodipodi:docname="ktorrent.svg"
   inkscape:version="1.1.1 (3bf5ae0d25, 2021-09-20)"
   xmlns:inkscape="http://www.inkscape.org/namespaces/inkscape"
   xmlns:sodipodi="http://sodipodi.sourceforge.net/DTD/sodipodi-0.dtd"
   xmlns="http://www.w3.org/2000/svg"
   xmlns:svg="http://www.w3.org/2000/svg"
   xmlns:rdf="http://www.w3.org/1999/02/22-rdf-syntax-ns#"
   xmlns:cc="http://creativecommons.org/ns#"
   xmlns:dc="http://purl.org/dc/elements/1.1/">
  <g
     id="22-22-ktorrent"
     transform="translate(32,10.000001)">
    <rect
       style="opacity:0.00100002"
       width="22"
       height="22"
       x="0"
       y="0"
       id="rect2" />
    <path
       d="m 15.450641,3.749384 c 1.54936,0 2.8,1.250616 2.8,2.800003 v 8.899598 c 0,1.549366 -1.25064,2.800008 -2.8,2.800008 H 6.549361 C 5,18.248993 3.74936,16.998351 3.74936,15.448985 V 6.549387 C 3.74936,5 5,3.749384 6.549361,3.749384 h 8.90128 M 15.450641,3 H 6.549361 C 4.6,3 3,4.6 3,6.549387 v 8.899598 C 3,17.399999 4.6,19 6.549361,19 h 8.899633 c 1.951007,0 3.551007,-1.600001 3.551007,-3.549369 V 6.549387 C 19.000001,4.6 17.400001,3 15.450641,3 Z"
       id="path4-3-3-3"
       style="clip-rule:evenodd;fill:#eff0f1;fill-opacity:1;fill-rule:evenodd;stroke-width:0.0163279;stroke-linejoin:round;stroke-miterlimit:1.41421" />
    <path
       d="m 10.713779,16.199869 c 0.150349,0.170536 0.454032,0.181794 0.604379,0.01123 l 1.548509,-2.212162 h -1.361575 v -2.110071 0 h -1.002314 v 0 0 2.110078 H 9.3 Z"
       id="path2"
       sodipodi:nodetypes="cccccccccccc"
       style="fill:#eff0f1;fill-opacity:1;stroke-width:0.270546" />
    <path
       d="m 15.273423,9.197245 c 0.0033,-0.04703 0.0057,-0.09433 0.0057,-0.142467 0,-1.034211 -0.748591,-1.87249 -1.672453,-1.87249 -0.192774,0 -0.377549,0.03833 -0.550319,0.105797 -0.60249,-0.979342 -1.611363,-1.621418 -2.754256,-1.621418 -1.738463,0 -3.165386,1.484841 -3.328407,3.383072 -0.04376,0.02125 -0.08651,0.044 -0.127766,0.06773 -1.051879,0.363578 -1.662204,1.29926 -1.810222,2.209478 -0.01075,0.06493 -0.019,0.130149 -0.025,0.194528 -2.5e-4,0.004 -5e-4,0.01652 -7.34e-4,0.01967 -0.08701,1.001738 0.395548,1.923986 1.473931,1.923986 H 6.981952 9.6181 L 8.97122,12.519077 c -0.04823,-0.05992 -0.08051,-0.147506 -0.08,-0.234552 -5.03e-4,-0.07556 0.02399,-0.210195 0.06276,-0.267014 0.08526,-0.121755 0.206028,-0.231756 0.32904,-0.231756 h 0.966877 v -1.513108 c 0,-0.138552 0.0055,-0.321816 0.08601,-0.385914 0.08301,-0.06633 0.216028,-0.06025 0.322538,-0.06025 h 0.744741 c 0.106519,0 0.208593,-0.0057 0.291347,0.06025 0.08101,0.06439 0.05251,0.247362 0.05273,0.385914 l 0.0031,1.513098 h 1.126638 c 0.123016,0 0.24378,0.107485 0.32954,0.228958 0.03854,0.05686 0.06297,0.159818 0.06252,0.235387 5e-4,0.08677 -0.03172,0.194247 -0.08001,0.253863 l -0.647284,0.961152 h 1.858932 0.834603 c 1.211649,0 1.734215,-0.879418 1.763467,-1.83134 0.03548,-1.150649 -0.651098,-2.431995 -1.72498,-2.436474 z"
       id="path4"
       sodipodi:nodetypes="csscscccccscccccscscsscscscccccscc"
       style="fill:#eff0f1;fill-opacity:1;stroke-width:0.264546" />
  </g>
  <metadata
     id="metadata18">
    <rdf:RDF>
      <cc:Work
         rdf:about="">
        <dc:format>image/svg+xml</dc:format>
        <dc:type
           rdf:resource="http://purl.org/dc/dcmitype/StillImage" />
      </cc:Work>
    </rdf:RDF>
  </metadata>
  <defs
     id="defs16" />
  <sodipodi:namedview
     pagecolor="#ffffff"
     bordercolor="#666666"
     borderopacity="1"
     objecttolerance="10"
     gridtolerance="10"
     guidetolerance="10"
     inkscape:pageopacity="0"
     inkscape:pageshadow="2"
     inkscape:window-width="1920"
     inkscape:window-height="1007"
     id="namedview14"
     showgrid="false"
     inkscape:zoom="9.8125003"
     inkscape:cx="23.286623"
     inkscape:cy="22.318471"
     inkscape:window-x="0"
     inkscape:window-y="0"
     inkscape:window-maximized="1"
     inkscape:current-layer="svg12"
     inkscape:document-rotation="0"
     inkscape:pagecheckerboard="0"
     showguides="false"
     inkscape:lockguides="false">
    <inkscape:grid
       type="xygrid"
       id="grid848"
       originx="0"
       originy="0" />
  </sodipodi:namedview>
  <g
     id="ktorrent">
    <rect
       style="opacity:0.00100002"
       width="32"
       height="32"
       x="0"
       y="0"
       id="rect7" />
    <path
       d="m 22.675961,5.124076 c 2.32404,0 4.2,1.875924 4.2,4.200004 v 13.349397 c 0,2.324049 -1.87596,4.200012 -4.2,4.200012 H 9.324041 C 7,26.873489 5.12404,24.997526 5.12404,22.673477 V 9.32408 C 5.12404,7 7,5.124076 9.324041,5.124076 h 13.35192 M 22.675961,4 H 9.324041 C 6.4,4 4,6.4 4,9.324081 V 22.673478 C 4,25.599999 6.4,28 9.324041,28 h 13.34945 c 2.92651,0 5.32651,-2.400001 5.32651,-5.324053 V 9.324081 C 28.000001,6.4 25.600001,4 22.675961,4 Z"
       id="path4-3-3"
       style="clip-rule:evenodd;fill:#eff0f1;fill-opacity:1;fill-rule:evenodd;stroke-width:0.0244919;stroke-linejoin:round;stroke-miterlimit:1.41421" />
    <path
       d="m 16.424896,23.911979 c -0.135256,0.0582 -0.280829,0.08802 -0.436559,0.08802 -0.155729,0 -0.299045,-0.02982 -0.429949,-0.08802 -0.147669,-0.07529 -0.274703,-0.163468 -0.38094,-0.263902 l -3.68705,-3.767171 c -0.0985,-0.100435 -0.180395,-0.226179 -0.245685,-0.37675 -0.05771,-0.142349 -0.08641,-0.295177 -0.08641,-0.458483 0,-0.162823 0.0287,-0.313716 0.08625,-0.452035 0.05707,-0.138157 0.139125,-0.261645 0.245685,-0.37014 0.122842,-0.117522 0.249715,-0.205543 0.380941,-0.263901 0.130903,-0.05868 0.274219,-0.08786 0.43011,-0.08786 0.163951,0 0.311298,0.02918 0.442362,0.08786 0.147508,0.06706 0.274219,0.154762 0.381102,0.263901 l 1.720602,1.745106 v -6.085381 c 0,-0.158954 0.02837,-0.30759 0.08592,-0.445909 0.05707,-0.137996 0.139286,-0.263741 0.245846,-0.376588 0.106238,-0.11317 0.233272,-0.203448 0.380941,-0.270189 0.131064,-0.04997 0.274542,-0.07528 0.430271,-0.07528 0.15573,0 0.299046,0.02531 0.430433,0.07545 0.147508,0.06674 0.274219,0.157019 0.380941,0.270189 0.10656,0.112847 0.190712,0.23843 0.251811,0.376588 0.06174,0.138157 0.09237,0.286794 0.09237,0.445909 v 6.085381 l 1.708349,-1.745105 c 0.106399,-0.10914 0.233595,-0.196839 0.381102,-0.263902 0.139125,-0.05868 0.286794,-0.08786 0.442201,-0.08786 0.155569,0 0.299046,0.02918 0.430272,0.08786 0.139286,0.0582 0.265997,0.146218 0.381263,0.263902 0.105915,0.108494 0.190067,0.231821 0.251811,0.370139 0.0611,0.137997 0.09205,0.289051 0.09205,0.451874 0,0.163468 -0.02886,0.316134 -0.08625,0.458644 -0.07367,0.150571 -0.159599,0.276316 -0.257615,0.37675 l -3.687372,3.76701 c -0.114943,0.1172 -0.239559,0.205221 -0.374815,0.263902 z"
       id="path2-3"
       style="fill:#eff0f1;fill-opacity:1;stroke-width:0.161211" />
    <path
       d="m 21.962,12.879686 c -0.19039,-0.659513 -0.723353,-1.172324 -1.394473,-1.33563 0.0079,-0.06997 0.01257,-0.14106 0.01257,-0.213121 0,-1.064474 -0.863284,-1.9272735 -1.92808,-1.9272735 -0.221343,0 -0.433012,0.038852 -0.630818,0.1076887 C 17.408604,8.5997038 16.368311,8 15.18712,8 c -1.769771,0 -3.224536,1.3469153 -3.395581,3.071547 -0.0058,-1.61e-4 -0.01145,-8.06e-4 -0.01709,-8.06e-4 -1.041098,0 -1.887293,0.825399 -1.924372,1.857147 C 9.182665,13.145523 8.7,13.753287 8.7,14.493083 c 0,0.920674 0.746406,1.648057 1.667563,1.648057 h 3.752663 v -2.257917 c 0,-0.255358 0.04772,-0.49927 0.141865,-0.724965 0.09012,-0.217634 0.220859,-0.418664 0.388196,-0.595673 0.170238,-0.181201 0.375782,-0.327258 0.609537,-0.433012 l 0.0395,-0.01644 c 0.427208,-0.163629 0.949531,-0.16379 1.37819,-3.23e-4 l 0.04063,0.01693 c 0.232305,0.10511 0.437526,0.251005 0.609377,0.433173 0.162822,0.172174 0.293242,0.367883 0.38755,0.581004 0.102208,0.228758 0.15444,0.478312 0.15444,0.739312 v 2.257756 h 3.752662 c 0.920836,0 1.667403,-0.727383 1.667403,-1.648057 -1.62e-4,-0.80428 -0.569719,-1.456216 -1.32757,-1.613236 z"
       id="path4-6"
       style="fill:#eff0f1;fill-opacity:1;stroke-width:0.161211" />
  </g>
</svg>
