<?xml version="1.0" encoding="UTF-8" standalone="no"?>
<svg
   width="32"
   height="32"
   version="1.1"
   id="svg22"
   sodipodi:docname="mail.svg"
   inkscape:version="1.1 (c68e22c387, 2021-05-23)"
   xmlns:inkscape="http://www.inkscape.org/namespaces/inkscape"
   xmlns:sodipodi="http://sodipodi.sourceforge.net/DTD/sodipodi-0.dtd"
   xmlns="http://www.w3.org/2000/svg"
   xmlns:svg="http://www.w3.org/2000/svg"
   xmlns:rdf="http://www.w3.org/1999/02/22-rdf-syntax-ns#"
   xmlns:cc="http://creativecommons.org/ns#"
   xmlns:dc="http://purl.org/dc/elements/1.1/">
  <g
     id="mail-unread-new">
    <g
       id="g955">
      <rect
         style="opacity:0.00100002"
         width="32"
         height="32"
         x="0"
         y="0"
         id="rect7-5" />
      <path
         d="m 27.140021,7.631455 c 0.900822,0 1.631455,0.730634 1.631455,1.631455 v 13.468309 c 0,0.900821 -0.730633,1.631455 -1.631455,1.631455 H 4.915845 c -0.900822,0 -1.631455,-0.730634 -1.631455,-1.631455 V 9.26291 c 0,-0.900821 0.730633,-1.631455 1.631455,-1.631455 H 27.140021 M 27.140021,6 H 4.915845 C 3.111268,6 1.65,7.461267 1.65,9.265845 v 13.468308 c 0,1.804578 1.461268,3.265845 3.265845,3.265845 h 22.224176 c 1.804577,0 3.265845,-1.461267 3.265845,-3.265845 V 9.265845 C 30.405866,7.461267 28.944598,6 27.140021,6 Z"
         id="path4-36"
         style="fill:#009eff;fill-opacity:1;stroke-width:0.0293427" />
      <path
         d="m 13.944388,17.539619 c -0.136632,0.342234 -0.205619,0.615498 -0.205619,0.821117 0,0.273264 0.136632,0.547848 0.409897,0.547848 1.163367,0 2.463367,-2.121112 2.463367,-3.831009 0,-2.531034 -2.257749,-4.242255 -4.790104,-4.242255 -3.077541,-0.137952 -5.47193,2.462048 -5.47193,5.267667 0,2.94223 2.394389,5.268966 5.542238,5.268966 1.7099,0 3.490104,-0.8901 4.378887,-1.915494 h 1.368987 C 16.475401,21.370632 14.217652,22.534 11.754284,22.534 7.990918,22.534 4.98102,19.728381 4.98102,15.965013 4.98102,12.407264 8.059899,9.534 11.754284,9.534 c 3.421117,0 6.226736,2.257749 6.226736,5.336632 0,3.009897 -2.6,4.994381 -4.105619,4.994381 -0.821117,0 -1.3,-0.409896 -1.368966,-1.163367 h -0.06896 c -0.547851,0.547869 -1.09438,1.163367 -2.190097,1.163367 -1.573265,0 -2.599999,-1.231013 -2.599999,-2.736632 0.06899,-2.326736 1.709899,-4.857749 4.242245,-4.857749 0.821116,0 1.709897,0.409897 2.052148,1.368987 h 0.06896 l 0.342254,-1.094402 h 1.163366 z m -2.053472,-3.968987 c -1.573264,0 -2.736631,1.984485 -2.736631,3.490104 0,1.026736 0.61551,1.573264 1.505617,1.573264 1.368971,0 2.600001,-2.121117 2.600001,-3.557749 -0.06896,-0.890104 -0.478883,-1.505619 -1.368987,-1.505619 z"
         id="path4-3-7"
         style="fill:#eff0f1;fill-opacity:1;stroke-width:0.0132645" />
    </g>
  </g>
  <metadata
     id="metadata28">
    <rdf:RDF>
      <cc:Work
         rdf:about="">
        <dc:format>image/svg+xml</dc:format>
        <dc:type
           rdf:resource="http://purl.org/dc/dcmitype/StillImage" />
      </cc:Work>
    </rdf:RDF>
  </metadata>
  <defs
     id="defs26" />
  <sodipodi:namedview
     pagecolor="#ffffff"
     bordercolor="#000000"
     borderopacity="1"
     objecttolerance="10"
     gridtolerance="10"
     guidetolerance="10"
     inkscape:pageopacity="0"
     inkscape:pageshadow="2"
     inkscape:window-width="1920"
     inkscape:window-height="1007"
     id="namedview24"
     showgrid="false"
     inkscape:zoom="6.9384853"
     inkscape:cx="32.355765"
     inkscape:cy="28.680611"
     inkscape:window-x="0"
     inkscape:window-y="0"
     inkscape:window-maximized="1"
     inkscape:current-layer="svg22"
     inkscape:document-rotation="0"
     showguides="false"
     inkscape:showpageshadow="false"
     inkscape:lockguides="false"
     inkscape:pagecheckerboard="0">
    <inkscape:grid
       type="xygrid"
       id="grid884"
       originx="0"
       originy="32" />
  </sodipodi:namedview>
  <g
     id="mail-unread"
     transform="translate(0,32)">
    <rect
       style="opacity:0.00100002"
       width="32"
       height="32"
       x="0"
       y="0"
       id="rect7-3" />
    <path
       d="m 27.140021,7.6314553 c 0.90082,0 1.63145,0.7306337 1.63145,1.6314552 V 22.731219 c 0,0.900821 -0.73063,1.631455 -1.63145,1.631455 H 4.915845 c -0.900822,0 -1.631455,-0.730634 -1.631455,-1.631455 V 9.2629105 c 0,-0.9008215 0.730633,-1.6314552 1.631455,-1.6314552 H 27.140021 M 27.140021,6 H 4.915845 C 3.111268,6 1.65,7.4612675 1.65,9.2658448 V 22.734153 c 0,1.804578 1.461268,3.265845 3.265845,3.265845 h 22.224176 c 1.80458,0 3.26584,-1.461267 3.26584,-3.265845 V 9.2658448 C 30.405861,7.4612675 28.944601,6 27.140021,6 Z"
       id="path4"
       style="fill:#eff0f1;fill-opacity:1;stroke-width:0.0293427" />
    <path
       d="m 13.944388,17.539619 c -0.136632,0.342234 -0.205619,0.615498 -0.205619,0.821117 0,0.273264 0.136632,0.547848 0.409897,0.547848 1.163367,0 2.463367,-2.121112 2.463367,-3.831009 0,-2.531034 -2.257749,-4.242255 -4.790104,-4.242255 -3.077541,-0.137952 -5.47193,2.462048 -5.47193,5.267667 0,2.94223 2.394389,5.268966 5.542238,5.268966 1.7099,0 3.490104,-0.8901 4.378887,-1.915494 h 1.368987 C 16.475401,21.370632 14.217652,22.534 11.754284,22.534 7.990918,22.534 4.98102,19.728381 4.98102,15.965013 4.98102,12.407264 8.059899,9.534 11.754284,9.534 c 3.421117,0 6.226736,2.257749 6.226736,5.336632 0,3.009897 -2.6,4.994381 -4.105619,4.994381 -0.821117,0 -1.3,-0.409896 -1.368966,-1.163367 h -0.06896 c -0.547851,0.547869 -1.09438,1.163367 -2.190097,1.163367 -1.573265,0 -2.599999,-1.231013 -2.599999,-2.736632 0.06899,-2.326736 1.709899,-4.857749 4.242245,-4.857749 0.821116,0 1.709897,0.409897 2.052148,1.368987 h 0.06896 l 0.342254,-1.094402 h 1.163366 z m -2.053472,-3.968987 c -1.573264,0 -2.736631,1.984485 -2.736631,3.490104 0,1.026736 0.61551,1.573264 1.505617,1.573264 1.368971,0 2.600001,-2.121117 2.600001,-3.557749 -0.06896,-0.890104 -0.478883,-1.505619 -1.368987,-1.505619 z"
       id="path4-3"
       style="fill:#eff0f1;fill-opacity:1;stroke-width:0.0132645" />
  </g>
  <g
     id="22-22-mail-unread"
     transform="translate(32,42)">
    <rect
       style="opacity:0.00100002"
       width="22"
       height="22"
       x="0"
       y="0"
       id="rect2-6" />
    <path
       d="m 18.84302,5.142019 c 0.630575,0 1.142019,0.511444 1.142019,1.142019 v 9.427819 c 0,0.630575 -0.511444,1.142019 -1.142019,1.142019 H 3.286092 c -0.630575,0 -1.142019,-0.511444 -1.142019,-1.142019 V 6.284038 c 0,-0.630575 0.511444,-1.142019 1.142019,-1.142019 H 18.84302 M 18.84302,4 H 3.286092 C 2.022888,4 1,5.022888 1,6.286092 v 9.427819 c 0,1.263204 1.022888,2.286092 2.286092,2.286092 H 18.84302 c 1.263204,0 2.286092,-1.022888 2.286092,-2.286092 V 6.286092 C 21.129112,5.022888 20.106224,4 18.84302,4 Z"
       id="path4-6"
       style="fill:#eff0f1;fill-opacity:1;stroke-width:0.0205399" />
    <path
       d="m 9.537119,12.22635 c -0.09459,0.236934 -0.142349,0.426117 -0.142349,0.568466 0,0.189184 0.09459,0.379281 0.283777,0.379281 0.805406,0 1.705405,-1.468463 1.705405,-2.652237 0,-1.752253 -1.563059,-2.936942 -3.316222,-2.936942 -2.130612,-0.09551 -3.788265,1.70449 -3.788265,3.64684 0,2.036931 1.657653,3.647747 3.83694,3.647747 1.183774,0 2.416221,-0.616221 3.031529,-1.326113 h 0.947759 C 11.289361,14.878591 9.726301,15.684 8.020893,15.684 5.415486,15.684 3.33171,13.741649 3.33171,11.136241 3.33171,8.673183 5.46324,6.684 8.020893,6.684 c 2.368468,0 4.310816,1.563059 4.310816,3.694592 0,2.083773 -1.8,3.457649 -2.842345,3.457649 -0.568471,0 -0.9,-0.283774 -0.947755,-0.805409 h -0.04776 c -0.379287,0.379292 -0.757654,0.805409 -1.516225,0.805409 -1.089184,0 -1.8,-0.852241 -1.8,-1.894591 0.04776,-1.610817 1.183775,-3.363059 2.936938,-3.363059 0.56847,0 1.183776,0.283775 1.420717,0.947758 h 0.04775 L 9.81997,8.768689 h 0.805409 z M 8.115486,9.478591 c -1.089184,0 -1.894593,1.373876 -1.894593,2.416226 0,0.710817 0.426123,1.089183 1.042348,1.089183 0.947755,0 1.8,-1.468468 1.8,-2.463059 -0.04776,-0.616225 -0.33153,-1.04235 -0.947755,-1.04235 z"
       id="path4-3-5"
       style="fill:#eff0f1;fill-opacity:1;stroke-width:0.00918364" />
  </g>
  <g
     id="22-22-mail-unread-new"
     transform="translate(32,10)">
    <rect
       style="opacity:0.00100002"
       width="22"
       height="22"
       x="0"
       y="4.7683716e-07"
       id="rect2" />
    <path
       d="m 18.84302,5.1420197 c 0.630575,0 1.142019,0.511444 1.142019,1.142019 v 9.4278193 c 0,0.630575 -0.511444,1.142019 -1.142019,1.142019 H 3.2860921 c -0.630575,0 -1.142019,-0.511444 -1.142019,-1.142019 V 6.2840387 c 0,-0.630575 0.511444,-1.142019 1.142019,-1.142019 H 18.84302 m 0,-1.142019 H 3.2860921 c -1.263204,0 -2.286092,1.022888 -2.286092,2.286092 v 9.4278193 c 0,1.263204 1.022888,2.286092 2.286092,2.286092 H 18.84302 c 1.263204,0 2.286092,-1.022888 2.286092,-2.286092 V 6.2860927 c 0,-1.263204 -1.022888,-2.286092 -2.286092,-2.286092 z"
       id="path4-6-2"
       style="fill:#009eff;fill-opacity:1;stroke-width:0.0205399" />
    <path
       d="m 9.5371191,12.226351 c -0.09459,0.236934 -0.142349,0.426117 -0.142349,0.568466 0,0.189184 0.09459,0.379281 0.283777,0.379281 0.8054059,0 1.7054049,-1.468463 1.7054049,-2.652237 0,-1.7522533 -1.5630589,-2.9369423 -3.3162219,-2.9369423 -2.130612,-0.09551 -3.788265,1.70449 -3.788265,3.6468403 0,2.036931 1.657653,3.647747 3.83694,3.647747 1.183774,0 2.4162209,-0.616221 3.0315289,-1.326113 h 0.947759 c -0.806332,1.325199 -2.3693919,2.130608 -4.0747999,2.130608 -2.605407,0 -4.689183,-1.942351 -4.689183,-4.547759 0,-2.4630583 2.13153,-4.4522413 4.689183,-4.4522413 2.3684679,0 4.3108159,1.563059 4.3108159,3.6945923 0,2.083773 -1.8,3.457649 -2.8423449,3.457649 -0.568471,0 -0.9,-0.283774 -0.947755,-0.805409 h -0.04776 c -0.379287,0.379292 -0.757654,0.805409 -1.516225,0.805409 -1.089184,0 -1.8,-0.852241 -1.8,-1.894591 0.04776,-1.610817 1.183775,-3.3630593 2.936938,-3.3630593 0.56847,0 1.183776,0.283775 1.420717,0.947758 h 0.04775 l 0.236941,-0.75766 H 10.625379 Z M 8.1154861,9.4785917 c -1.089184,0 -1.894593,1.3738763 -1.894593,2.4162263 0,0.710817 0.426123,1.089183 1.042348,1.089183 0.947755,0 1.8,-1.468468 1.8,-2.463059 -0.04776,-0.6162253 -0.33153,-1.0423503 -0.947755,-1.0423503 z"
       id="path4-3-5-9"
       style="fill:#eff0f1;fill-opacity:1;stroke-width:0.00918364" />
  </g>
</svg>
