<?xml version="1.0" encoding="UTF-8" standalone="no"?>
<svg
   width="32"
   height="32"
   version="1"
   id="svg12"
   sodipodi:docname="manjaro.svg"
   inkscape:version="1.1 (c68e22c387, 2021-05-23)"
   xmlns:inkscape="http://www.inkscape.org/namespaces/inkscape"
   xmlns:sodipodi="http://sodipodi.sourceforge.net/DTD/sodipodi-0.dtd"
   xmlns="http://www.w3.org/2000/svg"
   xmlns:svg="http://www.w3.org/2000/svg"
   xmlns:rdf="http://www.w3.org/1999/02/22-rdf-syntax-ns#"
   xmlns:cc="http://creativecommons.org/ns#"
   xmlns:dc="http://purl.org/dc/elements/1.1/">
  <g
     id="manjaro-settings-manager">
    <rect
       style="opacity:0.00100002"
       width="32"
       height="32"
       x="4.494629e-07"
       y="6.0302739e-08"
       id="rect7" />
    <path
       style="fill:#eff0f1;fill-opacity:1"
       d="M 4.787109,3.9999999 C 4.074824,3.9999999 3.5,4.5748239 3.5,5.2871089 V 26.712891 C 3.5,27.425177 4.106322,27.790527 4.787109,28 H 10.5 V 11 h 9 V 3.9999999 Z m 16.712891,0 V 28 h 5.712891 C 27.925178,28 28.5,27.425177 28.5,26.712891 V 5.2871089 c 0,-0.712285 -0.574822,-1.287109 -1.287109,-1.287109 z m -16.712891,1 H 18.5 v 5 h -8 A 1.0001,1.0001 0 0 0 9.5,11 V 27 H 4.986328 C 4.789747,26.92704 4.603695,26.842309 4.544922,26.791016 c -0.0715,-0.0624 -0.04492,-0.0057 -0.04492,-0.07813 V 5.2871089 c 0,-0.174277 0.112832,-0.287109 0.287109,-0.287109 z m 17.712891,0 h 4.712891 c 0.174279,0 0.287109,0.112831 0.287109,0.287109 V 26.712891 C 27.5,26.88717 27.387171,27 27.212891,27 H 22.5 Z M 12.5,13 v 15 h 7 V 13 Z m 1,1 h 5 v 13 h -5 z"
       id="path9" />
  </g>
  <metadata
     id="metadata18">
    <rdf:RDF>
      <cc:Work
         rdf:about="">
        <dc:format>image/svg+xml</dc:format>
        <dc:type
           rdf:resource="http://purl.org/dc/dcmitype/StillImage" />
      </cc:Work>
    </rdf:RDF>
  </metadata>
  <defs
     id="defs16" />
  <sodipodi:namedview
     pagecolor="#ffffff"
     bordercolor="#000000"
     borderopacity="1"
     objecttolerance="10"
     gridtolerance="10"
     guidetolerance="10"
     inkscape:pageopacity="0"
     inkscape:pageshadow="2"
     inkscape:window-width="1920"
     inkscape:window-height="1005"
     id="namedview14"
     showgrid="true"
     inkscape:zoom="9.8125"
     inkscape:cx="10.242038"
     inkscape:cy="13.656051"
     inkscape:window-x="0"
     inkscape:window-y="0"
     inkscape:window-maximized="1"
     inkscape:current-layer="svg12"
     inkscape:document-rotation="0"
     inkscape:lockguides="false"
     inkscape:showpageshadow="false"
     inkscape:pagecheckerboard="0">
    <inkscape:grid
       type="xygrid"
       id="grid843"
       originx="-4.4946289e-07"
       originy="-6.0302735e-08" />
  </sodipodi:namedview>
  <g
     id="22-22-manjaro-settings-manager">
    <rect
       style="opacity:0.00100002"
       width="22"
       height="22"
       x="-33.463779"
       y="10.001957"
       id="rect2" />
    <path
       d="m -19.514765,13.335285 v 4.666638 c 0,0.183997 -0.136157,0.333329 -0.303913,0.333329 h -5.401763 c -0.378051,0 -0.431338,-0.02103 -0.431338,0.333323 v 9.999928 c 0,0.184002 -0.0024,0.333326 -0.170669,0.333326 h -4.937398 c -0.167777,0 -0.303933,-0.149324 -0.303933,-0.333326 V 13.401972 c 0,-0.184 0.136156,-0.400015 0.303933,-0.400015 h 10.941168 c 0.167756,0 0.303913,0.149329 0.303913,0.333328 z m -0.607842,4.3333 v -3.999962 h -10.333328 v 14.666563 h 4.196157 l 0.0096,-9.299965 c 0.0013,-1.560256 -0.160067,-1.366636 1.577458,-1.366636 z"
       id="path2-2"
       sodipodi:nodetypes="ssssssssssssscccccssc"
       style="fill:#009eff;fill-opacity:1;stroke-width:0.63658" />
    <path
       class="fil0"
       d="m -19.543009,20.505893 v 8.496051 h -1.487361 -2.1248 -1.508608 v -9.299712 c 0,0 0.679933,-0.01178 1.508608,-0.01178 h 3.589123 c 0,0 0.02294,0.372691 0.02294,0.815258 z m -0.6101,0 v 7.710115 0.169587 h -3.93133 v -0.169587 l 6.61e-4,-7.880737 h 0.928467 3.002202 l -6.8e-4,0.170628 z"
       id="path6-9"
       style="fill:#009eff;fill-opacity:1;fill-rule:evenodd;stroke-width:0.0157306;image-rendering:optimizeQuality;shape-rendering:geometricPrecision;text-rendering:geometricPrecision"
       sodipodi:nodetypes="scssccscssscccscsccs" />
    <path
       class="fil0"
       d="m -14.063609,14.409387 v 14.327451 c 0,0.170752 -0.185765,0.265119 -0.421824,0.265119 h -4.103912 c 0,0 -0.01744,-0.645887 -0.01744,-1.421793 V 14.409387 c 0,-0.756014 0.0032,-1.399842 0.0032,-1.399842 l 4.126522,-0.0066 c 0.249843,-4.51e-4 0.41478,0.131826 0.412791,0.271772 z m -0.661481,-0.05746 -0.0093,13.983081 h -0.662207 -2.535617 l -3.29e-4,-0.754882 V 14.409359 c 0,-0.378002 3.29e-4,-0.74052 3.29e-4,-0.74052 h 3.199473 v 0 z"
       id="path6-7-1"
       style="fill:#009eff;fill-opacity:1;fill-rule:evenodd;stroke-width:0.0193313;image-rendering:optimizeQuality;shape-rendering:geometricPrecision;text-rendering:geometricPrecision"
       sodipodi:nodetypes="ssscsscsssscsccscccs" />
  </g>
</svg>
