<?xml version="1.0" encoding="UTF-8" standalone="no"?>
<svg
   width="32"
   height="32"
   x="0"
   y="0"
   version="1.1"
   id="svg18"
   sodipodi:docname="mellowplayer.svg"
   inkscape:version="1.2.1 (9c6d41e410, 2022-07-14)"
   xmlns:inkscape="http://www.inkscape.org/namespaces/inkscape"
   xmlns:sodipodi="http://sodipodi.sourceforge.net/DTD/sodipodi-0.dtd"
   xmlns="http://www.w3.org/2000/svg"
   xmlns:svg="http://www.w3.org/2000/svg">
  <sodipodi:namedview
     id="namedview20"
     pagecolor="#ffffff"
     bordercolor="#000000"
     borderopacity="1"
     inkscape:showpageshadow="2"
     inkscape:pageopacity="0"
     inkscape:pagecheckerboard="0"
     inkscape:deskcolor="#cccccc"
     showgrid="false"
     inkscape:zoom="10.429825"
     inkscape:cx="23.490327"
     inkscape:cy="12.94365"
     inkscape:window-width="1920"
     inkscape:window-height="1008"
     inkscape:window-x="0"
     inkscape:window-y="0"
     inkscape:window-maximized="1"
     inkscape:current-layer="svg18">
    <inkscape:grid
       type="xygrid"
       id="grid505"
       originx="0"
       originy="0" />
  </sodipodi:namedview>
  <defs
     id="987">
    <style
       type="text/css"
       id="current-color-scheme" />
  </defs>
  <g
     id="mellowplayer">
    <rect
       style="opacity:0.00100002;fill:#d1d5e9;fill-opacity:1"
       width="32"
       height="32"
       x="0"
       y="0"
       id="rect11" />
    <path
       style="fill:#eff0f1;fill-opacity:1;stroke-width:0.833332"
       d="M 12.970962,6 A 6.0714289,6.0714289 0 0 0 6.9,12.070962 a 6.0714289,6.0714289 0 0 0 0.4475906,2.268884 3.3333332,3.3333332 0 0 1 2.8857424,-1.673178 3.3333332,3.3333332 0 0 1 0.0082,0 V 9.004557 c 3.68e-4,0 -0.02908,-0.3312743 0.23112,-0.4622398 0.0632,-0.03179 0.127215,-0.043477 0.185543,-0.042314 0.174982,0.00349 0.31087,0.1171875 0.31087,0.1171875 L 14.290984,10.5931 A 3.3333332,3.3333332 0 0 1 16.9,9.333333 3.3333332,3.3333332 0 0 1 18.587831,9.797201 6.0714289,6.0714289 0 0 0 12.970962,6 Z m -1.896157,3.649089 v 6.328127 6.31673 l 5.255533,-3.123378 5.379228,-3.193352 -5.366209,-3.193363 z M 19.4,10.166667 a 5.8333332,5.8333332 0 0 0 -0.281571,0.0179 3.3333332,3.3333332 0 0 1 1.114903,2.482099 3.3333332,3.3333332 0 0 1 -0.268558,1.302083 l 2.413737,1.437172 c 0,0 0.354821,0.172773 0.354821,0.589192 0,0.417574 -0.358072,0.553385 -0.358072,0.553385 L 19.9485,17.990553 A 3.3333332,3.3333332 0 0 1 20.233332,19.33333 3.3333332,3.3333332 0 0 1 19.116796,21.817056 5.8333332,5.8333332 0 0 0 19.4,21.833324 5.8333332,5.8333332 0 0 0 25.233332,16 5.8333332,5.8333332 0 0 0 19.4,10.166667 Z M 11.908138,11.115559 15.916924,13.5 20.078705,15.977216 15.905533,18.454432 11.908138,20.8291 V 15.977216 Z M 7.3459636,17.660154 A 6.0714289,6.0714289 0 0 0 6.9,19.929038 6.0714289,6.0714289 0 0 0 12.970962,26 6.0714289,6.0714289 0 0 0 18.592702,22.199545 3.3333332,3.3333332 0 0 1 16.9,22.666668 3.3333332,3.3333332 0 0 1 14.264903,21.36784 l -3.439122,2.044263 c 0,0 -0.172478,0.154412 -0.395508,0.05533 -0.254681,-0.113874 -0.188802,-0.403632 -0.188802,-0.403632 v -3.73047 a 3.3333332,3.3333332 0 0 1 -0.0082,0 3.3333332,3.3333332 0 0 1 -2.8873689,-1.673178 z"
       id="path13" />
    <path
       style="opacity:0.5;fill:#eff0f1;fill-opacity:1;stroke-width:0.833332"
       d="m 16.9,9.333333 a 3.3333332,3.3333332 0 0 0 -2.609049,1.259766 l 2.478839,1.472986 3.194984,1.902666 A 3.3333332,3.3333332 0 0 0 20.233332,12.666668 3.3333332,3.3333332 0 0 0 16.9,9.333333 Z m -6.666667,3.333335 A 3.3333332,3.3333332 0 0 0 6.9,16 a 3.3333332,3.3333332 0 0 0 3.333333,3.333332 3.3333332,3.3333332 0 0 0 0.0082,0 v -3.356116 -3.310548 a 3.3333332,3.3333332 0 0 0 -0.0082,0 z m 9.715167,5.32389 -3.191734,1.896156 -2.491863,1.481126 A 3.3333332,3.3333332 0 0 0 16.9,22.666668 3.3333332,3.3333332 0 0 0 20.233332,19.333332 3.3333332,3.3333332 0 0 0 19.9485,17.990558 Z"
       id="path15" />
    <path
       d="m 22.675959,5 c 2.324039,0 4.324042,2 4.324042,4.32408 V 22.673476 C 27,24.997525 24.999998,27 22.675959,27 H 9.3240405 c -2.324041,0 -4.324041,-2.002474 -4.324041,-4.326524 V 9.32408 C 4.9999995,7 6.9999995,5 9.3240405,5 H 22.67596 m 0,-1 H 9.3240405 c -2.92404,0 -5.324041,2.4 -5.324041,5.324081 V 22.673478 C 3.9999995,25.599999 6.4000005,28 9.3240405,28 H 22.67349 c 2.926507,0 5.326508,-2.400001 5.326508,-5.324053 V 9.324081 C 27.999997,6.4 25.599999,4 22.67596,4 Z"
       id="path4-3-36"
       style="clip-rule:evenodd;fill:#eff0f1;fill-opacity:1;fill-rule:evenodd;stroke-width:0.0244919;stroke-linejoin:round;stroke-miterlimit:1.41421"
       sodipodi:nodetypes="cssssssscsssssssss" />
  </g>
  <g
     id="22-22-mellowplayer"
     transform="translate(32,10)">
    <rect
       style="opacity:0.00100002;fill:#d1d5e9;fill-opacity:1"
       width="22"
       height="22"
       x="0"
       y="0"
       id="rect4" />
    <path
       style="fill:#eff0f1;fill-opacity:1;stroke-width:0.75"
       d="M 9.25,5 A 3.75,3.75 0 0 0 5.5,8.75 3.75,3.75 0 0 0 5.7285155,10.015625 2.25,2.25 0 0 1 7.75,8.75 a 2.25,2.25 0 0 1 0.00436,0 V 6.803222 c 0,0 -0.016843,-0.1995699 0.1391604,-0.2783193 0.15225,-0.075754 0.2973633,0.045412 0.2973633,0.045412 L 9.667479,7.447754 A 2.25,2.25 0 0 1 11.5,6.5 2.25,2.25 0 0 1 12.364261,6.6743169 3.75,3.75 0 0 0 9.25,5 Z m 3.93018,2.2558595 A 2.25,2.25 0 0 1 13.75,8.75 2.25,2.25 0 0 1 13.518556,9.73877 l 1.519041,0.90381 c 0,0 0.212403,0.104742 0.212403,0.354488 0,0.250504 -0.215339,0.332519 -0.215339,0.332519 l -1.526363,0.906741 A 2.25,2.25 0 0 1 13.75,13.25 2.25,2.25 0 0 1 13.181638,14.741209 3.75,3.75 0 0 0 16.75,11 3.75,3.75 0 0 0 13.18018,7.2558595 Z M 8.5,7.625 V 11 14.375 L 11.3125,12.6875 14.125,11 11.3125,9.3125 Z M 9.2353518,8.949218 10.944821,9.9746089 12.654301,11 10.944821,12.025388 9.2353518,13.050779 V 11 Z M 5.7270504,11.977054 A 3.75,3.75 0 0 0 5.5,13.25 3.75,3.75 0 0 0 9.25,17 3.75,3.75 0 0 0 12.368649,15.325688 2.25,2.25 0 0 1 11.5,15.5 2.25,2.25 0 0 1 9.6513672,14.528808 L 8.1059574,15.44726 c 0,0 -0.1045194,0.09149 -0.2387704,0.03219 C 7.714938,15.41124 7.754395,15.23778 7.754395,15.23778 V 13.25 a 2.25,2.25 0 0 1 -0.00436,0 2.25,2.25 0 0 1 -2.0229491,-1.272946 z"
       id="path6" />
    <path
       style="opacity:0.5;fill:#eff0f1;fill-opacity:1;stroke-width:0.75"
       d="M 11.5,6.5 A 2.25,2.25 0 0 0 9.66775,7.4495 l 2.004001,1.19025 1.848,1.10025 A 2.25,2.25 0 0 0 13.75,8.75 2.25,2.25 0 0 0 11.5,6.5 Z M 7.75,8.75 A 2.25,2.25 0 0 0 5.5,11 a 2.25,2.25 0 0 0 2.25,2.25 2.25,2.25 0 0 0 0.00449,0 V 10.9865 8.75 A 2.25,2.25 0 0 0 7.75,8.75 Z m 5.757,3.4875 -1.842751,1.094251 -2.014499,1.197 A 2.25,2.25 0 0 0 11.5,15.5 2.25,2.25 0 0 0 13.75,13.25 2.25,2.25 0 0 0 13.507,12.2375 Z"
       id="path8" />
    <path
       d="M 15.451,4 C 17.00036,4 18,5.199613 18,6.749 v 8.6 C 18,16.898366 16.800359,18 15.251,18 H 6.6500005 c -1.54936,0 -2.649622,-1.101633 -2.64968,-2.651 l -3.2e-4,-8.599999 C 3.9999425,5.199615 5.0000005,4 6.5493605,4 h 8.9012785 m 0,-0.999999 H 6.5493605 c -1.94936,0 -3.54936,1.6 -3.54936,3.549387 v 8.899598 c 0,1.951014 1.6,3.551015 3.54936,3.551015 h 8.8996325 c 1.951006,0 3.551006,-1.600001 3.551006,-3.549369 V 6.549388 c 0,-1.949387 -1.6,-3.549387 -3.54936,-3.549387 z"
       id="path4-3-3-7"
       style="clip-rule:evenodd;fill:#eff0f1;fill-opacity:1;fill-rule:evenodd;stroke-width:0.0163279;stroke-linejoin:round;stroke-miterlimit:1.41421"
       sodipodi:nodetypes="cssssssscsssssssss" />
  </g>
</svg>
