<?xml version="1.0" encoding="UTF-8" standalone="no"?>
<svg
   width="5.8208332mm"
   height="5.8208332mm"
   viewBox="0 0 22 22"
   version="1.1"
   id="svg881"
   inkscape:version="1.1 (c68e22c387, 2021-05-23)"
   sodipodi:docname="notification.svg"
   xmlns:inkscape="http://www.inkscape.org/namespaces/inkscape"
   xmlns:sodipodi="http://sodipodi.sourceforge.net/DTD/sodipodi-0.dtd"
   xmlns="http://www.w3.org/2000/svg"
   xmlns:svg="http://www.w3.org/2000/svg"
   xmlns:rdf="http://www.w3.org/1999/02/22-rdf-syntax-ns#"
   xmlns:cc="http://creativecommons.org/ns#"
   xmlns:dc="http://purl.org/dc/elements/1.1/">
  <defs
     id="defs875" />
  <sodipodi:namedview
     id="base"
     pagecolor="#ffffff"
     bordercolor="#000000"
     borderopacity="1"
     inkscape:pageopacity="0.0"
     inkscape:pageshadow="2"
     inkscape:zoom="5.6730816"
     inkscape:cx="34.108446"
     inkscape:cy="-19.037272"
     inkscape:document-units="px"
     inkscape:current-layer="layer1"
     showgrid="false"
     inkscape:window-width="1920"
     inkscape:window-height="1007"
     inkscape:window-x="0"
     inkscape:window-y="0"
     inkscape:window-maximized="1"
     inkscape:lockguides="false"
     inkscape:document-rotation="0"
     inkscape:showpageshadow="false"
     showguides="true"
     inkscape:pagecheckerboard="0">
    <inkscape:grid
       type="xygrid"
       id="grid866"
       originx="0"
       originy="-40" />
  </sodipodi:namedview>
  <metadata
     id="metadata878">
    <rdf:RDF>
      <cc:Work
         rdf:about="">
        <dc:format>image/svg+xml</dc:format>
        <dc:type
           rdf:resource="http://purl.org/dc/dcmitype/StillImage" />
      </cc:Work>
    </rdf:RDF>
  </metadata>
  <g
     inkscape:label="Layer 1"
     inkscape:groupmode="layer"
     id="layer1"
     transform="translate(-209.82493,-726.24546)">
    <g
       id="notification-progress-active"
       transform="translate(248.82493,685.24546)">
      <path
         style="fill:none"
         inkscape:connector-curvature="0"
         id="empty-rectangle"
         d="M 1,1 H 23 V 23 H 1 Z" />
      <circle
         id="circle-blue"
         cx="12"
         cy="12"
         r="8"
         class="ColorScheme-ButtonFocus"
         style="fill:#009eff;fill-opacity:1" />
    </g>
    <g
       id="notification-progress-inactive"
       transform="translate(248.82493,725.24546)">
      <path
         style="fill:none"
         inkscape:connector-curvature="0"
         id="path10"
         d="M 1,1 H 23 V 23 H 1 Z" />
      <circle
         id="circle-transparent"
         cx="12"
         cy="12"
         r="8"
         class="ColorScheme-Text"
         style="opacity:0.4;fill:#009eff;fill-opacity:1" />
    </g>
    <path
       inkscape:connector-curvature="0"
       id="expander-bottom"
       d="m 191.82493,709.24546 2,-2 2,2 z"
       class="ColorScheme-Text"
       style="fill:#009eff;fill-opacity:1" />
    <path
       inkscape:connector-curvature="0"
       id="expander-top"
       d="m 191.82493,703.24546 2,2 2,-2 z"
       class="ColorScheme-Text"
       style="fill:#009eff;fill-opacity:1" />
    <path
       inkscape:connector-curvature="0"
       id="expander-right"
       d="m 196.82493,704.24546 -2,2 2,2 z"
       class="ColorScheme-Text"
       style="fill:#009eff;fill-opacity:1" />
    <path
       inkscape:connector-curvature="0"
       id="expander-left"
       d="m 190.82493,704.24546 2,2 -2,2 z"
       class="ColorScheme-Text"
       style="fill:#009eff;fill-opacity:1" />
    <g
       id="notification-empty"
       transform="translate(248.82493,645.24546)">
      <path
         style="fill:none"
         inkscape:connector-curvature="0"
         id="path31"
         d="M 1,1 H 23 V 23 H 1 Z" />
      <path
         inkscape:connector-curvature="0"
         id="circle-outline"
         d="m 12,4 a 8,8 0 0 0 -8,8 8,8 0 0 0 8,8 8,8 0 0 0 8,-8 8,8 0 0 0 -8,-8 z m 0,1 a 7,7 0 0 1 7,7 7,7 0 0 1 -7,7 7,7 0 0 1 -7,-7 7,7 0 0 1 7,-7 z"
         class="ColorScheme-Text"
         style="fill:#eff0f1;fill-opacity:1" />
    </g>
    <g
       id="notification-inactive">
      <path
         style="fill:none"
         inkscape:connector-curvature="0"
         d="m 209.82493,686.24546 h 22 v 22 h -22 z"
         id="path6" />
      <path
         d="m 227.70481,702.06269 c -1.08075,-0.81182 -1.7,-2.05042 -1.7,-3.40174 v -2.83272 c 0,-2.37306 -1.59943,-4.38013 -3.77819,-4.99767 v -0.66787 c 0,-0.78053 -0.63489,-1.41723 -1.41722,-1.41723 -0.78062,0 -1.41728,0.635 -1.41728,1.41723 v 0.66787 c -2.17876,0.61754 -3.77814,2.62461 -3.77814,4.99767 v 2.83272 c 0,1.34961 -0.6193,2.58819 -1.7,3.40174 -0.16305,0.12145 -0.22895,0.33306 -0.16479,0.52736 0.0641,0.19256 0.24459,0.32264 0.44754,0.32264 h 4.29684 c -0.0311,0.15437 -0.0485,0.31228 -0.0485,0.47186 0,1.30101 1.05992,2.36091 2.36097,2.36091 1.30097,0 2.36089,-1.06 2.36089,-2.36091 0,-0.15785 -0.0156,-0.31749 -0.0467,-0.47186 h 4.29687 c 0.20294,0 0.38333,-0.13008 0.44756,-0.32264 0.0694,-0.19257 0.002,-0.40591 -0.15962,-0.52736 z m -7.36554,-11.9 c 0,-0.26021 0.21166,-0.47182 0.47186,-0.47182 0.26021,0 0.47182,0.21161 0.47182,0.47182 v 0.49437 c -0.15612,-0.0138 -0.31223,-0.0227 -0.47182,-0.0227 -0.1595,0 -0.31575,0.007 -0.47186,0.0227 z m 1.88909,13.22013 c 0,0.78062 -0.63492,1.41723 -1.41723,1.41723 -0.78062,0 -1.41728,-0.63488 -1.41728,-1.41723 0,-0.16132 0.0276,-0.32091 0.0814,-0.47187 h 2.67147 c 0.0539,0.15096 0.0814,0.31055 0.0814,0.47187 z m -6.85376,-1.41555 c 0.24112,-0.2914 0.45099,-0.61057 0.62273,-0.94536 0.37645,-0.73554 0.56554,-1.52826 0.56554,-2.36096 v -2.83272 c 0,-2.3436 1.9064,-4.25 4.25,-4.25 2.34181,0 4.25,1.9064 4.25,4.25 v 2.83272 c 0,0.83096 0.19078,1.62542 0.56549,2.35922 0.17174,0.33653 0.38167,0.65397 0.62104,0.94529 h -10.8748 z"
         id="path4-3"
         style="fill:#eff0f1;fill-opacity:1;stroke-width:0.0173471" />
    </g>
    <g
       id="notification-active">
      <path
         style="fill:none"
         inkscape:connector-curvature="0"
         d="m 209.82493,726.24546 h 22 v 22 h -22 z"
         id="path14" />
      <path
         style="fill:#009eff;fill-opacity:1;fill-rule:evenodd;stroke-width:1.336"
         id="path16"
         class="ColorScheme-Text"
         d="m 213.25879,728.08946 c -2.00479,2.00299 -3.13204,4.72017 -3.13386,7.5541 h 1.336 c 8.2e-4,-1.12721 0.20512,-2.23328 0.59253,-3.26914 0.46479,-1.24278 1.19317,-2.38447 2.14993,-3.34027 z m 15.10829,0 -0.9446,0.94469 c 1.75421,1.75245 2.74066,4.12981 2.74245,6.60941 h 1.336 c -0.002,-2.83393 -1.12906,-5.55111 -3.13385,-7.5541 z m -1.8918,1.89207 -0.94721,0.94669 c 1.25381,1.2494 1.96049,2.94531 1.96486,4.71534 h 1.336 c -0.001,-0.80062 -0.12214,-1.58872 -0.35289,-2.34036 -0.38162,-1.24305 -1.06354,-2.38635 -2.00076,-3.32167 z m -11.31947,0.004 c -0.5465,0.54436 -1.00643,1.15944 -1.37085,1.82377 -0.63896,1.16481 -0.98434,2.48115 -0.98803,3.83361 h 1.336 c 0.002,-1.77105 0.70649,-3.46896 1.95964,-4.72048 z"
         inkscape:connector-curvature="0"
         sodipodi:nodetypes="cccscccccccccccsccscccc" />
      <path
         d="m 227.70481,742.06269 c -1.08075,-0.81182 -1.7,-2.05042 -1.7,-3.40174 v -2.83272 c 0,-2.37306 -1.59943,-4.38013 -3.77819,-4.99767 v -0.66787 c 0,-0.78053 -0.63489,-1.41723 -1.41722,-1.41723 -0.78062,0 -1.41728,0.635 -1.41728,1.41723 v 0.66787 c -2.17876,0.61754 -3.77814,2.62461 -3.77814,4.99767 v 2.83272 c 0,1.34961 -0.6193,2.58819 -1.7,3.40174 -0.16305,0.12145 -0.22895,0.33306 -0.16479,0.52736 0.0641,0.19256 0.24459,0.32264 0.44754,0.32264 h 4.29684 c -0.0311,0.15437 -0.0485,0.31228 -0.0485,0.47186 0,1.30101 1.05992,2.36091 2.36097,2.36091 1.30097,0 2.36089,-1.06 2.36089,-2.36091 0,-0.15785 -0.0156,-0.31749 -0.0467,-0.47186 h 4.29687 c 0.20294,0 0.38333,-0.13008 0.44756,-0.32264 0.0694,-0.19257 0.002,-0.40591 -0.15962,-0.52736 z m -7.36554,-11.9 c 0,-0.26021 0.21166,-0.47182 0.47186,-0.47182 0.26021,0 0.47182,0.21161 0.47182,0.47182 v 0.49437 c -0.15612,-0.0138 -0.31223,-0.0227 -0.47182,-0.0227 -0.1595,0 -0.31575,0.007 -0.47186,0.0227 z m 1.88909,13.22013 c 0,0.78062 -0.63492,1.41723 -1.41723,1.41723 -0.78062,0 -1.41728,-0.63488 -1.41728,-1.41723 0,-0.16132 0.0276,-0.32091 0.0814,-0.47187 h 2.67147 c 0.0539,0.15096 0.0814,0.31055 0.0814,0.47187 z m -6.85376,-1.41555 c 0.24112,-0.2914 0.45099,-0.61057 0.62273,-0.94536 0.37645,-0.73554 0.56554,-1.52826 0.56554,-2.36096 v -2.83272 c 0,-2.3436 1.9064,-4.25 4.25,-4.25 2.34181,0 4.25,1.9064 4.25,4.25 v 2.83272 c 0,0.83096 0.19078,1.62542 0.56549,2.35922 0.17174,0.33653 0.38167,0.65397 0.62104,0.94529 h -10.8748 z"
         id="path4-3-36"
         style="fill:#eff0f1;fill-opacity:1;stroke-width:0.0173471" />
    </g>
    <g
       id="notification-disabled">
      <path
         style="fill:none"
         inkscape:connector-curvature="0"
         d="m 209.82493,646.24546 h 22 v 22 h -22 z"
         id="path25" />
      <path
         d="m 227.70481,662.06271 c -1.08071,-0.81184 -1.7,-2.05042 -1.7,-3.40174 v -2.83276 c 0,-2.37306 -1.59939,-4.38011 -3.77817,-4.99765 v -0.66785 c 0,-0.78055 -0.6349,-1.41725 -1.41724,-1.41725 -0.7806,0 -1.41724,0.635 -1.41724,1.41725 v 0.66785 c -2.17878,0.61754 -3.77816,2.62459 -3.77816,4.99765 v 2.83276 c 0,1.34959 -0.6193,2.58817 -1.7,3.40174 -0.16307,0.12143 -0.22897,0.33306 -0.16481,0.52734 0.0642,0.19256 0.24461,0.32266 0.44755,0.32266 h 4.29685 c -0.0311,0.15445 -0.0485,0.31224 -0.0485,0.47184 0,1.30101 1.0599,2.36091 2.36092,2.36091 1.30102,0 2.36092,-1.0599 2.36092,-2.36091 0,-0.15787 -0.0156,-0.31749 -0.0468,-0.47184 h 4.29682 c 0.20299,0 0.38336,-0.1301 0.44759,-0.32266 0.0694,-0.19255 0.002,-0.40591 -0.1596,-0.52734 z m -7.36552,-11.9 c 0,-0.26021 0.21164,-0.47184 0.47184,-0.47184 0.26021,0 0.47184,0.21163 0.47184,0.47184 v 0.49435 c -0.15612,-0.0138 -0.31224,-0.0225 -0.47184,-0.0225 -0.1595,0 -0.31571,0.007 -0.47184,0.0225 z m 1.88909,13.22011 c 0,0.7806 -0.6349,1.41723 -1.41725,1.41723 -0.7806,0 -1.41724,-0.6349 -1.41724,-1.41723 0,-0.16134 0.0278,-0.32093 0.0814,-0.47185 h 2.67146 c 0.0539,0.15092 0.0814,0.31051 0.0814,0.47185 z m -6.85378,-1.41553 c 0.24113,-0.29142 0.45103,-0.61061 0.62277,-0.9454 0.37643,-0.73552 0.5655,-1.52826 0.5655,-2.36092 v -2.83276 c 0,-2.34356 1.90642,-4.25 4.25,-4.25 2.34183,0 4.25,1.90644 4.25,4.25 v 2.83276 c 0,0.83092 0.19082,1.6254 0.56551,2.35918 0.17174,0.33653 0.38165,0.65399 0.62102,0.94531 h -10.8748 z"
         id="path4-3-3"
         style="fill:#ff557f;fill-opacity:1;stroke-width:0.0173469" />
    </g>
  </g>
</svg>
