<?xml version="1.0" encoding="UTF-8" standalone="no"?>
<svg
   width="32"
   height="32"
   version="1.1"
   id="svg12"
   sodipodi:docname="nulloy.svg"
   inkscape:version="1.2.2 (b0a8486541, 2022-12-01)"
   xmlns:inkscape="http://www.inkscape.org/namespaces/inkscape"
   xmlns:sodipodi="http://sodipodi.sourceforge.net/DTD/sodipodi-0.dtd"
   xmlns="http://www.w3.org/2000/svg"
   xmlns:svg="http://www.w3.org/2000/svg">
  <defs
     id="defs16" />
  <sodipodi:namedview
     id="namedview14"
     pagecolor="#cccccc"
     bordercolor="#000000"
     borderopacity="1"
     inkscape:showpageshadow="2"
     inkscape:pageopacity="0"
     inkscape:pagecheckerboard="0"
     inkscape:deskcolor="#808080"
     showgrid="false"
     inkscape:zoom="10.429825"
     inkscape:cx="14.765348"
     inkscape:cy="17.737594"
     inkscape:window-width="1920"
     inkscape:window-height="1003"
     inkscape:window-x="0"
     inkscape:window-y="0"
     inkscape:window-maximized="1"
     inkscape:current-layer="svg12"
     showguides="false">
    <inkscape:grid
       type="xygrid"
       id="grid559"
       originx="0"
       originy="0" />
  </sodipodi:namedview>
  <g
     id="nulloy">
    <rect
       style="opacity:0.00100002"
       width="32"
       height="32"
       x="0"
       y="0"
       id="rect7" />
    <path
       style="fill:#eff0f1;fill-opacity:1;stroke-width:0.575101"
       d="M 9.026579,9 9.03986,9.095703 c 0.3296358,2.247652 0.5189227,4.102423 0.76412,5.229504 0.245202,1.127043 0.550191,1.798483 1.122925,2.170401 0.572728,0.371902 1.388467,0.435462 2.64287,0.394761 1.2544,-0.0407 2.9514,-0.363305 5.294005,-0.4375 l 0.07643,-0.003 -0.01008,-0.07519 c -0.22058,-1.726068 -0.294064,-3.011353 -0.443415,-3.872982 -0.149345,-0.86164 -0.383119,-1.399342 -0.91861,-1.76366 -0.5355,-0.364322 -1.355521,-0.555982 -2.687716,-0.779296 C 13.548234,9.7354248 11.702013,9.4833185 9.1179413,9.0170896 Z m 11.225912,0 c -0.936486,0 -1.700996,0.7814989 -1.700996,1.75 0,0.968607 0.764516,1.75 1.700996,1.75 0.936475,0 1.700994,-0.781393 1.700994,-1.75 0,-0.9685011 -0.764508,-1.75 -1.700994,-1.75 z M 23,12.088139 l -0.137865,0.08369 c -1.103499,0.678835 -1.918945,0.800553 -2.549836,1.156988 -0.31546,0.178217 -0.582664,0.418292 -0.800662,0.810047 -0.218014,0.391762 -0.389059,0.932685 -0.526592,1.720947 l -0.01996,0.121333 0.109635,-0.0427 c 1.712934,-0.659579 2.474158,-0.717743 2.935214,-1.06128 0.23051,-0.171768 0.372574,-0.414578 0.503323,-0.816891 0.13074,-0.402309 0.253196,-0.968954 0.448496,-1.811526 z m -0.14119,2.949711 -0.182724,0.06147 c -1.830476,0.628387 -2.580701,0.80914 -2.965132,1.097163 -0.19221,0.144035 -0.283723,0.319602 -0.353824,0.567395 -0.07011,0.247797 -0.124565,0.573999 -0.250822,1.049307 l -0.02999,0.111093 0.109635,-0.02567 c 1.10856,-0.251679 1.619113,-0.311868 2.051495,-0.625481 0.43238,-0.313612 0.760097,-0.860914 1.516613,-2.069568 z m -3.867115,1.78416 -0.09303,0.007 c -2.784062,0.149271 -4.233776,0.168292 -5.199333,0.803215 -0.482765,0.31745 -0.832274,0.831004 -1.151155,1.657727 -0.318899,0.826713 -0.611888,1.680739 -0.985053,3.277831 l -0.02657,0.116202 0.111294,-0.03422 c 1.661592,-0.502221 2.840293,-0.719347 3.700978,-0.861329 0.860703,-0.141977 1.406156,-0.205433 1.810633,-0.416995 0.404493,-0.211556 0.648817,-0.572174 0.89203,-1.26294 0.243216,-0.690768 0.49238,-1.605672 0.915291,-3.192382 z m 3.342196,0.06665 c -0.817607,0.882518 -1.515553,1.042073 -2.056492,1.237307 -0.270457,0.09762 -0.505624,0.206037 -0.682706,0.422113 -0.177083,0.216102 -0.290996,0.532462 -0.335563,1.033932 l -0.007,0.08718 0.08305,-0.0103 c 0.994327,-0.132386 1.552433,-0.234675 1.975095,-0.599847 0.422658,-0.36519 0.691926,-0.974363 1.134545,-2.096923 z m -10.024921,1.650876 -0.121259,0.03252 C 10.925216,18.897448 10.342934,19.29625 9.9817306,19.956302 9.6205235,20.616325 9.475285,21.51762 9.0415289,22.870115 L 9,23 9.1279075,22.955561 c 0.5731249,-0.194978 0.9795975,-0.335828 1.2906945,-0.49561 0.311103,-0.15974 0.527468,-0.340936 0.702658,-0.610098 0.350379,-0.538288 0.54692,-1.406699 1.146176,-3.190658 z m 9.757475,0.789558 -0.12292,0.04793 c -1.013273,0.396908 -1.569593,0.574151 -1.87376,0.845926 -0.152075,0.135901 -0.23618,0.299705 -0.265774,0.509282 -0.02968,0.209579 -0.01022,0.225029 0.02997,0.565683 l 0.0082,0.07866 0.07481,-0.0188 c 0.345844,-0.08997 0.597222,-0.08931 0.799006,-0.08033 0.201788,0.0091 0.360377,0.03186 0.508307,-0.03938 0.147929,-0.07122 0.260918,-0.230064 0.380398,-0.53662 0.119489,-0.306576 0.248732,-0.530882 0.428572,-1.242433 z"
       id="path9" />
    <path
       d="M 22.675961,5 C 25,5 27.000003,7 27.000003,9.32408 V 22.673476 C 27.000001,24.997525 25,27 22.675961,27 H 9.324041 C 7,27 5,24.997526 5,22.673476 V 9.32408 C 5,7 7,5 9.324041,5 h 13.35192 m 0,-1 H 9.324041 C 6.400002,4 4,6.4 4,9.324081 V 22.673478 C 4,25.599999 6.400002,28 9.324041,28 h 13.34945 C 25.599998,28 28,25.599999 28,22.675947 V 9.324081 C 27.999999,6.4 25.6,4 22.675961,4 Z"
       id="path4-3-36"
       style="clip-rule:evenodd;fill:#eff0f1;fill-opacity:1;fill-rule:evenodd;stroke-width:0.0244919;stroke-linejoin:round;stroke-miterlimit:1.41421"
       sodipodi:nodetypes="cssssssscsssssssss" />
  </g>
  <g
     id="22-22-nulloy"
     transform="translate(32,10)">
    <rect
       style="opacity:0.00100002"
       width="22"
       height="22"
       x="0"
       y="0"
       id="rect2" />
    <path
       style="fill:#eff0f1;fill-opacity:1;stroke-width:0.625001"
       d="m 6.0195301,6 0.00976,0.06838 c 0.2422379,1.60547 0.3813378,2.930311 0.5615243,3.735361 0.1801864,0.805042 0.4043146,1.28464 0.8251955,1.550293 0.4208816,0.265648 1.0203273,0.311043 1.9421414,0.281981 0.9218147,-0.02907 2.1688847,-0.259512 3.8903857,-0.3125 l 0.05615,-0.0015 -0.0074,-0.05371 C 13.135168,10.034614 13.081164,9.116564 12.97141,8.501106 12.861657,7.885643 12.689875,7.501567 12.296361,7.24134 11.902846,6.981109 11.300229,6.844209 10.321261,6.684696 9.3422939,6.525182 7.9855773,6.345112 6.0866373,6.012086 Z m 8.2495209,0 c -0.688184,0 -1.250001,0.558215 -1.250001,1.250001 0,0.691861 0.561824,1.250002 1.250001,1.250002 0.688178,0 1.250001,-0.558141 1.250001,-1.250002 C 15.519052,6.558215 14.957236,6 14.269051,6 Z m 2.019045,2.205815 -0.101319,0.05981 c -0.810922,0.484882 -1.410162,0.571817 -1.873781,0.826415 -0.231808,0.127299 -0.428179,0.29878 -0.588379,0.578614 -0.160201,0.279836 -0.285905,0.666207 -0.386963,1.229248 l -0.01465,0.08665 0.08056,-0.03051 c 1.258786,-0.471136 1.818178,-0.512672 2.156985,-0.758053 0.169404,-0.122697 0.273798,-0.29613 0.369873,-0.5835 0.09607,-0.287365 0.186073,-0.692106 0.329592,-1.293948 z m -0.103759,2.106936 -0.134278,0.04391 c -1.345147,0.448842 -1.896456,0.577949 -2.178958,0.783693 -0.141252,0.102868 -0.20851,0.228281 -0.260009,0.405274 -0.0515,0.176994 -0.09155,0.409994 -0.184327,0.74951 l -0.02198,0.07938 0.08056,-0.01833 c 0.814636,-0.179771 1.189828,-0.222763 1.50757,-0.446773 0.317741,-0.224008 0.558568,-0.614934 1.114503,-1.478272 z m -2.841801,1.274412 -0.06836,0.005 c -2.045906,0.10662 -3.111259,0.120206 -3.8208045,0.573728 -0.3547724,0.226749 -0.6116052,0.593572 -0.8459483,1.184089 -0.2343433,0.590511 -0.4496529,1.200534 -0.7238778,2.341308 l -0.019533,0.08301 0.081788,-0.02441 c 1.2210532,-0.358734 2.0872346,-0.513823 2.7197296,-0.615238 0.632494,-0.101409 1.033331,-0.146736 1.330568,-0.297853 0.297238,-0.15111 0.476787,-0.408695 0.655518,-0.902101 0.178731,-0.493403 0.361824,-1.146907 0.672608,-2.280273 z m 2.456058,0.04759 c -0.600828,0.630366 -1.113721,0.744339 -1.511232,0.88379 -0.198757,0.06973 -0.371577,0.147167 -0.50171,0.301515 -0.130134,0.154349 -0.213832,0.380331 -0.246582,0.738527 l -0.0049,0.06225 0.06104,-0.0073 c 0.730691,-0.09456 1.14082,-0.167625 1.451418,-0.42847 0.310597,-0.260844 0.508478,-0.695965 0.83374,-1.497804 z m -7.3669517,1.1792 -0.089111,0.0232 c -0.9277578,0.232452 -1.3556589,0.517313 -1.6210955,0.988772 -0.2654363,0.47146 -0.3721663,1.115241 -0.690919,2.081301 L 6,16 6.093994,15.96828 C 6.5151632,15.829011 6.8138652,15.728402 7.0424812,15.614275 7.271097,15.500165 7.4300978,15.370732 7.5588389,15.178484 7.816322,14.793989 7.9607458,14.173702 8.4011253,12.899428 Z m 7.1704177,0.56397 -0.09033,0.03418 c -0.744619,0.28351 -1.153439,0.410115 -1.376955,0.604242 -0.111758,0.09707 -0.173562,0.214073 -0.195312,0.363769 -0.02175,0.149698 -0.0075,0.160739 0.02197,0.404055 l 0.0061,0.05614 0.05493,-0.01346 c 0.254145,-0.06424 0.438873,-0.06382 0.587159,-0.05738 0.148284,0.0062 0.264826,0.02283 0.373535,-0.02812 0.108708,-0.05088 0.191737,-0.164334 0.279542,-0.3833 0.0878,-0.218977 0.182782,-0.379205 0.314941,-0.887455 z"
       id="path4" />
    <path
       d="m 15.451,3.999999 c 1.54936,0 2.549,1.199613 2.549,2.749 v 8.6 c 0,1.549366 -1.199641,2.651 -2.748999,2.651 H 6.6500005 c -1.54936,0 -2.649622,-1.101633 -2.64968,-2.651 L 4.0000005,6.749 c -5.7e-5,-1.549386 1,-2.749001 2.54936,-2.749001 H 15.450641 M 15.450641,3 H 6.5493605 c -1.94936,0 -3.54936,1.6 -3.54936,3.549387 v 8.899598 c 0,1.951014 1.6,3.551015 3.54936,3.551015 H 15.448995 C 17.4,19 19,17.399999 19,15.450631 V 6.549387 C 19,4.6 17.399999,3 15.450641,3 Z"
       id="path4-3-3-7"
       style="clip-rule:evenodd;fill:#eff0f1;fill-opacity:1;fill-rule:evenodd;stroke-width:0.0163279;stroke-linejoin:round;stroke-miterlimit:1.41421"
       sodipodi:nodetypes="cssssssscsssssssss" />
  </g>
</svg>
