<?xml version="1.0" encoding="UTF-8" standalone="no"?>
<svg
   sodipodi:docname="update.svg"
   inkscape:version="1.1.1 (3bf5ae0d25, 2021-09-20)"
   id="svg846"
   version="1.1"
   viewBox="0 0 8.4666665 8.4666699"
   height="32.000011"
   width="32"
   xmlns:inkscape="http://www.inkscape.org/namespaces/inkscape"
   xmlns:sodipodi="http://sodipodi.sourceforge.net/DTD/sodipodi-0.dtd"
   xmlns="http://www.w3.org/2000/svg"
   xmlns:svg="http://www.w3.org/2000/svg"
   xmlns:rdf="http://www.w3.org/1999/02/22-rdf-syntax-ns#"
   xmlns:cc="http://creativecommons.org/ns#"
   xmlns:dc="http://purl.org/dc/elements/1.1/">
  <defs
     id="defs840" />
  <sodipodi:namedview
     inkscape:document-rotation="0"
     inkscape:snap-midpoints="true"
     inkscape:object-paths="true"
     inkscape:snap-intersection-paths="true"
     inkscape:snap-smooth-nodes="true"
     inkscape:window-maximized="1"
     inkscape:window-y="0"
     inkscape:window-x="0"
     inkscape:window-height="1007"
     inkscape:window-width="1920"
     units="px"
     showgrid="false"
     inkscape:current-layer="layer1"
     inkscape:document-units="px"
     inkscape:cy="-2.2980969"
     inkscape:cx="-35.797279"
     inkscape:zoom="5.6568545"
     inkscape:pageshadow="2"
     inkscape:pageopacity="0.0"
     borderopacity="1"
     bordercolor="#000000"
     pagecolor="#ffffff"
     id="base"
     inkscape:lockguides="true"
     showguides="false"
     inkscape:showpageshadow="false"
     inkscape:pagecheckerboard="0">
    <inkscape:grid
       id="grid1394"
       type="xygrid"
       originx="-25.399983"
       originy="-5.8207621" />
  </sodipodi:namedview>
  <metadata
     id="metadata843">
    <rdf:RDF>
      <cc:Work
         rdf:about="">
        <dc:format>image/svg+xml</dc:format>
        <dc:type
           rdf:resource="http://purl.org/dc/dcmitype/StillImage" />
      </cc:Work>
    </rdf:RDF>
  </metadata>
  <style
     type="text/css"
     id="current-color-scheme" />
  <g
     transform="translate(-25.4,-296.99997)"
     id="layer1"
     inkscape:groupmode="layer"
     inkscape:label="Layer 1">
    <g
       id="g3777">
      <g
         id="22-22-update-high">
        <rect
           style="opacity:0.003;fill:#000000;fill-opacity:1;stroke:none;stroke-width:0.10795;stroke-miterlimit:4;stroke-dasharray:none;stroke-opacity:1"
           id="rect1396-3"
           width="5.8208332"
           height="5.8208332"
           x="5.8208332"
           y="291.17914"
           ry="1.2988288e-06" />
        <path
           d="m 9.3002679,294.0831 c 0,0.30419 -0.246494,0.55068 -0.550666,0.55068 -0.304174,0 -0.550672,-0.24649 -0.550672,-0.55068 0,-0.30418 0.246498,-0.55066 0.550672,-0.55066 0.304172,0 0.550666,0.24648 0.550666,0.55066 z"
           id="path4-3-5-6-8"
           style="fill:#ff4c78;fill-opacity:1;stroke-width:0.00303566" />
        <path
           d="m 9.8072699,292.33904 c 0.3709641,0 0.6703961,0.29951 0.6703961,0.67046 v 2.13076 c 0,0.371 -0.299432,0.67049 -0.6703961,0.67049 h -2.1312 c -0.370965,0 -0.670397,-0.29949 -0.670397,-0.67049 v -2.13076 c 0,-0.37095 0.299432,-0.67046 0.670397,-0.67046 h 2.1312 m 0,-0.17929 h -2.1312 c -0.466737,0 -0.84982,0.38314 -0.84982,0.84975 v 2.13076 c 0,0.46714 0.383083,0.85023 0.84982,0.85023 h 2.130808 c 0.4671271,0 0.8502111,-0.38309 0.8502111,-0.84972 v -2.13127 c 0,-0.46661 -0.383084,-0.84975 -0.8498191,-0.84975 z"
           id="path4-36-2-7"
           style="clip-rule:evenodd;fill:#eff0f1;fill-opacity:1;fill-rule:evenodd;stroke-width:0.00390927;stroke-linejoin:round;stroke-miterlimit:1.41421" />
        <path
           class="fil0"
           d="m 7.9478839,295.87053 0.375374,-0.37538 c 0.02185,-0.0206 0.05528,-0.0206 0.07585,0 0.02057,0.0206 0.02057,0.3094 0,0.33126 l -0.338094,0.0827 0.338094,0.0667 c 0.02057,0.0206 0.02057,0.32664 0,0.34722 -0.02057,0.0206 -0.05399,0.0206 -0.07585,0 l -0.375374,-0.37665 c -0.02057,-0.0206 -0.02057,-0.054 0,-0.0758 z"
           id="path6-6-9"
           style="fill:#eff0f1;fill-opacity:1;stroke-width:0.00128553;image-rendering:optimizeQuality;shape-rendering:geometricPrecision;text-rendering:geometricPrecision"
           sodipodi:nodetypes="ccsccccccc" />
        <path
           class="fil0"
           d="m 9.5169319,292.30846 -0.375374,0.37537 c -0.02185,0.0206 -0.05528,0.0206 -0.07585,0 -0.02057,-0.0206 -0.02057,-0.34133 0,-0.36319 l 0.338094,-0.0507 -0.338094,-0.0986 c -0.02057,-0.0206 -0.02057,-0.2947 0,-0.31529 0.02057,-0.0206 0.05399,-0.0206 0.07585,0 l 0.375374,0.37666 c 0.02057,0.0206 0.02057,0.054 0,0.0759 z"
           id="path6-5-1-2"
           style="fill:#eff0f1;fill-opacity:1;stroke-width:0.00128553;image-rendering:optimizeQuality;shape-rendering:geometricPrecision;text-rendering:geometricPrecision"
           sodipodi:nodetypes="ccsccccccc" />
      </g>
    </g>
    <g
       id="22-22-update-none">
      <rect
         style="opacity:0.003;fill:#000000;fill-opacity:1;stroke:none;stroke-width:0.10795;stroke-miterlimit:4;stroke-dasharray:none;stroke-opacity:1"
         id="rect1396"
         width="5.8208332"
         height="5.8208332"
         x="0"
         y="291.17914"
         ry="1.2988289e-06" />
      <path
         d="m 3.4794347,294.0831 c 0,0.30419 -0.2464942,0.55068 -0.5506667,0.55068 -0.3041742,0 -0.5506715,-0.24649 -0.5506715,-0.55068 0,-0.30418 0.2464973,-0.55066 0.5506715,-0.55066 0.3041725,0 0.5506667,0.24648 0.5506667,0.55066 z"
         id="path4-3-5-0"
         style="fill:#eff0f1;fill-opacity:1;stroke-width:0.00303566" />
      <path
         d="m 3.9864366,292.33904 c 0.3709653,0 0.6703973,0.29951 0.6703973,0.67046 v 2.13076 c 0,0.371 -0.299432,0.67049 -0.6703973,0.67049 H 1.8552367 c -0.3709658,0 -0.6703975,-0.29949 -0.6703975,-0.67049 v -2.13076 c 0,-0.37095 0.2994317,-0.67046 0.6703975,-0.67046 h 2.1311999 m 0,-0.17929 H 1.8552367 c -0.4667377,0 -0.84982,0.38314 -0.84982,0.84975 v 2.13076 c 0,0.46714 0.3830823,0.85023 0.84982,0.85023 h 2.1308081 c 0.4671282,0 0.8502121,-0.38309 0.8502121,-0.84972 v -2.13127 c 0,-0.46661 -0.3830839,-0.84975 -0.8498203,-0.84975 z"
         id="path4-36-9"
         style="clip-rule:evenodd;fill:#eff0f1;fill-opacity:1;fill-rule:evenodd;stroke-width:0.00390927;stroke-linejoin:round;stroke-miterlimit:1.41421" />
      <path
         class="fil0"
         d="m 2.1270502,295.87053 0.3753745,-0.37538 c 0.021854,-0.0206 0.055278,-0.0206 0.075846,0 0.020568,0.0206 0.020568,0.3094 0,0.33126 l -0.3380942,0.0827 0.3380942,0.0667 c 0.020568,0.0206 0.020568,0.32664 0,0.34722 -0.020568,0.0206 -0.053992,0.0206 -0.075846,0 l -0.3753745,-0.37665 c -0.020568,-0.0206 -0.020568,-0.054 0,-0.0759 z"
         id="path6-36"
         style="fill:#eff0f1;fill-opacity:1;stroke-width:0.00128553;image-rendering:optimizeQuality;shape-rendering:geometricPrecision;text-rendering:geometricPrecision"
         sodipodi:nodetypes="ccsccccccc" />
      <path
         class="fil0"
         d="m 3.6960989,292.30846 -0.3753745,0.37537 c -0.021854,0.0206 -0.055278,0.0206 -0.075846,0 -0.020568,-0.0206 -0.020568,-0.34133 0,-0.36319 l 0.3380941,-0.0507 -0.3380941,-0.0986 c -0.020568,-0.0206 -0.020568,-0.2947 0,-0.31529 0.020568,-0.0206 0.053992,-0.0206 0.075846,0 l 0.3753745,0.37666 c 0.020568,0.0206 0.020568,0.054 0,0.0759 z"
         id="path6-5-0"
         style="fill:#eff0f1;fill-opacity:1;stroke-width:0.00128553;image-rendering:optimizeQuality;shape-rendering:geometricPrecision;text-rendering:geometricPrecision"
         sodipodi:nodetypes="ccsccccccc" />
    </g>
    <g
       id="update-high">
      <rect
         style="opacity:0.003;fill:#000000;fill-opacity:1;stroke:none;stroke-width:0.157018;stroke-miterlimit:4;stroke-dasharray:none;stroke-opacity:1"
         id="rect1396-6-9"
         width="8.4666672"
         height="8.46667"
         x="8.4666672"
         y="296.99997"
         ry="1.8892064e-06" />
      <path
         d="m 13.626051,301.24649 c 0,0.50424 -0.4086,0.91283 -0.91281,0.91283 -0.504213,0 -0.912818,-0.40859 -0.912818,-0.91283 0,-0.50421 0.408605,-0.9128 0.912818,-0.9128 0.50421,0 0.91281,0.40859 0.91281,0.9128 z"
         id="path4-3-5-36"
         style="fill:#ff527c;fill-opacity:1;stroke-width:0.00503204" />
      <path
         d="m 14.46648,298.35547 c 0.614929,0 1.111281,0.49648 1.111281,1.11138 v 3.53205 c 0,0.61498 -0.496352,1.11143 -1.111281,1.11143 h -3.532773 c -0.61493,0 -1.1112845,-0.49645 -1.1112845,-1.11143 v -3.53205 c 0,-0.6149 0.4963545,-1.11138 1.1112845,-1.11138 h 3.532773 m 0,-0.2972 h -3.532773 c -0.773686,0 -1.4087065,0.63511 -1.4087065,1.40858 v 3.53205 c 0,0.77435 0.6350205,1.40937 1.4087065,1.40937 h 3.532124 c 0.774332,0 1.40935,-0.63502 1.40935,-1.40854 v -3.53288 c 0,-0.77347 -0.635018,-1.40858 -1.408701,-1.40858 z"
         id="path4-36-7"
         style="clip-rule:evenodd;fill:#eff0f1;fill-opacity:1;fill-rule:evenodd;stroke-width:0.00648019;stroke-linejoin:round;stroke-miterlimit:1.41421" />
      <path
         class="fil0"
         d="m 11.384277,304.20942 0.622238,-0.62224 c 0.03623,-0.0341 0.09163,-0.0341 0.125726,0 0.03409,0.0341 0.03409,0.51287 0,0.5491 l -0.56044,0.13707 0.56044,0.11058 c 0.03409,0.0341 0.03409,0.54146 0,0.57558 -0.0341,0.0341 -0.0895,0.0341 -0.125726,0 l -0.622238,-0.62436 c -0.0341,-0.0341 -0.0341,-0.0895 0,-0.12573 z"
         id="path6-53"
         style="fill:#eff0f1;fill-opacity:1;stroke-width:0.00213096;image-rendering:optimizeQuality;shape-rendering:geometricPrecision;text-rendering:geometricPrecision"
         sodipodi:nodetypes="ccsccccccc" />
      <path
         class="fil0"
         d="m 13.985203,298.30477 -0.622238,0.62224 c -0.03623,0.0341 -0.09163,0.0341 -0.125726,0 -0.0341,-0.0341 -0.0341,-0.56581 0,-0.60204 l 0.56044,-0.0841 -0.56044,-0.16352 c -0.0341,-0.0341 -0.0341,-0.48852 0,-0.52264 0.03409,-0.0341 0.0895,-0.0341 0.125726,0 l 0.622238,0.62436 c 0.0341,0.0341 0.0341,0.0895 0,0.12573 z"
         id="path6-5-56"
         style="fill:#eff0f1;fill-opacity:1;stroke-width:0.00213096;image-rendering:optimizeQuality;shape-rendering:geometricPrecision;text-rendering:geometricPrecision"
         sodipodi:nodetypes="ccsccccccc" />
    </g>
    <g
       id="update-low">
      <rect
         style="opacity:0.003;fill:#000000;fill-opacity:1;stroke:none;stroke-width:0.157018;stroke-miterlimit:4;stroke-dasharray:none;stroke-opacity:1"
         id="rect1396-6-9-1"
         width="8.4666672"
         height="8.46667"
         x="25.4"
         y="296.99997"
         ry="1.8892064e-06" />
      <path
         d="m 30.559378,301.24649 c 0,0.50424 -0.4086,0.91283 -0.91281,0.91283 -0.504213,0 -0.912818,-0.40859 -0.912818,-0.91283 0,-0.50421 0.408605,-0.9128 0.912818,-0.9128 0.50421,0 0.91281,0.40859 0.91281,0.9128 z"
         id="path4-3-5-3"
         style="fill:#009bfa;fill-opacity:1;stroke-width:0.00503204" />
      <path
         d="m 31.399807,298.35547 c 0.614929,0 1.111281,0.49648 1.111281,1.11138 v 3.53205 c 0,0.61498 -0.496352,1.11143 -1.111281,1.11143 h -3.532773 c -0.61493,0 -1.111281,-0.49645 -1.111281,-1.11143 v -3.53205 c 0,-0.6149 0.496351,-1.11138 1.111281,-1.11138 h 3.532773 m 0,-0.2972 h -3.532773 c -0.773686,0 -1.408701,0.63511 -1.408701,1.40858 v 3.53205 c 0,0.77435 0.635015,1.40937 1.408701,1.40937 h 3.532124 c 0.774333,0 1.40935,-0.63502 1.40935,-1.40854 v -3.53288 c 0,-0.77347 -0.635017,-1.40858 -1.408701,-1.40858 z"
         id="path4-36-6"
         style="clip-rule:evenodd;fill:#eff0f1;fill-opacity:1;fill-rule:evenodd;stroke-width:0.00648019;stroke-linejoin:round;stroke-miterlimit:1.41421" />
      <path
         class="fil0"
         d="m 28.317604,304.20942 0.622238,-0.62224 c 0.03623,-0.0341 0.09163,-0.0341 0.125726,0 0.0341,0.0341 0.0341,0.51287 0,0.5491 l -0.56044,0.13707 0.56044,0.11058 c 0.0341,0.0341 0.0341,0.54146 0,0.57558 -0.0341,0.0341 -0.0895,0.0341 -0.125726,0 l -0.622238,-0.62436 c -0.0341,-0.0341 -0.0341,-0.0895 0,-0.12573 z"
         id="path6-7"
         style="fill:#eff0f1;fill-opacity:1;stroke-width:0.00213096;image-rendering:optimizeQuality;shape-rendering:geometricPrecision;text-rendering:geometricPrecision"
         sodipodi:nodetypes="ccsccccccc" />
      <path
         class="fil0"
         d="m 30.91853,298.30477 -0.622237,0.62224 c -0.03623,0.0341 -0.09163,0.0341 -0.125727,0 -0.0341,-0.0341 -0.0341,-0.56581 0,-0.60204 l 0.560441,-0.0841 -0.560441,-0.16352 c -0.0341,-0.0341 -0.0341,-0.48852 0,-0.52264 0.0341,-0.0341 0.0895,-0.0341 0.125727,0 l 0.622237,0.62436 c 0.0341,0.0341 0.0341,0.0895 0,0.12573 z"
         id="path6-5-5"
         style="fill:#eff0f1;fill-opacity:1;stroke-width:0.00213096;image-rendering:optimizeQuality;shape-rendering:geometricPrecision;text-rendering:geometricPrecision"
         sodipodi:nodetypes="ccsccccccc" />
    </g>
    <g
       id="update-none">
      <rect
         style="opacity:0.003;fill:#000000;fill-opacity:1;stroke:none;stroke-width:0.157018;stroke-miterlimit:4;stroke-dasharray:none;stroke-opacity:1"
         id="rect1396-6"
         width="8.4666672"
         height="8.46667"
         x="0"
         y="297"
         ry="1.8892064e-06" />
      <path
         d="m 5.1593781,301.24655 c 0,0.50424 -0.4086,0.91283 -0.91281,0.91283 -0.504213,0 -0.912818,-0.40859 -0.912818,-0.91283 0,-0.50421 0.408605,-0.9128 0.912818,-0.9128 0.50421,0 0.91281,0.40859 0.91281,0.9128 z"
         id="path4-3-5"
         style="fill:#eff0f1;fill-opacity:1;stroke-width:0.00503204" />
      <path
         d="m 5.9998073,298.35553 c 0.6149289,0 1.1112809,0.49648 1.1112809,1.11138 v 3.53205 c 0,0.61498 -0.496352,1.11143 -1.1112809,1.11143 H 2.467034 c -0.6149296,0 -1.1112813,-0.49645 -1.1112813,-1.11143 v -3.53205 c 0,-0.6149 0.4963517,-1.11138 1.1112813,-1.11138 h 3.5327733 m 0,-0.2972 H 2.467034 c -0.7736855,0 -1.4087007,0.63511 -1.4087007,1.40858 v 3.53205 c 0,0.77435 0.6350152,1.40937 1.4087007,1.40937 h 3.5321239 c 0.7743327,0 1.4093499,-0.63502 1.4093499,-1.40854 v -3.53288 c 0,-0.77347 -0.6350172,-1.40858 -1.4087005,-1.40858 z"
         id="path4-36"
         style="clip-rule:evenodd;fill:#eff0f1;fill-opacity:1;fill-rule:evenodd;stroke-width:0.00648019;stroke-linejoin:round;stroke-miterlimit:1.41421" />
      <path
         class="fil0"
         d="m 2.9176043,304.20948 0.6222378,-0.62224 c 0.036226,-0.0341 0.091631,-0.0341 0.1257261,0 0.034095,0.0341 0.034095,0.51287 0,0.5491 l -0.5604402,0.13707 0.5604402,0.11058 c 0.034095,0.0341 0.034095,0.54146 0,0.57558 -0.034095,0.0341 -0.0895,0.0341 -0.1257261,0 l -0.6222378,-0.62436 c -0.034095,-0.0341 -0.034095,-0.0895 0,-0.12573 z"
         id="path6"
         style="fill:#eff0f1;fill-opacity:1;stroke-width:0.00213096;image-rendering:optimizeQuality;shape-rendering:geometricPrecision;text-rendering:geometricPrecision"
         sodipodi:nodetypes="ccsccccccc" />
      <path
         class="fil0"
         d="m 5.5185304,298.30483 -0.6222378,0.62224 c -0.036226,0.0341 -0.091631,0.0341 -0.1257261,0 -0.034095,-0.0341 -0.034095,-0.56581 0,-0.60204 l 0.5604402,-0.0841 -0.5604402,-0.16352 c -0.034095,-0.0341 -0.034095,-0.48852 0,-0.52264 0.034095,-0.0341 0.0895,-0.0341 0.1257261,0 l 0.6222378,0.62436 c 0.034095,0.0341 0.034095,0.0895 0,0.12573 z"
         id="path6-5"
         style="fill:#eff0f1;fill-opacity:1;stroke-width:0.00213096;image-rendering:optimizeQuality;shape-rendering:geometricPrecision;text-rendering:geometricPrecision"
         sodipodi:nodetypes="ccsccccccc" />
    </g>
    <g
       id="update-medium">
      <rect
         style="opacity:0.003;fill:#000000;fill-opacity:1;stroke:none;stroke-width:0.157018;stroke-miterlimit:4;stroke-dasharray:none;stroke-opacity:1"
         id="rect1396-6-9-5"
         width="8.4666672"
         height="8.46667"
         x="16.933332"
         y="296.99997"
         ry="1.8892064e-06" />
      <path
         d="m 22.09271,301.24649 c 0,0.50424 -0.4086,0.91283 -0.91281,0.91283 -0.504213,0 -0.912818,-0.40859 -0.912818,-0.91283 0,-0.50421 0.408605,-0.9128 0.912818,-0.9128 0.50421,0 0.91281,0.40859 0.91281,0.9128 z"
         id="path4-3-5-367"
         style="fill:#ff7f2a;fill-opacity:1;stroke-width:0.00503204" />
      <path
         d="m 22.933139,298.35547 c 0.614929,0 1.111281,0.49648 1.111281,1.11138 v 3.53205 c 0,0.61498 -0.496352,1.11143 -1.111281,1.11143 h -3.532773 c -0.61493,0 -1.111281,-0.49645 -1.111281,-1.11143 v -3.53205 c 0,-0.6149 0.496351,-1.11138 1.111281,-1.11138 h 3.532773 m 0,-0.2972 h -3.532773 c -0.773685,0 -1.408701,0.63511 -1.408701,1.40858 v 3.53205 c 0,0.77435 0.635016,1.40937 1.408701,1.40937 h 3.532124 c 0.774333,0 1.40935,-0.63502 1.40935,-1.40854 v -3.53288 c 0,-0.77347 -0.635017,-1.40858 -1.408701,-1.40858 z"
         id="path4-36-5"
         style="clip-rule:evenodd;fill:#eff0f1;fill-opacity:1;fill-rule:evenodd;stroke-width:0.00648019;stroke-linejoin:round;stroke-miterlimit:1.41421" />
      <path
         class="fil0"
         d="m 19.850936,304.20942 0.622238,-0.62224 c 0.03623,-0.0341 0.09163,-0.0341 0.125726,0 0.0341,0.0341 0.0341,0.51287 0,0.5491 l -0.56044,0.13707 0.56044,0.11058 c 0.0341,0.0341 0.0341,0.54146 0,0.57558 -0.03409,0.0341 -0.0895,0.0341 -0.125726,0 l -0.622238,-0.62436 c -0.03409,-0.0341 -0.03409,-0.0895 0,-0.12573 z"
         id="path6-3"
         style="fill:#eff0f1;fill-opacity:1;stroke-width:0.00213096;image-rendering:optimizeQuality;shape-rendering:geometricPrecision;text-rendering:geometricPrecision"
         sodipodi:nodetypes="ccsccccccc" />
      <path
         class="fil0"
         d="m 22.451862,298.30477 -0.622237,0.62224 c -0.03623,0.0341 -0.09163,0.0341 -0.125727,0 -0.03409,-0.0341 -0.03409,-0.56581 0,-0.60204 l 0.560441,-0.0841 -0.560441,-0.16352 c -0.03409,-0.0341 -0.03409,-0.48852 0,-0.52264 0.0341,-0.0341 0.0895,-0.0341 0.125727,0 l 0.622237,0.62436 c 0.0341,0.0341 0.0341,0.0895 0,0.12573 z"
         id="path6-5-562"
         style="fill:#eff0f1;fill-opacity:1;stroke-width:0.00213096;image-rendering:optimizeQuality;shape-rendering:geometricPrecision;text-rendering:geometricPrecision"
         sodipodi:nodetypes="ccsccccccc" />
    </g>
    <g
       id="g4406">
      <rect
         style="opacity:0.003;fill:#000000;fill-opacity:1;stroke:none;stroke-width:0.10795;stroke-miterlimit:4;stroke-dasharray:none;stroke-opacity:1"
         id="rect1396-3-1"
         width="5.8208332"
         height="5.8208332"
         x="11.641666"
         y="291.17914"
         ry="1.2988288e-06" />
      <path
         d="m 15.121102,294.0831 c 0,0.30419 -0.246494,0.55068 -0.550667,0.55068 -0.304174,0 -0.550671,-0.24649 -0.550671,-0.55068 0,-0.30418 0.246497,-0.55066 0.550671,-0.55066 0.304173,0 0.550667,0.24648 0.550667,0.55066 z"
         id="path4-3-5-02"
         style="fill:#ff7f2a;fill-opacity:1;stroke-width:0.00303566" />
      <path
         d="m 15.628104,292.33904 c 0.370965,0 0.670397,0.29951 0.670397,0.67046 v 2.13076 c 0,0.371 -0.299432,0.67049 -0.670397,0.67049 h -2.1312 c -0.370966,0 -0.670398,-0.29949 -0.670398,-0.67049 v -2.13076 c 0,-0.37095 0.299432,-0.67046 0.670398,-0.67046 h 2.1312 m 0,-0.17929 h -2.1312 c -0.466738,0 -0.849821,0.38314 -0.849821,0.84975 v 2.13076 c 0,0.46714 0.383083,0.85023 0.849821,0.85023 h 2.130808 c 0.467128,0 0.850212,-0.38309 0.850212,-0.84972 v -2.13127 c 0,-0.46661 -0.383084,-0.84975 -0.84982,-0.84975 z"
         id="path4-36-3"
         style="clip-rule:evenodd;fill:#eff0f1;fill-opacity:1;fill-rule:evenodd;stroke-width:0.00390927;stroke-linejoin:round;stroke-miterlimit:1.41421" />
      <path
         class="fil0"
         d="m 13.768717,295.87053 0.375375,-0.37538 c 0.02185,-0.0206 0.05528,-0.0206 0.07585,0 0.02057,0.0206 0.02057,0.3094 0,0.33126 l -0.338095,0.0827 0.338095,0.0667 c 0.02057,0.0206 0.02057,0.32664 0,0.34722 -0.02057,0.0206 -0.05399,0.0206 -0.07585,0 l -0.375375,-0.37665 c -0.02057,-0.0206 -0.02057,-0.054 0,-0.0758 z"
         id="path6-75"
         style="fill:#eff0f1;fill-opacity:1;stroke-width:0.00128553;image-rendering:optimizeQuality;shape-rendering:geometricPrecision;text-rendering:geometricPrecision"
         sodipodi:nodetypes="ccsccccccc" />
      <path
         class="fil0"
         d="m 15.337766,292.30846 -0.375375,0.37537 c -0.02185,0.0206 -0.05528,0.0206 -0.07585,0 -0.02057,-0.0206 -0.02057,-0.34133 0,-0.36319 l 0.338094,-0.0507 -0.338094,-0.0986 c -0.02057,-0.0206 -0.02057,-0.2947 0,-0.31529 0.02057,-0.0206 0.05399,-0.0206 0.07585,0 l 0.375375,0.37666 c 0.02057,0.0206 0.02057,0.054 0,0.0759 z"
         id="path6-5-9"
         style="fill:#eff0f1;fill-opacity:1;stroke-width:0.00128553;image-rendering:optimizeQuality;shape-rendering:geometricPrecision;text-rendering:geometricPrecision"
         sodipodi:nodetypes="ccsccccccc" />
    </g>
    <g
       id="22-22-update-low">
      <rect
         style="opacity:0.003;fill:#000000;fill-opacity:1;stroke:none;stroke-width:0.10795;stroke-miterlimit:4;stroke-dasharray:none;stroke-opacity:1"
         id="rect1396-3-2"
         width="5.8208332"
         height="5.8208332"
         x="17.4625"
         y="291.17914"
         ry="1.2988288e-06" />
      <path
         d="m 20.941936,294.0831 c 0,0.30419 -0.246495,0.55068 -0.550667,0.55068 -0.304174,0 -0.550672,-0.24649 -0.550672,-0.55068 0,-0.30418 0.246498,-0.55066 0.550672,-0.55066 0.304172,0 0.550667,0.24648 0.550667,0.55066 z"
         id="path4-3-5-2"
         style="fill:#009bfa;fill-opacity:1;stroke-width:0.00303566" />
      <path
         d="m 21.448938,292.33904 c 0.370965,0 0.670397,0.29951 0.670397,0.67046 v 2.13076 c 0,0.371 -0.299432,0.67049 -0.670397,0.67049 h -2.1312 c -0.370966,0 -0.670398,-0.29949 -0.670398,-0.67049 v -2.13076 c 0,-0.37095 0.299432,-0.67046 0.670398,-0.67046 h 2.1312 m 0,-0.17929 h -2.1312 c -0.466738,0 -0.849821,0.38314 -0.849821,0.84975 v 2.13076 c 0,0.46714 0.383083,0.85023 0.849821,0.85023 h 2.130808 c 0.467128,0 0.850212,-0.38309 0.850212,-0.84972 v -2.13127 c 0,-0.46661 -0.383084,-0.84975 -0.84982,-0.84975 z"
         id="path4-36-2"
         style="clip-rule:evenodd;fill:#eff0f1;fill-opacity:1;fill-rule:evenodd;stroke-width:0.00390927;stroke-linejoin:round;stroke-miterlimit:1.41421" />
      <path
         class="fil0"
         d="m 19.589551,295.87053 0.375375,-0.37538 c 0.02185,-0.0206 0.05528,-0.0206 0.07585,0 0.02057,0.0206 0.02057,0.3094 0,0.33126 l -0.338094,0.0827 0.338094,0.0667 c 0.02057,0.0206 0.02057,0.32664 0,0.34722 -0.02057,0.0206 -0.05399,0.0206 -0.07585,0 l -0.375375,-0.37665 c -0.02057,-0.0206 -0.02057,-0.054 0,-0.0758 z"
         id="path6-8"
         style="fill:#eff0f1;fill-opacity:1;stroke-width:0.00128553;image-rendering:optimizeQuality;shape-rendering:geometricPrecision;text-rendering:geometricPrecision"
         sodipodi:nodetypes="ccsccccccc" />
      <path
         class="fil0"
         d="m 21.1586,292.30846 -0.375375,0.37537 c -0.02185,0.0206 -0.05528,0.0206 -0.07585,0 -0.02057,-0.0206 -0.02057,-0.34133 0,-0.36319 l 0.338095,-0.0507 -0.338095,-0.0986 c -0.02057,-0.0206 -0.02057,-0.2947 0,-0.31529 0.02057,-0.0206 0.05399,-0.0206 0.07585,0 l 0.375375,0.37666 c 0.02057,0.0206 0.02057,0.054 0,0.0759 z"
         id="path6-5-97"
         style="fill:#eff0f1;fill-opacity:1;stroke-width:0.00128553;image-rendering:optimizeQuality;shape-rendering:geometricPrecision;text-rendering:geometricPrecision"
         sodipodi:nodetypes="ccsccccccc" />
    </g>
  </g>
</svg>
