<?xml version="1.0" encoding="UTF-8" standalone="no"?>
<svg
   sodipodi:docname="update.svg"
   inkscape:version="1.2 (dc2aedaf03, 2022-05-15)"
   id="svg846"
   version="1.1"
   viewBox="0 0 5.8208332 5.8208335"
   height="22"
   width="22"
   xmlns:inkscape="http://www.inkscape.org/namespaces/inkscape"
   xmlns:sodipodi="http://sodipodi.sourceforge.net/DTD/sodipodi-0.dtd"
   xmlns="http://www.w3.org/2000/svg"
   xmlns:svg="http://www.w3.org/2000/svg"
   xmlns:rdf="http://www.w3.org/1999/02/22-rdf-syntax-ns#"
   xmlns:cc="http://creativecommons.org/ns#"
   xmlns:dc="http://purl.org/dc/elements/1.1/">
  <defs
     id="defs840" />
  <sodipodi:namedview
     inkscape:document-rotation="0"
     inkscape:snap-midpoints="true"
     inkscape:object-paths="true"
     inkscape:snap-intersection-paths="true"
     inkscape:snap-smooth-nodes="true"
     inkscape:window-maximized="1"
     inkscape:window-y="0"
     inkscape:window-x="0"
     inkscape:window-height="1000"
     inkscape:window-width="1920"
     units="px"
     showgrid="true"
     inkscape:current-layer="layer1"
     inkscape:document-units="px"
     inkscape:cy="30.493978"
     inkscape:cx="62.048615"
     inkscape:zoom="5.6568547"
     inkscape:pageshadow="2"
     inkscape:pageopacity="0.0"
     borderopacity="1"
     bordercolor="#000000"
     pagecolor="#ffffff"
     id="base"
     inkscape:lockguides="false"
     showguides="false"
     inkscape:showpageshadow="false"
     inkscape:pagecheckerboard="0"
     inkscape:deskcolor="#d1d1d1">
    <inkscape:grid
       type="xygrid"
       id="grid906"
       originx="0"
       originy="5.820862" />
  </sodipodi:namedview>
  <metadata
     id="metadata843">
    <rdf:RDF>
      <cc:Work
         rdf:about="">
        <dc:format>image/svg+xml</dc:format>
        <dc:type
           rdf:resource="http://purl.org/dc/dcmitype/StillImage" />
      </cc:Work>
    </rdf:RDF>
  </metadata>
  <style
     type="text/css"
     id="current-color-scheme" />
  <g
     transform="translate(0,-291.17914)"
     id="layer1"
     inkscape:groupmode="layer"
     inkscape:label="Layer 1">
    <g
       id="22-22-update-low">
      <rect
         style="opacity:0.003;fill:#000000;fill-opacity:1;stroke:none;stroke-width:0.10795;stroke-miterlimit:4;stroke-dasharray:none;stroke-opacity:1"
         id="rect1396-3-2"
         width="5.8208332"
         height="5.8208332"
         x="17.4625"
         y="291.17914"
         ry="1.2988288e-06" />
      <path
         d="m 21.034352,294.08956 c 0,0.36538 -0.296082,0.66146 -0.661446,0.66146 -0.365365,0 -0.661451,-0.29608 -0.661451,-0.66146 0,-0.3654 0.296086,-0.66146 0.661451,-0.66146 0.365364,0 0.661446,0.29606 0.661446,0.66146 z"
         id="path4-3-5-0-2"
         style="fill:#009bfa;fill-opacity:1;stroke-width:0.00364634" />
      <path
         d="m 21.524116,292.23747 c 0.409941,0 0.700881,0.31744 0.700881,0.72734 v 2.24896 c 0,0.40999 -0.317398,0.72787 -0.72734,0.72787 H 19.24817 c -0.409942,0 -0.72734,-0.31788 -0.72734,-0.72787 v -2.24896 c 0,-0.4099 0.317398,-0.72734 0.72734,-0.72734 h 2.275946 m 0.02636,-0.26458 h -2.355118 c -0.515777,0 -0.939108,0.42347 -0.939108,0.93907 v 2.35468 c 0,0.51623 0.423331,0.93958 0.939108,0.93958 h 2.354684 c 0.516208,0 0.939541,-0.42335 0.939541,-0.93901 v -2.35525 c 0,-0.5156 -0.423333,-0.93907 -0.939107,-0.93907 z"
         id="path4-36-9-7"
         style="clip-rule:evenodd;fill:#eff0f1;fill-opacity:1;fill-rule:evenodd;stroke-width:0.00432006;stroke-linejoin:round;stroke-miterlimit:1.41421"
         sodipodi:nodetypes="cssssssscsssssssss" />
      <path
         class="fil0"
         d="m 19.591054,296.04143 0.412044,-0.37538 c 0.02399,-0.0206 0.06068,-0.0206 0.08326,0 0.02258,0.0206 0.02258,0.3094 0,0.33126 l -0.371122,0.0827 0.371122,0.0667 c 0.02258,0.0206 0.02258,0.32664 0,0.34722 -0.02258,0.0206 -0.05927,0.0206 -0.08326,0 l -0.412044,-0.37665 c -0.02258,-0.0206 -0.02258,-0.054 0,-0.0759 z"
         id="path6-36-0"
         style="fill:#eff0f1;fill-opacity:1;stroke-width:0.00134685;image-rendering:optimizeQuality;shape-rendering:geometricPrecision;text-rendering:geometricPrecision"
         sodipodi:nodetypes="ccsccccccc" />
      <path
         class="fil0"
         d="m 21.14973,292.14971 -0.412045,0.37537 c -0.02399,0.0206 -0.06068,0.0206 -0.08326,0 -0.02258,-0.0206 -0.02258,-0.34133 0,-0.36319 l 0.371123,-0.0507 -0.371123,-0.0986 c -0.02258,-0.0206 -0.02258,-0.2947 0,-0.31529 0.02258,-0.0206 0.05927,-0.0206 0.08326,0 l 0.412045,0.37666 c 0.02258,0.0206 0.02258,0.054 0,0.0759 z"
         id="path6-5-0-9"
         style="fill:#eff0f1;fill-opacity:1;stroke-width:0.00134685;image-rendering:optimizeQuality;shape-rendering:geometricPrecision;text-rendering:geometricPrecision"
         sodipodi:nodetypes="ccsccccccc" />
    </g>
    <g
       id="update-high">
      <rect
         style="opacity:0.003;fill:#000000;fill-opacity:1;stroke:none;stroke-width:0.157018;stroke-miterlimit:4;stroke-dasharray:none;stroke-opacity:1"
         id="rect1396-6-9"
         width="8.4666672"
         height="8.46667"
         x="8.4666672"
         y="296.99997"
         ry="1.8892064e-06" />
      <path
         d="m 13.626051,301.24649 c 0,0.50424 -0.4086,0.91283 -0.91281,0.91283 -0.504213,0 -0.912818,-0.40859 -0.912818,-0.91283 0,-0.50421 0.408605,-0.9128 0.912818,-0.9128 0.50421,0 0.91281,0.40859 0.91281,0.9128 z"
         id="path4-3-5-36"
         style="fill:#ff527c;fill-opacity:1;stroke-width:0.00503204" />
      <path
         d="m 14.46648,298.32292 c 0.614929,0 1.143937,0.52903 1.143937,1.14393 v 3.53196 c 0,0.61498 -0.529008,1.14494 -1.143937,1.14494 h -3.532773 c -0.61493,0 -1.1441237,-0.52987 -1.1441236,-1.14485 l 1e-7,-3.53205 c 0,-0.6149 0.5291935,-1.14393 1.1441235,-1.14393 h 3.532773 m 0,-0.26465 h -3.532773 c -0.773686,0 -1.4087064,0.63511 -1.4087064,1.40858 v 3.53205 c 0,0.77435 0.6350204,1.40937 1.4087064,1.40937 h 3.532124 c 0.774332,0 1.409169,-0.63502 1.409169,-1.40854 v -3.53288 c 0,-0.77347 -0.634837,-1.40858 -1.40852,-1.40858 z"
         id="path4-36-7"
         style="clip-rule:evenodd;fill:#eff0f1;fill-opacity:1;fill-rule:evenodd;stroke-width:0.00648019;stroke-linejoin:round;stroke-miterlimit:1.41421"
         sodipodi:nodetypes="cssssssscsssssssss" />
      <path
         class="fil0"
         d="m 11.384277,304.20942 0.622238,-0.62224 c 0.03623,-0.0341 0.09163,-0.0341 0.125726,0 0.03409,0.0341 0.03409,0.51287 0,0.5491 l -0.56044,0.13707 0.56044,0.11058 c 0.03409,0.0341 0.03409,0.54146 0,0.57558 -0.0341,0.0341 -0.0895,0.0341 -0.125726,0 l -0.622238,-0.62436 c -0.0341,-0.0341 -0.0341,-0.0895 0,-0.12573 z"
         id="path6-53"
         style="fill:#eff0f1;fill-opacity:1;stroke-width:0.00213096;image-rendering:optimizeQuality;shape-rendering:geometricPrecision;text-rendering:geometricPrecision"
         sodipodi:nodetypes="ccsccccccc" />
      <path
         class="fil0"
         d="m 13.985203,298.30477 -0.622238,0.62224 c -0.03623,0.0341 -0.09163,0.0341 -0.125726,0 -0.0341,-0.0341 -0.0341,-0.56581 0,-0.60204 l 0.56044,-0.0841 -0.56044,-0.16352 c -0.0341,-0.0341 -0.0341,-0.48852 0,-0.52264 0.03409,-0.0341 0.0895,-0.0341 0.125726,0 l 0.622238,0.62436 c 0.0341,0.0341 0.0341,0.0895 0,0.12573 z"
         id="path6-5-56"
         style="fill:#eff0f1;fill-opacity:1;stroke-width:0.00213096;image-rendering:optimizeQuality;shape-rendering:geometricPrecision;text-rendering:geometricPrecision"
         sodipodi:nodetypes="ccsccccccc" />
    </g>
    <g
       id="update-low">
      <rect
         style="opacity:0.003;fill:#000000;fill-opacity:1;stroke:none;stroke-width:0.157018;stroke-miterlimit:4;stroke-dasharray:none;stroke-opacity:1"
         id="rect1396-6-9-1"
         width="8.4666672"
         height="8.46667"
         x="25.4"
         y="296.99997"
         ry="1.8892064e-06" />
      <path
         d="m 30.559378,301.24649 c 0,0.50424 -0.4086,0.91283 -0.91281,0.91283 -0.504213,0 -0.912818,-0.40859 -0.912818,-0.91283 0,-0.50421 0.408605,-0.9128 0.912818,-0.9128 0.50421,0 0.91281,0.40859 0.91281,0.9128 z"
         id="path4-3-5-3"
         style="fill:#009bfa;fill-opacity:1;stroke-width:0.00503204" />
      <path
         d="m 31.399807,298.32292 c 0.614929,0 1.143943,0.52903 1.143943,1.14393 v 3.53205 c 0,0.61498 -0.529014,1.14485 -1.143943,1.14485 h -3.532773 c -0.61493,0 -1.144117,-0.52987 -1.144117,-1.14485 l -4e-6,-3.53205 c -10e-7,-0.6149 0.529187,-1.14393 1.144117,-1.14393 h 3.532773 m 0,-0.26465 H 27.86703 c -0.773686,0 -1.408701,0.63511 -1.408701,1.40858 v 3.53205 c 0,0.77435 0.635015,1.40937 1.408701,1.40937 h 3.532124 c 0.774333,0 1.409179,-0.63502 1.409179,-1.40854 v -3.53288 c 0,-0.77347 -0.634846,-1.40858 -1.40853,-1.40858 z"
         id="path4-36-6"
         style="clip-rule:evenodd;fill:#eff0f1;fill-opacity:1;fill-rule:evenodd;stroke-width:0.00648019;stroke-linejoin:round;stroke-miterlimit:1.41421"
         sodipodi:nodetypes="cssssssscsssssssss" />
      <path
         class="fil0"
         d="m 28.317604,304.20942 0.622238,-0.62224 c 0.03623,-0.0341 0.09163,-0.0341 0.125726,0 0.0341,0.0341 0.0341,0.51287 0,0.5491 l -0.56044,0.13707 0.56044,0.11058 c 0.0341,0.0341 0.0341,0.54146 0,0.57558 -0.0341,0.0341 -0.0895,0.0341 -0.125726,0 l -0.622238,-0.62436 c -0.0341,-0.0341 -0.0341,-0.0895 0,-0.12573 z"
         id="path6-7"
         style="fill:#eff0f1;fill-opacity:1;stroke-width:0.00213096;image-rendering:optimizeQuality;shape-rendering:geometricPrecision;text-rendering:geometricPrecision"
         sodipodi:nodetypes="ccsccccccc" />
      <path
         class="fil0"
         d="m 30.91853,298.30477 -0.622237,0.62224 c -0.03623,0.0341 -0.09163,0.0341 -0.125727,0 -0.0341,-0.0341 -0.0341,-0.56581 0,-0.60204 l 0.560441,-0.0841 -0.560441,-0.16352 c -0.0341,-0.0341 -0.0341,-0.48852 0,-0.52264 0.0341,-0.0341 0.0895,-0.0341 0.125727,0 l 0.622237,0.62436 c 0.0341,0.0341 0.0341,0.0895 0,0.12573 z"
         id="path6-5-5"
         style="fill:#eff0f1;fill-opacity:1;stroke-width:0.00213096;image-rendering:optimizeQuality;shape-rendering:geometricPrecision;text-rendering:geometricPrecision"
         sodipodi:nodetypes="ccsccccccc" />
    </g>
    <g
       id="update-medium">
      <rect
         style="opacity:0.003;fill:#000000;fill-opacity:1;stroke:none;stroke-width:0.157018;stroke-miterlimit:4;stroke-dasharray:none;stroke-opacity:1"
         id="rect1396-6-9-5"
         width="8.4666672"
         height="8.46667"
         x="16.933332"
         y="296.99997"
         ry="1.8892064e-06" />
      <path
         d="m 22.09271,301.24649 c 0,0.50424 -0.4086,0.91283 -0.91281,0.91283 -0.504213,0 -0.912818,-0.40859 -0.912818,-0.91283 0,-0.50421 0.408605,-0.9128 0.912818,-0.9128 0.50421,0 0.91281,0.40859 0.91281,0.9128 z"
         id="path4-3-5-367"
         style="fill:#ff7f2a;fill-opacity:1;stroke-width:0.00503204" />
      <path
         d="m 22.933139,298.32292 c 0.614929,0 1.143944,0.52903 1.143944,1.14393 v 3.53205 c 0,0.61498 -0.529015,1.14485 -1.143944,1.14485 h -3.532773 c -0.614959,0 -1.144117,-0.52914 -1.144116,-1.14483 l 5e-6,-3.53205 c 1e-6,-0.6149 0.529186,-1.14393 1.144116,-1.14393 h 3.532773 m 0,-0.26465 h -3.532773 c -0.773685,0 -1.408701,0.63511 -1.408701,1.40858 v 3.53205 c 0,0.77435 0.635016,1.40937 1.408701,1.40937 h 3.532124 c 0.774333,0 1.409172,-0.63502 1.409172,-1.40854 v -3.53288 c 0,-0.77347 -0.634839,-1.40858 -1.408523,-1.40858 z"
         id="path4-36-5"
         style="clip-rule:evenodd;fill:#eff0f1;fill-opacity:1;fill-rule:evenodd;stroke-width:0.00648019;stroke-linejoin:round;stroke-miterlimit:1.41421"
         sodipodi:nodetypes="cssssssscsssssssss" />
      <path
         class="fil0"
         d="m 19.850936,304.20942 0.622238,-0.62224 c 0.03623,-0.0341 0.09163,-0.0341 0.125726,0 0.0341,0.0341 0.0341,0.51287 0,0.5491 l -0.56044,0.13707 0.56044,0.11058 c 0.0341,0.0341 0.0341,0.54146 0,0.57558 -0.03409,0.0341 -0.0895,0.0341 -0.125726,0 l -0.622238,-0.62436 c -0.03409,-0.0341 -0.03409,-0.0895 0,-0.12573 z"
         id="path6-3"
         style="fill:#eff0f1;fill-opacity:1;stroke-width:0.00213096;image-rendering:optimizeQuality;shape-rendering:geometricPrecision;text-rendering:geometricPrecision"
         sodipodi:nodetypes="ccsccccccc" />
      <path
         class="fil0"
         d="m 22.451862,298.30477 -0.622237,0.62224 c -0.03623,0.0341 -0.09163,0.0341 -0.125727,0 -0.03409,-0.0341 -0.03409,-0.56581 0,-0.60204 l 0.560441,-0.0841 -0.560441,-0.16352 c -0.03409,-0.0341 -0.03409,-0.48852 0,-0.52264 0.0341,-0.0341 0.0895,-0.0341 0.125727,0 l 0.622237,0.62436 c 0.0341,0.0341 0.0341,0.0895 0,0.12573 z"
         id="path6-5-562"
         style="fill:#eff0f1;fill-opacity:1;stroke-width:0.00213096;image-rendering:optimizeQuality;shape-rendering:geometricPrecision;text-rendering:geometricPrecision"
         sodipodi:nodetypes="ccsccccccc" />
    </g>
    <g
       id="22-22-update-high">
      <rect
         style="opacity:0.003;fill:#000000;fill-opacity:1;stroke:none;stroke-width:0.10795;stroke-miterlimit:4;stroke-dasharray:none;stroke-opacity:1"
         id="rect1396-3"
         width="5.8208332"
         height="5.8208332"
         x="5.8208332"
         y="291.17914"
         ry="1.2988288e-06" />
      <path
         d="m 9.3927128,294.08956 c 0,0.36538 -0.2960822,0.66146 -0.6614457,0.66146 -0.3653655,0 -0.6614512,-0.29608 -0.6614512,-0.66146 0,-0.3654 0.2960857,-0.66146 0.6614512,-0.66146 0.3653635,0 0.6614457,0.29606 0.6614457,0.66146 z"
         id="path4-3-5-0-3"
         style="fill:#ff4c78;fill-opacity:1;stroke-width:0.00364634" />
      <path
         d="m 9.8824766,292.23747 c 0.4099414,0 0.7008814,0.31744 0.7008814,0.72734 v 2.24896 c 0,0.40999 -0.317398,0.72787 -0.7273404,0.72787 H 7.6065305 c -0.4099415,0 -0.7273396,-0.31788 -0.7273396,-0.72787 v -2.24896 c 0,-0.4099 0.3173981,-0.72734 0.7273396,-0.72734 h 2.2759461 m 0.02636,-0.26458 H 7.5537152 c -0.5157763,0 -0.9391076,0.42347 -0.9391076,0.93907 v 2.35468 c 0,0.51623 0.4233313,0.93958 0.9391076,0.93958 h 2.3546844 c 0.5162084,0 0.9395414,-0.42335 0.9395414,-0.93901 v -2.35525 c 0,-0.5156 -0.423333,-0.93907 -0.9391074,-0.93907 z"
         id="path4-36-9-6"
         style="clip-rule:evenodd;fill:#eff0f1;fill-opacity:1;fill-rule:evenodd;stroke-width:0.00432006;stroke-linejoin:round;stroke-miterlimit:1.41421"
         sodipodi:nodetypes="cssssssscsssssssss" />
      <path
         class="fil0"
         d="m 7.9494147,296.06789 0.4120441,-0.37538 c 0.023988,-0.0206 0.060679,-0.0206 0.083256,0 0.022578,0.0206 0.022578,0.3094 0,0.33126 l -0.3711221,0.0827 0.3711221,0.0667 c 0.022578,0.0206 0.022578,0.32664 0,0.34722 -0.022578,0.0206 -0.059266,0.0206 -0.083256,0 l -0.4120441,-0.37665 c -0.022578,-0.0206 -0.022578,-0.054 0,-0.0759 z"
         id="path6-36-7"
         style="fill:#eff0f1;fill-opacity:1;stroke-width:0.00134685;image-rendering:optimizeQuality;shape-rendering:geometricPrecision;text-rendering:geometricPrecision"
         sodipodi:nodetypes="ccsccccccc" />
      <path
         class="fil0"
         d="m 9.5080906,292.17617 -0.4120446,0.37537 c -0.023988,0.0206 -0.060679,0.0206 -0.083255,0 -0.022578,-0.0206 -0.022578,-0.34133 0,-0.36319 l 0.3711225,-0.0507 -0.3711225,-0.0986 c -0.022578,-0.0206 -0.022578,-0.2947 0,-0.31529 0.022578,-0.0206 0.059266,-0.0206 0.083255,0 l 0.4120446,0.37666 c 0.02258,0.0206 0.02258,0.054 0,0.0759 z"
         id="path6-5-0-5"
         style="fill:#eff0f1;fill-opacity:1;stroke-width:0.00134685;image-rendering:optimizeQuality;shape-rendering:geometricPrecision;text-rendering:geometricPrecision"
         sodipodi:nodetypes="ccsccccccc" />
    </g>
    <g
       id="22-22-update-medium">
      <rect
         style="opacity:0.003;fill:#000000;fill-opacity:1;stroke:none;stroke-width:0.10795;stroke-miterlimit:4;stroke-dasharray:none;stroke-opacity:1"
         id="rect1396-3-1"
         width="5.8208332"
         height="5.8208332"
         x="11.641666"
         y="291.17914"
         ry="1.2988288e-06" />
      <path
         d="m 15.213546,294.08956 c 0,0.36538 -0.296082,0.66146 -0.661446,0.66146 -0.365365,0 -0.661451,-0.29608 -0.661451,-0.66146 0,-0.3654 0.296086,-0.66146 0.661451,-0.66146 0.365364,0 0.661446,0.29606 0.661446,0.66146 z"
         id="path4-3-5-0-35"
         style="fill:#ff7f2a;fill-opacity:1;stroke-width:0.00364634" />
      <path
         d="m 15.70331,292.23747 c 0.409941,0 0.700881,0.31744 0.700881,0.72734 v 2.24896 c 0,0.40999 -0.317398,0.72787 -0.72734,0.72787 h -2.249487 c -0.409942,0 -0.72734,-0.31788 -0.72734,-0.72787 v -2.24896 c 0,-0.4099 0.317398,-0.72734 0.72734,-0.72734 h 2.275946 m 0.02636,-0.26458 h -2.355118 c -0.515777,0 -0.939108,0.42347 -0.939108,0.93907 v 2.35468 c 0,0.51623 0.423331,0.93958 0.939108,0.93958 h 2.354684 c 0.516208,0 0.939541,-0.42335 0.939541,-0.93901 v -2.35525 c 0,-0.5156 -0.423333,-0.93907 -0.939107,-0.93907 z"
         id="path4-36-9-62"
         style="clip-rule:evenodd;fill:#eff0f1;fill-opacity:1;fill-rule:evenodd;stroke-width:0.00432006;stroke-linejoin:round;stroke-miterlimit:1.41421"
         sodipodi:nodetypes="cssssssscsssssssss" />
      <path
         class="fil0"
         d="m 13.770248,296.04143 0.412044,-0.37538 c 0.02399,-0.0206 0.06068,-0.0206 0.08326,0 0.02258,0.0206 0.02258,0.3094 0,0.33126 l -0.371122,0.0827 0.371122,0.0667 c 0.02258,0.0206 0.02258,0.32664 0,0.34722 -0.02258,0.0206 -0.05927,0.0206 -0.08326,0 l -0.412044,-0.37665 c -0.02258,-0.0206 -0.02258,-0.054 0,-0.0759 z"
         id="path6-36-9"
         style="fill:#eff0f1;fill-opacity:1;stroke-width:0.00134685;image-rendering:optimizeQuality;shape-rendering:geometricPrecision;text-rendering:geometricPrecision"
         sodipodi:nodetypes="ccsccccccc" />
      <path
         class="fil0"
         d="m 15.328924,292.14971 -0.412045,0.37537 c -0.02399,0.0206 -0.06068,0.0206 -0.08326,0 -0.02258,-0.0206 -0.02258,-0.34133 0,-0.36319 l 0.371123,-0.0507 -0.371123,-0.0986 c -0.02258,-0.0206 -0.02258,-0.2947 0,-0.31529 0.02258,-0.0206 0.05927,-0.0206 0.08326,0 l 0.412045,0.37666 c 0.02258,0.0206 0.02258,0.054 0,0.0759 z"
         id="path6-5-0-1"
         style="fill:#eff0f1;fill-opacity:1;stroke-width:0.00134685;image-rendering:optimizeQuality;shape-rendering:geometricPrecision;text-rendering:geometricPrecision"
         sodipodi:nodetypes="ccsccccccc" />
    </g>
    <g
       id="update-none">
      <rect
         style="opacity:0.003;fill:#000000;fill-opacity:1;stroke:none;stroke-width:0.157018;stroke-miterlimit:4;stroke-dasharray:none;stroke-opacity:1"
         id="rect1396-6"
         width="8.4666672"
         height="8.46667"
         x="-1.0583333"
         y="298.01904"
         ry="1.8892064e-06" />
      <path
         d="m 4.1010448,302.26558 c 0,0.50424 -0.4086,0.91283 -0.91281,0.91283 -0.504213,0 -0.912818,-0.40859 -0.912818,-0.91283 0,-0.50421 0.408605,-0.9128 0.912818,-0.9128 0.50421,0 0.91281,0.40859 0.91281,0.9128 z"
         id="path4-3-5"
         style="fill:#eff0f1;fill-opacity:1;stroke-width:0.00503204" />
      <path
         class="fil0"
         d="m 1.859271,305.22851 0.6222378,-0.62224 c 0.036226,-0.0341 0.091631,-0.0341 0.1257261,0 0.034095,0.0341 0.034095,0.51287 0,0.5491 l -0.5604402,0.13707 0.5604402,0.11058 c 0.034095,0.0341 0.034095,0.54146 0,0.57558 -0.034095,0.0341 -0.0895,0.0341 -0.1257261,0 L 1.859271,305.35424 c -0.034095,-0.0341 -0.034095,-0.0895 0,-0.12573 z"
         id="path6"
         style="fill:#eff0f1;fill-opacity:1;stroke-width:0.00213096;image-rendering:optimizeQuality;shape-rendering:geometricPrecision;text-rendering:geometricPrecision"
         sodipodi:nodetypes="ccsccccccc" />
      <path
         class="fil0"
         d="m 4.4601971,299.29737 -0.6222378,0.62224 c -0.036226,0.0341 -0.091631,0.0341 -0.1257261,0 -0.034095,-0.0341 -0.034095,-0.56581 0,-0.60204 l 0.5604402,-0.0841 -0.5604402,-0.16352 c -0.034095,-0.0341 -0.034095,-0.48852 0,-0.52264 0.034095,-0.0341 0.0895,-0.0341 0.1257261,0 l 0.6222378,0.62436 c 0.034095,0.0341 0.034095,0.0895 0,0.12573 z"
         id="path6-5"
         style="fill:#eff0f1;fill-opacity:1;stroke-width:0.00213096;image-rendering:optimizeQuality;shape-rendering:geometricPrecision;text-rendering:geometricPrecision"
         sodipodi:nodetypes="ccsccccccc" />
      <path
         d="m 4.9678169,299.34195 c 0.61491,0 1.1176,0.50268 1.1176,1.1176 v 3.5585 c 0,0.61491 -0.582065,1.14473 -1.196975,1.14473 h -3.453342 c -0.614911,0 -1.170516,-0.52982 -1.170516,-1.14473 v -3.5585 c 0,-0.61492 0.502688,-1.1176 1.1176,-1.1176 h 3.380316 m 0.205317,-0.26459 H 1.3821839 C 0.5026889,299.07736 0,299.60653 0,300.48603 v 3.61127 c 0,0.77431 0.6349999,1.33006 1.4086619,1.33006 h 3.532028 c 0.77431,0 1.40931,-0.58206 1.40931,-1.35572 v -3.58561 c 0,-0.8795 -0.502689,-1.40867 -1.382183,-1.40867 z"
         id="path4"
         style="clip-rule:evenodd;fill:#eff0f1;fill-opacity:1;fill-rule:evenodd;stroke-width:0.00647999;stroke-linejoin:round;stroke-miterlimit:1.41421"
         sodipodi:nodetypes="cssssssscsssssssss" />
    </g>
    <g
       id="22-22-update-none">
      <rect
         style="opacity:0.003;fill:#000000;fill-opacity:1;stroke:none;stroke-width:0.10795;stroke-miterlimit:4;stroke-dasharray:none;stroke-opacity:1"
         id="rect1396"
         width="5.8208332"
         height="5.8208332"
         x="0"
         y="291.17914"
         ry="1.2988289e-06" />
      <path
         d="m 3.5718552,294.08956 c 0,0.36538 -0.2960822,0.66146 -0.6614457,0.66146 -0.3653655,0 -0.6614512,-0.29608 -0.6614512,-0.66146 0,-0.3654 0.2960857,-0.66146 0.6614512,-0.66146 0.3653635,0 0.6614457,0.29606 0.6614457,0.66146 z"
         id="path4-3-5-0"
         style="fill:#eff0f1;fill-opacity:1;stroke-width:0.00364634" />
      <path
         class="fil0"
         d="m 2.1285571,296.04143 0.4120441,-0.37538 c 0.023988,-0.0206 0.060679,-0.0206 0.083256,0 0.022578,0.0206 0.022578,0.3094 0,0.33126 l -0.3711221,0.0827 0.3711221,0.0667 c 0.022578,0.0206 0.022578,0.32664 0,0.34722 -0.022578,0.0206 -0.059266,0.0206 -0.083256,0 l -0.4120441,-0.37665 c -0.022578,-0.0206 -0.022578,-0.054 0,-0.0759 z"
         id="path6-36"
         style="fill:#eff0f1;fill-opacity:1;stroke-width:0.00134685;image-rendering:optimizeQuality;shape-rendering:geometricPrecision;text-rendering:geometricPrecision"
         sodipodi:nodetypes="ccsccccccc" />
      <path
         class="fil0"
         d="m 3.6872332,292.14971 -0.4120448,0.37537 c -0.023988,0.0206 -0.060679,0.0206 -0.083255,0 -0.022578,-0.0206 -0.022578,-0.34133 0,-0.36319 l 0.3711225,-0.0507 -0.3711225,-0.0986 c -0.022578,-0.0206 -0.022578,-0.2947 0,-0.31529 0.022578,-0.0206 0.059266,-0.0206 0.083255,0 l 0.4120448,0.37666 c 0.022578,0.0206 0.022578,0.054 0,0.0759 z"
         id="path6-5-0"
         style="fill:#eff0f1;fill-opacity:1;stroke-width:0.00134685;image-rendering:optimizeQuality;shape-rendering:geometricPrecision;text-rendering:geometricPrecision"
         sodipodi:nodetypes="ccsccccccc" />
      <path
         d="m 4.0879765,292.23747 c 0.3096586,0 0.6745237,0.26459 0.6745237,0.64518 v 2.2811 c 0,0.39758 -0.3388513,0.77789 -0.6479645,0.77789 H 1.7062982 c -0.3031509,0 -0.6479646,-0.37881 -0.6479646,-0.77789 v -2.2811 c 0,-0.38059 0.3640813,-0.64518 0.6745244,-0.64518 h 2.3551185 m 0,-0.26458 H 1.732858 c -0.5157744,0 -0.939108,0.4101 -0.939108,0.90976 v 2.41341 c 0,0.50007 0.4233336,0.91016 0.939108,0.91016 h 2.3546854 c 0.5162068,0 0.9395402,-0.41051 0.9395402,-0.91016 v -2.41341 c 0,-0.49966 -0.4233334,-0.90976 -0.9391071,-0.90976 z"
         id="path4-9"
         style="clip-rule:evenodd;fill:#eff0f1;fill-opacity:1;fill-rule:evenodd;stroke-width:0.00425199;stroke-linejoin:round;stroke-miterlimit:1.41421"
         sodipodi:nodetypes="cssssssscsssssssss" />
    </g>
  </g>
</svg>
