<?xml version="1.0" encoding="UTF-8" standalone="no"?>
<svg
   width="32"
   height="32"
   version="1"
   id="svg12"
   sodipodi:docname="utilities.svg"
   inkscape:version="1.2.1 (9c6d41e410, 2022-07-14)"
   xmlns:inkscape="http://www.inkscape.org/namespaces/inkscape"
   xmlns:sodipodi="http://sodipodi.sourceforge.net/DTD/sodipodi-0.dtd"
   xmlns="http://www.w3.org/2000/svg"
   xmlns:svg="http://www.w3.org/2000/svg"
   xmlns:rdf="http://www.w3.org/1999/02/22-rdf-syntax-ns#"
   xmlns:cc="http://creativecommons.org/ns#"
   xmlns:dc="http://purl.org/dc/elements/1.1/">
  <metadata
     id="metadata18">
    <rdf:RDF>
      <cc:Work
         rdf:about="">
        <dc:format>image/svg+xml</dc:format>
        <dc:type
           rdf:resource="http://purl.org/dc/dcmitype/StillImage" />
      </cc:Work>
    </rdf:RDF>
  </metadata>
  <defs
     id="defs16" />
  <sodipodi:namedview
     pagecolor="#ffffff"
     bordercolor="#000000"
     borderopacity="1"
     objecttolerance="10"
     gridtolerance="10"
     guidetolerance="10"
     inkscape:pageopacity="0"
     inkscape:pageshadow="2"
     inkscape:window-width="1920"
     inkscape:window-height="1002"
     id="namedview14"
     showgrid="false"
     inkscape:zoom="11.313709"
     inkscape:cx="30.273008"
     inkscape:cy="19.754795"
     inkscape:window-x="0"
     inkscape:window-y="0"
     inkscape:window-maximized="1"
     inkscape:current-layer="svg12"
     inkscape:document-rotation="0"
     inkscape:lockguides="false"
     inkscape:pagecheckerboard="0"
     inkscape:showpageshadow="2"
     inkscape:deskcolor="#cccccc">
    <inkscape:grid
       type="xygrid"
       id="grid852"
       originx="-1e-06"
       originy="0" />
  </sodipodi:namedview>
  <g
     id="utilities-terminal">
    <rect
       style="opacity:0.00100002;fill:#d1d5e9;fill-opacity:1"
       width="32"
       height="32"
       x="0"
       y="0"
       id="rect7" />
    <path
       d="m 9.32404,26.875924 c -2.324039,0 -4.2,-1.875924 -4.2,-4.200004 V 9.326524 c 0,-2.324049 1.875962,-1.700224 4.2,-1.700224 h 13.351919 c 2.32404,0 4.2,-0.623826 4.2,1.700224 V 22.67592 c 0,2.32408 -1.87596,4.200004 -4.2,4.200004 H 9.32404 m 0,1.124076 h 13.351919 c 2.92404,0 5.32404,-2.4 5.32404,-5.324081 V 9.326522 C 27.999999,6.400001 25.599999,4 22.675959,4 H 9.32651 C 6.400001,4 4.000001,6.400001 4.000001,9.324053 V 22.675919 C 4.000001,25.6 6.4,28 9.32404,28 Z"
       id="path4-3-3"
       style="clip-rule:evenodd;fill:#eff0f1;fill-opacity:1;fill-rule:evenodd;stroke-width:0.0244919;stroke-linejoin:round;stroke-miterlimit:1.41421"
       sodipodi:nodetypes="cssssssscsssssssss" />
    <path
       d="m 10.040373,23.902395 c -0.1301405,0.13014 -0.3411705,0.13014 -0.4714305,0 l -0.47142,-0.47142 c -0.13003,-0.13013 -0.13003,-0.34128 0,-0.47143 l 3.9596905,-3.959694 -3.9596905,-3.9594 c -0.13003,-0.130134 -0.13003,-0.341286 0,-0.471427 l 0.47142,-0.471416 c 0.13025,-0.130144 0.34129,-0.130144 0.4714295,0 l 4.666541,4.666816 c 0.13025,0.130141 0.13025,0.34117 0,0.471428 z"
       fill-rule="evenodd"
       id="path2126"
       style="fill:#eff0f1;fill-opacity:1;stroke-width:0.0285717" />
    <path
       d="m 13.982499,23 h 7.2 c 0.220889,0 0.4,0.138057 0.4,0.25 v 0.5 c 0,0.138057 -0.179111,0.25 -0.4,0.25 h -7.2 c -0.220889,0 -0.4,-0.138057 -0.4,-0.25 v -0.5 c 0,-0.138057 0.179111,-0.25 0.4,-0.25 z"
       id="path2375"
       style="fill:#eff0f1;fill-opacity:1;stroke-width:0.01807" />
  </g>
  <g
     id="22-22-utilities-terminal"
     transform="translate(32,10.000001)">
    <rect
       style="opacity:0.00100002;fill:#d1d5e9;fill-opacity:1"
       width="22"
       height="22"
       x="0"
       y="0"
       id="rect2" />
    <path
       d="m 6.549361,18.250616 c -1.549361,0 -2.8,-1.250616 -2.8,-2.800002 V 6.551012 c 0,-1.549361 1.25064,-1.133482 2.8,-1.133482 h 8.90128 c 1.549357,0 2.8,-0.41588 2.8,1.133482 v 8.899602 c 0,1.549386 -1.250643,2.800002 -2.800002,2.800002 h -8.90128 m 0,0.749384 h 8.90128 c 1.949359,0 3.549359,-1.6 3.549359,-3.549387 V 6.551012 C 18.999998,4.600001 17.399998,3 15.450641,3 H 6.551001 C 4.6,3 3,4.600001 3,6.549363 v 8.90125 C 3,17.4 4.599999,19 6.549359,19 Z"
       id="path4-3-3-3"
       style="clip-rule:evenodd;fill:#eff0f1;fill-opacity:1;fill-rule:evenodd;stroke-width:0.0163278;stroke-linejoin:round;stroke-miterlimit:1.41421"
       sodipodi:nodetypes="cssssssscsssssssss" />
    <path
       d="m 7.02692,16.268264 c -0.0868,0.08676 -0.227455,0.08676 -0.314299,0 L 6.398345,15.953983 c -0.08672,-0.08675 -0.08672,-0.22752 0,-0.314286 L 9.038142,12.999901 6.398345,10.360297 c -0.08672,-0.08678 -0.08672,-0.227525 0,-0.314283 L 6.712621,9.731741 c 0.08684,-0.0868 0.22753,-0.0868 0.314298,0 l 3.111027,3.11121 c 0.08682,0.08676 0.08682,0.227445 0,0.314286 z"
       fill-rule="evenodd"
       id="path2126-6"
       style="fill:#eff0f1;fill-opacity:1;stroke-width:0.0190479" />
    <path
       d="m 9.655,15.666666 h 4.8 c 0.147262,0 0.266668,0.09204 0.266668,0.166668 v 0.333332 c 0,0.09204 -0.119406,0.166668 -0.266668,0.166668 h -4.8 c -0.147259,0 -0.266662,-0.09204 -0.266662,-0.166668 v -0.333332 c 0,-0.09204 0.119403,-0.166668 0.266662,-0.166668 z"
       id="path2375-7"
       style="fill:#eff0f1;fill-opacity:1;stroke-width:0.012046" />
  </g>
</svg>
