<?xml version="1.0" encoding="UTF-8" standalone="no"?>
<svg
   width="32"
   height="32"
   version="1.1"
   id="svg12"
   sodipodi:docname="video.svg"
   inkscape:version="1.1.2 (0a00cf5339, 2022-02-04)"
   xmlns:inkscape="http://www.inkscape.org/namespaces/inkscape"
   xmlns:sodipodi="http://sodipodi.sourceforge.net/DTD/sodipodi-0.dtd"
   xmlns="http://www.w3.org/2000/svg"
   xmlns:svg="http://www.w3.org/2000/svg"
   xmlns:rdf="http://www.w3.org/1999/02/22-rdf-syntax-ns#"
   xmlns:cc="http://creativecommons.org/ns#"
   xmlns:dc="http://purl.org/dc/elements/1.1/">
  <g
     id="22-22-video-display-brightness"
     transform="translate(32,9.9999997)">
    <rect
       style="opacity:0.00100002"
       width="22"
       height="22"
       x="0"
       y="-4.6325681e-08"
       id="rect2" />
    <path
       d="m 13.856634,10.970904 c -0.175984,-0.239645 -0.175984,-0.565092 0,-0.804709 L 14.466655,9.340207 C 14.819356,8.861858 14.432318,8.1943692 13.839844,8.2591685 L 12.817992,8.3700771 C 12.519717,8.4029025 12.234739,8.2385816 12.114921,7.9646917 l -0.41483,-0.9367985 c -0.23992,-0.5430083 -1.013783,-0.5430083 -1.253678,0 L 10.031586,7.9646959 C 9.911111,8.236249 9.627968,8.3989775 9.33151,8.3670505 L 8.3096703,8.2561207 C 7.7171764,8.1913132 7.3301425,8.858806 7.6828476,9.337159 l 0.6100676,0.825984 c 0.1759834,0.239618 0.1759834,0.565061 0,0.804679 l -0.6100676,0.825976 c -0.3527068,0.478345 0.034323,1.145846 0.6268227,1.081041 L 9.33151,12.764052 c 0.296458,-0.03196 0.579611,0.13085 0.700076,0.40237 l 0.414827,0.936801 c 0.239895,0.542996 1.013758,0.542996 1.253678,0 l 0.41483,-0.936828 c 0.120475,-0.271539 0.403571,-0.434263 0.700018,-0.402353 l 1.021851,0.110787 c 0.592491,0.06481 0.979514,-0.602698 0.626812,-1.081041 z m -2.780357,1.355851 c -1.574641,0.0026 -2.366807,-1.890007 -1.254954,-2.999766 1.111886,-1.1097627 3.016499,-0.32606 3.016512,1.241536 8e-6,0.969271 -0.78793,1.755735 -1.761558,1.75823 z M 12.981198,7.8127852 12.502273,7.5379697 13.06967,6.5571533 13.548541,6.831962 Z M 7.7377397,10.257301 v 0.549615 L 6.6,10.797455 v -0.549754 z m 6.6709713,0.637688 0.0083,-0.549661 1.137757,0.01899 -0.0083,0.549637 z M 9.680764,7.5318941 9.198834,7.8021755 8.636071,6.8152498 9.117995,6.5450003 Z M 9.143943,13.289336 9.621287,13.568743 9.044787,14.545 8.568966,14.265636 Z m 3.428533,0.25662 0.472771,-0.285441 0.590239,0.967136 -0.472827,0.285446 z"
       id="path4-367-3"
       style="fill:#009eff;fill-opacity:1;stroke-width:0.152178"
       sodipodi:nodetypes="cccccccccccccccccccccccccsssscccccccccccccccccccccccccccccc" />
    <path
       d="M 14.95,4 C 16.499361,4 18,5.175449 18,6.628 v 7.743 C 18,15.823552 16.599361,17 15.05,17 H 6.949 C 5.399639,17 4,15.823552 4,14.371 V 6.628 C 4,5.175449 5.399639,4 6.949,4 H 14.95 M 15.450387,3 H 6.549325 C 4.599971,3 3,4.500001 3,6.327551 v 8.343371 C 3,16.5 4.599971,18 6.549325,18 h 8.899432 c 1.950984,0 3.550955,-1.5 3.550955,-3.327554 V 6.327551 C 18.999712,4.500001 17.399741,3 15.450387,3 Z"
       id="path4-3-5-6"
       style="clip-rule:evenodd;fill:#eff0f1;fill-opacity:1;fill-rule:evenodd;stroke-width:0.0158078;stroke-linejoin:round;stroke-miterlimit:1.41421"
       sodipodi:nodetypes="cssssssscsssssssss" />
    <rect
       ry="0.58181816"
       rx="0.77575749"
       y="17.836363"
       x="8.9333344"
       height="1.1636363"
       width="4.266665"
       id="rect4209-3-3-7"
       style="fill:#eff0f1;fill-opacity:1;fill-rule:evenodd;stroke:none;stroke-width:0.909673;stroke-linecap:round;stroke-linejoin:round;stroke-miterlimit:4;stroke-dasharray:none;stroke-opacity:1" />
  </g>
  <metadata
     id="metadata18">
    <rdf:RDF>
      <cc:Work
         rdf:about="">
        <dc:format>image/svg+xml</dc:format>
        <dc:type
           rdf:resource="http://purl.org/dc/dcmitype/StillImage" />
      </cc:Work>
    </rdf:RDF>
  </metadata>
  <defs
     id="defs16" />
  <sodipodi:namedview
     pagecolor="#ffffff"
     bordercolor="#000000"
     borderopacity="1"
     objecttolerance="10"
     gridtolerance="10"
     guidetolerance="10"
     inkscape:pageopacity="0"
     inkscape:pageshadow="2"
     inkscape:window-width="1920"
     inkscape:window-height="1009"
     id="namedview14"
     showgrid="false"
     inkscape:zoom="11.313709"
     inkscape:cx="33.808541"
     inkscape:cy="13.965358"
     inkscape:window-x="0"
     inkscape:window-y="0"
     inkscape:window-maximized="1"
     inkscape:current-layer="svg12"
     inkscape:document-rotation="0"
     inkscape:lockguides="false"
     inkscape:showpageshadow="false"
     inkscape:pagecheckerboard="0">
    <inkscape:grid
       type="xygrid"
       id="grid988"
       originx="0"
       originy="-3.3897704e-07" />
  </sodipodi:namedview>
  <g
     id="video-display-brightness">
    <rect
       style="opacity:0.00100002"
       width="32"
       height="32"
       x="0"
       y="1.3897704e-07"
       id="rect7" />
    <path
       d="m 20.236234,15.638857 a 1.0225847,1.0225848 0 0 1 0,-1.207066 l 0.910935,-1.238983 A 1.0225847,1.0225848 0 0 0 20.21116,11.571247 l -1.525917,0.166397 A 1.0225847,1.0225848 0 0 1 17.635356,11.129536 L 17.015899,9.724334 a 1.0225847,1.0225848 0 0 0 -1.872103,0 l -0.619457,1.405202 a 1.0225847,1.0225848 0 0 1 -1.045412,0.603556 l -1.525907,-0.16641 a 1.0225847,1.0225848 0 0 0 -0.936019,1.621559 l 0.911019,1.238975 a 1.0225847,1.0225848 0 0 1 0,1.207018 l -0.911019,1.238965 a 1.0225847,1.0225848 0 0 0 0.936019,1.621559 l 1.525907,-0.166182 a 1.0225847,1.0225848 0 0 1 1.045412,0.603561 l 0.619457,1.4052 a 1.0225847,1.0225848 0 0 0 1.872103,0 l 0.619457,-1.4052 a 1.0225847,1.0225848 0 0 1 1.045329,-0.603561 l 1.525916,0.166182 a 1.0225847,1.0225848 0 0 0 0.936009,-1.621559 z m -4.151871,2.033774 a 2.6373122,2.6373122 0 1 1 2.630512,-2.637344 2.6373122,2.6373122 0 0 1 -2.630512,2.637344 z m 2.844593,-6.770967 -0.715174,-0.412215 0.847287,-1.471215 0.715092,0.412208 z m -7.829989,3.666788 v 0.824421 L 9.4,15.378683 v -0.824631 z m 9.961676,0.956532 0.01234,-0.824493 1.699001,0.0285 -0.01234,0.824449 z M 14.000461,10.480332 13.280802,10.885776 12.440436,9.40537 13.160086,9 Z m -0.801624,8.636173 0.71281,0.419109 L 13.050765,21 12.340234,20.580954 Z m 5.11978,0.384928 0.705982,-0.42816 0.881397,1.450703 -0.706065,0.428167 z"
       id="path4"
       style="fill:#009eff;fill-opacity:1;stroke-width:0.227755" />
    <path
       d="M 22.675916,5 C 25,5 27,6.8750009 27,9.1022457 V 21.895414 c 0,2.227245 -2,4.025 -4.324084,4.025 H 9.3240828 C 7,25.920414 5,24.122659 5,21.895414 V 9.1022457 C 5,6.8750009 7,5 9.3240828,5 H 22.675916 m 0,-1 H 9.3240828 C 6.4,4 4,6.3000008 4,9.1022457 V 21.895414 C 4,24.7 6.4,27 9.3240828,27 H 22.673471 C 25.6,27 28,24.7 28,21.897749 V 9.1022457 C 28,6.3000008 25.6,4 22.675916,4 Z"
       id="path4-3"
       style="clip-rule:evenodd;fill:#eff0f1;fill-opacity:1;fill-rule:evenodd;stroke-width:0.0239741;stroke-linejoin:round;stroke-miterlimit:1.41421"
       sodipodi:nodetypes="cssssssscsssssssss" />
    <rect
       ry="0.87272722"
       rx="1.1636362"
       y="26.254545"
       x="12.9"
       height="1.7454544"
       width="6.3999972"
       id="rect4209-3"
       style="fill:#eff0f1;fill-opacity:1;fill-rule:evenodd;stroke:none;stroke-width:1.36451;stroke-linecap:round;stroke-linejoin:round;stroke-miterlimit:4;stroke-dasharray:none;stroke-opacity:1" />
  </g>
</svg>
