<?xml version="1.0" encoding="UTF-8" standalone="no"?>
<svg
   width="32"
   height="32"
   version="1.1"
   id="svg12"
   sodipodi:docname="video.svg"
   inkscape:version="1.1.2 (0a00cf5339, 2022-02-04)"
   xmlns:inkscape="http://www.inkscape.org/namespaces/inkscape"
   xmlns:sodipodi="http://sodipodi.sourceforge.net/DTD/sodipodi-0.dtd"
   xmlns="http://www.w3.org/2000/svg"
   xmlns:svg="http://www.w3.org/2000/svg"
   xmlns:rdf="http://www.w3.org/1999/02/22-rdf-syntax-ns#"
   xmlns:cc="http://creativecommons.org/ns#"
   xmlns:dc="http://purl.org/dc/elements/1.1/">
  <metadata
     id="metadata18">
    <rdf:RDF>
      <cc:Work
         rdf:about="">
        <dc:format>image/svg+xml</dc:format>
        <dc:type
           rdf:resource="http://purl.org/dc/dcmitype/StillImage" />
      </cc:Work>
    </rdf:RDF>
  </metadata>
  <defs
     id="defs16" />
  <sodipodi:namedview
     pagecolor="#ffffff"
     bordercolor="#000000"
     borderopacity="1"
     objecttolerance="10"
     gridtolerance="10"
     guidetolerance="10"
     inkscape:pageopacity="0"
     inkscape:pageshadow="2"
     inkscape:window-width="1920"
     inkscape:window-height="1011"
     id="namedview14"
     showgrid="false"
     inkscape:zoom="9.8125003"
     inkscape:cx="30.828025"
     inkscape:cy="14.063694"
     inkscape:window-x="0"
     inkscape:window-y="0"
     inkscape:window-maximized="1"
     inkscape:current-layer="svg12"
     inkscape:document-rotation="0"
     inkscape:lockguides="false"
     inkscape:showpageshadow="false"
     inkscape:pagecheckerboard="0">
    <inkscape:grid
       type="xygrid"
       id="grid988"
       originx="0"
       originy="-2.3897704e-07" />
  </sodipodi:namedview>
  <g
     id="video-display-brightness">
    <rect
       style="opacity:0.00100002"
       width="32"
       height="32"
       x="0"
       y="1.3897704e-07"
       id="rect7" />
    <path
       d="m 18.892805,15.763606 a 0.66932821,0.66932822 0 0 1 0,-0.790074 l 0.596254,-0.810965 a 0.66932821,0.66932822 0 0 0 -0.612664,-1.061385 l -0.998781,0.108899 a 0.66932821,0.66932822 0 0 1 -0.687201,-0.398017 l -0.405469,-0.919768 a 0.66932821,0.66932822 0 0 0 -1.22537,0 l -0.405468,0.919768 a 0.66932821,0.66932822 0 0 1 -0.684261,0.39504 l -0.998771,-0.108912 a 0.66932821,0.66932822 0 0 0 -0.612673,1.061383 l 0.596296,0.810957 a 0.66932821,0.66932822 0 0 1 0,0.790068 l -0.596296,0.810946 a 0.66932821,0.66932822 0 0 0 0.612673,1.061385 l 0.998771,-0.108768 a 0.66932821,0.66932822 0 0 1 0.684261,0.395044 l 0.405468,0.919768 a 0.66932821,0.66932822 0 0 0 1.22537,0 l 0.405469,-0.919768 a 0.66932821,0.66932822 0 0 1 0.684218,-0.395044 l 0.99878,0.108768 a 0.66932821,0.66932822 0 0 0 0.612664,-1.061385 z m -2.717584,1.331203 a 1.7262407,1.7262407 0 1 1 1.721786,-1.726256 1.7262407,1.7262407 0 0 1 -1.721786,1.726256 z m 1.861912,-4.431894 -0.468105,-0.269818 0.554577,-0.962983 0.468064,0.269812 z m -5.125079,2.400061 v 0.539629 L 11.8,15.593305 v -0.539756 z m 6.520368,0.626098 0.0082,-0.539659 1.11207,0.01855 -0.0082,0.539638 z m -4.621204,-3.301944 -0.471056,0.265368 -0.55006,-0.96898 0.471047,-0.265337 z m -0.524708,5.652771 0.46657,0.274309 -0.563486,0.958516 -0.465079,-0.274287 z m 3.351122,0.251943 0.462105,-0.280251 0.576913,0.949559 -0.462147,0.280258 z"
       id="path4"
       style="fill:#009eff;fill-opacity:1;stroke-width:0.149074" />
    <path
       d="m 22.675916,5.0627688 c 2.324084,0 4.200001,1.7735956 4.200001,3.9709088 V 21.654922 c 0,2.197313 -1.875917,3.970909 -4.200001,3.970909 H 9.3240828 c -2.3240828,0 -4.2,-1.773596 -4.2,-3.970909 V 9.0336776 c 0,-2.1973132 1.8759172,-3.9709088 4.2,-3.9709088 H 22.675916 M 22.675916,4 H 9.3240828 C 6.4,4 4,6.2690916 4,9.0336776 V 21.654922 c 0,2.766895 2.4,5.035986 5.3240828,5.035986 H 22.673471 C 25.6,26.690908 28,24.421817 28,21.657226 V 9.0336776 C 28,6.2690916 25.6,4 22.675916,4 Z"
       id="path4-3"
       style="clip-rule:evenodd;fill:#eff0f1;fill-opacity:1;fill-rule:evenodd;stroke-width:0.0238124;stroke-linejoin:round;stroke-miterlimit:1.41421" />
    <rect
       ry="0.87272722"
       rx="1.1636362"
       y="26.254545"
       x="12.9"
       height="1.7454544"
       width="6.3999972"
       id="rect4209-3"
       style="fill:#eff0f1;fill-opacity:1;fill-rule:evenodd;stroke:none;stroke-width:1.36451;stroke-linecap:round;stroke-linejoin:round;stroke-miterlimit:4;stroke-dasharray:none;stroke-opacity:1" />
  </g>
  <g
     id="22-22-video-display-brightness"
     transform="translate(32,9.9999998)">
    <path
       d="m 12.928537,10.842404 a 0.44621881,0.44621882 0 0 1 0,-0.526716 l 0.397502,-0.540643 a 0.44621881,0.44621882 0 0 0 -0.408442,-0.70759 l -0.665854,0.0726 A 0.44621881,0.44621882 0 0 1 11.793609,8.87471 L 11.523296,8.261532 a 0.44621881,0.44621882 0 0 0 -0.816913,0 L 10.436071,8.87471 A 0.44621881,0.44621882 0 0 1 9.979897,9.13807 L 9.314049,9.06546 A 0.44621881,0.44621882 0 0 0 8.905601,9.773049 l 0.39753,0.540638 a 0.44621881,0.44621882 0 0 1 0,0.526712 l -0.39753,0.540631 a 0.44621881,0.44621882 0 0 0 0.408448,0.70759 l 0.665848,-0.07251 a 0.44621881,0.44621882 0 0 1 0.456174,0.263362 l 0.270312,0.613179 a 0.44621881,0.44621882 0 0 0 0.816913,0 l 0.270313,-0.613179 a 0.44621881,0.44621882 0 0 1 0.456145,-0.263362 l 0.665853,0.07251 a 0.44621881,0.44621882 0 0 0 0.408443,-0.70759 z m -1.811723,0.887469 a 1.1508272,1.1508272 0 1 1 1.147857,-1.150838 1.1508272,1.1508272 0 0 1 -1.147857,1.150838 z m 1.241275,-2.954596 -0.31207,-0.179879 0.369718,-0.641989 0.312042,0.179875 z m -3.41672,1.60004 V 10.73507 L 8.2,10.72887 v -0.359837 z m 4.346912,0.417399 0.0055,-0.359773 0.74138,0.01237 -0.0055,0.359759 z M 10.207479,8.59142 9.893441,8.768332 9.526735,8.122345 9.840766,7.945454 Z m -0.349806,3.768514 0.311047,0.182873 -0.375657,0.63901 -0.310053,-0.182858 z m 2.234082,0.167962 0.30807,-0.186834 0.384608,0.633039 -0.308098,0.186839 z"
       id="path4-367"
       style="fill:#009eff;fill-opacity:1;stroke-width:0.0993827" />
    <path
       d="m 15.450387,3.702552 c 1.549361,0 2.79995,1.172448 2.79995,2.624999 v 8.343371 c 0,1.452552 -1.250589,2.625001 -2.79995,2.625001 H 6.549325 c -1.549361,0 -2.799949,-1.172449 -2.799949,-2.625001 V 6.327551 c 0,-1.452551 1.250588,-2.624999 2.799949,-2.624999 h 8.901062 M 15.450387,3 H 6.549325 C 4.599971,3 3,4.500001 3,6.327551 v 8.343371 C 3,16.5 4.599971,18 6.549325,18 h 8.899432 c 1.950984,0 3.550955,-1.5 3.550955,-3.327554 V 6.327551 C 18.999712,4.500001 17.399741,3 15.450387,3 Z"
       id="path4-3-5"
       style="clip-rule:evenodd;fill:#eff0f1;fill-opacity:1;fill-rule:evenodd;stroke-width:0.0158078;stroke-linejoin:round;stroke-miterlimit:1.41421" />
    <rect
       ry="0.58181816"
       rx="0.77575749"
       y="17.836363"
       x="8.9333334"
       height="1.1636363"
       width="4.266665"
       id="rect4209-3-3"
       style="fill:#eff0f1;fill-opacity:1;fill-rule:evenodd;stroke:none;stroke-width:0.909673;stroke-linecap:round;stroke-linejoin:round;stroke-miterlimit:4;stroke-dasharray:none;stroke-opacity:1" />
    <rect
       style="opacity:0.00100002"
       width="22"
       height="22"
       x="0"
       y="-4.6325681e-08"
       id="rect2" />
  </g>
</svg>
