<?xml version="1.0" encoding="UTF-8" standalone="no"?>
<svg
   inkscape:version="1.1.2 (0a00cf5339, 2022-02-04)"
   sodipodi:docname="view.svg"
   id="svg873"
   version="1.1"
   height="32"
   width="32"
   xmlns:inkscape="http://www.inkscape.org/namespaces/inkscape"
   xmlns:sodipodi="http://sodipodi.sourceforge.net/DTD/sodipodi-0.dtd"
   xmlns:xlink="http://www.w3.org/1999/xlink"
   xmlns="http://www.w3.org/2000/svg"
   xmlns:svg="http://www.w3.org/2000/svg"
   xmlns:rdf="http://www.w3.org/1999/02/22-rdf-syntax-ns#"
   xmlns:cc="http://creativecommons.org/ns#"
   xmlns:dc="http://purl.org/dc/elements/1.1/">
  <metadata
     id="metadata879">
    <rdf:RDF>
      <cc:Work
         rdf:about="">
        <dc:format>image/svg+xml</dc:format>
        <dc:type
           rdf:resource="http://purl.org/dc/dcmitype/StillImage" />
      </cc:Work>
    </rdf:RDF>
  </metadata>
  <defs
     id="defs877">
    <linearGradient
       inkscape:collect="always"
       id="linearGradient846">
      <stop
         style="stop-color:#9955ff;stop-opacity:1"
         offset="0"
         id="stop842" />
      <stop
         style="stop-color:#f0b3ff;stop-opacity:1"
         offset="1"
         id="stop844" />
    </linearGradient>
    <linearGradient
       id="_lgradient_0"
       x1="0"
       y1="0.5"
       x2="1"
       y2="0.5"
       gradientTransform="matrix(27.999994,0,0,27.999998,1.9766191,1.9139856)"
       gradientUnits="userSpaceOnUse">
      <stop
         offset="0%"
         stop-opacity="1"
         style="stop-color:rgb(105,227,255)"
         id="stop33" />
      <stop
         offset="100%"
         stop-opacity="1"
         style="stop-color:rgb(0,255,194)"
         id="stop35" />
    </linearGradient>
    <linearGradient
       inkscape:collect="always"
       xlink:href="#linearGradient846"
       id="linearGradient848"
       x1="3.1841145"
       y1="28.716473"
       x2="21.95496"
       y2="10.282109"
       gradientUnits="userSpaceOnUse" />
    <linearGradient
       inkscape:collect="always"
       xlink:href="#linearGradient846"
       id="linearGradient856"
       x1="14.258431"
       y1="15.558388"
       x2="20.551779"
       y2="15.558388"
       gradientUnits="userSpaceOnUse" />
    <linearGradient
       inkscape:collect="always"
       xlink:href="#linearGradient846"
       id="linearGradient1042"
       x1="0"
       y1="8"
       x2="16"
       y2="8"
       gradientUnits="userSpaceOnUse" />
    <linearGradient
       inkscape:collect="always"
       xlink:href="#linearGradient846"
       id="linearGradient838"
       gradientUnits="userSpaceOnUse"
       x1="0"
       y1="8"
       x2="16"
       y2="8" />
    <linearGradient
       inkscape:collect="always"
       xlink:href="#linearGradient846"
       id="linearGradient840"
       gradientUnits="userSpaceOnUse"
       x1="0"
       y1="8"
       x2="16"
       y2="8" />
  </defs>
  <sodipodi:namedview
     inkscape:current-layer="svg873"
     inkscape:window-maximized="1"
     inkscape:window-y="0"
     inkscape:window-x="0"
     inkscape:cy="7.4981843"
     inkscape:cx="9.1003604"
     inkscape:zoom="7.8018888"
     showgrid="false"
     id="namedview875"
     inkscape:window-height="1015"
     inkscape:window-width="1920"
     inkscape:pageshadow="2"
     inkscape:pageopacity="0"
     guidetolerance="10"
     gridtolerance="10"
     objecttolerance="10"
     borderopacity="1"
     inkscape:document-rotation="0"
     bordercolor="#666666"
     pagecolor="#ffffff"
     inkscape:pagecheckerboard="0" />
  <g
     style="clip-rule:evenodd;fill-rule:evenodd;stroke-linejoin:round;stroke-miterlimit:1.41421"
     id="g846">
    <g
       id="view-history">
      <rect
         ry="0.91472864"
         y="0"
         x="0"
         height="32"
         width="32"
         id="rect817-5"
         style="fill:#ffff96;fill-opacity:0;stroke-width:1.04154;stroke-miterlimit:1.41421;stroke-dasharray:none" />
      <path
         d="m 23.232249,4.2177547 c 2.51775,0 4.550001,2.0322453 4.550001,4.5500001 V 23.229594 c 0,2.517749 -2.032251,4.55 -4.550001,4.55 H 8.7677547 c -2.5177548,0 -4.5500001,-2.032251 -4.5500001,-4.55 V 8.7677548 C 4.2177546,6.25 6.2499999,4.2177547 8.7677547,4.2177547 H 23.232249 M 23.232249,3 H 8.7677547 C 5.5999999,3 3,5.6 3,8.7677548 V 23.229594 C 3,26.399999 5.5999999,29 8.7677547,29 H 23.229593 c 3.170406,0 5.770406,-2.600001 5.770406,-5.76775 V 8.7677548 C 28.999999,5.6 26.399999,3 23.232249,3 Z"
         id="path4"
         style="fill:url(#linearGradient848);fill-opacity:1;stroke-width:0.0265313" />
      <path
         d="m 15.377429,8.1298175 c -0.639067,0 -1.118998,0.4799318 -1.118998,0.9572638 v 7.5094357 c 0,0.320821 0.159111,0.479931 0.159111,0.639041 l 4.314209,5.27147 c 0.1591,0.31821 0.47993,0.47993 0.798153,0.47993 0.159107,0 0.479944,0 0.639054,-0.15911 0.47993,-0.31821 0.47993,-0.957261 0.15911,-1.437192 L 16.49379,16.278297 V 9.0870813 c 0.003,-0.477332 -0.477321,-0.9572638 -1.116361,-0.9572638 z"
         id="path4-6"
         style="fill:url(#linearGradient856);fill-opacity:1;stroke-width:0.0260839" />
    </g>
  </g>
  <g
     id="view-refresh"
     style="fill:url(#linearGradient1042);fill-opacity:1"
     transform="translate(32,16)">
    <path
       id="path836"
       style="opacity:0.00100002;fill:url(#linearGradient838);fill-opacity:1"
       d="M 0,0 H 16 V 16 H 0 Z" />
    <path
       d="m 14.425007,9.327645 c 0.0894,-0.434962 0.134407,-0.879221 0.134407,-1.327557 0,-3.622829 -2.936998,-6.559949 -6.559948,-6.559949 -0.894912,0 -1.770365,0.179293 -2.58503,0.528953 L 5.328536,1.946292 4.528481,0.885976 4.554901,0.777507 C 5.628499,0.264616 6.799455,0 7.999508,0 c 4.418189,0 7.999936,3.581748 7.999936,7.999938 0,1.624853 -0.485985,3.191944 -1.401406,4.524444 l -0.116925,0.0025 -2.405139,-3.196887 0.01522,-0.101593 1.042471,-0.75808 0.10026,0.01532 1.068286,1.4386912 z M 1.697072,6.07547 1.574364,6.672345 c -0.0894,0.434963 -0.134411,0.879222 -0.134411,1.327557 0,3.622829 2.936996,6.55995 6.559949,6.55995 0.908039,0 1.796063,-0.184725 2.620764,-0.544521 l 0.0864,0.02268 0.7991,1.05911 -0.0261,0.108228 C 10.396956,15.729485 9.213305,16 7.999938,16 3.581749,16 0,12.418251 0,8.000062 0,6.375209 0.485988,4.808117 1.401409,3.475617 l 0.116918,-0.0025 2.405139,3.196887 -0.0152,0.101593 -1.042463,0.75808 -0.100266,-0.01532 z"
       id="path2-5"
       style="fill:url(#linearGradient840);fill-opacity:1;stroke-width:0.0308878;enable-background:new" />
  </g>
</svg>
