<?xml version="1.0" encoding="UTF-8" standalone="no"?>
<svg
   xmlns:dc="http://purl.org/dc/elements/1.1/"
   xmlns:cc="http://creativecommons.org/ns#"
   xmlns:rdf="http://www.w3.org/1999/02/22-rdf-syntax-ns#"
   xmlns:svg="http://www.w3.org/2000/svg"
   xmlns="http://www.w3.org/2000/svg"
   xmlns:xlink="http://www.w3.org/1999/xlink"
   xmlns:sodipodi="http://sodipodi.sourceforge.net/DTD/sodipodi-0.dtd"
   xmlns:inkscape="http://www.inkscape.org/namespaces/inkscape"
   viewBox="0 0 256 256"
   id="svg2"
   version="1.1"
   inkscape:version="1.0.2 (e86c870879, 2021-01-15)"
   sodipodi:docname="org.kde.plasma.systemmonitor.cpu.svg"
   width="273.06668"
   height="273.06668">
  <metadata
     id="metadata10">
    <rdf:RDF>
      <cc:Work
         rdf:about="">
        <dc:format>image/svg+xml</dc:format>
        <dc:type
           rdf:resource="http://purl.org/dc/dcmitype/StillImage" />
        <dc:title />
      </cc:Work>
    </rdf:RDF>
  </metadata>
  <sodipodi:namedview
     pagecolor="#ffffff"
     bordercolor="#666666"
     borderopacity="1"
     objecttolerance="10"
     gridtolerance="10"
     guidetolerance="10"
     inkscape:pageopacity="0"
     inkscape:pageshadow="2"
     inkscape:window-width="1920"
     inkscape:window-height="1007"
     id="namedview8"
     showgrid="false"
     inkscape:zoom="1.84375"
     inkscape:cx="74.474762"
     inkscape:cy="95.240714"
     inkscape:window-x="0"
     inkscape:window-y="0"
     inkscape:window-maximized="1"
     inkscape:current-layer="svg2"
     inkscape:document-rotation="0" />
  <defs
     id="defs4">
    <style
       id="current-color-scheme"
       type="text/css">
      .ColorScheme-Text {
        color:#4d4d4d;
      }
      .ColorScheme-Background {
        color:#eff0f1;
      }
      .ColorScheme-Highlight {
        color:#3daee9;
      }
      .ColorScheme-ViewText {
        color:#31363b;
      }
      .ColorScheme-ViewBackground {
        color:#fcfcfc;
      }
      .ColorScheme-ViewHover {
        color:#93cee9;
      }
      .ColorScheme-ViewFocus{
        color:#3daee9;
      }
      .ColorScheme-ButtonText {
        color:#31363b;
      }
      .ColorScheme-ButtonBackground {
        color:#eff0f1;
      }
      .ColorScheme-ButtonHover {
        color:#93cee9;
      }
      .ColorScheme-ButtonFocus{
        color:#3daee9;
      }
      </style>
    <linearGradient
       gradientTransform="translate(-376.57144,-491.79797)"
       gradientUnits="userSpaceOnUse"
       y2="497.79797"
       x2="408.57144"
       y1="549.79797"
       x1="408.57144"
       id="linearGradient4291"
       xlink:href="#linearGradient4251-0"
       inkscape:collect="always" />
    <linearGradient
       inkscape:collect="always"
       id="linearGradient4251-0">
      <stop
         style="stop-color:#63984b;stop-opacity:1"
         offset="0"
         id="stop4253-4" />
      <stop
         style="stop-color:#8fc278;stop-opacity:1"
         offset="1"
         id="stop4255-2" />
    </linearGradient>
    <linearGradient
       gradientUnits="userSpaceOnUse"
       y2="57"
       x2="57"
       y1="15"
       x1="15"
       id="linearGradient4383"
       xlink:href="#linearGradient4227"
       inkscape:collect="always" />
    <linearGradient
       id="linearGradient4227"
       inkscape:collect="always">
      <stop
         id="stop4229"
         offset="0"
         style="stop-color:#292c2f;stop-opacity:1" />
      <stop
         id="stop4231"
         offset="1"
         style="stop-color:#000000;stop-opacity:0;" />
    </linearGradient>
    <linearGradient
       gradientTransform="matrix(0.65384614,0,0,0.65384614,141.42858,181.31471)"
       y2="497.79797"
       x2="408.57144"
       y1="549.79797"
       x1="408.57144"
       gradientUnits="userSpaceOnUse"
       id="linearGradient4337"
       xlink:href="#linearGradient4219"
       inkscape:collect="always" />
    <linearGradient
       inkscape:collect="always"
       id="linearGradient4219">
      <stop
         style="stop-color:#999a9c;stop-opacity:1"
         offset="0"
         id="stop4221" />
      <stop
         style="stop-color:#dcdfdf;stop-opacity:1"
         offset="1"
         id="stop4223" />
    </linearGradient>
    <linearGradient
       gradientUnits="userSpaceOnUse"
       y2="27"
       x2="24"
       y1="10"
       x1="7"
       id="linearGradient5093"
       xlink:href="#linearGradient4227"
       inkscape:collect="always"
       gradientTransform="translate(392.57144,507.79797)" />
    <linearGradient
       gradientUnits="userSpaceOnUse"
       y2="522.79797"
       x2="400.57144"
       y1="536.79797"
       x1="400.57144"
       id="linearGradient5010"
       xlink:href="#linearGradient4159"
       inkscape:collect="always"
       gradientTransform="translate(8.00001,-8.00003)" />
    <linearGradient
       inkscape:collect="always"
       id="linearGradient4159">
      <stop
         style="stop-color:#2a2c2f;stop-opacity:1"
         offset="0"
         id="stop4161" />
      <stop
         style="stop-color:#424649;stop-opacity:1"
         offset="1"
         id="stop4163" />
    </linearGradient>
    <linearGradient
       inkscape:collect="always"
       xlink:href="#linearGradient4303"
       id="linearGradient4158"
       x1="409.57144"
       y1="543.79797"
       x2="409.57144"
       y2="503.798"
       gradientUnits="userSpaceOnUse"
       gradientTransform="matrix(1.1250015,0,0,1,-59.071952,-8.0000193)" />
    <linearGradient
       id="linearGradient4303"
       inkscape:collect="always">
      <stop
         id="stop4305"
         offset="0"
         style="stop-color:#c6cdd1;stop-opacity:1" />
      <stop
         id="stop4307"
         offset="1"
         style="stop-color:#e0e5e7;stop-opacity:1" />
    </linearGradient>
    <linearGradient
       gradientUnits="userSpaceOnUse"
       y2="532.79797"
       x2="419.57144"
       y1="512.79797"
       x1="399.57144"
       id="linearGradient4881"
       xlink:href="#linearGradient4400"
       inkscape:collect="always" />
    <linearGradient
       id="linearGradient4400"
       inkscape:collect="always">
      <stop
         id="stop4402"
         offset="0"
         style="stop-color:#020303;stop-opacity:1" />
      <stop
         id="stop4404"
         offset="1"
         style="stop-color:#424649;stop-opacity:0" />
    </linearGradient>
    <linearGradient
       gradientUnits="userSpaceOnUse"
       y2="8.0000267"
       x2="31.999989"
       y1="52.000027"
       x1="31.999989"
       id="linearGradient4659"
       xlink:href="#linearGradient4903"
       inkscape:collect="always" />
    <linearGradient
       inkscape:collect="always"
       id="linearGradient4903">
      <stop
         style="stop-color:#eef1f2;stop-opacity:1"
         offset="0"
         id="stop4905" />
      <stop
         style="stop-color:#f9fafb;stop-opacity:1"
         offset="1"
         id="stop4907" />
    </linearGradient>
    <linearGradient
       gradientUnits="userSpaceOnUse"
       y2="41"
       x2="42.999985"
       y1="21"
       x1="22.999987"
       id="linearGradient4231"
       xlink:href="#linearGradient4400"
       inkscape:collect="always" />
    <linearGradient
       gradientUnits="userSpaceOnUse"
       y2="1033.3622"
       x2="10.999989"
       y1="1050.3622"
       x1="10.999989"
       id="linearGradient4793"
       xlink:href="#linearGradient4159"
       inkscape:collect="always" />
    <linearGradient
       inkscape:collect="always"
       xlink:href="#linearGradient4159"
       id="linearGradient4321"
       gradientUnits="userSpaceOnUse"
       x1="10.999989"
       y1="1050.3622"
       x2="10.999989"
       y2="1033.3622" />
  </defs>
  <path
     style="fill:currentColor;fill-opacity:0.5;stroke:none"
     d="m 16,10 h 224 c 3.324,0 6,2.676 6,6 v 224 c 0,3.324 -2.676,6 -6,6 H 16 c -3.324,0 -6,-2.676 -6,-6 V 16 c 0,-3.324 2.676,-6 6,-6 z"
     class="ColorScheme-ButtonText"
     id="rect4240" />
  <path
     style="fill:currentColor;fill-opacity:1;stroke:none"
     d="m 16,12 h 224 c 2.216,0 4,1.784 4,4 v 224 c 0,2.216 -1.784,4 -4,4 H 16 c -2.216,0 -4,-1.784 -4,-4 V 16 c 0,-2.216 1.784,-4 4,-4 z"
     class="ColorScheme-Background"
     id="rect4238" />
  <path
     style="fill:currentColor;fill-opacity:1;stroke:none"
     class="ColorScheme-Text"
     d="m 27.443359,28.369141 c -1.084391,0 -2.04256,0.251383 -2.873047,0.753906 -0.825195,0.497233 -1.45996,1.191976 -1.904296,2.085937 C 22.22168,32.102946 22,33.126139 22,34.279297 c 0,0.899251 0.134521,1.725423 0.404297,2.476562 0.275065,0.75114 0.655924,1.383383 1.142578,1.896485 0.486654,0.507812 1.06901,0.903808 1.746094,1.189453 0.682373,0.280355 1.421956,0.419922 2.220703,0.419922 1.142578,0 2.162679,-0.226726 3.05664,-0.681641 l -0.326171,-1.039062 c -0.867513,0.407308 -1.726481,0.611328 -2.578125,0.611328 -1.311849,0 -2.352133,-0.44279 -3.119141,-1.326172 -0.761719,-0.883382 -1.142578,-2.048665 -1.142578,-3.498047 0,-1.444092 0.370768,-2.613851 1.111328,-3.507813 0.74585,-0.89925 1.761475,-1.349609 3.046875,-1.349609 0.999756,0 1.871337,0.233724 2.617188,0.699219 l 0.460937,-0.91211 C 29.81543,28.665365 28.749919,28.369141 27.443359,28.369141 Z m 62.548829,0.0625 -1.31836,0.0957 v 2.609375 l 0.06445,1.914062 c -0.126953,-0.232747 -0.261474,-0.431722 -0.404297,-0.595703 -0.137532,-0.169271 -0.306803,-0.325928 -0.507812,-0.46875 -0.201009,-0.148112 -0.442302,-0.257975 -0.722656,-0.332031 -0.280355,-0.07406 -0.598715,-0.111328 -0.953125,-0.111328 -1.11084,0 -1.989991,0.395996 -2.640625,1.189453 -0.645345,0.793457 -0.96875,1.833741 -0.96875,3.11914 0,1.354167 0.311361,2.429769 0.935546,3.228516 0.629476,0.793457 1.523194,1.189453 2.681641,1.189453 1.200765,0 2.0743,-0.547607 2.619141,-1.642578 l 0.11914,1.484375 h 1.095704 z m -57.390626,0.0957 v 11.583984 h 1.396485 v -5.601562 h 2.505859 c 1.306559,0 2.259684,-0.263998 2.857422,-0.792969 0.597738,-0.534261 0.896484,-1.320638 0.896484,-2.357422 0,-0.507813 -0.0922,-0.946126 -0.277343,-1.316406 -0.179851,-0.37557 -0.443278,-0.671794 -0.78711,-0.888672 -0.343831,-0.216878 -0.734782,-0.376058 -1.173828,-0.476563 -0.439046,-0.100504 -0.936767,-0.15039 -1.492187,-0.15039 z m 9.25,0 v 7.386718 c 10e-7,1.333008 0.383383,2.390951 1.150391,3.173829 0.767009,0.782877 1.896973,1.173828 3.388672,1.173828 0.74585,0 1.41032,-0.104818 1.992187,-0.316407 0.581869,-0.216878 1.054932,-0.518147 1.419922,-0.904296 0.37028,-0.391439 0.651368,-0.849366 0.841797,-1.373047 0.19043,-0.523682 0.285157,-1.100993 0.285157,-1.730469 v -7.410156 h -1.396485 v 7.363281 c 0,1.068522 -0.263997,1.880127 -0.792969,2.435547 -0.528971,0.55013 -1.312825,0.826172 -2.349609,0.826172 -2.094727,0 -3.142578,-1.087647 -3.142578,-3.261719 v -7.363281 z m 15.15625,0 v 11.583984 h 6.712891 l 0.03125,-1.0625 H 58.404297 V 28.527344 Z m 39.205079,0 -0.230469,11.583984 h 1.316406 l 0.111328,-7.148437 v -2.738282 l 3.650394,8.59375 h 1.19726 l 3.67383,-8.498047 v 2.611329 l 0.11133,7.179687 h 1.30078 l -0.23047,-11.583984 h -1.66601 l -3.76758,8.798828 -3.753909,-8.798828 z m 32.546879,0 c -0.25391,0 -0.46298,0.07959 -0.62696,0.238281 -0.15869,0.153402 -0.23828,0.354899 -0.23828,0.603516 0,0.248616 0.0796,0.450683 0.23828,0.609375 0.16398,0.158691 0.37305,0.238281 0.62696,0.238281 0.24861,0 0.45516,-0.07959 0.61914,-0.238281 0.16398,-0.158692 0.24609,-0.360759 0.24609,-0.609375 0,-0.248617 -0.0821,-0.450114 -0.24609,-0.603516 -0.1587,-0.158691 -0.36524,-0.238281 -0.61914,-0.238281 z m 4.84765,0.888672 -1.05469,0.08008 -0.21484,2.220703 -1.29297,0.08789 -0.0312,0.746093 h 1.29297 v 5.044922 c 0,0.513102 0.0448,0.928711 0.13477,1.246094 0.0899,0.317383 0.25162,0.578857 0.48437,0.785156 0.23804,0.206299 0.54435,0.350342 0.91992,0.429688 0.37557,0.07935 0.86825,0.11914 1.47657,0.11914 h 0.54687 l 0.0625,-0.904297 -0.66602,-0.0332 c -0.70353,-0.02645 -1.15445,-0.136312 -1.35546,-0.332031 -0.20101,-0.201009 -0.30274,-0.638753 -0.30274,-1.310547 v -5.044922 h 2.22266 v -0.833984 h -2.22266 z m -99.609373,0.158203 h 2.521484 c 0.761719,0 1.341553,0.137044 1.738281,0.412109 0.40202,0.269776 0.603516,0.732748 0.603516,1.388672 0,0.761719 -0.181885,1.296712 -0.546875,1.603516 -0.3597,0.306803 -0.974284,0.460937 -1.841797,0.460937 h -2.474609 z m 34.800781,1.96875 c -1.232503,0 -2.200765,0.401041 -2.904297,1.205078 -0.698242,0.798747 -1.046875,1.856689 -1.046875,3.173828 0,1.2854 0.353679,2.333252 1.0625,3.142578 0.708822,0.804037 1.672038,1.205078 2.888672,1.205078 1.190186,0 2.146403,-0.403564 2.871094,-1.21289 0.724691,-0.814616 1.087891,-1.859945 1.08789,-3.134766 0,-1.317139 -0.348633,-2.375081 -1.046874,-3.173828 -0.698244,-0.804037 -1.669027,-1.205078 -2.91211,-1.205078 z m 8.744141,0 c -1.12142,0 -2.131999,0.209066 -3.03125,0.626953 l 0.355469,0.966797 c 0.386149,-0.18514 0.826416,-0.32723 1.318359,-0.427735 0.491943,-0.105794 0.952392,-0.158203 1.380859,-0.158203 0.634766,0 1.097738,0.149658 1.388672,0.451172 0.296224,0.301514 0.44336,0.75944 0.44336,1.373047 v 0.824219 h -1.339844 c -1.348877,0 -2.334229,0.216064 -2.953125,0.644531 -0.613607,0.423177 -0.919922,1.088216 -0.919922,1.998047 0,0.761719 0.233724,1.356689 0.699219,1.785156 0.470784,0.428467 1.090983,0.642578 1.863281,0.642578 1.153157,0 2.089193,-0.440836 2.808594,-1.324219 l 0.144531,1.158204 h 0.998047 V 34.56445 c 0,-1.068522 -0.274089,-1.837809 -0.824219,-2.308594 -0.54484,-0.476074 -1.321696,-0.71289 -2.332031,-0.71289 z m 35.656251,0 c -1.2325,0 -2.19881,0.401041 -2.90234,1.205078 -0.69826,0.798747 -1.04883,1.856689 -1.04883,3.173828 0,1.2854 0.35563,2.333252 1.06445,3.142578 0.70882,0.804037 1.67008,1.205078 2.88672,1.205078 1.19018,0 2.14835,-0.403564 2.87305,-1.21289 0.72469,-0.814616 1.08789,-1.859945 1.08789,-3.134766 0,-1.317139 -0.35059,-2.375081 -1.04883,-3.173828 -0.69824,-0.804037 -1.66903,-1.205078 -2.91211,-1.205078 z m 9.80078,0 c -1.26424,0 -2.21484,0.443359 -2.84961,1.332031 l -0.14258,-1.158203 h -1.14258 v 8.394531 h 1.31641 v -4.68164 c 0,-1.920167 0.86344,-2.878907 2.58789,-2.878907 0.64006,0 1.08593,0.191976 1.33985,0.578125 0.2539,0.38086 0.38085,0.950602 0.38085,1.707032 v 5.27539 h 1.31836 v -5.132812 c 0,-1.153158 -0.2312,-2.01408 -0.6914,-2.580078 C 124.66227,31.827147 123.95744,31.542969 123,31.542969 Z m 18.09766,0 c -1.23251,0 -2.20077,0.401041 -2.9043,1.205078 -0.69824,0.798747 -1.04688,1.856689 -1.04688,3.173828 0,1.2854 0.35368,2.333252 1.0625,3.142578 0.70883,0.804037 1.67204,1.205078 2.88868,1.205078 1.19018,0 2.14835,-0.403564 2.87304,-1.21289 0.72469,-0.814616 1.08594,-1.859945 1.08594,-3.134766 0,-1.317139 -0.34863,-2.375081 -1.04687,-3.173828 -0.69825,-0.804037 -1.66903,-1.205078 -2.91211,-1.205078 z m 9.52148,0.08594 c -0.50781,0 -0.99097,0.144043 -1.45117,0.429688 -0.45492,0.280355 -0.84082,0.721192 -1.1582,1.324218 l -0.14454,-1.666015 h -1.05468 v 8.394531 h 1.31836 v -4.751953 c 0,-0.74585 0.23177,-1.378092 0.69726,-1.896484 0.47079,-0.518392 1.06576,-0.777344 1.78516,-0.777344 0.14811,0 0.32747,0.02018 0.53906,0.0625 l 0.0566,-1.078125 c -0.1534,-0.02645 -0.34985,-0.04102 -0.58789,-0.04102 z m -22.51758,0.08789 v 8.394531 h 1.30078 V 31.716796 Z M 68.798828,32.55078 c 0.862223,0 1.512126,0.308838 1.951172,0.927735 0.439046,0.613606 0.658203,1.43278 0.658203,2.458984 0,0.655924 -0.08968,1.230713 -0.269531,1.722656 -0.17985,0.486654 -0.471029,0.877604 -0.873047,1.173828 -0.396729,0.290935 -0.884928,0.4375 -1.466797,0.4375 -0.846354,0 -1.493164,-0.308268 -1.9375,-0.921875 -0.444336,-0.613606 -0.666015,-1.420166 -0.666016,-2.419921 0,-1.020916 0.22168,-1.837566 0.666016,-2.451172 0.444336,-0.618897 1.091146,-0.927735 1.9375,-0.927735 z m 17.542969,0 c 0.782877,0 1.372803,0.289226 1.769531,0.871094 0.402018,0.581868 0.603516,1.44279 0.603516,2.580078 -0.0053,1.042074 -0.199219,1.846111 -0.580078,2.412109 -0.38086,0.566001 -1.003011,0.847657 -1.865235,0.847657 -0.819905,0 -1.424967,-0.30127 -1.816406,-0.904297 -0.386149,-0.603027 -0.580078,-1.429769 -0.580078,-2.482422 0,-1.057943 0.206543,-1.876546 0.619141,-2.453125 0.412597,-0.581868 1.029703,-0.871094 1.849609,-0.871094 z m 26.857423,0 c 0.86222,0 1.51408,0.308838 1.95312,0.927735 0.43905,0.613606 0.65821,1.43278 0.65821,2.458984 0,0.655924 -0.0897,1.230713 -0.26953,1.722656 -0.17985,0.486654 -0.47103,0.877604 -0.87305,1.173828 -0.39673,0.290935 -0.88688,0.4375 -1.46875,0.4375 -0.84636,0 -1.49121,-0.308268 -1.93555,-0.921875 -0.44433,-0.613606 -0.66601,-1.420166 -0.66601,-2.419921 0,-1.020916 0.22168,-1.837566 0.66601,-2.451172 0.44434,-0.618897 1.08919,-0.927735 1.93555,-0.927735 z m 27.89844,0 c 0.86222,0 1.51408,0.308838 1.95312,0.927735 0.43905,0.613606 0.6582,1.43278 0.6582,2.458984 0,0.655924 -0.0897,1.230713 -0.26953,1.722656 -0.17985,0.486654 -0.47103,0.877604 -0.87304,1.173828 -0.39673,0.290935 -0.88689,0.4375 -1.46875,0.4375 -0.84636,0 -1.49121,-0.308268 -1.93555,-0.921875 -0.44434,-0.613606 -0.66602,-1.420166 -0.66602,-2.419921 0,-1.020916 0.22168,-1.837566 0.66602,-2.451172 0.44434,-0.618897 1.08919,-0.927735 1.93555,-0.927735 z m -62.707035,3.521485 h 1.007813 v 1.849609 c -0.629476,0.9257 -1.485922,1.388672 -2.570313,1.388672 -0.396729,0 -0.727702,-0.126953 -0.992187,-0.380859 -0.264487,-0.253907 -0.396485,-0.614584 -0.396485,-1.080079 0,-0.259196 0.02466,-0.47583 0.07227,-0.65039 0.04761,-0.179851 0.134764,-0.344076 0.261719,-0.492188 0.126953,-0.153401 0.301269,-0.270833 0.523437,-0.355469 0.222168,-0.08993 0.503825,-0.159423 0.847656,-0.207031 0.343832,-0.04761 0.75944,-0.07227 1.246094,-0.07227 z M 20,50 v 1 h 216 v -1 z m 5.115234,13.650391 c -0.420735,0 -0.813232,0.04801 -1.175781,0.146484 -0.362549,0.09847 -0.690918,0.249756 -0.986328,0.451172 -0.29541,0.19694 -0.527181,0.463135 -0.697266,0.798828 C 22.085775,65.382568 22,65.767008 22,66.201172 c 0,0.631103 0.163493,1.127685 0.490234,1.490234 0.326742,0.358073 0.82194,0.663412 1.484375,0.914063 l 1.597657,0.609375 c 0.626627,0.241699 1.046875,0.481526 1.261718,0.71875 0.21932,0.232747 0.328125,0.584717 0.328125,1.054687 0,0.407308 -0.09798,0.749837 -0.294921,1.027344 -0.192465,0.273031 -0.443116,0.468994 -0.751954,0.589844 -0.308838,0.116373 -0.66691,0.175781 -1.074218,0.175781 -0.501302,0 -1.022868,-0.0905 -1.564454,-0.269531 -0.537109,-0.179037 -1.019531,-0.421631 -1.449218,-0.730469 v 1.060547 c 0.277506,0.246175 0.69637,0.452962 1.255859,0.623047 0.559489,0.170084 1.138509,0.255859 1.738281,0.255859 0.335694,0 0.653239,-0.0297 0.953125,-0.08789 0.304362,-0.05819 0.596924,-0.154785 0.878907,-0.289062 0.281982,-0.138753 0.525146,-0.309733 0.726562,-0.515625 0.201416,-0.205892 0.361572,-0.470703 0.482422,-0.792969 0.12085,-0.322265 0.181641,-0.685058 0.181641,-1.08789 0,-0.326742 -0.04053,-0.61792 -0.121094,-0.873047 -0.08057,-0.255127 -0.181885,-0.469972 -0.302735,-0.644531 -0.120848,-0.174561 -0.29183,-0.338054 -0.515624,-0.490235 -0.21932,-0.156657 -0.43278,-0.282389 -0.638672,-0.380859 -0.201416,-0.09847 -0.462891,-0.210612 -0.785157,-0.335938 l -1.544921,-0.605468 c -0.469972,-0.183514 -0.796957,-0.384196 -0.980469,-0.603516 -0.179037,-0.223796 -0.267578,-0.541341 -0.267578,-0.953125 0,-0.335693 0.09798,-0.617432 0.294921,-0.845703 0.196941,-0.228272 0.446208,-0.390381 0.746094,-0.484375 0.299886,-0.09847 0.642416,-0.146485 1.027344,-0.146485 0.41626,0 0.831787,0.05746 1.248047,0.173828 0.420736,0.116374 0.777425,0.275147 1.068359,0.476563 l 0.429688,-0.832031 c -0.384929,-0.237224 -0.824056,-0.42098 -1.316406,-0.550782 -0.487875,-0.134276 -0.978353,-0.201171 -1.470704,-0.201172 z m 192.140626,0 c -0.71615,0 -1.32487,0.211507 -1.82617,0.636718 -0.5013,0.420736 -0.87687,1.007813 -1.12305,1.759766 -0.2417,0.747477 -0.36133,1.636556 -0.36133,2.666016 0,0.743001 0.0655,1.418619 0.19531,2.027343 0.13428,0.604248 0.33025,1.136638 0.58985,1.597657 0.26408,0.456543 0.60799,0.811279 1.0332,1.066406 0.42969,0.250651 0.92822,0.376953 1.49219,0.376953 0.55949,0 1.04801,-0.126302 1.46875,-0.376953 0.42521,-0.255127 0.76302,-0.6132 1.01367,-1.074219 0.25513,-0.461019 0.44694,-0.993408 0.57227,-1.597656 0.12532,-0.604248 0.1875,-1.27653 0.1875,-2.019531 0,-0.774333 -0.0669,-1.468832 -0.20117,-2.082032 -0.13428,-0.617675 -0.33358,-1.14868 -0.59766,-1.591797 -0.2596,-0.447591 -0.59741,-0.79012 -1.01367,-1.027343 -0.41179,-0.241699 -0.88811,-0.361328 -1.42969,-0.361328 z m -8.42774,0.0059 c -0.89518,0 -1.74178,0.244548 -2.54296,0.732422 l 0.36132,0.818359 c 0.7251,-0.41626 1.44125,-0.623047 2.14844,-0.623047 0.51921,0 0.94141,0.130453 1.26367,0.394532 0.32227,0.264078 0.48715,0.667399 0.4961,1.208984 v 0.04687 c 0,1.154785 -0.79248,1.732422 -2.37696,1.732422 h -0.28906 v 0.900391 h 0.28321 c 0.32674,0 0.60986,0.01554 0.85156,0.04687 0.24617,0.03133 0.486,0.09212 0.71875,0.181641 0.23274,0.08504 0.4226,0.199951 0.57031,0.347656 0.14771,0.14323 0.26595,0.33781 0.35547,0.583985 0.0895,0.241699 0.13476,0.531494 0.13476,0.867187 0,0.608724 -0.16015,1.074219 -0.48242,1.396485 -0.32226,0.322265 -0.77083,0.482421 -1.34375,0.482422 -0.71167,0 -1.52913,-0.235108 -2.45117,-0.705079 v 1.007813 c 0.82804,0.434163 1.65633,0.65039 2.48438,0.65039 0.85489,0 1.55883,-0.242594 2.10937,-0.730468 0.55501,-0.492351 0.83814,-1.192953 0.85156,-2.101563 v -0.04687 c 0,-0.666911 -0.18847,-1.212077 -0.56445,-1.632812 -0.3715,-0.420736 -0.86475,-0.694418 -1.48242,-0.824219 1.19059,-0.308838 1.78515,-1.054687 1.78515,-2.236328 v -0.04102 c -0.004,-0.532633 -0.14298,-0.987304 -0.41601,-1.363281 -0.26856,-0.380452 -0.61581,-0.657471 -1.04102,-0.832031 -0.42073,-0.174561 -0.89567,-0.261719 -1.42383,-0.261719 z m 23.94922,0.126953 -5.57226,9.802735 h 0.88672 l 5.5039,-9.802735 z m -5.67968,0.0078 c -0.72063,0 -1.27938,0.23177 -1.67774,0.697265 -0.39835,0.461019 -0.59765,1.05892 -0.59765,1.792969 0,0.738525 0.19596,1.341146 0.58984,1.806641 0.39388,0.465494 0.95597,0.697265 1.68555,0.697265 0.72509,0 1.28719,-0.231771 1.68554,-0.697265 0.39836,-0.469971 0.59766,-1.072592 0.59766,-1.806641 0,-0.747477 -0.19792,-1.348145 -0.5918,-1.804688 -0.3894,-0.456541 -0.95288,-0.685546 -1.6914,-0.685546 z m 0.006,0.625 c 0.5013,0 0.87491,0.166259 1.12109,0.501953 0.25065,0.331217 0.37695,0.784505 0.37695,1.357422 0,0.559489 -0.1263,1.01416 -0.37695,1.363281 -0.24618,0.344645 -0.61979,0.515625 -1.12109,0.515625 -0.50131,0 -0.87631,-0.169596 -1.12696,-0.509766 -0.25065,-0.340169 -0.37695,-0.796224 -0.37695,-1.36914 0,-0.559489 0.1263,-1.00944 0.37695,-1.34961 0.25065,-0.340169 0.62565,-0.509765 1.12696,-0.509765 z m -182.544926,0.11914 -0.892578,0.06836 -0.181641,1.878906 -1.09375,0.07422 -0.02734,0.630859 h 1.09375 v 4.271484 c 0,0.434164 0.03914,0.78418 0.115235,1.052735 0.07609,0.268554 0.211263,0.491455 0.408203,0.666015 0.201416,0.174561 0.461507,0.29419 0.779297,0.361328 0.317789,0.06714 0.73527,0.101563 1.25,0.101563 h 0.46289 l 0.05273,-0.765625 -0.564453,-0.02734 c -0.595298,-0.02238 -0.9764,-0.115641 -1.146485,-0.28125 -0.170085,-0.170084 -0.255859,-0.538981 -0.255859,-1.107422 V 67.1875 h 1.880859 V 66.482422 H 44.558733 Z M 217.256,64.556664 c 1.42334,0 2.13477,1.3715 2.13476,4.115234 2e-5,1.383057 -0.18709,2.430908 -0.55859,3.142578 -0.36702,0.707194 -0.89136,1.060547 -1.57617,1.060547 -0.69377,0 -1.2356,-0.356689 -1.625,-1.068359 -0.38493,-0.716146 -0.57813,-1.759278 -0.57813,-3.128907 -0.004,-1.311442 0.19011,-2.324869 0.58399,-3.041015 0.39388,-0.720622 0.93432,-1.080078 1.61914,-1.080078 z M 39.201172,66.335938 c -0.743001,0 -1.320638,0.179036 -1.732422,0.537109 -0.411784,0.353597 -0.617188,0.819092 -0.617188,1.396484 0,0.465495 0.118246,0.845215 0.355469,1.140625 0.237224,0.290934 0.67635,0.540202 1.316407,0.746094 l 0.777343,0.248047 c 0.51473,0.165609 0.87142,0.341308 1.06836,0.529297 0.19694,0.187988 0.294921,0.421712 0.294921,0.699218 0,0.402834 -0.118245,0.710938 -0.355468,0.925782 -0.237224,0.210368 -0.570313,0.316406 -1,0.316406 -0.684815,0 -1.452311,-0.20402 -2.302735,-0.611328 v 0.933594 c 0.73405,0.349121 1.475179,0.523437 2.222657,0.523437 0.335693,0 0.643798,-0.04053 0.925781,-0.121094 0.286458,-0.08057 0.541829,-0.202148 0.765625,-0.363281 0.228271,-0.161133 0.407308,-0.375976 0.537109,-0.644531 0.129802,-0.273031 0.195313,-0.585856 0.195313,-0.939453 0,-0.286459 -0.02832,-0.52767 -0.08203,-0.72461 -0.05371,-0.201416 -0.151692,-0.389892 -0.294921,-0.564453 -0.14323,-0.17456 -0.34253,-0.32723 -0.597657,-0.457031 -0.250651,-0.134277 -0.5743,-0.263346 -0.972656,-0.388672 L 39,69.296875 c -0.461019,-0.147705 -0.763021,-0.286214 -0.90625,-0.416016 -0.143229,-0.129801 -0.214844,-0.341878 -0.214844,-0.632812 0,-0.344645 0.108806,-0.60612 0.328125,-0.785156 0.223796,-0.183513 0.592692,-0.275391 1.107422,-0.275391 0.577393,0 1.175293,0.157389 1.792969,0.470703 l 0.261719,-0.826172 c -0.671387,-0.331217 -1.393636,-0.496093 -2.167969,-0.496093 z m 11.58789,0 c -0.93994,0 -1.713541,0.337809 -2.322265,1.013671 -0.608724,0.675863 -0.914063,1.581869 -0.914063,2.71875 0,1.123454 0.311442,2.013916 0.933594,2.671875 0.622152,0.653483 1.431559,0.980469 2.429688,0.980469 0.895182,0 1.695719,-0.20874 2.398437,-0.625 l -0.236328,-0.785156 c -0.375977,0.187988 -0.715169,0.329834 -1.019531,0.423828 -0.304362,0.09399 -0.642171,0.140625 -1.013672,0.140625 -0.684815,0 -1.240804,-0.21818 -1.666016,-0.652344 -0.425211,-0.438639 -0.655599,-1.109538 -0.691406,-2.013672 h 4.800781 l 0.04102,-0.564453 c 0,-1.038411 -0.235108,-1.847819 -0.705078,-2.429687 -0.465495,-0.586345 -1.14445,-0.878906 -2.035157,-0.878906 z m 7.472657,0 c -0.90861,0 -1.638916,0.3986 -2.189453,1.195312 l -0.126954,-1.048828 h -0.90039 v 7.103516 h 1.115234 v -4.330079 c 0.09399,-0.622151 0.299398,-1.122069 0.617188,-1.498047 0.322265,-0.380452 0.756673,-0.570312 1.302734,-0.570312 0.496826,0 0.837972,0.187093 1.021484,0.558594 0.183513,0.367024 0.275391,0.983235 0.275391,1.851562 v 3.988282 h 1.113281 v -3.644532 c 0.01343,-0.617676 0.03841,-0.988525 0.07422,-1.109375 0.12085,-0.532633 0.349854,-0.93872 0.685547,-1.220703 0.335693,-0.281982 0.716797,-0.423828 1.146484,-0.423828 0.192465,0 0.360677,0.0297 0.503907,0.08789 0.147705,0.05371 0.264567,0.139485 0.349609,0.255859 0.08952,0.116374 0.161133,0.234619 0.214844,0.355469 0.05371,0.116373 0.0909,0.270426 0.113281,0.46289 0.02238,0.192465 0.03654,0.355957 0.04102,0.490235 0.009,0.129801 0.01367,0.302734 0.01367,0.517578 v 4.228516 h 1.115235 v -4.578126 c 0,-1.781412 -0.725586,-2.671874 -2.175781,-2.671874 -1.02946,0 -1.811117,0.481038 -2.34375,1.443359 -0.165609,-0.452067 -0.400718,-0.80542 -0.705078,-1.060547 -0.304362,-0.255127 -0.72461,-0.382812 -1.261719,-0.382812 z m -28.902344,0.146484 2.8125,6.888672 -1.046875,2.671875 1,0.214843 3.738281,-9.77539 H 34.736328 L 32.708984,72.15625 30.492188,66.482422 Z M 50.816406,67.1875 c 1.12793,0 1.717774,0.766113 1.771485,2.296875 h -3.867188 c 0.06266,-0.707194 0.282227,-1.265951 0.658203,-1.677734 0.380453,-0.411784 0.860108,-0.619141 1.4375,-0.619141 z M 233.7168,68.591797 c -0.72062,0 -1.27938,0.231772 -1.67774,0.697265 -0.39835,0.465496 -0.59765,1.064779 -0.59765,1.798829 0,0.738525 0.19596,1.341145 0.58984,1.80664 0.39388,0.465495 0.95597,0.699219 1.68555,0.699219 0.72509,0 1.28719,-0.233724 1.68554,-0.699219 C 235.8007,72.424561 236,71.82194 236,71.087891 c 0,-0.747478 -0.19596,-1.348145 -0.58984,-1.804688 -0.38941,-0.461019 -0.95484,-0.691406 -1.69336,-0.691406 z m 0.008,0.630859 c 0.5013,0 0.87492,0.168214 1.12109,0.503906 0.25065,0.331219 0.375,0.782553 0.375,1.355469 0,0.559489 -0.12435,1.014161 -0.375,1.363281 -0.24617,0.349122 -0.61979,0.523438 -1.12109,0.523438 -0.5013,0 -0.87826,-0.169596 -1.12891,-0.509766 -0.25065,-0.344645 -0.375,-0.804036 -0.375,-1.376953 0,-0.559489 0.12435,-1.00944 0.375,-1.349609 0.25065,-0.340169 0.62761,-0.509766 1.12891,-0.509766 z M 20,138 v 1 h 216 v -1 z m 6.484375,13.65039 c -0.917562,0 -1.72697,0.21151 -2.429687,0.63672 -0.698244,0.42074 -1.235352,1.0092 -1.611329,1.76562 -0.375976,0.75643 -0.564453,1.62387 -0.564453,2.59961 0,0.76091 0.113526,1.45817 0.341797,2.09375 0.232748,0.63558 0.555013,1.17131 0.966797,1.60547 0.411784,0.42969 0.905599,0.76416 1.478516,1.00586 0.577392,0.23723 1.203043,0.35742 1.878906,0.35742 0.966797,0 1.829508,-0.19319 2.585937,-0.57812 l -0.27539,-0.87891 c -0.73405,0.34465 -1.461019,0.51563 -2.181641,0.51563 -1.110026,0 -1.989665,-0.37362 -2.638672,-1.1211 -0.644531,-0.74747 -0.966797,-1.73453 -0.966797,-2.96093 0,-1.22193 0.312827,-2.21037 0.939453,-2.9668 0.631105,-0.76091 1.490478,-1.14063 2.578126,-1.14063 0.845946,0 1.58374,0.19597 2.214843,0.58985 l 0.390625,-0.77149 c -0.698242,-0.5013 -1.601481,-0.75195 -2.707031,-0.75195 z m 190.771485,0 c -0.71615,0 -1.32487,0.21151 -1.82617,0.63672 -0.5013,0.42074 -0.87687,1.00781 -1.12305,1.75977 -0.2417,0.74746 -0.36133,1.63655 -0.36133,2.66601 0,0.743 0.0655,1.41862 0.19531,2.02734 0.13428,0.60425 0.33025,1.13664 0.58985,1.59766 0.26408,0.45654 0.60799,0.81128 1.0332,1.06641 0.42969,0.25065 0.92822,0.37695 1.49219,0.37695 0.55949,0 1.04801,-0.1263 1.46875,-0.37695 0.42521,-0.25513 0.76302,-0.6132 1.01367,-1.07422 0.25513,-0.46102 0.44694,-0.99341 0.57227,-1.59766 0.12532,-0.60425 0.1875,-1.27653 0.1875,-2.01953 0,-0.77433 -0.0669,-1.46883 -0.20117,-2.08203 -0.13428,-0.61768 -0.33358,-1.14868 -0.59766,-1.5918 -0.2596,-0.44759 -0.59741,-0.79012 -1.01367,-1.02734 -0.41179,-0.2417 -0.88811,-0.36133 -1.42969,-0.36133 z M 30.849609,151.7832 v 9.80274 h 1.181641 v -4.74024 h 2.121094 c 1.10555,0 1.910237,-0.22233 2.416015,-0.66992 0.505778,-0.45207 0.759766,-1.11686 0.759766,-1.99414 0,-0.42969 -0.07772,-0.80192 -0.234375,-1.11523 -0.152181,-0.31779 -0.375081,-0.56844 -0.666016,-0.75196 -0.290934,-0.18351 -0.62264,-0.3173 -0.99414,-0.40234 -0.371501,-0.085 -0.791748,-0.12891 -1.261719,-0.12891 z m 7.828125,0 v 6.25196 c 0,1.12793 0.323649,2.02311 0.972657,2.68554 0.649007,0.66244 1.60498,0.99414 2.867187,0.99414 0.631104,0 1.193197,-0.0905 1.685547,-0.26953 0.49235,-0.18351 0.892334,-0.43888 1.201172,-0.76562 0.313314,-0.33122 0.551757,-0.719 0.712891,-1.16211 0.161132,-0.44312 0.240234,-0.93026 0.240234,-1.46289 v -6.27149 h -1.181641 v 6.23047 c 0,0.90414 -0.22233,1.59253 -0.669922,2.0625 -0.447591,0.4655 -1.111002,0.69727 -1.988281,0.69727 -1.772461,0 -2.658203,-0.92017 -2.658203,-2.75977 v -6.23047 z m 170.460936,0 c -0.23275,0.16114 -0.58333,0.32463 -1.04883,0.49024 -0.46102,0.16113 -0.85962,0.27661 -1.19531,0.34375 v 0.88476 c 0.29989,-0.0403 0.66268,-0.12744 1.08789,-0.26172 0.42969,-0.13427 0.78638,-0.27889 1.06836,-0.43554 v 7.97656 h -2.36328 v 0.80469 h 5.58594 v -0.80469 h -2.10742 v -8.99805 z m 23.63867,0 -5.57226,9.80274 h 0.88672 l 5.5039,-9.80274 z m -5.67968,0.008 c -0.72063,0 -1.27938,0.23177 -1.67774,0.69726 -0.39835,0.46102 -0.59765,1.05892 -0.59765,1.79297 0,0.73853 0.19596,1.34115 0.58984,1.80664 0.39388,0.4655 0.95597,0.69727 1.68555,0.69727 0.72509,0 1.28719,-0.23177 1.68554,-0.69727 0.39836,-0.46997 0.59766,-1.07259 0.59766,-1.80664 0,-0.74748 -0.19792,-1.34814 -0.5918,-1.80469 -0.3894,-0.45654 -0.95288,-0.68554 -1.6914,-0.68554 z m 0.006,0.625 c 0.5013,0 0.87491,0.16626 1.12109,0.50195 0.25065,0.33122 0.37695,0.7845 0.37695,1.35742 0,0.55949 -0.1263,1.01416 -0.37695,1.36328 -0.24618,0.34465 -0.61979,0.51563 -1.12109,0.51563 -0.50131,0 -0.87631,-0.1696 -1.12696,-0.50977 -0.25065,-0.34017 -0.37695,-0.79622 -0.37695,-1.36914 0,-0.55949 0.1263,-1.00944 0.37695,-1.34961 0.25065,-0.34017 0.62565,-0.50976 1.12696,-0.50976 z m -9.84766,0.14062 c 1.42334,0 2.13476,1.3715 2.13476,4.11524 2e-5,1.38304 -0.18709,2.4309 -0.55859,3.14257 -0.36702,0.7072 -0.89136,1.06055 -1.57617,1.06055 -0.69377,0 -1.2356,-0.35669 -1.625,-1.06836 -0.38493,-0.71615 -0.57813,-1.75928 -0.57813,-3.12891 -0.004,-1.31144 0.19011,-2.32487 0.58399,-3.04101 0.39388,-0.72062 0.93432,-1.08008 1.61914,-1.08008 z M 32.03139,152.6701 h 2.134766 c 0.644531,0 1.135009,0.11686 1.470703,0.34961 0.340169,0.22827 0.509765,0.62077 0.509765,1.17578 0,0.64453 -0.154052,1.09587 -0.46289,1.35547 -0.304362,0.2596 -0.824545,0.38867 -1.558594,0.38867 h -2.09375 z m 201.68555,3.92188 c -0.72062,0 -1.27938,0.23177 -1.67774,0.69726 -0.39835,0.4655 -0.59765,1.06478 -0.59765,1.79883 0,0.73853 0.19596,1.34115 0.58984,1.80664 0.39388,0.4655 0.95597,0.69922 1.68555,0.69922 0.72509,0 1.28719,-0.23372 1.68554,-0.69922 0.39836,-0.46997 0.59766,-1.07259 0.59766,-1.80664 0,-0.74748 -0.19596,-1.34814 -0.58984,-1.80469 -0.38941,-0.46102 -0.95484,-0.6914 -1.69336,-0.6914 z m 0.008,0.63086 c 0.5013,0 0.87492,0.16821 1.12109,0.5039 0.25065,0.33122 0.375,0.78255 0.375,1.35547 0,0.55949 -0.12435,1.01416 -0.375,1.36328 -0.24617,0.34912 -0.61979,0.52344 -1.12109,0.52344 -0.5013,0 -0.87826,-0.1696 -1.12891,-0.50977 -0.25065,-0.34464 -0.375,-0.80403 -0.375,-1.37695 0,-0.55949 0.12435,-1.00944 0.375,-1.34961 0.25065,-0.34017 0.62761,-0.50976 1.12891,-0.50976 z M 20,226 v 1 h 216 v -1 z"
     id="rect7886" />
  <path
     style="fill:#5d8aa8;fill-opacity:1;stroke:none"
     d="M 28.496094,85.009766 C 25.80942,85.058271 22.985669,85.373241 20,86 v 52 h 216 v -32 c -16,0 -51,25 -61,25 -10,0 -20,-30 -35,-30 -15,0 -15,20 -35,20 C 72.734378,121 60.198845,84.437403 28.496094,85.009766 Z M 175,176 c -25,0 -20,25 -35,25 -15,0 -20,20 -40,20 -15,0 -25,-40 -80,-40 v 45 h 216 l -1,-10 c -25,0 -35,-40 -60,-40 z"
     id="path5466" />
  <g
     transform="matrix(0.6153846,0,0,0.6153846,-211.42857,-115.33705)"
     id="layer1-2"
     inkscape:label="Capa 1">
    <path
       id="path4346"
       transform="translate(376.57144,491.79797)"
       d="m 6,15 v 1 L 9.1992188,18.400391 10,18 Z"
       style="fill:#dce269;fill-opacity:1;fill-rule:evenodd;stroke:none;stroke-width:1px;stroke-linecap:butt;stroke-linejoin:miter;stroke-opacity:1"
       inkscape:connector-curvature="0" />
    <path
       id="rect4283"
       transform="translate(376.57144,491.79797)"
       d="m 6,6 v 9 l 4,3 -4,2 V 58 H 58 V 6 Z"
       style="opacity:1;fill:url(#linearGradient4291);fill-opacity:1;stroke:none"
       inkscape:connector-curvature="0" />
    <path
       id="path4378"
       transform="translate(376.57144,491.79797)"
       d="m 49,15 -34,34 9,9 H 58 V 24 Z"
       style="opacity:0.2;fill:url(#linearGradient4383);fill-opacity:1;fill-rule:evenodd;stroke:none;stroke-width:1px;stroke-linecap:butt;stroke-linejoin:miter;stroke-opacity:1"
       inkscape:connector-curvature="0" />
    <rect
       y="548.79773"
       x="382.57144"
       height="0.99999976"
       width="52"
       id="rect4293"
       style="opacity:1;fill:#dce269;fill-opacity:1;stroke:none" />
    <path
       id="path4303-6"
       d="m 427.57143,543.79797 v 1 h -1 v -1 z m -1,1 v 1 h -1 v -1 z m -1,0 h -1 v -1 h 1 z m -1,0 v 1 h -1 v -1 z m -1,0 h -1 v -1 h 1 z m -1,0 v 1 h -1 v -1 z m -1,0 h -1 v -1 h 1 z m -1,0 v 1 h -1 v -1 z m -1,0 h -1 v -1 h 1 z m -1,0 v 1 h -1 v -1 z m -1,0 h -1 v -1 h 1 z m -1,0 v 1 h -1 v -1 z m -1,0 h -1 v -1 h 1 z m -1,0 v 1 h -1 v -1 z m -1,0 h -1 v -1 h 1 z m -1,0 v 1 h -1 v -1 z"
       style="color:#000000;font-style:normal;font-variant:normal;font-weight:normal;font-stretch:normal;font-size:medium;line-height:normal;font-family:Sans;-inkscape-font-specification:Sans;text-indent:0;text-align:start;text-decoration:none;text-decoration-line:none;letter-spacing:normal;word-spacing:normal;text-transform:none;writing-mode:lr-tb;direction:ltr;baseline-shift:baseline;text-anchor:start;display:inline;overflow:visible;visibility:visible;opacity:0.6;fill:#dee372;fill-opacity:1;stroke:none;stroke-width:1;marker:none;enable-background:accumulate"
       inkscape:connector-curvature="0" />
    <path
       id="path4317"
       d="m 431.57143,543.79797 -2,2 h 2 z"
       style="fill:#e6ea97;fill-opacity:1;fill-rule:evenodd;stroke:none"
       inkscape:connector-curvature="0" />
    <path
       inkscape:connector-curvature="0"
       style="color:#000000;font-style:normal;font-variant:normal;font-weight:normal;font-stretch:normal;font-size:medium;line-height:normal;font-family:Sans;-inkscape-font-specification:Sans;text-indent:0;text-align:start;text-decoration:none;text-decoration-line:none;letter-spacing:normal;word-spacing:normal;text-transform:none;writing-mode:lr-tb;direction:ltr;baseline-shift:baseline;text-anchor:start;display:inline;overflow:visible;visibility:visible;opacity:0.6;fill:#dee372;fill-opacity:1;stroke:none;stroke-width:1;marker:none;enable-background:accumulate"
       d="m 387.57143,543.79797 v 1 h 1 v -1 z m 1,1 v 1 h 1 v -1 z m 1,0 h 1 v -1 h -1 z m 1,0 v 1 h 1 v -1 z m 1,0 h 1 v -1 h -1 z m 1,0 v 1 h 1 v -1 z m 1,0 h 1 v -1 h -1 z m 1,0 v 1 h 1 v -1 z m 1,0 h 1 v -1 h -1 z m 1,0 v 1 h 1 v -1 z m 1,0 h 1 v -1 h -1 z m 1,0 v 1 h 1 v -1 z m 1,0 h 1 v -1 h -1 z m 1,0 v 1 h 1 v -1 z m 1,0 h 1 v -1 h -1 z m 1,0 v 1 h 1 v -1 z"
       id="path4331" />
    <path
       inkscape:connector-curvature="0"
       style="color:#000000;font-style:normal;font-variant:normal;font-weight:normal;font-stretch:normal;font-size:medium;line-height:normal;font-family:Sans;-inkscape-font-specification:Sans;text-indent:0;text-align:start;text-decoration:none;text-decoration-line:none;letter-spacing:normal;word-spacing:normal;text-transform:none;writing-mode:lr-tb;direction:ltr;baseline-shift:baseline;text-anchor:start;display:inline;overflow:visible;visibility:visible;opacity:0.6;fill:#dee372;fill-opacity:1;stroke:none;stroke-width:1;marker:none;enable-background:accumulate"
       d="m 432.57143,521.79797 h -1 v -1 h 1 z m -1,-1 h -1 v -1 h 1 z m 0,-1 v -1 h 1 v 1 z m 0,-1 h -1 v -1 h 1 z m 0,-1 v -1 h 1 v 1 z m 0,-1 h -1 v -1 h 1 z m 0,-1 v -1 h 1 v 1 z m 0,-1 h -1 v -1 h 1 z m 0,-1 v -1 h 1 v 1 z m 0,-1 h -1 v -1 h 1 z m 0,-1 v -1 h 1 v 1 z m 0,-1 h -1 v -1 h 1 z m 0,-1 v -1 h 1 v 1 z m 0,-1 h -1 v -1 h 1 z m 0,-1 v -1 h 1 v 1 z m 0,-1 h -1 v -1 h 1 z"
       id="path4333" />
    <rect
       style="opacity:1;fill:url(#linearGradient4337);fill-opacity:1;stroke:none"
       id="rect4335"
       width="34"
       height="34"
       x="391.57144"
       y="506.79797" />
    <path
       sodipodi:nodetypes="ccccccccccccccccccccccccccccccccccccccccccccc"
       inkscape:connector-curvature="0"
       id="path4339"
       transform="translate(376.57144,491.79797)"
       d="m 54,40 v 1 h 1 v -1 z m 1,1 v 1 h 1 v -1 z m 0,1 h -1 v 1 h 1 z m 0,1 v 1 h 1 v -1 z m 0,1 h -1 v 1 h 1 z m 0,1 v 1 h 1 v -1 z m 0,1 h -1 v 1 h 1 z m 0,1 v 1 h 1 v -1 z m 0,1 h -1 v 1 h 1 z"
       style="color:#000000;font-style:normal;font-variant:normal;font-weight:normal;font-stretch:normal;font-size:medium;line-height:normal;font-family:Sans;-inkscape-font-specification:Sans;text-indent:0;text-align:start;text-decoration:none;text-decoration-line:none;letter-spacing:normal;word-spacing:normal;text-transform:none;writing-mode:lr-tb;direction:ltr;baseline-shift:baseline;text-anchor:start;display:inline;overflow:visible;visibility:visible;opacity:0.6;fill:#dee372;fill-opacity:1;stroke:none;stroke-width:1;marker:none;enable-background:accumulate" />
    <path
       id="path5074"
       d="m 404.57144,516.89758 v 1.5 l 7.2168,7.18359 -1.2168,1.2168 7,7 v -10 l -2,-2 -2.5332,2.5332 -7.4668,-7.43359 z m -2,5.40039 v 2.19922 l 4,3.97461 v 2.32617 l 7,7 h 4 v -1.58008 l -14,-13.91992 z"
       style="opacity:0.2;fill:url(#linearGradient5093);fill-opacity:1;fill-rule:evenodd;stroke:none;stroke-width:1px;stroke-linecap:butt;stroke-linejoin:miter;stroke-opacity:1"
       inkscape:connector-curvature="0" />
    <path
       inkscape:connector-curvature="0"
       id="path4783"
       d="m 405.07144,516.79797 c -0.48475,0 -0.875,0.39025 -0.875,0.875 0,0.48475 0.39025,0.875 0.875,0.875 0.48475,0 0.875,-0.39025 0.875,-0.875 0,-0.48475 -0.39025,-0.875 -0.875,-0.875 z m 5.5,0 -2,2 3,3 -3,3 2,2 3,-3 2,-2 -2,-2 z m -7.6875,5.25 c -0.72712,0 -1.3125,0.58537 -1.3125,1.3125 0,0.72712 0.58538,1.3125 1.3125,1.3125 0.72713,0 1.3125,-0.58538 1.3125,-1.3125 0,-0.72713 -0.58537,-1.3125 -1.3125,-1.3125 z m 3.9375,5.25 c -0.9695,0 -1.75,0.7805 -1.75,1.75 0,0.9695 0.7805,1.75 1.75,1.75 0.9695,0 1.75,-0.7805 1.75,-1.75 0,-0.9695 -0.7805,-1.75 -1.75,-1.75 z"
       style="opacity:1;fill:url(#linearGradient5010);fill-opacity:1;stroke:none" />
    <rect
       y="539.79797"
       x="391.57144"
       height="0.99999636"
       width="34"
       id="rect4167"
       style="opacity:1;fill:#616365;fill-opacity:1;stroke:none" />
    <rect
       y="535.79797"
       x="393.57144"
       height="1"
       width="8"
       id="rect4172"
       style="opacity:1;fill:#484a4b;fill-opacity:1;stroke:none" />
    <rect
       y="537.79797"
       x="393.57144"
       height="1"
       width="4"
       id="rect4174"
       style="opacity:1;fill:#484a4b;fill-opacity:1;stroke:none" />
    <path
       id="rect4176"
       transform="translate(376.57144,491.79797)"
       d="m 42,16 v 1 h 1 1 v -1 h -1 z m 2,1 v 1 h -1 -1 v 1 1 1 h 1 v -1 -1 h 1 v 1 1 h 1 1 1 v -1 h -1 v -1 h -1 v -1 h 1 v -1 h -1 z m 2,0 h 1 v -1 h -1 z m 0,1 v 1 h 1 v -1 z"
       style="opacity:1;fill:#484a4b;fill-opacity:1;stroke:none"
       inkscape:connector-curvature="0" />
  </g>
  <g
     transform="matrix(0.6956522,0,0,0.6956522,-244.22362,-247.46813)"
     id="layer1-1"
     inkscape:label="Capa 1">
    <rect
       ry="0"
       y="497.798"
       x="385.57144"
       height="51.999908"
       width="45.999985"
       id="rect4139"
       style="opacity:1;fill:url(#linearGradient4158);fill-opacity:1;stroke:none" />
    <path
       inkscape:connector-curvature="0"
       id="path4795"
       d="m 387.57143,543.79799 6,6 h 37 l 1,-2e-5 v -46.99998 -1 l -2,-2 v 44 z"
       style="opacity:0.2;fill:url(#linearGradient4881);fill-opacity:1;fill-rule:evenodd;stroke:none;stroke-width:1px;stroke-linecap:butt;stroke-linejoin:miter;stroke-opacity:1" />
    <rect
       y="548.79797"
       x="385.57144"
       height="1.0000228"
       width="45.999985"
       id="rect4492"
       style="opacity:1;fill:#737b81;fill-opacity:1;stroke:none;stroke-width:2.8;stroke-miterlimit:4;stroke-dasharray:none;stroke-opacity:0.550265" />
    <rect
       y="545.7981"
       x="393.57144"
       height="3.999939"
       width="30"
       id="rect4671"
       style="opacity:1;fill:#292c2e;fill-opacity:1;stroke:none;stroke-width:0.1;stroke-miterlimit:4;stroke-dasharray:none;stroke-opacity:1" />
    <rect
       style="opacity:1;fill:#abb9be;fill-opacity:1;stroke:none;stroke-width:0.1;stroke-miterlimit:4;stroke-dasharray:none;stroke-opacity:1"
       id="rect4963"
       width="15.599988"
       height="15.599988"
       x="400.77151"
       y="506.89804"
       ry="7.7999926" />
    <path
       transform="translate(376.57144,491.79797)"
       id="path4648"
       d="M 11,8 V 52 H 32 53 V 8 H 32 Z"
       style="fill:url(#linearGradient4659);fill-opacity:1;fill-rule:evenodd;stroke:none;stroke-width:1px;stroke-linecap:butt;stroke-linejoin:miter;stroke-opacity:1"
       inkscape:connector-curvature="0" />
    <rect
       y="532.79822"
       x="390.57144"
       height="5.0000229"
       width="11.999987"
       id="rect4985"
       style="opacity:1;fill:#fdbc4a;fill-opacity:1;stroke:none;stroke-width:0.1;stroke-miterlimit:4;stroke-dasharray:none;stroke-opacity:1" />
    <rect
       y="533.79822"
       x="391.57144"
       height="1.0000228"
       width="9.9999866"
       id="rect5119"
       style="opacity:1;fill:#ffffff;fill-opacity:1;stroke:none;stroke-width:0.1;stroke-miterlimit:4;stroke-dasharray:none;stroke-opacity:1" />
    <rect
       y="535.79846"
       x="391.57144"
       height="1.0000228"
       width="7.9999866"
       id="rect5121"
       style="opacity:1;fill:#ffffff;fill-opacity:1;stroke:none;stroke-width:0.1;stroke-miterlimit:4;stroke-dasharray:none;stroke-opacity:1" />
    <rect
       y="548.79797"
       x="393.57144"
       height="1"
       width="29.999987"
       id="rect4194"
       style="opacity:1;fill:#202324;fill-opacity:1;stroke:none;stroke-opacity:1" />
    <rect
       ry="9.6193602e-05"
       y="546.79797"
       x="395.5715"
       height="1"
       width="1.9999866"
       id="rect4544"
       style="opacity:1;fill:#f9cf8d;fill-opacity:1;stroke:none;stroke-opacity:1" />
    <rect
       ry="9.6193602e-05"
       y="547.79797"
       x="395.5715"
       height="1"
       width="1.9999866"
       id="rect4546"
       style="opacity:1;fill:#f6b44d;fill-opacity:1;stroke:none;stroke-opacity:1" />
    <rect
       ry="9.6193602e-05"
       y="546.79797"
       x="419.5715"
       height="1"
       width="1.9999866"
       id="rect4544-0"
       style="opacity:1;fill:#f9cf8d;fill-opacity:1;stroke:none;stroke-opacity:1" />
    <rect
       ry="9.6193602e-05"
       y="547.79797"
       x="419.5715"
       height="1"
       width="1.9999866"
       id="rect4546-7"
       style="opacity:1;fill:#f6b44d;fill-opacity:1;stroke:none;stroke-opacity:1" />
    <rect
       ry="9.6193602e-05"
       y="546.79797"
       x="398.5715"
       height="1"
       width="1.9999866"
       id="rect4544-6"
       style="opacity:1;fill:#f9cf8d;fill-opacity:1;stroke:none;stroke-opacity:1" />
    <rect
       ry="9.6193602e-05"
       y="547.79797"
       x="398.5715"
       height="1"
       width="1.9999866"
       id="rect4546-5"
       style="opacity:1;fill:#f6b44d;fill-opacity:1;stroke:none;stroke-opacity:1" />
    <rect
       ry="9.6193602e-05"
       y="546.79797"
       x="401.5715"
       height="1"
       width="1.9999866"
       id="rect4544-1"
       style="opacity:1;fill:#f9cf8d;fill-opacity:1;stroke:none;stroke-opacity:1" />
    <rect
       ry="9.6193602e-05"
       y="547.79797"
       x="401.5715"
       height="1"
       width="1.9999866"
       id="rect4546-3"
       style="opacity:1;fill:#f6b44d;fill-opacity:1;stroke:none;stroke-opacity:1" />
    <rect
       ry="9.6193602e-05"
       y="546.79797"
       x="407.57144"
       height="1"
       width="1.9999866"
       id="rect4544-06"
       style="opacity:1;fill:#f9cf8d;fill-opacity:1;stroke:none;stroke-opacity:1" />
    <rect
       ry="9.6193602e-05"
       y="547.79797"
       x="407.57144"
       height="1"
       width="1.9999866"
       id="rect4546-6"
       style="opacity:1;fill:#f6b44d;fill-opacity:1;stroke:none;stroke-opacity:1" />
    <rect
       ry="9.6193602e-05"
       y="546.79797"
       x="416.5715"
       height="1"
       width="1.9999866"
       id="rect4544-9"
       style="opacity:1;fill:#f9cf8d;fill-opacity:1;stroke:none;stroke-opacity:1" />
    <rect
       ry="9.6193602e-05"
       y="547.79797"
       x="416.5715"
       height="1"
       width="1.9999866"
       id="rect4546-0"
       style="opacity:1;fill:#f6b44d;fill-opacity:1;stroke:none;stroke-opacity:1" />
    <rect
       ry="9.6193602e-05"
       y="546.79797"
       x="413.5715"
       height="1"
       width="1.9999866"
       id="rect4544-8"
       style="opacity:1;fill:#f9cf8d;fill-opacity:1;stroke:none;stroke-opacity:1" />
    <rect
       ry="9.6193602e-05"
       y="547.79797"
       x="413.5715"
       height="1"
       width="1.9999866"
       id="rect4546-55"
       style="opacity:1;fill:#f6b44d;fill-opacity:1;stroke:none;stroke-opacity:1" />
    <rect
       ry="9.6193602e-05"
       y="546.79797"
       x="410.5715"
       height="1"
       width="1.9999866"
       id="rect4544-8-8"
       style="opacity:1;fill:#f9cf8d;fill-opacity:1;stroke:none;stroke-opacity:1" />
    <rect
       ry="9.6193602e-05"
       y="547.79797"
       x="410.5715"
       height="1"
       width="1.9999866"
       id="rect4546-55-5"
       style="opacity:1;fill:#f6b44d;fill-opacity:1;stroke:none;stroke-opacity:1" />
    <rect
       ry="9.6193602e-05"
       y="546.79797"
       x="404.5715"
       height="1"
       width="1.9999866"
       id="rect4544-8-89"
       style="opacity:1;fill:#f9cf8d;fill-opacity:1;stroke:none;stroke-opacity:1" />
    <rect
       ry="9.6193602e-05"
       y="547.79797"
       x="404.5715"
       height="1"
       width="1.9999866"
       id="rect4546-55-7"
       style="opacity:1;fill:#f6b44d;fill-opacity:1;stroke:none;stroke-opacity:1" />
    <rect
       y="532.79797"
       x="414.57144"
       height="0.99999231"
       width="12.999987"
       id="rect4979"
       style="color:#4d4d4d;opacity:1;fill:currentColor;fill-opacity:1;stroke:none;stroke-width:0.1;stroke-miterlimit:4;stroke-dasharray:none;stroke-opacity:1"
       class="ColorScheme-Text" />
    <rect
       y="534.79803"
       x="414.57144"
       height="1"
       width="13.000044"
       id="rect4981"
       style="color:#4d4d4d;opacity:1;fill:currentColor;fill-opacity:1;stroke:none;stroke-width:0.1;stroke-miterlimit:4;stroke-dasharray:none;stroke-opacity:1"
       class="ColorScheme-Text" />
    <rect
       y="536.79822"
       x="414.57144"
       height="1"
       width="13.000013"
       id="rect4983"
       style="color:#4d4d4d;opacity:1;fill:currentColor;fill-opacity:1;stroke:none;stroke-width:0.1;stroke-miterlimit:4;stroke-dasharray:none;stroke-opacity:1"
       class="ColorScheme-Text" />
    <path
       transform="translate(376.57144,491.79797)"
       id="rect4200"
       d="m 18.707031,14.292969 -1.414062,1.414062 8,8 L 25,24 55,54 V 44 L 30,19 26.707031,22.292969 Z m -2.146484,6.146484 -2.121094,2.121094 5.5,5.5 -1.353515,1.353515 L 47.169922,58 h 6.953125 z"
       style="opacity:0.2;fill:url(#linearGradient4231);fill-opacity:1;stroke:none;stroke-opacity:1"
       inkscape:connector-curvature="0" />
    <g
       style="fill:url(#linearGradient4793);fill-opacity:1"
       inkscape:label="Capa 1"
       id="layer1-7"
       transform="translate(387.57144,-527.56423)">
      <path
         inkscape:connector-curvature="0"
         style="opacity:1;fill:url(#linearGradient4321);fill-opacity:1;stroke:none"
         d="M 7,3 C 6.446,3 6,3.446 6,4 6,4.554 6.446,5 7,5 7.554,5 8,4.554 8,4 8,3.446 7.554,3 7,3 Z m 7,0 -2,2 3,3 -3,3 2,2 3,-3 2,-2 z M 4.5,9 C 3.669,9 3,9.669 3,10.5 3,11.331 3.669,12 4.5,12 5.331,12 6,11.331 6,10.5 6,9.669 5.331,9 4.5,9 Z M 9,15 c -1.108,0 -2,0.892 -2,2 0,1.108 0.892,2 2,2 1.108,0 2,-0.892 2,-2 0,-1.108 -0.892,-2 -2,-2 z"
         transform="translate(0,1030.3622)"
         id="rect4231" />
    </g>
  </g>
</svg>
