<?xml version="1.0" encoding="UTF-8" standalone="no"?>
<svg
   xmlns:dc="http://purl.org/dc/elements/1.1/"
   xmlns:cc="http://creativecommons.org/ns#"
   xmlns:rdf="http://www.w3.org/1999/02/22-rdf-syntax-ns#"
   xmlns:svg="http://www.w3.org/2000/svg"
   xmlns="http://www.w3.org/2000/svg"
   xmlns:xlink="http://www.w3.org/1999/xlink"
   xmlns:sodipodi="http://sodipodi.sourceforge.net/DTD/sodipodi-0.dtd"
   xmlns:inkscape="http://www.inkscape.org/namespaces/inkscape"
   viewBox="0 0 256 256"
   id="svg2"
   version="1.1"
   inkscape:version="1.0.2 (e86c870879, 2021-01-15)"
   sodipodi:docname="org.kde.plasma.systemmonitor.memory.svg"
   width="273.06668"
   height="273.06668">
  <metadata
     id="metadata10">
    <rdf:RDF>
      <cc:Work
         rdf:about="">
        <dc:format>image/svg+xml</dc:format>
        <dc:type
           rdf:resource="http://purl.org/dc/dcmitype/StillImage" />
        <dc:title />
      </cc:Work>
    </rdf:RDF>
  </metadata>
  <sodipodi:namedview
     pagecolor="#ffffff"
     bordercolor="#666666"
     borderopacity="1"
     objecttolerance="10"
     gridtolerance="10"
     guidetolerance="10"
     inkscape:pageopacity="0"
     inkscape:pageshadow="2"
     inkscape:window-width="1920"
     inkscape:window-height="1007"
     id="namedview8"
     showgrid="false"
     inkscape:zoom="2.6074563"
     inkscape:cx="63.449548"
     inkscape:cy="138.40443"
     inkscape:window-x="0"
     inkscape:window-y="0"
     inkscape:window-maximized="1"
     inkscape:current-layer="svg2"
     inkscape:document-rotation="0" />
  <defs
     id="defs4">
    <style
       id="current-color-scheme"
       type="text/css">
      .ColorScheme-Text {
        color:#4d4d4d;
      }
      .ColorScheme-Background {
        color:#eff0f1;
      }
      .ColorScheme-Highlight {
        color:#3daee9;
      }
      .ColorScheme-ViewText {
        color:#31363b;
      }
      .ColorScheme-ViewBackground {
        color:#fcfcfc;
      }
      .ColorScheme-ViewHover {
        color:#93cee9;
      }
      .ColorScheme-ViewFocus{
        color:#3daee9;
      }
      .ColorScheme-ButtonText {
        color:#31363b;
      }
      .ColorScheme-ButtonBackground {
        color:#eff0f1;
      }
      .ColorScheme-ButtonHover {
        color:#93cee9;
      }
      .ColorScheme-ButtonFocus{
        color:#3daee9;
      }
      </style>
    <linearGradient
       inkscape:collect="always"
       xlink:href="#linearGradient4303"
       id="linearGradient5329"
       gradientUnits="userSpaceOnUse"
       gradientTransform="matrix(1.1250015,0,0,1,-59.071952,-8.0000193)"
       x1="409.57144"
       y1="543.79797"
       x2="409.57144"
       y2="503.798" />
    <linearGradient
       id="linearGradient4303"
       inkscape:collect="always">
      <stop
         id="stop4305"
         offset="0"
         style="stop-color:#c6cdd1;stop-opacity:1" />
      <stop
         id="stop4307"
         offset="1"
         style="stop-color:#e0e5e7;stop-opacity:1" />
    </linearGradient>
    <linearGradient
       gradientUnits="userSpaceOnUse"
       y2="532.79797"
       x2="419.57144"
       y1="512.79797"
       x1="399.57144"
       id="linearGradient4881-9"
       xlink:href="#linearGradient4400"
       inkscape:collect="always" />
    <linearGradient
       id="linearGradient4400"
       inkscape:collect="always">
      <stop
         id="stop4402"
         offset="0"
         style="stop-color:#020303;stop-opacity:1" />
      <stop
         id="stop4404"
         offset="1"
         style="stop-color:#424649;stop-opacity:0" />
    </linearGradient>
    <linearGradient
       gradientUnits="userSpaceOnUse"
       y2="8.0000267"
       x2="31.999989"
       y1="52.000027"
       x1="31.999989"
       id="linearGradient4659-6"
       xlink:href="#linearGradient4903"
       inkscape:collect="always" />
    <linearGradient
       inkscape:collect="always"
       id="linearGradient4903">
      <stop
         style="stop-color:#eef1f2;stop-opacity:1"
         offset="0"
         id="stop4905" />
      <stop
         style="stop-color:#f9fafb;stop-opacity:1"
         offset="1"
         id="stop4907" />
    </linearGradient>
    <linearGradient
       gradientUnits="userSpaceOnUse"
       y2="41"
       x2="42.999985"
       y1="21"
       x1="22.999987"
       id="linearGradient4231-8"
       xlink:href="#linearGradient4400"
       inkscape:collect="always" />
    <linearGradient
       gradientUnits="userSpaceOnUse"
       y2="1033.3622"
       x2="10.999989"
       y1="1050.3622"
       x1="10.999989"
       id="linearGradient4793-0"
       xlink:href="#linearGradient4159"
       inkscape:collect="always" />
    <linearGradient
       inkscape:collect="always"
       id="linearGradient4159">
      <stop
         style="stop-color:#2a2c2f;stop-opacity:1"
         offset="0"
         id="stop4161" />
      <stop
         style="stop-color:#424649;stop-opacity:1"
         offset="1"
         id="stop4163" />
    </linearGradient>
    <linearGradient
       gradientTransform="translate(-1.6503906e-6,-29)"
       gradientUnits="userSpaceOnUse"
       y2="497.79797"
       x2="408.57144"
       y1="549.79797"
       x1="408.57144"
       id="linearGradient4291"
       xlink:href="#linearGradient4251-0"
       inkscape:collect="always" />
    <linearGradient
       inkscape:collect="always"
       id="linearGradient4251-0">
      <stop
         style="stop-color:#63984b;stop-opacity:1"
         offset="0"
         id="stop4253-4" />
      <stop
         style="stop-color:#8fc278;stop-opacity:1"
         offset="1"
         id="stop4255-2" />
    </linearGradient>
    <linearGradient
       gradientTransform="translate(7.9999992,-11)"
       y2="527.79797"
       x2="417.57144"
       y1="518.79797"
       x1="408.57144"
       gradientUnits="userSpaceOnUse"
       id="linearGradient4259"
       xlink:href="#linearGradient4227"
       inkscape:collect="always" />
    <linearGradient
       inkscape:collect="always"
       id="linearGradient4227">
      <stop
         style="stop-color:#292c2f;stop-opacity:1"
         offset="0"
         id="stop4229" />
      <stop
         style="stop-color:#000000;stop-opacity:0;"
         offset="1"
         id="stop4231" />
    </linearGradient>
    <linearGradient
       y2="527.79797"
       x2="417.57144"
       y1="518.79797"
       x1="408.57144"
       gradientTransform="translate(15.999999,-11)"
       gradientUnits="userSpaceOnUse"
       id="linearGradient4263"
       xlink:href="#linearGradient4227"
       inkscape:collect="always" />
    <linearGradient
       gradientTransform="translate(-8.2519529e-7,-11)"
       gradientUnits="userSpaceOnUse"
       y2="527.79797"
       x2="417.57144"
       y1="518.79797"
       x1="408.57144"
       id="linearGradient4184"
       xlink:href="#linearGradient4227"
       inkscape:collect="always" />
    <linearGradient
       gradientTransform="matrix(0.85714287,0,0,0.8888889,60.653035,46.644314)"
       gradientUnits="userSpaceOnUse"
       y2="518.79797"
       x2="428.57144"
       y1="527.79797"
       x1="428.57144"
       id="linearGradient4183"
       xlink:href="#linearGradient4159"
       inkscape:collect="always" />
    <linearGradient
       gradientTransform="translate(-8.2519529e-7,-11)"
       gradientUnits="userSpaceOnUse"
       y2="519.79797"
       x2="398.57144"
       y1="526.79797"
       x1="398.57144"
       id="linearGradient4455"
       xlink:href="#linearGradient4903"
       inkscape:collect="always" />
    <linearGradient
       y2="518.79797"
       x2="428.57144"
       y1="527.79797"
       x1="428.57144"
       gradientTransform="matrix(0.85714287,0,0,0.8888889,52.653035,46.644314)"
       gradientUnits="userSpaceOnUse"
       id="linearGradient4281"
       xlink:href="#linearGradient4159"
       inkscape:collect="always" />
    <linearGradient
       y2="518.79797"
       x2="428.57144"
       y1="527.79797"
       x1="428.57144"
       gradientTransform="matrix(0.85714287,0,0,0.8888889,44.653035,46.644314)"
       gradientUnits="userSpaceOnUse"
       id="linearGradient4324"
       xlink:href="#linearGradient4159"
       inkscape:collect="always" />
    <linearGradient
       y2="497.79797"
       x2="408.57144"
       y1="549.79797"
       x1="408.57144"
       gradientTransform="translate(-1.6503906e-6,-7)"
       gradientUnits="userSpaceOnUse"
       id="linearGradient4304"
       xlink:href="#linearGradient4251-0"
       inkscape:collect="always" />
    <linearGradient
       y2="527.79797"
       x2="417.57144"
       y1="518.79797"
       x1="408.57144"
       gradientTransform="translate(7.9999992,11)"
       gradientUnits="userSpaceOnUse"
       id="linearGradient4306"
       xlink:href="#linearGradient4227"
       inkscape:collect="always" />
    <linearGradient
       y2="527.79797"
       x2="417.57144"
       y1="518.79797"
       x1="408.57144"
       gradientTransform="translate(15.999999,11)"
       gradientUnits="userSpaceOnUse"
       id="linearGradient4308"
       xlink:href="#linearGradient4227"
       inkscape:collect="always" />
    <linearGradient
       y2="527.79797"
       x2="417.57144"
       y1="518.79797"
       x1="408.57144"
       gradientTransform="translate(-8.2519529e-7,11)"
       gradientUnits="userSpaceOnUse"
       id="linearGradient4310"
       xlink:href="#linearGradient4227"
       inkscape:collect="always" />
    <linearGradient
       y2="518.79797"
       x2="428.57144"
       y1="527.79797"
       x1="428.57144"
       gradientTransform="matrix(0.85714287,0,0,0.8888889,60.653035,68.644314)"
       gradientUnits="userSpaceOnUse"
       id="linearGradient4312"
       xlink:href="#linearGradient4159"
       inkscape:collect="always" />
    <linearGradient
       y2="519.79797"
       x2="398.57144"
       y1="526.79797"
       x1="398.57144"
       gradientTransform="translate(-8.2519529e-7,11)"
       gradientUnits="userSpaceOnUse"
       id="linearGradient4314"
       xlink:href="#linearGradient4903"
       inkscape:collect="always" />
    <linearGradient
       y2="518.79797"
       x2="428.57144"
       y1="527.79797"
       x1="428.57144"
       gradientTransform="matrix(0.85714287,0,0,0.8888889,52.653035,68.644314)"
       gradientUnits="userSpaceOnUse"
       id="linearGradient4316"
       xlink:href="#linearGradient4159"
       inkscape:collect="always" />
    <linearGradient
       y2="518.79797"
       x2="428.57144"
       y1="527.79797"
       x1="428.57144"
       gradientTransform="matrix(0.85714287,0,0,0.8888889,44.653035,68.644314)"
       gradientUnits="userSpaceOnUse"
       id="linearGradient4318"
       xlink:href="#linearGradient4159"
       inkscape:collect="always" />
    <linearGradient
       inkscape:collect="always"
       xlink:href="#linearGradient4159"
       id="linearGradient4399"
       gradientUnits="userSpaceOnUse"
       x1="10.999989"
       y1="1050.3622"
       x2="10.999989"
       y2="1033.3622" />
  </defs>
  <path
     style="fill:currentColor;fill-opacity:0.5;stroke:none"
     d="m 16,10 h 224 c 3.324,0 6,2.676 6,6 v 224 c 0,3.324 -2.676,6 -6,6 H 16 c -3.324,0 -6,-2.676 -6,-6 V 16 c 0,-3.324 2.676,-6 6,-6 z"
     class="ColorScheme-ButtonText"
     id="rect4240" />
  <path
     style="fill:currentColor;fill-opacity:1;stroke:none"
     d="m 16,12 h 224 c 2.216,0 4,1.784 4,4 v 224 c 0,2.216 -1.784,4 -4,4 H 16 c -2.216,0 -4,-1.784 -4,-4 V 16 c 0,-2.216 1.784,-4 4,-4 z"
     class="ColorScheme-Background"
     id="rect4238" />
  <path
     style="fill:currentColor;fill-opacity:1;stroke:none"
     class="ColorScheme-Text"
     d="m 88.951172,28.369141 c -0.497233,0 -0.960205,0.05745 -1.388672,0.173828 -0.428467,0.116373 -0.816895,0.293213 -1.166016,0.53125 -0.349121,0.232747 -0.623209,0.548584 -0.824218,0.945312 -0.201009,0.396729 -0.302735,0.85018 -0.302735,1.363281 0,0.74585 0.193929,1.333252 0.580078,1.761719 0.386149,0.423177 0.971029,0.783854 1.753907,1.080078 l 1.888672,0.720703 c 0.740559,0.285646 1.236328,0.569255 1.490234,0.84961 0.259196,0.275065 0.388672,0.690674 0.388672,1.246094 0,0.481364 -0.114909,0.886881 -0.347656,1.214843 -0.227458,0.322673 -0.523682,0.554444 -0.888672,0.697266 -0.364991,0.137533 -0.788168,0.207031 -1.269532,0.207031 -0.592448,0 -1.209554,-0.106771 -1.849609,-0.318359 -0.634766,-0.211589 -1.205078,-0.500243 -1.712891,-0.865235 v 1.253907 c 0.327963,0.290934 0.821208,0.537272 1.482422,0.738281 0.661214,0.201009 1.347819,0.300781 2.056641,0.300781 0.396728,0 0.770589,-0.0328 1.125,-0.101562 0.3597,-0.06877 0.707765,-0.183106 1.041015,-0.341797 0.333253,-0.163981 0.617432,-0.368001 0.855469,-0.611328 0.238037,-0.243327 0.429444,-0.554688 0.572266,-0.935547 0.142822,-0.380859 0.214844,-0.809082 0.214844,-1.285156 0,-0.386149 -0.04932,-0.73169 -0.144532,-1.033203 -0.09521,-0.301514 -0.212646,-0.55542 -0.355468,-0.761719 -0.142823,-0.206299 -0.346843,-0.398275 -0.611329,-0.578125 -0.259195,-0.18514 -0.510579,-0.336752 -0.753906,-0.453125 -0.238037,-0.116374 -0.546875,-0.248373 -0.927734,-0.396485 l -1.826172,-0.71289 c -0.55542,-0.216879 -0.941325,-0.455648 -1.158203,-0.714844 -0.211589,-0.264486 -0.316406,-0.640299 -0.316406,-1.126953 0,-0.396729 0.114908,-0.730225 0.347656,-1 0.232747,-0.269776 0.526448,-0.459229 0.880859,-0.570313 0.354411,-0.116373 0.759929,-0.175781 1.214844,-0.175781 0.491943,0 0.982666,0.0695 1.474609,0.207031 0.497233,0.137533 0.917888,0.324463 1.261719,0.5625 l 0.507813,-0.982422 C 91.789225,28.977459 91.271322,28.760824 90.689453,28.607422 90.112874,28.44873 89.53304,28.369141 88.951172,28.369141 Z m -66.435547,0.158203 -0.230469,11.583984 h 1.31836 l 0.111328,-7.148437 v -2.738282 l 3.648437,8.59375 H 28.5625 l 3.673828,-8.498047 v 2.611329 l 0.111328,7.179687 h 1.300782 L 33.417969,28.527344 h -1.666016 l -3.769531,8.798828 -3.751953,-8.798828 z m 73.798828,0.888672 -1.054687,0.08008 -0.214844,2.220703 -1.292969,0.08789 -0.03125,0.746093 h 1.292969 v 5.044922 c 0,0.513102 0.04484,0.928711 0.134766,1.246094 0.08993,0.317383 0.251628,0.578857 0.484374,0.785156 0.238039,0.206299 0.544353,0.350342 0.919922,0.429688 0.37557,0.07935 0.868246,0.11914 1.476563,0.11914 h 0.546875 l 0.06445,-0.904297 -0.667969,-0.0332 C 97.269121,39.211835 96.818194,39.101973 96.617185,38.906254 96.416174,38.705245 96.31445,38.267501 96.31445,37.595707 v -5.044922 h 2.222656 V 31.716801 H 96.31445 Z m 14.187497,0 -1.05468,0.08008 -0.21485,2.220703 -1.29297,0.08789 -0.0312,0.746093 h 1.29297 v 5.044922 c 0,0.513102 0.0448,0.928711 0.13477,1.246094 0.0899,0.317383 0.25163,0.578857 0.48437,0.785156 0.23804,0.206299 0.54435,0.350342 0.91992,0.429688 0.37557,0.07935 0.86825,0.11914 1.47657,0.11914 h 0.54687 l 0.0625,-0.904297 -0.66601,-0.0332 c -0.70354,-0.02645 -1.15446,-0.136312 -1.35547,-0.332031 -0.20101,-0.201009 -0.30274,-0.638753 -0.30274,-1.310547 v -5.044922 h 2.22266 V 31.716801 H 110.502 Z m -71.124997,2.126953 c -1.11084,0 -2.026693,0.398519 -2.746094,1.197265 -0.719401,0.798747 -1.078125,1.869304 -1.078125,3.212891 0,1.327718 0.366293,2.380615 1.101563,3.158203 0.73527,0.772298 1.693441,1.158203 2.873047,1.158203 1.057942,0 2.001546,-0.244385 2.832031,-0.736328 l -0.277344,-0.929687 c -0.444336,0.222168 -0.845377,0.388916 -1.205078,0.5 -0.3597,0.111084 -0.760172,0.167968 -1.199219,0.167968 -0.809326,0 -1.464275,-0.258382 -1.966796,-0.771484 -0.502523,-0.518392 -0.776042,-1.310384 -0.81836,-2.378906 h 5.673828 l 0.04687,-0.667969 c 0,-1.227214 -0.276611,-2.183431 -0.832031,-2.871094 -0.55013,-0.692952 -1.351644,-1.039062 -2.404297,-1.039062 z m 8.830078,0 c -1.073812,0 -1.935302,0.47054 -2.585937,1.412109 l -0.150391,-1.238281 h -1.0625 v 8.394531 h 1.316406 v -5.117187 c 0.111084,-0.735271 0.354899,-1.325196 0.730469,-1.769532 0.380859,-0.449625 0.893718,-0.673828 1.539063,-0.673828 0.587158,0 0.988199,0.219157 1.205078,0.658203 0.216878,0.433757 0.326172,1.163249 0.326172,2.189454 v 4.71289 h 1.316406 v -4.308594 c 0.01587,-0.72998 0.04557,-1.165771 0.08789,-1.308593 0.142822,-0.629476 0.411865,-1.110108 0.808593,-1.44336 0.396729,-0.333252 0.84961,-0.5 1.357422,-0.5 0.227458,0 0.426432,0.0328 0.595703,0.101563 0.174561,0.06348 0.311605,0.165202 0.41211,0.302734 0.105794,0.137533 0.190429,0.2771 0.253906,0.419922 0.06348,0.137533 0.108317,0.319417 0.134766,0.546875 0.02645,0.227458 0.04158,0.421387 0.04687,0.580078 0.01058,0.153402 0.01563,0.357422 0.01563,0.611328 v 4.998047 h 1.318359 v -5.410156 c 0,-2.105306 -0.856445,-3.158203 -2.570313,-3.158203 -1.216634,0 -2.140055,0.567789 -2.769531,1.705078 -0.195719,-0.534261 -0.474284,-0.952393 -0.833984,-1.253906 -0.359701,-0.301514 -0.857422,-0.451172 -1.492187,-0.451172 z m 13.291016,0 c -1.232503,0 -2.200765,0.401041 -2.904297,1.205078 -0.698242,0.798747 -1.046875,1.856689 -1.046875,3.173828 0,1.2854 0.353678,2.333252 1.0625,3.142578 0.708822,0.804037 1.672038,1.205078 2.888672,1.205078 1.190185,0 2.148356,-0.403564 2.873047,-1.21289 0.724691,-0.814616 1.085937,-1.859945 1.085937,-3.134766 0,-1.317139 -0.348633,-2.375081 -1.046875,-3.173828 -0.698242,-0.804037 -1.669026,-1.205078 -2.912109,-1.205078 z m 41.910153,0 c -1.12142,0 -2.132,0.209066 -3.03125,0.626953 l 0.35743,0.966797 c 0.38613,-0.18514 0.82641,-0.32723 1.31835,-0.427735 0.49195,-0.105794 0.95044,-0.158203 1.37891,-0.158203 0.63477,0 1.09774,0.149658 1.38867,0.451172 0.29623,0.301514 0.44531,0.75944 0.44531,1.373047 v 0.824219 h -1.34179 c -1.34888,0 -2.33228,0.216064 -2.95117,0.644531 -0.61361,0.423177 -0.91993,1.088216 -0.91993,1.998047 0,0.761719 0.23178,1.356689 0.69727,1.785156 0.47078,0.428467 1.09294,0.642578 1.86523,0.642578 1.15316,0 2.0892,-0.440835 2.8086,-1.324219 l 0.14258,1.158204 h 1 v -5.539063 c 0,-1.068522 -0.27409,-1.837809 -0.82422,-2.308594 -0.54484,-0.476074 -1.32365,-0.71289 -2.33399,-0.71289 z m 22.59766,0 c -0.87809,0 -1.56022,0.211588 -2.04688,0.634765 -0.48665,0.417888 -0.73046,0.968018 -0.73046,1.650391 0,0.55013 0.14152,0.998535 0.42187,1.347656 0.28036,0.343832 0.79826,0.637533 1.55469,0.88086 l 0.91992,0.294921 c 0.60832,0.195721 1.02897,0.402834 1.26172,0.625 0.23275,0.222169 0.34961,0.49821 0.34961,0.826172 0,0.476075 -0.13957,0.841797 -0.41992,1.095704 -0.28036,0.248615 -0.67579,0.373046 -1.1836,0.373046 -0.80932,0 -1.71566,-0.241292 -2.7207,-0.722656 v 1.103516 c 0.86751,0.412597 1.74357,0.617187 2.62695,0.617187 0.39673,0 0.7605,-0.04736 1.09375,-0.142578 0.33854,-0.09522 0.63981,-0.237305 0.9043,-0.427734 0.26977,-0.19043 0.48135,-0.444336 0.63477,-0.761719 0.1534,-0.322673 0.23046,-0.693441 0.23046,-1.111328 0,-0.338542 -0.0322,-0.624675 -0.0957,-0.857422 -0.0635,-0.238037 -0.17838,-0.459717 -0.34766,-0.666016 -0.16927,-0.206298 -0.40551,-0.38566 -0.70703,-0.539062 -0.29622,-0.158692 -0.6796,-0.312826 -1.15039,-0.460938 l -0.83398,-0.261718 c -0.54484,-0.174561 -0.90104,-0.338786 -1.07031,-0.492188 -0.16928,-0.153402 -0.25391,-0.402262 -0.25391,-0.746094 0,-0.407308 0.12948,-0.716145 0.38867,-0.927734 0.26449,-0.216878 0.70029,-0.324219 1.30859,-0.324219 0.68238,0 1.38917,0.184408 2.11915,0.554688 l 0.30859,-0.976563 c -0.79346,-0.391439 -1.64738,-0.585937 -2.5625,-0.585937 z m -54.986329,0.08594 c -0.507812,0 -0.990967,0.144043 -1.451172,0.429688 -0.454915,0.280355 -0.84082,0.721191 -1.158203,1.324218 L 68.265625,31.7168 h -1.054687 v 8.394531 h 1.318359 v -4.751953 c 0,-0.74585 0.231772,-1.378092 0.697265,-1.896484 0.470786,-0.518392 1.065756,-0.777344 1.785157,-0.777344 0.148112,0 0.327474,0.02018 0.539062,0.0625 l 0.05664,-1.078125 c -0.153402,-0.02645 -0.349854,-0.04102 -0.587891,-0.04102 z m 1.427735,0.08789 3.326172,8.140625 -1.238282,3.158203 1.181641,0.253906 4.419922,-11.552734 h -1.333985 l -2.394531,6.705078 -2.619141,-6.705078 z m 42.021484,0 v 5.125 c 0,1.137288 0.24886,1.995687 0.74609,2.572265 0.50253,0.57129 1.24154,0.855469 2.21485,0.855469 0.68766,0 1.23022,-0.102295 1.62695,-0.308593 0.40202,-0.211589 0.73608,-0.529947 1.00586,-0.953126 l 0.13672,1.103516 h 1.14258 v -8.394531 h -1.31836 v 4.712891 c 0,0.33325 -0.0227,0.637044 -0.0703,0.912109 -0.0476,0.275065 -0.12972,0.534017 -0.24609,0.777344 -0.11637,0.243326 -0.26798,0.447347 -0.45312,0.611328 -0.17985,0.163981 -0.41162,0.293457 -0.69727,0.388672 -0.28035,0.09521 -0.60376,0.142578 -0.96875,0.142578 -0.64534,0 -1.10832,-0.191976 -1.38867,-0.578125 -0.27507,-0.386149 -0.41211,-0.951416 -0.41211,-1.697266 v -5.269531 z m -75.060547,0.833984 c 1.333008,0 2.032227,0.903809 2.095703,2.712891 h -4.570312 c 0.07406,-0.835775 0.333008,-1.497721 0.777344,-1.984375 0.449624,-0.486654 1.014892,-0.728516 1.697265,-0.728516 z m 22.089844,0 c 0.862223,0 1.514079,0.308838 1.953125,0.927735 0.439046,0.613606 0.658203,1.43278 0.658203,2.458984 0,0.655924 -0.08968,1.230713 -0.269531,1.722656 -0.179851,0.486654 -0.471029,0.877604 -0.873047,1.173828 -0.396729,0.290935 -0.886882,0.4375 -1.46875,0.4375 -0.846354,0 -1.491211,-0.308268 -1.935547,-0.921875 -0.444336,-0.613606 -0.666016,-1.420166 -0.666016,-2.419921 0,-1.020916 0.22168,-1.837566 0.666016,-2.451172 0.444336,-0.618897 1.089193,-0.927735 1.935547,-0.927735 z m 42.759763,3.521485 h 1.00781 v 1.849609 c -0.62946,0.9257 -1.48592,1.388672 -2.57031,1.388672 -0.39673,0 -0.7277,-0.126953 -0.99219,-0.380859 -0.26448,-0.253907 -0.39648,-0.614584 -0.39648,-1.080079 0,-0.259196 0.0227,-0.47583 0.0703,-0.65039 0.0476,-0.179851 0.13477,-0.344076 0.26172,-0.492188 0.12695,-0.153401 0.30127,-0.270833 0.52344,-0.355469 0.22217,-0.08993 0.50578,-0.159423 0.84961,-0.207031 0.34383,-0.04761 0.75944,-0.07227 1.24609,-0.07227 z M 20,50 v 1 h 216 v -1 z m 203.35156,13.650391 c -0.72062,0 -1.38403,0.12907 -1.98828,0.388671 -0.60425,0.255128 -1.11165,0.607097 -1.52344,1.054688 -0.4073,0.447591 -0.72485,0.981364 -0.95312,1.603516 -0.2238,0.617675 -0.33594,1.285807 -0.33594,2.001953 0,0.716146 0.098,1.377604 0.29492,1.986328 0.20142,0.604248 0.4926,1.131917 0.87305,1.583984 0.38045,0.452067 0.86483,0.807373 1.45117,1.0625 0.58635,0.255127 1.2478,0.382813 1.98633,0.382813 1.19059,0 2.30534,-0.202637 3.34375,-0.605469 v -4.525391 h -3.22852 l -0.0488,0.941407 h 2.18359 v 2.958984 c -0.62215,0.192464 -1.30249,0.289063 -2.04102,0.289063 -0.6311,0 -1.18237,-0.09798 -1.65234,-0.294922 -0.46997,-0.19694 -0.8483,-0.477295 -1.13477,-0.839844 -0.28198,-0.367025 -0.4921,-0.793376 -0.63085,-1.28125 -0.13876,-0.49235 -0.20899,-1.04834 -0.20899,-1.666016 0,-0.778808 0.14185,-1.476074 0.42383,-2.09375 0.28198,-0.617676 0.70085,-1.108154 1.25586,-1.470703 0.55501,-0.367025 1.20565,-0.550781 1.95312,-0.550781 0.15218,0 0.29875,0.0047 0.4375,0.01367 0.14323,0.009 0.27841,0.02451 0.40821,0.04687 0.1298,0.02238 0.24528,0.04264 0.34375,0.06055 0.0985,0.0179 0.20117,0.04761 0.30859,0.08789 0.1119,0.04028 0.19906,0.07137 0.26172,0.09375 0.0671,0.02238 0.14958,0.05957 0.24805,0.113282 0.10294,0.04923 0.16984,0.08366 0.20117,0.101562 0.0358,0.0179 0.1027,0.05371 0.20117,0.107422 0.0985,0.05371 0.15454,0.0848 0.16797,0.09375 l 0.28906,-0.886719 c -0.72957,-0.505778 -1.69165,-0.757812 -2.88672,-0.757812 z m -192.234372,0.05273 -1.113282,0.08008 v 9.802735 h 1.107422 v -3.886719 c 0,-0.264079 0.01693,-0.51001 0.05273,-0.738281 0.04028,-0.228273 0.110515,-0.453939 0.208985,-0.677735 0.09847,-0.223795 0.226155,-0.415609 0.382812,-0.572265 0.156657,-0.161134 0.360677,-0.288819 0.611329,-0.382813 0.255125,-0.09847 0.547688,-0.146484 0.878906,-0.146484 0.532633,0 0.91097,0.168213 1.134765,0.503906 0.228272,0.331217 0.341797,0.848063 0.341797,1.550781 v 4.34961 h 1.115235 V 69.19531 c 0,-0.913084 -0.207357,-1.618408 -0.619141,-2.115234 -0.411784,-0.496826 -1.003011,-0.74414 -1.777344,-0.74414 -0.505778,0 -0.963785,0.09798 -1.371094,0.294921 -0.402832,0.192465 -0.732584,0.472819 -0.992187,0.839844 l 0.03906,-1.390625 z m 37.611328,0 -1.101563,0.08008 v 7.769531 c 0,0.425212 0.04997,0.778565 0.148438,1.060547 0.09847,0.277507 0.251139,0.489014 0.457031,0.636719 0.205892,0.147705 0.437663,0.250407 0.697266,0.308594 0.264077,0.05371 0.591064,0.08203 0.980468,0.08203 h 0.53125 l 0.06055,-0.765625 -0.302734,-0.01953 c -0.192464,-0.01343 -0.341797,-0.02621 -0.449219,-0.03516 -0.107422,-0.01343 -0.224284,-0.03035 -0.349609,-0.05273 -0.12085,-0.02685 -0.212728,-0.05794 -0.275391,-0.09375 -0.05819,-0.04028 -0.118978,-0.09025 -0.181641,-0.148437 -0.06266,-0.05819 -0.10791,-0.131185 -0.134765,-0.220703 -0.02238,-0.08952 -0.04264,-0.192221 -0.06055,-0.308594 -0.01343,-0.116374 -0.01953,-0.25822 -0.01953,-0.423828 z m -46.554688,0.08008 v 9.802735 h 1.181641 v -4.740235 h 2.123047 c 1.10555,0 1.910237,-0.222331 2.416015,-0.669922 0.505778,-0.452067 0.759766,-1.116862 0.759766,-1.99414 0,-0.429688 -0.07967,-0.801921 -0.236328,-1.115235 -0.152181,-0.317789 -0.373129,-0.568441 -0.664063,-0.751953 -0.290934,-0.183512 -0.62264,-0.317301 -0.99414,-0.402344 -0.371501,-0.08504 -0.791748,-0.128906 -1.261719,-0.128906 z m 29.400391,0 c -0.214844,0 -0.390544,0.06885 -0.529297,0.203125 -0.134277,0.129802 -0.201172,0.299398 -0.201172,0.509766 0,0.210368 0.0669,0.383301 0.201172,0.517578 0.138753,0.134277 0.314453,0.201172 0.529297,0.201172 0.210368,0 0.384684,-0.0669 0.523437,-0.201172 0.138754,-0.134277 0.208985,-0.30721 0.208985,-0.517578 0,-0.210368 -0.07023,-0.379964 -0.208985,-0.509766 -0.134277,-0.134277 -0.308594,-0.203125 -0.523437,-0.203125 z m 147.681641,0 c -0.23275,0.161133 -0.58333,0.324625 -1.04883,0.490235 -0.46102,0.161131 -0.85962,0.276611 -1.19531,0.34375 v 0.884765 c 0.29988,-0.04028 0.66268,-0.127441 1.08789,-0.261719 0.42969,-0.134277 0.78638,-0.27889 1.06836,-0.435546 v 7.976562 h -2.36328 v 0.804688 h 5.58593 V 72.78125 h -2.10742 v -8.998047 z m 12.41992,0 -4.38476,6.365235 v 0.966796 H 211.75 v 2.470704 h 1.06055 v -2.470704 h 1.12109 l 0.0801,-0.859375 h -1.20117 v -6.472656 z m 16.89258,0 v 9.802735 h 3.65234 c 1.13241,0 1.98373,-0.242595 2.55664,-0.730469 0.5774,-0.492351 0.86719,-1.171305 0.86719,-2.035157 0,-0.622151 -0.1696,-1.134277 -0.50976,-1.537109 -0.3357,-0.407308 -0.81535,-0.701823 -1.4375,-0.880859 0.56844,-0.21932 0.96842,-0.507162 1.20117,-0.865235 0.23722,-0.362548 0.35547,-0.8125 0.35547,-1.349609 0,-0.819092 -0.29395,-1.423096 -0.88477,-1.8125 -0.58634,-0.39388 -1.49569,-0.591797 -2.72656,-0.591797 z M 23.355469,64.669922 h 2.136719 c 0.644531,0 1.133055,0.116862 1.46875,0.349609 0.340168,0.228272 0.511718,0.620769 0.511718,1.175781 0,0.644532 -0.156006,1.095866 -0.464844,1.355469 -0.304361,0.259603 -0.822591,0.388672 -1.55664,0.388672 h -2.095703 z m 206.394531,0 h 1.88672 c 0.88175,0 1.51684,0.118245 1.90625,0.355469 0.3894,0.237223 0.58398,0.67163 0.58398,1.302734 0,0.626628 -0.17903,1.065755 -0.53711,1.316406 -0.35807,0.246175 -0.88102,0.369141 -1.57031,0.369141 H 229.75 Z m -18,0.498047 v 5.08789 h -3.35156 z M 46.988281,66.335938 c -0.743001,0 -1.318685,0.179036 -1.730469,0.537109 -0.411782,0.353597 -0.61914,0.819092 -0.61914,1.396484 0,0.465495 0.118245,0.845215 0.355469,1.140625 0.237223,0.290934 0.676351,0.540202 1.316406,0.746094 l 0.779297,0.248047 c 0.51473,0.165609 0.871419,0.341308 1.068359,0.529297 0.19694,0.187988 0.294922,0.421712 0.294922,0.699218 0,0.402834 -0.118245,0.710938 -0.355469,0.925782 -0.237223,0.210368 -0.572265,0.316406 -1.001953,0.316406 -0.684814,0 -1.452311,-0.20402 -2.302734,-0.611328 v 0.933594 c 0.734049,0.349121 1.475179,0.523437 2.222656,0.523437 0.335693,0 0.645752,-0.04053 0.927734,-0.121094 0.286459,-0.08057 0.539877,-0.202148 0.763672,-0.363281 0.228272,-0.161133 0.407308,-0.375976 0.53711,-0.644531 0.129801,-0.273031 0.195312,-0.585856 0.195312,-0.939453 0,-0.286459 -0.02637,-0.52767 -0.08008,-0.72461 -0.05371,-0.201416 -0.151693,-0.389892 -0.294922,-0.564453 -0.143229,-0.17456 -0.342529,-0.32723 -0.597656,-0.457031 -0.250651,-0.134277 -0.576253,-0.263346 -0.974609,-0.388672 l -0.705079,-0.220703 c -0.461019,-0.147705 -0.76302,-0.286214 -0.90625,-0.416016 -0.143229,-0.129801 -0.214843,-0.341878 -0.214843,-0.632812 0,-0.344645 0.110758,-0.60612 0.330078,-0.785156 0.223795,-0.183513 0.592692,-0.275391 1.107422,-0.275391 0.577392,0 1.175293,0.157389 1.792968,0.470703 l 0.261719,-0.826172 c -0.671387,-0.331217 -1.395589,-0.496093 -2.169922,-0.496093 z m 10.158203,0 c -0.989176,0 -1.79248,0.333089 -2.410156,1 -0.617676,0.662434 -0.925781,1.57316 -0.925781,2.732421 0,1.110026 0.300618,1.995769 0.900391,2.658203 0.604247,0.662436 1.413655,0.994141 2.429687,0.994141 0.434163,0 0.823324,-0.05135 1.167969,-0.154297 0.344645,-0.102946 0.593913,-0.215088 0.746094,-0.335937 l -0.208985,-0.757813 c -0.452067,0.259603 -0.951986,0.388672 -1.498047,0.388672 -0.783284,0 -1.377848,-0.256754 -1.785156,-0.771484 -0.407308,-0.51473 -0.611328,-1.188965 -0.611328,-2.021485 0,-0.877278 0.21346,-1.576497 0.638672,-2.095703 0.425211,-0.519205 0.988688,-0.777343 1.691406,-0.777344 0.555013,0 1.050212,0.12907 1.484375,0.388672 l 0.314453,-0.765625 c -0.152181,-0.102946 -0.398112,-0.207031 -0.738281,-0.314453 -0.335693,-0.111898 -0.734294,-0.167968 -1.195313,-0.167968 z m 5.875,0 c -0.948893,0 -1.803548,0.175699 -2.564453,0.529296 l 0.302735,0.820313 c 0.326741,-0.156657 0.697021,-0.278239 1.113281,-0.363281 0.41626,-0.08952 0.80542,-0.134766 1.167969,-0.134766 0.537109,0 0.929606,0.127686 1.175781,0.382812 0.250651,0.255128 0.376953,0.642904 0.376953,1.16211 v 0.697266 h -1.134766 c -1.141357,0 -1.974365,0.182373 -2.498046,0.544921 -0.519206,0.358073 -0.779297,0.92155 -0.779297,1.691407 0,0.644531 0.197915,1.14917 0.591797,1.511718 0.398355,0.362549 0.922688,0.542969 1.576171,0.542969 0.975749,0 1.768231,-0.373616 2.376953,-1.121094 l 0.121094,0.980469 h 0.845703 v -4.6875 c 0,-0.904134 -0.23177,-1.554769 -0.697265,-1.953125 -0.461019,-0.402832 -1.119711,-0.603515 -1.97461,-0.603515 z m 15.085938,0 c -0.90861,0 -1.636963,0.3986 -2.1875,1.195312 l -0.128906,-1.048828 h -0.898438 v 7.103516 h 1.113281 V 69.255859 C 76.099849,68.633708 76.30721,68.13379 76.625,67.757812 76.947266,67.37736 77.37972,67.1875 77.925781,67.1875 c 0.496826,0 0.837972,0.187093 1.021485,0.558594 0.183512,0.367024 0.27539,0.983235 0.27539,1.851562 v 3.988282 h 1.113282 v -3.644532 c 0.01343,-0.617676 0.03841,-0.988525 0.07422,-1.109375 0.12085,-0.532633 0.349854,-0.93872 0.685547,-1.220703 0.335693,-0.281982 0.71875,-0.423828 1.148438,-0.423828 0.192464,0 0.360677,0.0297 0.503906,0.08789 0.147705,0.05371 0.262614,0.139485 0.347656,0.255859 0.08952,0.116374 0.161133,0.234619 0.214844,0.355469 0.05371,0.116373 0.09286,0.270426 0.115234,0.46289 0.02238,0.192465 0.03459,0.355957 0.03906,0.490235 0.009,0.129801 0.01367,0.302734 0.01367,0.517578 v 4.228516 h 1.115234 v -4.578126 c 0,-1.781412 -0.725586,-2.671874 -2.175781,-2.671874 -1.02946,0 -1.811117,0.481038 -2.34375,1.443359 -0.165609,-0.452067 -0.400716,-0.80542 -0.705078,-1.060547 -0.304362,-0.255127 -0.72461,-0.382812 -1.261719,-0.382812 z m 11.138672,0 c -0.939942,0 -1.713542,0.337809 -2.322266,1.013671 -0.608724,0.675863 -0.914062,1.581869 -0.914062,2.71875 0,1.123454 0.311442,2.013916 0.933593,2.671875 0.622152,0.653483 1.43156,0.980469 2.429688,0.980469 0.895182,0 1.695719,-0.20874 2.398437,-0.625 l -0.236328,-0.785156 c -0.375976,0.187988 -0.715169,0.329834 -1.019531,0.423828 -0.304362,0.09399 -0.642171,0.140625 -1.013672,0.140625 -0.684814,0 -1.240804,-0.21818 -1.666015,-0.652344 -0.425213,-0.438639 -0.655599,-1.109538 -0.691407,-2.013672 h 4.800781 l 0.04102,-0.564453 c 0,-1.038411 -0.235107,-1.847819 -0.705078,-2.429687 -0.465495,-0.586345 -1.14445,-0.878906 -2.035156,-0.878906 z m 7.472656,0 c -0.90861,0 -1.638916,0.3986 -2.189453,1.195312 l -0.126953,-1.048828 h -0.900391 v 7.103516 h 1.115235 v -4.330079 c 0.09399,-0.622151 0.299397,-1.122069 0.617187,-1.498047 0.322266,-0.380452 0.756673,-0.570312 1.302734,-0.570312 0.496827,0 0.837972,0.187093 1.021485,0.558594 0.183512,0.367024 0.27539,0.983235 0.27539,1.851562 v 3.988282 h 1.113282 v -3.644532 c 0.01343,-0.617676 0.03841,-0.988525 0.07422,-1.109375 0.12085,-0.532633 0.349854,-0.93872 0.685547,-1.220703 0.335687,-0.281982 0.716797,-0.423828 1.146487,-0.423828 0.19246,0 0.36067,0.0297 0.5039,0.08789 0.14771,0.05371 0.26457,0.139485 0.34961,0.255859 0.0895,0.116374 0.16113,0.234619 0.21485,0.355469 0.0537,0.116373 0.0909,0.270426 0.11328,0.46289 0.0224,0.192465 0.0365,0.355957 0.041,0.490235 0.009,0.129801 0.0137,0.302734 0.0137,0.517578 v 4.228516 h 1.11524 v -4.578126 c 0,-1.781412 -0.72559,-2.671874 -2.17578,-2.671874 -1.029462,0 -1.811118,0.481038 -2.343751,1.443359 -0.165609,-0.452067 -0.400716,-0.80542 -0.705078,-1.060547 -0.304362,-0.255127 -0.72461,-0.382812 -1.261719,-0.382812 z m 11.24609,0 c -1.04288,0 -1.86173,0.339192 -2.45703,1.019531 -0.59082,0.675862 -0.88672,1.571045 -0.88672,2.685547 0,1.087646 0.30062,1.973388 0.90039,2.658203 0.59978,0.680338 1.4139,1.021484 2.44336,1.021484 1.00708,0 1.81649,-0.342529 2.42969,-1.027344 0.6132,-0.68929 0.91992,-1.573649 0.91992,-2.652343 0,-1.114502 -0.2959,-2.009685 -0.88672,-2.685547 -0.59082,-0.680339 -1.41105,-1.019531 -2.46289,-1.019531 z m 8.05664,0.07422 c -0.42968,0 -0.83911,0.119629 -1.22851,0.361328 -0.38493,0.237224 -0.71192,0.61084 -0.98047,1.121094 l -0.12109,-1.410156 h -0.89258 v 7.103516 h 1.11328 v -4.021485 c 0,-0.631103 0.19792,-1.164876 0.5918,-1.603515 0.39835,-0.438641 0.90104,-0.658204 1.50976,-0.658204 0.12533,0 0.278,0.01694 0.45703,0.05273 l 0.0469,-0.91211 c -0.1298,-0.02238 -0.29468,-0.0332 -0.4961,-0.0332 z m -78.874996,0.07227 2.8125,6.888672 -1.046875,2.671875 1,0.214843 3.740235,-9.77539 H 42.523438 L 40.496094,72.15625 38.28125,66.482422 Z m 13.871094,0 v 7.103516 h 1.101563 v -7.103516 z m 66.212892,0 2.8125,6.888672 -1.04688,2.671875 1,0.214843 3.73829,-9.77539 h -1.12696 l -2.02734,5.673828 -2.2168,-5.673828 z M 89.273438,67.1875 c 1.127928,0 1.717773,0.766113 1.771484,2.296875 h -3.867188 c 0.06266,-0.707194 0.282227,-1.265951 0.658204,-1.677734 0.380452,-0.411784 0.860107,-0.619141 1.4375,-0.619141 z m 18.691402,0 c 0.72958,0 1.27889,0.261475 1.65039,0.785156 0.37151,0.519206 0.5586,1.213705 0.5586,2.082032 0,0.555013 -0.0763,1.040771 -0.22852,1.457031 -0.15218,0.411784 -0.39811,0.743489 -0.73828,0.99414 -0.33569,0.246176 -0.74984,0.369141 -1.24219,0.369141 -0.71614,0 -1.26269,-0.260091 -1.63867,-0.779297 -0.37597,-0.519206 -0.56445,-1.200928 -0.56445,-2.046875 0,-0.863851 0.18848,-1.556966 0.56445,-2.076172 0.37598,-0.523681 0.92253,-0.785156 1.63867,-0.785156 z M 229.75,68.853516 h 1.91992 c 0.9668,0 1.6735,0.147949 2.1211,0.443359 0.44759,0.29541 0.67187,0.793376 0.67187,1.496094 0,0.662435 -0.19458,1.143473 -0.58398,1.443359 -0.38493,0.299886 -1.00171,0.451172 -1.84766,0.451172 H 229.75 Z M 63.740234,70.169922 h 0.853516 v 1.5625 c -0.532633,0.783284 -1.258219,1.175781 -2.175781,1.175781 -0.335694,0 -0.616048,-0.107422 -0.839844,-0.322265 -0.223796,-0.214844 -0.335938,-0.51823 -0.335937,-0.91211 0,-0.21932 0.02026,-0.403076 0.06055,-0.550781 0.04028,-0.152181 0.115235,-0.29069 0.222657,-0.416016 0.107421,-0.129801 0.253418,-0.23112 0.441406,-0.302734 0.187988,-0.07609 0.427816,-0.135498 0.71875,-0.175781 0.290934,-0.04028 0.642904,-0.05859 1.054687,-0.05859 z m 140.751956,1.933594 c 0,0.326741 -0.0919,1.469238 -0.27539,3.429687 h 0.65039 l 0.20117,-0.751953 c 0.1298,-0.496826 0.26082,-1.007568 0.39062,-1.53125 0.12981,-0.528158 0.19532,-0.820719 0.19532,-0.878906 V 72.103516 Z M 20,138 v 1 h 216 v -1 z m 5.115234,13.65039 c -0.420735,0 -0.813232,0.048 -1.175781,0.14649 -0.362549,0.0985 -0.690918,0.24975 -0.986328,0.45117 -0.29541,0.19694 -0.527181,0.46312 -0.697266,0.79883 C 22.085775,153.38256 22,153.76701 22,154.20117 c 0,0.63111 0.163493,1.12769 0.490234,1.49024 0.326742,0.35807 0.82194,0.66341 1.484375,0.91406 l 1.597657,0.60937 c 0.626627,0.2417 1.046875,0.48153 1.261718,0.71875 0.21932,0.23275 0.328125,0.58472 0.328125,1.05469 0,0.40731 -0.09798,0.74985 -0.294921,1.02734 -0.192465,0.27305 -0.443116,0.469 -0.751954,0.58985 -0.308838,0.11637 -0.66691,0.17578 -1.074218,0.17578 -0.501302,0 -1.022868,-0.0905 -1.564454,-0.26953 -0.537109,-0.17904 -1.019531,-0.42163 -1.449218,-0.73047 v 1.06055 c 0.277506,0.24617 0.69637,0.45296 1.255859,0.62304 0.559489,0.17009 1.138509,0.25586 1.738281,0.25586 0.335694,0 0.653239,-0.0297 0.953125,-0.0879 0.304362,-0.0582 0.596924,-0.15478 0.878907,-0.28906 0.281982,-0.13875 0.525146,-0.30973 0.726562,-0.51563 0.201416,-0.20589 0.361572,-0.4707 0.482422,-0.79296 0.12085,-0.32227 0.181641,-0.68506 0.181641,-1.08789 0,-0.32675 -0.04053,-0.61792 -0.121094,-0.87305 -0.08057,-0.25513 -0.181885,-0.46997 -0.302735,-0.64453 -0.120848,-0.17456 -0.29183,-0.33806 -0.515624,-0.49024 -0.21932,-0.15665 -0.43278,-0.28239 -0.638672,-0.38086 -0.201416,-0.0985 -0.462891,-0.21061 -0.785157,-0.33593 l -1.544921,-0.60547 c -0.469972,-0.18351 -0.796957,-0.3842 -0.980469,-0.60352 -0.179037,-0.22379 -0.267578,-0.54134 -0.267578,-0.95312 0,-0.3357 0.09798,-0.61743 0.294921,-0.84571 0.196941,-0.22827 0.446208,-0.39038 0.746094,-0.48437 0.299886,-0.0985 0.642416,-0.14649 1.027344,-0.14649 0.41626,0 0.831787,0.0575 1.248047,0.17383 0.420736,0.11638 0.777425,0.27514 1.068359,0.47657 l 0.429688,-0.83204 c -0.384929,-0.23722 -0.824056,-0.42098 -1.316406,-0.55078 -0.487875,-0.13427 -0.978353,-0.20117 -1.470704,-0.20117 z m 163.914066,0 c -0.50131,0 -0.99455,0.073 -1.48242,0.2207 -0.48788,0.14323 -0.88176,0.32561 -1.18165,0.54493 l 0.32813,0.85156 c 0.30884,-0.20142 0.66081,-0.36491 1.05469,-0.49024 0.39835,-0.12532 0.78418,-0.1875 1.16015,-0.1875 0.17009,0 0.33358,0.0155 0.49024,0.0469 0.15665,0.0268 0.32015,0.0829 0.49023,0.16797 0.17009,0.0806 0.31665,0.1866 0.4375,0.3164 0.12085,0.12533 0.22022,0.29631 0.30078,0.51563 0.0806,0.21932 0.1211,0.47331 0.1211,0.75976 0,0.26408 -0.0264,0.50529 -0.0801,0.72461 -0.0492,0.21485 -0.1425,0.43579 -0.28125,0.66407 -0.13875,0.22827 -0.26172,0.41202 -0.36914,0.55078 -0.10742,0.13875 -0.28508,0.35221 -0.53125,0.63867 l -3.16211,3.73242 0.17383,0.87891 h 5.24414 l 0.0605,-0.80469 h -4.22265 l 2.63086,-3.08203 c 0.31779,-0.3715 0.56372,-0.67684 0.73828,-0.91406 0.17904,-0.23723 0.34253,-0.49065 0.49023,-0.76368 0.15218,-0.2775 0.25489,-0.55175 0.3086,-0.82031 0.0582,-0.26855 0.0879,-0.57194 0.0879,-0.91211 0,-0.3894 -0.0575,-0.73999 -0.17383,-1.04883 -0.11637,-0.31331 -0.26904,-0.56534 -0.45703,-0.75781 -0.18799,-0.19694 -0.40756,-0.35905 -0.6582,-0.48437 -0.25067,-0.1298 -0.50131,-0.21835 -0.75196,-0.26758 -0.24617,-0.0537 -0.50154,-0.0801 -0.76562,-0.0801 z m 8.16406,0 c -0.71615,0 -1.32487,0.21151 -1.82617,0.63672 -0.5013,0.42074 -0.87492,1.00781 -1.1211,1.75977 -0.2417,0.74746 -0.36132,1.63655 -0.36132,2.66601 0,0.743 0.0635,1.41862 0.19335,2.02734 0.13428,0.60425 0.3322,1.13664 0.5918,1.59766 0.26408,0.45654 0.608,0.81128 1.0332,1.06641 0.42969,0.25065 0.92627,0.37695 1.49024,0.37695 0.55949,0 1.04997,-0.1263 1.4707,-0.37695 0.42521,-0.25513 0.76302,-0.6132 1.01367,-1.07422 0.25513,-0.46102 0.44499,-0.99341 0.57032,-1.59766 0.12532,-0.60425 0.18945,-1.27653 0.18945,-2.01953 0,-0.77433 -0.0688,-1.46883 -0.20312,-2.08203 -0.13428,-0.61768 -0.33163,-1.14868 -0.59571,-1.5918 -0.2596,-0.44759 -0.59936,-0.79012 -1.01562,-1.02734 -0.41179,-0.2417 -0.88811,-0.36133 -1.42969,-0.36133 z m 8.08398,0 c -0.71614,0 -1.32487,0.21151 -1.82617,0.63672 -0.5013,0.42074 -0.87492,1.00781 -1.12109,1.75977 -0.2417,0.74746 -0.36328,1.63655 -0.36328,2.66601 0,0.743 0.0655,1.41862 0.19531,2.02734 0.13428,0.60425 0.33219,1.13664 0.5918,1.59766 0.26408,0.45654 0.60799,0.81128 1.0332,1.06641 0.42969,0.25065 0.92627,0.37695 1.49023,0.37695 0.55949,0 1.04997,-0.1263 1.47071,-0.37695 0.42521,-0.25513 0.76302,-0.6132 1.01367,-1.07422 0.25513,-0.46102 0.44499,-0.99341 0.57031,-1.59766 0.12533,-0.60425 0.1875,-1.27653 0.1875,-2.01953 0,-0.77433 -0.0669,-1.46883 -0.20117,-2.08203 -0.13428,-0.61768 -0.33358,-1.14868 -0.59766,-1.5918 -0.2596,-0.44759 -0.59741,-0.79012 -1.01367,-1.02734 -0.41178,-0.2417 -0.8881,-0.36133 -1.42969,-0.36133 z m 8.39258,0.13281 -0.19531,9.80274 h 1.11523 l 0.0937,-6.04883 v -2.31641 l 3.08789,7.27149 h 1.01368 l 3.10937,-7.19141 v 2.20899 l 0.0937,6.07617 h 1.10156 l -0.19531,-9.80274 h -1.41015 l -3.18946,7.44727 -3.17578,-7.44727 z m 12.125,0 c -0.21484,0 -0.39249,0.0688 -0.53125,0.20313 -0.13428,0.1298 -0.20117,0.2994 -0.20117,0.50976 0,0.21037 0.0669,0.3833 0.20117,0.51758 0.13876,0.13428 0.31641,0.20117 0.53125,0.20117 0.21037,0 0.38469,-0.0669 0.52344,-0.20117 0.13875,-0.13428 0.20898,-0.30721 0.20898,-0.51758 0,-0.21036 -0.0702,-0.37996 -0.20898,-0.50976 -0.13428,-0.13428 -0.30859,-0.20313 -0.52344,-0.20313 z m 2.77344,0 v 9.80274 h 3.65234 c 1.13241,0 1.98373,-0.2426 2.55664,-0.73047 0.5774,-0.49235 0.86719,-1.17131 0.86719,-2.03516 0,-0.62215 -0.1696,-1.13427 -0.50976,-1.53711 -0.3357,-0.4073 -0.81535,-0.70182 -1.4375,-0.88086 0.56844,-0.21932 0.96842,-0.50716 1.20117,-0.86523 0.23722,-0.36255 0.35547,-0.8125 0.35547,-1.34961 0,-0.81909 -0.29395,-1.4231 -0.88477,-1.8125 -0.58634,-0.39388 -1.49569,-0.5918 -2.72656,-0.5918 z m -31.375,0.77344 c 1.42334,0 2.13477,1.3715 2.13476,4.11524 2e-5,1.38304 -0.18513,2.4309 -0.55664,3.14257 -0.36702,0.7072 -0.89331,1.06055 -1.57812,1.06055 -0.69377,0 -1.2356,-0.35669 -1.625,-1.06836 -0.38493,-0.71615 -0.57617,-1.75928 -0.57617,-3.12891 -0.004,-1.31144 0.1901,-2.32487 0.58398,-3.04101 0.39388,-0.72062 0.93237,-1.08008 1.61719,-1.08008 z m 8.08398,0 c 1.42334,0 2.13477,1.3715 2.13477,4.11524 0,1.38304 -0.18514,2.4309 -0.55664,3.14257 -0.36703,0.7072 -0.89331,1.06055 -1.57813,1.06055 -0.69376,0 -1.23559,-0.35669 -1.625,-1.06836 -0.38492,-0.71615 -0.57617,-1.75928 -0.57617,-3.12891 -0.004,-1.31144 0.19011,-2.32487 0.58399,-3.04101 0.39388,-0.72062 0.93237,-1.08008 1.61718,-1.08008 z m 24.47266,0.11328 h 1.88672 c 0.88175,0 1.51684,0.11825 1.90625,0.35547 0.3894,0.23722 0.58398,0.67163 0.58398,1.30273 0,0.62664 -0.17903,1.06576 -0.53711,1.31641 -0.35807,0.24618 -0.88102,0.36914 -1.57031,0.36914 H 229.75 Z m -186.976562,1.66602 c -0.948895,0 -1.803549,0.1757 -2.564454,0.52929 l 0.300782,0.82032 c 0.326741,-0.15666 0.698974,-0.27824 1.115234,-0.36328 0.41626,-0.0895 0.80542,-0.13477 1.167969,-0.13477 0.537109,0 0.929606,0.12769 1.175781,0.38281 0.250651,0.25513 0.375,0.64291 0.375,1.16211 v 0.69727 h -1.134766 c -1.141357,0 -1.974366,0.18237 -2.498046,0.54492 -0.519206,0.35807 -0.777344,0.92155 -0.777344,1.69141 0,0.64453 0.195962,1.14917 0.589844,1.51171 0.398355,0.36255 0.924641,0.54297 1.578124,0.54297 0.97575,0 1.76823,-0.37361 2.376954,-1.12109 l 0.121093,0.98047 h 0.845703 v -4.6875 c 0,-0.90414 -0.233723,-1.55477 -0.699218,-1.95313 -0.461019,-0.40283 -1.117757,-0.60351 -1.972656,-0.60351 z m 7.820312,0 c -1.024984,0 -1.798584,0.46216 -2.322266,1.38867 l -0.113281,-1.24219 h -0.927734 v 10.21875 h 1.115234 v -2.67187 l -0.04687,-1.64453 c 0.528158,0.8907 1.286214,1.33593 2.275391,1.33593 0.930989,0 1.656575,-0.33642 2.175781,-1.00781 0.519206,-0.67139 0.779297,-1.55713 0.779297,-2.6582 0,-1.14584 -0.250651,-2.05184 -0.751953,-2.71875 -0.496826,-0.66691 -1.225749,-1 -2.183594,-1 z m -21.330078,0.14648 1.99414,7.10352 h 1.060547 l 1.867188,-6.12305 1.974609,6.12305 h 0.986328 l 1.914063,-7.10352 h -1.021485 l -1.416015,5.7207 -1.853516,-5.7207 h -1.1875 l -1.746093,5.74024 -1.517579,-5.74024 z m 195.974608,0 v 7.10352 h 1.09961 v -7.10352 z M 50.466797,155.1875 c 1.280111,0 1.919922,0.95125 1.919922,2.85352 0,1.88435 -0.661459,2.82617 -1.986328,2.82617 -0.671387,0 -1.191569,-0.25676 -1.558594,-0.77149 -0.362549,-0.51473 -0.542969,-1.23698 -0.542969,-2.16797 0.0045,-0.85937 0.183512,-1.53027 0.53711,-2.01367 0.353597,-0.4834 0.896809,-0.72656 1.630859,-0.72656 z M 229.75,156.85352 h 1.91992 c 0.9668,0 1.6735,0.14793 2.1211,0.44336 0.44759,0.29541 0.67187,0.79337 0.67187,1.49609 0,0.66243 -0.19458,1.14347 -0.58398,1.44336 -0.38493,0.29988 -1.00171,0.45117 -1.84766,0.45117 H 229.75 Z m -186.259766,1.3164 h 0.853516 v 1.5625 c -0.532633,0.78329 -1.258219,1.17578 -2.175781,1.17578 -0.335694,0 -0.614095,-0.10742 -0.837891,-0.32226 -0.223795,-0.21485 -0.335937,-0.51823 -0.335937,-0.91211 0,-0.21932 0.02026,-0.40308 0.06055,-0.55078 0.04028,-0.15218 0.113281,-0.29069 0.220703,-0.41602 0.107421,-0.1298 0.255371,-0.23112 0.443359,-0.30273 0.187988,-0.0761 0.427816,-0.1355 0.71875,-0.17578 0.290934,-0.0403 0.640951,-0.0586 1.052734,-0.0586 z M 20,226 v 1 h 216 v -1 z"
     id="rect7886" />
  <path
     style="fill:#5d8aa8;fill-opacity:1;stroke:none"
     class="ColorScheme-Highlight"
     d="M 20,138 V 81 c 40,0 50.000006,10 85,10 20,0 20,-5 35,-5 15,0 30,-5 40,-5 10,0 40,0 56,0 v 57 z"
     id="path10" />
  <path
     style="fill:#5d8aa8;fill-opacity:1;stroke:none"
     class="ColorScheme-Highlight"
     d="m 20,226 v -55 c 55,0 64.999997,50 79.999997,50 C 120,221 130,216 145,216 c 15,0 25,5 50,5 25,0 16,0 41,0 v 5 z"
     id="path12" />
  <g
     transform="matrix(0.6956522,0,0,0.6956522,-244.22362,-159.46806)"
     id="layer1-1-8"
     inkscape:label="Capa 1">
    <rect
       ry="0"
       y="497.798"
       x="385.57144"
       height="51.999908"
       width="45.999985"
       id="rect4139-3"
       style="opacity:1;fill:url(#linearGradient5329);fill-opacity:1;stroke:none" />
    <path
       inkscape:connector-curvature="0"
       id="path4795-0"
       d="m 387.57143,543.79799 6,6 h 37 l 1,-2e-5 v -46.99998 -1 l -2,-2 v 44 z"
       style="opacity:0.2;fill:url(#linearGradient4881-9);fill-opacity:1;fill-rule:evenodd;stroke:none;stroke-width:1px;stroke-linecap:butt;stroke-linejoin:miter;stroke-opacity:1" />
    <rect
       y="548.79797"
       x="385.57144"
       height="1.0000228"
       width="45.999985"
       id="rect4492-7"
       style="opacity:1;fill:#737b81;fill-opacity:1;stroke:none;stroke-width:2.8;stroke-miterlimit:4;stroke-dasharray:none;stroke-opacity:0.550265" />
    <rect
       y="545.7981"
       x="393.57144"
       height="3.999939"
       width="30"
       id="rect4671-9"
       style="opacity:1;fill:#292c2e;fill-opacity:1;stroke:none;stroke-width:0.1;stroke-miterlimit:4;stroke-dasharray:none;stroke-opacity:1" />
    <rect
       style="opacity:1;fill:#abb9be;fill-opacity:1;stroke:none;stroke-width:0.1;stroke-miterlimit:4;stroke-dasharray:none;stroke-opacity:1"
       id="rect4963-4"
       width="15.599988"
       height="15.599988"
       x="400.77151"
       y="506.89804"
       ry="7.7999926" />
    <path
       transform="translate(376.57144,491.79797)"
       id="path4648-3"
       d="M 11,8 V 52 H 32 53 V 8 H 32 Z"
       style="fill:url(#linearGradient4659-6);fill-opacity:1;fill-rule:evenodd;stroke:none;stroke-width:1px;stroke-linecap:butt;stroke-linejoin:miter;stroke-opacity:1"
       inkscape:connector-curvature="0" />
    <rect
       y="532.79822"
       x="390.57144"
       height="5.0000229"
       width="11.999987"
       id="rect4985-0"
       style="opacity:1;fill:#fdbc4a;fill-opacity:1;stroke:none;stroke-width:0.1;stroke-miterlimit:4;stroke-dasharray:none;stroke-opacity:1" />
    <rect
       y="533.79822"
       x="391.57144"
       height="1.0000228"
       width="9.9999866"
       id="rect5119-1"
       style="opacity:1;fill:#ffffff;fill-opacity:1;stroke:none;stroke-width:0.1;stroke-miterlimit:4;stroke-dasharray:none;stroke-opacity:1" />
    <rect
       y="535.79846"
       x="391.57144"
       height="1.0000228"
       width="7.9999866"
       id="rect5121-8"
       style="opacity:1;fill:#ffffff;fill-opacity:1;stroke:none;stroke-width:0.1;stroke-miterlimit:4;stroke-dasharray:none;stroke-opacity:1" />
    <rect
       y="548.79797"
       x="393.57144"
       height="1"
       width="29.999987"
       id="rect4194-6"
       style="opacity:1;fill:#202324;fill-opacity:1;stroke:none;stroke-opacity:1" />
    <rect
       ry="9.6193602e-05"
       y="546.79797"
       x="395.5715"
       height="1"
       width="1.9999866"
       id="rect4544-7"
       style="opacity:1;fill:#f9cf8d;fill-opacity:1;stroke:none;stroke-opacity:1" />
    <rect
       ry="9.6193602e-05"
       y="547.79797"
       x="395.5715"
       height="1"
       width="1.9999866"
       id="rect4546-52"
       style="opacity:1;fill:#f6b44d;fill-opacity:1;stroke:none;stroke-opacity:1" />
    <rect
       ry="9.6193602e-05"
       y="546.79797"
       x="419.5715"
       height="1"
       width="1.9999866"
       id="rect4544-0-7"
       style="opacity:1;fill:#f9cf8d;fill-opacity:1;stroke:none;stroke-opacity:1" />
    <rect
       ry="9.6193602e-05"
       y="547.79797"
       x="419.5715"
       height="1"
       width="1.9999866"
       id="rect4546-7-1"
       style="opacity:1;fill:#f6b44d;fill-opacity:1;stroke:none;stroke-opacity:1" />
    <rect
       ry="9.6193602e-05"
       y="546.79797"
       x="398.5715"
       height="1"
       width="1.9999866"
       id="rect4544-6-7"
       style="opacity:1;fill:#f9cf8d;fill-opacity:1;stroke:none;stroke-opacity:1" />
    <rect
       ry="9.6193602e-05"
       y="547.79797"
       x="398.5715"
       height="1"
       width="1.9999866"
       id="rect4546-5-4"
       style="opacity:1;fill:#f6b44d;fill-opacity:1;stroke:none;stroke-opacity:1" />
    <rect
       ry="9.6193602e-05"
       y="546.79797"
       x="401.5715"
       height="1"
       width="1.9999866"
       id="rect4544-1-7"
       style="opacity:1;fill:#f9cf8d;fill-opacity:1;stroke:none;stroke-opacity:1" />
    <rect
       ry="9.6193602e-05"
       y="547.79797"
       x="401.5715"
       height="1"
       width="1.9999866"
       id="rect4546-3-3"
       style="opacity:1;fill:#f6b44d;fill-opacity:1;stroke:none;stroke-opacity:1" />
    <rect
       ry="9.6193602e-05"
       y="546.79797"
       x="407.57144"
       height="1"
       width="1.9999866"
       id="rect4544-06-6"
       style="opacity:1;fill:#f9cf8d;fill-opacity:1;stroke:none;stroke-opacity:1" />
    <rect
       ry="9.6193602e-05"
       y="547.79797"
       x="407.57144"
       height="1"
       width="1.9999866"
       id="rect4546-6-6"
       style="opacity:1;fill:#f6b44d;fill-opacity:1;stroke:none;stroke-opacity:1" />
    <rect
       ry="9.6193602e-05"
       y="546.79797"
       x="416.5715"
       height="1"
       width="1.9999866"
       id="rect4544-9-2"
       style="opacity:1;fill:#f9cf8d;fill-opacity:1;stroke:none;stroke-opacity:1" />
    <rect
       ry="9.6193602e-05"
       y="547.79797"
       x="416.5715"
       height="1"
       width="1.9999866"
       id="rect4546-0-4"
       style="opacity:1;fill:#f6b44d;fill-opacity:1;stroke:none;stroke-opacity:1" />
    <rect
       ry="9.6193602e-05"
       y="546.79797"
       x="413.5715"
       height="1"
       width="1.9999866"
       id="rect4544-8-5"
       style="opacity:1;fill:#f9cf8d;fill-opacity:1;stroke:none;stroke-opacity:1" />
    <rect
       ry="9.6193602e-05"
       y="547.79797"
       x="413.5715"
       height="1"
       width="1.9999866"
       id="rect4546-55-52"
       style="opacity:1;fill:#f6b44d;fill-opacity:1;stroke:none;stroke-opacity:1" />
    <rect
       ry="9.6193602e-05"
       y="546.79797"
       x="410.5715"
       height="1"
       width="1.9999866"
       id="rect4544-8-8-6"
       style="opacity:1;fill:#f9cf8d;fill-opacity:1;stroke:none;stroke-opacity:1" />
    <rect
       ry="9.6193602e-05"
       y="547.79797"
       x="410.5715"
       height="1"
       width="1.9999866"
       id="rect4546-55-5-8"
       style="opacity:1;fill:#f6b44d;fill-opacity:1;stroke:none;stroke-opacity:1" />
    <rect
       ry="9.6193602e-05"
       y="546.79797"
       x="404.5715"
       height="1"
       width="1.9999866"
       id="rect4544-8-89-4"
       style="opacity:1;fill:#f9cf8d;fill-opacity:1;stroke:none;stroke-opacity:1" />
    <rect
       ry="9.6193602e-05"
       y="547.79797"
       x="404.5715"
       height="1"
       width="1.9999866"
       id="rect4546-55-7-8"
       style="opacity:1;fill:#f6b44d;fill-opacity:1;stroke:none;stroke-opacity:1" />
    <rect
       y="532.79797"
       x="414.57144"
       height="0.99999231"
       width="12.999987"
       id="rect4979-6"
       style="opacity:1;fill:#f2f2f2;fill-opacity:1;stroke:none;stroke-width:0.1;stroke-miterlimit:4;stroke-dasharray:none;stroke-opacity:1" />
    <rect
       y="534.79803"
       x="414.57144"
       height="1"
       width="13.000044"
       id="rect4981-9"
       style="opacity:1;fill:#f2f2f2;fill-opacity:1;stroke:none;stroke-width:0.1;stroke-miterlimit:4;stroke-dasharray:none;stroke-opacity:1" />
    <rect
       y="536.79822"
       x="414.57144"
       height="1"
       width="13.000013"
       id="rect4983-9"
       style="opacity:1;fill:#f2f2f2;fill-opacity:1;stroke:none;stroke-width:0.1;stroke-miterlimit:4;stroke-dasharray:none;stroke-opacity:1" />
    <path
       transform="translate(376.57144,491.79797)"
       id="rect4200-3"
       d="m 18.707031,14.292969 -1.414062,1.414062 8,8 L 25,24 55,54 V 44 L 30,19 26.707031,22.292969 Z m -2.146484,6.146484 -2.121094,2.121094 5.5,5.5 -1.353515,1.353515 L 47.169922,58 h 6.953125 z"
       style="opacity:0.2;fill:url(#linearGradient4231-8);fill-opacity:1;stroke:none;stroke-opacity:1"
       inkscape:connector-curvature="0" />
    <g
       style="fill:url(#linearGradient4793-0);fill-opacity:1"
       inkscape:label="Capa 1"
       id="layer1-7-9"
       transform="translate(387.57144,-527.56423)">
      <path
         inkscape:connector-curvature="0"
         style="opacity:1;fill:url(#linearGradient4399);fill-opacity:1;stroke:none"
         d="M 7,3 C 6.446,3 6,3.446 6,4 6,4.554 6.446,5 7,5 7.554,5 8,4.554 8,4 8,3.446 7.554,3 7,3 Z m 7,0 -2,2 3,3 -3,3 2,2 3,-3 2,-2 z M 4.5,9 C 3.669,9 3,9.669 3,10.5 3,11.331 3.669,12 4.5,12 5.331,12 6,11.331 6,10.5 6,9.669 5.331,9 4.5,9 Z M 9,15 c -1.108,0 -2,0.892 -2,2 0,1.108 0.892,2 2,2 1.108,0 2,-0.892 2,-2 0,-1.108 -0.892,-2 -2,-2 z"
         transform="translate(0,1030.3622)"
         id="rect4231-3" />
    </g>
  </g>
  <g
     transform="matrix(0.84210526,0,0,0.84210526,-298.16542,-324.17991)"
     id="layer1-6"
     inkscape:label="Capa 1">
    <path
       sodipodi:nodetypes="ccccc"
       inkscape:connector-curvature="0"
       id="rect4283"
       d="m 382.57144,504.79797 c 0,17.33333 0,-1.33333 0,16 h 52 v -16 z"
       style="opacity:1;fill:url(#linearGradient4291);fill-opacity:1;stroke:none" />
    <path
       inkscape:connector-curvature="0"
       id="path4257"
       d="m 422.57144,507.79797 -6,8 5,5 h 13 v -1 z"
       style="opacity:0.2;fill:url(#linearGradient4259);fill-opacity:1;fill-rule:evenodd;stroke:none;stroke-width:1px;stroke-linecap:butt;stroke-linejoin:miter;stroke-opacity:1" />
    <path
       inkscape:connector-curvature="0"
       id="path4261"
       d="m 430.57144,507.79797 -6,8 5,5 h 5 v -9 z"
       style="opacity:0.2;fill:url(#linearGradient4263);fill-opacity:1;fill-rule:evenodd;stroke:none;stroke-width:1px;stroke-linecap:butt;stroke-linejoin:miter;stroke-opacity:1" />
    <path
       inkscape:connector-curvature="0"
       id="path4181"
       d="m 408.57144,515.79797 6,-8 13,13 h -13 -2 1 z"
       style="opacity:0.2;fill:url(#linearGradient4184);fill-opacity:1;fill-rule:evenodd;stroke:none;stroke-width:1px;stroke-linecap:butt;stroke-linejoin:miter;stroke-opacity:1" />
    <rect
       y="519.79773"
       x="382.57144"
       height="0.99999976"
       width="52"
       id="rect4293"
       style="opacity:1;fill:#dce269;fill-opacity:1;stroke:none" />
    <rect
       y="507.79803"
       x="424.57144"
       height="7.9999986"
       width="6.0000005"
       id="rect4175"
       style="opacity:1;fill:url(#linearGradient4183);fill-opacity:1;stroke:none" />
    <path
       inkscape:connector-curvature="0"
       id="rect4193"
       d="m 431.57144,507.79797 v 1 h 1 v -1 z m 1,1 v 1 h 1 v -1 z m 0,1 h -1 v 1 h 1 z m 0,1 v 1 h 1 v -1 z m 0,1 h -1 v 1 h 1 z m 0,1 v 1 h 1 v -1 z m 0,1 h -1 v 1 h 1 z m 0,1 v 1 h 1 v -1 z m 0,1 h -1 v 1 h 1 z m 0,1 v 1 h 1 v -1 z m -1,0 h -1 v 1 h 1 z m -1,1 h -1 v 1 h 1 z m -1,0 v -1 h -1 v 1 z m -1,0 h -1 v 1 h 1 z m -1,0 v -1 h -1 v 1 z"
       style="opacity:0.6;fill:#dee372;fill-opacity:1;stroke:none" />
    <rect
       y="508.79797"
       x="385.57144"
       height="7"
       width="19"
       id="rect4277"
       style="opacity:1;fill:url(#linearGradient4455);fill-opacity:1;stroke:none" />
    <rect
       style="opacity:1;fill:url(#linearGradient4281);fill-opacity:1;stroke:none"
       id="rect4279"
       width="6.0000005"
       height="7.9999986"
       x="416.57144"
       y="507.79803" />
    <rect
       y="507.79803"
       x="408.57144"
       height="7.9999986"
       width="6.0000005"
       id="rect4322"
       style="opacity:1;fill:url(#linearGradient4324);fill-opacity:1;stroke:none" />
    <rect
       y="509.79797"
       x="386.57144"
       height="1"
       width="8"
       id="rect4457"
       style="opacity:1;fill:#ff5555;fill-opacity:1;stroke:none" />
    <rect
       style="opacity:1;fill:#35383b;fill-opacity:1;stroke:none"
       id="rect4459"
       width="2.9999983"
       height="0.99999636"
       x="386.57144"
       y="511.79797" />
    <rect
       y="511.79797"
       x="390.57144"
       height="0.99999636"
       width="3.9999983"
       id="rect4461"
       style="opacity:1;fill:#35383b;fill-opacity:1;stroke:none" />
    <path
       inkscape:connector-curvature="0"
       id="rect4463"
       d="m 390.57144,513.79797 v 1 h -1 v 1 h 1 1 1 1 1 1 1 1 1 1 v -1 h -1 v -1 h -1 v 1 h -1 -1 v -1 h -1 v 1 h -1 v -1 h -1 v 1 h -1 v -1 z"
       style="opacity:1;fill:#35383b;fill-opacity:1;stroke:none" />
    <path
       style="opacity:1;fill:url(#linearGradient4304);fill-opacity:1;stroke:none"
       d="m 382.57144,526.79797 c 0,17.33333 0,-1.33333 0,16 h 52 v -16 z"
       id="path4275"
       inkscape:connector-curvature="0"
       sodipodi:nodetypes="ccccc" />
    <path
       style="opacity:0.2;fill:url(#linearGradient4306);fill-opacity:1;fill-rule:evenodd;stroke:none;stroke-width:1px;stroke-linecap:butt;stroke-linejoin:miter;stroke-opacity:1"
       d="m 422.57144,529.79797 -6,8 5,5 h 13 v -1 z"
       id="path4277"
       inkscape:connector-curvature="0" />
    <path
       style="opacity:0.2;fill:url(#linearGradient4308);fill-opacity:1;fill-rule:evenodd;stroke:none;stroke-width:1px;stroke-linecap:butt;stroke-linejoin:miter;stroke-opacity:1"
       d="m 430.57144,529.79797 -6,8 5,5 h 5 v -9 z"
       id="path4279"
       inkscape:connector-curvature="0" />
    <path
       style="opacity:0.2;fill:url(#linearGradient4310);fill-opacity:1;fill-rule:evenodd;stroke:none;stroke-width:1px;stroke-linecap:butt;stroke-linejoin:miter;stroke-opacity:1"
       d="m 408.57144,537.79797 6,-8 13,13 h -13 -2 1 z"
       id="path4281"
       inkscape:connector-curvature="0" />
    <rect
       style="opacity:1;fill:#dce269;fill-opacity:1;stroke:none"
       id="rect4284"
       width="52"
       height="0.99999976"
       x="382.57144"
       y="541.79773" />
    <rect
       style="opacity:1;fill:url(#linearGradient4312);fill-opacity:1;stroke:none"
       id="rect4286"
       width="6.0000005"
       height="7.9999986"
       x="424.57144"
       y="529.79803" />
    <path
       style="opacity:0.6;fill:#dee372;fill-opacity:1;stroke:none"
       d="m 431.57144,529.79797 v 1 h 1 v -1 z m 1,1 v 1 h 1 v -1 z m 0,1 h -1 v 1 h 1 z m 0,1 v 1 h 1 v -1 z m 0,1 h -1 v 1 h 1 z m 0,1 v 1 h 1 v -1 z m 0,1 h -1 v 1 h 1 z m 0,1 v 1 h 1 v -1 z m 0,1 h -1 v 1 h 1 z m 0,1 v 1 h 1 v -1 z m -1,0 h -1 v 1 h 1 z m -1,1 h -1 v 1 h 1 z m -1,0 v -1 h -1 v 1 z m -1,0 h -1 v 1 h 1 z m -1,0 v -1 h -1 v 1 z"
       id="path4288"
       inkscape:connector-curvature="0" />
    <rect
       style="opacity:1;fill:url(#linearGradient4314);fill-opacity:1;stroke:none"
       id="rect4290"
       width="19"
       height="7"
       x="385.57144"
       y="530.79797" />
    <rect
       y="529.79803"
       x="416.57144"
       height="7.9999986"
       width="6.0000005"
       id="rect4292"
       style="opacity:1;fill:url(#linearGradient4316);fill-opacity:1;stroke:none" />
    <rect
       style="opacity:1;fill:url(#linearGradient4318);fill-opacity:1;stroke:none"
       id="rect4294"
       width="6.0000005"
       height="7.9999986"
       x="408.57144"
       y="529.79803" />
    <rect
       style="opacity:1;fill:#ff5555;fill-opacity:1;stroke:none"
       id="rect4296"
       width="8"
       height="1"
       x="386.57144"
       y="531.79797" />
    <rect
       y="533.79797"
       x="386.57144"
       height="0.99999636"
       width="2.9999983"
       id="rect4298"
       style="opacity:1;fill:#35383b;fill-opacity:1;stroke:none" />
    <rect
       style="opacity:1;fill:#35383b;fill-opacity:1;stroke:none"
       id="rect4300"
       width="3.9999983"
       height="0.99999636"
       x="390.57144"
       y="533.79797" />
    <path
       style="opacity:1;fill:#35383b;fill-opacity:1;stroke:none"
       d="m 390.57144,535.79797 v 1 h -1 v 1 h 1 1 1 1 1 1 1 1 1 1 v -1 h -1 v -1 h -1 v 1 h -1 -1 v -1 h -1 v 1 h -1 v -1 h -1 v 1 h -1 v -1 z"
       id="path4302"
       inkscape:connector-curvature="0" />
  </g>
</svg>
