<?xml version="1.0" encoding="UTF-8" standalone="no"?>
<svg
   xmlns:dc="http://purl.org/dc/elements/1.1/"
   xmlns:cc="http://creativecommons.org/ns#"
   xmlns:rdf="http://www.w3.org/1999/02/22-rdf-syntax-ns#"
   xmlns:svg="http://www.w3.org/2000/svg"
   xmlns="http://www.w3.org/2000/svg"
   xmlns:xlink="http://www.w3.org/1999/xlink"
   xmlns:sodipodi="http://sodipodi.sourceforge.net/DTD/sodipodi-0.dtd"
   xmlns:inkscape="http://www.inkscape.org/namespaces/inkscape"
   width="64"
   version="1.1"
   height="64"
   id="svg17"
   sodipodi:docname="favorites.svg"
   inkscape:version="1.0.2 (e86c870879, 2021-01-15)">
  <sodipodi:namedview
     pagecolor="#ffffff"
     bordercolor="#666666"
     borderopacity="1"
     objecttolerance="10"
     gridtolerance="10"
     guidetolerance="10"
     inkscape:pageopacity="0"
     inkscape:pageshadow="2"
     inkscape:window-width="1920"
     inkscape:window-height="1007"
     id="namedview19"
     showgrid="true"
     inkscape:zoom="4.90625"
     inkscape:cx="6.4116953"
     inkscape:cy="35.727001"
     inkscape:window-x="0"
     inkscape:window-y="0"
     inkscape:window-maximized="1"
     inkscape:current-layer="layer1"
     inkscape:document-rotation="0">
    <inkscape:grid
       type="xygrid"
       id="grid844" />
  </sodipodi:namedview>
  <defs
     id="defs5455">
    <linearGradient
       inkscape:collect="always"
       xlink:href="#linearGradient860"
       id="linearGradient862"
       x1="113.94677"
       y1="255.36646"
       x2="406.08289"
       y2="255.36646"
       gradientUnits="userSpaceOnUse"
       gradientTransform="matrix(0.2044729,0,0,0.18450994,363.4056,467.49691)" />
    <linearGradient
       inkscape:collect="always"
       id="linearGradient860">
      <stop
         style="stop-color:#00ccff;stop-opacity:1"
         offset="0"
         id="stop856" />
      <stop
         style="stop-color:#ffe680;stop-opacity:1"
         offset="1"
         id="stop858" />
    </linearGradient>
    <linearGradient
       inkscape:collect="always"
       xlink:href="#linearGradient860"
       id="linearGradient844"
       x1="446.80325"
       y1="518.77124"
       x2="379.57126"
       y2="543.77124"
       gradientUnits="userSpaceOnUse"
       gradientTransform="translate(1.7463e-4,0.02678306)" />
  </defs>
  <metadata
     id="metadata5458">
    <rdf:RDF>
      <cc:Work
         rdf:about="">
        <dc:format>image/svg+xml</dc:format>
        <dc:type
           rdf:resource="http://purl.org/dc/dcmitype/StillImage" />
      </cc:Work>
    </rdf:RDF>
  </metadata>
  <g
     inkscape:label="Capa 1"
     inkscape:groupmode="layer"
     id="layer1"
     transform="translate(-384.57143,-483.798)">
    <path
       style="fill:url(#linearGradient862);fill-opacity:1;stroke-width:0.179968"
       d="m 416.5716,496.96053 c -0.88801,-2e-5 -1.93916,-0.51678 -2.33715,-1.14848 l -1.78556,-2.83877 c -0.39617,-0.63169 -1.44732,-1.14731 -2.33501,-1.14847 l -20.57928,-0.0268 c -1.963,-0.003 -2.79036,0.93548 -2.81825,3.00583 l -0.0118,0.87277 v 2.56786 36.592 c 0,0.70616 2.34097,2.56786 3.22866,2.56786 h 53.27637 c 0.88771,0 3.22867,-1.8617 3.22867,-2.56786 l 1.8e-4,-35.07443 c 1e-5,-1.92589 -0.867,-2.80076 -2.98788,-2.80081 z"
       id="path4-3"
       sodipodi:nodetypes="sccsssccsssssss" />
    <path
       style="fill:#434c5e;fill-opacity:1;stroke-width:0.177384"
       d="m 442.5716,510.668 c 0,1.32622 -0.80272,2.4113 -2.64,2.4113 h -46.599 c -1.8373,0 -2.54052,-1.08508 -2.54052,-2.4113 v -7.23389 c 0,-1.32621 0.70322,-2.41129 2.54052,-2.41129 h 46.499 c 1.83728,0 2.74,1.08508 2.74,2.41129 z"
       id="path8-6"
       sodipodi:nodetypes="sssssssss" />
    <path
       style="fill:url(#linearGradient844);fill-opacity:1;stroke-width:0.194236"
       d="m 443.55868,505.13694 h -53.98053 c -1.63598,0 -3.27172,1.47608 -3.27172,2.95216 v 28.78356 c 0,1.95216 1.26517,2.95216 3.27172,2.95216 h 53.98053 c 2.01292,0 3.27172,-1 3.27172,-2.95216 V 508.0891 c 0,-1.47608 -1.63575,-2.95216 -3.27172,-2.95216 z"
       id="path10"
       sodipodi:nodetypes="sssssssss" />
    <path
       d="m 422.09465,533.79788 a 3.3004417,3.3004417 0 0 1 -1.92706,-0.7361 l -3.19642,-2.01267 -3.19643,2.01267 c -1.57461,1.14415 -2.65156,0.70449 -3.15522,0.33884 -0.50367,-0.36565 -1.25297,-1.25256 -0.65449,-3.10041 l 0.90932,-3.79531 -2.89799,-2.34031 c -1.58021,-1.14536 -1.495,-2.30751 -1.30257,-2.89999 0.19242,-0.59248 0.80531,-1.58021 2.75157,-1.58021 v 0 l 3.7897,-0.25164 1.40219,-3.50567 c 0.60208,-1.85144 1.73183,-2.12908 2.35392,-2.12908 0.62208,0 1.75183,0.27764 2.35311,2.12868 l 1.40219,3.50567 3.78971,0.25164 v 0 c 1.94626,0 2.56034,0.98893 2.75156,1.58021 0.19123,0.59128 0.27724,1.75223 -1.29777,2.89599 l -2.90879,2.42392 0.24283,1.03214 a 0.80016523,0.80016523 0 0 1 -1.55781,0.36645 l -0.35604,-1.5134 a 0.80010707,0.80010707 0 0 1 0.26683,-0.79811 l 3.31005,-2.75837 c 0.0148,-0.0124 0.03,-0.024 0.0452,-0.0352 0.40565,-0.29164 0.86251,-0.7221 0.73329,-1.12015 -0.12921,-0.39805 -0.73249,-0.47566 -1.25136,-0.47486 -0.0176,0 -0.038,0 -0.0572,0 l -4.29298,-0.28364 a 0.82651061,0.82651061 0 0 1 -0.7153,-0.50166 l -1.60021,-4.00054 q -0.0104,-0.0268 -0.0192,-0.054 c -0.15202,-0.47726 -0.42086,-1.04454 -0.83811,-1.04454 -0.41726,0 -0.6861,0.56728 -0.83812,1.04334 q -0.009,0.0272 -0.0192,0.054 l -1.60021,4.00054 a 0.80010707,0.80010707 0 0 1 -0.7429,0.50286 l -4.26657,0.28364 c -0.0188,0 -0.0368,0 -0.0572,0 -0.51087,-0.002 -1.12255,0.0776 -1.25137,0.47487 -0.12881,0.39725 0.32765,0.82771 0.7333,1.12014 0.012,0.009 0.024,0.018 0.0356,0.0272 l 3.30804,2.67156 a 0.80010707,0.80010707 0 0 1 0.27523,0.80891 l -1.03373,4.31898 c -0.005,0.022 -0.0112,0.0436 -0.0184,0.0648 -0.15682,0.47446 -0.27324,1.09134 0.0644,1.33658 0.33764,0.24523 0.88852,-0.0556 1.29137,-0.35125 0.0156,-0.0112 0.0312,-0.022 0.0472,-0.0324 l 3.64609,-2.29591 a 0.80010707,0.80010707 0 0 1 0.85291,0 l 3.64609,2.29431 c 0.016,0.01 0.032,0.0208 0.0472,0.0324 0.40245,0.29564 0.95253,0.59648 1.29137,0.35125 0.33885,-0.24524 0.22123,-0.86212 0.0644,-1.33658 a 0.80054896,0.80054896 0 1 1 1.52021,-0.50247 c 0.61848,1.87065 -0.13762,2.76637 -0.64329,3.13362 a 2.0710772,2.0710772 0 0 1 -1.22896,0.39925 z"
       id="path4"
       style="fill:#434c5e;fill-opacity:1;stroke-width:0.400054" />
  </g>
</svg>
