<?xml version="1.0" encoding="UTF-8" standalone="no"?>
<svg
   xmlns:dc="http://purl.org/dc/elements/1.1/"
   xmlns:cc="http://creativecommons.org/ns#"
   xmlns:rdf="http://www.w3.org/1999/02/22-rdf-syntax-ns#"
   xmlns:svg="http://www.w3.org/2000/svg"
   xmlns="http://www.w3.org/2000/svg"
   xmlns:xlink="http://www.w3.org/1999/xlink"
   xmlns:sodipodi="http://sodipodi.sourceforge.net/DTD/sodipodi-0.dtd"
   xmlns:inkscape="http://www.inkscape.org/namespaces/inkscape"
   width="64"
   version="1.1"
   height="64"
   id="svg17"
   sodipodi:docname="folder-videos.svg"
   inkscape:version="1.0.2 (e86c870879, 2021-01-15)">
  <sodipodi:namedview
     pagecolor="#ffffff"
     bordercolor="#666666"
     borderopacity="1"
     objecttolerance="10"
     gridtolerance="10"
     guidetolerance="10"
     inkscape:pageopacity="0"
     inkscape:pageshadow="2"
     inkscape:window-width="1920"
     inkscape:window-height="1007"
     id="namedview19"
     showgrid="true"
     inkscape:zoom="4.90625"
     inkscape:cx="-44.895121"
     inkscape:cy="11.715121"
     inkscape:window-x="0"
     inkscape:window-y="0"
     inkscape:window-maximized="1"
     inkscape:current-layer="layer1"
     inkscape:document-rotation="0">
    <inkscape:grid
       type="xygrid"
       id="grid927" />
  </sodipodi:namedview>
  <defs
     id="defs5455">
    <linearGradient
       inkscape:collect="always"
       xlink:href="#linearGradient860"
       id="linearGradient862"
       x1="113.94677"
       y1="255.36646"
       x2="406.08289"
       y2="255.36646"
       gradientUnits="userSpaceOnUse"
       gradientTransform="matrix(0.2044729,0,0,0.18450994,363.4056,467.49691)" />
    <linearGradient
       inkscape:collect="always"
       id="linearGradient860">
      <stop
         style="stop-color:#ffeeaa;stop-opacity:1"
         offset="0"
         id="stop856" />
      <stop
         style="stop-color:#99c2ff;stop-opacity:1"
         offset="1"
         id="stop858" />
    </linearGradient>
    <linearGradient
       inkscape:collect="always"
       xlink:href="#linearGradient842"
       id="linearGradient844"
       x1="386.30627"
       y1="522.45404"
       x2="446.83023"
       y2="522.45404"
       gradientUnits="userSpaceOnUse"
       gradientTransform="translate(1.7017e-4,0.02677021)" />
    <linearGradient
       inkscape:collect="always"
       id="linearGradient842">
      <stop
         style="stop-color:#99c2ff;stop-opacity:1"
         offset="0"
         id="stop838" />
      <stop
         style="stop-color:#ffeeaa;stop-opacity:1"
         offset="1"
         id="stop840" />
    </linearGradient>
  </defs>
  <metadata
     id="metadata5458">
    <rdf:RDF>
      <cc:Work
         rdf:about="">
        <dc:format>image/svg+xml</dc:format>
        <dc:type
           rdf:resource="http://purl.org/dc/dcmitype/StillImage" />
      </cc:Work>
    </rdf:RDF>
  </metadata>
  <g
     inkscape:label="Capa 1"
     inkscape:groupmode="layer"
     id="layer1"
     transform="translate(-384.57143,-483.798)">
    <path
       style="fill:url(#linearGradient862);fill-opacity:1;stroke-width:0.179968"
       d="m 416.5716,496.96053 c -0.88801,0 -1.93916,-0.51678 -2.33715,-1.14848 l -1.78556,-2.83877 c -0.39617,-0.63169 -1.44732,-1.14731 -2.33501,-1.14847 l -20.57928,-0.0268 c -1.963,-0.003 -2.79036,0.93548 -2.81825,3.00583 l -0.0118,0.87276 v 2.56786 36.592 c 0,0.70616 2.34097,2.56786 3.22866,2.56786 h 53.27637 c 0.88771,0 3.22867,-1.8617 3.22867,-2.56786 v -35.30807 c 0,-1.92589 -0.80703,-2.56786 -3.22867,-2.56786 z"
       id="path4-3"
       sodipodi:nodetypes="sccsssccsssssss" />
    <path
       style="fill:#434c5e;fill-opacity:1;stroke-width:0.177384"
       d="m 442.5716,510.668 c 0,1.32622 -0.80272,2.4113 -2.64,2.4113 h -46.599 c -1.8373,0 -2.54052,-1.08508 -2.54052,-2.4113 v -7.23389 c 0,-1.32622 0.70322,-2.4113 2.54052,-2.4113 h 46.499 c 1.83728,0 2.74,1.08508 2.74,2.4113 z"
       id="path8-6"
       sodipodi:nodetypes="sssssssss" />
    <path
       style="fill:url(#linearGradient844);fill-opacity:1;stroke-width:0.194236"
       d="m 443.55868,505.13694 h -53.98053 c -1.63598,0 -3.27172,1.47608 -3.27172,2.95216 v 28.78355 c 0,1.95216 1.26517,2.95216 3.27172,2.95216 h 53.98053 c 2.01292,0 3.27172,-1 3.27172,-2.95216 V 508.0891 c 0,-1.47608 -1.63575,-2.95216 -3.27172,-2.95216 z"
       id="path10"
       sodipodi:nodetypes="sssssssss" />
    <g
       id="g26"
       transform="matrix(0.02441761,0,0,0.02441761,404.22425,511.58935)"
       style="fill:#434c5e;fill-opacity:1">
      <g
         transform="matrix(0.1,0,0,-0.1,0,511)"
         id="g24"
         style="fill:#434c5e;fill-opacity:1">
        <path
           d="M 3422.8,4179.9 C 2770.5,4090 2146.9,3822.2 1601.7,3395.6 1427.6,3259.8 1069.9,2898.2 939.8,2726.1 402.2,2022.1 100,1130.7 100,248.8 c 0,-1828.8 1230,-3435.6 2955.5,-3856.5 1365.8,-332.9 2838.8,158.8 3747.5,1253 162.6,197.1 629.3,1008.1 713.5,1239.6 304.1,851.3 311.8,1767.5 24.9,2645.6 -413.2,1264.5 -1436.6,2240.1 -2683.9,2563.3 -120.5,30.6 -313.7,68.9 -432.3,84.2 -258.3,36.3 -738.4,36.3 -1002.4,1.9 z m 1019.6,-422.8 c 482.1,-72.7 914.4,-244.8 1358.2,-539.4 273.6,-181.7 692.5,-591.1 885.7,-864.7 242.9,-346.2 462.9,-828.3 558.6,-1230 C 7696.3,-765.1 6625,-2666.5 4823.1,-3171.5 4245.4,-3334.1 3547.2,-3328.4 2967.5,-3156.2 2024.4,-2875 1215.2,-2142.4 800.1,-1193.6 448.2,-392 408,558.7 689.2,1406.1 c 89.9,273.5 313.7,717.4 476.3,946.9 170.2,237.2 594.9,663.8 828.3,828.3 707.8,497.4 1591.6,705.9 2448.6,575.8 z"
           id="path4"
           style="fill:#434c5e;fill-opacity:1" />
        <path
           d="m 3671.5,3345.8 c -172.2,-40.2 -365.4,-176 -472.5,-332.9 -153,-223.8 -176,-545.2 -57.4,-788.1 294.6,-598.8 1136.3,-604.5 1429,-9.6 70.8,141.6 72.7,151.1 72.7,355.8 0,189.4 -5.7,223.8 -51.7,323.3 -59.3,126.3 -214.2,298.4 -330.9,367.3 -158.8,91.9 -403.7,128.2 -589.2,84.2 z"
           id="path6"
           style="fill:#434c5e;fill-opacity:1" />
        <path
           d="m 5657.1,2270.8 c -317.5,-84.2 -545.2,-329 -604.5,-652.3 C 4957,1100 5446.7,610.3 5967,706 c 327.1,59.3 568.2,281.2 648.5,594.9 97.6,384.5 -118.6,797.7 -491.6,939.3 -124.4,47.8 -344.4,61.2 -466.8,30.6 z"
           id="path8"
           style="fill:#434c5e;fill-opacity:1" />
        <path
           d="m 1840.8,2102.4 c -418.9,-68.9 -728.8,-499.3 -652.3,-910.6 32.5,-176 103.3,-313.7 218.1,-434.2 311.8,-315.6 824.5,-315.6 1134.4,0 306.1,311.8 309.9,788.1 9.6,1103.8 -185.7,197 -443.9,285 -709.8,241 z"
           id="path10-3"
           style="fill:#434c5e;fill-opacity:1" />
        <path
           d="M 3849.4,520.4 C 3583.5,388.4 3684.9,-19 3983.3,-19 c 235.3,0 367.3,279.3 216.2,459.1 -95.7,114.8 -223.9,145.4 -350.1,80.3 z"
           id="path12"
           style="fill:#434c5e;fill-opacity:1" />
        <path
           d="M 5626.5,-34.3 C 5263,-154.8 5023.9,-541.2 5087,-908.5 c 53.6,-313.7 246.8,-541.4 543.3,-640.8 99.5,-34.4 155,-40.2 288.9,-34.4 143.5,7.6 183.6,17.2 308,78.4 596.8,294.6 596.8,1128.6 0,1423.2 -130.1,63.1 -160.7,70.7 -319.5,76.5 -130.1,3.8 -200.9,-3.9 -281.2,-28.7 z"
           id="path14"
           style="fill:#434c5e;fill-opacity:1" />
        <path
           d="m 1819.7,-252.4 c -239.1,-84.2 -438.1,-290.8 -506.9,-528 -49.7,-168.3 -30.6,-401.7 44,-564.3 78.4,-166.4 216.2,-304.2 384.5,-382.6 120.5,-57.4 141.6,-61.2 338.6,-61.2 195.1,0 220,3.8 336.7,59.3 160.7,76.5 302.2,218.1 384.5,384.5 59.3,122.4 63.1,139.6 63.1,330.9 -1.9,277.4 -44,382.6 -227.6,566.2 -168.3,168.3 -286.9,220 -528,231.5 -133.9,5.8 -185.6,0.1 -288.9,-36.3 z"
           id="path16"
           style="fill:#434c5e;fill-opacity:1" />
        <path
           d="m 3816.8,-1281.6 c -218.1,-44 -451.4,-223.8 -550.9,-426.6 -237.2,-485.8 57.4,-1057.8 591.1,-1145.8 516.5,-86.1 1002.4,396 912.5,904.8 -80.4,455.3 -506.9,755.6 -952.7,667.6 z"
           id="path18"
           style="fill:#434c5e;fill-opacity:1" />
        <path
           d="m 7759.4,1406.1 c 26.8,-97.6 86.1,-418.9 109,-583.4 38.3,-269.7 34.4,-931.6 -7.6,-1203.2 -76.5,-489.7 -210.4,-881.9 -464.8,-1362 -260.2,-493.5 -510.8,-834 -719.3,-985.1 -55.5,-40.2 -105.2,-74.6 -109,-78.4 -17.2,-11.5 59.3,-246.8 109,-336.7 70.8,-132 246.8,-288.9 380.7,-338.6 200.8,-76.5 482.1,-70.8 732.6,11.5 82.3,26.8 91.8,38.3 220,260.2 74.6,128.2 258.2,422.8 411.3,654.2 269.7,407.5 478.2,742.2 478.2,763.3 0,5.7 -51.6,-23 -114.8,-65 -154.9,-105.2 -323.3,-170.2 -472.5,-183.6 -126.3,-11.5 -126.3,-11.5 -114.8,34.4 15.3,67 65,361.6 93.8,572 32.5,239.1 32.5,1121 0,1329.5 -84.2,529.9 -202.8,929.7 -375,1266.4 -57.4,112.9 -118.6,223.8 -135.8,244.9 -30.5,37.9 -30.5,37.9 -21,-0.4 z"
           id="path20"
           style="fill:#434c5e;fill-opacity:1" />
        <path
           d="m 9242,-1738.8 c -59.3,-19.1 -126.3,-47.8 -149.2,-63.1 -22.9,-17.2 -260.2,-376.9 -528,-801.5 l -485.9,-772.8 61.2,-5.7 c 122.4,-11.5 302.2,-61.2 401.7,-110.9 191.3,-95.6 281.2,-220 285,-399.8 1.9,-59.3 9.6,-99.5 17.2,-91.8 7.7,9.6 248.7,376.9 535.6,818.7 l 520.3,803.4 -42.1,162.6 c -99.3,390.2 -323.2,558.5 -615.8,460.9 z"
           id="path22"
           style="fill:#434c5e;fill-opacity:1" />
      </g>
    </g>
  </g>
</svg>
