<?xml version="1.0" encoding="UTF-8" standalone="no"?>
<svg
   xmlns:dc="http://purl.org/dc/elements/1.1/"
   xmlns:cc="http://creativecommons.org/ns#"
   xmlns:rdf="http://www.w3.org/1999/02/22-rdf-syntax-ns#"
   xmlns:svg="http://www.w3.org/2000/svg"
   xmlns="http://www.w3.org/2000/svg"
   xmlns:xlink="http://www.w3.org/1999/xlink"
   xmlns:sodipodi="http://sodipodi.sourceforge.net/DTD/sodipodi-0.dtd"
   xmlns:inkscape="http://www.inkscape.org/namespaces/inkscape"
   width="64"
   version="1.1"
   height="64"
   id="svg17"
   sodipodi:docname="folder-bookmark.svg"
   inkscape:version="1.0.2 (e86c870879, 2021-01-15)">
  <sodipodi:namedview
     pagecolor="#ffffff"
     bordercolor="#666666"
     borderopacity="1"
     objecttolerance="10"
     gridtolerance="10"
     guidetolerance="10"
     inkscape:pageopacity="0"
     inkscape:pageshadow="2"
     inkscape:window-width="1920"
     inkscape:window-height="1007"
     id="namedview19"
     showgrid="true"
     inkscape:zoom="4.90625"
     inkscape:cx="36.849943"
     inkscape:cy="31.602728"
     inkscape:window-x="0"
     inkscape:window-y="0"
     inkscape:window-maximized="1"
     inkscape:current-layer="layer1"
     inkscape:document-rotation="0">
    <inkscape:grid
       type="xygrid"
       id="grid925" />
  </sodipodi:namedview>
  <defs
     id="defs5455">
    <linearGradient
       inkscape:collect="always"
       xlink:href="#linearGradient842"
       id="linearGradient950"
       x1="446.01447"
       y1="518.79797"
       x2="387.06195"
       y2="518.79797"
       gradientUnits="userSpaceOnUse"
       gradientTransform="translate(1.7e-4)" />
    <linearGradient
       inkscape:collect="always"
       id="linearGradient842">
      <stop
         style="stop-color:#ffb3ff;stop-opacity:1"
         offset="0"
         id="stop838" />
      <stop
         style="stop-color:#80e5ff;stop-opacity:1"
         offset="1"
         id="stop840" />
    </linearGradient>
    <linearGradient
       inkscape:collect="always"
       xlink:href="#linearGradient842"
       id="linearGradient844"
       x1="381.31079"
       y1="543.77124"
       x2="446.83023"
       y2="522.45404"
       gradientUnits="userSpaceOnUse"
       gradientTransform="translate(1.7e-4,0.02678151)" />
  </defs>
  <metadata
     id="metadata5458">
    <rdf:RDF>
      <cc:Work
         rdf:about="">
        <dc:format>image/svg+xml</dc:format>
        <dc:type
           rdf:resource="http://purl.org/dc/dcmitype/StillImage" />
      </cc:Work>
    </rdf:RDF>
  </metadata>
  <g
     inkscape:label="Capa 1"
     inkscape:groupmode="layer"
     id="layer1"
     transform="translate(-384.57143,-483.798)">
    <path
       style="fill:url(#linearGradient950);fill-opacity:1;stroke-width:0.179968"
       d="m 416.5716,496.96053 c -0.88801,0 -1.93916,-0.51678 -2.33715,-1.14848 l -1.78556,-2.83877 c -0.39617,-0.63169 -1.44732,-1.14731 -2.33501,-1.14847 l -20.57928,-0.0268 c -1.963,-0.003 -2.79036,0.93548 -2.81825,3.00583 l -0.0118,0.87276 v 2.56786 36.592 c 0,0.70616 2.34097,2.56786 3.22866,2.56786 h 53.27637 c 0.88771,0 3.22867,-1.8617 3.22867,-2.56786 v -35.30807 c 0,-1.92589 -0.80703,-2.56786 -3.22867,-2.56786 z"
       id="path4-3"
       sodipodi:nodetypes="sccsssccsssssss" />
    <path
       style="fill:#434c5e;fill-opacity:1;stroke-width:0.177384"
       d="m 442.5716,510.668 c 0,1.32622 -0.80272,2.4113 -2.64,2.4113 h -46.599 c -1.8373,0 -2.54052,-1.08508 -2.54052,-2.4113 v -7.23389 c 0,-1.32622 0.70322,-2.4113 2.54052,-2.4113 h 46.499 c 1.83728,0 2.74,1.08508 2.74,2.4113 z"
       id="path8-6"
       sodipodi:nodetypes="sssssssss" />
    <path
       style="fill:url(#linearGradient844);fill-opacity:1;stroke-width:0.194236"
       d="m 443.55868,505.13694 h -53.98053 c -1.63598,0 -3.27172,1.47608 -3.27172,2.95216 v 28.78355 c 0,1.95216 1.26517,2.95216 3.27172,2.95216 h 53.98053 c 2.01292,0 3.27172,-1 3.27172,-2.95216 V 508.0891 c 0,-1.47608 -1.63575,-2.95216 -3.27172,-2.95216 z"
       id="path10"
       sodipodi:nodetypes="sssssssss" />
    <g
       id="g8"
       transform="matrix(0.71428501,0,0,0.71428501,404.78572,512.36943)"
       style="fill:#434c5e;fill-opacity:1">
      <path
         d="M 14,25.229 7.581,29.814 C 7.276,30.031 6.875,30.061 6.542,29.889 6.209,29.718 6,29.375 6,29 V 5 C 6,3.344 7.344,2 9,2 h 10 c 1.656,0 3,1.344 3,3 V 6 C 22,6.552 21.552,7 21,7 20.448,7 20,6.552 20,6 20,6 20,5 20,5 20,4.448 19.552,4 19,4 19,4 9,4 9,4 8.448,4 8,4.448 8,5 v 22.057 l 5.419,-3.871 c 0.347,-0.248 0.815,-0.248 1.162,0 L 20,27.057 V 24 c 0,-0.552 0.448,-1 1,-1 0.552,0 1,0.448 1,1 v 5 c 0,0.375 -0.209,0.718 -0.542,0.889 -0.333,0.172 -0.734,0.142 -1.039,-0.075 z"
         id="path2"
         style="fill:#434c5e;fill-opacity:1" />
    </g>
    <path
       d="m 417.66925,518.97942 c -1.36225,0 -2.47425,1.13665 -2.47425,2.54465 0,0.73265 0.2982,1.40107 0.77702,1.86608 l 3.80333,3.73212 3.80331,-3.73212 c 0.47889,-0.46493 0.77704,-1.13338 0.77704,-1.86608 0,-1.408 -1.11201,-2.54465 -2.47425,-2.54465 -0.89729,0 -1.67463,0.48936 -2.10616,1.22993 -0.43148,-0.74054 -1.20881,-1.22993 -2.10614,-1.22993 z"
       id="path16"
       style="fill:#434c5e;fill-opacity:1;stroke-width:0.508934" />
  </g>
</svg>
