<?xml version="1.0" encoding="UTF-8" standalone="no"?>
<svg
   xmlns:dc="http://purl.org/dc/elements/1.1/"
   xmlns:cc="http://creativecommons.org/ns#"
   xmlns:rdf="http://www.w3.org/1999/02/22-rdf-syntax-ns#"
   xmlns:svg="http://www.w3.org/2000/svg"
   xmlns="http://www.w3.org/2000/svg"
   xmlns:xlink="http://www.w3.org/1999/xlink"
   xmlns:sodipodi="http://sodipodi.sourceforge.net/DTD/sodipodi-0.dtd"
   xmlns:inkscape="http://www.inkscape.org/namespaces/inkscape"
   width="64"
   version="1.1"
   height="64"
   id="svg17"
   sodipodi:docname="folder-text.svg"
   inkscape:version="1.0.2 (e86c870879, 2021-01-15)">
  <sodipodi:namedview
     pagecolor="#ffffff"
     bordercolor="#666666"
     borderopacity="1"
     objecttolerance="10"
     gridtolerance="10"
     guidetolerance="10"
     inkscape:pageopacity="0"
     inkscape:pageshadow="2"
     inkscape:window-width="1920"
     inkscape:window-height="1007"
     id="namedview19"
     showgrid="true"
     inkscape:zoom="3.4692426"
     inkscape:cx="-59.309982"
     inkscape:cy="-15.742438"
     inkscape:window-x="0"
     inkscape:window-y="0"
     inkscape:window-maximized="1"
     inkscape:current-layer="layer1"
     inkscape:document-rotation="0">
    <inkscape:grid
       type="xygrid"
       id="grid877" />
  </sodipodi:namedview>
  <defs
     id="defs5455">
    <linearGradient
       inkscape:collect="always"
       xlink:href="#linearGradient860"
       id="linearGradient862-3"
       x1="113.94677"
       y1="255.36646"
       x2="406.08289"
       y2="255.36646"
       gradientUnits="userSpaceOnUse"
       gradientTransform="matrix(0.2044729,0,0,0.18450994,363.4056,467.49691)" />
    <linearGradient
       inkscape:collect="always"
       id="linearGradient860">
      <stop
         style="stop-color:#00ccff;stop-opacity:1"
         offset="0"
         id="stop856" />
      <stop
         style="stop-color:#00ffcc;stop-opacity:1"
         offset="1"
         id="stop858" />
    </linearGradient>
    <linearGradient
       inkscape:collect="always"
       xlink:href="#linearGradient842"
       id="linearGradient844"
       x1="386.30627"
       y1="522.45404"
       x2="446.83023"
       y2="522.45404"
       gradientUnits="userSpaceOnUse"
       gradientTransform="translate(1.7e-4,0.02672947)" />
    <linearGradient
       inkscape:collect="always"
       id="linearGradient842">
      <stop
         style="stop-color:#ffeeaa;stop-opacity:1"
         offset="0"
         id="stop838" />
      <stop
         style="stop-color:#80e5ff;stop-opacity:1"
         offset="1"
         id="stop840" />
    </linearGradient>
  </defs>
  <metadata
     id="metadata5458">
    <rdf:RDF>
      <cc:Work
         rdf:about="">
        <dc:format>image/svg+xml</dc:format>
        <dc:type
           rdf:resource="http://purl.org/dc/dcmitype/StillImage" />
      </cc:Work>
    </rdf:RDF>
  </metadata>
  <g
     inkscape:label="Capa 1"
     inkscape:groupmode="layer"
     id="layer1"
     transform="translate(-384.57143,-483.798)">
    <path
       style="fill:url(#linearGradient862-3);fill-opacity:1;stroke-width:0.179968"
       d="m 416.5716,496.96053 c -0.88801,0 -1.93916,-0.51678 -2.33715,-1.14848 l -1.78556,-2.83877 c -0.39617,-0.63169 -1.44732,-1.14731 -2.33501,-1.14847 l -20.57928,-0.0268 c -1.963,-0.003 -2.79036,0.93548 -2.81825,3.00583 l -0.0118,0.87276 v 2.56786 36.592 c 0,0.70616 2.34097,2.56786 3.22866,2.56786 h 53.27637 c 0.88771,0 3.22867,-1.8617 3.22867,-2.56786 v -35.30807 c 0,-1.92589 -0.80703,-2.56786 -3.22867,-2.56786 z"
       id="path4-3"
       sodipodi:nodetypes="sccsssccsssssss" />
    <path
       style="fill:#434c5e;fill-opacity:1;stroke-width:0.177384"
       d="m 442.5716,510.668 c 0,1.32622 -0.80272,2.4113 -2.64,2.4113 h -46.599 c -1.8373,0 -2.54052,-1.08508 -2.54052,-2.4113 v -7.23389 c 0,-1.32622 0.70322,-2.4113 2.54052,-2.4113 h 46.499 c 1.83728,0 2.74,1.08508 2.74,2.4113 z"
       id="path8-6"
       sodipodi:nodetypes="sssssssss" />
    <path
       style="fill:url(#linearGradient844);fill-opacity:1;stroke-width:0.194236"
       d="m 443.55868,505.13694 h -53.98053 c -1.63598,0 -3.27172,1.47608 -3.27172,2.95216 v 28.78355 c 0,1.95216 1.26517,2.95216 3.27172,2.95216 h 53.98053 c 2.01292,0 3.27172,-1 3.27172,-2.95216 V 508.0891 c 0,-1.47608 -1.63575,-2.95216 -3.27172,-2.95216 z"
       id="path10"
       sodipodi:nodetypes="sssssssss" />
    <g
       id="g30"
       transform="matrix(0.42553191,0,0,0.42553191,405.85866,513.58523)"
       style="fill:#434c5e;fill-opacity:1">
      <g
         id="g4"
         style="fill:#434c5e;fill-opacity:1">
        <path
           d="M 46,3.5 H 2 C 1.2,3.5 0.5,2.8 0.5,2 0.5,1.2 1.2,0.5 2,0.5 h 44 c 0.8,0 1.5,0.7 1.5,1.5 0,0.8 -0.7,1.5 -1.5,1.5 z"
           id="path2"
           style="fill:#434c5e;fill-opacity:1" />
      </g>
      <g
         id="g8"
         style="fill:#434c5e;fill-opacity:1">
        <path
           d="M 33.9,10.8 H 2 C 1.2,10.8 0.5,10.1 0.5,9.3 0.5,8.5 1.2,7.8 2,7.8 h 31.9 c 0.8,0 1.5,0.7 1.5,1.5 0,0.8 -0.7,1.5 -1.5,1.5 z"
           id="path6"
           style="fill:#434c5e;fill-opacity:1" />
      </g>
      <g
         id="g12"
         style="fill:#434c5e;fill-opacity:1" />
      <g
         id="g16"
         style="fill:#434c5e;fill-opacity:1" />
      <g
         id="g20"
         style="fill:#434c5e;fill-opacity:1" />
      <g
         id="g24"
         style="fill:#434c5e;fill-opacity:1">
        <path
           d="M 46,40.2 H 14.1 c -0.8,0 -1.5,-0.7 -1.5,-1.5 0,-0.8 0.7,-1.5 1.5,-1.5 H 46 c 0.8,0 1.5,0.7 1.5,1.5 0,0.8 -0.7,1.5 -1.5,1.5 z"
           id="path22"
           style="fill:#434c5e;fill-opacity:1" />
      </g>
      <g
         id="g28"
         style="fill:#434c5e;fill-opacity:1">
        <path
           d="M 46,47.5 H 2 C 1.2,47.5 0.5,46.8 0.5,46 0.5,45.2 1.2,44.5 2,44.5 h 44 c 0.8,0 1.5,0.7 1.5,1.5 0,0.8 -0.7,1.5 -1.5,1.5 z"
           id="path26"
           style="fill:#434c5e;fill-opacity:1" />
      </g>
    </g>
    <path
       d="m 416.32118,523.11691 v 0.85106 a 0.6382979,0.6382979 0 0 1 -1.27659,0 v -0.21276 h -0.85107 v 2.97872 h 0.21277 a 0.6383,0.6383 0 0 1 0,1.2766 h -1.70213 a 0.6383,0.6383 0 0 1 0,-1.2766 h 0.21277 v -2.97872 h -0.85107 v 0.21276 a 0.6382979,0.6382979 0 0 1 -1.27659,0 v -0.85106 a 0.63829787,0.63829787 0 0 1 0.63829,-0.6383 h 4.25532 a 0.63829787,0.63829787 0 0 1 0.6383,0.6383 z m 5.31915,-4.04255 h -5.66383 a 0.63829787,0.63829787 0 0 0 -0.6383,0.63829 v 0.85107 a 0.6383,0.6383 0 0 0 1.2766,0 v -0.21277 h 1.55745 v 6.38298 h -0.21277 a 0.6383,0.6383 0 0 0 0,1.2766 h 1.70213 a 0.6383,0.6383 0 0 0 0,-1.2766 h -0.21277 v -6.38298 h 1.55319 v 0.21277 a 0.6383,0.6383 0 0 0 1.2766,0 v -0.85107 a 0.63829787,0.63829787 0 0 0 -0.6383,-0.63829 z"
       id="path2-3"
       style="fill:#434c5e;fill-opacity:1;stroke-width:0.425532" />
  </g>
</svg>
