<?xml version="1.0" encoding="UTF-8" standalone="no"?>
<svg
   xmlns:dc="http://purl.org/dc/elements/1.1/"
   xmlns:cc="http://creativecommons.org/ns#"
   xmlns:rdf="http://www.w3.org/1999/02/22-rdf-syntax-ns#"
   xmlns:svg="http://www.w3.org/2000/svg"
   xmlns="http://www.w3.org/2000/svg"
   xmlns:xlink="http://www.w3.org/1999/xlink"
   xmlns:sodipodi="http://sodipodi.sourceforge.net/DTD/sodipodi-0.dtd"
   xmlns:inkscape="http://www.inkscape.org/namespaces/inkscape"
   width="64"
   version="1.1"
   height="64"
   id="svg17"
   sodipodi:docname="folder-print.svg"
   inkscape:version="1.0.2 (e86c870879, 2021-01-15)">
  <sodipodi:namedview
     pagecolor="#ffffff"
     bordercolor="#666666"
     borderopacity="1"
     objecttolerance="10"
     gridtolerance="10"
     guidetolerance="10"
     inkscape:pageopacity="0"
     inkscape:pageshadow="2"
     inkscape:window-width="1920"
     inkscape:window-height="1007"
     id="namedview19"
     showgrid="true"
     inkscape:zoom="4.90625"
     inkscape:cx="-40.714907"
     inkscape:cy="44.232889"
     inkscape:window-x="0"
     inkscape:window-y="0"
     inkscape:window-maximized="1"
     inkscape:current-layer="layer1"
     inkscape:document-rotation="0">
    <inkscape:grid
       type="xygrid"
       id="grid877" />
  </sodipodi:namedview>
  <defs
     id="defs5455">
    <linearGradient
       inkscape:collect="always"
       xlink:href="#linearGradient860"
       id="linearGradient862-3"
       x1="113.94677"
       y1="255.36646"
       x2="406.08289"
       y2="255.36646"
       gradientUnits="userSpaceOnUse"
       gradientTransform="matrix(0.2044729,0,0,0.18450994,363.4056,467.49691)" />
    <linearGradient
       inkscape:collect="always"
       id="linearGradient860">
      <stop
         style="stop-color:#ffeeaa;stop-opacity:1"
         offset="0"
         id="stop856" />
      <stop
         style="stop-color:#99c2ff;stop-opacity:1"
         offset="1"
         id="stop858" />
    </linearGradient>
    <linearGradient
       inkscape:collect="always"
       xlink:href="#linearGradient842"
       id="linearGradient844"
       x1="386.30627"
       y1="522.45404"
       x2="446.83023"
       y2="522.45404"
       gradientUnits="userSpaceOnUse"
       gradientTransform="translate(1.7e-4,0.02672564)" />
    <linearGradient
       inkscape:collect="always"
       id="linearGradient842">
      <stop
         style="stop-color:#99c2ff;stop-opacity:1"
         offset="0"
         id="stop838" />
      <stop
         style="stop-color:#ffeeaa;stop-opacity:1"
         offset="1"
         id="stop840" />
    </linearGradient>
  </defs>
  <metadata
     id="metadata5458">
    <rdf:RDF>
      <cc:Work
         rdf:about="">
        <dc:format>image/svg+xml</dc:format>
        <dc:type
           rdf:resource="http://purl.org/dc/dcmitype/StillImage" />
      </cc:Work>
    </rdf:RDF>
  </metadata>
  <g
     inkscape:label="Capa 1"
     inkscape:groupmode="layer"
     id="layer1"
     transform="translate(-384.57143,-483.798)">
    <path
       style="fill:url(#linearGradient862-3);fill-opacity:1;stroke-width:0.179968"
       d="m 416.5716,496.96053 c -0.88801,0 -1.93916,-0.51678 -2.33715,-1.14848 l -1.78556,-2.83877 c -0.39617,-0.63169 -1.44732,-1.14731 -2.33501,-1.14847 l -20.57928,-0.0268 c -1.963,-0.003 -2.79036,0.93548 -2.81825,3.00583 l -0.0118,0.87276 v 2.56786 36.592 c 0,0.70616 2.34097,2.56786 3.22866,2.56786 h 53.27637 c 0.88771,0 3.22867,-1.8617 3.22867,-2.56786 v -35.30807 c 0,-1.92589 -0.80703,-2.56786 -3.22867,-2.56786 z"
       id="path4-3"
       sodipodi:nodetypes="sccsssccsssssss" />
    <path
       style="fill:#434c5e;fill-opacity:1;stroke-width:0.177384"
       d="m 442.5716,510.668 c 0,1.32622 -0.80272,2.4113 -2.64,2.4113 h -46.599 c -1.8373,0 -2.54052,-1.08508 -2.54052,-2.4113 v -7.23389 c 0,-1.32622 0.70322,-2.4113 2.54052,-2.4113 h 46.499 c 1.83728,0 2.74,1.08508 2.74,2.4113 z"
       id="path8-6"
       sodipodi:nodetypes="sssssssss" />
    <path
       style="fill:url(#linearGradient844);fill-opacity:1;stroke-width:0.194236"
       d="m 443.55868,505.13694 h -53.98053 c -1.63598,0 -3.27172,1.47608 -3.27172,2.95216 v 28.78355 c 0,1.95216 1.26517,2.95216 3.27172,2.95216 h 53.98053 c 2.01292,0 3.27172,-1 3.27172,-2.95216 V 508.0891 c 0,-1.47608 -1.63575,-2.95216 -3.27172,-2.95216 z"
       id="path10"
       sodipodi:nodetypes="sssssssss" />
    <path
       d="m 425.65328,518.58388 h -1.74453 v -4.31689 a 0.4688667,0.4688667 0 0 0 -0.469,-0.46899 h -13.23119 a 0.4688667,0.4688667 0 0 0 -0.469,0.46899 v 4.31689 h -1.66529 a 2.029714,2.029714 0 0 0 -2.00284,2.00261 v 8.61341 a 1.9257429,1.9257429 0 0 0 2.00284,1.88467 h 1.6543 v 2.24444 a 0.46887139,0.46887139 0 0 0 0.46899,0.46899 h 13.21426 a 0.46887139,0.46887139 0 0 0 0.46899,-0.46899 v -2.24444 h 1.77247 a 1.8229302,1.8229302 0 0 0 1.88467,-1.88467 v -8.6134 a 1.9256866,1.9256866 0 0 0 -1.88467,-2.00262 z m -14.97573,-3.84789 h 12.29321 v 3.84789 h -12.29321 z m 12.26527,18.12402 h -12.27626 v -5.07923 h 12.27626 z m 3.65714,-3.66011 a 0.89629784,0.89629784 0 0 1 -0.94668,0.94668 h -1.77247 v -2.36557 h 0.47449 a 0.468995,0.468995 0 0 0 0,-0.93799 h -0.94234 l -10e-4,-2.3e-4 h -13.2143 l -10e-4,2.3e-4 h -0.82463 a 0.468995,0.468995 0 1 0 0,0.93799 h 0.35678 v 2.36557 h -1.6543 a 1.0040491,1.0040491 0 0 1 -1.06485,-0.94668 v -8.6134 a 1.0923886,1.0923886 0 0 1 1.06485,-1.06462 h 17.57901 a 1.0039787,1.0039787 0 0 1 0.94668,1.06462 z"
       id="path4"
       style="stroke-width:0.468993;fill:#434c5e;fill-opacity:1" />
    <path
       d="m 424.5582,520.63939 a 0.70360724,0.70360724 0 1 0 0.70348,0.70349 0.70425914,0.70425914 0 0 0 -0.70348,-0.70349 z m 0,0.93799 a 0.2343841,0.2343841 0 1 1 0.23449,-0.2345 0.23480151,0.23480151 0 0 1 -0.23449,0.2345 z"
       id="path6"
       style="stroke-width:0.468993;fill:#434c5e;fill-opacity:1" />
    <rect
       x="407.75494"
       y="520.63959"
       width="5.2184653"
       height="1.8432282"
       rx="0.46899334"
       id="rect8"
       style="stroke-width:0.468993;fill:#434c5e;fill-opacity:1" />
  </g>
</svg>
