<?xml version="1.0" encoding="UTF-8" standalone="no"?>
<svg
   xmlns:dc="http://purl.org/dc/elements/1.1/"
   xmlns:cc="http://creativecommons.org/ns#"
   xmlns:rdf="http://www.w3.org/1999/02/22-rdf-syntax-ns#"
   xmlns:svg="http://www.w3.org/2000/svg"
   xmlns="http://www.w3.org/2000/svg"
   xmlns:xlink="http://www.w3.org/1999/xlink"
   xmlns:sodipodi="http://sodipodi.sourceforge.net/DTD/sodipodi-0.dtd"
   xmlns:inkscape="http://www.inkscape.org/namespaces/inkscape"
   width="64"
   version="1.1"
   height="64"
   id="svg17"
   sodipodi:docname="folder-tar.svg"
   inkscape:version="1.0.2 (e86c870879, 2021-01-15)">
  <sodipodi:namedview
     pagecolor="#ffffff"
     bordercolor="#666666"
     borderopacity="1"
     objecttolerance="10"
     gridtolerance="10"
     guidetolerance="10"
     inkscape:pageopacity="0"
     inkscape:pageshadow="2"
     inkscape:window-width="1920"
     inkscape:window-height="1007"
     id="namedview19"
     showgrid="true"
     inkscape:zoom="6.9384853"
     inkscape:cx="34.911996"
     inkscape:cy="48.779174"
     inkscape:window-x="0"
     inkscape:window-y="0"
     inkscape:window-maximized="1"
     inkscape:current-layer="layer1"
     inkscape:document-rotation="0">
    <inkscape:grid
       type="xygrid"
       id="grid874" />
  </sodipodi:namedview>
  <defs
     id="defs5455">
    <linearGradient
       inkscape:collect="always"
       xlink:href="#linearGradient860"
       id="linearGradient862-3"
       x1="113.94677"
       y1="255.36646"
       x2="406.08289"
       y2="255.36646"
       gradientUnits="userSpaceOnUse"
       gradientTransform="matrix(0.2044729,0,0,0.18450994,363.4056,467.49691)" />
    <linearGradient
       inkscape:collect="always"
       id="linearGradient860">
      <stop
         style="stop-color:#80e5ff;stop-opacity:1"
         offset="0"
         id="stop856" />
      <stop
         style="stop-color:#3daee9;stop-opacity:1"
         offset="1"
         id="stop858" />
    </linearGradient>
    <linearGradient
       inkscape:collect="always"
       xlink:href="#linearGradient842"
       id="linearGradient844"
       x1="386.30627"
       y1="522.45404"
       x2="446.83023"
       y2="522.45404"
       gradientUnits="userSpaceOnUse"
       gradientTransform="translate(1.7e-4,0.02675664)" />
    <linearGradient
       inkscape:collect="always"
       id="linearGradient842">
      <stop
         style="stop-color:#3daee9;stop-opacity:1"
         offset="0"
         id="stop838" />
      <stop
         style="stop-color:#a3d9f5;stop-opacity:1"
         offset="1"
         id="stop840" />
    </linearGradient>
  </defs>
  <metadata
     id="metadata5458">
    <rdf:RDF>
      <cc:Work
         rdf:about="">
        <dc:format>image/svg+xml</dc:format>
        <dc:type
           rdf:resource="http://purl.org/dc/dcmitype/StillImage" />
      </cc:Work>
    </rdf:RDF>
  </metadata>
  <g
     inkscape:label="Capa 1"
     inkscape:groupmode="layer"
     id="layer1"
     transform="translate(-384.57143,-483.798)">
    <path
       style="fill:url(#linearGradient862-3);fill-opacity:1;stroke-width:0.179968"
       d="m 416.5716,496.96053 c -0.88801,0 -1.93916,-0.51678 -2.33715,-1.14849 l -1.78556,-2.83877 c -0.39617,-0.63169 -1.44732,-1.14731 -2.33501,-1.14846 l -20.57928,-0.0268 c -1.963,-0.003 -2.79036,0.93548 -2.81825,3.00583 l -0.0118,0.87276 v 2.56786 36.592 c 0,0.70616 2.34097,2.56786 3.22866,2.56786 h 53.27637 c 0.88771,0 3.22867,-1.8617 3.22867,-2.56786 v -35.30807 c 0,-1.92589 -0.80703,-2.56786 -3.22867,-2.56786 z"
       id="path4-3"
       sodipodi:nodetypes="sccsssccsssssss" />
    <path
       style="fill:#434c5e;fill-opacity:1;stroke-width:0.177384"
       d="m 442.5716,510.668 c 0,1.32621 -0.80272,2.41129 -2.64,2.41129 h -46.599 c -1.8373,0 -2.54052,-1.08508 -2.54052,-2.41129 v -7.23389 c 0,-1.32622 0.70322,-2.4113 2.54052,-2.4113 h 46.499 c 1.83728,0 2.74,1.08508 2.74,2.4113 z"
       id="path8-6"
       sodipodi:nodetypes="sssssssss" />
    <path
       style="fill:url(#linearGradient844);fill-opacity:1;stroke-width:0.194236"
       d="m 443.55868,505.13693 h -53.98053 c -1.63598,0 -3.27172,1.47609 -3.27172,2.95216 v 28.78356 c 0,1.95216 1.26517,2.95216 3.27172,2.95216 h 53.98053 c 2.01292,0 3.27172,-1 3.27172,-2.95216 v -28.78356 c 0,-1.47608 -1.63575,-2.95216 -3.27172,-2.95216 z"
       id="path10"
       sodipodi:nodetypes="sssssssss" />
    <g
       id="g36"
       transform="matrix(0.23266636,0,0,0.23266636,404.86482,512.16468)"
       style="fill:#434c5e;fill-opacity:1">
      <g
         id="g20"
         style="fill:#434c5e;fill-opacity:1">
        <g
           id="g6"
           style="fill:#434c5e;fill-opacity:1" />
        <g
           id="g12"
           style="fill:#434c5e;fill-opacity:1" />
        <g
           id="g18"
           style="fill:#434c5e;fill-opacity:1" />
      </g>
      <g
         id="g34"
         style="fill:#434c5e;fill-opacity:1">
        <g
           id="g26"
           style="fill:#434c5e;fill-opacity:1">
          <g
             id="g24"
             style="fill:#434c5e;fill-opacity:1">
            <path
               d="m 73.35,92.98 h -46.7 c -4.72,0 -8.57,-3.84 -8.57,-8.57 V 15.59 c 0,-4.72 3.84,-8.57 8.57,-8.57 h 26.49 c 2.29,0 4.52,0.94 6.12,2.57 l 20.22,20.64 c 1.58,1.61 2.45,3.74 2.45,5.99 v 48.19 c -0.01,4.72 -3.85,8.57 -8.58,8.57 z M 26.65,11.02 c -2.52,0 -4.57,2.05 -4.57,4.57 v 68.82 c 0,2.52 2.05,4.57 4.57,4.57 h 46.71 c 2.52,0 4.57,-2.05 4.57,-4.57 V 36.22 c 0,-1.2 -0.46,-2.34 -1.3,-3.2 L 56.4,12.39 c -0.85,-0.87 -2.04,-1.37 -3.26,-1.37 z"
               id="path22"
               style="fill:#434c5e;fill-opacity:1" />
          </g>
        </g>
        <g
           id="g32"
           style="fill:#434c5e;fill-opacity:1">
          <g
             id="g30"
             style="fill:#434c5e;fill-opacity:1">
            <path
               d="M 79.92,34.05 H 62.46 c -4.17,0 -7.57,-3.39 -7.57,-7.57 V 9.02 c 0,-0.55 0.45,-1 1,-1 0.55,0 1,0.45 1,1 v 17.46 c 0,3.07 2.5,5.57 5.57,5.57 h 17.46 c 0.55,0 1,0.45 1,1 0,0.55 -0.45,1 -1,1 z"
               id="path28"
               style="fill:#434c5e;fill-opacity:1" />
          </g>
        </g>
      </g>
    </g>
    <path
       d="m 416.64727,522.94154 c -0.12328,0 -0.23011,0.0691 -0.29018,0.17215 l -0.52054,-0.30608 h -1.0067 v 1.04814 h 1.0067 l 0.52939,-0.35876 c 0.0615,0.0945 0.16438,0.15605 0.28133,0.15605 0.18784,0 0.34027,-0.15928 0.34027,-0.35514 0,-0.19588 -0.15243,-0.35636 -0.34027,-0.35636 z"
       id="path10-3"
       style="fill:#434c5e;fill-opacity:1;stroke-width:0.402883" />
    <rect
       x="414.57742"
       y="528.97595"
       width="3.9460001"
       height="1.1583403"
       id="rect12"
       style="fill:#434c5e;fill-opacity:1;stroke-width:0.402883" />
    <path
       d="m 416.35248,522.11784 c 0.12332,0 0.23013,0.0691 0.28998,0.17215 l 0.52065,-0.30609 h 1.00688 v 1.04815 h -1.00688 l -0.52964,-0.35878 c -0.0609,0.0946 -0.16434,0.15606 -0.2814,0.15606 -0.188,0 -0.34018,-0.15927 -0.34018,-0.35514 0,-0.19588 0.15257,-0.35635 0.34059,-0.35635 z"
       id="path20"
       style="fill:#434c5e;fill-opacity:1;stroke-width:0.402883" />
    <path
       d="m 416.64727,521.29413 c -0.12328,0 -0.23011,0.0692 -0.29018,0.17214 L 415.83655,521.16 h -1.0067 v 1.04833 h 1.0067 l 0.52939,-0.35876 c 0.0615,0.0941 0.16438,0.15605 0.28133,0.15605 0.18784,0 0.34027,-0.15927 0.34027,-0.35553 0,-0.19608 -0.15243,-0.35596 -0.34027,-0.35596 z"
       id="path22-5"
       style="fill:#434c5e;fill-opacity:1;stroke-width:0.402883" />
    <path
       d="m 416.64727,524.58896 c -0.12328,0 -0.23011,0.0692 -0.29018,0.17214 l -0.52054,-0.30608 h -1.0067 v 1.04814 h 1.0067 l 0.52939,-0.35875 c 0.0615,0.0946 0.16438,0.15604 0.28133,0.15604 0.18784,0 0.34027,-0.15927 0.34027,-0.35514 0,-0.19588 -0.15243,-0.35635 -0.34027,-0.35635 z"
       id="path26"
       style="fill:#434c5e;fill-opacity:1;stroke-width:0.402883" />
    <path
       d="m 416.35248,523.76525 c 0.12332,0 0.23013,0.0692 0.28998,0.17215 l 0.52065,-0.30608 h 1.00688 v 1.04814 h -1.00688 l -0.52964,-0.35876 c -0.0609,0.0946 -0.16434,0.15605 -0.2814,0.15605 -0.188,0 -0.34018,-0.15928 -0.34018,-0.35514 0,-0.19588 0.15257,-0.35636 0.34059,-0.35636 z"
       id="path28-3"
       style="fill:#434c5e;fill-opacity:1;stroke-width:0.402883" />
    <path
       d="m 416.64727,526.23638 c -0.12328,0 -0.23011,0.0691 -0.29018,0.17214 l -0.52054,-0.30608 h -1.0067 v 1.04814 h 1.0067 l 0.52939,-0.35876 c 0.0615,0.0946 0.16438,0.15606 0.28133,0.15606 0.18784,0 0.34027,-0.15928 0.34027,-0.35516 0,-0.19586 -0.15243,-0.35634 -0.34027,-0.35634 z"
       id="path30"
       style="fill:#434c5e;fill-opacity:1;stroke-width:0.402883" />
    <path
       d="m 416.35248,525.41268 c 0.12332,0 0.23013,0.0691 0.28998,0.17213 l 0.52065,-0.30607 h 1.00688 v 1.04812 h -1.00688 l -0.52964,-0.35875 c -0.0609,0.0946 -0.16434,0.15604 -0.2814,0.15604 -0.188,0 -0.34018,-0.15926 -0.34018,-0.35513 0,-0.19588 0.15257,-0.35634 0.34059,-0.35634 z"
       id="path32"
       style="fill:#434c5e;fill-opacity:1;stroke-width:0.402883" />
    <path
       d="m 416.64727,527.88379 c -0.12328,0 -0.23011,0.0692 -0.29018,0.17215 l -0.52054,-0.30608 h -1.0067 v 1.04814 h 1.0067 l 0.52939,-0.35878 c 0.0615,0.0946 0.16438,0.15606 0.28133,0.15606 0.18784,0 0.34027,-0.15927 0.34027,-0.35515 0,-0.19586 -0.15243,-0.35634 -0.34027,-0.35634 z"
       id="path34"
       style="fill:#434c5e;fill-opacity:1;stroke-width:0.402883" />
    <path
       d="m 416.35248,527.06009 c 0.12332,0 0.23013,0.0692 0.28998,0.17213 l 0.52065,-0.30606 h 1.00688 v 1.04813 h -1.00688 l -0.52964,-0.35877 c -0.0609,0.0946 -0.16434,0.15606 -0.2814,0.15606 -0.188,0 -0.34018,-0.15927 -0.34018,-0.35515 0,-0.19587 0.15257,-0.35634 0.34059,-0.35634 z"
       id="path36"
       style="fill:#434c5e;fill-opacity:1;stroke-width:0.402883" />
  </g>
</svg>
