<?xml version="1.0" encoding="UTF-8" standalone="no"?>
<svg
   width="64"
   version="1.1"
   height="64"
   id="svg17"
   sodipodi:docname="folder-publicshare.svg"
   inkscape:version="1.1 (c68e22c387, 2021-05-23)"
   xmlns:inkscape="http://www.inkscape.org/namespaces/inkscape"
   xmlns:sodipodi="http://sodipodi.sourceforge.net/DTD/sodipodi-0.dtd"
   xmlns:xlink="http://www.w3.org/1999/xlink"
   xmlns="http://www.w3.org/2000/svg"
   xmlns:svg="http://www.w3.org/2000/svg"
   xmlns:rdf="http://www.w3.org/1999/02/22-rdf-syntax-ns#"
   xmlns:cc="http://creativecommons.org/ns#"
   xmlns:dc="http://purl.org/dc/elements/1.1/">
  <sodipodi:namedview
     pagecolor="#ffffff"
     bordercolor="#666666"
     borderopacity="1"
     objecttolerance="10"
     gridtolerance="10"
     guidetolerance="10"
     inkscape:pageopacity="0"
     inkscape:pageshadow="2"
     inkscape:window-width="1920"
     inkscape:window-height="1007"
     id="namedview19"
     showgrid="true"
     inkscape:zoom="4.90625"
     inkscape:cx="34.751592"
     inkscape:cy="15.898089"
     inkscape:window-x="0"
     inkscape:window-y="0"
     inkscape:window-maximized="1"
     inkscape:current-layer="layer1"
     inkscape:document-rotation="0"
     inkscape:pagecheckerboard="0">
    <inkscape:grid
       type="xygrid"
       id="grid931" />
  </sodipodi:namedview>
  <defs
     id="defs5455">
    <linearGradient
       inkscape:collect="always"
       xlink:href="#linearGradient860"
       id="linearGradient862-3"
       x1="113.94677"
       y1="255.36646"
       x2="406.08289"
       y2="255.36646"
       gradientUnits="userSpaceOnUse"
       gradientTransform="matrix(0.2044729,0,0,0.18450994,363.4056,467.49691)" />
    <linearGradient
       inkscape:collect="always"
       id="linearGradient860">
      <stop
         style="stop-color:#66e0ff;stop-opacity:1"
         offset="0"
         id="stop856" />
      <stop
         style="stop-color:#ffeeaa;stop-opacity:1"
         offset="1"
         id="stop858" />
    </linearGradient>
    <linearGradient
       inkscape:collect="always"
       xlink:href="#linearGradient842"
       id="linearGradient844"
       x1="386.30627"
       y1="522.45404"
       x2="446.83023"
       y2="522.45404"
       gradientUnits="userSpaceOnUse"
       gradientTransform="translate(1.6796e-4,0.02676146)" />
    <linearGradient
       inkscape:collect="always"
       id="linearGradient842">
      <stop
         style="stop-color:#67ffff;stop-opacity:1"
         offset="0"
         id="stop838" />
      <stop
         style="stop-color:#77c5ee;stop-opacity:1"
         offset="1"
         id="stop840" />
    </linearGradient>
  </defs>
  <metadata
     id="metadata5458">
    <rdf:RDF>
      <cc:Work
         rdf:about="">
        <dc:format>image/svg+xml</dc:format>
        <dc:type
           rdf:resource="http://purl.org/dc/dcmitype/StillImage" />
      </cc:Work>
    </rdf:RDF>
  </metadata>
  <g
     inkscape:label="Capa 1"
     inkscape:groupmode="layer"
     id="layer1"
     transform="translate(-384.57143,-483.798)">
    <path
       style="fill:url(#linearGradient862-3);fill-opacity:1;stroke-width:0.179968"
       d="m 416.5716,496.96053 c -0.88801,-2e-5 -1.93916,-0.51678 -2.33715,-1.14848 l -1.78556,-2.83877 c -0.39617,-0.63169 -1.44732,-1.14731 -2.33501,-1.14847 l -20.57928,-0.0268 c -1.963,-0.003 -2.83045,0.93529 -2.83017,3.00583 l 1.2e-4,0.87276 v 2.56786 36.592 c 0,0.70616 2.34097,2.56786 3.22866,2.56786 h 53.27637 c 0.88771,0 3.23785,-1.8617 3.23785,-2.56786 l -1.8e-4,-35.03279 c -10e-6,-1.92589 -0.87582,-2.84264 -2.87414,-2.84267 z"
       id="path4-3"
       sodipodi:nodetypes="sccsssccsssssss" />
    <path
       style="fill:#434c5e;fill-opacity:1;stroke-width:0.177384"
       d="m 442.5716,510.668 c 0,1.32622 -0.80272,2.4113 -2.64,2.4113 h -46.599 c -1.8373,0 -2.54052,-1.08508 -2.54052,-2.4113 v -7.23389 c 0,-1.32622 0.70322,-2.4113 2.54052,-2.4113 h 46.499 c 1.83728,0 2.74,1.08508 2.74,2.4113 z"
       id="path8-6"
       sodipodi:nodetypes="sssssssss" />
    <path
       style="fill:url(#linearGradient844);fill-opacity:1;stroke-width:0.194236"
       d="m 443.55868,505.13694 h -53.98053 c -1.63598,0 -3.27172,1.47608 -3.27172,2.95216 v 28.78355 c 0,1.95216 1.26517,2.95216 3.27172,2.95216 h 53.98053 c 2.01292,0 3.27172,-1 3.27172,-2.95216 V 508.0891 c 0,-1.47608 -1.63575,-2.95216 -3.27172,-2.95216 z"
       id="path10"
       sodipodi:nodetypes="sssssssss" />
    <path
       d="m 427.07143,533.798 h -13.2 c -0.99184,0 -1.8,-0.80816 -1.8,-1.8 0,-0.0588 0.0122,-1.42776 1.10939,-2.77714 0.62939,-0.77633 1.48898,-1.38857 2.55428,-1.82694 1.28572,-0.52898 2.88,-0.79347 4.73878,-0.79347 1.85877,0 3.45061,0.26694 4.73877,0.79347 1.06531,0.43592 1.92245,1.05061 2.55429,1.82694 1.09225,1.34938 1.10449,2.71836 1.10449,2.77714 0,0.99184 -0.80816,1.8 -1.8,1.8 z m -13.8,-1.79755 c 0,0.33061 0.26939,0.59755 0.6,0.59755 h 13.2 c 0.33061,0 0.6,-0.26694 0.6,-0.59755 0,-0.0416 -0.0392,-1.0751 -0.88653,-2.08163 -1.16816,-1.38858 -3.35265,-2.12082 -6.31347,-2.12082 -2.96082,0 -5.14531,0.73469 -6.31347,2.12082 -0.84735,1.00898 -0.88653,2.04 -0.88653,2.08163 z"
       id="path4"
       style="stroke-width:0.0244898;fill:#434c5e;fill-opacity:1" />
    <path
       d="m 420.47143,525.398 c -2.64735,0 -4.8,-2.15265 -4.8,-4.8 0,-2.64735 2.15265,-4.8 4.8,-4.8 2.64735,0 4.8,2.15265 4.8,4.8 0,2.64735 -2.15265,4.8 -4.8,4.8 z m 0,-8.4 c -1.98367,0 -3.6,1.61633 -3.6,3.6 0,1.98367 1.61633,3.6 3.6,3.6 1.98367,0 3.6,-1.61633 3.6,-3.6 0,-1.98612 -1.61633,-3.6 -3.6,-3.6 z"
       id="path6"
       style="stroke-width:0.0244898;fill:#434c5e;fill-opacity:1" />
    <path
       d="m 410.27143,533.798 h -3.6 c -0.99184,0 -1.8,-0.80816 -1.8,-1.8 0,-0.0441 0.01,-1.11184 0.79592,-2.16 0.45306,-0.6049 1.07265,-1.0849 1.83918,-1.42531 0.91592,-0.40898 2.0498,-0.61469 3.3649,-0.61469 0.21551,0 0.42612,0.005 0.63184,0.0171 0.33061,0.0171 0.5853,0.30123 0.56816,0.63184 -0.0171,0.33061 -0.30122,0.58531 -0.63184,0.56816 -0.18367,-0.01 -0.37469,-0.0147 -0.56816,-0.0147 -4.67265,0 -4.79755,2.85551 -4.8,3.00245 0,0.32816 0.26939,0.59755 0.6,0.59755 h 3.6 c 0.33061,0 0.6,0.26939 0.6,0.6 0.002,0.32816 -0.26694,0.59755 -0.6,0.59755 z"
       id="path8"
       style="stroke-width:0.0244898;fill:#434c5e;fill-opacity:1" />
    <path
       d="m 410.87143,526.598 c -1.98367,0 -3.6,-1.61633 -3.6,-3.6 0,-1.98367 1.61633,-3.6 3.6,-3.6 1.98367,0 3.6,1.61633 3.6,3.6 0,1.98367 -1.61633,3.6 -3.6,3.6 z m 0,-6 c -1.32245,0 -2.4,1.07755 -2.4,2.4 0,1.32245 1.07755,2.4 2.4,2.4 1.32245,0 2.4,-1.07755 2.4,-2.4 0,-1.3249 -1.07755,-2.4 -2.4,-2.4 z"
       id="path10-3"
       style="stroke-width:0.0244898;fill:#434c5e;fill-opacity:1" />
  </g>
</svg>
