<?xml version="1.0" encoding="UTF-8" standalone="no"?>
<svg
   style="isolation:isolate"
   viewBox="0 0 34 34"
   width="34pt"
   height="34pt"
   version="1.1"
   id="svg9"
   sodipodi:docname="suspend_primary.svg"
   inkscape:version="1.1 (c68e22c387, 2021-05-23)"
   xmlns:inkscape="http://www.inkscape.org/namespaces/inkscape"
   xmlns:sodipodi="http://sodipodi.sourceforge.net/DTD/sodipodi-0.dtd"
   xmlns:xlink="http://www.w3.org/1999/xlink"
   xmlns="http://www.w3.org/2000/svg"
   xmlns:svg="http://www.w3.org/2000/svg"
   xmlns:rdf="http://www.w3.org/1999/02/22-rdf-syntax-ns#"
   xmlns:cc="http://creativecommons.org/ns#"
   xmlns:dc="http://purl.org/dc/elements/1.1/">
  <metadata
     id="metadata15">
    <rdf:RDF>
      <cc:Work
         rdf:about="">
        <dc:format>image/svg+xml</dc:format>
        <dc:type
           rdf:resource="http://purl.org/dc/dcmitype/StillImage" />
      </cc:Work>
    </rdf:RDF>
  </metadata>
  <defs
     id="defs13">
    <linearGradient
       inkscape:collect="always"
       xlink:href="#linearGradient933"
       id="linearGradient941"
       x1="7.9980001"
       y1="12.95"
       x2="16.6304"
       y2="12.95"
       gradientUnits="userSpaceOnUse"
       gradientTransform="matrix(1.2692313,0,0,1.2692313,-3.3077192,-3.3076949)" />
    <linearGradient
       inkscape:collect="always"
       id="linearGradient933">
      <stop
         style="stop-color:#ff66ff;stop-opacity:1"
         offset="0"
         id="stop929" />
      <stop
         style="stop-color:#ffb280;stop-opacity:1"
         offset="1"
         id="stop931" />
    </linearGradient>
    <linearGradient
       inkscape:collect="always"
       xlink:href="#linearGradient933"
       id="linearGradient995"
       gradientUnits="userSpaceOnUse"
       gradientTransform="matrix(1.2679369,0,0,1.2679369,-3.2869922,-3.2869931)"
       x1="3.0000169"
       y1="28.899982"
       x2="22.000017"
       y2="8.8999825" />
    <linearGradient
       inkscape:collect="always"
       xlink:href="#linearGradient907"
       id="linearGradient997"
       gradientUnits="userSpaceOnUse"
       gradientTransform="matrix(1.2679369,0,0,1.2679369,-3.2869922,-3.2869931)"
       x1="17.000017"
       y1="21.899982"
       x2="17.000017"
       y2="22.899982" />
    <linearGradient
       inkscape:collect="always"
       id="linearGradient907">
      <stop
         style="stop-color:#eff0f1;stop-opacity:1;"
         offset="0"
         id="stop902" />
      <stop
         style="stop-color:#eff0f1;stop-opacity:0;"
         offset="1"
         id="stop904" />
    </linearGradient>
    <linearGradient
       inkscape:collect="always"
       xlink:href="#linearGradient933"
       id="linearGradient949"
       x1="19.014999"
       y1="20.35"
       x2="23.985168"
       y2="20.35"
       gradientUnits="userSpaceOnUse"
       gradientTransform="matrix(1.2692313,0,0,1.2692313,-3.3077192,-3.3076949)" />
  </defs>
  <sodipodi:namedview
     pagecolor="#ffffff"
     bordercolor="#666666"
     borderopacity="1"
     objecttolerance="10"
     gridtolerance="10"
     guidetolerance="10"
     inkscape:pageopacity="0"
     inkscape:pageshadow="2"
     inkscape:window-width="1920"
     inkscape:window-height="1007"
     id="namedview11"
     showgrid="false"
     inkscape:zoom="5.7259246"
     inkscape:cx="-23.140368"
     inkscape:cy="22.703757"
     inkscape:window-x="0"
     inkscape:window-y="0"
     inkscape:window-maximized="1"
     inkscape:current-layer="svg9"
     inkscape:document-rotation="0"
     inkscape:pagecheckerboard="0"
     inkscape:document-units="pt" />
  <linearGradient
     id="_lgradient_0"
     x1="0"
     y1="0.5"
     x2="1"
     y2="0.5"
     gradientTransform="matrix(33,0,0,33,0.5,0.5)"
     gradientUnits="userSpaceOnUse">
    <stop
       offset="0%"
       stop-opacity="1"
       style="stop-color:#00a9a5"
       id="stop2" />
    <stop
       offset="97.82608695652173%"
       stop-opacity="1"
       style="stop-color:#00a9a5"
       id="stop4" />
  </linearGradient>
  <path
     d="m 16.029462,15.870205 h -3.67617 L 17.395655,9.740322 C 17.827046,9.2100185 17.916949,8.4819835 17.629319,7.8618265 17.332728,7.2416355 16.712546,6.8461605 16.029462,6.8461605 H 8.6142628 c -0.979673,0 -1.770676,0.790956 -1.770676,1.770631 0,0.979721 0.791003,1.7706805 1.770676,1.7706805 H 12.290366 L 7.2479718,16.5174 c -0.431407,0.530261 -0.521197,1.258317 -0.233669,1.878488 0.296662,0.620154 0.916839,1.015654 1.59996,1.015654 h 7.4151992 c 0.979689,0 1.770652,-0.790948 1.770652,-1.770663 0,-0.97972 -0.799977,-1.770674 -1.770652,-1.770674 z"
     id="path4-3"
     style="fill:url(#linearGradient941);fill-opacity:1;stroke-width:0.0898832" />
  <path
     d="m 26.170033,2.0608566 c 3.192361,0 5.769091,2.5767593 5.769091,5.7691099 V 26.166686 c 0,3.192358 -2.57673,5.769112 -5.769091,5.769112 H 7.8299648 c -3.192363,0 -5.769091,-2.576754 -5.769091,-5.769112 V 7.8299665 c 0,-3.1923506 2.576728,-5.7691099 5.769091,-5.7691099 H 26.170033 m 0,-1.5440378 H 7.8299648 c -4.016504,0 -7.313146,3.2966401 -7.313146,7.3131477 V 26.166686 c 0,4.019855 3.296642,7.316495 7.313146,7.316495 H 26.166674 c 4.019865,0 7.316506,-3.29664 7.316506,-7.313147 V 7.8299665 c 0,-4.0165076 -3.296641,-7.3131477 -7.313147,-7.3131477 z"
     id="path4-6-5"
     style="clip-rule:evenodd;fill:url(#linearGradient995);fill-opacity:1;fill-rule:evenodd;stroke:url(#linearGradient997);stroke-width:0.0336376;stroke-linejoin:round;stroke-miterlimit:1.41421" />
  <path
     d="M 26.115552,24.099518 H 23.99897 l 2.903149,-3.529344 c 0.248392,-0.305345 0.300154,-0.724521 0.134574,-1.08157 -0.170745,-0.357046 -0.527835,-0.584766 -0.921119,-0.584766 H 21.8462 c -0.564049,0 -1.019476,0.455399 -1.019476,1.019508 0,0.564058 0.455427,1.019473 1.019476,1.019473 h 2.116557 l -2.90317,3.529335 c -0.248411,0.305303 -0.30012,0.724479 -0.134578,1.081539 0.170819,0.357038 0.527879,0.58477 0.921174,0.58477 h 4.269379 c 0.564026,0 1.019427,-0.455432 1.019427,-1.019471 0,-0.564066 -0.460566,-1.019474 -1.019427,-1.019474 z"
     id="path4-3-6"
     style="fill:url(#linearGradient949);fill-opacity:1;stroke-width:0.05175" />
</svg>
