<?xml version="1.0" encoding="UTF-8" standalone="no"?>
<svg
   viewBox="0 0 16 16"
   version="1.1"
   id="svg6"
   sodipodi:docname="dialog-cancel.svg"
   inkscape:version="1.1 (c68e22c387, 2021-05-23)"
   xmlns:inkscape="http://www.inkscape.org/namespaces/inkscape"
   xmlns:sodipodi="http://sodipodi.sourceforge.net/DTD/sodipodi-0.dtd"
   xmlns="http://www.w3.org/2000/svg"
   xmlns:svg="http://www.w3.org/2000/svg">
  <sodipodi:namedview
     id="namedview8"
     pagecolor="#ffffff"
     bordercolor="#666666"
     borderopacity="1.0"
     inkscape:pageshadow="2"
     inkscape:pageopacity="0.0"
     inkscape:pagecheckerboard="0"
     showgrid="true"
     inkscape:zoom="14.584077"
     inkscape:cx="-12.719351"
     inkscape:cy="3.1884088"
     inkscape:window-width="1768"
     inkscape:window-height="946"
     inkscape:window-x="77"
     inkscape:window-y="23"
     inkscape:window-maximized="0"
     inkscape:current-layer="svg6">
    <inkscape:grid
       type="xygrid"
       id="grid921" />
  </sodipodi:namedview>
  <defs
     id="defs3051">
    <style
       type="text/css"
       id="current-color-scheme">
      .ColorScheme-Text {
        color:#eff0f1;
      }
      </style>
  </defs>
  <path
     style="color:#dfdfdf;fill:currentColor;stroke-width:0.999062"
     class="ColorScheme-Text"
     d="M 11.000417,4 A 0.99951122,0.99878148 0 0 0 10.293729,4.2926117 L 8.0018837,6.5827852 5.7197992,4.3023655 a 0.99951122,0.99878148 0 0 0 -0.00973,-0.00975 0.99951122,0.99878148 0 0 0 -0.7008299,-0.2887103 l -0.0097,0.013657 A 0.99951122,0.99878148 0 0 0 4,5.0163373 0.99951122,0.99878148 0 0 0 4.2928257,5.7225061 L 6.5846783,8.0126808 4.2928257,10.302854 A 0.99951122,0.99878148 0 0 0 4.0039094,11.001219 0.99951122,0.99878148 0 0 0 5.0034187,12 0.99951122,0.99878148 0 0 0 5.7101023,11.707393 L 8.0019532,9.4172152 10.284035,11.697639 A 0.99951122,0.99878148 0 0 0 11.000479,12 0.99951122,0.99878148 0 0 0 11.999994,11.001219 0.99951122,0.99878148 0 0 0 11.707161,10.295052 L 9.4075119,7.9990252 11.689609,5.7186057 a 0.99951122,0.99878148 0 0 0 0.310392,-0.7198242 0.99951122,0.99878148 0 0 0 -0.999516,-0.998781 z"
     id="path5" />
</svg>
