<?xml version="1.0" encoding="UTF-8" standalone="no"?>
<svg
   xmlns:dc="http://purl.org/dc/elements/1.1/"
   xmlns:cc="http://creativecommons.org/ns#"
   xmlns:rdf="http://www.w3.org/1999/02/22-rdf-syntax-ns#"
   xmlns:svg="http://www.w3.org/2000/svg"
   xmlns="http://www.w3.org/2000/svg"
   xmlns:xlink="http://www.w3.org/1999/xlink"
   xmlns:sodipodi="http://sodipodi.sourceforge.net/DTD/sodipodi-0.dtd"
   xmlns:inkscape="http://www.inkscape.org/namespaces/inkscape"
   width="32"
   version="1.1"
   height="32"
   viewBox="0 0 32 32"
   id="svg2"
   inkscape:version="1.0.2 (e86c870879, 2021-01-15)"
   sodipodi:docname="favorites.svg">
  <sodipodi:namedview
     pagecolor="#ffffff"
     bordercolor="#666666"
     borderopacity="1"
     objecttolerance="10"
     gridtolerance="10"
     guidetolerance="10"
     inkscape:pageopacity="0"
     inkscape:pageshadow="2"
     inkscape:window-width="1920"
     inkscape:window-height="1011"
     id="namedview19"
     showgrid="false"
     inkscape:zoom="7.375"
     inkscape:cx="16"
     inkscape:cy="16"
     inkscape:window-x="0"
     inkscape:window-y="0"
     inkscape:window-maximized="1"
     inkscape:current-layer="layer1"
     inkscape:document-rotation="0" />
  <defs
     id="defs5455">
    <linearGradient
       inkscape:collect="always"
       xlink:href="#linearGradient860"
       id="linearGradient862"
       x1="113.94677"
       y1="255.36646"
       x2="406.08289"
       y2="255.36646"
       gradientUnits="userSpaceOnUse"
       gradientTransform="matrix(0.10135136,0,0,0.09220346,374.22015,507.65425)" />
    <linearGradient
       inkscape:collect="always"
       id="linearGradient860">
      <stop
         style="stop-color:#00ccff;stop-opacity:1"
         offset="0"
         id="stop856" />
      <stop
         style="stop-color:#ffe680;stop-opacity:1"
         offset="1"
         id="stop858" />
    </linearGradient>
    <linearGradient
       inkscape:collect="always"
       xlink:href="#linearGradient860"
       id="linearGradient844"
       x1="446.80325"
       y1="518.77124"
       x2="379.57126"
       y2="543.77124"
       gradientUnits="userSpaceOnUse"
       gradientTransform="matrix(0.49567138,0,0,0.49972081,194.09048,274.0497)" />
  </defs>
  <metadata
     id="metadata5458">
    <rdf:RDF>
      <cc:Work
         rdf:about="">
        <dc:format>image/svg+xml</dc:format>
        <dc:type
           rdf:resource="http://purl.org/dc/dcmitype/StillImage" />
      </cc:Work>
    </rdf:RDF>
  </metadata>
  <g
     inkscape:label="Capa 1"
     inkscape:groupmode="layer"
     id="layer1"
     transform="translate(-384.57143,-515.798)">
    <path
       style="fill:url(#linearGradient862);fill-opacity:1;stroke-width:0.0895686"
       d="m 400.57301,522.37784 c -0.44016,-10e-6 -0.96119,-0.25825 -1.15846,-0.57392 l -0.88505,-1.4186 c -0.19637,-0.31567 -0.71739,-0.57333 -1.15739,-0.57391 l -10.20057,-0.0134 c -0.973,-0.002 -1.3831,0.46748 -1.39692,1.50207 l -0.006,0.43614 v 1.28322 18.28578 c 0,0.35288 1.16035,1.28321 1.60036,1.28321 h 26.40756 c 0.44002,0 1.60037,-0.93033 1.60037,-1.28321 l 9e-5,-17.52742 c 0,-0.96241 -0.42976,-1.3996 -1.48101,-1.39963 z"
       id="path4-3"
       sodipodi:nodetypes="sccsssccsssssss" />
    <path
       style="fill:#434c5e;fill-opacity:1;stroke-width:0.0882823"
       d="m 413.46047,529.22774 c 0,0.66274 -0.39789,1.20498 -1.30857,1.20498 h -23.0978 c -0.9107,0 -1.25926,-0.54224 -1.25926,-1.20498 v -3.61492 c 0,-0.66274 0.34856,-1.20497 1.25926,-1.20497 h 23.04823 c 0.91069,0 1.35814,0.54223 1.35814,1.20497 z"
       id="path8-6"
       sodipodi:nodetypes="sssssssss" />
    <path
       style="fill:url(#linearGradient844);fill-opacity:1;stroke-width:0.0966695"
       d="m 413.94973,526.46376 h -26.7566 c -0.81091,0 -1.6217,0.73763 -1.6217,1.47525 v 14.38375 c 0,0.97553 0.62711,1.47525 1.6217,1.47525 h 26.7566 c 0.99775,0 1.6217,-0.49972 1.6217,-1.47525 v -14.38375 c 0,-0.73762 -0.81079,-1.47525 -1.6217,-1.47525 z"
       id="path10"
       sodipodi:nodetypes="sssssssss" />
    <path
       d="m 404.95096,532.91546 c 0.93882,0.96582 0.93788,2.51999 0,3.48669 l -4.15502,4.28419 c -1.3866,-1.42634 -2.77323,-2.85285 -4.15982,-4.27913 -0.93889,-0.96588 -0.93889,-2.52097 0,-3.48679 0.93887,-0.96583 2.45057,-0.96584 3.38944,0 l 0.76556,0.78749 0.77034,-0.79245 c 0.93889,-0.96583 2.45057,-0.96583 3.3895,0 z"
       style="color:#000000;fill:#434c5e;fill-opacity:1;stroke-width:0.162707;enable-background:accumulate"
       stroke="none"
       marker="none"
       visibility="visible"
       display="inline"
       overflow="visible"
       id="path2-36-3-7" />
  </g>
</svg>
