<?xml version="1.0" encoding="UTF-8" standalone="no"?>
<svg
   xmlns:dc="http://purl.org/dc/elements/1.1/"
   xmlns:cc="http://creativecommons.org/ns#"
   xmlns:rdf="http://www.w3.org/1999/02/22-rdf-syntax-ns#"
   xmlns:svg="http://www.w3.org/2000/svg"
   xmlns="http://www.w3.org/2000/svg"
   xmlns:xlink="http://www.w3.org/1999/xlink"
   xmlns:sodipodi="http://sodipodi.sourceforge.net/DTD/sodipodi-0.dtd"
   xmlns:inkscape="http://www.inkscape.org/namespaces/inkscape"
   width="32"
   version="1.1"
   height="32"
   viewBox="0 0 32 32"
   id="svg15"
   sodipodi:docname="folder-IOTA.svg"
   inkscape:version="1.0.2 (e86c870879, 2021-01-15)">
  <sodipodi:namedview
     pagecolor="#ffffff"
     bordercolor="#666666"
     borderopacity="1"
     objecttolerance="10"
     gridtolerance="10"
     guidetolerance="10"
     inkscape:pageopacity="0"
     inkscape:pageshadow="2"
     inkscape:window-width="1920"
     inkscape:window-height="1007"
     id="namedview17"
     showgrid="false"
     inkscape:zoom="9.8125"
     inkscape:cx="-12.999029"
     inkscape:cy="6.4668704"
     inkscape:window-x="0"
     inkscape:window-y="0"
     inkscape:window-maximized="1"
     inkscape:current-layer="layer1"
     inkscape:document-rotation="0" />
  <defs
     id="defs5455">
    <linearGradient
       inkscape:collect="always"
       xlink:href="#linearGradient860-6"
       id="linearGradient862-3"
       x1="113.94677"
       y1="255.36646"
       x2="406.08289"
       y2="255.36646"
       gradientUnits="userSpaceOnUse"
       gradientTransform="matrix(0.10135136,0,0,0.09220348,374.22015,507.65423)" />
    <linearGradient
       inkscape:collect="always"
       id="linearGradient860-6">
      <stop
         style="stop-color:#00b7e5;stop-opacity:1"
         offset="0"
         id="stop856-7" />
      <stop
         style="stop-color:#a3d9f5;stop-opacity:1"
         offset="1"
         id="stop858-5" />
    </linearGradient>
    <linearGradient
       inkscape:collect="always"
       xlink:href="#linearGradient842-5"
       id="linearGradient844-3"
       x1="386.30627"
       y1="522.45404"
       x2="446.83023"
       y2="522.45404"
       gradientUnits="userSpaceOnUse"
       gradientTransform="matrix(0.49567138,0,0,0.4997209,194.09048,274.04963)" />
    <linearGradient
       inkscape:collect="always"
       id="linearGradient842-5">
      <stop
         style="stop-color:#55ddff;stop-opacity:1"
         offset="0"
         id="stop838-6" />
      <stop
         style="stop-color:#80ffb3;stop-opacity:1"
         offset="1"
         id="stop840-2" />
    </linearGradient>
  </defs>
  <metadata
     id="metadata5458">
    <rdf:RDF>
      <cc:Work
         rdf:about="">
        <dc:format>image/svg+xml</dc:format>
        <dc:type
           rdf:resource="http://purl.org/dc/dcmitype/StillImage" />
      </cc:Work>
    </rdf:RDF>
  </metadata>
  <g
     inkscape:label="Capa 1"
     inkscape:groupmode="layer"
     id="layer1"
     transform="translate(-384.57143,-515.798)">
    <path
       style="fill:url(#linearGradient862-3);fill-opacity:1;stroke-width:0.0895687"
       d="m 400.57301,522.37781 c -0.44016,0 -0.96119,-0.25824 -1.15846,-0.57391 l -0.88505,-1.4186 c -0.19637,-0.31567 -0.7174,-0.57332 -1.1574,-0.5739 l -10.20056,-0.0134 c -0.973,-10e-4 -1.3831,0.46748 -1.39692,1.50207 l -0.006,0.43615 v 1.2832 18.28578 c 0,0.35289 1.16035,1.28322 1.60035,1.28322 h 26.40757 c 0.44002,0 1.60036,-0.93033 1.60036,-1.28322 v -17.64418 c 0,-0.9624 -0.40002,-1.28321 -1.60036,-1.28321 z"
       id="path4-3-9"
       sodipodi:nodetypes="sccsssccsssssss" />
    <path
       style="fill:#434c5e;fill-opacity:1;stroke-width:0.0882827"
       d="m 413.46046,529.22772 c 0,0.66275 -0.39788,1.20498 -1.30857,1.20498 H 389.0541 c -0.9107,0 -1.25926,-0.54223 -1.25926,-1.20498 v -3.61491 c 0,-0.66275 0.34856,-1.20498 1.25926,-1.20498 h 23.04823 c 0.91068,0 1.35813,0.54223 1.35813,1.20498 z"
       id="path8-6-1"
       sodipodi:nodetypes="sssssssss" />
    <path
       style="fill:url(#linearGradient844-3);fill-opacity:1;stroke-width:0.0966697"
       d="m 413.94973,526.46373 h -26.7566 c -0.81091,0 -1.6217,0.73764 -1.6217,1.47526 v 14.38375 c 0,0.97554 0.62711,1.47526 1.6217,1.47526 h 26.7566 c 0.99775,0 1.6217,-0.49972 1.6217,-1.47526 v -14.38375 c 0,-0.73762 -0.81079,-1.47526 -1.6217,-1.47526 z"
       id="path10-2"
       sodipodi:nodetypes="sssssssss" />
    <path
       style="isolation:isolate;fill:#434c5e;fill-opacity:1;stroke-width:0.635951"
       class="ColorScheme-Text"
       d="m 398.60114,540.68537 c 0.19889,-0.0101 0.37982,-0.12532 0.47895,-0.30743 0.0774,-0.14163 0.0991,-0.30938 0.0588,-0.46734 -0.0402,-0.15795 -0.13815,-0.29241 -0.27262,-0.37465 -0.13445,-0.0815 -0.2943,-0.10377 -0.44425,-0.0614 -0.14932,0.0425 -0.27758,0.14556 -0.35505,0.28719 -0.0775,0.14163 -0.0985,0.30938 -0.0582,0.46734 0.0396,0.15796 0.13816,0.29241 0.27261,0.374 0.0967,0.0594 0.20819,0.0882 0.31972,0.0823 z m 3.7635,-0.96274 c 0.0979,0 0.19206,-0.0412 0.26146,-0.11422 0.0694,-0.0731 0.10781,-0.17166 0.10781,-0.27479 0,-0.21474 -0.16545,-0.38836 -0.36927,-0.38836 -0.20322,0 -0.36806,0.17428 -0.36806,0.38836 0,0.21408 0.16484,0.38836 0.36806,0.38901 z m -0.92881,-0.0992 c 0.0855,0 0.16793,-0.0358 0.22801,-0.0992 0.0607,-0.064 0.0948,-0.15012 0.0942,-0.24019 0,-0.18734 -0.14435,-0.33876 -0.3222,-0.33876 -0.1772,0 -0.32095,0.15207 -0.32157,0.33876 0,0.18731 0.14377,0.33939 0.32157,0.33939 z m 2.00815,-0.0393 c 0.11525,0 0.22616,-0.0483 0.30733,-0.13381 0.0818,-0.0863 0.12764,-0.20298 0.12764,-0.32438 0,-0.1214 -0.0455,-0.23759 -0.12764,-0.32375 -0.0812,-0.0856 -0.19208,-0.1338 -0.30733,-0.1338 -0.11524,0 -0.22553,0.0483 -0.30734,0.1338 -0.0818,0.0863 -0.127,0.20235 -0.127,0.32375 0,0.1214 0.0452,0.23822 0.127,0.32438 0.0818,0.0856 0.1921,0.13381 0.30734,0.13381 z m -2.77276,-0.23759 c 0.15492,0 0.28008,-0.13184 0.28008,-0.29436 4.6e-4,-0.0783 -0.0292,-0.15338 -0.0818,-0.20887 -0.0526,-0.0554 -0.12391,-0.0869 -0.19827,-0.0863 -0.15427,0 -0.27942,0.13183 -0.27942,0.29502 4.6e-4,0.16252 0.12515,0.29372 0.27942,0.29436 z m -2.23118,-0.31982 c 0.1698,-0.008 0.32467,-0.1077 0.40954,-0.26304 0.1382,-0.25259 0.0558,-0.57437 -0.18338,-0.71992 -0.23917,-0.14556 -0.54465,-0.0593 -0.68345,0.19254 -0.0663,0.1214 -0.0843,0.265 -0.0501,0.40011 0.0347,0.13512 0.1183,0.25064 0.23296,0.32047 0.0837,0.0502 0.17845,0.0744 0.27449,0.0699 z m 1.6494,-0.0554 c 0.0644,0 0.1264,-0.0268 0.17223,-0.0744 0.0452,-0.0476 0.0712,-0.11293 0.0712,-0.18081 0,-0.0679 -0.0252,-0.13315 -0.0712,-0.1808 -0.0456,-0.0483 -0.10719,-0.0751 -0.17223,-0.0751 -0.0638,0 -0.12578,0.0274 -0.17101,0.0751 -0.0456,0.0483 -0.0713,0.11293 -0.0707,0.1808 0,0.14098 0.10843,0.25522 0.24166,0.25522 z m -2.92144,-0.13381 c 0.16975,-0.008 0.32404,-0.10769 0.40955,-0.26305 0.13754,-0.25194 0.0557,-0.57371 -0.18341,-0.71994 -0.11463,-0.0699 -0.25158,-0.0888 -0.3798,-0.0528 -0.12828,0.0367 -0.23733,0.12466 -0.30361,0.24607 -0.1382,0.25194 -0.0558,0.57372 0.1834,0.71929 0.083,0.0509 0.17781,0.075 0.27387,0.0705 z m 5.02871,-0.24215 c 0.20323,0 0.36866,-0.17427 0.36805,-0.38901 0,-0.21409 -0.16482,-0.38772 -0.36805,-0.38772 -0.20383,0 -0.36928,0.17363 -0.36928,0.38772 0,0.10377 0.0384,0.20233 0.10781,0.27544 0.0694,0.0731 0.16357,0.11357 0.26147,0.11357 z m -2.53851,-0.0692 c 0.0545,5e-4 0.10657,-0.0222 0.14497,-0.0628 0.0384,-0.0406 0.0601,-0.0953 0.0601,-0.15272 0,-0.0574 -0.0218,-0.11227 -0.0601,-0.15274 -0.0384,-0.0405 -0.0905,-0.0634 -0.14497,-0.0634 -0.0539,0 -0.10658,0.0229 -0.145,0.0634 -0.0384,0.0405 -0.0595,0.0953 -0.0595,0.15274 0,0.0574 0.0211,0.11225 0.0595,0.15272 0.0384,0.0405 0.0911,0.0634 0.145,0.0628 z m 1.60974,-0.0293 c 0.17719,-5e-4 0.32155,-0.15206 0.32155,-0.33939 -4.6e-4,-0.18732 -0.14436,-0.33876 -0.32155,-0.33876 -0.17785,0 -0.32222,0.15144 -0.32222,0.33876 -4.7e-4,0.0901 0.0338,0.17622 0.0942,0.2402 0.0601,0.0634 0.14252,0.0992 0.22803,0.0992 z m 2.00688,-0.0392 c 0.11526,0 0.22616,-0.0483 0.30795,-0.13445 0.0812,-0.0856 0.12702,-0.20235 0.12702,-0.32375 0,-0.12141 -0.0455,-0.23757 -0.12702,-0.32374 -0.0818,-0.0863 -0.19269,-0.13446 -0.30795,-0.13446 -0.11525,0 -0.22552,0.0483 -0.30731,0.13446 -0.0812,0.0863 -0.12703,0.20233 -0.12703,0.32374 0,0.1214 0.0455,0.23824 0.12703,0.32375 0.0818,0.0863 0.19206,0.13445 0.30731,0.13445 z m -2.77148,-0.23759 c 0.15427,-5e-4 0.27881,-0.13248 0.27942,-0.29501 0,-0.16253 -0.12515,-0.29438 -0.27942,-0.29504 -0.0744,0 -0.14564,0.0313 -0.19827,0.0869 -0.0527,0.0548 -0.0824,0.13055 -0.0824,0.20822 4.5e-4,0.16317 0.12577,0.29501 0.28069,0.29501 z m 3.9537,-0.21738 c 0.27633,0 0.50064,-0.23627 0.50064,-0.52738 0,-0.2911 -0.22431,-0.52673 -0.50064,-0.52673 -0.27634,0 -0.50003,0.23563 -0.50003,0.52673 0,0.29111 0.22369,0.52738 0.50003,0.52738 z m -4.53553,-0.15796 c 0.13383,0 0.24229,-0.11421 0.24229,-0.2552 0,-0.14098 -0.10846,-0.25521 -0.24229,-0.25521 -0.13382,0 -0.24226,0.11423 -0.24226,0.25521 0,0.14099 0.10844,0.2552 0.24226,0.2552 z m -1.32412,-0.22779 c 0.14749,-0.007 0.28193,-0.0934 0.3557,-0.22779 0.0576,-0.10573 0.0737,-0.2304 0.0437,-0.34788 -0.0297,-0.11749 -0.10286,-0.21736 -0.20263,-0.27806 -0.20819,-0.12663 -0.47341,-0.0509 -0.5936,0.16775 -0.11959,0.21865 -0.049,0.49865 0.15862,0.62528 0.0725,0.0438 0.1549,0.0653 0.23854,0.0607 z m -1.27203,-0.18862 c 0.14747,-0.008 0.2813,-0.0934 0.35565,-0.22845 0.0576,-0.1051 0.0731,-0.2304 0.0437,-0.34724 -0.0297,-0.11749 -0.10221,-0.218 -0.20258,-0.27871 -0.0998,-0.0607 -0.21876,-0.077 -0.32964,-0.0457 -0.11153,0.0313 -0.20694,0.10834 -0.26458,0.21342 -0.11958,0.21931 -0.0483,0.49932 0.15986,0.6253 0.0719,0.0444 0.1549,0.0653 0.23792,0.0615 z m 4.38993,-0.0882 c 0.20383,0 0.36928,-0.17362 0.36928,-0.38837 0,-0.10312 -0.0384,-0.20168 -0.10782,-0.27478 -0.0694,-0.0731 -0.16357,-0.11421 -0.26146,-0.11421 -0.0979,0 -0.19147,0.0411 -0.26087,0.11421 -0.0694,0.0731 -0.10842,0.17166 -0.10781,0.27478 0,0.21475 0.16545,0.38837 0.36868,0.38837 z m -0.9288,-0.0979 c 0.0855,0 0.16793,-0.036 0.22801,-0.0998 0.0607,-0.0634 0.0942,-0.15013 0.0942,-0.23954 0,-0.0901 -0.0337,-0.17688 -0.0942,-0.2402 -0.0601,-0.064 -0.14252,-0.0998 -0.22801,-0.0998 -0.17783,5e-4 -0.32159,0.15273 -0.32159,0.34005 0,0.18668 0.14376,0.33876 0.32159,0.3394 z m 2.00814,-0.0405 c 0.11525,0 0.22615,-0.0483 0.30731,-0.1338 0.0818,-0.0863 0.12767,-0.20236 0.12767,-0.32374 0,-0.12141 -0.0456,-0.23824 -0.12767,-0.32376 -0.0812,-0.0862 -0.19206,-0.13444 -0.30731,-0.13444 -0.11524,0 -0.22552,0.0483 -0.30732,0.13444 -0.0812,0.0856 -0.12702,0.20235 -0.12702,0.32376 0,0.12138 0.0455,0.23757 0.12702,0.32374 0.0818,0.0856 0.19208,0.13381 0.30732,0.13381 z m -6.48044,-0.18276 c 0.14804,-0.007 0.28252,-0.0934 0.35623,-0.22846 0.0576,-0.10508 0.0738,-0.2304 0.0436,-0.34789 -0.0297,-0.11747 -0.10287,-0.21734 -0.2026,-0.27804 -0.20819,-0.12597 -0.4734,-0.0509 -0.59362,0.16774 -0.11957,0.21931 -0.0489,0.49867 0.15861,0.6253 0.0725,0.0438 0.1549,0.0653 0.23794,0.0614 z m 3.70771,-0.0542 c 0.0743,0 0.1456,-0.0306 0.19826,-0.0862 0.0527,-0.0554 0.0824,-0.13055 0.0824,-0.20888 -4.8e-4,-0.16252 -0.12581,-0.29437 -0.28069,-0.29437 -0.15429,0 -0.27882,0.13185 -0.27943,0.29437 0,0.16319 0.12514,0.29504 0.27943,0.29504 z m 3.95493,-0.21736 c 0.27635,0 0.50004,-0.23563 0.50004,-0.52674 0,-0.2911 -0.22369,-0.52738 -0.50004,-0.52738 -0.27631,0 -0.50002,0.23628 -0.50002,0.52738 0,0.29111 0.22371,0.52674 0.50002,0.52674 z m -5.01383,-0.28785 c 0.12514,-0.006 0.23918,-0.0789 0.30236,-0.19385 0.10159,-0.18602 0.0409,-0.4236 -0.1357,-0.53065 -0.17598,-0.10704 -0.40151,-0.0431 -0.50374,0.1423 -0.10162,0.18601 -0.0416,0.42359 0.13445,0.53065 0.0613,0.0371 0.13199,0.0554 0.20263,0.0516 z m -1.27208,-0.18863 c 0.12579,-0.006 0.23916,-0.0796 0.30174,-0.1945 0.10163,-0.18537 0.0416,-0.42295 -0.13443,-0.53064 -0.0849,-0.0516 -0.1859,-0.0653 -0.28007,-0.0386 -0.0948,0.0268 -0.17535,0.0921 -0.2243,0.18146 -0.10159,0.18536 -0.0416,0.42295 0.13508,0.53064 0.0613,0.0373 0.13136,0.0548 0.20198,0.0516 z m 3.97788,-0.30872 c 0.047,-5e-4 0.0929,-0.0151 0.13384,-0.0399 0.13384,-0.0815 0.17907,-0.26173 0.10223,-0.4027 -0.0774,-0.14099 -0.24907,-0.18863 -0.38229,-0.1077 -0.13383,0.0815 -0.17969,0.26239 -0.10223,0.40271 0.0508,0.0934 0.14623,0.15013 0.24845,0.14752 z m 3.51999,-0.0541 c 0.15491,0 0.30362,-0.0653 0.41331,-0.18079 0.10966,-0.11553 0.171,-0.27218 0.171,-0.43535 0,-0.34007 -0.26149,-0.61616 -0.58431,-0.61616 -0.15552,0 -0.30422,0.0647 -0.4139,0.18014 -0.10966,0.11554 -0.17163,0.27219 -0.17163,0.43602 0,0.16317 0.062,0.31982 0.17163,0.436 0.10968,0.11552 0.25838,0.18013 0.4139,0.18013 z m -8.50845,-0.0464 c 0.12515,-0.006 0.23915,-0.0796 0.30237,-0.1945 0.10162,-0.18536 0.0409,-0.42295 -0.13571,-0.53065 -0.17658,-0.10704 -0.4015,-0.0431 -0.50374,0.14295 -0.10159,0.18537 -0.0416,0.42294 0.1345,0.53065 0.0613,0.0373 0.13196,0.0548 0.20258,0.0515 z m 2.78576,-0.27348 c 0.10906,-0.006 0.20881,-0.0692 0.26334,-0.1697 0.0429,-0.0776 0.0545,-0.17035 0.0326,-0.25716 -0.0218,-0.0876 -0.0762,-0.16122 -0.14996,-0.20627 -0.0744,-0.0451 -0.16232,-0.0574 -0.24475,-0.0338 -0.0824,0.0228 -0.15303,0.0802 -0.19579,0.15796 -0.043,0.0783 -0.0545,0.17101 -0.0326,0.25781 0.0225,0.0869 0.0762,0.16122 0.15059,0.20627 0.0533,0.0326 0.11462,0.0483 0.17657,0.0451 z m 3.00759,-0.0326 c 0.0409,-10e-4 0.0811,-0.0131 0.11584,-0.0346 0.0558,-0.0339 0.0967,-0.0895 0.11341,-0.15468 0.0158,-0.066 0.007,-0.13512 -0.0247,-0.19386 -0.0324,-0.0587 -0.0849,-0.10117 -0.14747,-0.11878 -0.0619,-0.0177 -0.12824,-0.008 -0.184,0.0254 -0.11527,0.0712 -0.15493,0.22648 -0.088,0.34853 0.044,0.0809 0.12638,0.12991 0.215,0.12796 z m -4.28026,-0.1573 c 0.10968,-0.005 0.20882,-0.0686 0.26335,-0.16841 0.0437,-0.0776 0.0545,-0.17035 0.0332,-0.25779 -0.0218,-0.0869 -0.0762,-0.16124 -0.14996,-0.20627 -0.0738,-0.0451 -0.16171,-0.0567 -0.24472,-0.034 -0.0824,0.0235 -0.15243,0.0802 -0.19519,0.15861 -0.0886,0.16187 -0.0357,0.36942 0.11773,0.46276 0.0533,0.0326 0.1146,0.0483 0.17596,0.0451 z m 5.00457,-0.003 c 0.0341,-10e-4 0.0675,-0.0111 0.0973,-0.0293 0.0979,-0.0593 0.13136,-0.19125 0.075,-0.29438 -0.0272,-0.0496 -0.0719,-0.0862 -0.12455,-0.10051 -0.0527,-0.0151 -0.1084,-0.007 -0.15552,0.0216 -0.047,0.0287 -0.0812,0.0757 -0.0954,0.1312 -0.0144,0.0554 -0.006,0.11421 0.0211,0.16383 0.037,0.0679 0.1072,0.10966 0.18221,0.1077 z m -1.72003,-0.20234 c 0.0545,-0.001 0.1072,-0.0164 0.15427,-0.0451 0.0738,-0.0451 0.12767,-0.11944 0.14996,-0.20625 0.0225,-0.0869 0.0106,-0.17949 -0.0326,-0.25782 -0.0429,-0.0776 -0.11337,-0.13447 -0.19579,-0.1573 -0.0824,-0.0235 -0.17037,-0.0111 -0.24412,0.0339 -0.15428,0.094 -0.20695,0.30088 -0.11836,0.46341 0.0589,0.10699 0.16853,0.17225 0.28628,0.16899 z m -4.29451,-0.20365 c 0.10906,-0.005 0.20819,-0.0686 0.26334,-0.16841 0.0429,-0.0783 0.0545,-0.171 0.0324,-0.25782 -0.0225,-0.0869 -0.0762,-0.16121 -0.14995,-0.20625 -0.0743,-0.0451 -0.16233,-0.0567 -0.24473,-0.0339 -0.0824,0.0235 -0.15308,0.0802 -0.19583,0.15859 -0.0886,0.16189 -0.0357,0.36944 0.11778,0.46277 0.0539,0.0326 0.11521,0.0483 0.17719,0.0451 z m 2.85392,-0.0268 c 0.0954,-0.004 0.18153,-0.0608 0.22925,-0.14752 0.0363,-0.0679 0.0469,-0.14816 0.0278,-0.22387 -0.0198,-0.0757 -0.0669,-0.13968 -0.13073,-0.17885 -0.0644,-0.0392 -0.14063,-0.0496 -0.21252,-0.0293 -0.0719,0.0202 -0.1326,0.0699 -0.16977,0.13772 -0.037,0.0679 -0.0469,0.14817 -0.0278,0.22388 0.0191,0.0751 0.0663,0.13968 0.13075,0.17883 0.0462,0.0281 0.0991,0.0419 0.15303,0.0392 z m 2.42267,-0.066 c 0.047,-10e-4 0.0929,-0.0151 0.13384,-0.0392 0.13383,-0.0815 0.17968,-0.26238 0.10222,-0.40272 -0.0774,-0.14098 -0.24846,-0.18927 -0.3823,-0.10769 -0.13382,0.0815 -0.17967,0.26173 -0.10223,0.40271 0.0514,0.0927 0.14624,0.14882 0.24847,0.14686 z m 0.85568,-0.058 c 0.0409,-10e-4 0.0799,-0.0131 0.11525,-0.0346 0.0557,-0.0339 0.0966,-0.0895 0.11337,-0.15469 0.0165,-0.066 0.008,-0.1351 -0.0242,-0.19386 -0.0324,-0.0587 -0.0855,-0.10182 -0.14748,-0.11879 -0.0619,-0.0177 -0.12825,-0.008 -0.18401,0.0254 -0.0558,0.0339 -0.096,0.0901 -0.11275,0.15534 -0.0165,0.0653 -0.007,0.13512 0.0249,0.19386 0.0441,0.0802 0.1264,0.12925 0.21504,0.12729 z m -4.55102,-0.0647 c 0.0954,-0.005 0.18155,-0.0608 0.22925,-0.14816 0.0774,-0.14098 0.0317,-0.32113 -0.10222,-0.40272 -0.0645,-0.0387 -0.14067,-0.0496 -0.21253,-0.0287 -0.0713,0.0202 -0.1326,0.0699 -0.16978,0.13709 -0.0774,0.14096 -0.0317,0.32112 0.10224,0.4027 0.0462,0.0287 0.0997,0.0425 0.15304,0.0399 z m 2.29132,-0.40331 c 0.062,-0.001 0.12204,-0.0197 0.17596,-0.0522 0.17597,-0.10703 0.23607,-0.34463 0.13445,-0.53065 -0.10161,-0.18536 -0.32715,-0.24934 -0.50373,-0.14228 -0.0849,0.0516 -0.14687,0.13641 -0.17226,0.23627 -0.0253,0.0999 -0.0126,0.20561 0.0369,0.29502 0.0675,0.12336 0.19332,0.19776 0.32838,0.19386 z m -1.72623,0 c 0.083,-0.003 0.15739,-0.0516 0.19887,-0.12664 0.0326,-0.0587 0.0409,-0.12857 0.0243,-0.19386 -0.0165,-0.066 -0.0576,-0.12139 -0.1134,-0.15534 -0.11586,-0.0699 -0.26331,-0.028 -0.33024,0.094 -0.0324,0.058 -0.0409,0.12793 -0.0247,0.1932 0.0165,0.066 0.0576,0.12141 0.11279,0.15536 0.0403,0.0241 0.0867,0.036 0.1326,0.0332 z m -1.57566,-0.007 c 0.0954,-0.004 0.18216,-0.06 0.22988,-0.14752 0.0364,-0.0673 0.0462,-0.14816 0.0273,-0.22323 -0.0191,-0.0757 -0.0663,-0.14032 -0.13008,-0.17948 -0.0645,-0.0386 -0.14128,-0.0496 -0.21253,-0.0293 -0.0719,0.0209 -0.13323,0.0705 -0.16978,0.13774 -0.037,0.0679 -0.047,0.14816 -0.0278,0.22386 0.0191,0.0757 0.0663,0.14035 0.13011,0.17885 0.0462,0.0281 0.0991,0.0419 0.15304,0.0392 z m 5.54796,-0.18478 c 0.0462,-9.9e-4 0.0923,-0.0151 0.13321,-0.0399 0.0644,-0.0386 0.11089,-0.10313 0.13073,-0.17883 0.0191,-0.0751 0.009,-0.156 -0.0278,-0.22388 -0.0774,-0.14034 -0.24846,-0.18864 -0.38228,-0.1077 -0.0644,0.0392 -0.11155,0.10379 -0.13074,0.17949 -0.0191,0.0751 -0.009,0.15599 0.0278,0.22389 0.0514,0.0927 0.14684,0.14945 0.24908,0.14684 z m -1.03164,-0.0522 c 0.0539,-10e-4 0.10655,-0.0164 0.15302,-0.0451 0.0744,-0.0451 0.12826,-0.1188 0.15058,-0.20561 0.0218,-0.0876 0.0106,-0.18015 -0.0324,-0.25782 -0.043,-0.0783 -0.11338,-0.13511 -0.19578,-0.15861 -0.083,-0.0229 -0.17101,-0.0111 -0.24475,0.0338 -0.0744,0.0451 -0.12826,0.11945 -0.15058,0.20625 -0.0218,0.0869 -0.01,0.1795 0.0326,0.25784 0.0595,0.10768 0.16975,0.17231 0.28751,0.16902 z m -3.95064,-0.16514 c 0.0824,-0.004 0.15678,-0.0522 0.19827,-0.12728 0.0325,-0.0588 0.0409,-0.12858 0.0243,-0.19384 -0.0165,-0.0653 -0.057,-0.12141 -0.11277,-0.15534 -0.0558,-0.0339 -0.12206,-0.0431 -0.18403,-0.0254 -0.0619,0.0177 -0.11526,0.0608 -0.14745,0.11945 -0.0326,0.0588 -0.0409,0.12793 -0.0244,0.19386 0.0165,0.0653 0.057,0.12075 0.1128,0.15469 0.0402,0.0248 0.0867,0.0359 0.13319,0.0339 z m 0.54714,-0.23105 c 0.0694,-0.003 0.13258,-0.0438 0.16788,-0.10705 0.0564,-0.10312 0.0225,-0.23498 -0.0756,-0.29437 -0.047,-0.0293 -0.10286,-0.0371 -0.15552,-0.0222 -0.0527,0.0151 -0.0973,0.0509 -0.12453,0.10052 -0.0272,0.0496 -0.0348,0.10834 -0.0205,0.16383 0.0144,0.0554 0.0483,0.10245 0.0954,0.13118 0.0349,0.0209 0.0737,0.0306 0.11278,0.0281 z m 1.48024,-0.17102 c 0.0725,-0.001 0.14375,-0.0235 0.20692,-0.0621 0.20759,-0.12662 0.27945,-0.40597 0.15925,-0.62529 -0.0576,-0.10508 -0.15243,-0.18209 -0.26394,-0.21342 -0.11156,-0.0319 -0.22987,-0.0151 -0.33024,0.0457 -0.0998,0.0607 -0.17225,0.16057 -0.202,0.27804 -0.0297,0.1175 -0.0147,0.24282 0.0437,0.3479 0.0793,0.14491 0.22735,0.23237 0.38661,0.2291 z m 2.76406,-0.15013 c 0.0545,-9.9e-4 0.10719,-0.0163 0.15426,-0.0451 0.0737,-0.0451 0.12827,-0.11879 0.14996,-0.20624 0.0225,-0.0869 0.0106,-0.1795 -0.0323,-0.25718 -0.0429,-0.0783 -0.11278,-0.1351 -0.19582,-0.15861 -0.0824,-0.0235 -0.17038,-0.0111 -0.24413,0.034 -0.0744,0.0451 -0.12824,0.11944 -0.15055,0.20625 -0.0225,0.0869 -0.0106,0.17951 0.0326,0.25783 0.0589,0.10703 0.16854,0.17231 0.28626,0.16904 z m -1.264,-0.10508 c 0.062,-10e-4 0.12268,-0.0197 0.17595,-0.0516 0.0849,-0.0522 0.14686,-0.13707 0.17164,-0.23627 0.0252,-0.0999 0.0126,-0.20626 -0.0369,-0.29568 -0.10159,-0.18538 -0.32714,-0.24867 -0.50373,-0.14165 -0.17596,0.10772 -0.23671,0.34529 -0.13508,0.53065 0.0675,0.12338 0.19332,0.19778 0.3284,0.19452 z m -2.51997,-0.49214 c 0.0837,-0.002 0.16545,-0.0268 0.23795,-0.0705 0.11526,-0.0699 0.1989,-0.18536 0.23359,-0.32048 0.0348,-0.1351 0.0165,-0.2787 -0.0502,-0.40011 -0.0663,-0.1214 -0.17536,-0.2095 -0.30359,-0.24541 -0.12826,-0.0367 -0.26519,-0.0177 -0.37983,0.0528 -0.23917,0.14555 -0.32097,0.46733 -0.18277,0.71927 0.091,0.1671 0.26208,0.26828 0.44484,0.26436 z m 3.36202,-0.22452 c 0.062,-10e-4 0.12204,-0.0197 0.17596,-0.0528 0.17597,-0.10705 0.23607,-0.34463 0.13446,-0.53064 -0.10162,-0.18538 -0.32717,-0.24935 -0.50374,-0.1423 -0.17661,0.10705 -0.2367,0.34462 -0.13508,0.53064 0.0669,0.12335 0.19332,0.19841 0.3284,0.19515 z m -1.55089,-0.0947 c 0.0731,-10e-4 0.14438,-0.0229 0.20758,-0.0614 0.20756,-0.12597 0.27883,-0.40598 0.15922,-0.62529 -0.0576,-0.10509 -0.15301,-0.18209 -0.26394,-0.21343 -0.11153,-0.0312 -0.23051,-0.0151 -0.33025,0.0457 -0.0998,0.0607 -0.17287,0.16122 -0.20262,0.2787 -0.0297,0.11683 -0.0144,0.24216 0.044,0.34723 0.0793,0.1449 0.22741,0.23235 0.38603,0.22844 z m -3.17795,-0.23366 c 0.0973,-0.002 0.19331,-0.0312 0.27757,-0.0829 0.27945,-0.1697 0.37548,-0.54631 0.21438,-0.84069 -0.1617,-0.29435 -0.51924,-0.39553 -0.79865,-0.22518 -0.27945,0.16971 -0.37487,0.54631 -0.21379,0.84069 0.10658,0.19513 0.30611,0.31328 0.52049,0.30806 z m 4.02001,-0.48366 c 0.0725,-9.9e-4 0.14374,-0.0229 0.20694,-0.0615 0.20819,-0.12596 0.27946,-0.40598 0.15923,-0.62528 -0.0576,-0.10509 -0.15241,-0.18211 -0.26395,-0.21343 -0.11153,-0.0312 -0.22987,-0.0151 -0.33023,0.0457 -0.0998,0.0607 -0.17226,0.16058 -0.202,0.27805 -0.0297,0.11748 -0.0146,0.24281 0.0437,0.34788 0.0799,0.1449 0.22801,0.23236 0.38662,0.22844 z m -1.86194,-0.03 c 0.0837,-10e-4 0.16605,-0.0268 0.23794,-0.0705 0.23979,-0.14555 0.32156,-0.46734 0.18403,-0.71992 -0.0663,-0.12077 -0.17596,-0.20954 -0.30424,-0.24609 -0.12826,-0.036 -0.26456,-0.017 -0.37979,0.0529 -0.11525,0.0699 -0.19894,0.18536 -0.23297,0.32047 -0.0346,0.1351 -0.0158,0.27871 0.0502,0.40011 0.0917,0.16645 0.2621,0.26761 0.44487,0.26305 z"
       id="start-here-kde-9-7-3-6" />
  </g>
</svg>
