<?xml version="1.0" encoding="UTF-8" standalone="no"?>
<svg
   xmlns:dc="http://purl.org/dc/elements/1.1/"
   xmlns:cc="http://creativecommons.org/ns#"
   xmlns:rdf="http://www.w3.org/1999/02/22-rdf-syntax-ns#"
   xmlns:svg="http://www.w3.org/2000/svg"
   xmlns="http://www.w3.org/2000/svg"
   xmlns:xlink="http://www.w3.org/1999/xlink"
   xmlns:sodipodi="http://sodipodi.sourceforge.net/DTD/sodipodi-0.dtd"
   xmlns:inkscape="http://www.inkscape.org/namespaces/inkscape"
   width="32"
   version="1.1"
   height="32"
   viewBox="0 0 32 32"
   id="svg15"
   sodipodi:docname="folder-Github.svg"
   inkscape:version="1.0.2 (e86c870879, 2021-01-15)">
  <sodipodi:namedview
     pagecolor="#ffffff"
     bordercolor="#666666"
     borderopacity="1"
     objecttolerance="10"
     gridtolerance="10"
     guidetolerance="10"
     inkscape:pageopacity="0"
     inkscape:pageshadow="2"
     inkscape:window-width="1920"
     inkscape:window-height="1007"
     id="namedview17"
     showgrid="false"
     inkscape:zoom="9.8125"
     inkscape:cx="-12.999029"
     inkscape:cy="6.4668704"
     inkscape:window-x="0"
     inkscape:window-y="0"
     inkscape:window-maximized="1"
     inkscape:current-layer="layer1"
     inkscape:document-rotation="0" />
  <defs
     id="defs5455">
    <linearGradient
       inkscape:collect="always"
       xlink:href="#linearGradient842"
       id="linearGradient950"
       x1="446.01447"
       y1="518.79797"
       x2="387.06195"
       y2="518.79797"
       gradientUnits="userSpaceOnUse"
       gradientTransform="matrix(0.49567114,0,0,0.49972091,194.09047,274.03626)" />
    <linearGradient
       inkscape:collect="always"
       id="linearGradient842">
      <stop
         style="stop-color:#ffb3ff;stop-opacity:1"
         offset="0"
         id="stop838" />
      <stop
         style="stop-color:#80e5ff;stop-opacity:1"
         offset="1"
         id="stop840" />
    </linearGradient>
    <linearGradient
       inkscape:collect="always"
       xlink:href="#linearGradient842"
       id="linearGradient844"
       x1="381.31079"
       y1="543.77124"
       x2="446.83023"
       y2="522.45404"
       gradientUnits="userSpaceOnUse"
       gradientTransform="matrix(0.49567114,0,0,0.49972091,194.09047,274.04964)" />
  </defs>
  <metadata
     id="metadata5458">
    <rdf:RDF>
      <cc:Work
         rdf:about="">
        <dc:format>image/svg+xml</dc:format>
        <dc:type
           rdf:resource="http://purl.org/dc/dcmitype/StillImage" />
      </cc:Work>
    </rdf:RDF>
  </metadata>
  <g
     inkscape:label="Capa 1"
     inkscape:groupmode="layer"
     id="layer1"
     transform="translate(-384.57143,-515.798)">
    <path
       style="fill:url(#linearGradient950);fill-opacity:1;stroke-width:0.089569"
       d="m 400.57301,522.37783 c -0.44016,0 -0.96119,-0.25825 -1.15846,-0.57392 l -0.88505,-1.4186 c -0.19637,-0.31567 -0.7174,-0.57333 -1.1574,-0.57391 l -10.20056,-0.0134 c -0.973,-10e-4 -1.3831,0.46748 -1.39692,1.50207 l -0.006,0.43614 v 1.28321 18.28579 c 0,0.35288 1.16035,1.28321 1.60035,1.28321 h 26.40757 c 0.44002,0 1.60036,-0.93033 1.60036,-1.28321 v -17.64418 c 0,-0.96241 -0.40002,-1.28321 -1.60036,-1.28321 z"
       id="path4-3"
       sodipodi:nodetypes="sccsssccsssssss" />
    <path
       style="fill:#434c5e;fill-opacity:1;stroke-width:0.0882824"
       d="m 413.46047,529.22774 c 0,0.66273 -0.39789,1.20497 -1.30858,1.20497 H 389.0541 c -0.9107,0 -1.25926,-0.54224 -1.25926,-1.20497 v -3.61493 c 0,-0.66274 0.34856,-1.20498 1.25926,-1.20498 h 23.04823 c 0.91068,0 1.35814,0.54224 1.35814,1.20498 z"
       id="path8-6"
       sodipodi:nodetypes="sssssssss" />
    <path
       style="fill:url(#linearGradient844);fill-opacity:1;stroke-width:0.0966699"
       d="m 413.94973,526.46375 h -26.7566 c -0.81091,0 -1.6217,0.73763 -1.6217,1.47525 v 14.38375 c 0,0.97553 0.62711,1.47525 1.6217,1.47525 h 26.7566 c 0.99775,0 1.6217,-0.49972 1.6217,-1.47525 V 527.939 c 0,-0.73762 -0.81079,-1.47525 -1.6217,-1.47525 z"
       id="path10"
       sodipodi:nodetypes="sssssssss" />
    <path
       d="m 400.7825,530.69192 c -2.85762,0 -5.17215,2.29434 -5.17215,5.12402 0,2.26435 1.48182,4.18455 3.53645,4.86156 0.25861,0.0482 0.35343,-0.11037 0.35343,-0.24638 0,-0.12167 -0.004,-0.4441 -0.006,-0.87124 -1.43872,0.30896 -1.74215,-0.68744 -1.74215,-0.68744 -0.23533,-0.5914 -0.5754,-0.74957 -0.5754,-0.74957 -0.46851,-0.31765 0.0362,-0.31112 0.0362,-0.31112 0.51937,0.0356 0.7922,0.52796 0.7922,0.52796 0.46118,0.78346 1.21071,0.55708 1.50639,0.42628 0.0465,-0.33155 0.17973,-0.55708 0.32757,-0.68526 -1.14865,-0.12819 -2.35591,-0.56881 -2.35591,-2.53203 0,-0.55924 0.20041,-1.01637 0.5323,-1.37486 -0.0582,-0.12949 -0.23275,-0.6505 0.0453,-1.35618 0,0 0.43317,-0.13731 1.42234,0.52535 0.41378,-0.11385 0.85341,-0.17034 1.29304,-0.17295 0.43963,0.002 0.87927,0.0591 1.29304,0.17295 0.98271,-0.66266 1.41587,-0.52535 1.41587,-0.52535 0.27801,0.70568 0.10344,1.22669 0.0517,1.35618 0.32973,0.35849 0.53015,0.81562 0.53015,1.37486 0,1.96844 -1.20899,2.40167 -2.35979,2.52768 0.18102,0.15383 0.34912,0.468 0.34912,0.94815 0,0.6857 -0.006,1.23669 -0.006,1.40312 0,0.13427 0.0905,0.2946 0.35559,0.24333 2.06928,-0.67266 3.54981,-2.59417 3.54981,-4.85504 0,-2.82968 -2.31583,-5.12402 -5.17214,-5.12402 z"
       id="path2-3-3-3"
       style="fill:#434c5e;fill-opacity:1;stroke-width:0.432769" />
  </g>
</svg>
