<?xml version="1.0" encoding="UTF-8" standalone="no"?>
<svg
   xmlns:dc="http://purl.org/dc/elements/1.1/"
   xmlns:cc="http://creativecommons.org/ns#"
   xmlns:rdf="http://www.w3.org/1999/02/22-rdf-syntax-ns#"
   xmlns:svg="http://www.w3.org/2000/svg"
   xmlns="http://www.w3.org/2000/svg"
   xmlns:xlink="http://www.w3.org/1999/xlink"
   xmlns:sodipodi="http://sodipodi.sourceforge.net/DTD/sodipodi-0.dtd"
   xmlns:inkscape="http://www.inkscape.org/namespaces/inkscape"
   width="32"
   version="1.1"
   height="32"
   viewBox="0 0 32 32"
   id="svg15"
   sodipodi:docname="folder-openSUSE.svg"
   inkscape:version="1.0.2 (e86c870879, 2021-01-15)">
  <sodipodi:namedview
     pagecolor="#ffffff"
     bordercolor="#666666"
     borderopacity="1"
     objecttolerance="10"
     gridtolerance="10"
     guidetolerance="10"
     inkscape:pageopacity="0"
     inkscape:pageshadow="2"
     inkscape:window-width="1920"
     inkscape:window-height="1007"
     id="namedview17"
     showgrid="false"
     inkscape:zoom="9.8125"
     inkscape:cx="-12.999029"
     inkscape:cy="6.4668704"
     inkscape:window-x="0"
     inkscape:window-y="0"
     inkscape:window-maximized="1"
     inkscape:current-layer="layer1"
     inkscape:document-rotation="0" />
  <defs
     id="defs5455">
    <linearGradient
       inkscape:collect="always"
       xlink:href="#linearGradient860-6"
       id="linearGradient862-3"
       x1="113.94677"
       y1="255.36646"
       x2="406.08289"
       y2="255.36646"
       gradientUnits="userSpaceOnUse"
       gradientTransform="matrix(0.10135136,0,0,0.09220309,374.22015,507.65439)" />
    <linearGradient
       inkscape:collect="always"
       id="linearGradient860-6">
      <stop
         style="stop-color:#8bdfad;stop-opacity:1"
         offset="0"
         id="stop856-7" />
      <stop
         style="stop-color:#00a1a1;stop-opacity:1"
         offset="1"
         id="stop858-5" />
    </linearGradient>
    <linearGradient
       inkscape:collect="always"
       xlink:href="#linearGradient842-5"
       id="linearGradient844-3"
       x1="386.30627"
       y1="522.45404"
       x2="446.83023"
       y2="522.45404"
       gradientUnits="userSpaceOnUse"
       gradientTransform="matrix(0.49567138,0,0,0.49971881,194.09048,274.05078)" />
    <linearGradient
       inkscape:collect="always"
       id="linearGradient842-5">
      <stop
         style="stop-color:#00a1a1;stop-opacity:1"
         offset="0"
         id="stop838-6" />
      <stop
         style="stop-color:#8bdfad;stop-opacity:1"
         offset="1"
         id="stop840-2" />
    </linearGradient>
  </defs>
  <metadata
     id="metadata5458">
    <rdf:RDF>
      <cc:Work
         rdf:about="">
        <dc:format>image/svg+xml</dc:format>
        <dc:type
           rdf:resource="http://purl.org/dc/dcmitype/StillImage" />
      </cc:Work>
    </rdf:RDF>
  </metadata>
  <g
     inkscape:label="Capa 1"
     inkscape:groupmode="layer"
     id="layer1"
     transform="translate(-384.57143,-515.798)">
    <path
       style="fill:url(#linearGradient862-3);fill-opacity:1;stroke-width:0.0895684"
       d="m 400.57301,522.3779 c -0.44016,0 -0.96119,-0.25823 -1.15846,-0.57391 l -0.88505,-1.41859 c -0.19637,-0.31567 -0.7174,-0.57332 -1.1574,-0.5739 l -10.20056,-0.0135 c -0.973,-10e-4 -1.3831,0.46748 -1.39692,1.50207 l -0.006,0.43612 v 1.28323 18.2857 c 0,0.35289 1.16035,1.2832 1.60035,1.2832 h 26.40757 c 0.44002,0 1.60036,-0.93031 1.60036,-1.2832 v -17.64407 c 0,-0.9624 -0.40002,-1.28321 -1.60036,-1.28321 z"
       id="path4-3-9"
       sodipodi:nodetypes="sccsssccsssssss" />
    <path
       style="fill:#434c5e;fill-opacity:1;stroke-width:0.0882824"
       d="m 413.46046,529.22778 c 0,0.66274 -0.39788,1.20497 -1.30857,1.20497 H 389.0541 c -0.9107,0 -1.25926,-0.54223 -1.25926,-1.20497 v -3.6149 c 0,-0.66274 0.34856,-1.20497 1.25926,-1.20497 h 23.04823 c 0.91068,0 1.35813,0.54223 1.35813,1.20497 z"
       id="path8-6-1"
       sodipodi:nodetypes="sssssssss" />
    <path
       style="fill:url(#linearGradient844-3);fill-opacity:1;stroke-width:0.0966694"
       d="m 413.94973,526.4638 h -26.7566 c -0.81091,0 -1.6217,0.73763 -1.6217,1.47526 v 14.38368 c 0,0.97554 0.62711,1.47526 1.6217,1.47526 h 26.7566 c 0.99775,0 1.6217,-0.49972 1.6217,-1.47526 v -14.38368 c 0,-0.73763 -0.81079,-1.47526 -1.6217,-1.47526 z"
       id="path10-2"
       sodipodi:nodetypes="sssssssss" />
    <path
       style="color:#4d4d4d;font-size:20.4884px;font-family:TrebuchetMS-Bold;fill:#434c5e;fill-opacity:1;fill-rule:evenodd;stroke:none;stroke-width:0.0712588;stroke-miterlimit:4"
       d="m 400.83166,530.8019 c -2.7373,0 -4.95671,2.23728 -4.95671,4.99718 0,2.75993 2.21941,4.99719 4.95671,4.99719 2.73731,0 4.95672,-2.23726 4.95672,-4.99719 0,-2.7599 -2.21941,-4.99718 -4.95672,-4.99718 z m 0.0238,0.69206 c 2.35854,0 4.27209,1.92758 4.27209,4.30512 0,2.3778 -1.91381,4.30514 -4.27209,4.30514 -1.27352,0 -2.41628,-0.56271 -3.19858,-1.45406 0.32166,-0.2517 0.85983,-0.19029 1.52261,-0.11413 0.31762,0.0365 0.6797,0.0781 1.05341,0.0866 1.04409,0.006 2.16749,-0.18599 2.86085,-0.49142 0.44825,-0.19819 0.73525,-0.32871 0.91465,-0.49328 0.0647,-0.0535 0.0987,-0.14286 0.13328,-0.23559 l 0.0238,-0.0627 c 0.029,-0.0749 0.0708,-0.23606 0.0894,-0.32393 0.008,-0.0386 0.0125,-0.0798 -0.0146,-0.10124 l -0.0968,0.0184 c -0.30423,0.18392 -1.06433,0.53422 -1.77639,0.54849 -0.88236,0.0187 -2.66076,-0.89553 -2.84623,-0.99208 l -0.0182,-0.0221 c -0.0445,-0.107 -0.31061,-0.74395 -0.36696,-0.87797 1.28009,0.84985 2.34139,1.32023 3.15478,1.39333 0.90434,0.081 1.60977,-0.41676 1.91147,-0.62948 0.0589,-0.0406 0.10388,-0.0723 0.12233,-0.0791 l 0.0201,-0.0331 c -0.05,-0.32046 -0.52451,-1.87122 -0.8818,-2.24366 -0.0991,-0.10216 -0.17781,-0.20156 -0.33775,-0.29634 -1.29323,-0.7599 -4.36383,-1.21757 -4.5076,-1.23873 l -0.0237,0.007 -0.009,0.0203 c 0,0 -0.0115,0.64281 -0.0128,0.71414 -0.10537,-0.0352 -0.43209,-0.143 -0.90007,-0.27241 0.61061,-0.76168 1.54634,-1.4375 3.18399,-1.4375 z m 1.12827,2.27864 c 0.0218,-3.3e-4 0.0438,-4.9e-4 0.0657,0 0.72443,0.0262 1.2936,0.64139 1.26884,1.37124 -0.0129,0.35308 -0.16054,0.6793 -0.41625,0.9203 -0.25648,0.24226 -0.58982,0.36853 -0.94206,0.35707 -0.72317,-0.0272 -1.29234,-0.64241 -1.26884,-1.37124 0.0124,-0.35358 0.16085,-0.68192 0.41808,-0.92213 0.2402,-0.22712 0.54764,-0.3503 0.8745,-0.35524 z m -0.0347,0.3902 c -0.21098,0.013 -0.41009,0.0993 -0.56596,0.24666 -0.17763,0.16812 -0.28244,0.39575 -0.29028,0.64235 -0.0167,0.50949 0.37877,0.93825 0.88363,0.9571 0.24535,0.008 0.47809,-0.079 0.65724,-0.24663 0.17865,-0.1689 0.28271,-0.39864 0.29028,-0.64421 0.0169,-0.51025 -0.38034,-0.93743 -0.88545,-0.95527 -0.0306,-10e-4 -0.0593,-10e-4 -0.0895,0 z m 0.24099,0.46199 c 0.22438,0 0.4053,0.12293 0.4053,0.27425 0,0.15056 -0.18092,0.27424 -0.4053,0.27424 -0.22514,0 -0.40712,-0.12395 -0.40712,-0.27424 0,-0.15132 0.18198,-0.27425 0.40712,-0.27425 z"
       id="path2445-3"
       class="ColorScheme-Text"
       inkscape:connector-curvature="0" />
  </g>
</svg>
