<?xml version="1.0" encoding="UTF-8" standalone="no"?>
<svg
   xmlns:dc="http://purl.org/dc/elements/1.1/"
   xmlns:cc="http://creativecommons.org/ns#"
   xmlns:rdf="http://www.w3.org/1999/02/22-rdf-syntax-ns#"
   xmlns:svg="http://www.w3.org/2000/svg"
   xmlns="http://www.w3.org/2000/svg"
   xmlns:xlink="http://www.w3.org/1999/xlink"
   xmlns:sodipodi="http://sodipodi.sourceforge.net/DTD/sodipodi-0.dtd"
   xmlns:inkscape="http://www.inkscape.org/namespaces/inkscape"
   width="32"
   version="1.1"
   height="32"
   viewBox="0 0 32 32"
   id="svg15"
   sodipodi:docname="folder-Pop_OS.svg"
   inkscape:version="1.0.2 (e86c870879, 2021-01-15)">
  <sodipodi:namedview
     pagecolor="#ffffff"
     bordercolor="#666666"
     borderopacity="1"
     objecttolerance="10"
     gridtolerance="10"
     guidetolerance="10"
     inkscape:pageopacity="0"
     inkscape:pageshadow="2"
     inkscape:window-width="1920"
     inkscape:window-height="1007"
     id="namedview17"
     showgrid="false"
     inkscape:zoom="9.8125"
     inkscape:cx="-12.999029"
     inkscape:cy="6.4668704"
     inkscape:window-x="0"
     inkscape:window-y="0"
     inkscape:window-maximized="1"
     inkscape:current-layer="layer1"
     inkscape:document-rotation="0" />
  <defs
     id="defs5455">
    <linearGradient
       inkscape:collect="always"
       xlink:href="#linearGradient860-3"
       id="linearGradient862-3"
       x1="113.94677"
       y1="255.36646"
       x2="406.08289"
       y2="255.36646"
       gradientUnits="userSpaceOnUse"
       gradientTransform="matrix(0.10217895,0,0,0.09220309,374.12747,507.6544)" />
    <linearGradient
       inkscape:collect="always"
       id="linearGradient860-3">
      <stop
         style="stop-color:#00ccff;stop-opacity:1"
         offset="0"
         id="stop856-6" />
      <stop
         style="stop-color:#ffe680;stop-opacity:1"
         offset="1"
         id="stop858-7" />
    </linearGradient>
    <linearGradient
       inkscape:collect="always"
       xlink:href="#linearGradient860-3"
       id="linearGradient844-5"
       x1="446.80325"
       y1="518.77124"
       x2="379.57126"
       y2="543.77124"
       gradientUnits="userSpaceOnUse"
       gradientTransform="matrix(0.4997188,0,0,0.4997188,192.52695,274.05075)" />
  </defs>
  <metadata
     id="metadata5458">
    <rdf:RDF>
      <cc:Work
         rdf:about="">
        <dc:format>image/svg+xml</dc:format>
        <dc:type
           rdf:resource="http://purl.org/dc/dcmitype/StillImage" />
      </cc:Work>
    </rdf:RDF>
  </metadata>
  <g
     inkscape:label="Capa 1"
     inkscape:groupmode="layer"
     id="layer1"
     transform="translate(-384.57143,-515.798)">
    <path
       style="fill:url(#linearGradient862-3);fill-opacity:1;stroke-width:0.0899335"
       d="m 400.69551,522.3779 c -0.44376,-10e-6 -0.96904,-0.25823 -1.16792,-0.57391 l -0.89229,-1.41859 c -0.19796,-0.31567 -0.72325,-0.57332 -1.16684,-0.5739 L 387.1846,519.798 c -0.98095,-10e-4 -1.3944,0.46748 -1.40833,1.50207 l -0.006,0.43614 v 1.2832 18.28572 c 0,0.35288 1.16983,1.28319 1.61342,1.28319 h 26.62319 c 0.44362,0 1.61344,-0.93031 1.61344,-1.28319 l 9e-5,-17.52735 c 1e-5,-0.96241 -0.43326,-1.3996 -1.4931,-1.39962 z"
       id="path4-3-3"
       sodipodi:nodetypes="sccsssccsssssss" />
    <path
       style="fill:#434c5e;fill-opacity:1;stroke-width:0.0886421"
       d="m 413.68818,529.22778 c 0,0.66274 -0.40113,1.20497 -1.31926,1.20497 h -23.28638 c -0.91814,0 -1.26954,-0.54223 -1.26954,-1.20497 v -3.6149 c 0,-0.66274 0.3514,-1.20497 1.26954,-1.20497 h 23.23643 c 0.91812,0 1.36921,0.54223 1.36921,1.20497 z"
       id="path8-6-5"
       sodipodi:nodetypes="sssssssss" />
    <path
       style="fill:url(#linearGradient844-5);fill-opacity:1;stroke-width:0.0970634"
       d="m 414.18146,526.4638 h -26.97509 c -0.81753,0 -1.63494,0.73763 -1.63494,1.47526 v 14.38368 c 0,0.97554 0.63222,1.47526 1.63494,1.47526 h 26.97509 c 1.00589,0 1.63494,-0.49972 1.63494,-1.47526 v -14.38368 c 0,-0.73763 -0.81743,-1.47526 -1.63494,-1.47526 z"
       id="path10-3"
       sodipodi:nodetypes="sssssssss" />
    <path
       style="fill:#434c5e;fill-opacity:1;stroke-width:0.00987828"
       id="path2-3-6"
       d="m 404.61753,537.73368 c -0.0186,0.0788 -0.0587,0.14877 -0.12705,0.1927 -0.10751,0.0689 -0.23847,0.0489 -0.3313,-0.0348 -0.0871,-0.0778 -0.11631,-0.20968 -0.089,-0.3235 0.0283,-0.11882 0.11825,-0.22367 0.23357,-0.25662 0.25703,-0.0729 0.36355,0.21269 0.31372,0.42235 z m -0.15735,-0.81077 c -0.15929,-0.065 -0.10456,-0.91857 0.0411,-1.955 0.0411,-0.28956 0.11143,-0.42635 0.19059,-0.49624 0.11337,-0.0989 0.31957,-0.10286 0.45931,-0.0818 0.16029,0.0239 0.31371,0.0998 0.43001,0.21468 0.10263,0.10184 0.11434,0.20568 0.0791,0.34049 -0.0576,0.21466 -0.15636,0.42034 -0.25115,0.62104 -0.0225,0.0489 -0.21893,0.42935 -0.24532,0.47628 -0.47397,0.8527 -0.56878,0.93557 -0.70364,0.88064 z" />
    <path
       style="fill:#434c5e;fill-opacity:1;stroke-width:0.00987828"
       id="path4-6-7"
       d="m 401.2449,536.53851 c 0.0939,0.40937 0.0841,0.85869 0.004,1.1822 -0.0752,0.30553 -0.27951,0.57911 -0.60396,0.67096 -0.28439,0.0808 -0.6157,0.022 -0.81898,-0.17772 -0.33422,-0.3275 -0.52968,-1.09632 -0.4427,-1.65447 0.0704,-0.44832 0.30687,-1.02244 0.82581,-1.04741 0.0332,-0.002 0.0665,-10e-4 0.0997,0.002 0.52872,0.0489 0.81701,0.50424 0.93625,1.02444 z m -0.95579,0.93156 c 0.0293,0.005 0.0587,0.005 0.088,-0.004 0.0987,-0.0289 0.15539,-0.1338 0.18178,-0.23565 0.0402,-0.15475 0.0342,-0.32151 -0.0176,-0.47328 -0.0264,-0.0769 -0.0655,-0.15176 -0.12509,-0.20767 -0.2101,-0.19671 -0.42023,0.008 -0.45638,0.24062 -0.0283,0.18175 0.0127,0.39241 0.12411,0.53919 0.0518,0.0679 0.12607,0.12679 0.20523,0.14077 z" />
    <path
       style="fill:#434c5e;fill-opacity:1;stroke-width:0.00987828"
       id="path6-7-5"
       d="m 402.38931,537.40619 c -0.001,0.75585 0.0733,1.33395 -0.25215,1.40285 -0.26386,0.0549 -0.25507,-0.18172 -0.27559,-0.38041 -0.0782,-0.76983 -0.14953,-2.04888 -0.17983,-2.82269 0.0215,-0.33251 0.23944,-0.53618 0.46617,-0.58611 0.34988,-0.0769 0.7232,-0.0549 1.03299,0.14077 0.61277,0.38742 0.66164,1.09834 0.29026,1.67844 -0.20327,0.31652 -0.818,0.54617 -1.08185,0.52621 z m 0.0781,-1.69442 c -0.0382,0.006 -0.10072,0.0239 -0.11825,0.0619 -0.0421,0.0889 -0.0392,0.653 0.0342,0.88964 0.0118,0.039 0.0382,0.0759 0.0762,0.0899 0.13877,0.0519 0.26386,-0.12182 0.32055,-0.22666 0.0791,-0.14578 0.10456,-0.31752 0.0547,-0.47727 -0.047,-0.14878 -0.19253,-0.36445 -0.36746,-0.33749 z" />
    <path
       style="fill:#434c5e;fill-opacity:1;stroke-width:0.00987828"
       id="path8-5-3"
       d="m 398.88474,536.08719 c -0.22966,0.49625 -0.6108,0.89065 -1.13852,1.08535 0.15147,0.40438 0.30587,0.80376 0.45638,1.20715 0.0841,0.21768 0.16418,0.45631 0.091,0.67099 -0.0762,0.21966 -0.37335,0.28056 -0.58932,0.0469 -0.41535,-0.4513 -1.81972,-3.31094 -1.92331,-3.52561 -0.088,-0.18472 -0.21989,-0.38242 -0.21598,-0.5961 0.007,-0.3215 0.49354,-0.64702 0.72711,-0.81375 0.32642,-0.23264 0.70364,-0.3914 1.10726,-0.39241 0.31469,0 0.58344,0.088 0.82192,0.24364 0.36549,0.23962 0.61959,0.62204 0.71342,1.05439 0.082,0.38042 0.0646,0.76981 -0.0498,1.01944 m -1.07014,-0.54316 c -0.082,-0.30455 -0.26777,-0.58512 -0.50136,-0.78183 -0.0508,-0.043 -0.10554,-0.0828 -0.16905,-0.10483 -0.43782,-0.14676 -0.24823,0.60109 -0.17691,0.7898 0.0987,0.2646 0.24825,0.59908 0.44859,0.79877 0.044,0.044 0.0958,0.0829 0.15539,0.0949 0.0909,0.019 0.17494,-0.046 0.22086,-0.12182 0.0382,-0.063 0.0527,-0.13778 0.0617,-0.21068 0.0167,-0.15476 0.002,-0.31252 -0.0392,-0.46428 z" />
    <path
       style="fill:#434c5e;fill-opacity:1;stroke-width:0.00987828"
       id="path10-5"
       d="m 404.12043,539.8881 c -0.002,0.43833 -0.26386,0.87668 -0.84144,0.87668 -0.57759,0 -0.84633,-0.43135 -0.84633,-0.87168 0,-0.54916 0.37428,-0.88864 0.85805,-0.88864 0.56098,0.005 0.83461,0.43035 0.82972,0.88364 z m -0.82972,-0.60705 c -0.36257,0 -0.56586,0.2576 -0.56782,0.60905 0,0.30554 0.16713,0.5921 0.56098,0.5921 0.39384,0 0.54435,-0.31051 0.54435,-0.5951 0.005,-0.29553 -0.14856,-0.59908 -0.53751,-0.60605 z m 1.07209,1.25906 c 0,0.065 0.002,-0.30852 0,-0.36543 h 0.26581 l 0.0186,0.22864 c 0.0871,0.0509 0.22185,0.0889 0.33228,0.0889 0.20522,0 0.41926,-0.0529 0.41926,-0.25759 -0.007,-0.18572 -0.24531,-0.22367 -0.43782,-0.24363 -0.32741,-0.034 -0.59128,-0.11583 -0.59128,-0.49126 0,-0.33448 0.3704,-0.50123 0.646,-0.50123 0.22184,-0.005 0.37919,0.0309 0.57953,0.1947 0,0.13479 -0.002,0.21467 -0.002,0.34948 h -0.25693 l -0.0167,-0.22168 c -0.1036,-0.0509 -0.21013,-0.065 -0.29221,-0.063 -0.17688,0.002 -0.36552,0.087 -0.36552,0.23863 0,0.14878 0.12216,0.18972 0.33913,0.22167 0.35379,0.048 0.69485,0.1298 0.69485,0.51522 -0.002,0.42135 -0.38895,0.53218 -0.72123,0.53218 -0.25313,10e-4 -0.41144,-0.0469 -0.61179,-0.22566 z"
       inkscape:connector-curvature="0" />
    <path
       style="fill:#434c5e;fill-opacity:1;stroke-width:0.00987828"
       id="path12-6"
       d="m 402.07398,540.621 c 0,0.0769 -0.0605,0.13877 -0.13584,0.13877 h -1.57049 c -0.0752,0 -0.13585,-0.0619 -0.13585,-0.13877 v -0.012 c 0,-0.0769 0.0607,-0.1388 0.13585,-0.1388 h 1.57049 c 0.0752,0 0.13584,0.062 0.13584,0.1388 z"
       inkscape:connector-curvature="0" />
  </g>
</svg>
