<?xml version="1.0" encoding="UTF-8" standalone="no"?>
<svg
   xmlns:dc="http://purl.org/dc/elements/1.1/"
   xmlns:cc="http://creativecommons.org/ns#"
   xmlns:rdf="http://www.w3.org/1999/02/22-rdf-syntax-ns#"
   xmlns:svg="http://www.w3.org/2000/svg"
   xmlns="http://www.w3.org/2000/svg"
   xmlns:xlink="http://www.w3.org/1999/xlink"
   xmlns:sodipodi="http://sodipodi.sourceforge.net/DTD/sodipodi-0.dtd"
   xmlns:inkscape="http://www.inkscape.org/namespaces/inkscape"
   width="32"
   version="1.1"
   height="32"
   viewBox="0 0 32 32"
   id="svg17"
   sodipodi:docname="folder-development.svg"
   inkscape:version="1.0.2 (e86c870879, 2021-01-15)">
  <sodipodi:namedview
     pagecolor="#ffffff"
     bordercolor="#666666"
     borderopacity="1"
     objecttolerance="10"
     gridtolerance="10"
     guidetolerance="10"
     inkscape:pageopacity="0"
     inkscape:pageshadow="2"
     inkscape:window-width="1920"
     inkscape:window-height="1007"
     id="namedview19"
     showgrid="false"
     inkscape:zoom="9.8125"
     inkscape:cx="-9.3425716"
     inkscape:cy="5.483058"
     inkscape:window-x="0"
     inkscape:window-y="0"
     inkscape:window-maximized="1"
     inkscape:current-layer="layer1"
     inkscape:document-rotation="0"
     showguides="false"
     inkscape:guide-bbox="true">
    <sodipodi:guide
       position="-20.382166,30.980892"
       orientation="0,-1"
       id="guide903" />
  </sodipodi:namedview>
  <defs
     id="defs5455">
    <linearGradient
       inkscape:collect="always"
       xlink:href="#linearGradient860"
       id="linearGradient862-3-3"
       x1="113.94677"
       y1="255.36646"
       x2="406.08289"
       y2="255.36646"
       gradientUnits="userSpaceOnUse"
       gradientTransform="matrix(0.10135138,0,0,0.09220349,374.22014,507.65424)" />
    <linearGradient
       inkscape:collect="always"
       id="linearGradient860">
      <stop
         style="stop-color:#aaccff;stop-opacity:1"
         offset="0"
         id="stop856" />
      <stop
         style="stop-color:#66ffff;stop-opacity:1"
         offset="1"
         id="stop858" />
    </linearGradient>
    <linearGradient
       inkscape:collect="always"
       xlink:href="#linearGradient842"
       id="linearGradient844"
       x1="386.30627"
       y1="522.45404"
       x2="446.83023"
       y2="522.45404"
       gradientUnits="userSpaceOnUse"
       gradientTransform="matrix(0.49567153,0,0,0.499721,194.09042,274.04959)" />
    <linearGradient
       inkscape:collect="always"
       id="linearGradient842">
      <stop
         style="stop-color:#66ffff;stop-opacity:1"
         offset="0"
         id="stop838" />
      <stop
         style="stop-color:#ffeeaa;stop-opacity:1"
         offset="1"
         id="stop840" />
    </linearGradient>
  </defs>
  <metadata
     id="metadata5458">
    <rdf:RDF>
      <cc:Work
         rdf:about="">
        <dc:format>image/svg+xml</dc:format>
        <dc:type
           rdf:resource="http://purl.org/dc/dcmitype/StillImage" />
      </cc:Work>
    </rdf:RDF>
  </metadata>
  <g
     inkscape:label="Capa 1"
     inkscape:groupmode="layer"
     id="layer1"
     transform="translate(-384.57143,-515.798)">
    <path
       style="fill:url(#linearGradient862-3-3);fill-opacity:1;stroke-width:0.089569"
       d="m 400.57301,522.37783 c -0.44017,0 -0.96118,-0.25825 -1.15845,-0.57392 l -0.88505,-1.4186 c -0.19631,-0.31567 -0.7174,-0.57333 -1.15741,-0.57391 l -10.20056,-0.0134 c -0.973,-10e-4 -1.38311,0.46747 -1.39692,1.50207 l -0.006,0.43614 v 1.28321 18.2858 c 0,0.35288 1.16035,1.28321 1.60035,1.28321 h 26.40758 c 0.44002,0 1.60035,-0.93033 1.60035,-1.28321 v -17.64419 c 0,-0.96241 -0.4,-1.28321 -1.60035,-1.28321 z"
       id="path4-3"
       sodipodi:nodetypes="sccsssccsssssss" />
    <path
       style="fill:#434c5e;fill-opacity:1;stroke-width:0.0882824"
       d="m 413.46047,529.22773 c 0,0.66274 -0.39788,1.20498 -1.30857,1.20498 h -23.0978 c -0.91069,0 -1.25927,-0.54224 -1.25927,-1.20498 v -3.61492 c 0,-0.66274 0.34858,-1.20497 1.25927,-1.20497 h 23.04823 c 0.91069,0 1.35814,0.54223 1.35814,1.20497 z"
       id="path8-6"
       sodipodi:nodetypes="sssssssss" />
    <path
       style="fill:url(#linearGradient844);fill-opacity:1;stroke-width:0.0966699"
       d="m 413.94974,526.46375 h -26.7566 c -0.81092,0 -1.62171,0.73763 -1.62171,1.47525 v 14.38376 c 0,0.97553 0.62711,1.47525 1.62171,1.47525 h 26.7566 c 0.99774,0 1.62169,-0.49972 1.62169,-1.47525 V 527.939 c 0,-0.73762 -0.81077,-1.47525 -1.62169,-1.47525 z"
       id="path10"
       sodipodi:nodetypes="sssssssss" />
    <path
       inkscape:connector-curvature="0"
       id="rect4138-3-6"
       d="m 395.71534,530.79186 v 2.49861 6.87116 0.62466 c 3.30448,0 6.60897,0 9.91344,0 v -0.62466 -3.12325 -3.74791 -2.49861 z m 0.49567,2.49861 h 8.92209 c 0,2.49861 0,4.49748 0,6.99609 -2.9335,-0.0306 -5.98963,-0.0643 -8.92209,0 z"
       style="fill:#434c5e;fill-opacity:1;stroke-width:0.452447" />
  </g>
</svg>
