<?xml version="1.0" encoding="UTF-8" standalone="no"?>
<svg
   xmlns:dc="http://purl.org/dc/elements/1.1/"
   xmlns:cc="http://creativecommons.org/ns#"
   xmlns:rdf="http://www.w3.org/1999/02/22-rdf-syntax-ns#"
   xmlns:svg="http://www.w3.org/2000/svg"
   xmlns="http://www.w3.org/2000/svg"
   xmlns:xlink="http://www.w3.org/1999/xlink"
   xmlns:sodipodi="http://sodipodi.sourceforge.net/DTD/sodipodi-0.dtd"
   xmlns:inkscape="http://www.inkscape.org/namespaces/inkscape"
   width="32"
   version="1.1"
   height="32"
   viewBox="0 0 32 32"
   id="svg17"
   sodipodi:docname="folder-cloud.svg"
   inkscape:version="1.0.2 (e86c870879, 2021-01-15)">
  <sodipodi:namedview
     pagecolor="#ffffff"
     bordercolor="#666666"
     borderopacity="1"
     objecttolerance="10"
     gridtolerance="10"
     guidetolerance="10"
     inkscape:pageopacity="0"
     inkscape:pageshadow="2"
     inkscape:window-width="1920"
     inkscape:window-height="1007"
     id="namedview19"
     showgrid="false"
     inkscape:zoom="9.8125"
     inkscape:cx="-7.3963678"
     inkscape:cy="3.9139838"
     inkscape:window-x="0"
     inkscape:window-y="0"
     inkscape:window-maximized="1"
     inkscape:current-layer="layer1"
     inkscape:document-rotation="0" />
  <defs
     id="defs5455">
    <linearGradient
       inkscape:collect="always"
       xlink:href="#linearGradient860"
       id="linearGradient862-3-3"
       x1="113.94677"
       y1="255.36646"
       x2="406.08289"
       y2="255.36646"
       gradientUnits="userSpaceOnUse"
       gradientTransform="matrix(0.10135136,0,0,0.09220348,374.22015,507.65424)" />
    <linearGradient
       inkscape:collect="always"
       id="linearGradient860">
      <stop
         style="stop-color:#80e5ff;stop-opacity:1"
         offset="0"
         id="stop856" />
      <stop
         style="stop-color:#3daee9;stop-opacity:1"
         offset="1"
         id="stop858" />
    </linearGradient>
    <linearGradient
       inkscape:collect="always"
       xlink:href="#linearGradient842"
       id="linearGradient844"
       x1="386.30627"
       y1="522.45404"
       x2="446.83023"
       y2="522.45404"
       gradientUnits="userSpaceOnUse"
       gradientTransform="matrix(0.49567138,0,0,0.49972091,194.09048,274.04965)" />
    <linearGradient
       inkscape:collect="always"
       id="linearGradient842">
      <stop
         style="stop-color:#3daee9;stop-opacity:1"
         offset="0"
         id="stop838" />
      <stop
         style="stop-color:#a3d9f5;stop-opacity:1"
         offset="1"
         id="stop840" />
    </linearGradient>
  </defs>
  <metadata
     id="metadata5458">
    <rdf:RDF>
      <cc:Work
         rdf:about="">
        <dc:format>image/svg+xml</dc:format>
        <dc:type
           rdf:resource="http://purl.org/dc/dcmitype/StillImage" />
      </cc:Work>
    </rdf:RDF>
  </metadata>
  <g
     inkscape:label="Capa 1"
     inkscape:groupmode="layer"
     id="layer1"
     transform="translate(-384.57143,-515.798)">
    <path
       style="fill:url(#linearGradient862-3-3);fill-opacity:1;stroke-width:0.089569"
       d="m 400.57301,522.37784 c -0.44016,0 -0.96119,-0.25825 -1.15846,-0.57392 l -0.88505,-1.4186 c -0.19637,-0.31567 -0.71739,-0.57333 -1.1574,-0.57391 l -10.20055,-0.0134 c -0.97301,-0.002 -1.38311,0.46748 -1.39693,1.50207 l -0.006,0.43614 v 1.28321 18.28579 c 0,0.35288 1.16035,1.28321 1.60036,1.28321 h 26.40757 c 0.44001,0 1.60036,-0.93033 1.60036,-1.28321 v -17.64418 c 0,-0.96241 -0.40002,-1.28321 -1.60036,-1.28321 z"
       id="path4-3"
       sodipodi:nodetypes="sccsssccsssssss" />
    <path
       style="fill:#434c5e;fill-opacity:1;stroke-width:0.0882824"
       d="m 413.46046,529.22775 c 0,0.66273 -0.39788,1.20497 -1.30857,1.20497 h -23.09778 c -0.91071,0 -1.25927,-0.54224 -1.25927,-1.20497 v -3.61493 c 0,-0.66274 0.34856,-1.20498 1.25927,-1.20498 h 23.04822 c 0.91069,0 1.35814,0.54224 1.35814,1.20498 z"
       id="path8-6"
       sodipodi:nodetypes="sssssssss" />
    <path
       style="fill:url(#linearGradient844);fill-opacity:1;stroke-width:0.0966699"
       d="m 413.94973,526.46376 h -26.7566 c -0.81091,0 -1.6217,0.73763 -1.6217,1.47525 v 14.38375 c 0,0.97553 0.62711,1.47525 1.6217,1.47525 h 26.7566 c 0.99775,0 1.6217,-0.49972 1.6217,-1.47525 v -14.38375 c 0,-0.73762 -0.81079,-1.47525 -1.6217,-1.47525 z"
       id="path10"
       sodipodi:nodetypes="sssssssss" />
    <path
       style="fill:#434c5e;fill-opacity:1;stroke-width:0.497692;stroke-linejoin:round"
       id="path4225-3-6-7-6"
       d="m 400.59904,531.59395 a 3.4696997,3.4980464 0 0 0 -3.4697,3.49804 3.4696997,3.4980464 0 0 0 0.0397,0.5007 2.4783569,2.4986046 0 0 0 -0.0397,-10e-4 2.4783569,2.4986046 0 0 0 -2.47836,2.49861 2.4783569,2.4986046 0 0 0 2.47836,2.4986 h 6.44372 a 2.9740283,2.9983255 0 0 0 2.97403,-2.99833 2.9740283,2.9983255 0 0 0 -2.51224,-2.95928 3.4696997,3.4980464 0 0 0 -3.43581,-3.03737 z m 0,0.49972 a 2.9740283,2.9983255 0 0 1 0.29721,0.0146 2.9740283,2.9983255 0 0 1 1.38149,0.50948 2.9740283,2.9983255 0 0 1 9.9e-4,0 2.9740283,2.9983255 0 0 1 0.6496,0.61001 2.9740283,2.9983255 0 0 1 0,10e-4 2.9740283,2.9983255 0 0 1 0.60216,1.36545 2.9740283,2.9983255 0 0 1 0.0426,0.49774 2.4783569,2.4986046 0 0 1 0.49373,0.0498 2.4783569,2.4986046 0 0 1 0.23913,0.0615 2.4783569,2.4986046 0 0 1 9.9e-4,0 2.4783569,2.4986046 0 0 1 0.23138,0.0859 2.4783569,2.4986046 0 0 1 9.9e-4,0 2.4783569,2.4986046 0 0 1 0.2217,0.10834 2.4783569,2.4986046 0 0 1 0.002,0.001 2.4783569,2.4986046 0 0 1 0.20911,0.12981 2.4783569,2.4986046 0 0 1 0.002,0.001 2.4783569,2.4986046 0 0 1 0.19556,0.15031 2.4783569,2.4986046 0 0 1 9.9e-4,10e-4 2.4783569,2.4986046 0 0 1 0.18007,0.16885 2.4783569,2.4986046 0 0 1 9.9e-4,10e-4 2.4783569,2.4986046 0 0 1 0.30689,0.39041 2.4783569,2.4986046 0 0 1 9.9e-4,10e-4 2.4783569,2.4986046 0 0 1 0.12198,0.2157 2.4783569,2.4986046 0 0 1 9.9e-4,10e-4 2.4783569,2.4986046 0 0 1 0.10069,0.22643 2.4783569,2.4986046 0 0 1 9.9e-4,0.001 2.4783569,2.4986046 0 0 1 0.0774,0.2362 2.4783569,2.4986046 0 0 1 0,10e-4 2.4783569,2.4986046 0 0 1 0.0542,0.24303 2.4783569,2.4986046 0 0 1 0,10e-4 2.4783569,2.4986046 0 0 1 0.03,0.24693 2.4783569,2.4986046 0 0 1 0.006,0.17644 2.4783569,2.4986046 0 0 1 -2.47836,2.49861 h -6.44372 a 1.9826855,1.9988837 0 0 1 -1.98269,-1.99888 1.9826855,1.9988837 0 0 1 0.01,-0.19911 1.9826855,1.9988837 0 0 1 1.973,-1.79978 1.9826855,1.9988837 0 0 1 0.14812,0.007 1.9826855,1.9988837 0 0 1 0,10e-4 1.9826855,1.9988837 0 0 1 0.57312,0.13078 2.9740283,2.9983255 0 0 1 -0.16941,-0.57292 2.9740283,2.9983255 0 0 1 -0.0368,-0.25376 2.9740283,2.9983255 0 0 1 -0.007,-0.0576 2.9740283,2.9983255 0 0 1 -0.0126,-0.25379 2.9740283,2.9983255 0 0 1 0.0145,-0.29963 2.9740283,2.9983255 0 0 1 2.95951,-2.69869 z" />
  </g>
</svg>
