<?xml version="1.0" encoding="UTF-8" standalone="no"?>
<svg
   version="1.0"
   width="27.733332"
   height="27.733332"
   id="svg2"
   inkscape:version="1.1 (c68e22c387, 2021-05-23)"
   sodipodi:docname="alldesktops.svg"
   viewBox="0 0 26 25.999998"
   xmlns:inkscape="http://www.inkscape.org/namespaces/inkscape"
   xmlns:sodipodi="http://sodipodi.sourceforge.net/DTD/sodipodi-0.dtd"
   xmlns:xlink="http://www.w3.org/1999/xlink"
   xmlns="http://www.w3.org/2000/svg"
   xmlns:svg="http://www.w3.org/2000/svg"
   xmlns:rdf="http://www.w3.org/1999/02/22-rdf-syntax-ns#"
   xmlns:cc="http://creativecommons.org/ns#"
   xmlns:dc="http://purl.org/dc/elements/1.1/">
  <sodipodi:namedview
     pagecolor="#ffffff"
     bordercolor="#000000"
     borderopacity="1"
     objecttolerance="10"
     gridtolerance="10"
     guidetolerance="10"
     inkscape:pageopacity="1"
     inkscape:pageshadow="2"
     inkscape:window-width="1920"
     inkscape:window-height="1005"
     id="namedview32"
     showgrid="false"
     inkscape:zoom="4.5"
     inkscape:cx="70.555556"
     inkscape:cy="41.333333"
     inkscape:window-x="0"
     inkscape:window-y="0"
     inkscape:window-maximized="1"
     inkscape:current-layer="svg2"
     inkscape:document-rotation="0"
     showguides="false"
     inkscape:showpageshadow="false"
     inkscape:lockguides="true"
     inkscape:pagecheckerboard="0"
     guidecolor="#0000ff"
     guideopacity="0.76862745">
    <inkscape:grid
       type="xygrid"
       id="grid3218"
       empspacing="5"
       visible="true"
       enabled="true"
       snapvisiblegridlinesonly="true"
       color="#0000ff"
       opacity="0.5254902"
       empcolor="#0000ff"
       empopacity="0.54117647"
       originx="0.15609902"
       originy="5.999985"
       spacingx="1"
       spacingy="1" />
  </sodipodi:namedview>
  <metadata
     id="metadata11">
    <rdf:RDF>
      <cc:Work
         rdf:about="">
        <dc:format>image/svg+xml</dc:format>
        <dc:type
           rdf:resource="http://purl.org/dc/dcmitype/StillImage" />
      </cc:Work>
    </rdf:RDF>
  </metadata>
  <defs
     id="defs4">
    <linearGradient
       id="linearGradient3587-6-5">
      <stop
         id="stop3589-9-2"
         style="stop-color:#000000;stop-opacity:1"
         offset="0" />
      <stop
         id="stop3591-7-4"
         style="stop-color:#646464;stop-opacity:1"
         offset="1" />
    </linearGradient>
    <linearGradient
       x1="7.0799088"
       y1="7.6944885"
       x2="11.317808"
       y2="11.932388"
       id="linearGradient2388"
       xlink:href="#linearGradient3587-6-5"
       gradientUnits="userSpaceOnUse"
       gradientTransform="rotate(45,12.12132,10.707107)" />
    <linearGradient
       x1="8.1313992"
       y1="19.049677"
       x2="8.1313992"
       y2="15.935893"
       id="linearGradient5038"
       xlink:href="#linearGradient3732-77"
       gradientUnits="userSpaceOnUse"
       gradientTransform="matrix(0.8666667,0,0,0.73333335,2.0666666,-16.066667)" />
    <linearGradient
       id="linearGradient3732-77">
      <stop
         id="stop3734-3"
         style="stop-color:#000000;stop-opacity:1"
         offset="0" />
      <stop
         id="stop3736-71"
         style="stop-color:#000000;stop-opacity:0"
         offset="1" />
    </linearGradient>
    <linearGradient
       x1="8.1313992"
       y1="19.049677"
       x2="8.1313992"
       y2="15.935893"
       id="linearGradient3794"
       xlink:href="#linearGradient3788"
       gradientUnits="userSpaceOnUse"
       gradientTransform="matrix(1.1333334,0,0,0.99999997,-0.06666673,-2.9999999)" />
    <linearGradient
       id="linearGradient3788">
      <stop
         id="stop3790"
         style="stop-color:#ffffff;stop-opacity:1"
         offset="0" />
      <stop
         id="stop3792"
         style="stop-color:#ffffff;stop-opacity:0"
         offset="1" />
    </linearGradient>
    <linearGradient
       x1="22.863201"
       y1="-0.94923496"
       x2="26.23391"
       y2="2.4214737"
       id="linearGradient6695"
       xlink:href="#linearGradient3587-6-5-1-5"
       gradientUnits="userSpaceOnUse"
       gradientTransform="rotate(45,4.0355353,-15.642136)" />
    <linearGradient
       id="linearGradient3587-6-5-1-5">
      <stop
         id="stop3589-9-2-8-5"
         style="stop-color:#000000;stop-opacity:1"
         offset="0" />
      <stop
         id="stop3591-7-4-3-0"
         style="stop-color:#646464;stop-opacity:1"
         offset="1" />
    </linearGradient>
    <linearGradient
       x1="19.490692"
       y1="-4.321744"
       x2="22.886868"
       y2="-0.92556846"
       id="linearGradient6693"
       xlink:href="#linearGradient3587-6-5-1-5"
       gradientUnits="userSpaceOnUse"
       gradientTransform="rotate(45,4.0355353,-15.642136)" />
    <linearGradient
       id="linearGradient3059">
      <stop
         id="stop3061"
         style="stop-color:#000000;stop-opacity:1"
         offset="0" />
      <stop
         id="stop3063"
         style="stop-color:#646464;stop-opacity:1"
         offset="1" />
    </linearGradient>
    <linearGradient
       x1="20.534313"
       y1="-4.3515615"
       x2="26.152533"
       y2="1.2666581"
       id="linearGradient6693-5"
       xlink:href="#linearGradient3587-6-5-1-5-2"
       gradientUnits="userSpaceOnUse"
       gradientTransform="rotate(45,4.0355353,-15.642136)" />
    <linearGradient
       id="linearGradient3587-6-5-1-5-2">
      <stop
         id="stop3589-9-2-8-5-0"
         style="stop-color:#000000;stop-opacity:1"
         offset="0" />
      <stop
         id="stop3591-7-4-3-0-1"
         style="stop-color:#646464;stop-opacity:1"
         offset="1" />
    </linearGradient>
    <linearGradient
       x1="19.490692"
       y1="-4.321744"
       x2="22.886868"
       y2="-0.92556846"
       id="linearGradient3054"
       xlink:href="#linearGradient3587-6-5-1-5-2"
       gradientUnits="userSpaceOnUse"
       gradientTransform="rotate(45,3.1568563,-28.006097)" />
    <linearGradient
       x1="20.534313"
       y1="-4.3515615"
       x2="26.152533"
       y2="1.2666581"
       id="linearGradient6693-5-4"
       xlink:href="#linearGradient3587-6-5-1-5-2-1"
       gradientUnits="userSpaceOnUse"
       gradientTransform="rotate(45,-6.6146827,-50.612924)" />
    <linearGradient
       id="linearGradient3587-6-5-1-5-2-1">
      <stop
         id="stop3589-9-2-8-5-0-2"
         style="stop-color:#000000;stop-opacity:1"
         offset="0" />
      <stop
         id="stop3591-7-4-3-0-1-4"
         style="stop-color:#646464;stop-opacity:1"
         offset="1" />
    </linearGradient>
    <linearGradient
       x1="8.1313992"
       y1="19.049677"
       x2="8.1313992"
       y2="15.935893"
       id="linearGradient5038-3"
       xlink:href="#linearGradient3732-77-1"
       gradientUnits="userSpaceOnUse"
       gradientTransform="matrix(0.8666667,0,0,0.73333335,-25.780791,-13.354803)" />
    <linearGradient
       id="linearGradient3732-77-1">
      <stop
         id="stop3734-3-1"
         style="stop-color:#000000;stop-opacity:1"
         offset="0" />
      <stop
         id="stop3736-71-8"
         style="stop-color:#000000;stop-opacity:0"
         offset="1" />
    </linearGradient>
    <linearGradient
       x1="8.1313992"
       y1="19.049677"
       x2="8.1313992"
       y2="15.935893"
       id="linearGradient3794-3"
       xlink:href="#linearGradient3788-3"
       gradientUnits="userSpaceOnUse"
       gradientTransform="matrix(1.1333334,0,0,0.99999997,-27.914124,-5.7118643)" />
    <linearGradient
       id="linearGradient3788-3">
      <stop
         id="stop3790-8"
         style="stop-color:#ffffff;stop-opacity:1"
         offset="0" />
      <stop
         id="stop3792-3"
         style="stop-color:#ffffff;stop-opacity:0"
         offset="1" />
    </linearGradient>
    <linearGradient
       inkscape:collect="always"
       xlink:href="#linearGradient3788-3"
       id="linearGradient3210"
       gradientUnits="userSpaceOnUse"
       gradientTransform="matrix(1.1333334,0,0,0.99999997,-27.914124,-5.7118643)"
       x1="8.1313992"
       y1="19.049677"
       x2="8.1313992"
       y2="15.935893" />
    <linearGradient
       inkscape:collect="always"
       xlink:href="#linearGradient3732-77-1"
       id="linearGradient3212"
       gradientUnits="userSpaceOnUse"
       gradientTransform="matrix(0.8666667,0,0,0.73333335,-25.780791,-13.354803)"
       x1="8.1313992"
       y1="19.049677"
       x2="8.1313992"
       y2="15.935893" />
    <linearGradient
       inkscape:collect="always"
       xlink:href="#linearGradient3587-6-5-1-5-2-1"
       id="linearGradient3214"
       gradientUnits="userSpaceOnUse"
       gradientTransform="rotate(45,-6.6146827,-50.612924)"
       x1="20.534313"
       y1="-4.3515615"
       x2="26.152533"
       y2="1.2666581" />
    <linearGradient
       id="linearGradient3587-6-5-1-5-2-7">
      <stop
         offset="0"
         style="stop-color:#000000;stop-opacity:1"
         id="stop3589-9-2-8-5-0-9" />
      <stop
         offset="1"
         style="stop-color:#646464;stop-opacity:1"
         id="stop3591-7-4-3-0-1-5" />
    </linearGradient>
    <linearGradient
       id="linearGradient3732-77-2"
       inkscape:collect="always">
      <stop
         id="stop3734-3-2"
         offset="0"
         style="stop-color:#000000;stop-opacity:1;" />
      <stop
         id="stop3736-71-0"
         offset="1"
         style="stop-color:#000000;stop-opacity:0;" />
    </linearGradient>
    <linearGradient
       inkscape:collect="always"
       id="linearGradient3788-8">
      <stop
         style="stop-color:#ffffff;stop-opacity:1;"
         offset="0"
         id="stop3790-7" />
      <stop
         style="stop-color:#ffffff;stop-opacity:0;"
         offset="1"
         id="stop3792-4" />
    </linearGradient>
    <linearGradient
       inkscape:collect="always"
       xlink:href="#linearGradient3788-8"
       id="linearGradient3298"
       gradientUnits="userSpaceOnUse"
       gradientTransform="matrix(1.1333334,0,0,0.99999997,-5.0666667,42)"
       x1="8.1313992"
       y1="19.049677"
       x2="8.1313992"
       y2="15.935893" />
    <linearGradient
       inkscape:collect="always"
       xlink:href="#linearGradient3732-77-2"
       id="linearGradient3300"
       gradientUnits="userSpaceOnUse"
       gradientTransform="matrix(0.8666667,0,0,0.73333335,-2.9333334,-61.066667)"
       x1="8.1313992"
       y1="19.049677"
       x2="8.1313992"
       y2="15.935893" />
    <linearGradient
       inkscape:collect="always"
       xlink:href="#linearGradient3587-6-5-1-5-2-7"
       id="linearGradient3302"
       gradientUnits="userSpaceOnUse"
       gradientTransform="rotate(45,-52.784269,0.82232777)"
       x1="20.534313"
       y1="-4.3515615"
       x2="26.152533"
       y2="1.2666581" />
    <linearGradient
       x1="20.534313"
       y1="-4.3515615"
       x2="26.152533"
       y2="1.2666581"
       id="linearGradient6693-5-9"
       xlink:href="#linearGradient3587-6-5-1-5-2-4"
       gradientUnits="userSpaceOnUse"
       gradientTransform="rotate(45,24.578427,37.367009)" />
    <linearGradient
       id="linearGradient3587-6-5-1-5-2-4">
      <stop
         id="stop3589-9-2-8-5-0-4"
         style="stop-color:#000000;stop-opacity:1"
         offset="0" />
      <stop
         id="stop3591-7-4-3-0-1-0"
         style="stop-color:#646464;stop-opacity:1"
         offset="1" />
    </linearGradient>
  </defs>
  <g
     id="hover-inactive-center">
    <rect
       y="6.6894529e-08"
       x="104.15625"
       height="26"
       width="26"
       id="rect3850"
       style="opacity:0.00100002;fill:#3daee9;fill-opacity:1;stroke:none;stroke-width:1.3" />
    <path
       d="m 117.04315,9.3750004 c -0.81798,0 -1.48315,0.6651696 -1.48315,1.4831546 0,0.82189 0.66398,1.483154 1.48315,1.483154 0.83386,0 1.48316,-0.673723 1.48316,-1.483154 0,-0.817985 -0.66517,-1.4831546 -1.48316,-1.4831546 z"
       id="path2-5"
       style="fill:#7f2aff;fill-opacity:1;stroke-width:0.0247192" />
    <path
       d="m 117.06882,5.9062502 c -2.72618,0 -4.94382,2.2176356 -4.94382,4.9438218 0,0.920934 0.25507,1.819742 0.73748,2.599463 l 3.92474,6.324229 c 0.16274,0.262818 0.54643,0.258808 0.70409,-0.0051 l 3.82455,-6.385392 c 0.4554,-0.763215 0.6968,-1.639096 0.6968,-2.532664 0,-2.7261922 -2.21764,-4.9438279 -4.94384,-4.9438279 z m 0,7.4212368 c -1.38276,0 -2.4774,-1.125517 -2.4774,-2.477415 0,-1.3630901 1.11431,-2.4774018 2.4774,-2.4774018 1.3631,0 2.47742,1.1143117 2.47742,2.4774018 0,1.339971 -1.07993,2.477415 -2.47742,2.477415 z"
       id="path8-9"
       style="opacity:1;fill:#a266ff;fill-opacity:1;stroke-width:0.0274657" />
    <path
       d="m 121.88151,5.3841262 c 1.63412,0 2.95312,1.318993 2.95312,2.953124 v 9.3862878 c 0,1.634118 -1.319,2.953125 -2.95312,2.953125 h -9.38801 c -1.63412,0 -2.95313,-1.319007 -2.95313,-2.953125 V 8.3372502 c 0,-1.634131 1.31901,-2.953124 2.95313,-2.953124 h 9.38801 m 0,-0.790376 h -9.38801 c -2.056,0 -3.7435,1.687498 -3.7435,3.7435 v 9.3862878 c 0,2.057703 1.6875,3.745215 3.7435,3.745215 h 9.38629 c 2.05771,0 3.74521,-1.687512 3.74521,-3.743501 V 8.3372502 c 0,-2.056002 -1.6875,-3.7435 -3.74349,-3.7435 z"
       id="path4-3-7-3-6-7"
       style="clip-rule:evenodd;fill:#a266ff;fill-opacity:1;fill-rule:evenodd;stroke-width:0.0172195;stroke-linejoin:round;stroke-miterlimit:1.41421" />
  </g>
  <g
     id="hover-center"
     transform="translate(52.156251)">
    <rect
       style="opacity:0.00100002;fill:#3daee9;fill-opacity:1;stroke:none;stroke-width:1.3"
       id="rect3079"
       width="26"
       height="26"
       x="-26"
       y="-1.323489e-23" />
    <path
       d="m -13.113409,9.3750003 c -0.817985,0 -1.483155,0.6651697 -1.483155,1.4831547 0,0.82189 0.663984,1.483154 1.483155,1.483154 0.833854,0 1.483154,-0.673723 1.483154,-1.483154 0,-0.817985 -0.66517,-1.4831547 -1.483154,-1.4831547 z"
       id="path2-3"
       style="fill:#7f2aff;fill-opacity:1;stroke-width:0.0247192" />
    <path
       d="m -13.087742,5.9062501 c -2.726181,0 -4.943822,2.2176357 -4.943822,4.9438219 0,0.920934 0.255074,1.819742 0.737482,2.599463 l 3.924737,6.324229 c 0.162737,0.262818 0.546434,0.258808 0.704088,-0.0051 l 3.824547,-6.385392 c 0.455406,-0.763215 0.696802,-1.639096 0.696802,-2.532664 0,-2.7261921 -2.217641,-4.943828 -4.943834,-4.943828 z m 0,7.4212369 c -1.382762,0 -2.477403,-1.125517 -2.477403,-2.477415 0,-1.3630902 1.114311,-2.4774017 2.477403,-2.4774017 1.363097,0 2.477415,1.1143115 2.477415,2.4774017 0,1.339971 -1.079925,2.477415 -2.477415,2.477415 z"
       id="path8-6"
       style="fill:#a266ff;fill-opacity:1;stroke-width:0.0274657" />
    <path
       d="m -8.274743,5.3841261 c 1.634118,0 2.953125,1.318993 2.953125,2.953124 v 9.3862869 c 0,1.634118 -1.319007,2.953125 -2.953125,2.953125 h -9.388013 c -1.634119,0 -2.953125,-1.319007 -2.953125,-2.953125 V 8.3372501 c 0,-1.634131 1.319006,-2.953124 2.953125,-2.953124 h 9.388013 m 0,-0.790376 h -9.388013 c -2.055995,0 -3.743494,1.687498 -3.743494,3.7435 v 9.3862869 c 0,2.057703 1.687499,3.745215 3.743494,3.745215 h 9.386292 c 2.057715,0 3.745214,-1.687512 3.745214,-3.743501 V 8.3372501 c 0,-2.056002 -1.687499,-3.7435 -3.743493,-3.7435 z"
       id="path4-3-7-3-6-3"
       style="clip-rule:evenodd;fill:#a266ff;fill-opacity:1;fill-rule:evenodd;stroke-width:0.0172195;stroke-linejoin:round;stroke-miterlimit:1.41421" />
  </g>
  <g
     id="pressed-center"
     transform="translate(52.156251)">
    <rect
       y="6.6894529e-08"
       x="0"
       height="26"
       width="26"
       id="rect3089"
       style="opacity:0.00100002;fill:#3daee9;fill-opacity:1;stroke:none;stroke-width:1.3" />
    <path
       d="m 17.718751,13.031251 c 0,2.588659 -2.098843,4.6875 -4.687501,4.6875 -2.588639,0 -4.6874997,-2.098841 -4.6874997,-4.6875 0,-2.588638 2.0988607,-4.6875007 4.6874997,-4.6875007 2.588658,0 4.687501,2.0988627 4.687501,4.6875007 z"
       id="path4-3-7-3-36"
       style="fill:#c199ff;fill-opacity:1;stroke-width:0.00956627;enable-background:new" />
    <path
       d="m 17.725257,5.3841262 c 1.634118,0 2.953125,1.318993 2.953125,2.9531241 v 9.3862867 c 0,1.634118 -1.319007,2.953125 -2.953125,2.953125 H 8.3372442 c -1.634119,0 -2.953125,-1.319007 -2.953125,-2.953125 V 8.3372503 c 0,-1.6341311 1.319006,-2.9531241 2.953125,-2.9531241 h 9.3880128 m 0,-0.790376 H 8.3372442 c -2.055995,0 -3.743494,1.687498 -3.743494,3.7435001 v 9.3862867 c 0,2.057703 1.687499,3.745215 3.743494,3.745215 h 9.3862918 c 2.057715,0 3.745214,-1.687512 3.745214,-3.743501 V 8.3372503 c 0,-2.0560021 -1.687499,-3.7435001 -3.743493,-3.7435001 z"
       id="path4-3-7-3-6-3-6"
       style="clip-rule:evenodd;fill:#c29aff;fill-opacity:1;fill-rule:evenodd;stroke-width:0.0172195;stroke-linejoin:round;stroke-miterlimit:1.41421" />
  </g>
  <g
     id="inactive-center"
     transform="translate(78.156251)">
    <rect
       style="opacity:0.00100002;fill:#bfc3c7;fill-opacity:1;stroke:none;stroke-width:1.3"
       id="rect3903"
       width="26"
       height="26"
       x="0"
       y="0" />
    <path
       d="m 12.886904,9.3750003 c -0.817984,0 -1.483154,0.6651707 -1.483154,1.4831547 0,0.82189 0.663984,1.483155 1.483154,1.483155 0.833855,0 1.483155,-0.673723 1.483155,-1.483155 0,-0.817984 -0.66517,-1.4831547 -1.483155,-1.4831547 z"
       id="path2-36"
       style="opacity:0.5;fill:#7a9eb8;fill-opacity:1;stroke-width:0.0247192" />
    <path
       d="m 12.912572,5.9062501 c -2.72618,0 -4.943822,2.2176363 -4.943822,4.9438219 0,0.920935 0.255069,1.819743 0.737478,2.599464 l 3.924742,6.324231 c 0.162737,0.262819 0.546434,0.258809 0.704087,-0.0051 l 3.824544,-6.385392 c 0.455409,-0.763216 0.696805,-1.639099 0.696805,-2.532666 0,-2.726193 -2.217638,-4.9438291 -4.943834,-4.9438291 z m 0,7.4212379 c -1.382761,0 -2.477402,-1.125517 -2.477402,-2.477416 0,-1.3630902 1.11431,-2.4774012 2.477402,-2.4774012 1.363097,0 2.477416,1.114311 2.477416,2.4774012 0,1.339973 -1.079925,2.477416 -2.477416,2.477416 z"
       id="path8-7"
       style="opacity:0.5;fill:#7a9eb8;fill-opacity:1;stroke-width:0.0274657" />
    <path
       d="m 17.725257,5.3841262 c 1.634118,0 2.953125,1.318993 2.953125,2.953124 v 9.3862878 c 0,1.634118 -1.319007,2.953125 -2.953125,2.953125 H 8.3372442 c -1.634119,0 -2.953125,-1.319007 -2.953125,-2.953125 V 8.3372502 c 0,-1.634131 1.319006,-2.953124 2.953125,-2.953124 h 9.3880128 m 0,-0.790376 H 8.3372442 c -2.055995,0 -3.743494,1.687498 -3.743494,3.7435 v 9.3862878 c 0,2.057703 1.687499,3.745215 3.743494,3.745215 h 9.3862918 c 2.057715,0 3.745214,-1.687512 3.745214,-3.743501 V 8.3372502 c 0,-2.056002 -1.687499,-3.7435 -3.743493,-3.7435 z"
       id="path4-3-7-3-6-36"
       style="clip-rule:evenodd;fill:#355064;fill-opacity:1;fill-rule:evenodd;stroke-width:0.0172195;stroke-linejoin:round;stroke-miterlimit:1.41421" />
  </g>
  <g
     id="active-center">
    <rect
       style="opacity:0.00100002;fill:#bfc3c7;fill-opacity:1;stroke:none;stroke-width:1.3"
       id="rect3903-6"
       width="26"
       height="26"
       x="0"
       y="0" />
    <path
       d="m 12.886904,9.3750003 c -0.817984,0 -1.483154,0.6651707 -1.483154,1.4831547 0,0.82189 0.663984,1.483155 1.483154,1.483155 0.833855,0 1.483155,-0.673723 1.483155,-1.483155 0,-0.817984 -0.66517,-1.4831547 -1.483155,-1.4831547 z"
       id="path2-36-7"
       style="fill:#7a9eb8;fill-opacity:1;stroke-width:0.0247192" />
    <path
       d="m 12.912572,5.9062501 c -2.72618,0 -4.943822,2.2176363 -4.943822,4.9438219 0,0.920935 0.255069,1.819743 0.737478,2.599464 l 3.924742,6.324231 c 0.162737,0.262819 0.546434,0.258809 0.704087,-0.0051 l 3.824544,-6.385392 c 0.455409,-0.763216 0.696805,-1.639099 0.696805,-2.532666 0,-2.726193 -2.217638,-4.9438291 -4.943834,-4.9438291 z m 0,7.4212379 c -1.382761,0 -2.477402,-1.125517 -2.477402,-2.477416 0,-1.3630902 1.11431,-2.4774012 2.477402,-2.4774012 1.363097,0 2.477416,1.114311 2.477416,2.4774012 0,1.339973 -1.079925,2.477416 -2.477416,2.477416 z"
       id="path8-7-5"
       style="fill:#7a9eb8;fill-opacity:1;stroke-width:0.0274657" />
    <path
       d="m 17.725257,5.3841262 c 1.634118,0 2.953125,1.318993 2.953125,2.953124 v 9.3862878 c 0,1.634118 -1.319007,2.953125 -2.953125,2.953125 H 8.3372442 c -1.634119,0 -2.953125,-1.319007 -2.953125,-2.953125 V 8.3372502 c 0,-1.634131 1.319006,-2.953124 2.953125,-2.953124 h 9.3880128 m 0,-0.790376 H 8.3372442 c -2.055995,0 -3.743494,1.687498 -3.743494,3.7435 v 9.3862878 c 0,2.057703 1.687499,3.745215 3.743494,3.745215 h 9.3862918 c 2.057715,0 3.745214,-1.687512 3.745214,-3.743501 V 8.3372502 c 0,-2.056002 -1.687499,-3.7435 -3.743493,-3.7435 z"
       id="path4-3-7-3-6-36-3"
       style="clip-rule:evenodd;fill:#355064;fill-opacity:1;fill-rule:evenodd;stroke-width:0.0172195;stroke-linejoin:round;stroke-miterlimit:1.41421" />
  </g>
  <g
     id="pressed-inactive-center"
     transform="translate(130.15625)">
    <rect
       style="opacity:0.00100002;fill:#3daee9;fill-opacity:1;stroke:none;stroke-width:1.3"
       id="rect3860"
       width="26"
       height="26"
       x="0"
       y="0" />
    <path
       d="m 17.725256,5.3841262 c 1.634118,0 2.953125,1.318993 2.953125,2.953124 v 9.3862868 c 0,1.634118 -1.319007,2.953125 -2.953125,2.953125 H 8.3372443 c -1.6341191,0 -2.9531251,-1.319007 -2.9531251,-2.953125 V 8.3372502 c 0,-1.634131 1.319006,-2.953124 2.9531251,-2.953124 h 9.3880117 m 0,-0.790376 H 8.3372443 c -2.0559951,0 -3.7434941,1.687498 -3.7434941,3.7435 v 9.3862868 c 0,2.057703 1.687499,3.745215 3.7434941,3.745215 h 9.3862907 c 2.057715,0 3.745214,-1.687512 3.745214,-3.743501 V 8.3372502 c 0,-2.056002 -1.687499,-3.7435 -3.743493,-3.7435 z"
       id="path4-3-7-3-6-3-6-5-5"
       style="clip-rule:evenodd;fill:#c29aff;fill-opacity:1;fill-rule:evenodd;stroke-width:0.0172195;stroke-linejoin:round;stroke-miterlimit:1.41421" />
    <path
       d="m 17.718751,13.031252 c 0,2.588659 -2.098843,4.6875 -4.687501,4.6875 -2.588638,0 -4.6874997,-2.098841 -4.6874997,-4.6875 0,-2.588638 2.0988617,-4.6875017 4.6874997,-4.6875017 2.588658,0 4.687501,2.0988637 4.687501,4.6875017 z"
       id="path4-3-7-3-36-3-6"
       style="fill:#c29aff;fill-opacity:1;stroke-width:0.00956627;enable-background:new" />
  </g>
</svg>
