<?xml version="1.0" encoding="UTF-8" standalone="no"?>
<svg
   xmlns:dc="http://purl.org/dc/elements/1.1/"
   xmlns:cc="http://creativecommons.org/ns#"
   xmlns:rdf="http://www.w3.org/1999/02/22-rdf-syntax-ns#"
   xmlns:svg="http://www.w3.org/2000/svg"
   xmlns="http://www.w3.org/2000/svg"
   xmlns:sodipodi="http://sodipodi.sourceforge.net/DTD/sodipodi-0.dtd"
   xmlns:inkscape="http://www.inkscape.org/namespaces/inkscape"
   width="48"
   height="48"
   version="1.1"
   id="svg29"
   sodipodi:docname="utilities-terminal.svg"
   inkscape:version="1.0.2 (e86c870879, 2021-01-15)">
  <metadata
     id="metadata33">
    <rdf:RDF>
      <cc:Work
         rdf:about="">
        <dc:format>image/svg+xml</dc:format>
        <dc:type
           rdf:resource="http://purl.org/dc/dcmitype/StillImage" />
      </cc:Work>
    </rdf:RDF>
  </metadata>
  <sodipodi:namedview
     pagecolor="#ffffff"
     bordercolor="#666666"
     borderopacity="1"
     objecttolerance="10"
     gridtolerance="10"
     guidetolerance="10"
     inkscape:pageopacity="0"
     inkscape:pageshadow="2"
     inkscape:window-width="1920"
     inkscape:window-height="1007"
     id="namedview31"
     showgrid="false"
     inkscape:zoom="13.083333"
     inkscape:cx="11.503185"
     inkscape:cy="24"
     inkscape:window-x="0"
     inkscape:window-y="0"
     inkscape:window-maximized="1"
     inkscape:current-layer="svg29" />
  <defs
     id="defs17">
    <linearGradient
       id="a"
       y1="547.634"
       y2="499.679"
       x2="388.865"
       gradientUnits="userSpaceOnUse"
       gradientTransform="translate(-384.57,-499.8)"
       x1="428.816">
      <stop
         stop-color="#2e3440"
         id="stop2"
         style="stop-color:#2e3440;stop-opacity:1" />
      <stop
         offset="1"
         stop-color="#536161"
         id="stop4"
         style="stop-color:#566376;stop-opacity:1" />
    </linearGradient>
    <linearGradient
       id="b"
       y1="44"
       y2="12"
       x2="14"
       gradientUnits="userSpaceOnUse"
       x1="36">
      <stop
         stop-color="#536161"
         style="stop-color:#bfc9c9;stop-opacity:1"
         id="stop7" />
      <stop
         offset="1"
         stop-color="#f4f5f5"
         style="stop-color:#fbfbfb;stop-opacity:1"
         id="stop9" />
    </linearGradient>
    <linearGradient
       id="c"
       y1="527.014"
       x1="406.501"
       y2="539.825"
       x2="419.974"
       gradientUnits="userSpaceOnUse"
       gradientTransform="translate(-384.57,-499.8)">
      <stop
         stop-color="#292c2f"
         id="stop12" />
      <stop
         offset="1"
         stop-opacity="0"
         id="stop14" />
    </linearGradient>
  </defs>
  <rect
     style="fill:url(#a)"
     height="40"
     rx="1"
     y="4"
     x="4"
     width="40"
     ry="1"
     id="rect19" />
  <path
     style="fill:#000000;fill-opacity:1;opacity:0.3"
     d="M 4 42 L 4 43 C 4 43.554007 4.4459958 44 5 44 L 43 44 C 43.554004 44 44 43.554007 44 43 L 44 42 C 44 42.554007 43.554004 43 43 43 L 5 43 C 4.4459958 43 4 42.554007 4 42 z"
     id="path21" />
  <path
     style="fill:url(#b);stroke:none;stroke-opacity:1;stroke-width:0.2;stroke-miterlimit:4;stroke-dasharray:none"
     d="M 20.414,14 19,15.414 27.586,24 19,32.586 20.414,34 30.414,24 29,22.586 Z"
     id="path23" />
  <path
     d="m 20.42,34 9.586,9.586 14,0 0,-6 L 30.42,24 Z"
     style="opacity:0.4;fill:url(#c);fill-rule:evenodd"
     id="path25" />
  <path
     d="M 4,6 4,5 C 4,4.445993 4.445996,4 5,4 l 38,0 c 0.554004,0 1,0.445993 1,1 l 0,1 C 44,5.445993 43.554004,5 43,5 L 5,5 C 4.445996,5 4,5.445993 4,6 Z"
     style="opacity:0.3;fill:#ffffff;fill-opacity:1"
     id="path27" />
</svg>
