<?xml version="1.0" encoding="UTF-8" standalone="no"?>
<svg
   xmlns:dc="http://purl.org/dc/elements/1.1/"
   xmlns:cc="http://creativecommons.org/ns#"
   xmlns:rdf="http://www.w3.org/1999/02/22-rdf-syntax-ns#"
   xmlns:svg="http://www.w3.org/2000/svg"
   xmlns="http://www.w3.org/2000/svg"
   xmlns:xlink="http://www.w3.org/1999/xlink"
   xmlns:sodipodi="http://sodipodi.sourceforge.net/DTD/sodipodi-0.dtd"
   xmlns:inkscape="http://www.inkscape.org/namespaces/inkscape"
   height="32"
   width="32"
   version="1.1"
   id="svg23"
   sodipodi:docname="folder-root.svg"
   inkscape:version="1.0.2 (e86c870879, 2021-01-15)">
  <metadata
     id="metadata29">
    <rdf:RDF>
      <cc:Work
         rdf:about="">
        <dc:format>image/svg+xml</dc:format>
        <dc:type
           rdf:resource="http://purl.org/dc/dcmitype/StillImage" />
      </cc:Work>
    </rdf:RDF>
  </metadata>
  <defs
     id="defs27">
    <linearGradient
       inkscape:collect="always"
       xlink:href="#linearGradient860"
       id="linearGradient862-3-3"
       x1="113.94677"
       y1="255.36646"
       x2="406.08289"
       y2="255.36646"
       gradientUnits="userSpaceOnUse"
       gradientTransform="matrix(0.10135136,0,0,0.09220348,-10.351286,-8.1437674)" />
    <linearGradient
       inkscape:collect="always"
       id="linearGradient860">
      <stop
         style="stop-color:#66e0ff;stop-opacity:1"
         offset="0"
         id="stop856" />
      <stop
         style="stop-color:#ffeeaa;stop-opacity:1"
         offset="1"
         id="stop858" />
    </linearGradient>
    <linearGradient
       inkscape:collect="always"
       xlink:href="#linearGradient842"
       id="linearGradient844"
       x1="386.30627"
       y1="522.45404"
       x2="446.83023"
       y2="522.45404"
       gradientUnits="userSpaceOnUse"
       gradientTransform="matrix(0.49567138,0,0,0.49972091,-190.48096,-241.74838)" />
    <linearGradient
       inkscape:collect="always"
       id="linearGradient842">
      <stop
         style="stop-color:#67ffff;stop-opacity:1"
         offset="0"
         id="stop838" />
      <stop
         style="stop-color:#77c5ee;stop-opacity:1"
         offset="1"
         id="stop840" />
    </linearGradient>
  </defs>
  <sodipodi:namedview
     pagecolor="#ffffff"
     bordercolor="#666666"
     borderopacity="1"
     objecttolerance="10"
     gridtolerance="10"
     guidetolerance="10"
     inkscape:pageopacity="0"
     inkscape:pageshadow="2"
     inkscape:window-width="1920"
     inkscape:window-height="1007"
     id="namedview25"
     showgrid="false"
     inkscape:zoom="9.8125"
     inkscape:cx="-11.333592"
     inkscape:cy="3.6133077"
     inkscape:window-x="0"
     inkscape:window-y="0"
     inkscape:window-maximized="1"
     inkscape:current-layer="svg23"
     inkscape:document-rotation="0" />
  <linearGradient
     id="a"
     gradientUnits="userSpaceOnUse"
     x2="0"
     y1="29"
     y2="8">
    <stop
       offset="0"
       stop-color="#3daee9"
       id="stop2" />
    <stop
       offset="1"
       stop-color="#6cc1ef"
       id="stop4" />
  </linearGradient>
  <path
     style="fill:url(#linearGradient862-3-3);fill-opacity:1;stroke-width:0.089569"
     d="m 16.001578,6.5798206 c -0.440161,-10e-6 -0.961186,-0.258246 -1.158459,-0.57392 l -0.885051,-1.418593 c -0.19637,-0.315668 -0.717395,-0.573334 -1.157397,-0.573914 l -10.20056,-0.01339 c -0.973002,-0.0015 -1.402973,0.467384 -1.402834,1.502077 l 6e-5,0.436136 v 1.283213 18.2857884 c 0,0.352882 1.160352,1.283213 1.600354,1.283213 h 26.407572 c 0.440013,0 1.60491,-0.930331 1.60491,-1.283213 l -8.9e-5,-17.5066184 c -5e-6,-0.962407 -0.434119,-1.420527 -1.424629,-1.420542 z"
     id="path4-3"
     sodipodi:nodetypes="sccsssccsssssss" />
  <path
     style="fill:#434c5e;fill-opacity:1;stroke-width:0.0882824"
     d="m 28.889034,13.42973 c 0,0.66274 -0.397886,1.204977 -1.308573,1.204977 H 4.482671 c -0.910697,0 -1.259263,-0.542237 -1.259263,-1.204977 V 9.814804 c 0,-0.6627404 0.348566,-1.2049774 1.259263,-1.2049774 h 23.048223 c 0.910687,0 1.35814,0.542237 1.35814,1.2049774 z"
     id="path8-6"
     sodipodi:nodetypes="sssssssss" />
  <path
     style="fill:url(#linearGradient844);fill-opacity:1;stroke-width:0.0966699"
     d="M 29.378301,10.665744 H 2.621698 C 1.81079,10.665744 1,11.403372 1,12.141 v 14.383741 c 0,0.975535 0.627109,1.475256 1.621698,1.475256 h 26.756603 c 0.997748,0 1.621698,-0.499721 1.621698,-1.475256 V 12.141 c 0,-0.737628 -0.810794,-1.475256 -1.621698,-1.475256 z"
     id="path10"
     sodipodi:nodetypes="sssssssss" />
  <path
     d="m 16.992835,14.993858 h -0.991343 l -4.956711,9.994418 h 0.991343 z m -0.991343,9.494697 h 4.956714 v 0.499721 h -4.956714 z"
     id="path17-3-6-3"
     style="fill:#434c5e;fill-opacity:1;stroke-width:0.497692" />
</svg>
