<?xml version="1.0" encoding="UTF-8" standalone="no"?>
<svg
   xmlns:dc="http://purl.org/dc/elements/1.1/"
   xmlns:cc="http://creativecommons.org/ns#"
   xmlns:rdf="http://www.w3.org/1999/02/22-rdf-syntax-ns#"
   xmlns:svg="http://www.w3.org/2000/svg"
   xmlns="http://www.w3.org/2000/svg"
   xmlns:xlink="http://www.w3.org/1999/xlink"
   xmlns:sodipodi="http://sodipodi.sourceforge.net/DTD/sodipodi-0.dtd"
   xmlns:inkscape="http://www.inkscape.org/namespaces/inkscape"
   height="32"
   viewBox="0 0 32 32"
   width="32"
   version="1.1"
   id="svg25"
   sodipodi:docname="folder-recent.svg"
   inkscape:version="1.0.2 (e86c870879, 2021-01-15)">
  <metadata
     id="metadata31">
    <rdf:RDF>
      <cc:Work
         rdf:about="">
        <dc:format>image/svg+xml</dc:format>
        <dc:type
           rdf:resource="http://purl.org/dc/dcmitype/StillImage" />
      </cc:Work>
    </rdf:RDF>
  </metadata>
  <defs
     id="defs29">
    <linearGradient
       inkscape:collect="always"
       xlink:href="#linearGradient860"
       id="linearGradient862-3-3"
       x1="113.94677"
       y1="255.36646"
       x2="406.08289"
       y2="255.36646"
       gradientUnits="userSpaceOnUse"
       gradientTransform="matrix(0.10135137,0,0,0.09220346,-10.351286,-8.1437615)" />
    <linearGradient
       inkscape:collect="always"
       id="linearGradient860">
      <stop
         style="stop-color:#00ffff;stop-opacity:1"
         offset="0"
         id="stop856" />
      <stop
         style="stop-color:#c6afe9;stop-opacity:1"
         offset="1"
         id="stop858" />
    </linearGradient>
    <linearGradient
       inkscape:collect="always"
       xlink:href="#linearGradient842"
       id="linearGradient844"
       x1="386.30627"
       y1="522.45404"
       x2="446.83023"
       y2="522.45404"
       gradientUnits="userSpaceOnUse"
       gradientTransform="matrix(0.49567114,0,0,0.49972081,-190.48096,-241.74831)" />
    <linearGradient
       inkscape:collect="always"
       id="linearGradient842">
      <stop
         style="stop-color:#ffb9ff;stop-opacity:1"
         offset="0"
         id="stop838" />
      <stop
         style="stop-color:#ffccaa;stop-opacity:1"
         offset="1"
         id="stop840" />
    </linearGradient>
  </defs>
  <sodipodi:namedview
     pagecolor="#ffffff"
     bordercolor="#666666"
     borderopacity="1"
     objecttolerance="10"
     gridtolerance="10"
     guidetolerance="10"
     inkscape:pageopacity="0"
     inkscape:pageshadow="2"
     inkscape:window-width="1920"
     inkscape:window-height="1007"
     id="namedview27"
     showgrid="false"
     inkscape:zoom="9.8125"
     inkscape:cx="-8.5284096"
     inkscape:cy="13.959944"
     inkscape:window-x="0"
     inkscape:window-y="0"
     inkscape:window-maximized="1"
     inkscape:current-layer="svg25"
     inkscape:document-rotation="0" />
  <linearGradient
     id="a"
     gradientUnits="userSpaceOnUse"
     x2="0"
     y1="29"
     y2="8">
    <stop
       offset="0"
       stop-color="#3daee9"
       id="stop2" />
    <stop
       offset="1"
       stop-color="#6cc1ef"
       id="stop4" />
  </linearGradient>
  <path
     style="fill:url(#linearGradient862-3-3);fill-opacity:1;stroke-width:0.089569"
     d="m 16.001579,6.5798228 c -0.440161,0 -0.961186,-0.2582407 -1.158459,-0.5739194 L 13.958069,4.587311 C 13.761699,4.2716424 13.240674,4.0139763 12.800672,4.0133966 L 2.600112,4.0000036 C 1.627109,3.9985036 1.21701,4.4674824 1.203186,5.5020794 l -0.0058,0.4361363 V 7.2214293 25.507213 c 0,0.352883 1.160351,1.283213 1.600354,1.283213 h 26.407572 c 0.440013,0 1.600359,-0.93033 1.600359,-1.283213 V 7.8630359 c 0,-0.9624074 -0.400021,-1.2832131 -1.600359,-1.2832131 z"
     id="path4-3"
     sodipodi:nodetypes="sccsssccsssssss" />
  <path
     style="fill:#434c5e;fill-opacity:1;stroke-width:0.0882824"
     d="m 28.889035,13.42973 c 0,0.66274 -0.397886,1.204977 -1.308573,1.204977 H 4.482671 c -0.910696,0 -1.259263,-0.542237 -1.259263,-1.204977 V 9.81481 c 0,-0.6627397 0.348567,-1.2049764 1.259263,-1.2049764 h 23.048224 c 0.910687,0 1.35814,0.5422367 1.35814,1.2049764 z"
     id="path8-6"
     sodipodi:nodetypes="sssssssss" />
  <path
     style="fill:url(#linearGradient844);fill-opacity:1;stroke-width:0.0966699"
     d="M 29.378302,10.665745 H 2.621698 C 1.81079,10.665745 1,11.403372 1,12.141 V 26.524744 C 1,27.500279 1.627109,28 2.621698,28 H 29.378302 C 30.376049,28 31,27.500279 31,26.524744 V 12.141 c 0,-0.737628 -0.810794,-1.475255 -1.621698,-1.475255 z"
     id="path10"
     sodipodi:nodetypes="sssssssss" />
  <path
     style="color:#000000;fill:#434c5e;fill-opacity:1;fill-rule:evenodd;stroke-width:0.0497692"
     id="path3995-3-6"
     d="m 16.053044,14.922706 c -2.737514,0 -4.956714,2.237325 -4.956714,4.997208 0,2.759883 2.2192,4.997208 4.956714,4.997208 2.737524,0 4.956714,-2.237325 4.956714,-4.997208 0,-2.759883 -2.21919,-4.997208 -4.956714,-4.997208 z m 0,0.499721 c 2.463765,0 4.461043,2.013595 4.461043,4.497487 0,2.483893 -1.997278,4.497488 -4.461043,4.497488 -2.463759,0 -4.461042,-2.013595 -4.461042,-4.497488 0,-2.483892 1.997283,-4.497487 4.461042,-4.497487 z m -0.495671,0.499721 v 3.997766 0.499721 h 4.461042 v -0.499721 h -3.965371 v -3.997766 z" />
</svg>
