<?xml version="1.0" encoding="UTF-8" standalone="no"?>
<svg
   xmlns:dc="http://purl.org/dc/elements/1.1/"
   xmlns:cc="http://creativecommons.org/ns#"
   xmlns:rdf="http://www.w3.org/1999/02/22-rdf-syntax-ns#"
   xmlns:svg="http://www.w3.org/2000/svg"
   xmlns="http://www.w3.org/2000/svg"
   xmlns:xlink="http://www.w3.org/1999/xlink"
   xmlns:sodipodi="http://sodipodi.sourceforge.net/DTD/sodipodi-0.dtd"
   xmlns:inkscape="http://www.inkscape.org/namespaces/inkscape"
   width="32"
   version="1.1"
   height="32"
   viewBox="0 0 32 32"
   id="svg17"
   sodipodi:docname="folder-bookmark.svg"
   inkscape:version="1.0.2 (e86c870879, 2021-01-15)">
  <sodipodi:namedview
     pagecolor="#ffffff"
     bordercolor="#666666"
     borderopacity="1"
     objecttolerance="10"
     gridtolerance="10"
     guidetolerance="10"
     inkscape:pageopacity="0"
     inkscape:pageshadow="2"
     inkscape:window-width="1920"
     inkscape:window-height="1007"
     id="namedview19"
     showgrid="false"
     inkscape:zoom="9.8125"
     inkscape:cx="-12.289846"
     inkscape:cy="7.9098511"
     inkscape:window-x="0"
     inkscape:window-y="0"
     inkscape:window-maximized="1"
     inkscape:current-layer="layer1"
     inkscape:document-rotation="0" />
  <defs
     id="defs5455">
    <linearGradient
       inkscape:collect="always"
       xlink:href="#linearGradient842"
       id="linearGradient950"
       x1="446.01447"
       y1="518.79797"
       x2="387.06195"
       y2="518.79797"
       gradientUnits="userSpaceOnUse"
       gradientTransform="matrix(0.49567141,0,0,0.49971892,194.09049,274.03745)" />
    <linearGradient
       inkscape:collect="always"
       id="linearGradient842">
      <stop
         style="stop-color:#ffb3ff;stop-opacity:1"
         offset="0"
         id="stop838" />
      <stop
         style="stop-color:#80e5ff;stop-opacity:1"
         offset="1"
         id="stop840" />
    </linearGradient>
    <linearGradient
       inkscape:collect="always"
       xlink:href="#linearGradient842"
       id="linearGradient844"
       x1="381.31079"
       y1="543.77124"
       x2="446.83023"
       y2="522.45404"
       gradientUnits="userSpaceOnUse"
       gradientTransform="matrix(0.49567141,0,0,0.49971892,194.09049,274.05075)" />
  </defs>
  <metadata
     id="metadata5458">
    <rdf:RDF>
      <cc:Work
         rdf:about="">
        <dc:format>image/svg+xml</dc:format>
        <dc:type
           rdf:resource="http://purl.org/dc/dcmitype/StillImage" />
      </cc:Work>
    </rdf:RDF>
  </metadata>
  <g
     inkscape:label="Capa 1"
     inkscape:groupmode="layer"
     id="layer1"
     transform="translate(-384.57143,-515.798)">
    <path
       style="fill:url(#linearGradient950);fill-opacity:1;stroke-width:0.089568"
       d="m 400.57311,522.37792 c -0.44024,0 -0.96137,-0.25819 -1.15863,-0.57387 l -0.88504,-1.41863 c -0.19625,-0.31556 -0.71738,-0.57328 -1.15725,-0.57381 l -10.20072,-0.0136 c -0.97295,-0.002 -1.38308,0.46741 -1.39684,1.502 l -0.005,0.43611 v 1.28331 18.2858 c 0,0.35284 1.1603,1.28321 1.60024,1.28321 h 26.40766 c 0.44,0 1.60028,-0.93037 1.60028,-1.28321 V 523.661 c 0,-0.9624 -0.39992,-1.28313 -1.60028,-1.28313 z"
       id="path4-3"
       sodipodi:nodetypes="sccsssccsssssss" />
    <path
       style="fill:#434c5e;fill-opacity:1;stroke-width:0.0882823"
       d="m 413.46041,529.2279 c 0,0.6628 -0.39781,1.20502 -1.30858,1.20502 h -23.09766 c -0.91081,0 -1.25941,-0.54222 -1.25941,-1.20502 v -3.61502 c 0,-0.66274 0.3486,-1.20494 1.25941,-1.20494 h 23.04823 c 0.91059,0 1.35801,0.5422 1.35801,1.20494 z"
       id="path8-6"
       sodipodi:nodetypes="sssssssss" />
    <path
       style="fill:url(#linearGradient844);fill-opacity:1;stroke-width:0.0966699"
       d="m 413.94965,526.46389 h -26.75644 c -0.811,0 -1.62178,0.73763 -1.62178,1.47526 v 14.38368 c 0,0.9754 0.62709,1.47517 1.62178,1.47517 h 26.75644 c 0.99782,0 1.62178,-0.49977 1.62178,-1.47517 v -14.38368 c 0,-0.73763 -0.81079,-1.47526 -1.62178,-1.47526 z"
       id="path10"
       sodipodi:nodetypes="sssssssss" />
    <path
       inkscape:connector-curvature="0"
       style="color:#000000;fill:#434c5e;fill-opacity:1;stroke-width:0.995383"
       id="path3023-3-7-3"
       d="m 397.10327,530.6921 v 0.62464 c 0,2.95661 0,5.91328 0,8.86994 v 0.49977 l 3.46954,-1.49926 3.46978,1.49926 v -0.49977 c 0,-2.95666 0,-5.91333 0,-8.86994 v -0.62464 z m 0.49556,0.4997 h 5.94819 v 8.77634 l -2.97421,-1.28066 -2.97398,1.28066 z" />
  </g>
</svg>
