<?xml version="1.0" encoding="UTF-8" standalone="no"?>
<svg
   xmlns:dc="http://purl.org/dc/elements/1.1/"
   xmlns:cc="http://creativecommons.org/ns#"
   xmlns:rdf="http://www.w3.org/1999/02/22-rdf-syntax-ns#"
   xmlns:svg="http://www.w3.org/2000/svg"
   xmlns="http://www.w3.org/2000/svg"
   xmlns:xlink="http://www.w3.org/1999/xlink"
   xmlns:sodipodi="http://sodipodi.sourceforge.net/DTD/sodipodi-0.dtd"
   xmlns:inkscape="http://www.inkscape.org/namespaces/inkscape"
   width="32"
   version="1.1"
   height="32"
   viewBox="0 0 32 32"
   id="svg17"
   sodipodi:docname="folder_html.svg"
   inkscape:version="1.0.2 (e86c870879, 2021-01-15)">
  <sodipodi:namedview
     pagecolor="#ffffff"
     bordercolor="#666666"
     borderopacity="1"
     objecttolerance="10"
     gridtolerance="10"
     guidetolerance="10"
     inkscape:pageopacity="0"
     inkscape:pageshadow="2"
     inkscape:window-width="1920"
     inkscape:window-height="1011"
     id="namedview19"
     showgrid="false"
     inkscape:zoom="6.9384853"
     inkscape:cx="-28.934281"
     inkscape:cy="34.567061"
     inkscape:window-x="0"
     inkscape:window-y="0"
     inkscape:window-maximized="1"
     inkscape:current-layer="layer1"
     inkscape:document-rotation="0" />
  <defs
     id="defs5455">
    <linearGradient
       inkscape:collect="always"
       xlink:href="#linearGradient860"
       id="linearGradient862-3-3"
       x1="113.94677"
       y1="255.36646"
       x2="406.08289"
       y2="255.36646"
       gradientUnits="userSpaceOnUse"
       gradientTransform="matrix(0.10135136,0,0,0.09220346,374.22015,507.65424)" />
    <linearGradient
       inkscape:collect="always"
       id="linearGradient860">
      <stop
         style="stop-color:#00ccff;stop-opacity:1"
         offset="0"
         id="stop856" />
      <stop
         style="stop-color:#ffe680;stop-opacity:1"
         offset="1"
         id="stop858" />
    </linearGradient>
    <linearGradient
       inkscape:collect="always"
       xlink:href="#linearGradient860"
       id="linearGradient844"
       x1="446.80325"
       y1="518.77124"
       x2="379.57126"
       y2="543.77124"
       gradientUnits="userSpaceOnUse"
       gradientTransform="matrix(0.49567138,0,0,0.49972081,194.09047,274.04967)" />
  </defs>
  <metadata
     id="metadata5458">
    <rdf:RDF>
      <cc:Work
         rdf:about="">
        <dc:format>image/svg+xml</dc:format>
        <dc:type
           rdf:resource="http://purl.org/dc/dcmitype/StillImage" />
      </cc:Work>
    </rdf:RDF>
  </metadata>
  <g
     inkscape:label="Capa 1"
     inkscape:groupmode="layer"
     id="layer1"
     transform="translate(-384.57143,-515.798)">
    <path
       style="fill:url(#linearGradient862-3-3);fill-opacity:1;stroke-width:0.0895686"
       d="m 400.57301,522.37783 c -0.44016,-10e-6 -0.96119,-0.25825 -1.15846,-0.57392 l -0.88505,-1.4186 c -0.19637,-0.31567 -0.7174,-0.57333 -1.1574,-0.57391 l -10.20056,-0.0134 c -0.973,-10e-4 -1.3831,0.46748 -1.39692,1.50207 l -0.006,0.43614 v 1.28322 18.28578 c 0,0.35288 1.16035,1.28321 1.60035,1.28321 h 26.40757 c 0.44002,0 1.60036,-0.93033 1.60036,-1.28321 l 9e-5,-17.52742 c 1e-5,-0.96241 -0.42975,-1.3996 -1.481,-1.39963 z"
       id="path4-3"
       sodipodi:nodetypes="sccsssccsssssss" />
    <path
       style="fill:#434c5e;fill-opacity:1;stroke-width:0.0882823"
       d="m 413.46046,529.22773 c 0,0.66274 -0.39788,1.20498 -1.30857,1.20498 H 389.0541 c -0.9107,0 -1.25926,-0.54224 -1.25926,-1.20498 v -3.61492 c 0,-0.66274 0.34856,-1.20497 1.25926,-1.20497 h 23.04823 c 0.91068,0 1.35813,0.54223 1.35813,1.20497 z"
       id="path8-6"
       sodipodi:nodetypes="sssssssss" />
    <path
       style="fill:url(#linearGradient844);fill-opacity:1;stroke-width:0.0966695"
       d="m 413.94973,526.46375 h -26.7566 c -0.81091,0 -1.6217,0.73763 -1.6217,1.47525 v 14.38375 c 0,0.97553 0.62711,1.47525 1.6217,1.47525 h 26.7566 c 0.99775,0 1.6217,-0.49972 1.6217,-1.47525 V 527.939 c 0,-0.73762 -0.81079,-1.47525 -1.6217,-1.47525 z"
       id="path10"
       sodipodi:nodetypes="sssssssss" />
    <path
       style="color:#000000;fill:#434c5e;fill-opacity:1;stroke-width:0.497692"
       id="path26-3-6-7-6"
       d="m 400.97563,530.81385 c -0.17162,0 -0.34412,0.0142 -0.51116,0.0312 -0.33407,0.034 -0.64957,0.0903 -0.96036,0.18739 -1.55399,0.48526 -2.78701,1.72836 -3.26833,3.29504 -0.0963,0.31333 -0.15216,0.63141 -0.18588,0.96821 -0.0169,0.1684 -0.031,0.34231 -0.031,0.51534 0,0.17302 0.0141,0.34693 0.031,0.51533 0.0337,0.3368 0.0896,0.65488 0.18588,0.96821 0.48132,1.56668 1.71434,2.80978 3.26833,3.29504 0.31079,0.0971 0.62629,0.15339 0.96036,0.18739 0.16704,0.017 0.33954,0.0312 0.51116,0.0312 0.17163,0 0.34413,-0.0142 0.51116,-0.0312 0.33407,-0.034 0.64957,-0.0903 0.96037,-0.18739 0.31042,-0.0973 0.61747,-0.23655 0.8984,-0.39041 1.12392,-0.61401 1.98487,-1.65128 2.36993,-2.90463 0.0963,-0.31333 0.15215,-0.63141 0.18588,-0.96821 0.0168,-0.1684 0.031,-0.34231 0.031,-0.51533 0,-0.1725 -0.0141,-0.34735 -0.031,-0.51534 -0.0337,-0.3368 -0.0896,-0.65488 -0.18588,-0.96821 -0.19253,-0.62667 -0.51047,-1.20895 -0.91389,-1.70218 -0.10102,-0.1234 -0.21316,-0.23051 -0.32529,-0.34355 -0.44796,-0.45163 -0.97105,-0.82532 -1.56446,-1.07753 -0.14826,-0.0632 -0.30948,-0.12311 -0.46469,-0.17178 -0.3108,-0.097 -0.6263,-0.15339 -0.96037,-0.18739 -0.16703,-0.017 -0.33953,-0.0312 -0.51116,-0.0312 z m 0,0.49972 c 0.75011,0 1.4552,0.1856 2.07563,0.51533 0.0164,0.009 0.0302,0.0223 0.0464,0.0312 0.0125,0.0167 0.009,0.0346 0.031,0.0468 0.0162,0.009 0.0312,0.0231 0.0464,0.0312 0.0261,0.0145 0.0519,0.037 0.0464,0.0625 -0.007,0.0372 -0.0677,0.0352 -0.0929,0.0625 0.003,0.0527 -0.0175,0.0427 -0.031,0.0781 0.008,0.0227 0.0274,0.0196 0.031,0.0468 -0.004,0.0291 -0.0418,0.0325 -0.031,0.0625 0.0487,0.0382 0.0934,0.006 0.13941,0 0.10093,-0.0127 0.18565,0.002 0.24783,-0.0468 -0.007,-0.0389 0.0303,-0.05 0.0464,-0.0781 0.0329,0.0232 0.0607,0.054 0.0929,0.0781 -0.0189,0.008 -0.0603,0.0203 -0.0774,0.0312 -0.0252,0.0172 -0.0331,0.0434 -0.062,0.0625 -0.0207,0.0145 -0.0713,0.0625 -0.0929,0.0625 -0.0261,0 -0.074,-0.0219 -0.0929,-0.0156 -0.0271,0.008 -0.0159,0.0516 -0.0464,0.0625 -0.0595,0.0218 -0.16515,-0.0587 -0.18588,0.0312 0.0252,0.0518 0.10984,0.0343 0.1549,0.0625 0.028,0.0182 0.0702,0.10967 0.0774,0.14055 0.007,0.0254 0.0108,0.1133 0,0.14055 -0.028,0.0727 -0.10298,0.0643 -0.18588,0.0625 -0.0226,0 -0.0412,0.002 -0.062,0 -0.13967,-0.009 -0.27769,-0.054 -0.34077,0.0468 0.004,0.0772 0.0172,0.12018 0,0.18739 -0.0126,0.049 -0.0647,0.0822 -0.062,0.12493 9.9e-4,0.0218 0.0411,0.0637 0.0464,0.0937 0.003,0.0163 -0.007,0.048 0,0.0625 0.0234,0.0445 0.0825,-0.007 0.12392,0 0.0397,0.006 0.0774,0.0648 0.0774,0.10932 0,0.0318 -0.0111,0.0941 -0.031,0.12493 -0.0396,0.0599 -0.11361,0.0454 -0.17039,0.0781 -0.0468,0.0272 -0.065,0.0933 -0.0929,0.14055 -0.0297,0.0509 -0.0582,0.0679 -0.0464,0.14054 -0.0405,0.0808 -0.0866,0.13272 -0.17039,0.17178 -0.0243,0.0109 -0.0549,0.0305 -0.0774,0.0468 -0.018,0.0127 -0.0367,0.0334 -0.062,0.0625 -0.0315,0.0354 -0.0758,0.0508 -0.0929,0.0781 -0.0126,0.0209 -0.002,0.0656 -0.0155,0.0937 -0.0198,0.0382 -0.0522,0.0712 -0.0774,0.10931 -0.0117,0.0182 -0.0339,0.0388 -0.0464,0.0625 -0.0289,0.0527 -0.0674,0.0942 -0.062,0.14055 0.004,0.0445 0.0593,0.0546 0.062,0.0937 0.002,0.0218 -0.0164,0.0388 -0.0155,0.0625 10e-4,0.0345 0.0128,0.0508 0.0155,0.0781 0.006,0.0672 -0.0339,0.0942 -0.0464,0.14055 -0.006,0.0218 0.005,0.0452 0,0.0625 -0.0108,0.0336 -0.0611,0.0537 -0.062,0.0937 -9.9e-4,0.0282 0.0438,0.0537 0.0464,0.0937 0.002,0.0272 -0.0209,0.0527 -0.0155,0.0781 0.01,0.0491 0.10156,0.11801 0.1394,0.15616 0.0514,0.0518 0.1014,0.0861 0.12392,0.14055 0.0189,0.0463 0.0268,0.12164 0.062,0.15616 0.0261,0.0254 0.0751,0.0361 0.10843,0.0625 0.0315,0.0245 0.0751,0.0361 0.10843,0.0625 0.055,0.0436 0.12944,0.13129 0.21685,0.12493 0.046,-0.004 0.088,-0.0222 0.13941,-0.0312 0.0532,-0.009 0.11632,-0.0367 0.17039,-0.0312 0.0414,0.004 0.0807,0.034 0.12392,0.0312 0.0451,-0.002 0.10353,-0.0242 0.15489,-0.0468 0.0892,-0.0391 0.2265,-0.11277 0.35627,-0.0937 0.0991,0.0145 0.10099,0.12727 0.17038,0.17178 0.0793,0.007 0.13829,-0.0154 0.20137,0 0.0478,0.0118 0.10392,0.1024 0.10843,0.14054 0.004,0.0391 -0.0256,0.0692 -0.031,0.0937 -0.0126,0.0527 -0.022,0.12256 -0.031,0.15616 -0.007,0.0263 -0.0164,0.0517 -0.0155,0.0781 0,0.0236 0.0376,0.0784 0.062,0.10932 0.0297,0.0382 0.0724,0.0675 0.10843,0.10931 0.0658,0.0763 0.0934,0.18027 0.13941,0.28109 0.0117,0.0254 -0.0108,0.0307 0,0.0625 -0.0198,0.15259 -0.0713,0.2527 -0.17039,0.42164 -0.0468,0.0545 -0.0938,0.11928 -0.0929,0.18739 -0.003,0.16349 0.0847,0.24799 0.0775,0.40603 -0.0162,0.21253 9.9e-4,0.24564 -0.0155,0.35917 0.0712,0.0363 0.0362,0.14324 0.0155,0.21863 -0.0306,0.0899 -0.0603,0.11183 -0.0775,0.17178 0.037,0.0161 0.0679,0.0201 0.10843,0.0156 -0.81164,0.85073 -1.95858,1.37423 -3.22186,1.37423 -0.59134,0 -1.15647,-0.11729 -1.67289,-0.32794 -0.002,-5e-4 10e-4,-0.0149 0,-0.0156 0.0468,-0.02 0.13614,0.0351 0.17038,-0.0312 0.0172,-0.0318 -0.0226,-0.0931 0,-0.12493 0.0162,-0.0218 0.12156,-0.0414 0.1549,-0.0468 0.0478,-0.008 0.0969,10e-4 0.12392,-0.0156 0.0297,-0.0191 0.0674,-0.0686 0.062,-0.12493 -0.002,-0.0263 -0.0258,-0.0389 -0.0464,-0.0625 -0.0171,-0.02 -0.004,-0.0443 -0.0155,-0.0625 -0.0216,-0.0318 -0.053,-0.0473 -0.062,-0.0937 0.0649,-0.0127 0.15412,0.0732 0.24784,0.0468 0.0442,-0.0128 0.11867,-0.0988 0.1394,-0.14055 0.006,-0.0127 -0.007,-0.0626 0,-0.0781 0.008,-0.0172 0.0283,-0.0222 0.031,-0.0312 0.006,-0.0245 -0.005,-0.0315 0,-0.0468 0.0162,-0.0463 0.0659,-0.0757 0.0929,-0.10931 0.0207,-0.0254 0.043,-0.0517 0.062,-0.0781 0.0216,-0.0282 0.0321,-0.0379 0.0464,-0.0625 0.0135,-0.0827 -0.0508,-0.14597 -0.031,-0.21863 0.0216,-0.0817 0.13847,-0.13454 0.21686,-0.17177 0.027,-0.0127 0.0549,-0.0387 0.0774,-0.0468 0.0541,-0.0191 0.11992,-0.0131 0.17039,-0.0312 0.0847,-0.0309 0.11344,-0.12491 0.15489,-0.20301 0.0198,-0.0363 0.0429,-0.0674 0.0464,-0.0937 0.003,-0.0236 -0.004,-0.0508 0,-0.0781 0.004,-0.0272 0.008,-0.0481 0.0155,-0.0781 0.01,-0.0391 0.0155,-0.11257 0.0155,-0.15617 0,-0.0363 -0.0146,-0.0454 -0.0155,-0.0781 -0.006,-0.11807 0.0342,-0.12291 0.0774,-0.18739 0.0216,-0.0318 0.0312,-0.0866 0.0464,-0.10932 0.073,-0.10899 0.19488,-0.16264 0.18587,-0.32794 -0.003,-0.0545 -0.0223,-0.17013 -0.062,-0.18739 -0.0226,-0.01 -0.0751,-0.003 -0.10842,-0.0156 -0.10634,-0.04 -0.18347,-0.1627 -0.29431,-0.17178 -0.0234,-10e-4 -0.0358,10e-4 -0.062,0 -0.0433,-10e-4 -0.0908,-0.0414 -0.13941,-0.0468 -0.0306,-0.004 -0.0904,0.009 -0.10842,0 -0.028,-0.0136 -0.024,-0.0626 -0.0464,-0.0781 -0.018,-0.0127 -0.0495,-0.0212 -0.0774,-0.0312 -0.0442,-0.0172 -0.0725,-0.0276 -0.12391,-0.0312 -0.0162,-10e-4 -0.0595,0.002 -0.0774,0 -0.028,-0.005 -0.0513,-0.0305 -0.0774,-0.0468 -0.0324,-0.02 -0.0484,-0.0343 -0.062,-0.0625 0.0297,-0.0981 -0.0731,-0.11456 -0.0929,-0.17178 -0.009,-0.0263 0.009,-0.0701 0,-0.0937 -0.0117,-0.0336 -0.0405,-0.0499 -0.0774,-0.0781 -0.0649,-0.0509 -0.12403,-0.0975 -0.21685,-0.10931 -0.0414,-0.005 -0.0899,0.003 -0.13941,0 -0.0523,-0.003 -0.11525,-0.0327 -0.1549,-0.0781 -0.0379,-0.0445 -0.0441,-0.0884 -0.0774,-0.10931 -0.0315,-0.02 -0.0868,-0.026 -0.10843,-0.0468 -0.01,-0.009 -0.006,-0.026 -0.0155,-0.0468 -0.0162,-0.0327 -0.0508,-0.0381 -0.031,-0.0781 -0.036,-0.0182 -0.0232,0.0229 -0.062,0.0156 -0.0351,-0.05 -0.0601,-0.0779 -0.13941,-0.0625 -0.036,0.007 -0.0661,0.0616 -0.10842,0.0625 -0.0352,10e-4 -0.0625,-0.0561 -0.10843,-0.0625 -0.0352,-0.005 -0.0841,0.0367 -0.10843,0.0312 -0.0388,-0.007 -0.0423,-0.0544 -0.0774,-0.0781 -0.0261,-0.0173 -0.0785,-0.0634 -0.0929,-0.0625 -0.0451,10e-4 -0.0772,0.0961 -0.13941,0.0625 -0.0306,-0.0391 0.0516,-0.0418 0.0155,-0.0781 -0.027,-0.0272 -0.0403,10e-4 -0.062,0.0156 -0.0252,0.0172 -0.0495,0.0369 -0.0774,0.0468 -0.0622,0.0236 -0.10624,0.0215 -0.1549,0.0468 -0.0451,0.0236 -0.0513,0.063 -0.0774,0.10931 -0.0207,0.0382 -0.0614,0.0919 -0.0929,0.0937 -0.0379,0.002 -0.0742,-0.0479 -0.10843,-0.0625 -0.10363,-0.0454 -0.16223,0.0303 -0.24784,0.0312 -0.0793,10e-4 -0.18948,-0.12761 -0.18587,-0.20301 0.002,-0.0463 0.0256,-0.11456 0.031,-0.17178 0.004,-0.0454 0.0456,-0.0831 0.0464,-0.12493 9.9e-4,-0.0554 -0.0879,-0.10295 -0.12392,-0.10931 -0.0847,-0.0154 -0.19788,0.0382 -0.2943,0 -0.018,-0.0309 0.0356,-0.0481 0.0464,-0.0781 0.006,-0.0172 -0.006,-0.0277 0,-0.0468 0.0108,-0.0291 0.0484,-0.0472 0.062,-0.0781 0.01,-0.0236 0.006,-0.0646 0.0155,-0.0937 0.0117,-0.0327 0.0437,-0.0545 0.0464,-0.0781 0.003,-0.0309 -0.0222,-0.0737 -0.0464,-0.0937 -0.0748,0.004 -0.12713,0.0114 -0.17039,0.0312 -0.0973,0.0445 -0.0722,0.17213 -0.17039,0.20301 -0.0334,0.0109 -0.0861,0.0249 -0.12392,0.0312 0.0641,-0.32695 0.16405,-0.63966 0.29431,-0.93697 0.0342,0.006 0.0632,0.0285 0.0929,0.0312 0.0829,0.006 0.0864,-0.0574 0.15489,-0.0937 0.0703,0.01 0.10641,-0.007 0.17039,0 0.0433,0.005 0.10517,0.0597 0.13941,0.0625 0.0288,0.001 0.0349,-0.0358 0.062,-0.0312 0.027,0.005 0.0729,0.061 0.0774,0.0937 0.004,0.0409 -0.0273,0.0795 -0.0155,0.12493 0.0424,0.0436 0.1255,0.0683 0.18588,0.0937 0.0396,-0.0327 0.006,-0.10893 0,-0.15616 -9.9e-4,-0.0209 0.002,-0.0434 0,-0.0625 -0.004,-0.0327 -0.0155,-0.0655 -0.0155,-0.0937 0,-0.12988 0.0994,-0.18337 0.18588,-0.23424 0.0369,-0.0218 0.076,-0.0617 0.10843,-0.0781 0.046,-0.0227 0.0706,-0.0251 0.10843,-0.0468 0.0685,-0.0391 0.1327,-0.0804 0.18587,-0.12494 0.0243,-0.059 -0.002,-0.12926 0,-0.18739 0.0243,-0.0154 0.0358,0.002 0.062,0 0.0414,-0.009 0.054,-0.0701 0.0774,-0.0937 0.0135,-0.0136 0.0612,-0.0176 0.0774,-0.0312 0.0414,-0.0327 0.0414,-0.0792 0.0774,-0.0937 0.0126,-0.005 0.0421,-0.0102 0.062,-0.0156 0.0271,-0.007 0.0652,-0.0315 0.10843,-0.0468 0.028,-0.01 0.0976,-0.005 0.10842,-0.0156 0.0135,-0.0136 -0.003,-0.0728 0,-0.0937 0.0216,-0.10263 0.17231,-0.10603 0.26333,-0.14055 0.0631,-0.0245 0.13107,-0.0761 0.20137,-0.0625 -0.0135,0.049 -0.0737,0.0346 -0.062,0.0937 0.0153,0.0827 0.11057,-0.0194 0.1394,-0.0312 0.055,-0.0236 0.16025,-0.0361 0.23235,-0.0625 0.0631,-0.0227 0.1679,-0.067 0.10843,-0.14055 -0.0496,-0.003 -0.0652,0.0443 -0.10843,0.0625 -0.0297,0.004 -0.0367,-0.0138 -0.062,-0.0156 -0.0243,-10e-4 -0.0376,0.0201 -0.062,0.0156 -0.0243,-0.004 -0.0584,-0.049 -0.062,-0.0781 -0.01,-0.0763 0.0778,-0.0999 0.10843,-0.15616 -0.0207,-0.069 -0.11271,-0.004 -0.17039,-0.0312 0.006,-0.0409 0.0297,-0.0855 0.0774,-0.0937 0.0388,-0.006 0.13147,0.0123 0.1549,0.0312 0.0135,0.0118 -0.005,0.0433 0.0155,0.0625 0.0234,0.0209 0.0623,0.005 0.0929,0 0.0108,-0.0518 -0.071,-0.0288 -0.062,-0.0625 0.0613,-0.04 0.17304,-0.0212 0.24784,-0.0312 0.0433,-0.006 0.0852,-0.0416 0.12392,-0.0625 0.036,-0.0209 0.0706,-0.0502 0.10843,-0.0156 0.0108,0.0372 -0.0258,0.059 -0.0465,0.0781 -0.0694,0.0618 -0.13181,0.13126 -0.18587,0.20301 0.0333,0.0327 0.0835,0.009 0.1394,0.0156 0.0216,0.003 0.0549,0.012 0.0774,0.0156 0.0271,0.005 0.0558,-0.005 0.0774,0 0.0379,0.009 0.0396,0.0625 0.0774,0.0625 0.0613,0 0.0662,-0.0519 0.031,-0.0937 0.0108,-0.0427 0.0309,-0.0793 0.0155,-0.10932 -0.0279,-0.0563 -0.134,0.009 -0.1394,-0.0625 -0.003,-0.0454 0.0457,-0.0592 0.0619,-0.0937 -0.007,-0.0872 0.071,-0.0928 0.062,-0.17178 -0.004,-0.0327 -0.0394,-0.0316 -0.062,-0.0625 -0.0117,-0.0163 -0.0175,-0.0507 -0.031,-0.0625 -0.0469,-0.04 -0.134,-0.033 -0.13941,-0.10931 -0.002,-0.0454 0.006,-0.0759 0,-0.12493 -0.006,-0.0463 -0.0533,-0.17831 -0.0929,-0.1874 -0.0505,-0.0109 -0.079,0.0812 -0.13941,0.10932 -0.0324,0.0154 -0.0906,0.022 -0.12392,0.0156 -0.0216,-0.005 -0.0592,-0.0207 -0.062,-0.0625 -0.002,-0.0241 0.006,-0.0326 0.0155,-0.0468 0.002,-0.004 -0.002,-0.0121 0,-0.0156 0.39207,-0.1136 0.81087,-0.17178 1.23918,-0.17178 z m -1.84328,0.40602 c -0.044,0.14198 -0.17126,0.22303 -0.34077,0.21863 -0.0414,0.04 -0.024,0.11637 -0.0464,0.17178 -0.0189,0.0463 -0.078,0.0817 -0.12392,0.0781 -0.0334,-0.003 -0.0929,-0.0463 -0.0929,-0.0781 0,-0.026 0.025,-0.0555 0.031,-0.0781 0.18243,-0.11892 0.37368,-0.22084 0.57312,-0.31233 z m 3.79499,0.15616 c -0.0166,0.003 -0.0319,0.007 -0.0464,0.0156 -0.0342,0.0209 -0.0358,0.0525 -0.0619,0.0625 -0.0369,0.0136 -0.0875,0.0132 -0.0929,0.0468 -0.004,0.0282 0.0319,0.037 0.031,0.0625 -0.0135,0.0336 -0.0393,0.0372 -0.0464,0.0781 0.046,0.0754 0.16009,10e-4 0.21686,-0.0156 0.0252,-0.007 0.0484,0.004 0.062,-0.0156 0.0153,-0.0245 0.004,-0.0748 0.0155,-0.10932 0.0126,-0.0382 0.051,-0.0289 0.0464,-0.0625 -0.003,-0.0336 -0.068,-0.0679 -0.12392,-0.0625 z m -4.91025,0.57781 c 0.0331,0.0402 0.0607,0.0986 0,0.12493 -0.009,0.004 -0.11778,0.0201 -0.1394,0.0156 -0.007,-0.001 -0.009,-0.0114 -0.0155,-0.0156 0.0474,-0.0464 0.10553,-0.0807 0.1549,-0.12493 z m 0.12392,0.15616 c 0.0216,10e-4 0.0367,0.045 0.062,0.0468 0.0243,0.002 0.063,-0.0201 0.0774,-0.0156 0.0379,0.01 0.0515,0.0812 0.0155,0.10932 -0.0297,0.003 -0.0403,-0.0358 -0.0619,-0.0312 -0.0613,0.0109 -0.078,0.12857 -0.12392,0.12493 -0.0433,-0.004 -0.0752,-0.0931 -0.031,-0.12493 9.9e-4,-0.0273 -0.0174,-0.0352 -0.0155,-0.0625 0.0135,-0.0172 0.0414,-0.0496 0.0774,-0.0468 z m -0.20136,0.0312 c 0.0126,0 0.011,-0.005 0.0155,0 -0.006,0.0481 -0.025,0.0554 -0.062,0.0781 -0.064,0.0391 -0.10319,0.0882 -0.12392,0.17178 -0.006,0.0245 -0.0778,0.10005 -0.10842,0.0937 -0.0712,-0.0154 0.0302,-0.15089 0.0464,-0.17178 0.018,-0.0227 0.0412,-0.037 0.062,-0.0625 0.0207,-0.0254 0.0267,-0.0792 0.0464,-0.0937 0.0216,-0.0154 0.0861,-0.0175 0.12392,-0.0156 z m 6.10295,0.12493 c 0.0712,-0.005 0.10697,0.0813 0.13941,0.12493 0.027,0.0354 0.11073,0.0848 0.15489,0.10932 0.0252,0.0136 0.0495,0.0342 0.0774,0.0468 0.0293,0.0131 0.0738,0.0304 0.10843,0.0625 0.0346,0.032 0.0606,0.0802 0.062,0.10932 9.9e-4,0.0291 -0.02,0.0508 -0.0155,0.0781 0.0312,0.005 0.0474,-0.0269 0.062,-0.0625 0.1168,0.16798 0.21628,0.34723 0.3098,0.53096 -0.019,0.0118 -0.0272,0.0234 -0.031,0.0468 -0.009,0.0509 0.0292,0.11585 -0.0464,0.12493 -0.0477,0.006 -0.1046,-0.048 -0.17038,-0.0625 -0.027,-0.006 -0.0713,0.007 -0.0929,0 -0.0496,-0.0172 -0.0351,-0.0793 -0.0775,-0.10932 -0.0243,-0.0173 -0.0852,-0.0423 -0.12392,-0.0468 -0.0243,-0.002 -0.0367,0.004 -0.062,0 -0.0306,-0.004 -0.0832,-1.8e-4 -0.10842,-0.0156 -0.0243,-0.0154 -0.0866,-0.0416 -0.0929,-0.0625 -0.01,-0.0336 0.0756,-0.0812 0.0774,-0.10931 0.002,-0.0218 -0.0265,-0.0298 -0.031,-0.0625 -0.003,-0.02 0.004,-0.0497 0,-0.0625 -0.006,-0.0236 -0.0405,-0.0459 -0.0774,-0.0468 -0.0325,0 -0.065,0.0156 -0.0929,0.0156 -0.0396,10e-4 -0.12083,-0.0201 -0.17039,-0.0156 -0.0297,0.002 -0.0495,0.0138 -0.0774,0.0156 -0.0784,0.006 -0.12459,-0.005 -0.18587,0 -0.0442,0.002 -0.12894,0.0278 -0.17039,0.0468 -0.0207,0.01 -0.0349,0.0333 -0.062,0.0468 -0.0126,0.006 -0.0302,0.008 -0.0464,0.0156 -0.0252,0.0118 -0.0686,0.0405 -0.0929,0.0468 -0.0351,0.009 -0.0754,-0.003 -0.13941,0 -0.046,0.002 -0.12302,-0.007 -0.12392,-0.0625 -9.9e-4,-0.0845 0.15305,-0.048 0.23235,-0.0625 0.0297,-0.006 0.0414,-0.0416 0.0774,-0.0625 0.0172,-0.01 0.0302,-0.0203 0.0464,-0.0312 0.027,-0.0191 0.0729,-0.0563 0.0774,-0.0781 0.003,-0.02 -0.0182,-0.048 -0.0155,-0.0625 0.003,-0.0191 0.0376,-0.0379 0.062,-0.0625 0.0379,-0.0382 0.0616,-0.0848 0.10843,-0.10931 0.0315,-0.0172 0.094,-0.0215 0.10843,-0.0468 0.003,-0.0291 -9.9e-4,-0.0361 0,-0.0625 0.0198,-0.0182 0.0148,-0.0276 0.031,-0.0312 0.0487,-0.0109 0.0981,0.0183 0.1549,0.0156 0.0243,-10e-4 0.0513,0.002 0.0774,-0.0156 0.0216,-0.0145 0.0403,-0.036 0.062,-0.0468 0.0234,-0.0127 0.0486,-0.045 0.0774,-0.0468 z m -5.68473,0.0468 c 0.0119,-0.002 0.032,0.001 0.0464,0 0.0207,-10e-4 0.0394,0 0.062,0 0.0226,0 0.053,-0.009 0.062,0 -0.0144,0.0599 -0.15451,0.0375 -0.20137,0.0156 10e-4,-0.0114 0.019,-0.0137 0.031,-0.0156 z m -0.17039,0.10931 c 0.0153,0 0.0302,-0.006 0.0464,0 -0.0414,0.0354 -0.0983,0.0554 -0.17039,0.0781 -0.0343,0.0109 -0.0866,0.0225 -0.0929,-0.0156 -0.007,-0.0472 0.0313,-0.0423 0.062,-0.0468 0.0396,-0.005 0.10894,-0.0147 0.1549,-0.0156 z m 5.87061,0 c -0.0297,0.01 -0.0442,0.0699 0,0.0781 0.0207,-0.0127 0.0209,-0.0399 0.0155,-0.0781 -0.0117,-0.0127 -0.006,-0.004 -0.0155,0 z m -0.0155,0.12493 c -0.0144,0.005 -0.0312,-10e-4 -0.0464,0.0156 9.9e-4,0.0509 0.01,0.0804 0,0.12493 0.0288,0.0563 0.094,0.0225 0.10843,-0.0156 0.0172,-0.0945 -0.0187,-0.13674 -0.062,-0.12493 z m 0.38725,0.24986 c -0.0397,-0.002 -0.0695,0.0123 -0.0929,0.0312 0.0334,0.0545 0.0956,0.0645 0.17039,0.0781 0.027,-0.02 0.0184,-0.0748 0.031,-0.10931 -0.0325,0 -0.0533,0.002 -0.0929,0 z m -7.86879,1.9208 c 0.0317,0.0407 0.0659,0.0881 0.10843,0.10932 0.0226,0.0118 0.0486,0.009 0.0774,0.0156 0.0235,0.004 0.0395,0.024 0.062,0.0312 0.0478,0.0163 0.11705,0.014 0.1549,0.0312 0.0577,0.0254 0.0898,0.1271 0.1394,0.15616 0.002,0.0291 -0.009,0.0563 0,0.0781 0.0235,0.0318 0.0706,0.0416 0.10843,0.0625 0.046,0.0254 0.0652,0.0893 0.10843,0.10932 0.0153,0.006 0.0385,-0.007 0.062,0 0.0595,0.0182 0.0726,0.10913 0.12392,0.0937 0.0334,-0.01 0.0411,-0.061 0.0464,-0.0937 0.0226,-0.0245 0.0423,-0.0625 0.0774,-0.0625 0.0559,-0.001 0.0722,0.0695 0.0929,0.12493 0.0117,0.0309 0.0384,0.061 0.0464,0.0937 0.0135,0.0563 0.0117,0.21625 0,0.24986 -0.0144,0.0418 -0.0742,0.0639 -0.10842,0.10931 -0.0162,0.0218 -0.0339,0.048 -0.0464,0.0625 -0.0216,0.0272 -0.0457,0.038 -0.062,0.0625 -0.009,0.0136 -0.007,0.0434 -0.0155,0.0625 -0.0271,0.0581 -0.069,0.10184 -0.0464,0.17178 0.009,0.0282 0.0464,0.0601 0.0464,0.0937 0,0.04 -0.0866,0.0501 -0.0929,0.0937 -0.004,0.0318 0.0366,0.0979 0.0464,0.14055 0.007,0.0318 0.0585,0.0572 0.0774,0.0781 0.0315,0.0354 0.0641,0.0795 0.0929,0.12493 0.0568,0.0881 0.0836,0.19481 0.13941,0.28109 0.0297,0.0445 0.0886,0.0777 0.10843,0.12493 0.01,0.0236 -0.009,0.0719 0,0.0937 0.0324,0.0736 0.19033,0.15107 0.26332,0.1874 0.0342,0.0173 0.0614,0.0286 0.0929,0.0468 0.0478,0.0273 0.14606,0.0822 0.17039,0.12493 0.0216,0.0382 0.0356,0.12654 0.0464,0.1874 0.0135,0.0799 -0.003,0.14795 0,0.23424 0.002,0.0472 0.0155,0.0777 0.0155,0.12493 0,0.0163 9.9e-4,0.0461 0,0.0625 -0.001,0.0563 0.004,0.11457 0,0.17178 -0.002,0.0309 -0.002,0.0674 0,0.0937 0.002,0.0282 0.0292,0.0379 0.031,0.0625 0.002,0.0263 -0.0337,0.0572 -0.031,0.0781 0.006,0.0572 0.0666,0.10348 0.0774,0.15616 0.009,0.0418 0.0209,0.13744 0.0155,0.1874 -0.003,0.0263 -0.0119,0.0646 -0.0155,0.0937 -0.002,0.0227 0.003,0.0416 0,0.0625 -1.23506,-0.79982 -2.06013,-2.1893 -2.06013,-3.77914 0,-0.20383 0.0204,-0.39678 0.0464,-0.59342 z m 1.70387,0.45287 c 0.0433,-0.02 0.0352,0.057 0,0.0625 -0.0333,0.005 -0.0324,-0.047 0,-0.0625 z" />
  </g>
</svg>
