<?xml version="1.0" encoding="UTF-8" standalone="no"?>
<svg
   xmlns:dc="http://purl.org/dc/elements/1.1/"
   xmlns:cc="http://creativecommons.org/ns#"
   xmlns:rdf="http://www.w3.org/1999/02/22-rdf-syntax-ns#"
   xmlns:svg="http://www.w3.org/2000/svg"
   xmlns="http://www.w3.org/2000/svg"
   xmlns:xlink="http://www.w3.org/1999/xlink"
   xmlns:sodipodi="http://sodipodi.sourceforge.net/DTD/sodipodi-0.dtd"
   xmlns:inkscape="http://www.inkscape.org/namespaces/inkscape"
   width="32"
   version="1.1"
   height="32"
   viewBox="0 0 32 32"
   id="svg17"
   sodipodi:docname="folder-activities.svg"
   inkscape:version="1.0.2 (e86c870879, 2021-01-15)">
  <sodipodi:namedview
     pagecolor="#ffffff"
     bordercolor="#666666"
     borderopacity="1"
     objecttolerance="10"
     gridtolerance="10"
     guidetolerance="10"
     inkscape:pageopacity="0"
     inkscape:pageshadow="2"
     inkscape:window-width="1920"
     inkscape:window-height="1007"
     id="namedview19"
     showgrid="true"
     inkscape:zoom="9.8125"
     inkscape:cx="-6.3456666"
     inkscape:cy="29.951196"
     inkscape:window-x="0"
     inkscape:window-y="0"
     inkscape:window-maximized="1"
     inkscape:current-layer="layer1"
     inkscape:document-rotation="0">
    <inkscape:grid
       type="xygrid"
       id="grid908" />
  </sodipodi:namedview>
  <defs
     id="defs5455">
    <linearGradient
       inkscape:collect="always"
       xlink:href="#linearGradient860"
       id="linearGradient862"
       x1="113.94677"
       y1="255.36646"
       x2="406.08289"
       y2="255.36646"
       gradientUnits="userSpaceOnUse"
       gradientTransform="matrix(0.10135136,0,0,0.09220348,374.22015,507.65424)" />
    <linearGradient
       inkscape:collect="always"
       id="linearGradient860">
      <stop
         style="stop-color:#66e0ff;stop-opacity:1"
         offset="0"
         id="stop856" />
      <stop
         style="stop-color:#ffeeaa;stop-opacity:1"
         offset="1"
         id="stop858" />
    </linearGradient>
    <linearGradient
       inkscape:collect="always"
       xlink:href="#linearGradient842"
       id="linearGradient844-3"
       x1="386.30627"
       y1="522.45404"
       x2="446.83023"
       y2="522.45404"
       gradientUnits="userSpaceOnUse"
       gradientTransform="matrix(0.49567138,0,0,0.49972091,194.09048,274.04964)" />
    <linearGradient
       inkscape:collect="always"
       id="linearGradient842">
      <stop
         style="stop-color:#67ffff;stop-opacity:1"
         offset="0"
         id="stop838" />
      <stop
         style="stop-color:#77c5ee;stop-opacity:1"
         offset="1"
         id="stop840-6" />
    </linearGradient>
  </defs>
  <metadata
     id="metadata5458">
    <rdf:RDF>
      <cc:Work
         rdf:about="">
        <dc:format>image/svg+xml</dc:format>
        <dc:type
           rdf:resource="http://purl.org/dc/dcmitype/StillImage" />
      </cc:Work>
    </rdf:RDF>
  </metadata>
  <g
     inkscape:label="Capa 1"
     inkscape:groupmode="layer"
     id="layer1"
     transform="translate(-384.57143,-515.798)">
    <path
       style="fill:url(#linearGradient862);fill-opacity:1;stroke-width:0.0895686"
       d="m 400.57301,522.37783 c -0.44016,-10e-6 -0.96119,-0.25825 -1.15846,-0.57392 l -0.88505,-1.4186 c -0.19637,-0.31567 -0.7174,-0.57333 -1.1574,-0.57391 l -10.20056,-0.0134 c -0.973,-10e-4 -1.40297,0.46738 -1.40283,1.50207 l 6e-5,0.43614 v 1.28321 18.28579 c 0,0.35288 1.16035,1.28321 1.60035,1.28321 h 26.40757 c 0.44002,0 1.60491,-0.93033 1.60491,-1.28321 l -9e-5,-17.50662 c 0,-0.96241 -0.43412,-1.42052 -1.42463,-1.42054 z"
       id="path4-3"
       sodipodi:nodetypes="sccsssccsssssss" />
    <path
       style="fill:#434c5e;fill-opacity:1;stroke-width:0.0882823"
       d="m 413.46046,529.22774 c 0,0.66273 -0.39788,1.20497 -1.30857,1.20497 H 389.0541 c -0.9107,0 -1.25926,-0.54224 -1.25926,-1.20497 v -3.61493 c 0,-0.66274 0.34856,-1.20498 1.25926,-1.20498 h 23.04823 c 0.91068,0 1.35813,0.54224 1.35813,1.20498 z"
       id="path8-6"
       sodipodi:nodetypes="sssssssss" />
    <path
       style="fill:url(#linearGradient844-3);fill-opacity:1;stroke-width:0.0966695"
       d="m 413.94973,526.46375 h -26.7566 c -0.81091,0 -1.6217,0.73763 -1.6217,1.47525 v 14.38375 c 0,0.97553 0.62711,1.47525 1.6217,1.47525 h 26.7566 c 0.99775,0 1.6217,-0.49972 1.6217,-1.47525 V 527.939 c 0,-0.73762 -0.81079,-1.47525 -1.6217,-1.47525 z"
       id="path10"
       sodipodi:nodetypes="sssssssss" />
    <path
       style="color:#000000;fill:#434c5e;fill-opacity:1;stroke-width:0.696769"
       id="path3023-3-3"
       d="m 398.1937,530.69192 a 0.74350832,0.74957887 0 0 0 -0.74351,0.74958 0.74350832,0.74957887 0 0 0 0.74351,0.74958 0.74350832,0.74957887 0 0 0 0.74351,-0.74958 0.74350832,0.74957887 0 0 0 -0.74351,-0.74958 z m 4.21321,0 -1.40957,1.42108 2.16857,2.18628 -2.24602,2.57668 1.48702,1.31177 3.4697,-3.99777 z m -5.20455,3.49804 a 1.2391748,1.2493023 0 0 0 -1.23918,1.24931 1.2391748,1.2493023 0 0 0 1.23918,1.2493 1.2391748,1.2493023 0 0 0 1.23918,-1.2493 1.2391748,1.2493023 0 0 0 -1.23918,-1.24931 z m 2.23052,3.49805 a 1.4870104,1.4991627 0 0 0 -1.48701,1.49916 1.4870104,1.4991627 0 0 0 1.48701,1.49917 1.4870104,1.4991627 0 0 0 1.48701,-1.49917 1.4870104,1.4991627 0 0 0 -1.48701,-1.49916 z" />
  </g>
</svg>
