<?xml version="1.0" encoding="UTF-8" standalone="no"?>
<svg
   xmlns:dc="http://purl.org/dc/elements/1.1/"
   xmlns:cc="http://creativecommons.org/ns#"
   xmlns:rdf="http://www.w3.org/1999/02/22-rdf-syntax-ns#"
   xmlns:svg="http://www.w3.org/2000/svg"
   xmlns="http://www.w3.org/2000/svg"
   xmlns:xlink="http://www.w3.org/1999/xlink"
   xmlns:sodipodi="http://sodipodi.sourceforge.net/DTD/sodipodi-0.dtd"
   xmlns:inkscape="http://www.inkscape.org/namespaces/inkscape"
   width="32"
   version="1.1"
   height="32"
   viewBox="0 0 32 32"
   id="svg15"
   sodipodi:docname="folder-Reddit.svg"
   inkscape:version="1.0.2 (e86c870879, 2021-01-15)">
  <sodipodi:namedview
     pagecolor="#ffffff"
     bordercolor="#666666"
     borderopacity="1"
     objecttolerance="10"
     gridtolerance="10"
     guidetolerance="10"
     inkscape:pageopacity="0"
     inkscape:pageshadow="2"
     inkscape:window-width="1920"
     inkscape:window-height="1007"
     id="namedview17"
     showgrid="false"
     inkscape:zoom="9.8125"
     inkscape:cx="-12.999029"
     inkscape:cy="6.4668704"
     inkscape:window-x="0"
     inkscape:window-y="0"
     inkscape:window-maximized="1"
     inkscape:current-layer="layer1"
     inkscape:document-rotation="0" />
  <defs
     id="defs5455">
    <linearGradient
       inkscape:collect="always"
       xlink:href="#linearGradient860-3"
       id="linearGradient862-3"
       x1="113.94677"
       y1="255.36646"
       x2="406.08289"
       y2="255.36646"
       gradientUnits="userSpaceOnUse"
       gradientTransform="matrix(0.10135136,0,0,0.09220309,374.22015,507.65438)" />
    <linearGradient
       inkscape:collect="always"
       id="linearGradient860-3">
      <stop
         style="stop-color:#66ffe8;stop-opacity:1"
         offset="0"
         id="stop856-6" />
      <stop
         style="stop-color:#7eb2ff;stop-opacity:1"
         offset="1"
         id="stop858-7" />
    </linearGradient>
    <linearGradient
       inkscape:collect="always"
       xlink:href="#linearGradient842-3"
       id="linearGradient844-5"
       x1="386.30627"
       y1="522.45404"
       x2="446.83023"
       y2="522.45404"
       gradientUnits="userSpaceOnUse"
       gradientTransform="matrix(0.49567138,0,0,0.49971881,194.09047,274.05072)" />
    <linearGradient
       inkscape:collect="always"
       id="linearGradient842-3">
      <stop
         style="stop-color:#92beff;stop-opacity:1"
         offset="0"
         id="stop838-5" />
      <stop
         style="stop-color:#00ffff;stop-opacity:1"
         offset="1"
         id="stop840-6" />
    </linearGradient>
  </defs>
  <metadata
     id="metadata5458">
    <rdf:RDF>
      <cc:Work
         rdf:about="">
        <dc:format>image/svg+xml</dc:format>
        <dc:type
           rdf:resource="http://purl.org/dc/dcmitype/StillImage" />
      </cc:Work>
    </rdf:RDF>
  </metadata>
  <g
     inkscape:label="Capa 1"
     inkscape:groupmode="layer"
     id="layer1"
     transform="translate(-384.57143,-515.798)">
    <path
       style="fill:url(#linearGradient862-3);fill-opacity:1;stroke-width:0.0895684"
       d="m 400.57301,522.3779 c -0.44016,0 -0.96119,-0.25823 -1.15846,-0.57391 l -0.88505,-1.41859 c -0.19637,-0.31567 -0.7174,-0.57332 -1.1574,-0.5739 l -10.20056,-0.0135 c -0.973,-10e-4 -1.3831,0.46748 -1.39692,1.50207 l -0.006,0.43612 v 1.28323 18.2857 c 0,0.35289 1.16035,1.2832 1.60035,1.2832 h 26.40757 c 0.44002,0 1.60036,-0.93031 1.60036,-1.2832 v -17.64411 c 0,-0.9624 -0.40002,-1.28321 -1.60036,-1.28321 z"
       id="path4-3-2"
       sodipodi:nodetypes="sccsssccsssssss" />
    <path
       style="fill:#434c5e;fill-opacity:1;stroke-width:0.0882824"
       d="m 413.46046,529.22778 c 0,0.66274 -0.39788,1.20497 -1.30857,1.20497 H 389.0541 c -0.9107,0 -1.25926,-0.54223 -1.25926,-1.20497 v -3.6149 c 0,-0.66274 0.34856,-1.20497 1.25926,-1.20497 h 23.04823 c 0.91068,0 1.35813,0.54223 1.35813,1.20497 z"
       id="path8-6-9"
       sodipodi:nodetypes="sssssssss" />
    <path
       style="fill:url(#linearGradient844-5);fill-opacity:1;stroke-width:0.0966694"
       d="m 413.94973,526.4638 h -26.7566 c -0.81091,0 -1.6217,0.73763 -1.6217,1.47526 v 14.38368 c 0,0.97554 0.62711,1.47526 1.6217,1.47526 h 26.7566 c 0.99775,0 1.6217,-0.49972 1.6217,-1.47526 v -14.38368 c 0,-0.73763 -0.81079,-1.47526 -1.6217,-1.47526 z"
       id="path10-1"
       sodipodi:nodetypes="sssssssss" />
    <path
       d="m 405.87242,536.12256 c 0,-0.82211 -0.66342,-1.48886 -1.47672,-1.48886 -0.32044,0 -0.62644,0.10354 -0.87908,0.292 -0.71686,-0.36447 -1.56923,-0.58392 -2.47085,-0.63568 l 0.58945,-1.64205 1.42545,0.35824 c 0.0308,0.59014 0.51756,1.05806 1.1091,1.05806 0.612,0 1.11111,-0.50319 1.11111,-1.12019 0,-0.61707 -0.49911,-1.12026 -1.11111,-1.12026 -0.41696,0 -0.78048,0.23189 -0.97151,0.57566 l -1.95328,-0.49283 -0.85028,2.37092 c -0.9797,0.029 -1.90812,0.2526 -2.68242,0.644 -0.25264,-0.18847 -0.55656,-0.28988 -0.877,-0.28988 -0.81538,0.002 -1.4788,0.67086 -1.4788,1.49087 0,0.40167 0.16431,0.78887 0.44568,1.06639 -0.0184,0.11801 -0.0288,0.23812 -0.0288,0.35815 0,0.90076 0.52166,1.73734 1.46645,2.35443 0.90371,0.59216 2.10115,0.91724 3.37047,0.91724 1.26932,0 2.46467,-0.32508 3.37039,-0.91724 0.94479,-0.61917 1.46653,-1.4557 1.46653,-2.35443 0,-0.118 -0.0103,-0.23602 -0.0267,-0.35403 0.28546,-0.27541 0.45187,-0.6647 0.45187,-1.07051 z m -7.57069,0.86967 c 0,-0.47835 0.38615,-0.86765 0.86063,-0.86765 0.4744,0 0.86055,0.3893 0.86055,0.86765 0,0.47828 -0.38615,0.86758 -0.86055,0.86758 -0.47448,0 -0.86063,-0.3893 -0.86063,-0.86758 z m 2.36816,2.74566 c -0.66752,0 -1.31859,-0.19049 -1.88132,-0.55075 l 0.33063,-0.5239 c 0.46421,0.29815 1.00232,0.45556 1.55277,0.45556 0.55047,0 1.08648,-0.15741 1.5527,-0.45556 l 0.33071,0.5239 c -0.56691,0.36026 -1.21798,0.55075 -1.88549,0.55075 z m 1.52606,-1.87808 c -0.47449,0 -0.86055,-0.3893 -0.86055,-0.86758 0,-0.47835 0.38606,-0.86765 0.86055,-0.86765 0.47448,0 0.86055,0.3893 0.86055,0.86765 0,0.47828 -0.38607,0.86758 -0.86055,0.86758 z m 0,0"
       id="path2-3-3"
       style="fill:#434c5e;fill-opacity:1;stroke-width:0.0206227" />
  </g>
</svg>
