<?xml version="1.0" encoding="UTF-8" standalone="no"?>
<svg
   xmlns:dc="http://purl.org/dc/elements/1.1/"
   xmlns:cc="http://creativecommons.org/ns#"
   xmlns:rdf="http://www.w3.org/1999/02/22-rdf-syntax-ns#"
   xmlns:svg="http://www.w3.org/2000/svg"
   xmlns="http://www.w3.org/2000/svg"
   xmlns:xlink="http://www.w3.org/1999/xlink"
   xmlns:sodipodi="http://sodipodi.sourceforge.net/DTD/sodipodi-0.dtd"
   xmlns:inkscape="http://www.inkscape.org/namespaces/inkscape"
   width="32"
   version="1.1"
   height="32"
   viewBox="0 0 32 32"
   id="svg15"
   sodipodi:docname="folder-KDE.svg"
   inkscape:version="1.0.2 (e86c870879, 2021-01-15)">
  <sodipodi:namedview
     pagecolor="#ffffff"
     bordercolor="#666666"
     borderopacity="1"
     objecttolerance="10"
     gridtolerance="10"
     guidetolerance="10"
     inkscape:pageopacity="0"
     inkscape:pageshadow="2"
     inkscape:window-width="1920"
     inkscape:window-height="1007"
     id="namedview17"
     showgrid="false"
     inkscape:zoom="9.8125"
     inkscape:cx="-12.999029"
     inkscape:cy="6.4668704"
     inkscape:window-x="0"
     inkscape:window-y="0"
     inkscape:window-maximized="1"
     inkscape:current-layer="layer1"
     inkscape:document-rotation="0" />
  <defs
     id="defs5455">
    <linearGradient
       inkscape:collect="always"
       id="linearGradient860">
      <stop
         style="stop-color:#80e5ff;stop-opacity:1"
         offset="0"
         id="stop856" />
      <stop
         style="stop-color:#3daee9;stop-opacity:1"
         offset="1"
         id="stop858" />
    </linearGradient>
    <linearGradient
       inkscape:collect="always"
       id="linearGradient842">
      <stop
         style="stop-color:#3daee9;stop-opacity:1"
         offset="0"
         id="stop838" />
      <stop
         style="stop-color:#a3d9f5;stop-opacity:1"
         offset="1"
         id="stop840" />
    </linearGradient>
    <linearGradient
       inkscape:collect="always"
       xlink:href="#linearGradient860"
       id="linearGradient862-3"
       x1="113.94677"
       y1="255.36646"
       x2="406.08289"
       y2="255.36646"
       gradientUnits="userSpaceOnUse"
       gradientTransform="matrix(0.10135136,0,0,0.09220348,374.22015,507.65423)" />
    <linearGradient
       inkscape:collect="always"
       xlink:href="#linearGradient842"
       id="linearGradient844-7"
       x1="386.30627"
       y1="522.45404"
       x2="446.83023"
       y2="522.45404"
       gradientUnits="userSpaceOnUse"
       gradientTransform="matrix(0.49567138,0,0,0.4997209,194.09048,274.0496)" />
  </defs>
  <metadata
     id="metadata5458">
    <rdf:RDF>
      <cc:Work
         rdf:about="">
        <dc:format>image/svg+xml</dc:format>
        <dc:type
           rdf:resource="http://purl.org/dc/dcmitype/StillImage" />
      </cc:Work>
    </rdf:RDF>
  </metadata>
  <g
     inkscape:label="Capa 1"
     inkscape:groupmode="layer"
     id="layer1"
     transform="translate(-384.57143,-515.798)">
    <path
       style="fill:url(#linearGradient862-3);fill-opacity:1;stroke-width:0.0895687"
       d="m 400.57301,522.37781 c -0.44016,0 -0.96119,-0.25824 -1.15846,-0.57391 l -0.88505,-1.4186 c -0.19637,-0.31567 -0.7174,-0.57332 -1.1574,-0.5739 l -10.20056,-0.0134 c -0.973,-10e-4 -1.3831,0.46748 -1.39692,1.50207 l -0.006,0.43615 v 1.2832 18.28578 c 0,0.35289 1.16035,1.28322 1.60035,1.28322 h 26.40757 c 0.44002,0 1.60036,-0.93033 1.60036,-1.28322 v -17.64418 c 0,-0.9624 -0.40002,-1.28321 -1.60036,-1.28321 z"
       id="path4-3-5"
       sodipodi:nodetypes="sccsssccsssssss" />
    <path
       style="fill:#434c5e;fill-opacity:1;stroke-width:0.0882827"
       d="m 413.46046,529.22772 c 0,0.66275 -0.39788,1.20498 -1.30857,1.20498 H 389.0541 c -0.9107,0 -1.25926,-0.54223 -1.25926,-1.20498 v -3.61491 c 0,-0.66275 0.34856,-1.20498 1.25926,-1.20498 h 23.04823 c 0.91068,0 1.35813,0.54223 1.35813,1.20498 z"
       id="path8-6-6"
       sodipodi:nodetypes="sssssssss" />
    <path
       style="fill:url(#linearGradient844-7);fill-opacity:1;stroke-width:0.0966697"
       d="m 413.94973,526.46373 h -26.7566 c -0.81091,0 -1.6217,0.73764 -1.6217,1.47526 v 14.38375 c 0,0.97554 0.62711,1.47526 1.6217,1.47526 h 26.7566 c 0.99775,0 1.6217,-0.49972 1.6217,-1.47526 v -14.38375 c 0,-0.73762 -0.81079,-1.47526 -1.6217,-1.47526 z"
       id="path10-2"
       sodipodi:nodetypes="sssssssss" />
    <path
       style="color:#d3dae3;fill:#434c5e;fill-opacity:1;stroke-width:0.475183"
       d="m 401.47916,530.72039 -1.89772,0.28819 v 6.88629 l 1.89772,-0.51127 v -2.66045 l 1.89767,3.1364 1.89769,-0.71393 -2.3721,-2.85564 2.37302,-3.09271 -1.84117,-0.47688 -1.95511,3.12153 z m -3.86397,1.86751 c -0.0448,0 -0.0898,0.0175 -0.12415,0.052 l -0.74594,0.74833 c -0.0688,0.0691 -0.0522,0.16766 0,0.25005 l 0.77189,1.21588 c -0.0572,0.11911 -0.10671,0.24173 -0.14826,0.3672 -0.002,0.005 -0.005,0.0103 -0.006,0.0156 l -1.40011,0.31232 c -0.095,0.0213 -0.17604,0.0789 -0.17604,0.17666 v 0.46756 0.46757 c 0,0.0977 0.0811,0.15543 0.17604,0.17662 l 1.40011,0.31235 c 0.003,0.009 0.008,0.0177 0.0111,0.0268 0.0405,0.12187 0.0884,0.24109 0.14363,0.35697 l -0.77188,1.21495 c -0.0522,0.0823 -0.0688,0.18101 0,0.25005 l 0.74594,0.74831 c 0.0688,0.0691 0.17948,0.0691 0.2483,0 l 1.21017,-0.7734 c 0.11895,0.058 0.24151,0.10835 0.36692,0.15057 0.008,0.003 0.0158,0.007 0.0242,0.0102 l 0.31041,1.40368 c 0,0.0976 0.0787,0.17661 0.17607,0.17661 h 1.05353 c 0.0974,0 0.15495,-0.0813 0.17607,-0.17661 l 0.3104,-1.44643 c 0.14262,-0.0538 0.28106,-0.11811 0.41419,-0.19245 l 1.18143,0.84779 c 0.0688,0.0691 0.1795,0.0691 0.24832,0 l 0.74593,-0.7483 c 0.0688,-0.0691 0.0523,-0.16768 0,-0.25006 l -0.4494,-0.68417 -0.0471,0.0176 c -0.10688,0.0403 -0.22715,-10e-4 -0.28632,-0.0995 l -0.47257,-0.78084 c -0.39374,0.94483 -1.32361,1.60911 -2.40825,1.60911 -1.44109,0 -2.60932,-1.172 -2.60932,-2.61771 0,-1.10938 0.68924,-2.05531 1.66047,-2.43641 v -0.52151 l -0.004,0.0166 c -0.0105,0.003 -0.0201,0.009 -0.0306,0.0131 -0.12375,0.0413 -0.24474,0.0903 -0.36228,0.14687 l -1.20833,-0.77249 c -0.0346,-0.0346 -0.0793,-0.052 -0.12416,-0.052 z"
       class="ColorScheme-Text"
       id="path10-7-6" />
  </g>
</svg>
